  0
SECTION
  2
HEADER
  9
$ANGBASE
  50
0.0
  9
$ANGDIR
  70
1
  9
$MEASUREMENT
  70
1
  0
ENDSEC
  0
SECTION
  2
TABLES
  0
TABLE
  2
LTYPE
  70
4
  0
LTYPE
  5
40F
  2
CONTINUOUS
  70
0
  3
Solid line
  72
65
  73
0
  40
0.0
  0
LTYPE
  5
410
  2
DASHDOT
 70
0
  3
Dash Dot ____ _ ____ _
 72
65
 73
4
 40
2.0
 49
1.25
 49
-0.25
 49
0.25
 49
-0.25
  0
LTYPE
  5
411
  2
DASHED
 70
0
  3
Dashed __ __ __ __ __
 72
65
 73
2
 40
0.75
 49
0.5
 49
-0.25
  0
LTYPE
  5
43B
  2
DOTTED
 70
0
  3
Dotted .  .  .  .
 72
65
 73
2
 40
0.2
 49
0.0
 49
-0.2
  0
ENDTAB
  0
TABLE
  2
STYLE
  70
4
  0
STYLE
  2
KICAD
  70
0
  40
0
  41
1
  42
1
  50
0
  71
0
  3
isocp.shx
  0
STYLE
  2
KICADB
  70
0
  40
0
  41
1
  42
1
  50
0
  71
0
  3
isocp.shx
  0
STYLE
  2
KICADI
  70
0
  40
0
  41
1
  42
1
  50
15
  71
0
  3
isocp.shx
  0
STYLE
  2
KICADBI
  70
0
  40
0
  41
1
  42
1
  50
15
  71
0
  3
isocp.shx
  0
ENDTAB
  0
TABLE
  2
LAYER
  70
1
  0
LAYER
  2
BLACK
  70
0
  62
7
  6
CONTINUOUS
  0
ENDTAB
  0
ENDSEC
  0
SECTION
  2
ENTITIES
0
LINE
8
BLACK
6
CONTINUOUS
10
72.2337479999999914
20
-118.2466439999999892
11
72.4615549999999899
21
-118.3076849999999922
0
LINE
8
BLACK
6
CONTINUOUS
10
72.4615549999999899
20
-118.3076849999999922
11
72.6794469999999961
21
-118.3979379999999964
0
LINE
8
BLACK
6
CONTINUOUS
10
72.6794469999999961
20
-118.3979379999999964
11
72.8836929999999938
21
-118.5158599999999893
0
LINE
8
BLACK
6
CONTINUOUS
10
72.8836929999999938
20
-118.5158599999999893
11
73.070801000000003
21
-118.6594329999999928
0
LINE
8
BLACK
6
CONTINUOUS
10
73.070801000000003
20
-118.6594329999999928
11
73.2375669999999985
21
-118.8261989999999884
0
LINE
8
BLACK
6
CONTINUOUS
10
73.2375669999999985
20
-118.8261989999999884
11
73.381140000000002
21
-119.0133069999999975
0
LINE
8
BLACK
6
CONTINUOUS
10
73.381140000000002
20
-119.0133069999999975
11
73.499061999999995
21
-119.2175529999999952
0
LINE
8
BLACK
6
CONTINUOUS
10
73.499061999999995
20
-119.2175529999999952
11
73.5893149999999991
21
-119.4354450000000014
0
LINE
8
BLACK
6
CONTINUOUS
10
73.5893149999999991
20
-119.4354450000000014
11
73.6503560000000022
21
-119.663252
0
LINE
8
BLACK
6
CONTINUOUS
10
73.6503560000000022
20
-119.663252
11
73.6811399999999992
21
-119.8970779999999934
0
LINE
8
BLACK
6
CONTINUOUS
10
73.6811399999999992
20
-119.8970779999999934
11
73.6811399999999992
21
-120.1329219999999935
0
LINE
8
BLACK
6
CONTINUOUS
10
73.6811399999999992
20
-120.1329219999999935
11
73.6503560000000022
21
-120.3667480000000012
0
LINE
8
BLACK
6
CONTINUOUS
10
73.6503560000000022
20
-120.3667480000000012
11
73.5893149999999991
21
-120.5945549999999997
0
LINE
8
BLACK
6
CONTINUOUS
10
73.5893149999999991
20
-120.5945549999999997
11
73.499061999999995
21
-120.8124469999999917
0
LINE
8
BLACK
6
CONTINUOUS
10
73.499061999999995
20
-120.8124469999999917
11
73.381140000000002
21
-121.0166929999999894
0
LINE
8
BLACK
6
CONTINUOUS
10
73.381140000000002
20
-121.0166929999999894
11
73.2375669999999985
21
-121.2038009999999986
0
LINE
8
BLACK
6
CONTINUOUS
10
73.2375669999999985
20
-121.2038009999999986
11
73.070801000000003
21
-121.3705669999999941
0
LINE
8
BLACK
6
CONTINUOUS
10
73.070801000000003
20
-121.3705669999999941
11
72.8836929999999938
21
-121.5141399999999976
0
LINE
8
BLACK
6
CONTINUOUS
10
72.8836929999999938
20
-121.5141399999999976
11
72.6794469999999961
21
-121.6320619999999906
0
LINE
8
BLACK
6
CONTINUOUS
10
72.6794469999999961
20
-121.6320619999999906
11
72.4615549999999899
21
-121.7223149999999947
0
LINE
8
BLACK
6
CONTINUOUS
10
72.4615549999999899
20
-121.7223149999999947
11
72.2337479999999914
21
-121.7833559999999977
0
LINE
8
BLACK
6
CONTINUOUS
10
72.2337479999999914
20
-121.7833559999999977
11
71.999921999999998
21
-121.8141399999999948
0
LINE
8
BLACK
6
CONTINUOUS
10
71.999921999999998
20
-121.8141399999999948
11
71.7640779999999978
21
-121.8141399999999948
0
LINE
8
BLACK
6
CONTINUOUS
10
71.7640779999999978
20
-121.8141399999999948
11
71.5302519999999902
21
-121.7833559999999977
0
LINE
8
BLACK
6
CONTINUOUS
10
71.5302519999999902
20
-121.7833559999999977
11
71.3024449999999916
21
-121.7223149999999947
0
LINE
8
BLACK
6
CONTINUOUS
10
71.3024449999999916
20
-121.7223149999999947
11
71.0845529999999997
21
-121.6320619999999906
0
LINE
8
BLACK
6
CONTINUOUS
10
71.0845529999999997
20
-121.6320619999999906
11
70.8803070000000019
21
-121.5141399999999976
0
LINE
8
BLACK
6
CONTINUOUS
10
70.8803070000000019
20
-121.5141399999999976
11
70.6931989999999928
21
-121.3705669999999941
0
LINE
8
BLACK
6
CONTINUOUS
10
70.6931989999999928
20
-121.3705669999999941
11
70.5264329999999973
21
-121.2038009999999986
0
LINE
8
BLACK
6
CONTINUOUS
10
70.5264329999999973
20
-121.2038009999999986
11
70.3828599999999938
21
-121.0166929999999894
0
LINE
8
BLACK
6
CONTINUOUS
10
70.3828599999999938
20
-121.0166929999999894
11
70.2649380000000008
21
-120.8124469999999917
0
LINE
8
BLACK
6
CONTINUOUS
10
70.2649380000000008
20
-120.8124469999999917
11
70.1746849999999966
21
-120.5945549999999997
0
LINE
8
BLACK
6
CONTINUOUS
10
70.1746849999999966
20
-120.5945549999999997
11
70.1136439999999936
21
-120.3667480000000012
0
LINE
8
BLACK
6
CONTINUOUS
10
70.1136439999999936
20
-120.3667480000000012
11
70.0828599999999966
21
-120.1329219999999935
0
LINE
8
BLACK
6
CONTINUOUS
10
70.0828599999999966
20
-120.1329219999999935
11
70.0828599999999966
21
-119.9001019999999897
0
LINE
8
BLACK
6
CONTINUOUS
10
70.0828599999999966
20
-119.9001019999999897
11
70.0828599999999966
21
-119.8970779999999934
0
LINE
8
BLACK
6
CONTINUOUS
10
70.0828599999999966
20
-119.8970779999999934
11
70.1136439999999936
21
-119.663252
0
LINE
8
BLACK
6
CONTINUOUS
10
70.1136439999999936
20
-119.663252
11
70.1746849999999966
21
-119.4354450000000014
0
LINE
8
BLACK
6
CONTINUOUS
10
70.1746849999999966
20
-119.4354450000000014
11
70.2649380000000008
21
-119.2175529999999952
0
LINE
8
BLACK
6
CONTINUOUS
10
70.2649380000000008
20
-119.2175529999999952
11
70.3828599999999938
21
-119.0133069999999975
0
LINE
8
BLACK
6
CONTINUOUS
10
70.3828599999999938
20
-119.0133069999999975
11
70.5264329999999973
21
-118.8261989999999884
0
LINE
8
BLACK
6
CONTINUOUS
10
70.5264329999999973
20
-118.8261989999999884
11
70.6931989999999928
21
-118.6594329999999928
0
LINE
8
BLACK
6
CONTINUOUS
10
70.6931989999999928
20
-118.6594329999999928
11
70.8803070000000019
21
-118.5158599999999893
0
LINE
8
BLACK
6
CONTINUOUS
10
70.8803070000000019
20
-118.5158599999999893
11
71.0845529999999997
21
-118.3979379999999964
0
LINE
8
BLACK
6
CONTINUOUS
10
71.0845529999999997
20
-118.3979379999999964
11
71.3024449999999916
21
-118.3076849999999922
0
LINE
8
BLACK
6
CONTINUOUS
10
71.3024449999999916
20
-118.3076849999999922
11
71.5302519999999902
21
-118.2466439999999892
0
LINE
8
BLACK
6
CONTINUOUS
10
71.5302519999999902
20
-118.2466439999999892
11
71.7640779999999978
21
-118.2158599999999922
0
LINE
8
BLACK
6
CONTINUOUS
10
71.7640779999999978
20
-118.2158599999999922
11
71.999921999999998
21
-118.2158599999999922
0
LINE
8
BLACK
6
CONTINUOUS
10
71.999921999999998
20
-118.2158599999999922
11
72.2337479999999914
21
-118.2466439999999892
0
LINE
8
BLACK
6
CONTINUOUS
10
70.1289999999999907
20
-120.1298979999999972
11
70.1589949999999902
21
-120.357726999999997
0
LINE
8
BLACK
6
CONTINUOUS
10
70.1589949999999902
20
-120.357726999999997
11
70.2184699999999964
21
-120.5796919999999943
0
LINE
8
BLACK
6
CONTINUOUS
10
70.2184699999999964
20
-120.5796919999999943
11
70.3064090000000022
21
-120.7919959999999975
0
LINE
8
BLACK
6
CONTINUOUS
10
70.3064090000000022
20
-120.7919959999999975
11
70.4213069999999988
21
-120.9910039999999896
0
LINE
8
BLACK
6
CONTINUOUS
10
70.4213069999999988
20
-120.9910039999999896
11
70.5611969999999928
21
-121.1733129999999932
0
LINE
8
BLACK
6
CONTINUOUS
10
70.5611969999999928
20
-121.1733129999999932
11
70.7236869999999982
21
-121.3358029999999985
0
LINE
8
BLACK
6
CONTINUOUS
10
70.7236869999999982
20
-121.3358029999999985
11
70.9059960000000018
21
-121.4756929999999926
0
LINE
8
BLACK
6
CONTINUOUS
10
70.9059960000000018
20
-121.4756929999999926
11
71.1050039999999939
21
-121.5905909999999892
0
LINE
8
BLACK
6
CONTINUOUS
10
71.1050039999999939
20
-121.5905909999999892
11
71.317307999999997
21
-121.678529999999995
0
LINE
8
BLACK
6
CONTINUOUS
10
71.317307999999997
20
-121.678529999999995
11
71.5392729999999943
21
-121.7380050000000011
0
LINE
8
BLACK
6
CONTINUOUS
10
71.5392729999999943
20
-121.7380050000000011
11
71.7671019999999942
21
-121.7680000000000007
0
LINE
8
BLACK
6
CONTINUOUS
10
71.7671019999999942
20
-121.7680000000000007
11
71.9968980000000016
21
-121.7680000000000007
0
LINE
8
BLACK
6
CONTINUOUS
10
71.9968980000000016
20
-121.7680000000000007
11
72.2247270000000015
21
-121.7380050000000011
0
LINE
8
BLACK
6
CONTINUOUS
10
72.2247270000000015
20
-121.7380050000000011
11
72.4466919999999988
21
-121.678529999999995
0
LINE
8
BLACK
6
CONTINUOUS
10
72.4466919999999988
20
-121.678529999999995
11
72.6589960000000019
21
-121.5905909999999892
0
LINE
8
BLACK
6
CONTINUOUS
10
72.6589960000000019
20
-121.5905909999999892
11
72.858003999999994
21
-121.4756929999999926
0
LINE
8
BLACK
6
CONTINUOUS
10
72.858003999999994
20
-121.4756929999999926
11
73.0403129999999976
21
-121.3358029999999985
0
LINE
8
BLACK
6
CONTINUOUS
10
73.0403129999999976
20
-121.3358029999999985
11
73.202803000000003
21
-121.1733129999999932
0
LINE
8
BLACK
6
CONTINUOUS
10
73.202803000000003
20
-121.1733129999999932
11
73.342692999999997
21
-120.9910039999999896
0
LINE
8
BLACK
6
CONTINUOUS
10
73.342692999999997
20
-120.9910039999999896
11
73.4575909999999936
21
-120.7919959999999975
0
LINE
8
BLACK
6
CONTINUOUS
10
73.4575909999999936
20
-120.7919959999999975
11
73.5455299999999994
21
-120.5796919999999943
0
LINE
8
BLACK
6
CONTINUOUS
10
73.5455299999999994
20
-120.5796919999999943
11
73.6050049999999914
21
-120.357726999999997
0
LINE
8
BLACK
6
CONTINUOUS
10
73.6050049999999914
20
-120.357726999999997
11
73.6349999999999909
21
-120.1298979999999972
0
LINE
8
BLACK
6
CONTINUOUS
10
73.6349999999999909
20
-120.1298979999999972
11
73.6349999999999909
21
-119.9001019999999897
0
LINE
8
BLACK
6
CONTINUOUS
10
73.6349999999999909
20
-119.9001019999999897
11
73.6050049999999914
21
-119.6722729999999899
0
LINE
8
BLACK
6
CONTINUOUS
10
73.6050049999999914
20
-119.6722729999999899
11
73.5455299999999994
21
-119.4503079999999926
0
LINE
8
BLACK
6
CONTINUOUS
10
73.5455299999999994
20
-119.4503079999999926
11
73.4575909999999936
21
-119.2380039999999894
0
LINE
8
BLACK
6
CONTINUOUS
10
73.4575909999999936
20
-119.2380039999999894
11
73.342692999999997
21
-119.0389959999999974
0
LINE
8
BLACK
6
CONTINUOUS
10
73.342692999999997
20
-119.0389959999999974
11
73.202803000000003
21
-118.8566869999999938
0
LINE
8
BLACK
6
CONTINUOUS
10
73.202803000000003
20
-118.8566869999999938
11
73.0403129999999976
21
-118.6941969999999884
0
LINE
8
BLACK
6
CONTINUOUS
10
73.0403129999999976
20
-118.6941969999999884
11
72.858003999999994
21
-118.5543069999999943
0
LINE
8
BLACK
6
CONTINUOUS
10
72.858003999999994
20
-118.5543069999999943
11
72.6589960000000019
21
-118.4394089999999977
0
LINE
8
BLACK
6
CONTINUOUS
10
72.6589960000000019
20
-118.4394089999999977
11
72.4466919999999988
21
-118.351469999999992
0
LINE
8
BLACK
6
CONTINUOUS
10
72.4466919999999988
20
-118.351469999999992
11
72.2247270000000015
21
-118.291995
0
LINE
8
BLACK
6
CONTINUOUS
10
72.2247270000000015
20
-118.291995
11
71.9968980000000016
21
-118.2620000000000005
0
LINE
8
BLACK
6
CONTINUOUS
10
71.9968980000000016
20
-118.2620000000000005
11
71.7671019999999942
21
-118.2620000000000005
0
LINE
8
BLACK
6
CONTINUOUS
10
71.7671019999999942
20
-118.2620000000000005
11
71.5392729999999943
21
-118.291995
0
LINE
8
BLACK
6
CONTINUOUS
10
71.5392729999999943
20
-118.291995
11
71.317307999999997
21
-118.351469999999992
0
LINE
8
BLACK
6
CONTINUOUS
10
71.317307999999997
20
-118.351469999999992
11
71.1050039999999939
21
-118.4394089999999977
0
LINE
8
BLACK
6
CONTINUOUS
10
71.1050039999999939
20
-118.4394089999999977
11
70.9059960000000018
21
-118.5543069999999943
0
LINE
8
BLACK
6
CONTINUOUS
10
70.9059960000000018
20
-118.5543069999999943
11
70.7236869999999982
21
-118.6941969999999884
0
LINE
8
BLACK
6
CONTINUOUS
10
70.7236869999999982
20
-118.6941969999999884
11
70.5611969999999928
21
-118.8566869999999938
0
LINE
8
BLACK
6
CONTINUOUS
10
70.5611969999999928
20
-118.8566869999999938
11
70.4213069999999988
21
-119.0389959999999974
0
LINE
8
BLACK
6
CONTINUOUS
10
70.4213069999999988
20
-119.0389959999999974
11
70.3064090000000022
21
-119.2380039999999894
0
LINE
8
BLACK
6
CONTINUOUS
10
70.3064090000000022
20
-119.2380039999999894
11
70.2184699999999964
21
-119.4503079999999926
0
LINE
8
BLACK
6
CONTINUOUS
10
70.2184699999999964
20
-119.4503079999999926
11
70.1589949999999902
21
-119.6722729999999899
0
LINE
8
BLACK
6
CONTINUOUS
10
70.1589949999999902
20
-119.6722729999999899
11
70.1289999999999907
21
-119.9001019999999897
0
LINE
8
BLACK
6
CONTINUOUS
10
70.1289999999999907
20
-119.9001019999999897
11
70.1289999999999907
21
-120.1298979999999972
0
LINE
8
BLACK
6
CONTINUOUS
10
223.8600109999999859
20
-118.2525369999999896
11
224.0870589999999822
21
-118.313373999999996
0
LINE
8
BLACK
6
CONTINUOUS
10
224.0870589999999822
20
-118.313373999999996
11
224.3042239999999765
21
-118.4033269999999902
0
LINE
8
BLACK
6
CONTINUOUS
10
224.3042239999999765
20
-118.4033269999999902
11
224.50779
21
-118.5208559999999949
0
LINE
8
BLACK
6
CONTINUOUS
10
224.50779
20
-118.5208559999999949
11
224.6942739999999787
21
-118.6639499999999998
0
LINE
8
BLACK
6
CONTINUOUS
10
224.6942739999999787
20
-118.6639499999999998
11
224.8604849999999828
21
-118.8301609999999897
0
LINE
8
BLACK
6
CONTINUOUS
10
224.8604849999999828
20
-118.8301609999999897
11
225.003579000000002
21
-119.0166449999999969
0
LINE
8
BLACK
6
CONTINUOUS
10
225.003579000000002
20
-119.0166449999999969
11
225.1211079999999924
21
-119.2202109999999919
0
LINE
8
BLACK
6
CONTINUOUS
10
225.1211079999999924
20
-119.2202109999999919
11
225.2110610000000008
21
-119.4373760000000004
0
LINE
8
BLACK
6
CONTINUOUS
10
225.2110610000000008
20
-119.4373760000000004
11
225.2718979999999931
21
-119.6644239999999968
0
LINE
8
BLACK
6
CONTINUOUS
10
225.2718979999999931
20
-119.6644239999999968
11
225.3025799999999776
21
-119.8974709999999959
0
LINE
8
BLACK
6
CONTINUOUS
10
225.3025799999999776
20
-119.8974709999999959
11
225.3025799999999776
21
-120.132528999999991
0
LINE
8
BLACK
6
CONTINUOUS
10
225.3025799999999776
20
-120.132528999999991
11
225.2718979999999931
21
-120.3655759999999901
0
LINE
8
BLACK
6
CONTINUOUS
10
225.2718979999999931
20
-120.3655759999999901
11
225.2110610000000008
21
-120.5926240000000007
0
LINE
8
BLACK
6
CONTINUOUS
10
225.2110610000000008
20
-120.5926240000000007
11
225.1211079999999924
21
-120.809788999999995
0
LINE
8
BLACK
6
CONTINUOUS
10
225.1211079999999924
20
-120.809788999999995
11
225.003579000000002
21
-121.01335499999999
0
LINE
8
BLACK
6
CONTINUOUS
10
225.003579000000002
20
-121.01335499999999
11
224.8604849999999828
21
-121.1998389999999972
0
LINE
8
BLACK
6
CONTINUOUS
10
224.8604849999999828
20
-121.1998389999999972
11
224.6942739999999787
21
-121.3660500000000013
0
LINE
8
BLACK
6
CONTINUOUS
10
224.6942739999999787
20
-121.3660500000000013
11
224.50779
21
-121.509143999999992
0
LINE
8
BLACK
6
CONTINUOUS
10
224.50779
20
-121.509143999999992
11
224.3042239999999765
21
-121.6266729999999967
0
LINE
8
BLACK
6
CONTINUOUS
10
224.3042239999999765
20
-121.6266729999999967
11
224.0870589999999822
21
-121.7166259999999909
0
LINE
8
BLACK
6
CONTINUOUS
10
224.0870589999999822
20
-121.7166259999999909
11
223.8600109999999859
21
-121.7774629999999974
0
LINE
8
BLACK
6
CONTINUOUS
10
223.8600109999999859
20
-121.7774629999999974
11
223.6269639999999868
21
-121.8081449999999961
0
LINE
8
BLACK
6
CONTINUOUS
10
223.6269639999999868
20
-121.8081449999999961
11
223.3919059999999774
21
-121.8081449999999961
0
LINE
8
BLACK
6
CONTINUOUS
10
223.3919059999999774
20
-121.8081449999999961
11
223.1588589999999783
21
-121.7774629999999974
0
LINE
8
BLACK
6
CONTINUOUS
10
223.1588589999999783
20
-121.7774629999999974
11
222.931810999999982
21
-121.7166259999999909
0
LINE
8
BLACK
6
CONTINUOUS
10
222.931810999999982
20
-121.7166259999999909
11
222.7146459999999877
21
-121.6266729999999967
0
LINE
8
BLACK
6
CONTINUOUS
10
222.7146459999999877
20
-121.6266729999999967
11
222.5110799999999927
21
-121.509143999999992
0
LINE
8
BLACK
6
CONTINUOUS
10
222.5110799999999927
20
-121.509143999999992
11
222.3245959999999855
21
-121.3660500000000013
0
LINE
8
BLACK
6
CONTINUOUS
10
222.3245959999999855
20
-121.3660500000000013
11
222.1583849999999813
21
-121.1998389999999972
0
LINE
8
BLACK
6
CONTINUOUS
10
222.1583849999999813
20
-121.1998389999999972
11
222.0152909999999906
21
-121.01335499999999
0
LINE
8
BLACK
6
CONTINUOUS
10
222.0152909999999906
20
-121.01335499999999
11
221.8977620000000002
21
-120.809788999999995
0
LINE
8
BLACK
6
CONTINUOUS
10
221.8977620000000002
20
-120.809788999999995
11
221.8078089999999918
21
-120.5926240000000007
0
LINE
8
BLACK
6
CONTINUOUS
10
221.8078089999999918
20
-120.5926240000000007
11
221.7469719999999995
21
-120.3655759999999901
0
LINE
8
BLACK
6
CONTINUOUS
10
221.7469719999999995
20
-120.3655759999999901
11
221.7162899999999865
21
-120.132528999999991
0
LINE
8
BLACK
6
CONTINUOUS
10
221.7162899999999865
20
-120.132528999999991
11
221.7162899999999865
21
-119.9004959999999897
0
LINE
8
BLACK
6
CONTINUOUS
10
221.7162899999999865
20
-119.9004959999999897
11
221.7162899999999865
21
-119.8974709999999959
0
LINE
8
BLACK
6
CONTINUOUS
10
221.7162899999999865
20
-119.8974709999999959
11
221.7469719999999995
21
-119.6644239999999968
0
LINE
8
BLACK
6
CONTINUOUS
10
221.7469719999999995
20
-119.6644239999999968
11
221.8078089999999918
21
-119.4373760000000004
0
LINE
8
BLACK
6
CONTINUOUS
10
221.8078089999999918
20
-119.4373760000000004
11
221.8977620000000002
21
-119.2202109999999919
0
LINE
8
BLACK
6
CONTINUOUS
10
221.8977620000000002
20
-119.2202109999999919
11
222.0152909999999906
21
-119.0166449999999969
0
LINE
8
BLACK
6
CONTINUOUS
10
222.0152909999999906
20
-119.0166449999999969
11
222.1583849999999813
21
-118.8301609999999897
0
LINE
8
BLACK
6
CONTINUOUS
10
222.1583849999999813
20
-118.8301609999999897
11
222.3245959999999855
21
-118.6639499999999998
0
LINE
8
BLACK
6
CONTINUOUS
10
222.3245959999999855
20
-118.6639499999999998
11
222.5110799999999927
21
-118.5208559999999949
0
LINE
8
BLACK
6
CONTINUOUS
10
222.5110799999999927
20
-118.5208559999999949
11
222.7146459999999877
21
-118.4033269999999902
0
LINE
8
BLACK
6
CONTINUOUS
10
222.7146459999999877
20
-118.4033269999999902
11
222.931810999999982
21
-118.313373999999996
0
LINE
8
BLACK
6
CONTINUOUS
10
222.931810999999982
20
-118.313373999999996
11
223.1588589999999783
21
-118.2525369999999896
0
LINE
8
BLACK
6
CONTINUOUS
10
223.1588589999999783
20
-118.2525369999999896
11
223.3919059999999774
21
-118.2218549999999908
0
LINE
8
BLACK
6
CONTINUOUS
10
223.3919059999999774
20
-118.2218549999999908
11
223.6269639999999868
21
-118.2218549999999908
0
LINE
8
BLACK
6
CONTINUOUS
10
223.6269639999999868
20
-118.2218549999999908
11
223.8600109999999859
21
-118.2525369999999896
0
LINE
8
BLACK
6
CONTINUOUS
10
221.7624429999999904
20
-120.1295039999999972
11
221.79233499999998
21
-120.3565519999999935
0
LINE
8
BLACK
6
CONTINUOUS
10
221.79233499999998
20
-120.3565519999999935
11
221.8516070000000013
21
-120.5777569999999912
0
LINE
8
BLACK
6
CONTINUOUS
10
221.8516070000000013
20
-120.5777569999999912
11
221.9392440000000022
21
-120.7893329999999992
0
LINE
8
BLACK
6
CONTINUOUS
10
221.9392440000000022
20
-120.7893329999999992
11
222.0537479999999846
21
-120.9876589999999936
0
LINE
8
BLACK
6
CONTINUOUS
10
222.0537479999999846
20
-120.9876589999999936
11
222.1931589999999801
21
-121.1693429999999978
0
LINE
8
BLACK
6
CONTINUOUS
10
222.1931589999999801
20
-121.1693429999999978
11
222.3550919999999849
21
-121.3312759999999884
0
LINE
8
BLACK
6
CONTINUOUS
10
222.3550919999999849
20
-121.3312759999999884
11
222.5367760000000033
21
-121.4706869999999981
0
LINE
8
BLACK
6
CONTINUOUS
10
222.5367760000000033
20
-121.4706869999999981
11
222.7351019999999835
21
-121.5851909999999947
0
LINE
8
BLACK
6
CONTINUOUS
10
222.7351019999999835
20
-121.5851909999999947
11
222.9466779999999915
21
-121.6728279999999955
0
LINE
8
BLACK
6
CONTINUOUS
10
222.9466779999999915
20
-121.6728279999999955
11
223.1678829999999891
21
-121.7320999999999884
0
LINE
8
BLACK
6
CONTINUOUS
10
223.1678829999999891
20
-121.7320999999999884
11
223.3949309999999855
21
-121.7619919999999922
0
LINE
8
BLACK
6
CONTINUOUS
10
223.3949309999999855
20
-121.7619919999999922
11
223.6239389999999787
21
-121.7619919999999922
0
LINE
8
BLACK
6
CONTINUOUS
10
223.6239389999999787
20
-121.7619919999999922
11
223.8509870000000035
21
-121.7320999999999884
0
LINE
8
BLACK
6
CONTINUOUS
10
223.8509870000000035
20
-121.7320999999999884
11
224.0721920000000011
21
-121.6728279999999955
0
LINE
8
BLACK
6
CONTINUOUS
10
224.0721920000000011
20
-121.6728279999999955
11
224.2837679999999807
21
-121.5851909999999947
0
LINE
8
BLACK
6
CONTINUOUS
10
224.2837679999999807
20
-121.5851909999999947
11
224.4820939999999894
21
-121.4706869999999981
0
LINE
8
BLACK
6
CONTINUOUS
10
224.4820939999999894
20
-121.4706869999999981
11
224.6637779999999793
21
-121.3312759999999884
0
LINE
8
BLACK
6
CONTINUOUS
10
224.6637779999999793
20
-121.3312759999999884
11
224.8257109999999841
21
-121.1693429999999978
0
LINE
8
BLACK
6
CONTINUOUS
10
224.8257109999999841
20
-121.1693429999999978
11
224.9651219999999796
21
-120.9876589999999936
0
LINE
8
BLACK
6
CONTINUOUS
10
224.9651219999999796
20
-120.9876589999999936
11
225.0796259999999904
21
-120.7893329999999992
0
LINE
8
BLACK
6
CONTINUOUS
10
225.0796259999999904
20
-120.7893329999999992
11
225.1672629999999913
21
-120.5777569999999912
0
LINE
8
BLACK
6
CONTINUOUS
10
225.1672629999999913
20
-120.5777569999999912
11
225.2265349999999842
21
-120.3565519999999935
0
LINE
8
BLACK
6
CONTINUOUS
10
225.2265349999999842
20
-120.3565519999999935
11
225.2564270000000022
21
-120.1295039999999972
0
LINE
8
BLACK
6
CONTINUOUS
10
225.2564270000000022
20
-120.1295039999999972
11
225.2564270000000022
21
-119.9004959999999897
0
LINE
8
BLACK
6
CONTINUOUS
10
225.2564270000000022
20
-119.9004959999999897
11
225.2265349999999842
21
-119.6734479999999934
0
LINE
8
BLACK
6
CONTINUOUS
10
225.2265349999999842
20
-119.6734479999999934
11
225.1672629999999913
21
-119.4522429999999957
0
LINE
8
BLACK
6
CONTINUOUS
10
225.1672629999999913
20
-119.4522429999999957
11
225.0796259999999904
21
-119.2406669999999878
0
LINE
8
BLACK
6
CONTINUOUS
10
225.0796259999999904
20
-119.2406669999999878
11
224.9651219999999796
21
-119.0423409999999933
0
LINE
8
BLACK
6
CONTINUOUS
10
224.9651219999999796
20
-119.0423409999999933
11
224.8257109999999841
21
-118.8606569999999891
0
LINE
8
BLACK
6
CONTINUOUS
10
224.8257109999999841
20
-118.8606569999999891
11
224.6637779999999793
21
-118.6987239999999986
0
LINE
8
BLACK
6
CONTINUOUS
10
224.6637779999999793
20
-118.6987239999999986
11
224.4820939999999894
21
-118.5593129999999888
0
LINE
8
BLACK
6
CONTINUOUS
10
224.4820939999999894
20
-118.5593129999999888
11
224.2837679999999807
21
-118.4448089999999922
0
LINE
8
BLACK
6
CONTINUOUS
10
224.2837679999999807
20
-118.4448089999999922
11
224.0721920000000011
21
-118.3571719999999914
0
LINE
8
BLACK
6
CONTINUOUS
10
224.0721920000000011
20
-118.3571719999999914
11
223.8509870000000035
21
-118.2978999999999985
0
LINE
8
BLACK
6
CONTINUOUS
10
223.8509870000000035
20
-118.2978999999999985
11
223.6239389999999787
21
-118.2680079999999947
0
LINE
8
BLACK
6
CONTINUOUS
10
223.6239389999999787
20
-118.2680079999999947
11
223.3949309999999855
21
-118.2680079999999947
0
LINE
8
BLACK
6
CONTINUOUS
10
223.3949309999999855
20
-118.2680079999999947
11
223.1678829999999891
21
-118.2978999999999985
0
LINE
8
BLACK
6
CONTINUOUS
10
223.1678829999999891
20
-118.2978999999999985
11
222.9466779999999915
21
-118.3571719999999914
0
LINE
8
BLACK
6
CONTINUOUS
10
222.9466779999999915
20
-118.3571719999999914
11
222.7351019999999835
21
-118.4448089999999922
0
LINE
8
BLACK
6
CONTINUOUS
10
222.7351019999999835
20
-118.4448089999999922
11
222.5367760000000033
21
-118.5593129999999888
0
LINE
8
BLACK
6
CONTINUOUS
10
222.5367760000000033
20
-118.5593129999999888
11
222.3550919999999849
21
-118.6987239999999986
0
LINE
8
BLACK
6
CONTINUOUS
10
222.3550919999999849
20
-118.6987239999999986
11
222.1931589999999801
21
-118.8606569999999891
0
LINE
8
BLACK
6
CONTINUOUS
10
222.1931589999999801
20
-118.8606569999999891
11
222.0537479999999846
21
-119.0423409999999933
0
LINE
8
BLACK
6
CONTINUOUS
10
222.0537479999999846
20
-119.0423409999999933
11
221.9392440000000022
21
-119.2406669999999878
0
LINE
8
BLACK
6
CONTINUOUS
10
221.9392440000000022
20
-119.2406669999999878
11
221.8516070000000013
21
-119.4522429999999957
0
LINE
8
BLACK
6
CONTINUOUS
10
221.8516070000000013
20
-119.4522429999999957
11
221.79233499999998
21
-119.6734479999999934
0
LINE
8
BLACK
6
CONTINUOUS
10
221.79233499999998
20
-119.6734479999999934
11
221.7624429999999904
21
-119.9004959999999897
0
LINE
8
BLACK
6
CONTINUOUS
10
221.7624429999999904
20
-119.9004959999999897
11
221.7624429999999904
21
-120.1295039999999972
0
LINE
8
BLACK
6
CONTINUOUS
10
72.2337479999999914
20
-77.0986439999999931
11
72.4615549999999899
21
-77.1596849999999961
0
LINE
8
BLACK
6
CONTINUOUS
10
72.4615549999999899
20
-77.1596849999999961
11
72.6794469999999961
21
-77.2499380000000002
0
LINE
8
BLACK
6
CONTINUOUS
10
72.6794469999999961
20
-77.2499380000000002
11
72.8836929999999938
21
-77.3678599999999932
0
LINE
8
BLACK
6
CONTINUOUS
10
72.8836929999999938
20
-77.3678599999999932
11
73.070801000000003
21
-77.5114329999999967
0
LINE
8
BLACK
6
CONTINUOUS
10
73.070801000000003
20
-77.5114329999999967
11
73.2375669999999985
21
-77.6781989999999922
0
LINE
8
BLACK
6
CONTINUOUS
10
73.2375669999999985
20
-77.6781989999999922
11
73.381140000000002
21
-77.8653070000000014
0
LINE
8
BLACK
6
CONTINUOUS
10
73.381140000000002
20
-77.8653070000000014
11
73.499061999999995
21
-78.0695529999999991
0
LINE
8
BLACK
6
CONTINUOUS
10
73.499061999999995
20
-78.0695529999999991
11
73.5893149999999991
21
-78.2874449999999911
0
LINE
8
BLACK
6
CONTINUOUS
10
73.5893149999999991
20
-78.2874449999999911
11
73.6503560000000022
21
-78.5152519999999896
0
LINE
8
BLACK
6
CONTINUOUS
10
73.6503560000000022
20
-78.5152519999999896
11
73.6811399999999992
21
-78.7490779999999972
0
LINE
8
BLACK
6
CONTINUOUS
10
73.6811399999999992
20
-78.7490779999999972
11
73.6811399999999992
21
-78.9849219999999974
0
LINE
8
BLACK
6
CONTINUOUS
10
73.6811399999999992
20
-78.9849219999999974
11
73.6503560000000022
21
-79.2187479999999908
0
LINE
8
BLACK
6
CONTINUOUS
10
73.6503560000000022
20
-79.2187479999999908
11
73.5893149999999991
21
-79.4465549999999894
0
LINE
8
BLACK
6
CONTINUOUS
10
73.5893149999999991
20
-79.4465549999999894
11
73.499061999999995
21
-79.6644469999999956
0
LINE
8
BLACK
6
CONTINUOUS
10
73.499061999999995
20
-79.6644469999999956
11
73.381140000000002
21
-79.8686929999999933
0
LINE
8
BLACK
6
CONTINUOUS
10
73.381140000000002
20
-79.8686929999999933
11
73.2375669999999985
21
-80.0558010000000024
0
LINE
8
BLACK
6
CONTINUOUS
10
73.2375669999999985
20
-80.0558010000000024
11
73.070801000000003
21
-80.222566999999998
0
LINE
8
BLACK
6
CONTINUOUS
10
73.070801000000003
20
-80.222566999999998
11
72.8836929999999938
21
-80.3661400000000015
0
LINE
8
BLACK
6
CONTINUOUS
10
72.8836929999999938
20
-80.3661400000000015
11
72.6794469999999961
21
-80.4840619999999944
0
LINE
8
BLACK
6
CONTINUOUS
10
72.6794469999999961
20
-80.4840619999999944
11
72.4615549999999899
21
-80.5743149999999986
0
LINE
8
BLACK
6
CONTINUOUS
10
72.4615549999999899
20
-80.5743149999999986
11
72.2337479999999914
21
-80.6353560000000016
0
LINE
8
BLACK
6
CONTINUOUS
10
72.2337479999999914
20
-80.6353560000000016
11
71.999921999999998
21
-80.6661399999999986
0
LINE
8
BLACK
6
CONTINUOUS
10
71.999921999999998
20
-80.6661399999999986
11
71.7640779999999978
21
-80.6661399999999986
0
LINE
8
BLACK
6
CONTINUOUS
10
71.7640779999999978
20
-80.6661399999999986
11
71.5302519999999902
21
-80.6353560000000016
0
LINE
8
BLACK
6
CONTINUOUS
10
71.5302519999999902
20
-80.6353560000000016
11
71.3024449999999916
21
-80.5743149999999986
0
LINE
8
BLACK
6
CONTINUOUS
10
71.3024449999999916
20
-80.5743149999999986
11
71.0845529999999997
21
-80.4840619999999944
0
LINE
8
BLACK
6
CONTINUOUS
10
71.0845529999999997
20
-80.4840619999999944
11
70.8803070000000019
21
-80.3661400000000015
0
LINE
8
BLACK
6
CONTINUOUS
10
70.8803070000000019
20
-80.3661400000000015
11
70.6931989999999928
21
-80.222566999999998
0
LINE
8
BLACK
6
CONTINUOUS
10
70.6931989999999928
20
-80.222566999999998
11
70.5264329999999973
21
-80.0558010000000024
0
LINE
8
BLACK
6
CONTINUOUS
10
70.5264329999999973
20
-80.0558010000000024
11
70.3828599999999938
21
-79.8686929999999933
0
LINE
8
BLACK
6
CONTINUOUS
10
70.3828599999999938
20
-79.8686929999999933
11
70.2649380000000008
21
-79.6644469999999956
0
LINE
8
BLACK
6
CONTINUOUS
10
70.2649380000000008
20
-79.6644469999999956
11
70.1746849999999966
21
-79.4465549999999894
0
LINE
8
BLACK
6
CONTINUOUS
10
70.1746849999999966
20
-79.4465549999999894
11
70.1136439999999936
21
-79.2187479999999908
0
LINE
8
BLACK
6
CONTINUOUS
10
70.1136439999999936
20
-79.2187479999999908
11
70.0828599999999966
21
-78.9849219999999974
0
LINE
8
BLACK
6
CONTINUOUS
10
70.0828599999999966
20
-78.9849219999999974
11
70.0828599999999966
21
-78.7521019999999936
0
LINE
8
BLACK
6
CONTINUOUS
10
70.0828599999999966
20
-78.7521019999999936
11
70.0828599999999966
21
-78.7490779999999972
0
LINE
8
BLACK
6
CONTINUOUS
10
70.0828599999999966
20
-78.7490779999999972
11
70.1136439999999936
21
-78.5152519999999896
0
LINE
8
BLACK
6
CONTINUOUS
10
70.1136439999999936
20
-78.5152519999999896
11
70.1746849999999966
21
-78.2874449999999911
0
LINE
8
BLACK
6
CONTINUOUS
10
70.1746849999999966
20
-78.2874449999999911
11
70.2649380000000008
21
-78.0695529999999991
0
LINE
8
BLACK
6
CONTINUOUS
10
70.2649380000000008
20
-78.0695529999999991
11
70.3828599999999938
21
-77.8653070000000014
0
LINE
8
BLACK
6
CONTINUOUS
10
70.3828599999999938
20
-77.8653070000000014
11
70.5264329999999973
21
-77.6781989999999922
0
LINE
8
BLACK
6
CONTINUOUS
10
70.5264329999999973
20
-77.6781989999999922
11
70.6931989999999928
21
-77.5114329999999967
0
LINE
8
BLACK
6
CONTINUOUS
10
70.6931989999999928
20
-77.5114329999999967
11
70.8803070000000019
21
-77.3678599999999932
0
LINE
8
BLACK
6
CONTINUOUS
10
70.8803070000000019
20
-77.3678599999999932
11
71.0845529999999997
21
-77.2499380000000002
0
LINE
8
BLACK
6
CONTINUOUS
10
71.0845529999999997
20
-77.2499380000000002
11
71.3024449999999916
21
-77.1596849999999961
0
LINE
8
BLACK
6
CONTINUOUS
10
71.3024449999999916
20
-77.1596849999999961
11
71.5302519999999902
21
-77.0986439999999931
0
LINE
8
BLACK
6
CONTINUOUS
10
71.5302519999999902
20
-77.0986439999999931
11
71.7640779999999978
21
-77.067859999999996
0
LINE
8
BLACK
6
CONTINUOUS
10
71.7640779999999978
20
-77.067859999999996
11
71.999921999999998
21
-77.067859999999996
0
LINE
8
BLACK
6
CONTINUOUS
10
71.999921999999998
20
-77.067859999999996
11
72.2337479999999914
21
-77.0986439999999931
0
LINE
8
BLACK
6
CONTINUOUS
10
70.1289999999999907
20
-78.981898000000001
11
70.1589949999999902
21
-79.2097270000000009
0
LINE
8
BLACK
6
CONTINUOUS
10
70.1589949999999902
20
-79.2097270000000009
11
70.2184699999999964
21
-79.4316919999999982
0
LINE
8
BLACK
6
CONTINUOUS
10
70.2184699999999964
20
-79.4316919999999982
11
70.3064090000000022
21
-79.6439960000000013
0
LINE
8
BLACK
6
CONTINUOUS
10
70.3064090000000022
20
-79.6439960000000013
11
70.4213069999999988
21
-79.8430039999999934
0
LINE
8
BLACK
6
CONTINUOUS
10
70.4213069999999988
20
-79.8430039999999934
11
70.5611969999999928
21
-80.025312999999997
0
LINE
8
BLACK
6
CONTINUOUS
10
70.5611969999999928
20
-80.025312999999997
11
70.7236869999999982
21
-80.1878030000000024
0
LINE
8
BLACK
6
CONTINUOUS
10
70.7236869999999982
20
-80.1878030000000024
11
70.9059960000000018
21
-80.3276929999999965
0
LINE
8
BLACK
6
CONTINUOUS
10
70.9059960000000018
20
-80.3276929999999965
11
71.1050039999999939
21
-80.4425909999999931
0
LINE
8
BLACK
6
CONTINUOUS
10
71.1050039999999939
20
-80.4425909999999931
11
71.317307999999997
21
-80.5305299999999988
0
LINE
8
BLACK
6
CONTINUOUS
10
71.317307999999997
20
-80.5305299999999988
11
71.5392729999999943
21
-80.5900049999999908
0
LINE
8
BLACK
6
CONTINUOUS
10
71.5392729999999943
20
-80.5900049999999908
11
71.7671019999999942
21
-80.6199999999999903
0
LINE
8
BLACK
6
CONTINUOUS
10
71.7671019999999942
20
-80.6199999999999903
11
71.9968980000000016
21
-80.6199999999999903
0
LINE
8
BLACK
6
CONTINUOUS
10
71.9968980000000016
20
-80.6199999999999903
11
72.2247270000000015
21
-80.5900049999999908
0
LINE
8
BLACK
6
CONTINUOUS
10
72.2247270000000015
20
-80.5900049999999908
11
72.4466919999999988
21
-80.5305299999999988
0
LINE
8
BLACK
6
CONTINUOUS
10
72.4466919999999988
20
-80.5305299999999988
11
72.6589960000000019
21
-80.4425909999999931
0
LINE
8
BLACK
6
CONTINUOUS
10
72.6589960000000019
20
-80.4425909999999931
11
72.858003999999994
21
-80.3276929999999965
0
LINE
8
BLACK
6
CONTINUOUS
10
72.858003999999994
20
-80.3276929999999965
11
73.0403129999999976
21
-80.1878030000000024
0
LINE
8
BLACK
6
CONTINUOUS
10
73.0403129999999976
20
-80.1878030000000024
11
73.202803000000003
21
-80.025312999999997
0
LINE
8
BLACK
6
CONTINUOUS
10
73.202803000000003
20
-80.025312999999997
11
73.342692999999997
21
-79.8430039999999934
0
LINE
8
BLACK
6
CONTINUOUS
10
73.342692999999997
20
-79.8430039999999934
11
73.4575909999999936
21
-79.6439960000000013
0
LINE
8
BLACK
6
CONTINUOUS
10
73.4575909999999936
20
-79.6439960000000013
11
73.5455299999999994
21
-79.4316919999999982
0
LINE
8
BLACK
6
CONTINUOUS
10
73.5455299999999994
20
-79.4316919999999982
11
73.6050049999999914
21
-79.2097270000000009
0
LINE
8
BLACK
6
CONTINUOUS
10
73.6050049999999914
20
-79.2097270000000009
11
73.6349999999999909
21
-78.981898000000001
0
LINE
8
BLACK
6
CONTINUOUS
10
73.6349999999999909
20
-78.981898000000001
11
73.6349999999999909
21
-78.7521019999999936
0
LINE
8
BLACK
6
CONTINUOUS
10
73.6349999999999909
20
-78.7521019999999936
11
73.6050049999999914
21
-78.5242729999999938
0
LINE
8
BLACK
6
CONTINUOUS
10
73.6050049999999914
20
-78.5242729999999938
11
73.5455299999999994
21
-78.3023079999999965
0
LINE
8
BLACK
6
CONTINUOUS
10
73.5455299999999994
20
-78.3023079999999965
11
73.4575909999999936
21
-78.0900039999999933
0
LINE
8
BLACK
6
CONTINUOUS
10
73.4575909999999936
20
-78.0900039999999933
11
73.342692999999997
21
-77.8909960000000012
0
LINE
8
BLACK
6
CONTINUOUS
10
73.342692999999997
20
-77.8909960000000012
11
73.202803000000003
21
-77.7086869999999976
0
LINE
8
BLACK
6
CONTINUOUS
10
73.202803000000003
20
-77.7086869999999976
11
73.0403129999999976
21
-77.5461969999999923
0
LINE
8
BLACK
6
CONTINUOUS
10
73.0403129999999976
20
-77.5461969999999923
11
72.858003999999994
21
-77.4063069999999982
0
LINE
8
BLACK
6
CONTINUOUS
10
72.858003999999994
20
-77.4063069999999982
11
72.6589960000000019
21
-77.2914090000000016
0
LINE
8
BLACK
6
CONTINUOUS
10
72.6589960000000019
20
-77.2914090000000016
11
72.4466919999999988
21
-77.2034699999999958
0
LINE
8
BLACK
6
CONTINUOUS
10
72.4466919999999988
20
-77.2034699999999958
11
72.2247270000000015
21
-77.1439949999999897
0
LINE
8
BLACK
6
CONTINUOUS
10
72.2247270000000015
20
-77.1439949999999897
11
71.9968980000000016
21
-77.1139999999999901
0
LINE
8
BLACK
6
CONTINUOUS
10
71.9968980000000016
20
-77.1139999999999901
11
71.7671019999999942
21
-77.1139999999999901
0
LINE
8
BLACK
6
CONTINUOUS
10
71.7671019999999942
20
-77.1139999999999901
11
71.5392729999999943
21
-77.1439949999999897
0
LINE
8
BLACK
6
CONTINUOUS
10
71.5392729999999943
20
-77.1439949999999897
11
71.317307999999997
21
-77.2034699999999958
0
LINE
8
BLACK
6
CONTINUOUS
10
71.317307999999997
20
-77.2034699999999958
11
71.1050039999999939
21
-77.2914090000000016
0
LINE
8
BLACK
6
CONTINUOUS
10
71.1050039999999939
20
-77.2914090000000016
11
70.9059960000000018
21
-77.4063069999999982
0
LINE
8
BLACK
6
CONTINUOUS
10
70.9059960000000018
20
-77.4063069999999982
11
70.7236869999999982
21
-77.5461969999999923
0
LINE
8
BLACK
6
CONTINUOUS
10
70.7236869999999982
20
-77.5461969999999923
11
70.5611969999999928
21
-77.7086869999999976
0
LINE
8
BLACK
6
CONTINUOUS
10
70.5611969999999928
20
-77.7086869999999976
11
70.4213069999999988
21
-77.8909960000000012
0
LINE
8
BLACK
6
CONTINUOUS
10
70.4213069999999988
20
-77.8909960000000012
11
70.3064090000000022
21
-78.0900039999999933
0
LINE
8
BLACK
6
CONTINUOUS
10
70.3064090000000022
20
-78.0900039999999933
11
70.2184699999999964
21
-78.3023079999999965
0
LINE
8
BLACK
6
CONTINUOUS
10
70.2184699999999964
20
-78.3023079999999965
11
70.1589949999999902
21
-78.5242729999999938
0
LINE
8
BLACK
6
CONTINUOUS
10
70.1589949999999902
20
-78.5242729999999938
11
70.1289999999999907
21
-78.7521019999999936
0
LINE
8
BLACK
6
CONTINUOUS
10
70.1289999999999907
20
-78.7521019999999936
11
70.1289999999999907
21
-78.981898000000001
0
LINE
8
BLACK
6
CONTINUOUS
10
223.8600109999999859
20
-77.1045369999999934
11
224.0870589999999822
21
-77.1653739999999999
0
LINE
8
BLACK
6
CONTINUOUS
10
224.0870589999999822
20
-77.1653739999999999
11
224.3042239999999765
21
-77.2553269999999941
0
LINE
8
BLACK
6
CONTINUOUS
10
224.3042239999999765
20
-77.2553269999999941
11
224.50779
21
-77.3728559999999987
0
LINE
8
BLACK
6
CONTINUOUS
10
224.50779
20
-77.3728559999999987
11
224.6942739999999787
21
-77.5159499999999895
0
LINE
8
BLACK
6
CONTINUOUS
10
224.6942739999999787
20
-77.5159499999999895
11
224.8604849999999828
21
-77.6821609999999936
0
LINE
8
BLACK
6
CONTINUOUS
10
224.8604849999999828
20
-77.6821609999999936
11
225.003579000000002
21
-77.8686450000000008
0
LINE
8
BLACK
6
CONTINUOUS
10
225.003579000000002
20
-77.8686450000000008
11
225.1211079999999924
21
-78.0722109999999958
0
LINE
8
BLACK
6
CONTINUOUS
10
225.1211079999999924
20
-78.0722109999999958
11
225.2110610000000008
21
-78.2893759999999901
0
LINE
8
BLACK
6
CONTINUOUS
10
225.2110610000000008
20
-78.2893759999999901
11
225.2718979999999931
21
-78.5164240000000007
0
LINE
8
BLACK
6
CONTINUOUS
10
225.2718979999999931
20
-78.5164240000000007
11
225.3025799999999776
21
-78.7494709999999998
0
LINE
8
BLACK
6
CONTINUOUS
10
225.3025799999999776
20
-78.7494709999999998
11
225.3025799999999776
21
-78.9845289999999949
0
LINE
8
BLACK
6
CONTINUOUS
10
225.3025799999999776
20
-78.9845289999999949
11
225.2718979999999931
21
-79.217575999999994
0
LINE
8
BLACK
6
CONTINUOUS
10
225.2718979999999931
20
-79.217575999999994
11
225.2110610000000008
21
-79.4446239999999904
0
LINE
8
BLACK
6
CONTINUOUS
10
225.2110610000000008
20
-79.4446239999999904
11
225.1211079999999924
21
-79.6617889999999989
0
LINE
8
BLACK
6
CONTINUOUS
10
225.1211079999999924
20
-79.6617889999999989
11
225.003579000000002
21
-79.8653549999999939
0
LINE
8
BLACK
6
CONTINUOUS
10
225.003579000000002
20
-79.8653549999999939
11
224.8604849999999828
21
-80.0518390000000011
0
LINE
8
BLACK
6
CONTINUOUS
10
224.8604849999999828
20
-80.0518390000000011
11
224.6942739999999787
21
-80.218049999999991
0
LINE
8
BLACK
6
CONTINUOUS
10
224.6942739999999787
20
-80.218049999999991
11
224.50779
21
-80.3611439999999959
0
LINE
8
BLACK
6
CONTINUOUS
10
224.50779
20
-80.3611439999999959
11
224.3042239999999765
21
-80.4786730000000006
0
LINE
8
BLACK
6
CONTINUOUS
10
224.3042239999999765
20
-80.4786730000000006
11
224.0870589999999822
21
-80.5686259999999947
0
LINE
8
BLACK
6
CONTINUOUS
10
224.0870589999999822
20
-80.5686259999999947
11
223.8600109999999859
21
-80.6294630000000012
0
LINE
8
BLACK
6
CONTINUOUS
10
223.8600109999999859
20
-80.6294630000000012
11
223.6269639999999868
21
-80.660145
0
LINE
8
BLACK
6
CONTINUOUS
10
223.6269639999999868
20
-80.660145
11
223.3919059999999774
21
-80.660145
0
LINE
8
BLACK
6
CONTINUOUS
10
223.3919059999999774
20
-80.660145
11
223.1588589999999783
21
-80.6294630000000012
0
LINE
8
BLACK
6
CONTINUOUS
10
223.1588589999999783
20
-80.6294630000000012
11
222.931810999999982
21
-80.5686259999999947
0
LINE
8
BLACK
6
CONTINUOUS
10
222.931810999999982
20
-80.5686259999999947
11
222.7146459999999877
21
-80.4786730000000006
0
LINE
8
BLACK
6
CONTINUOUS
10
222.7146459999999877
20
-80.4786730000000006
11
222.5110799999999927
21
-80.3611439999999959
0
LINE
8
BLACK
6
CONTINUOUS
10
222.5110799999999927
20
-80.3611439999999959
11
222.3245959999999855
21
-80.218049999999991
0
LINE
8
BLACK
6
CONTINUOUS
10
222.3245959999999855
20
-80.218049999999991
11
222.1583849999999813
21
-80.0518390000000011
0
LINE
8
BLACK
6
CONTINUOUS
10
222.1583849999999813
20
-80.0518390000000011
11
222.0152909999999906
21
-79.8653549999999939
0
LINE
8
BLACK
6
CONTINUOUS
10
222.0152909999999906
20
-79.8653549999999939
11
221.8977620000000002
21
-79.6617889999999989
0
LINE
8
BLACK
6
CONTINUOUS
10
221.8977620000000002
20
-79.6617889999999989
11
221.8078089999999918
21
-79.4446239999999904
0
LINE
8
BLACK
6
CONTINUOUS
10
221.8078089999999918
20
-79.4446239999999904
11
221.7469719999999995
21
-79.217575999999994
0
LINE
8
BLACK
6
CONTINUOUS
10
221.7469719999999995
20
-79.217575999999994
11
221.7162899999999865
21
-78.9845289999999949
0
LINE
8
BLACK
6
CONTINUOUS
10
221.7162899999999865
20
-78.9845289999999949
11
221.7162899999999865
21
-78.7524959999999936
0
LINE
8
BLACK
6
CONTINUOUS
10
221.7162899999999865
20
-78.7524959999999936
11
221.7162899999999865
21
-78.7494709999999998
0
LINE
8
BLACK
6
CONTINUOUS
10
221.7162899999999865
20
-78.7494709999999998
11
221.7469719999999995
21
-78.5164240000000007
0
LINE
8
BLACK
6
CONTINUOUS
10
221.7469719999999995
20
-78.5164240000000007
11
221.8078089999999918
21
-78.2893759999999901
0
LINE
8
BLACK
6
CONTINUOUS
10
221.8078089999999918
20
-78.2893759999999901
11
221.8977620000000002
21
-78.0722109999999958
0
LINE
8
BLACK
6
CONTINUOUS
10
221.8977620000000002
20
-78.0722109999999958
11
222.0152909999999906
21
-77.8686450000000008
0
LINE
8
BLACK
6
CONTINUOUS
10
222.0152909999999906
20
-77.8686450000000008
11
222.1583849999999813
21
-77.6821609999999936
0
LINE
8
BLACK
6
CONTINUOUS
10
222.1583849999999813
20
-77.6821609999999936
11
222.3245959999999855
21
-77.5159499999999895
0
LINE
8
BLACK
6
CONTINUOUS
10
222.3245959999999855
20
-77.5159499999999895
11
222.5110799999999927
21
-77.3728559999999987
0
LINE
8
BLACK
6
CONTINUOUS
10
222.5110799999999927
20
-77.3728559999999987
11
222.7146459999999877
21
-77.2553269999999941
0
LINE
8
BLACK
6
CONTINUOUS
10
222.7146459999999877
20
-77.2553269999999941
11
222.931810999999982
21
-77.1653739999999999
0
LINE
8
BLACK
6
CONTINUOUS
10
222.931810999999982
20
-77.1653739999999999
11
223.1588589999999783
21
-77.1045369999999934
0
LINE
8
BLACK
6
CONTINUOUS
10
223.1588589999999783
20
-77.1045369999999934
11
223.3919059999999774
21
-77.0738549999999947
0
LINE
8
BLACK
6
CONTINUOUS
10
223.3919059999999774
20
-77.0738549999999947
11
223.6269639999999868
21
-77.0738549999999947
0
LINE
8
BLACK
6
CONTINUOUS
10
223.6269639999999868
20
-77.0738549999999947
11
223.8600109999999859
21
-77.1045369999999934
0
LINE
8
BLACK
6
CONTINUOUS
10
221.7624429999999904
20
-78.981504000000001
11
221.79233499999998
21
-79.2085519999999974
0
LINE
8
BLACK
6
CONTINUOUS
10
221.79233499999998
20
-79.2085519999999974
11
221.8516070000000013
21
-79.4297569999999951
0
LINE
8
BLACK
6
CONTINUOUS
10
221.8516070000000013
20
-79.4297569999999951
11
221.9392440000000022
21
-79.641333000000003
0
LINE
8
BLACK
6
CONTINUOUS
10
221.9392440000000022
20
-79.641333000000003
11
222.0537479999999846
21
-79.8396589999999975
0
LINE
8
BLACK
6
CONTINUOUS
10
222.0537479999999846
20
-79.8396589999999975
11
222.1931589999999801
21
-80.0213430000000017
0
LINE
8
BLACK
6
CONTINUOUS
10
222.1931589999999801
20
-80.0213430000000017
11
222.3550919999999849
21
-80.1832759999999922
0
LINE
8
BLACK
6
CONTINUOUS
10
222.3550919999999849
20
-80.1832759999999922
11
222.5367760000000033
21
-80.3226870000000019
0
LINE
8
BLACK
6
CONTINUOUS
10
222.5367760000000033
20
-80.3226870000000019
11
222.7351019999999835
21
-80.4371909999999986
0
LINE
8
BLACK
6
CONTINUOUS
10
222.7351019999999835
20
-80.4371909999999986
11
222.9466779999999915
21
-80.5248279999999994
0
LINE
8
BLACK
6
CONTINUOUS
10
222.9466779999999915
20
-80.5248279999999994
11
223.1678829999999891
21
-80.5840999999999923
0
LINE
8
BLACK
6
CONTINUOUS
10
223.1678829999999891
20
-80.5840999999999923
11
223.3949309999999855
21
-80.6139919999999961
0
LINE
8
BLACK
6
CONTINUOUS
10
223.3949309999999855
20
-80.6139919999999961
11
223.6239389999999787
21
-80.6139919999999961
0
LINE
8
BLACK
6
CONTINUOUS
10
223.6239389999999787
20
-80.6139919999999961
11
223.8509870000000035
21
-80.5840999999999923
0
LINE
8
BLACK
6
CONTINUOUS
10
223.8509870000000035
20
-80.5840999999999923
11
224.0721920000000011
21
-80.5248279999999994
0
LINE
8
BLACK
6
CONTINUOUS
10
224.0721920000000011
20
-80.5248279999999994
11
224.2837679999999807
21
-80.4371909999999986
0
LINE
8
BLACK
6
CONTINUOUS
10
224.2837679999999807
20
-80.4371909999999986
11
224.4820939999999894
21
-80.3226870000000019
0
LINE
8
BLACK
6
CONTINUOUS
10
224.4820939999999894
20
-80.3226870000000019
11
224.6637779999999793
21
-80.1832759999999922
0
LINE
8
BLACK
6
CONTINUOUS
10
224.6637779999999793
20
-80.1832759999999922
11
224.8257109999999841
21
-80.0213430000000017
0
LINE
8
BLACK
6
CONTINUOUS
10
224.8257109999999841
20
-80.0213430000000017
11
224.9651219999999796
21
-79.8396589999999975
0
LINE
8
BLACK
6
CONTINUOUS
10
224.9651219999999796
20
-79.8396589999999975
11
225.0796259999999904
21
-79.641333000000003
0
LINE
8
BLACK
6
CONTINUOUS
10
225.0796259999999904
20
-79.641333000000003
11
225.1672629999999913
21
-79.4297569999999951
0
LINE
8
BLACK
6
CONTINUOUS
10
225.1672629999999913
20
-79.4297569999999951
11
225.2265349999999842
21
-79.2085519999999974
0
LINE
8
BLACK
6
CONTINUOUS
10
225.2265349999999842
20
-79.2085519999999974
11
225.2564270000000022
21
-78.981504000000001
0
LINE
8
BLACK
6
CONTINUOUS
10
225.2564270000000022
20
-78.981504000000001
11
225.2564270000000022
21
-78.7524959999999936
0
LINE
8
BLACK
6
CONTINUOUS
10
225.2564270000000022
20
-78.7524959999999936
11
225.2265349999999842
21
-78.5254479999999973
0
LINE
8
BLACK
6
CONTINUOUS
10
225.2265349999999842
20
-78.5254479999999973
11
225.1672629999999913
21
-78.3042429999999996
0
LINE
8
BLACK
6
CONTINUOUS
10
225.1672629999999913
20
-78.3042429999999996
11
225.0796259999999904
21
-78.0926669999999916
0
LINE
8
BLACK
6
CONTINUOUS
10
225.0796259999999904
20
-78.0926669999999916
11
224.9651219999999796
21
-77.8943409999999972
0
LINE
8
BLACK
6
CONTINUOUS
10
224.9651219999999796
20
-77.8943409999999972
11
224.8257109999999841
21
-77.712656999999993
0
LINE
8
BLACK
6
CONTINUOUS
10
224.8257109999999841
20
-77.712656999999993
11
224.6637779999999793
21
-77.5507240000000024
0
LINE
8
BLACK
6
CONTINUOUS
10
224.6637779999999793
20
-77.5507240000000024
11
224.4820939999999894
21
-77.4113129999999927
0
LINE
8
BLACK
6
CONTINUOUS
10
224.4820939999999894
20
-77.4113129999999927
11
224.2837679999999807
21
-77.2968089999999961
0
LINE
8
BLACK
6
CONTINUOUS
10
224.2837679999999807
20
-77.2968089999999961
11
224.0721920000000011
21
-77.2091719999999953
0
LINE
8
BLACK
6
CONTINUOUS
10
224.0721920000000011
20
-77.2091719999999953
11
223.8509870000000035
21
-77.1499000000000024
0
LINE
8
BLACK
6
CONTINUOUS
10
223.8509870000000035
20
-77.1499000000000024
11
223.6239389999999787
21
-77.1200079999999986
0
LINE
8
BLACK
6
CONTINUOUS
10
223.6239389999999787
20
-77.1200079999999986
11
223.3949309999999855
21
-77.1200079999999986
0
LINE
8
BLACK
6
CONTINUOUS
10
223.3949309999999855
20
-77.1200079999999986
11
223.1678829999999891
21
-77.1499000000000024
0
LINE
8
BLACK
6
CONTINUOUS
10
223.1678829999999891
20
-77.1499000000000024
11
222.9466779999999915
21
-77.2091719999999953
0
LINE
8
BLACK
6
CONTINUOUS
10
222.9466779999999915
20
-77.2091719999999953
11
222.7351019999999835
21
-77.2968089999999961
0
LINE
8
BLACK
6
CONTINUOUS
10
222.7351019999999835
20
-77.2968089999999961
11
222.5367760000000033
21
-77.4113129999999927
0
LINE
8
BLACK
6
CONTINUOUS
10
222.5367760000000033
20
-77.4113129999999927
11
222.3550919999999849
21
-77.5507240000000024
0
LINE
8
BLACK
6
CONTINUOUS
10
222.3550919999999849
20
-77.5507240000000024
11
222.1931589999999801
21
-77.712656999999993
0
LINE
8
BLACK
6
CONTINUOUS
10
222.1931589999999801
20
-77.712656999999993
11
222.0537479999999846
21
-77.8943409999999972
0
LINE
8
BLACK
6
CONTINUOUS
10
222.0537479999999846
20
-77.8943409999999972
11
221.9392440000000022
21
-78.0926669999999916
0
LINE
8
BLACK
6
CONTINUOUS
10
221.9392440000000022
20
-78.0926669999999916
11
221.8516070000000013
21
-78.3042429999999996
0
LINE
8
BLACK
6
CONTINUOUS
10
221.8516070000000013
20
-78.3042429999999996
11
221.79233499999998
21
-78.5254479999999973
0
LINE
8
BLACK
6
CONTINUOUS
10
221.79233499999998
20
-78.5254479999999973
11
221.7624429999999904
21
-78.7524959999999936
0
LINE
8
BLACK
6
CONTINUOUS
10
221.7624429999999904
20
-78.7524959999999936
11
221.7624429999999904
21
-78.981504000000001
0
LINE
8
BLACK
6
CONTINUOUS
10
227.7235670000000027
20
-74.3559029999999979
11
227.7370969999999772
21
-74.3694330000000008
0
LINE
8
BLACK
6
CONTINUOUS
10
227.7370969999999772
20
-74.3694330000000008
11
227.7389999999999759
21
-74.3789999999999907
0
LINE
8
BLACK
6
CONTINUOUS
10
227.7389999999999759
20
-74.3789999999999907
11
227.7389999999999759
21
-124.3789999999999907
0
LINE
8
BLACK
6
CONTINUOUS
10
227.7389999999999759
20
-124.3789999999999907
11
227.7370969999999772
21
-124.3885669999999948
0
LINE
8
BLACK
6
CONTINUOUS
10
227.7370969999999772
20
-124.3885669999999948
11
227.7235670000000027
21
-124.4020969999999977
0
LINE
8
BLACK
6
CONTINUOUS
10
227.7235670000000027
20
-124.4020969999999977
11
227.7139999999999986
21
-124.4039999999999964
0
LINE
8
BLACK
6
CONTINUOUS
10
227.7139999999999986
20
-124.4039999999999964
11
67.7139999999999986
21
-124.4039999999999964
0
LINE
8
BLACK
6
CONTINUOUS
10
67.7139999999999986
20
-124.4039999999999964
11
67.7044329999999945
21
-124.4020969999999977
0
LINE
8
BLACK
6
CONTINUOUS
10
67.7044329999999945
20
-124.4020969999999977
11
67.6909029999999916
21
-124.3885669999999948
0
LINE
8
BLACK
6
CONTINUOUS
10
67.6909029999999916
20
-124.3885669999999948
11
67.688999999999993
21
-124.3789999999999907
0
LINE
8
BLACK
6
CONTINUOUS
10
67.688999999999993
20
-124.3789999999999907
11
67.688999999999993
21
-74.3789999999999907
0
LINE
8
BLACK
6
CONTINUOUS
10
67.688999999999993
20
-74.3789999999999907
11
67.6909029999999916
21
-74.3694330000000008
0
LINE
8
BLACK
6
CONTINUOUS
10
67.6909029999999916
20
-74.3694330000000008
11
67.7044329999999945
21
-74.3559029999999979
0
LINE
8
BLACK
6
CONTINUOUS
10
67.7044329999999945
20
-74.3559029999999979
11
67.7139999999999986
21
-74.3539999999999992
0
LINE
8
BLACK
6
CONTINUOUS
10
67.7139999999999986
20
-74.3539999999999992
11
227.7139999999999986
21
-74.3539999999999992
0
LINE
8
BLACK
6
CONTINUOUS
10
227.7139999999999986
20
-74.3539999999999992
11
227.7235670000000027
21
-74.3559029999999979
0
LINE
8
BLACK
6
CONTINUOUS
10
67.7389999999999901
20
-74.4039999999999964
11
67.7389999999999901
21
-124.3539999999999992
0
LINE
8
BLACK
6
CONTINUOUS
10
67.7389999999999901
20
-124.3539999999999992
11
227.688999999999993
21
-124.3539999999999992
0
LINE
8
BLACK
6
CONTINUOUS
10
227.688999999999993
20
-124.3539999999999992
11
227.688999999999993
21
-74.4039999999999964
0
LINE
8
BLACK
6
CONTINUOUS
10
227.688999999999993
20
-74.4039999999999964
11
67.7389999999999901
21
-74.4039999999999964
0
CIRCLE
8
BLACK
10
125.4759999999999991
20
-91.5669999999999931
40
0.5
0
CIRCLE
8
BLACK
10
128.0159999999999911
20
-91.5669999999999931
40
0.5
0
CIRCLE
8
BLACK
10
130.5559999999999832
20
-91.5669999999999931
40
0.5
0
CIRCLE
8
BLACK
10
133.0960000000000036
20
-91.5669999999999931
40
0.5
0
CIRCLE
8
BLACK
10
158.4959999999999809
20
-90.5510000000000019
40
0.5
0
CIRCLE
8
BLACK
10
158.4959999999999809
20
-93.090999999999994
40
0.5
0
CIRCLE
8
BLACK
10
158.4959999999999809
20
-95.6310000000000002
40
0.5
0
CIRCLE
8
BLACK
10
158.4959999999999809
20
-98.1709999999999923
40
0.5
0
CIRCLE
8
BLACK
10
158.4959999999999809
20
-100.7109999999999985
40
0.5
0
CIRCLE
8
BLACK
10
158.4959999999999809
20
-103.2509999999999906
40
0.5
0
CIRCLE
8
BLACK
10
158.4959999999999809
20
-105.7909999999999968
40
0.5
0
CIRCLE
8
BLACK
10
158.4959999999999809
20
-108.3309999999999889
40
0.5
0
CIRCLE
8
BLACK
10
131.5720000000000027
20
-121.2849999999999966
40
0.4445
0
CIRCLE
8
BLACK
10
131.5720000000000027
20
-118.7449999999999903
40
0.4445
0
CIRCLE
8
BLACK
10
131.5720000000000027
20
-116.2049999999999983
40
0.4445
0
CIRCLE
8
BLACK
10
131.5720000000000027
20
-113.664999999999992
40
0.4445
0
CIRCLE
8
BLACK
10
131.5720000000000027
20
-111.125
40
0.4445
0
CIRCLE
8
BLACK
10
131.5720000000000027
20
-108.5849999999999937
40
0.4445
0
CIRCLE
8
BLACK
10
131.5720000000000027
20
-106.0450000000000017
40
0.4445
0
CIRCLE
8
BLACK
10
146.8119999999999834
20
-106.0450000000000017
40
0.4445
0
CIRCLE
8
BLACK
10
146.8119999999999834
20
-108.5849999999999937
40
0.4445
0
CIRCLE
8
BLACK
10
146.8119999999999834
20
-111.125
40
0.4445
0
CIRCLE
8
BLACK
10
146.8119999999999834
20
-113.664999999999992
40
0.4445
0
CIRCLE
8
BLACK
10
146.8119999999999834
20
-116.2049999999999983
40
0.4445
0
CIRCLE
8
BLACK
10
146.8119999999999834
20
-118.7449999999999903
40
0.4445
0
CIRCLE
8
BLACK
10
146.8119999999999834
20
-121.2849999999999966
40
0.4445
0
CIRCLE
8
BLACK
10
116.0779999999999887
20
-111.2519999999999953
40
0.375
0
CIRCLE
8
BLACK
10
114.8079999999999927
20
-112.5219999999999914
40
0.375
0
CIRCLE
8
BLACK
10
116.0779999999999887
20
-113.7920000000000016
40
0.375
0
CIRCLE
8
BLACK
10
106.4260000000000019
20
-79.6289999999999907
40
0.65
0
CIRCLE
8
BLACK
10
111.5060000000000002
20
-79.6289999999999907
40
0.65
0
CIRCLE
8
BLACK
10
83.7314999999999969
20
-113.0344999999999942
40
0.65
0
CIRCLE
8
BLACK
10
83.7314999999999969
20
-105.5344999999999942
40
0.65
0
CIRCLE
8
BLACK
10
88.7314999999999969
20
-113.0344999999999942
40
0.65
0
CIRCLE
8
BLACK
10
88.7314999999999969
20
-105.5344999999999942
40
0.65
0
CIRCLE
8
BLACK
10
78.7314999999999969
20
-113.0344999999999942
40
0.65
0
CIRCLE
8
BLACK
10
78.7314999999999969
20
-105.5344999999999942
40
0.65
0
CIRCLE
8
BLACK
10
103.7314999999999969
20
-113.0344999999999942
40
0.65
0
CIRCLE
8
BLACK
10
103.7314999999999969
20
-105.5344999999999942
40
0.65
0
CIRCLE
8
BLACK
10
122.4279999999999973
20
-79.6289999999999907
40
0.65
0
CIRCLE
8
BLACK
10
127.5079999999999956
20
-79.6289999999999907
40
0.65
0
CIRCLE
8
BLACK
10
132.5879999999999939
20
-79.6289999999999907
40
0.65
0
CIRCLE
8
BLACK
10
137.6680000000000064
20
-79.6289999999999907
40
0.65
0
CIRCLE
8
BLACK
10
142.7479999999999905
20
-79.6289999999999907
40
0.65
0
CIRCLE
8
BLACK
10
147.828000000000003
20
-79.6289999999999907
40
0.65
0
CIRCLE
8
BLACK
10
83.5660000000000025
20
-79.6289999999999907
40
0.65
0
CIRCLE
8
BLACK
10
88.6460000000000008
20
-79.6289999999999907
40
0.65
0
CIRCLE
8
BLACK
10
93.7259999999999991
20
-79.6289999999999907
40
0.65
0
CIRCLE
8
BLACK
10
107.9499999999999886
20
-113.0300000000000011
40
0.4
0
CIRCLE
8
BLACK
10
107.9499999999999886
20
-105.4099999999999966
40
0.4
0
CIRCLE
8
BLACK
10
116.0779999999999887
20
-117.6019999999999897
40
0.375
0
CIRCLE
8
BLACK
10
114.8079999999999927
20
-118.8719999999999999
40
0.375
0
CIRCLE
8
BLACK
10
116.0779999999999887
20
-120.1419999999999959
40
0.375
0
CIRCLE
8
BLACK
10
125.4759999999999991
20
-91.5669999999999931
40
0.5
0
CIRCLE
8
BLACK
10
128.0159999999999911
20
-91.5669999999999931
40
0.5
0
CIRCLE
8
BLACK
10
130.5559999999999832
20
-91.5669999999999931
40
0.5
0
CIRCLE
8
BLACK
10
133.0960000000000036
20
-91.5669999999999931
40
0.5
0
CIRCLE
8
BLACK
10
158.4959999999999809
20
-90.5510000000000019
40
0.5
0
CIRCLE
8
BLACK
10
158.4959999999999809
20
-93.090999999999994
40
0.5
0
CIRCLE
8
BLACK
10
158.4959999999999809
20
-95.6310000000000002
40
0.5
0
CIRCLE
8
BLACK
10
158.4959999999999809
20
-98.1709999999999923
40
0.5
0
CIRCLE
8
BLACK
10
158.4959999999999809
20
-100.7109999999999985
40
0.5
0
CIRCLE
8
BLACK
10
158.4959999999999809
20
-103.2509999999999906
40
0.5
0
CIRCLE
8
BLACK
10
158.4959999999999809
20
-105.7909999999999968
40
0.5
0
CIRCLE
8
BLACK
10
158.4959999999999809
20
-108.3309999999999889
40
0.5
0
CIRCLE
8
BLACK
10
131.5720000000000027
20
-121.2849999999999966
40
0.4445
0
CIRCLE
8
BLACK
10
131.5720000000000027
20
-118.7449999999999903
40
0.4445
0
CIRCLE
8
BLACK
10
131.5720000000000027
20
-116.2049999999999983
40
0.4445
0
CIRCLE
8
BLACK
10
131.5720000000000027
20
-113.664999999999992
40
0.4445
0
CIRCLE
8
BLACK
10
131.5720000000000027
20
-111.125
40
0.4445
0
CIRCLE
8
BLACK
10
131.5720000000000027
20
-108.5849999999999937
40
0.4445
0
CIRCLE
8
BLACK
10
131.5720000000000027
20
-106.0450000000000017
40
0.4445
0
CIRCLE
8
BLACK
10
146.8119999999999834
20
-106.0450000000000017
40
0.4445
0
CIRCLE
8
BLACK
10
146.8119999999999834
20
-108.5849999999999937
40
0.4445
0
CIRCLE
8
BLACK
10
146.8119999999999834
20
-111.125
40
0.4445
0
CIRCLE
8
BLACK
10
146.8119999999999834
20
-113.664999999999992
40
0.4445
0
CIRCLE
8
BLACK
10
146.8119999999999834
20
-116.2049999999999983
40
0.4445
0
CIRCLE
8
BLACK
10
146.8119999999999834
20
-118.7449999999999903
40
0.4445
0
CIRCLE
8
BLACK
10
146.8119999999999834
20
-121.2849999999999966
40
0.4445
0
CIRCLE
8
BLACK
10
116.0779999999999887
20
-111.2519999999999953
40
0.375
0
CIRCLE
8
BLACK
10
114.8079999999999927
20
-112.5219999999999914
40
0.375
0
CIRCLE
8
BLACK
10
116.0779999999999887
20
-113.7920000000000016
40
0.375
0
CIRCLE
8
BLACK
10
106.4260000000000019
20
-79.6289999999999907
40
0.65
0
CIRCLE
8
BLACK
10
111.5060000000000002
20
-79.6289999999999907
40
0.65
0
CIRCLE
8
BLACK
10
83.7314999999999969
20
-113.0344999999999942
40
0.65
0
CIRCLE
8
BLACK
10
83.7314999999999969
20
-105.5344999999999942
40
0.65
0
CIRCLE
8
BLACK
10
88.7314999999999969
20
-113.0344999999999942
40
0.65
0
CIRCLE
8
BLACK
10
88.7314999999999969
20
-105.5344999999999942
40
0.65
0
CIRCLE
8
BLACK
10
78.7314999999999969
20
-113.0344999999999942
40
0.65
0
CIRCLE
8
BLACK
10
78.7314999999999969
20
-105.5344999999999942
40
0.65
0
CIRCLE
8
BLACK
10
103.7314999999999969
20
-113.0344999999999942
40
0.65
0
CIRCLE
8
BLACK
10
103.7314999999999969
20
-105.5344999999999942
40
0.65
0
CIRCLE
8
BLACK
10
122.4279999999999973
20
-79.6289999999999907
40
0.65
0
CIRCLE
8
BLACK
10
127.5079999999999956
20
-79.6289999999999907
40
0.65
0
CIRCLE
8
BLACK
10
132.5879999999999939
20
-79.6289999999999907
40
0.65
0
CIRCLE
8
BLACK
10
137.6680000000000064
20
-79.6289999999999907
40
0.65
0
CIRCLE
8
BLACK
10
142.7479999999999905
20
-79.6289999999999907
40
0.65
0
CIRCLE
8
BLACK
10
147.828000000000003
20
-79.6289999999999907
40
0.65
0
CIRCLE
8
BLACK
10
83.5660000000000025
20
-79.6289999999999907
40
0.65
0
CIRCLE
8
BLACK
10
88.6460000000000008
20
-79.6289999999999907
40
0.65
0
CIRCLE
8
BLACK
10
93.7259999999999991
20
-79.6289999999999907
40
0.65
0
CIRCLE
8
BLACK
10
107.9499999999999886
20
-113.0300000000000011
40
0.4
0
CIRCLE
8
BLACK
10
107.9499999999999886
20
-105.4099999999999966
40
0.4
0
CIRCLE
8
BLACK
10
116.0779999999999887
20
-117.6019999999999897
40
0.375
0
CIRCLE
8
BLACK
10
114.8079999999999927
20
-118.8719999999999999
40
0.375
0
CIRCLE
8
BLACK
10
116.0779999999999887
20
-120.1419999999999959
40
0.375
  0
ENDSEC
  0
EOF
