  0
SECTION
  2
HEADER
  9
$ANGBASE
  50
0.0
  9
$ANGDIR
  70
1
  9
$MEASUREMENT
  70
1
  0
ENDSEC
  0
SECTION
  2
TABLES
  0
TABLE
  2
LTYPE
  70
4
  0
LTYPE
  5
40F
  2
CONTINUOUS
  70
0
  3
Solid line
  72
65
  73
0
  40
0.0
  0
LTYPE
  5
410
  2
DASHDOT
 70
0
  3
Dash Dot ____ _ ____ _
 72
65
 73
4
 40
2.0
 49
1.25
 49
-0.25
 49
0.25
 49
-0.25
  0
LTYPE
  5
411
  2
DASHED
 70
0
  3
Dashed __ __ __ __ __
 72
65
 73
2
 40
0.75
 49
0.5
 49
-0.25
  0
LTYPE
  5
43B
  2
DOTTED
 70
0
  3
Dotted .  .  .  .
 72
65
 73
2
 40
0.2
 49
0.0
 49
-0.2
  0
ENDTAB
  0
TABLE
  2
STYLE
  70
4
  0
STYLE
  2
KICAD
  70
0
  40
0
  41
1
  42
1
  50
0
  71
0
  3
isocp.shx
  0
STYLE
  2
KICADB
  70
0
  40
0
  41
1
  42
1
  50
0
  71
0
  3
isocp.shx
  0
STYLE
  2
KICADI
  70
0
  40
0
  41
1
  42
1
  50
15
  71
0
  3
isocp.shx
  0
STYLE
  2
KICADBI
  70
0
  40
0
  41
1
  42
1
  50
15
  71
0
  3
isocp.shx
  0
ENDTAB
  0
TABLE
  2
LAYER
  70
1
  0
LAYER
  2
BLACK
  70
0
  62
7
  6
CONTINUOUS
  0
ENDTAB
  0
ENDSEC
  0
SECTION
  2
ENTITIES
0
LINE
8
BLACK
6
CONTINUOUS
10
72.3985160000000008
20
-116.975003000000001
11
72.7356400000000036
21
-117.0519489999999934
0
LINE
8
BLACK
6
CONTINUOUS
10
72.7356400000000036
20
-117.0519489999999934
11
73.0620289999999954
21
-117.1661569999999983
0
LINE
8
BLACK
6
CONTINUOUS
10
73.0620289999999954
20
-117.1661569999999983
11
73.3735789999999923
21
-117.3161920000000009
0
LINE
8
BLACK
6
CONTINUOUS
10
73.3735789999999923
20
-117.3161920000000009
11
73.666370999999998
21
-117.5001649999999955
0
LINE
8
BLACK
6
CONTINUOUS
10
73.666370999999998
20
-117.5001649999999955
11
73.9367230000000006
21
-117.715763999999993
0
LINE
8
BLACK
6
CONTINUOUS
10
73.9367230000000006
20
-117.715763999999993
11
74.1812359999999984
21
-117.9602769999999907
0
LINE
8
BLACK
6
CONTINUOUS
10
74.1812359999999984
20
-117.9602769999999907
11
74.3968349999999958
21
-118.2306289999999933
0
LINE
8
BLACK
6
CONTINUOUS
10
74.3968349999999958
20
-118.2306289999999933
11
74.5808079999999904
21
-118.523420999999999
0
LINE
8
BLACK
6
CONTINUOUS
10
74.5808079999999904
20
-118.523420999999999
11
74.730842999999993
21
-118.8349709999999959
0
LINE
8
BLACK
6
CONTINUOUS
10
74.730842999999993
20
-118.8349709999999959
11
74.845050999999998
21
-119.1613599999999877
0
LINE
8
BLACK
6
CONTINUOUS
10
74.845050999999998
20
-119.1613599999999877
11
74.9219969999999904
21
-119.4984839999999906
0
LINE
8
BLACK
6
CONTINUOUS
10
74.9219969999999904
20
-119.4984839999999906
11
74.9607139999999958
21
-119.8421029999999945
0
LINE
8
BLACK
6
CONTINUOUS
10
74.9607139999999958
20
-119.8421029999999945
11
74.9607139999999958
21
-120.1878969999999924
0
LINE
8
BLACK
6
CONTINUOUS
10
74.9607139999999958
20
-120.1878969999999924
11
74.9219969999999904
21
-120.5315159999999963
0
LINE
8
BLACK
6
CONTINUOUS
10
74.9219969999999904
20
-120.5315159999999963
11
74.845050999999998
21
-120.8686399999999992
0
LINE
8
BLACK
6
CONTINUOUS
10
74.845050999999998
20
-120.8686399999999992
11
74.730842999999993
21
-121.195028999999991
0
LINE
8
BLACK
6
CONTINUOUS
10
74.730842999999993
20
-121.195028999999991
11
74.5808079999999904
21
-121.5065789999999879
0
LINE
8
BLACK
6
CONTINUOUS
10
74.5808079999999904
20
-121.5065789999999879
11
74.3968349999999958
21
-121.7993709999999936
0
LINE
8
BLACK
6
CONTINUOUS
10
74.3968349999999958
20
-121.7993709999999936
11
74.1812359999999984
21
-122.0697229999999962
0
LINE
8
BLACK
6
CONTINUOUS
10
74.1812359999999984
20
-122.0697229999999962
11
73.9367230000000006
21
-122.314235999999994
0
LINE
8
BLACK
6
CONTINUOUS
10
73.9367230000000006
20
-122.314235999999994
11
73.666370999999998
21
-122.5298349999999914
0
LINE
8
BLACK
6
CONTINUOUS
10
73.666370999999998
20
-122.5298349999999914
11
73.3735789999999923
21
-122.7138080000000002
0
LINE
8
BLACK
6
CONTINUOUS
10
73.3735789999999923
20
-122.7138080000000002
11
73.0620289999999954
21
-122.8638429999999886
0
LINE
8
BLACK
6
CONTINUOUS
10
73.0620289999999954
20
-122.8638429999999886
11
72.7356400000000036
21
-122.9780509999999936
0
LINE
8
BLACK
6
CONTINUOUS
10
72.7356400000000036
20
-122.9780509999999936
11
72.3985160000000008
21
-123.0549970000000002
0
LINE
8
BLACK
6
CONTINUOUS
10
72.3985160000000008
20
-123.0549970000000002
11
72.0548969999999969
21
-123.0937139999999914
0
LINE
8
BLACK
6
CONTINUOUS
10
72.0548969999999969
20
-123.0937139999999914
11
71.7091029999999989
21
-123.0937139999999914
0
LINE
8
BLACK
6
CONTINUOUS
10
71.7091029999999989
20
-123.0937139999999914
11
71.365483999999995
21
-123.0549970000000002
0
LINE
8
BLACK
6
CONTINUOUS
10
71.365483999999995
20
-123.0549970000000002
11
71.0283599999999922
21
-122.9780509999999936
0
LINE
8
BLACK
6
CONTINUOUS
10
71.0283599999999922
20
-122.9780509999999936
11
70.7019710000000003
21
-122.8638429999999886
0
LINE
8
BLACK
6
CONTINUOUS
10
70.7019710000000003
20
-122.8638429999999886
11
70.3904210000000035
21
-122.7138080000000002
0
LINE
8
BLACK
6
CONTINUOUS
10
70.3904210000000035
20
-122.7138080000000002
11
70.0976289999999977
21
-122.5298349999999914
0
LINE
8
BLACK
6
CONTINUOUS
10
70.0976289999999977
20
-122.5298349999999914
11
69.8272769999999952
21
-122.314235999999994
0
LINE
8
BLACK
6
CONTINUOUS
10
69.8272769999999952
20
-122.314235999999994
11
69.5827639999999974
21
-122.0697229999999962
0
LINE
8
BLACK
6
CONTINUOUS
10
69.5827639999999974
20
-122.0697229999999962
11
69.367165
21
-121.7993709999999936
0
LINE
8
BLACK
6
CONTINUOUS
10
69.367165
20
-121.7993709999999936
11
69.1831919999999911
21
-121.5065789999999879
0
LINE
8
BLACK
6
CONTINUOUS
10
69.1831919999999911
20
-121.5065789999999879
11
69.0331570000000028
21
-121.195028999999991
0
LINE
8
BLACK
6
CONTINUOUS
10
69.0331570000000028
20
-121.195028999999991
11
68.9189489999999978
21
-120.8686399999999992
0
LINE
8
BLACK
6
CONTINUOUS
10
68.9189489999999978
20
-120.8686399999999992
11
68.8420029999999912
21
-120.5315159999999963
0
LINE
8
BLACK
6
CONTINUOUS
10
68.8420029999999912
20
-120.5315159999999963
11
68.8032859999999999
21
-120.1878969999999924
0
LINE
8
BLACK
6
CONTINUOUS
10
68.8032859999999999
20
-120.1878969999999924
11
68.8032859999999999
21
-119.8446390000000008
0
LINE
8
BLACK
6
CONTINUOUS
10
68.8032859999999999
20
-119.8446390000000008
11
68.8032859999999999
21
-119.8421029999999945
0
LINE
8
BLACK
6
CONTINUOUS
10
68.8032859999999999
20
-119.8421029999999945
11
68.8420029999999912
21
-119.4984839999999906
0
LINE
8
BLACK
6
CONTINUOUS
10
68.8420029999999912
20
-119.4984839999999906
11
68.9189489999999978
21
-119.1613599999999877
0
LINE
8
BLACK
6
CONTINUOUS
10
68.9189489999999978
20
-119.1613599999999877
11
69.0331570000000028
21
-118.8349709999999959
0
LINE
8
BLACK
6
CONTINUOUS
10
69.0331570000000028
20
-118.8349709999999959
11
69.1831919999999911
21
-118.523420999999999
0
LINE
8
BLACK
6
CONTINUOUS
10
69.1831919999999911
20
-118.523420999999999
11
69.367165
21
-118.2306289999999933
0
LINE
8
BLACK
6
CONTINUOUS
10
69.367165
20
-118.2306289999999933
11
69.5827639999999974
21
-117.9602769999999907
0
LINE
8
BLACK
6
CONTINUOUS
10
69.5827639999999974
20
-117.9602769999999907
11
69.8272769999999952
21
-117.715763999999993
0
LINE
8
BLACK
6
CONTINUOUS
10
69.8272769999999952
20
-117.715763999999993
11
70.0976289999999977
21
-117.5001649999999955
0
LINE
8
BLACK
6
CONTINUOUS
10
70.0976289999999977
20
-117.5001649999999955
11
70.3904210000000035
21
-117.3161920000000009
0
LINE
8
BLACK
6
CONTINUOUS
10
70.3904210000000035
20
-117.3161920000000009
11
70.7019710000000003
21
-117.1661569999999983
0
LINE
8
BLACK
6
CONTINUOUS
10
70.7019710000000003
20
-117.1661569999999983
11
71.0283599999999922
21
-117.0519489999999934
0
LINE
8
BLACK
6
CONTINUOUS
10
71.0283599999999922
20
-117.0519489999999934
11
71.365483999999995
21
-116.975003000000001
0
LINE
8
BLACK
6
CONTINUOUS
10
71.365483999999995
20
-116.975003000000001
11
71.7091029999999989
21
-116.9362859999999955
0
LINE
8
BLACK
6
CONTINUOUS
10
71.7091029999999989
20
-116.9362859999999955
11
72.0548969999999969
21
-116.9362859999999955
0
LINE
8
BLACK
6
CONTINUOUS
10
72.0548969999999969
20
-116.9362859999999955
11
72.3985160000000008
21
-116.975003000000001
0
LINE
8
BLACK
6
CONTINUOUS
10
68.8484349999999949
20
-120.1853610000000003
11
68.8865839999999992
21
-120.523941999999991
0
LINE
8
BLACK
6
CONTINUOUS
10
68.8865839999999992
20
-120.523941999999991
11
68.9624019999999973
21
-120.8561219999999992
0
LINE
8
BLACK
6
CONTINUOUS
10
68.9624019999999973
20
-120.8561219999999992
11
69.0749349999999964
21
-121.1777239999999978
0
LINE
8
BLACK
6
CONTINUOUS
10
69.0749349999999964
20
-121.1777239999999978
11
69.2227689999999996
21
-121.4847049999999911
0
LINE
8
BLACK
6
CONTINUOUS
10
69.2227689999999996
20
-121.4847049999999911
11
69.4040449999999964
21
-121.7732029999999952
0
LINE
8
BLACK
6
CONTINUOUS
10
69.4040449999999964
20
-121.7732029999999952
11
69.6164819999999906
21
-122.0395910000000015
0
LINE
8
BLACK
6
CONTINUOUS
10
69.6164819999999906
20
-122.0395910000000015
11
69.8574089999999899
21
-122.2805180000000007
0
LINE
8
BLACK
6
CONTINUOUS
10
69.8574089999999899
20
-122.2805180000000007
11
70.1237969999999962
21
-122.4929549999999949
0
LINE
8
BLACK
6
CONTINUOUS
10
70.1237969999999962
20
-122.4929549999999949
11
70.4122950000000003
21
-122.6742309999999918
0
LINE
8
BLACK
6
CONTINUOUS
10
70.4122950000000003
20
-122.6742309999999918
11
70.7192759999999936
21
-122.8220649999999949
0
LINE
8
BLACK
6
CONTINUOUS
10
70.7192759999999936
20
-122.8220649999999949
11
71.0408779999999922
21
-122.934597999999994
0
LINE
8
BLACK
6
CONTINUOUS
10
71.0408779999999922
20
-122.934597999999994
11
71.3730580000000003
21
-123.0104159999999922
0
LINE
8
BLACK
6
CONTINUOUS
10
71.3730580000000003
20
-123.0104159999999922
11
71.711638999999991
21
-123.0485649999999964
0
LINE
8
BLACK
6
CONTINUOUS
10
71.711638999999991
20
-123.0485649999999964
11
72.0523609999999906
21
-123.0485649999999964
0
LINE
8
BLACK
6
CONTINUOUS
10
72.0523609999999906
20
-123.0485649999999964
11
72.3909419999999955
21
-123.0104159999999922
0
LINE
8
BLACK
6
CONTINUOUS
10
72.3909419999999955
20
-123.0104159999999922
11
72.7231220000000036
21
-122.934597999999994
0
LINE
8
BLACK
6
CONTINUOUS
10
72.7231220000000036
20
-122.934597999999994
11
73.0447240000000022
21
-122.8220649999999949
0
LINE
8
BLACK
6
CONTINUOUS
10
73.0447240000000022
20
-122.8220649999999949
11
73.3517049999999955
21
-122.6742309999999918
0
LINE
8
BLACK
6
CONTINUOUS
10
73.3517049999999955
20
-122.6742309999999918
11
73.6402029999999996
21
-122.4929549999999949
0
LINE
8
BLACK
6
CONTINUOUS
10
73.6402029999999996
20
-122.4929549999999949
11
73.9065909999999917
21
-122.2805180000000007
0
LINE
8
BLACK
6
CONTINUOUS
10
73.9065909999999917
20
-122.2805180000000007
11
74.1475179999999909
21
-122.0395910000000015
0
LINE
8
BLACK
6
CONTINUOUS
10
74.1475179999999909
20
-122.0395910000000015
11
74.3599549999999994
21
-121.7732029999999952
0
LINE
8
BLACK
6
CONTINUOUS
10
74.3599549999999994
20
-121.7732029999999952
11
74.5412309999999962
21
-121.4847049999999911
0
LINE
8
BLACK
6
CONTINUOUS
10
74.5412309999999962
20
-121.4847049999999911
11
74.6890649999999994
21
-121.1777239999999978
0
LINE
8
BLACK
6
CONTINUOUS
10
74.6890649999999994
20
-121.1777239999999978
11
74.8015979999999985
21
-120.8561219999999992
0
LINE
8
BLACK
6
CONTINUOUS
10
74.8015979999999985
20
-120.8561219999999992
11
74.8774159999999966
21
-120.523941999999991
0
LINE
8
BLACK
6
CONTINUOUS
10
74.8774159999999966
20
-120.523941999999991
11
74.9155650000000009
21
-120.1853610000000003
0
LINE
8
BLACK
6
CONTINUOUS
10
74.9155650000000009
20
-120.1853610000000003
11
74.9155650000000009
21
-119.8446390000000008
0
LINE
8
BLACK
6
CONTINUOUS
10
74.9155650000000009
20
-119.8446390000000008
11
74.8774159999999966
21
-119.5060579999999959
0
LINE
8
BLACK
6
CONTINUOUS
10
74.8774159999999966
20
-119.5060579999999959
11
74.8015979999999985
21
-119.1738779999999878
0
LINE
8
BLACK
6
CONTINUOUS
10
74.8015979999999985
20
-119.1738779999999878
11
74.6890649999999994
21
-118.8522759999999892
0
LINE
8
BLACK
6
CONTINUOUS
10
74.6890649999999994
20
-118.8522759999999892
11
74.5412309999999962
21
-118.5452949999999959
0
LINE
8
BLACK
6
CONTINUOUS
10
74.5412309999999962
20
-118.5452949999999959
11
74.3599549999999994
21
-118.2567969999999917
0
LINE
8
BLACK
6
CONTINUOUS
10
74.3599549999999994
20
-118.2567969999999917
11
74.1475179999999909
21
-117.9904089999999997
0
LINE
8
BLACK
6
CONTINUOUS
10
74.1475179999999909
20
-117.9904089999999997
11
73.9065909999999917
21
-117.7494820000000004
0
LINE
8
BLACK
6
CONTINUOUS
10
73.9065909999999917
20
-117.7494820000000004
11
73.6402029999999996
21
-117.537044999999992
0
LINE
8
BLACK
6
CONTINUOUS
10
73.6402029999999996
20
-117.537044999999992
11
73.3517049999999955
21
-117.3557689999999951
0
LINE
8
BLACK
6
CONTINUOUS
10
73.3517049999999955
20
-117.3557689999999951
11
73.0447240000000022
21
-117.207934999999992
0
LINE
8
BLACK
6
CONTINUOUS
10
73.0447240000000022
20
-117.207934999999992
11
72.7231220000000036
21
-117.0954019999999929
0
LINE
8
BLACK
6
CONTINUOUS
10
72.7231220000000036
20
-117.0954019999999929
11
72.3909419999999955
21
-117.0195839999999947
0
LINE
8
BLACK
6
CONTINUOUS
10
72.3909419999999955
20
-117.0195839999999947
11
72.0523609999999906
21
-116.9814349999999905
0
LINE
8
BLACK
6
CONTINUOUS
10
72.0523609999999906
20
-116.9814349999999905
11
71.711638999999991
21
-116.9814349999999905
0
LINE
8
BLACK
6
CONTINUOUS
10
71.711638999999991
20
-116.9814349999999905
11
71.3730580000000003
21
-117.0195839999999947
0
LINE
8
BLACK
6
CONTINUOUS
10
71.3730580000000003
20
-117.0195839999999947
11
71.0408779999999922
21
-117.0954019999999929
0
LINE
8
BLACK
6
CONTINUOUS
10
71.0408779999999922
20
-117.0954019999999929
11
70.7192759999999936
21
-117.207934999999992
0
LINE
8
BLACK
6
CONTINUOUS
10
70.7192759999999936
20
-117.207934999999992
11
70.4122950000000003
21
-117.3557689999999951
0
LINE
8
BLACK
6
CONTINUOUS
10
70.4122950000000003
20
-117.3557689999999951
11
70.1237969999999962
21
-117.537044999999992
0
LINE
8
BLACK
6
CONTINUOUS
10
70.1237969999999962
20
-117.537044999999992
11
69.8574089999999899
21
-117.7494820000000004
0
LINE
8
BLACK
6
CONTINUOUS
10
69.8574089999999899
20
-117.7494820000000004
11
69.6164819999999906
21
-117.9904089999999997
0
LINE
8
BLACK
6
CONTINUOUS
10
69.6164819999999906
20
-117.9904089999999997
11
69.4040449999999964
21
-118.2567969999999917
0
LINE
8
BLACK
6
CONTINUOUS
10
69.4040449999999964
20
-118.2567969999999917
11
69.2227689999999996
21
-118.5452949999999959
0
LINE
8
BLACK
6
CONTINUOUS
10
69.2227689999999996
20
-118.5452949999999959
11
69.0749349999999964
21
-118.8522759999999892
0
LINE
8
BLACK
6
CONTINUOUS
10
69.0749349999999964
20
-118.8522759999999892
11
68.9624019999999973
21
-119.1738779999999878
0
LINE
8
BLACK
6
CONTINUOUS
10
68.9624019999999973
20
-119.1738779999999878
11
68.8865839999999992
21
-119.5060579999999959
0
LINE
8
BLACK
6
CONTINUOUS
10
68.8865839999999992
20
-119.5060579999999959
11
68.8484349999999949
21
-119.8446390000000008
0
LINE
8
BLACK
6
CONTINUOUS
10
68.8484349999999949
20
-119.8446390000000008
11
68.8484349999999949
21
-120.1853610000000003
0
LINE
8
BLACK
6
CONTINUOUS
10
224.0259509999999921
20
-116.975003000000001
11
224.3630749999999807
21
-117.0519489999999934
0
LINE
8
BLACK
6
CONTINUOUS
10
224.3630749999999807
20
-117.0519489999999934
11
224.6894639999999868
21
-117.1661569999999983
0
LINE
8
BLACK
6
CONTINUOUS
10
224.6894639999999868
20
-117.1661569999999983
11
225.0010139999999978
21
-117.3161920000000009
0
LINE
8
BLACK
6
CONTINUOUS
10
225.0010139999999978
20
-117.3161920000000009
11
225.2938059999999894
21
-117.5001649999999955
0
LINE
8
BLACK
6
CONTINUOUS
10
225.2938059999999894
20
-117.5001649999999955
11
225.5641579999999919
21
-117.715763999999993
0
LINE
8
BLACK
6
CONTINUOUS
10
225.5641579999999919
20
-117.715763999999993
11
225.8086710000000039
21
-117.9602769999999907
0
LINE
8
BLACK
6
CONTINUOUS
10
225.8086710000000039
20
-117.9602769999999907
11
226.0242700000000013
21
-118.2306289999999933
0
LINE
8
BLACK
6
CONTINUOUS
10
226.0242700000000013
20
-118.2306289999999933
11
226.2082429999999817
21
-118.523420999999999
0
LINE
8
BLACK
6
CONTINUOUS
10
226.2082429999999817
20
-118.523420999999999
11
226.3582779999999843
21
-118.8349709999999959
0
LINE
8
BLACK
6
CONTINUOUS
10
226.3582779999999843
20
-118.8349709999999959
11
226.4724860000000035
21
-119.1613599999999877
0
LINE
8
BLACK
6
CONTINUOUS
10
226.4724860000000035
20
-119.1613599999999877
11
226.5494319999999959
21
-119.4984839999999906
0
LINE
8
BLACK
6
CONTINUOUS
10
226.5494319999999959
20
-119.4984839999999906
11
226.5881489999999872
21
-119.8421029999999945
0
LINE
8
BLACK
6
CONTINUOUS
10
226.5881489999999872
20
-119.8421029999999945
11
226.5881489999999872
21
-120.1878969999999924
0
LINE
8
BLACK
6
CONTINUOUS
10
226.5881489999999872
20
-120.1878969999999924
11
226.5494319999999959
21
-120.5315159999999963
0
LINE
8
BLACK
6
CONTINUOUS
10
226.5494319999999959
20
-120.5315159999999963
11
226.4724860000000035
21
-120.8686399999999992
0
LINE
8
BLACK
6
CONTINUOUS
10
226.4724860000000035
20
-120.8686399999999992
11
226.3582779999999843
21
-121.195028999999991
0
LINE
8
BLACK
6
CONTINUOUS
10
226.3582779999999843
20
-121.195028999999991
11
226.2082429999999817
21
-121.5065789999999879
0
LINE
8
BLACK
6
CONTINUOUS
10
226.2082429999999817
20
-121.5065789999999879
11
226.0242700000000013
21
-121.7993709999999936
0
LINE
8
BLACK
6
CONTINUOUS
10
226.0242700000000013
20
-121.7993709999999936
11
225.8086710000000039
21
-122.0697229999999962
0
LINE
8
BLACK
6
CONTINUOUS
10
225.8086710000000039
20
-122.0697229999999962
11
225.5641579999999919
21
-122.314235999999994
0
LINE
8
BLACK
6
CONTINUOUS
10
225.5641579999999919
20
-122.314235999999994
11
225.2938059999999894
21
-122.5298349999999914
0
LINE
8
BLACK
6
CONTINUOUS
10
225.2938059999999894
20
-122.5298349999999914
11
225.0010139999999978
21
-122.7138080000000002
0
LINE
8
BLACK
6
CONTINUOUS
10
225.0010139999999978
20
-122.7138080000000002
11
224.6894639999999868
21
-122.8638429999999886
0
LINE
8
BLACK
6
CONTINUOUS
10
224.6894639999999868
20
-122.8638429999999886
11
224.3630749999999807
21
-122.9780509999999936
0
LINE
8
BLACK
6
CONTINUOUS
10
224.3630749999999807
20
-122.9780509999999936
11
224.0259509999999921
21
-123.0549970000000002
0
LINE
8
BLACK
6
CONTINUOUS
10
224.0259509999999921
20
-123.0549970000000002
11
223.6823320000000024
21
-123.0937139999999914
0
LINE
8
BLACK
6
CONTINUOUS
10
223.6823320000000024
20
-123.0937139999999914
11
223.3365379999999902
21
-123.0937139999999914
0
LINE
8
BLACK
6
CONTINUOUS
10
223.3365379999999902
20
-123.0937139999999914
11
222.9929190000000006
21
-123.0549970000000002
0
LINE
8
BLACK
6
CONTINUOUS
10
222.9929190000000006
20
-123.0549970000000002
11
222.6557949999999835
21
-122.9780509999999936
0
LINE
8
BLACK
6
CONTINUOUS
10
222.6557949999999835
20
-122.9780509999999936
11
222.3294059999999774
21
-122.8638429999999886
0
LINE
8
BLACK
6
CONTINUOUS
10
222.3294059999999774
20
-122.8638429999999886
11
222.0178559999999948
21
-122.7138080000000002
0
LINE
8
BLACK
6
CONTINUOUS
10
222.0178559999999948
20
-122.7138080000000002
11
221.7250640000000033
21
-122.5298349999999914
0
LINE
8
BLACK
6
CONTINUOUS
10
221.7250640000000033
20
-122.5298349999999914
11
221.4547120000000007
21
-122.314235999999994
0
LINE
8
BLACK
6
CONTINUOUS
10
221.4547120000000007
20
-122.314235999999994
11
221.2101989999999887
21
-122.0697229999999962
0
LINE
8
BLACK
6
CONTINUOUS
10
221.2101989999999887
20
-122.0697229999999962
11
220.9945999999999913
21
-121.7993709999999936
0
LINE
8
BLACK
6
CONTINUOUS
10
220.9945999999999913
20
-121.7993709999999936
11
220.8106269999999824
21
-121.5065789999999879
0
LINE
8
BLACK
6
CONTINUOUS
10
220.8106269999999824
20
-121.5065789999999879
11
220.6605919999999799
21
-121.195028999999991
0
LINE
8
BLACK
6
CONTINUOUS
10
220.6605919999999799
20
-121.195028999999991
11
220.5463839999999891
21
-120.8686399999999992
0
LINE
8
BLACK
6
CONTINUOUS
10
220.5463839999999891
20
-120.8686399999999992
11
220.4694379999999967
21
-120.5315159999999963
0
LINE
8
BLACK
6
CONTINUOUS
10
220.4694379999999967
20
-120.5315159999999963
11
220.430720999999977
21
-120.1878969999999924
0
LINE
8
BLACK
6
CONTINUOUS
10
220.430720999999977
20
-120.1878969999999924
11
220.430720999999977
21
-119.8446390000000008
0
LINE
8
BLACK
6
CONTINUOUS
10
220.430720999999977
20
-119.8446390000000008
11
220.430720999999977
21
-119.8421029999999945
0
LINE
8
BLACK
6
CONTINUOUS
10
220.430720999999977
20
-119.8421029999999945
11
220.4694379999999967
21
-119.4984839999999906
0
LINE
8
BLACK
6
CONTINUOUS
10
220.4694379999999967
20
-119.4984839999999906
11
220.5463839999999891
21
-119.1613599999999877
0
LINE
8
BLACK
6
CONTINUOUS
10
220.5463839999999891
20
-119.1613599999999877
11
220.6605919999999799
21
-118.8349709999999959
0
LINE
8
BLACK
6
CONTINUOUS
10
220.6605919999999799
20
-118.8349709999999959
11
220.8106269999999824
21
-118.523420999999999
0
LINE
8
BLACK
6
CONTINUOUS
10
220.8106269999999824
20
-118.523420999999999
11
220.9945999999999913
21
-118.2306289999999933
0
LINE
8
BLACK
6
CONTINUOUS
10
220.9945999999999913
20
-118.2306289999999933
11
221.2101989999999887
21
-117.9602769999999907
0
LINE
8
BLACK
6
CONTINUOUS
10
221.2101989999999887
20
-117.9602769999999907
11
221.4547120000000007
21
-117.715763999999993
0
LINE
8
BLACK
6
CONTINUOUS
10
221.4547120000000007
20
-117.715763999999993
11
221.7250640000000033
21
-117.5001649999999955
0
LINE
8
BLACK
6
CONTINUOUS
10
221.7250640000000033
20
-117.5001649999999955
11
222.0178559999999948
21
-117.3161920000000009
0
LINE
8
BLACK
6
CONTINUOUS
10
222.0178559999999948
20
-117.3161920000000009
11
222.3294059999999774
21
-117.1661569999999983
0
LINE
8
BLACK
6
CONTINUOUS
10
222.3294059999999774
20
-117.1661569999999983
11
222.6557949999999835
21
-117.0519489999999934
0
LINE
8
BLACK
6
CONTINUOUS
10
222.6557949999999835
20
-117.0519489999999934
11
222.9929190000000006
21
-116.975003000000001
0
LINE
8
BLACK
6
CONTINUOUS
10
222.9929190000000006
20
-116.975003000000001
11
223.3365379999999902
21
-116.9362859999999955
0
LINE
8
BLACK
6
CONTINUOUS
10
223.3365379999999902
20
-116.9362859999999955
11
223.6823320000000024
21
-116.9362859999999955
0
LINE
8
BLACK
6
CONTINUOUS
10
223.6823320000000024
20
-116.9362859999999955
11
224.0259509999999921
21
-116.975003000000001
0
LINE
8
BLACK
6
CONTINUOUS
10
220.4758699999999862
20
-120.1853610000000003
11
220.5140189999999905
21
-120.523941999999991
0
LINE
8
BLACK
6
CONTINUOUS
10
220.5140189999999905
20
-120.523941999999991
11
220.5898369999999886
21
-120.8561219999999992
0
LINE
8
BLACK
6
CONTINUOUS
10
220.5898369999999886
20
-120.8561219999999992
11
220.7023700000000019
21
-121.1777239999999978
0
LINE
8
BLACK
6
CONTINUOUS
10
220.7023700000000019
20
-121.1777239999999978
11
220.8502039999999909
21
-121.4847049999999911
0
LINE
8
BLACK
6
CONTINUOUS
10
220.8502039999999909
20
-121.4847049999999911
11
221.0314799999999877
21
-121.7732029999999952
0
LINE
8
BLACK
6
CONTINUOUS
10
221.0314799999999877
20
-121.7732029999999952
11
221.243916999999982
21
-122.0395910000000015
0
LINE
8
BLACK
6
CONTINUOUS
10
221.243916999999982
20
-122.0395910000000015
11
221.4848439999999812
21
-122.2805180000000007
0
LINE
8
BLACK
6
CONTINUOUS
10
221.4848439999999812
20
-122.2805180000000007
11
221.7512319999999875
21
-122.4929549999999949
0
LINE
8
BLACK
6
CONTINUOUS
10
221.7512319999999875
20
-122.4929549999999949
11
222.0397299999999916
21
-122.6742309999999918
0
LINE
8
BLACK
6
CONTINUOUS
10
222.0397299999999916
20
-122.6742309999999918
11
222.3467109999999991
21
-122.8220649999999949
0
LINE
8
BLACK
6
CONTINUOUS
10
222.3467109999999991
20
-122.8220649999999949
11
222.6683129999999835
21
-122.934597999999994
0
LINE
8
BLACK
6
CONTINUOUS
10
222.6683129999999835
20
-122.934597999999994
11
223.0004929999999774
21
-123.0104159999999922
0
LINE
8
BLACK
6
CONTINUOUS
10
223.0004929999999774
20
-123.0104159999999922
11
223.3390739999999823
21
-123.0485649999999964
0
LINE
8
BLACK
6
CONTINUOUS
10
223.3390739999999823
20
-123.0485649999999964
11
223.6797959999999819
21
-123.0485649999999964
0
LINE
8
BLACK
6
CONTINUOUS
10
223.6797959999999819
20
-123.0485649999999964
11
224.0183769999999868
21
-123.0104159999999922
0
LINE
8
BLACK
6
CONTINUOUS
10
224.0183769999999868
20
-123.0104159999999922
11
224.3505569999999807
21
-122.934597999999994
0
LINE
8
BLACK
6
CONTINUOUS
10
224.3505569999999807
20
-122.934597999999994
11
224.6721589999999935
21
-122.8220649999999949
0
LINE
8
BLACK
6
CONTINUOUS
10
224.6721589999999935
20
-122.8220649999999949
11
224.979140000000001
21
-122.6742309999999918
0
LINE
8
BLACK
6
CONTINUOUS
10
224.979140000000001
20
-122.6742309999999918
11
225.2676379999999767
21
-122.4929549999999949
0
LINE
8
BLACK
6
CONTINUOUS
10
225.2676379999999767
20
-122.4929549999999949
11
225.534025999999983
21
-122.2805180000000007
0
LINE
8
BLACK
6
CONTINUOUS
10
225.534025999999983
20
-122.2805180000000007
11
225.7749529999999822
21
-122.0395910000000015
0
LINE
8
BLACK
6
CONTINUOUS
10
225.7749529999999822
20
-122.0395910000000015
11
225.9873899999999765
21
-121.7732029999999952
0
LINE
8
BLACK
6
CONTINUOUS
10
225.9873899999999765
20
-121.7732029999999952
11
226.1686660000000018
21
-121.4847049999999911
0
LINE
8
BLACK
6
CONTINUOUS
10
226.1686660000000018
20
-121.4847049999999911
11
226.3164999999999907
21
-121.1777239999999978
0
LINE
8
BLACK
6
CONTINUOUS
10
226.3164999999999907
20
-121.1777239999999978
11
226.4290329999999756
21
-120.8561219999999992
0
LINE
8
BLACK
6
CONTINUOUS
10
226.4290329999999756
20
-120.8561219999999992
11
226.5048510000000022
21
-120.523941999999991
0
LINE
8
BLACK
6
CONTINUOUS
10
226.5048510000000022
20
-120.523941999999991
11
226.5429999999999779
21
-120.1853610000000003
0
LINE
8
BLACK
6
CONTINUOUS
10
226.5429999999999779
20
-120.1853610000000003
11
226.5429999999999779
21
-119.8446390000000008
0
LINE
8
BLACK
6
CONTINUOUS
10
226.5429999999999779
20
-119.8446390000000008
11
226.5048510000000022
21
-119.5060579999999959
0
LINE
8
BLACK
6
CONTINUOUS
10
226.5048510000000022
20
-119.5060579999999959
11
226.4290329999999756
21
-119.1738779999999878
0
LINE
8
BLACK
6
CONTINUOUS
10
226.4290329999999756
20
-119.1738779999999878
11
226.3164999999999907
21
-118.8522759999999892
0
LINE
8
BLACK
6
CONTINUOUS
10
226.3164999999999907
20
-118.8522759999999892
11
226.1686660000000018
21
-118.5452949999999959
0
LINE
8
BLACK
6
CONTINUOUS
10
226.1686660000000018
20
-118.5452949999999959
11
225.9873899999999765
21
-118.2567969999999917
0
LINE
8
BLACK
6
CONTINUOUS
10
225.9873899999999765
20
-118.2567969999999917
11
225.7749529999999822
21
-117.9904089999999997
0
LINE
8
BLACK
6
CONTINUOUS
10
225.7749529999999822
20
-117.9904089999999997
11
225.534025999999983
21
-117.7494820000000004
0
LINE
8
BLACK
6
CONTINUOUS
10
225.534025999999983
20
-117.7494820000000004
11
225.2676379999999767
21
-117.537044999999992
0
LINE
8
BLACK
6
CONTINUOUS
10
225.2676379999999767
20
-117.537044999999992
11
224.979140000000001
21
-117.3557689999999951
0
LINE
8
BLACK
6
CONTINUOUS
10
224.979140000000001
20
-117.3557689999999951
11
224.6721589999999935
21
-117.207934999999992
0
LINE
8
BLACK
6
CONTINUOUS
10
224.6721589999999935
20
-117.207934999999992
11
224.3505569999999807
21
-117.0954019999999929
0
LINE
8
BLACK
6
CONTINUOUS
10
224.3505569999999807
20
-117.0954019999999929
11
224.0183769999999868
21
-117.0195839999999947
0
LINE
8
BLACK
6
CONTINUOUS
10
224.0183769999999868
20
-117.0195839999999947
11
223.6797959999999819
21
-116.9814349999999905
0
LINE
8
BLACK
6
CONTINUOUS
10
223.6797959999999819
20
-116.9814349999999905
11
223.3390739999999823
21
-116.9814349999999905
0
LINE
8
BLACK
6
CONTINUOUS
10
223.3390739999999823
20
-116.9814349999999905
11
223.0004929999999774
21
-117.0195839999999947
0
LINE
8
BLACK
6
CONTINUOUS
10
223.0004929999999774
20
-117.0195839999999947
11
222.6683129999999835
21
-117.0954019999999929
0
LINE
8
BLACK
6
CONTINUOUS
10
222.6683129999999835
20
-117.0954019999999929
11
222.3467109999999991
21
-117.207934999999992
0
LINE
8
BLACK
6
CONTINUOUS
10
222.3467109999999991
20
-117.207934999999992
11
222.0397299999999916
21
-117.3557689999999951
0
LINE
8
BLACK
6
CONTINUOUS
10
222.0397299999999916
20
-117.3557689999999951
11
221.7512319999999875
21
-117.537044999999992
0
LINE
8
BLACK
6
CONTINUOUS
10
221.7512319999999875
20
-117.537044999999992
11
221.4848439999999812
21
-117.7494820000000004
0
LINE
8
BLACK
6
CONTINUOUS
10
221.4848439999999812
20
-117.7494820000000004
11
221.243916999999982
21
-117.9904089999999997
0
LINE
8
BLACK
6
CONTINUOUS
10
221.243916999999982
20
-117.9904089999999997
11
221.0314799999999877
21
-118.2567969999999917
0
LINE
8
BLACK
6
CONTINUOUS
10
221.0314799999999877
20
-118.2567969999999917
11
220.8502039999999909
21
-118.5452949999999959
0
LINE
8
BLACK
6
CONTINUOUS
10
220.8502039999999909
20
-118.5452949999999959
11
220.7023700000000019
21
-118.8522759999999892
0
LINE
8
BLACK
6
CONTINUOUS
10
220.7023700000000019
20
-118.8522759999999892
11
220.5898369999999886
21
-119.1738779999999878
0
LINE
8
BLACK
6
CONTINUOUS
10
220.5898369999999886
20
-119.1738779999999878
11
220.5140189999999905
21
-119.5060579999999959
0
LINE
8
BLACK
6
CONTINUOUS
10
220.5140189999999905
20
-119.5060579999999959
11
220.4758699999999862
21
-119.8446390000000008
0
LINE
8
BLACK
6
CONTINUOUS
10
220.4758699999999862
20
-119.8446390000000008
11
220.4758699999999862
21
-120.1853610000000003
0
LINE
8
BLACK
6
CONTINUOUS
10
72.3985160000000008
20
-75.8270029999999906
11
72.7356400000000036
21
-75.9039489999999972
0
LINE
8
BLACK
6
CONTINUOUS
10
72.7356400000000036
20
-75.9039489999999972
11
73.0620289999999954
21
-76.0181570000000022
0
LINE
8
BLACK
6
CONTINUOUS
10
73.0620289999999954
20
-76.0181570000000022
11
73.3735789999999923
21
-76.1681919999999906
0
LINE
8
BLACK
6
CONTINUOUS
10
73.3735789999999923
20
-76.1681919999999906
11
73.666370999999998
21
-76.3521649999999994
0
LINE
8
BLACK
6
CONTINUOUS
10
73.666370999999998
20
-76.3521649999999994
11
73.9367230000000006
21
-76.5677639999999968
0
LINE
8
BLACK
6
CONTINUOUS
10
73.9367230000000006
20
-76.5677639999999968
11
74.1812359999999984
21
-76.8122769999999946
0
LINE
8
BLACK
6
CONTINUOUS
10
74.1812359999999984
20
-76.8122769999999946
11
74.3968349999999958
21
-77.0826289999999972
0
LINE
8
BLACK
6
CONTINUOUS
10
74.3968349999999958
20
-77.0826289999999972
11
74.5808079999999904
21
-77.3754210000000029
0
LINE
8
BLACK
6
CONTINUOUS
10
74.5808079999999904
20
-77.3754210000000029
11
74.730842999999993
21
-77.6869709999999998
0
LINE
8
BLACK
6
CONTINUOUS
10
74.730842999999993
20
-77.6869709999999998
11
74.845050999999998
21
-78.0133599999999916
0
LINE
8
BLACK
6
CONTINUOUS
10
74.845050999999998
20
-78.0133599999999916
11
74.9219969999999904
21
-78.3504839999999945
0
LINE
8
BLACK
6
CONTINUOUS
10
74.9219969999999904
20
-78.3504839999999945
11
74.9607139999999958
21
-78.6941029999999984
0
LINE
8
BLACK
6
CONTINUOUS
10
74.9607139999999958
20
-78.6941029999999984
11
74.9607139999999958
21
-79.0398969999999963
0
LINE
8
BLACK
6
CONTINUOUS
10
74.9607139999999958
20
-79.0398969999999963
11
74.9219969999999904
21
-79.3835160000000002
0
LINE
8
BLACK
6
CONTINUOUS
10
74.9219969999999904
20
-79.3835160000000002
11
74.845050999999998
21
-79.7206400000000031
0
LINE
8
BLACK
6
CONTINUOUS
10
74.845050999999998
20
-79.7206400000000031
11
74.730842999999993
21
-80.0470289999999949
0
LINE
8
BLACK
6
CONTINUOUS
10
74.730842999999993
20
-80.0470289999999949
11
74.5808079999999904
21
-80.3585789999999918
0
LINE
8
BLACK
6
CONTINUOUS
10
74.5808079999999904
20
-80.3585789999999918
11
74.3968349999999958
21
-80.6513709999999975
0
LINE
8
BLACK
6
CONTINUOUS
10
74.3968349999999958
20
-80.6513709999999975
11
74.1812359999999984
21
-80.9217230000000001
0
LINE
8
BLACK
6
CONTINUOUS
10
74.1812359999999984
20
-80.9217230000000001
11
73.9367230000000006
21
-81.1662359999999978
0
LINE
8
BLACK
6
CONTINUOUS
10
73.9367230000000006
20
-81.1662359999999978
11
73.666370999999998
21
-81.3818349999999953
0
LINE
8
BLACK
6
CONTINUOUS
10
73.666370999999998
20
-81.3818349999999953
11
73.3735789999999923
21
-81.5658079999999899
0
LINE
8
BLACK
6
CONTINUOUS
10
73.3735789999999923
20
-81.5658079999999899
11
73.0620289999999954
21
-81.7158429999999925
0
LINE
8
BLACK
6
CONTINUOUS
10
73.0620289999999954
20
-81.7158429999999925
11
72.7356400000000036
21
-81.8300509999999974
0
LINE
8
BLACK
6
CONTINUOUS
10
72.7356400000000036
20
-81.8300509999999974
11
72.3985160000000008
21
-81.9069969999999898
0
LINE
8
BLACK
6
CONTINUOUS
10
72.3985160000000008
20
-81.9069969999999898
11
72.0548969999999969
21
-81.9457139999999953
0
LINE
8
BLACK
6
CONTINUOUS
10
72.0548969999999969
20
-81.9457139999999953
11
71.7091029999999989
21
-81.9457139999999953
0
LINE
8
BLACK
6
CONTINUOUS
10
71.7091029999999989
20
-81.9457139999999953
11
71.365483999999995
21
-81.9069969999999898
0
LINE
8
BLACK
6
CONTINUOUS
10
71.365483999999995
20
-81.9069969999999898
11
71.0283599999999922
21
-81.8300509999999974
0
LINE
8
BLACK
6
CONTINUOUS
10
71.0283599999999922
20
-81.8300509999999974
11
70.7019710000000003
21
-81.7158429999999925
0
LINE
8
BLACK
6
CONTINUOUS
10
70.7019710000000003
20
-81.7158429999999925
11
70.3904210000000035
21
-81.5658079999999899
0
LINE
8
BLACK
6
CONTINUOUS
10
70.3904210000000035
20
-81.5658079999999899
11
70.0976289999999977
21
-81.3818349999999953
0
LINE
8
BLACK
6
CONTINUOUS
10
70.0976289999999977
20
-81.3818349999999953
11
69.8272769999999952
21
-81.1662359999999978
0
LINE
8
BLACK
6
CONTINUOUS
10
69.8272769999999952
20
-81.1662359999999978
11
69.5827639999999974
21
-80.9217230000000001
0
LINE
8
BLACK
6
CONTINUOUS
10
69.5827639999999974
20
-80.9217230000000001
11
69.367165
21
-80.6513709999999975
0
LINE
8
BLACK
6
CONTINUOUS
10
69.367165
20
-80.6513709999999975
11
69.1831919999999911
21
-80.3585789999999918
0
LINE
8
BLACK
6
CONTINUOUS
10
69.1831919999999911
20
-80.3585789999999918
11
69.0331570000000028
21
-80.0470289999999949
0
LINE
8
BLACK
6
CONTINUOUS
10
69.0331570000000028
20
-80.0470289999999949
11
68.9189489999999978
21
-79.7206400000000031
0
LINE
8
BLACK
6
CONTINUOUS
10
68.9189489999999978
20
-79.7206400000000031
11
68.8420029999999912
21
-79.3835160000000002
0
LINE
8
BLACK
6
CONTINUOUS
10
68.8420029999999912
20
-79.3835160000000002
11
68.8032859999999999
21
-79.0398969999999963
0
LINE
8
BLACK
6
CONTINUOUS
10
68.8032859999999999
20
-79.0398969999999963
11
68.8032859999999999
21
-78.6966389999999905
0
LINE
8
BLACK
6
CONTINUOUS
10
68.8032859999999999
20
-78.6966389999999905
11
68.8032859999999999
21
-78.6941029999999984
0
LINE
8
BLACK
6
CONTINUOUS
10
68.8032859999999999
20
-78.6941029999999984
11
68.8420029999999912
21
-78.3504839999999945
0
LINE
8
BLACK
6
CONTINUOUS
10
68.8420029999999912
20
-78.3504839999999945
11
68.9189489999999978
21
-78.0133599999999916
0
LINE
8
BLACK
6
CONTINUOUS
10
68.9189489999999978
20
-78.0133599999999916
11
69.0331570000000028
21
-77.6869709999999998
0
LINE
8
BLACK
6
CONTINUOUS
10
69.0331570000000028
20
-77.6869709999999998
11
69.1831919999999911
21
-77.3754210000000029
0
LINE
8
BLACK
6
CONTINUOUS
10
69.1831919999999911
20
-77.3754210000000029
11
69.367165
21
-77.0826289999999972
0
LINE
8
BLACK
6
CONTINUOUS
10
69.367165
20
-77.0826289999999972
11
69.5827639999999974
21
-76.8122769999999946
0
LINE
8
BLACK
6
CONTINUOUS
10
69.5827639999999974
20
-76.8122769999999946
11
69.8272769999999952
21
-76.5677639999999968
0
LINE
8
BLACK
6
CONTINUOUS
10
69.8272769999999952
20
-76.5677639999999968
11
70.0976289999999977
21
-76.3521649999999994
0
LINE
8
BLACK
6
CONTINUOUS
10
70.0976289999999977
20
-76.3521649999999994
11
70.3904210000000035
21
-76.1681919999999906
0
LINE
8
BLACK
6
CONTINUOUS
10
70.3904210000000035
20
-76.1681919999999906
11
70.7019710000000003
21
-76.0181570000000022
0
LINE
8
BLACK
6
CONTINUOUS
10
70.7019710000000003
20
-76.0181570000000022
11
71.0283599999999922
21
-75.9039489999999972
0
LINE
8
BLACK
6
CONTINUOUS
10
71.0283599999999922
20
-75.9039489999999972
11
71.365483999999995
21
-75.8270029999999906
0
LINE
8
BLACK
6
CONTINUOUS
10
71.365483999999995
20
-75.8270029999999906
11
71.7091029999999989
21
-75.7882859999999994
0
LINE
8
BLACK
6
CONTINUOUS
10
71.7091029999999989
20
-75.7882859999999994
11
72.0548969999999969
21
-75.7882859999999994
0
LINE
8
BLACK
6
CONTINUOUS
10
72.0548969999999969
20
-75.7882859999999994
11
72.3985160000000008
21
-75.8270029999999906
0
LINE
8
BLACK
6
CONTINUOUS
10
68.8484349999999949
20
-79.03736099999999
11
68.8865839999999992
21
-79.3759419999999949
0
LINE
8
BLACK
6
CONTINUOUS
10
68.8865839999999992
20
-79.3759419999999949
11
68.9624019999999973
21
-79.708122000000003
0
LINE
8
BLACK
6
CONTINUOUS
10
68.9624019999999973
20
-79.708122000000003
11
69.0749349999999964
21
-80.0297240000000016
0
LINE
8
BLACK
6
CONTINUOUS
10
69.0749349999999964
20
-80.0297240000000016
11
69.2227689999999996
21
-80.3367049999999949
0
LINE
8
BLACK
6
CONTINUOUS
10
69.2227689999999996
20
-80.3367049999999949
11
69.4040449999999964
21
-80.6252029999999991
0
LINE
8
BLACK
6
CONTINUOUS
10
69.4040449999999964
20
-80.6252029999999991
11
69.6164819999999906
21
-80.8915909999999911
0
LINE
8
BLACK
6
CONTINUOUS
10
69.6164819999999906
20
-80.8915909999999911
11
69.8574089999999899
21
-81.1325179999999904
0
LINE
8
BLACK
6
CONTINUOUS
10
69.8574089999999899
20
-81.1325179999999904
11
70.1237969999999962
21
-81.3449549999999988
0
LINE
8
BLACK
6
CONTINUOUS
10
70.1237969999999962
20
-81.3449549999999988
11
70.4122950000000003
21
-81.5262309999999957
0
LINE
8
BLACK
6
CONTINUOUS
10
70.4122950000000003
20
-81.5262309999999957
11
70.7192759999999936
21
-81.6740649999999988
0
LINE
8
BLACK
6
CONTINUOUS
10
70.7192759999999936
20
-81.6740649999999988
11
71.0408779999999922
21
-81.7865979999999979
0
LINE
8
BLACK
6
CONTINUOUS
10
71.0408779999999922
20
-81.7865979999999979
11
71.3730580000000003
21
-81.8624159999999961
0
LINE
8
BLACK
6
CONTINUOUS
10
71.3730580000000003
20
-81.8624159999999961
11
71.711638999999991
21
-81.9005650000000003
0
LINE
8
BLACK
6
CONTINUOUS
10
71.711638999999991
20
-81.9005650000000003
11
72.0523609999999906
21
-81.9005650000000003
0
LINE
8
BLACK
6
CONTINUOUS
10
72.0523609999999906
20
-81.9005650000000003
11
72.3909419999999955
21
-81.8624159999999961
0
LINE
8
BLACK
6
CONTINUOUS
10
72.3909419999999955
20
-81.8624159999999961
11
72.7231220000000036
21
-81.7865979999999979
0
LINE
8
BLACK
6
CONTINUOUS
10
72.7231220000000036
20
-81.7865979999999979
11
73.0447240000000022
21
-81.6740649999999988
0
LINE
8
BLACK
6
CONTINUOUS
10
73.0447240000000022
20
-81.6740649999999988
11
73.3517049999999955
21
-81.5262309999999957
0
LINE
8
BLACK
6
CONTINUOUS
10
73.3517049999999955
20
-81.5262309999999957
11
73.6402029999999996
21
-81.3449549999999988
0
LINE
8
BLACK
6
CONTINUOUS
10
73.6402029999999996
20
-81.3449549999999988
11
73.9065909999999917
21
-81.1325179999999904
0
LINE
8
BLACK
6
CONTINUOUS
10
73.9065909999999917
20
-81.1325179999999904
11
74.1475179999999909
21
-80.8915909999999911
0
LINE
8
BLACK
6
CONTINUOUS
10
74.1475179999999909
20
-80.8915909999999911
11
74.3599549999999994
21
-80.6252029999999991
0
LINE
8
BLACK
6
CONTINUOUS
10
74.3599549999999994
20
-80.6252029999999991
11
74.5412309999999962
21
-80.3367049999999949
0
LINE
8
BLACK
6
CONTINUOUS
10
74.5412309999999962
20
-80.3367049999999949
11
74.6890649999999994
21
-80.0297240000000016
0
LINE
8
BLACK
6
CONTINUOUS
10
74.6890649999999994
20
-80.0297240000000016
11
74.8015979999999985
21
-79.708122000000003
0
LINE
8
BLACK
6
CONTINUOUS
10
74.8015979999999985
20
-79.708122000000003
11
74.8774159999999966
21
-79.3759419999999949
0
LINE
8
BLACK
6
CONTINUOUS
10
74.8774159999999966
20
-79.3759419999999949
11
74.9155650000000009
21
-79.03736099999999
0
LINE
8
BLACK
6
CONTINUOUS
10
74.9155650000000009
20
-79.03736099999999
11
74.9155650000000009
21
-78.6966389999999905
0
LINE
8
BLACK
6
CONTINUOUS
10
74.9155650000000009
20
-78.6966389999999905
11
74.8774159999999966
21
-78.3580579999999998
0
LINE
8
BLACK
6
CONTINUOUS
10
74.8774159999999966
20
-78.3580579999999998
11
74.8015979999999985
21
-78.0258779999999916
0
LINE
8
BLACK
6
CONTINUOUS
10
74.8015979999999985
20
-78.0258779999999916
11
74.6890649999999994
21
-77.704275999999993
0
LINE
8
BLACK
6
CONTINUOUS
10
74.6890649999999994
20
-77.704275999999993
11
74.5412309999999962
21
-77.3972949999999997
0
LINE
8
BLACK
6
CONTINUOUS
10
74.5412309999999962
20
-77.3972949999999997
11
74.3599549999999994
21
-77.1087969999999956
0
LINE
8
BLACK
6
CONTINUOUS
10
74.3599549999999994
20
-77.1087969999999956
11
74.1475179999999909
21
-76.8424090000000035
0
LINE
8
BLACK
6
CONTINUOUS
10
74.1475179999999909
20
-76.8424090000000035
11
73.9065909999999917
21
-76.6014819999999901
0
LINE
8
BLACK
6
CONTINUOUS
10
73.9065909999999917
20
-76.6014819999999901
11
73.6402029999999996
21
-76.3890449999999959
0
LINE
8
BLACK
6
CONTINUOUS
10
73.6402029999999996
20
-76.3890449999999959
11
73.3517049999999955
21
-76.207768999999999
0
LINE
8
BLACK
6
CONTINUOUS
10
73.3517049999999955
20
-76.207768999999999
11
73.0447240000000022
21
-76.0599349999999959
0
LINE
8
BLACK
6
CONTINUOUS
10
73.0447240000000022
20
-76.0599349999999959
11
72.7231220000000036
21
-75.9474019999999967
0
LINE
8
BLACK
6
CONTINUOUS
10
72.7231220000000036
20
-75.9474019999999967
11
72.3909419999999955
21
-75.8715839999999986
0
LINE
8
BLACK
6
CONTINUOUS
10
72.3909419999999955
20
-75.8715839999999986
11
72.0523609999999906
21
-75.8334349999999944
0
LINE
8
BLACK
6
CONTINUOUS
10
72.0523609999999906
20
-75.8334349999999944
11
71.711638999999991
21
-75.8334349999999944
0
LINE
8
BLACK
6
CONTINUOUS
10
71.711638999999991
20
-75.8334349999999944
11
71.3730580000000003
21
-75.8715839999999986
0
LINE
8
BLACK
6
CONTINUOUS
10
71.3730580000000003
20
-75.8715839999999986
11
71.0408779999999922
21
-75.9474019999999967
0
LINE
8
BLACK
6
CONTINUOUS
10
71.0408779999999922
20
-75.9474019999999967
11
70.7192759999999936
21
-76.0599349999999959
0
LINE
8
BLACK
6
CONTINUOUS
10
70.7192759999999936
20
-76.0599349999999959
11
70.4122950000000003
21
-76.207768999999999
0
LINE
8
BLACK
6
CONTINUOUS
10
70.4122950000000003
20
-76.207768999999999
11
70.1237969999999962
21
-76.3890449999999959
0
LINE
8
BLACK
6
CONTINUOUS
10
70.1237969999999962
20
-76.3890449999999959
11
69.8574089999999899
21
-76.6014819999999901
0
LINE
8
BLACK
6
CONTINUOUS
10
69.8574089999999899
20
-76.6014819999999901
11
69.6164819999999906
21
-76.8424090000000035
0
LINE
8
BLACK
6
CONTINUOUS
10
69.6164819999999906
20
-76.8424090000000035
11
69.4040449999999964
21
-77.1087969999999956
0
LINE
8
BLACK
6
CONTINUOUS
10
69.4040449999999964
20
-77.1087969999999956
11
69.2227689999999996
21
-77.3972949999999997
0
LINE
8
BLACK
6
CONTINUOUS
10
69.2227689999999996
20
-77.3972949999999997
11
69.0749349999999964
21
-77.704275999999993
0
LINE
8
BLACK
6
CONTINUOUS
10
69.0749349999999964
20
-77.704275999999993
11
68.9624019999999973
21
-78.0258779999999916
0
LINE
8
BLACK
6
CONTINUOUS
10
68.9624019999999973
20
-78.0258779999999916
11
68.8865839999999992
21
-78.3580579999999998
0
LINE
8
BLACK
6
CONTINUOUS
10
68.8865839999999992
20
-78.3580579999999998
11
68.8484349999999949
21
-78.6966389999999905
0
LINE
8
BLACK
6
CONTINUOUS
10
68.8484349999999949
20
-78.6966389999999905
11
68.8484349999999949
21
-79.03736099999999
0
LINE
8
BLACK
6
CONTINUOUS
10
224.0259509999999921
20
-75.8270029999999906
11
224.3630749999999807
21
-75.9039489999999972
0
LINE
8
BLACK
6
CONTINUOUS
10
224.3630749999999807
20
-75.9039489999999972
11
224.6894639999999868
21
-76.0181570000000022
0
LINE
8
BLACK
6
CONTINUOUS
10
224.6894639999999868
20
-76.0181570000000022
11
225.0010139999999978
21
-76.1681919999999906
0
LINE
8
BLACK
6
CONTINUOUS
10
225.0010139999999978
20
-76.1681919999999906
11
225.2938059999999894
21
-76.3521649999999994
0
LINE
8
BLACK
6
CONTINUOUS
10
225.2938059999999894
20
-76.3521649999999994
11
225.5641579999999919
21
-76.5677639999999968
0
LINE
8
BLACK
6
CONTINUOUS
10
225.5641579999999919
20
-76.5677639999999968
11
225.8086710000000039
21
-76.8122769999999946
0
LINE
8
BLACK
6
CONTINUOUS
10
225.8086710000000039
20
-76.8122769999999946
11
226.0242700000000013
21
-77.0826289999999972
0
LINE
8
BLACK
6
CONTINUOUS
10
226.0242700000000013
20
-77.0826289999999972
11
226.2082429999999817
21
-77.3754210000000029
0
LINE
8
BLACK
6
CONTINUOUS
10
226.2082429999999817
20
-77.3754210000000029
11
226.3582779999999843
21
-77.6869709999999998
0
LINE
8
BLACK
6
CONTINUOUS
10
226.3582779999999843
20
-77.6869709999999998
11
226.4724860000000035
21
-78.0133599999999916
0
LINE
8
BLACK
6
CONTINUOUS
10
226.4724860000000035
20
-78.0133599999999916
11
226.5494319999999959
21
-78.3504839999999945
0
LINE
8
BLACK
6
CONTINUOUS
10
226.5494319999999959
20
-78.3504839999999945
11
226.5881489999999872
21
-78.6941029999999984
0
LINE
8
BLACK
6
CONTINUOUS
10
226.5881489999999872
20
-78.6941029999999984
11
226.5881489999999872
21
-79.0398969999999963
0
LINE
8
BLACK
6
CONTINUOUS
10
226.5881489999999872
20
-79.0398969999999963
11
226.5494319999999959
21
-79.3835160000000002
0
LINE
8
BLACK
6
CONTINUOUS
10
226.5494319999999959
20
-79.3835160000000002
11
226.4724860000000035
21
-79.7206400000000031
0
LINE
8
BLACK
6
CONTINUOUS
10
226.4724860000000035
20
-79.7206400000000031
11
226.3582779999999843
21
-80.0470289999999949
0
LINE
8
BLACK
6
CONTINUOUS
10
226.3582779999999843
20
-80.0470289999999949
11
226.2082429999999817
21
-80.3585789999999918
0
LINE
8
BLACK
6
CONTINUOUS
10
226.2082429999999817
20
-80.3585789999999918
11
226.0242700000000013
21
-80.6513709999999975
0
LINE
8
BLACK
6
CONTINUOUS
10
226.0242700000000013
20
-80.6513709999999975
11
225.8086710000000039
21
-80.9217230000000001
0
LINE
8
BLACK
6
CONTINUOUS
10
225.8086710000000039
20
-80.9217230000000001
11
225.5641579999999919
21
-81.1662359999999978
0
LINE
8
BLACK
6
CONTINUOUS
10
225.5641579999999919
20
-81.1662359999999978
11
225.2938059999999894
21
-81.3818349999999953
0
LINE
8
BLACK
6
CONTINUOUS
10
225.2938059999999894
20
-81.3818349999999953
11
225.0010139999999978
21
-81.5658079999999899
0
LINE
8
BLACK
6
CONTINUOUS
10
225.0010139999999978
20
-81.5658079999999899
11
224.6894639999999868
21
-81.7158429999999925
0
LINE
8
BLACK
6
CONTINUOUS
10
224.6894639999999868
20
-81.7158429999999925
11
224.3630749999999807
21
-81.8300509999999974
0
LINE
8
BLACK
6
CONTINUOUS
10
224.3630749999999807
20
-81.8300509999999974
11
224.0259509999999921
21
-81.9069969999999898
0
LINE
8
BLACK
6
CONTINUOUS
10
224.0259509999999921
20
-81.9069969999999898
11
223.6823320000000024
21
-81.9457139999999953
0
LINE
8
BLACK
6
CONTINUOUS
10
223.6823320000000024
20
-81.9457139999999953
11
223.3365379999999902
21
-81.9457139999999953
0
LINE
8
BLACK
6
CONTINUOUS
10
223.3365379999999902
20
-81.9457139999999953
11
222.9929190000000006
21
-81.9069969999999898
0
LINE
8
BLACK
6
CONTINUOUS
10
222.9929190000000006
20
-81.9069969999999898
11
222.6557949999999835
21
-81.8300509999999974
0
LINE
8
BLACK
6
CONTINUOUS
10
222.6557949999999835
20
-81.8300509999999974
11
222.3294059999999774
21
-81.7158429999999925
0
LINE
8
BLACK
6
CONTINUOUS
10
222.3294059999999774
20
-81.7158429999999925
11
222.0178559999999948
21
-81.5658079999999899
0
LINE
8
BLACK
6
CONTINUOUS
10
222.0178559999999948
20
-81.5658079999999899
11
221.7250640000000033
21
-81.3818349999999953
0
LINE
8
BLACK
6
CONTINUOUS
10
221.7250640000000033
20
-81.3818349999999953
11
221.4547120000000007
21
-81.1662359999999978
0
LINE
8
BLACK
6
CONTINUOUS
10
221.4547120000000007
20
-81.1662359999999978
11
221.2101989999999887
21
-80.9217230000000001
0
LINE
8
BLACK
6
CONTINUOUS
10
221.2101989999999887
20
-80.9217230000000001
11
220.9945999999999913
21
-80.6513709999999975
0
LINE
8
BLACK
6
CONTINUOUS
10
220.9945999999999913
20
-80.6513709999999975
11
220.8106269999999824
21
-80.3585789999999918
0
LINE
8
BLACK
6
CONTINUOUS
10
220.8106269999999824
20
-80.3585789999999918
11
220.6605919999999799
21
-80.0470289999999949
0
LINE
8
BLACK
6
CONTINUOUS
10
220.6605919999999799
20
-80.0470289999999949
11
220.5463839999999891
21
-79.7206400000000031
0
LINE
8
BLACK
6
CONTINUOUS
10
220.5463839999999891
20
-79.7206400000000031
11
220.4694379999999967
21
-79.3835160000000002
0
LINE
8
BLACK
6
CONTINUOUS
10
220.4694379999999967
20
-79.3835160000000002
11
220.430720999999977
21
-79.0398969999999963
0
LINE
8
BLACK
6
CONTINUOUS
10
220.430720999999977
20
-79.0398969999999963
11
220.430720999999977
21
-78.6966389999999905
0
LINE
8
BLACK
6
CONTINUOUS
10
220.430720999999977
20
-78.6966389999999905
11
220.430720999999977
21
-78.6941029999999984
0
LINE
8
BLACK
6
CONTINUOUS
10
220.430720999999977
20
-78.6941029999999984
11
220.4694379999999967
21
-78.3504839999999945
0
LINE
8
BLACK
6
CONTINUOUS
10
220.4694379999999967
20
-78.3504839999999945
11
220.5463839999999891
21
-78.0133599999999916
0
LINE
8
BLACK
6
CONTINUOUS
10
220.5463839999999891
20
-78.0133599999999916
11
220.6605919999999799
21
-77.6869709999999998
0
LINE
8
BLACK
6
CONTINUOUS
10
220.6605919999999799
20
-77.6869709999999998
11
220.8106269999999824
21
-77.3754210000000029
0
LINE
8
BLACK
6
CONTINUOUS
10
220.8106269999999824
20
-77.3754210000000029
11
220.9945999999999913
21
-77.0826289999999972
0
LINE
8
BLACK
6
CONTINUOUS
10
220.9945999999999913
20
-77.0826289999999972
11
221.2101989999999887
21
-76.8122769999999946
0
LINE
8
BLACK
6
CONTINUOUS
10
221.2101989999999887
20
-76.8122769999999946
11
221.4547120000000007
21
-76.5677639999999968
0
LINE
8
BLACK
6
CONTINUOUS
10
221.4547120000000007
20
-76.5677639999999968
11
221.7250640000000033
21
-76.3521649999999994
0
LINE
8
BLACK
6
CONTINUOUS
10
221.7250640000000033
20
-76.3521649999999994
11
222.0178559999999948
21
-76.1681919999999906
0
LINE
8
BLACK
6
CONTINUOUS
10
222.0178559999999948
20
-76.1681919999999906
11
222.3294059999999774
21
-76.0181570000000022
0
LINE
8
BLACK
6
CONTINUOUS
10
222.3294059999999774
20
-76.0181570000000022
11
222.6557949999999835
21
-75.9039489999999972
0
LINE
8
BLACK
6
CONTINUOUS
10
222.6557949999999835
20
-75.9039489999999972
11
222.9929190000000006
21
-75.8270029999999906
0
LINE
8
BLACK
6
CONTINUOUS
10
222.9929190000000006
20
-75.8270029999999906
11
223.3365379999999902
21
-75.7882859999999994
0
LINE
8
BLACK
6
CONTINUOUS
10
223.3365379999999902
20
-75.7882859999999994
11
223.6823320000000024
21
-75.7882859999999994
0
LINE
8
BLACK
6
CONTINUOUS
10
223.6823320000000024
20
-75.7882859999999994
11
224.0259509999999921
21
-75.8270029999999906
0
LINE
8
BLACK
6
CONTINUOUS
10
220.4758699999999862
20
-79.03736099999999
11
220.5140189999999905
21
-79.3759419999999949
0
LINE
8
BLACK
6
CONTINUOUS
10
220.5140189999999905
20
-79.3759419999999949
11
220.5898369999999886
21
-79.708122000000003
0
LINE
8
BLACK
6
CONTINUOUS
10
220.5898369999999886
20
-79.708122000000003
11
220.7023700000000019
21
-80.0297240000000016
0
LINE
8
BLACK
6
CONTINUOUS
10
220.7023700000000019
20
-80.0297240000000016
11
220.8502039999999909
21
-80.3367049999999949
0
LINE
8
BLACK
6
CONTINUOUS
10
220.8502039999999909
20
-80.3367049999999949
11
221.0314799999999877
21
-80.6252029999999991
0
LINE
8
BLACK
6
CONTINUOUS
10
221.0314799999999877
20
-80.6252029999999991
11
221.243916999999982
21
-80.8915909999999911
0
LINE
8
BLACK
6
CONTINUOUS
10
221.243916999999982
20
-80.8915909999999911
11
221.4848439999999812
21
-81.1325179999999904
0
LINE
8
BLACK
6
CONTINUOUS
10
221.4848439999999812
20
-81.1325179999999904
11
221.7512319999999875
21
-81.3449549999999988
0
LINE
8
BLACK
6
CONTINUOUS
10
221.7512319999999875
20
-81.3449549999999988
11
222.0397299999999916
21
-81.5262309999999957
0
LINE
8
BLACK
6
CONTINUOUS
10
222.0397299999999916
20
-81.5262309999999957
11
222.3467109999999991
21
-81.6740649999999988
0
LINE
8
BLACK
6
CONTINUOUS
10
222.3467109999999991
20
-81.6740649999999988
11
222.6683129999999835
21
-81.7865979999999979
0
LINE
8
BLACK
6
CONTINUOUS
10
222.6683129999999835
20
-81.7865979999999979
11
223.0004929999999774
21
-81.8624159999999961
0
LINE
8
BLACK
6
CONTINUOUS
10
223.0004929999999774
20
-81.8624159999999961
11
223.3390739999999823
21
-81.9005650000000003
0
LINE
8
BLACK
6
CONTINUOUS
10
223.3390739999999823
20
-81.9005650000000003
11
223.6797959999999819
21
-81.9005650000000003
0
LINE
8
BLACK
6
CONTINUOUS
10
223.6797959999999819
20
-81.9005650000000003
11
224.0183769999999868
21
-81.8624159999999961
0
LINE
8
BLACK
6
CONTINUOUS
10
224.0183769999999868
20
-81.8624159999999961
11
224.3505569999999807
21
-81.7865979999999979
0
LINE
8
BLACK
6
CONTINUOUS
10
224.3505569999999807
20
-81.7865979999999979
11
224.6721589999999935
21
-81.6740649999999988
0
LINE
8
BLACK
6
CONTINUOUS
10
224.6721589999999935
20
-81.6740649999999988
11
224.979140000000001
21
-81.5262309999999957
0
LINE
8
BLACK
6
CONTINUOUS
10
224.979140000000001
20
-81.5262309999999957
11
225.2676379999999767
21
-81.3449549999999988
0
LINE
8
BLACK
6
CONTINUOUS
10
225.2676379999999767
20
-81.3449549999999988
11
225.534025999999983
21
-81.1325179999999904
0
LINE
8
BLACK
6
CONTINUOUS
10
225.534025999999983
20
-81.1325179999999904
11
225.7749529999999822
21
-80.8915909999999911
0
LINE
8
BLACK
6
CONTINUOUS
10
225.7749529999999822
20
-80.8915909999999911
11
225.9873899999999765
21
-80.6252029999999991
0
LINE
8
BLACK
6
CONTINUOUS
10
225.9873899999999765
20
-80.6252029999999991
11
226.1686660000000018
21
-80.3367049999999949
0
LINE
8
BLACK
6
CONTINUOUS
10
226.1686660000000018
20
-80.3367049999999949
11
226.3164999999999907
21
-80.0297240000000016
0
LINE
8
BLACK
6
CONTINUOUS
10
226.3164999999999907
20
-80.0297240000000016
11
226.4290329999999756
21
-79.708122000000003
0
LINE
8
BLACK
6
CONTINUOUS
10
226.4290329999999756
20
-79.708122000000003
11
226.5048510000000022
21
-79.3759419999999949
0
LINE
8
BLACK
6
CONTINUOUS
10
226.5048510000000022
20
-79.3759419999999949
11
226.5429999999999779
21
-79.03736099999999
0
LINE
8
BLACK
6
CONTINUOUS
10
226.5429999999999779
20
-79.03736099999999
11
226.5429999999999779
21
-78.6966389999999905
0
LINE
8
BLACK
6
CONTINUOUS
10
226.5429999999999779
20
-78.6966389999999905
11
226.5048510000000022
21
-78.3580579999999998
0
LINE
8
BLACK
6
CONTINUOUS
10
226.5048510000000022
20
-78.3580579999999998
11
226.4290329999999756
21
-78.0258779999999916
0
LINE
8
BLACK
6
CONTINUOUS
10
226.4290329999999756
20
-78.0258779999999916
11
226.3164999999999907
21
-77.704275999999993
0
LINE
8
BLACK
6
CONTINUOUS
10
226.3164999999999907
20
-77.704275999999993
11
226.1686660000000018
21
-77.3972949999999997
0
LINE
8
BLACK
6
CONTINUOUS
10
226.1686660000000018
20
-77.3972949999999997
11
225.9873899999999765
21
-77.1087969999999956
0
LINE
8
BLACK
6
CONTINUOUS
10
225.9873899999999765
20
-77.1087969999999956
11
225.7749529999999822
21
-76.8424090000000035
0
LINE
8
BLACK
6
CONTINUOUS
10
225.7749529999999822
20
-76.8424090000000035
11
225.534025999999983
21
-76.6014819999999901
0
LINE
8
BLACK
6
CONTINUOUS
10
225.534025999999983
20
-76.6014819999999901
11
225.2676379999999767
21
-76.3890449999999959
0
LINE
8
BLACK
6
CONTINUOUS
10
225.2676379999999767
20
-76.3890449999999959
11
224.979140000000001
21
-76.207768999999999
0
LINE
8
BLACK
6
CONTINUOUS
10
224.979140000000001
20
-76.207768999999999
11
224.6721589999999935
21
-76.0599349999999959
0
LINE
8
BLACK
6
CONTINUOUS
10
224.6721589999999935
20
-76.0599349999999959
11
224.3505569999999807
21
-75.9474019999999967
0
LINE
8
BLACK
6
CONTINUOUS
10
224.3505569999999807
20
-75.9474019999999967
11
224.0183769999999868
21
-75.8715839999999986
0
LINE
8
BLACK
6
CONTINUOUS
10
224.0183769999999868
20
-75.8715839999999986
11
223.6797959999999819
21
-75.8334349999999944
0
LINE
8
BLACK
6
CONTINUOUS
10
223.6797959999999819
20
-75.8334349999999944
11
223.3390739999999823
21
-75.8334349999999944
0
LINE
8
BLACK
6
CONTINUOUS
10
223.3390739999999823
20
-75.8334349999999944
11
223.0004929999999774
21
-75.8715839999999986
0
LINE
8
BLACK
6
CONTINUOUS
10
223.0004929999999774
20
-75.8715839999999986
11
222.6683129999999835
21
-75.9474019999999967
0
LINE
8
BLACK
6
CONTINUOUS
10
222.6683129999999835
20
-75.9474019999999967
11
222.3467109999999991
21
-76.0599349999999959
0
LINE
8
BLACK
6
CONTINUOUS
10
222.3467109999999991
20
-76.0599349999999959
11
222.0397299999999916
21
-76.207768999999999
0
LINE
8
BLACK
6
CONTINUOUS
10
222.0397299999999916
20
-76.207768999999999
11
221.7512319999999875
21
-76.3890449999999959
0
LINE
8
BLACK
6
CONTINUOUS
10
221.7512319999999875
20
-76.3890449999999959
11
221.4848439999999812
21
-76.6014819999999901
0
LINE
8
BLACK
6
CONTINUOUS
10
221.4848439999999812
20
-76.6014819999999901
11
221.243916999999982
21
-76.8424090000000035
0
LINE
8
BLACK
6
CONTINUOUS
10
221.243916999999982
20
-76.8424090000000035
11
221.0314799999999877
21
-77.1087969999999956
0
LINE
8
BLACK
6
CONTINUOUS
10
221.0314799999999877
20
-77.1087969999999956
11
220.8502039999999909
21
-77.3972949999999997
0
LINE
8
BLACK
6
CONTINUOUS
10
220.8502039999999909
20
-77.3972949999999997
11
220.7023700000000019
21
-77.704275999999993
0
LINE
8
BLACK
6
CONTINUOUS
10
220.7023700000000019
20
-77.704275999999993
11
220.5898369999999886
21
-78.0258779999999916
0
LINE
8
BLACK
6
CONTINUOUS
10
220.5898369999999886
20
-78.0258779999999916
11
220.5140189999999905
21
-78.3580579999999998
0
LINE
8
BLACK
6
CONTINUOUS
10
220.5140189999999905
20
-78.3580579999999998
11
220.4758699999999862
21
-78.6966389999999905
0
LINE
8
BLACK
6
CONTINUOUS
10
220.4758699999999862
20
-78.6966389999999905
11
220.4758699999999862
21
-79.03736099999999
0
LINE
8
BLACK
6
CONTINUOUS
10
227.7235670000000027
20
-74.3559029999999979
11
227.7370969999999772
21
-74.3694330000000008
0
LINE
8
BLACK
6
CONTINUOUS
10
227.7370969999999772
20
-74.3694330000000008
11
227.7389999999999759
21
-74.3789999999999907
0
LINE
8
BLACK
6
CONTINUOUS
10
227.7389999999999759
20
-74.3789999999999907
11
227.7389999999999759
21
-124.3789999999999907
0
LINE
8
BLACK
6
CONTINUOUS
10
227.7389999999999759
20
-124.3789999999999907
11
227.7370969999999772
21
-124.3885669999999948
0
LINE
8
BLACK
6
CONTINUOUS
10
227.7370969999999772
20
-124.3885669999999948
11
227.7235670000000027
21
-124.4020969999999977
0
LINE
8
BLACK
6
CONTINUOUS
10
227.7235670000000027
20
-124.4020969999999977
11
227.7139999999999986
21
-124.4039999999999964
0
LINE
8
BLACK
6
CONTINUOUS
10
227.7139999999999986
20
-124.4039999999999964
11
67.7139999999999986
21
-124.4039999999999964
0
LINE
8
BLACK
6
CONTINUOUS
10
67.7139999999999986
20
-124.4039999999999964
11
67.7044329999999945
21
-124.4020969999999977
0
LINE
8
BLACK
6
CONTINUOUS
10
67.7044329999999945
20
-124.4020969999999977
11
67.6909029999999916
21
-124.3885669999999948
0
LINE
8
BLACK
6
CONTINUOUS
10
67.6909029999999916
20
-124.3885669999999948
11
67.688999999999993
21
-124.3789999999999907
0
LINE
8
BLACK
6
CONTINUOUS
10
67.688999999999993
20
-124.3789999999999907
11
67.688999999999993
21
-74.3789999999999907
0
LINE
8
BLACK
6
CONTINUOUS
10
67.688999999999993
20
-74.3789999999999907
11
67.6909029999999916
21
-74.3694330000000008
0
LINE
8
BLACK
6
CONTINUOUS
10
67.6909029999999916
20
-74.3694330000000008
11
67.7044329999999945
21
-74.3559029999999979
0
LINE
8
BLACK
6
CONTINUOUS
10
67.7044329999999945
20
-74.3559029999999979
11
67.7139999999999986
21
-74.3539999999999992
0
LINE
8
BLACK
6
CONTINUOUS
10
67.7139999999999986
20
-74.3539999999999992
11
227.7139999999999986
21
-74.3539999999999992
0
LINE
8
BLACK
6
CONTINUOUS
10
227.7139999999999986
20
-74.3539999999999992
11
227.7235670000000027
21
-74.3559029999999979
0
LINE
8
BLACK
6
CONTINUOUS
10
67.7389999999999901
20
-74.4039999999999964
11
67.7389999999999901
21
-124.3539999999999992
0
LINE
8
BLACK
6
CONTINUOUS
10
67.7389999999999901
20
-124.3539999999999992
11
227.688999999999993
21
-124.3539999999999992
0
LINE
8
BLACK
6
CONTINUOUS
10
227.688999999999993
20
-124.3539999999999992
11
227.688999999999993
21
-74.4039999999999964
0
LINE
8
BLACK
6
CONTINUOUS
10
227.688999999999993
20
-74.4039999999999964
11
67.7389999999999901
21
-74.4039999999999964
0
CIRCLE
8
BLACK
10
125.4759999999999991
20
-91.5669999999999931
40
0.5
0
CIRCLE
8
BLACK
10
128.0159999999999911
20
-91.5669999999999931
40
0.5
0
CIRCLE
8
BLACK
10
130.5559999999999832
20
-91.5669999999999931
40
0.5
0
CIRCLE
8
BLACK
10
133.0960000000000036
20
-91.5669999999999931
40
0.5
0
CIRCLE
8
BLACK
10
158.4959999999999809
20
-90.5510000000000019
40
0.5
0
CIRCLE
8
BLACK
10
158.4959999999999809
20
-93.090999999999994
40
0.5
0
CIRCLE
8
BLACK
10
158.4959999999999809
20
-95.6310000000000002
40
0.5
0
CIRCLE
8
BLACK
10
158.4959999999999809
20
-98.1709999999999923
40
0.5
0
CIRCLE
8
BLACK
10
158.4959999999999809
20
-100.7109999999999985
40
0.5
0
CIRCLE
8
BLACK
10
158.4959999999999809
20
-103.2509999999999906
40
0.5
0
CIRCLE
8
BLACK
10
158.4959999999999809
20
-105.7909999999999968
40
0.5
0
CIRCLE
8
BLACK
10
158.4959999999999809
20
-108.3309999999999889
40
0.5
0
CIRCLE
8
BLACK
10
131.5720000000000027
20
-121.2849999999999966
40
0.4445
0
CIRCLE
8
BLACK
10
131.5720000000000027
20
-118.7449999999999903
40
0.4445
0
CIRCLE
8
BLACK
10
131.5720000000000027
20
-116.2049999999999983
40
0.4445
0
CIRCLE
8
BLACK
10
131.5720000000000027
20
-113.664999999999992
40
0.4445
0
CIRCLE
8
BLACK
10
131.5720000000000027
20
-111.125
40
0.4445
0
CIRCLE
8
BLACK
10
131.5720000000000027
20
-108.5849999999999937
40
0.4445
0
CIRCLE
8
BLACK
10
131.5720000000000027
20
-106.0450000000000017
40
0.4445
0
CIRCLE
8
BLACK
10
146.8119999999999834
20
-106.0450000000000017
40
0.4445
0
CIRCLE
8
BLACK
10
146.8119999999999834
20
-108.5849999999999937
40
0.4445
0
CIRCLE
8
BLACK
10
146.8119999999999834
20
-111.125
40
0.4445
0
CIRCLE
8
BLACK
10
146.8119999999999834
20
-113.664999999999992
40
0.4445
0
CIRCLE
8
BLACK
10
146.8119999999999834
20
-116.2049999999999983
40
0.4445
0
CIRCLE
8
BLACK
10
146.8119999999999834
20
-118.7449999999999903
40
0.4445
0
CIRCLE
8
BLACK
10
146.8119999999999834
20
-121.2849999999999966
40
0.4445
0
CIRCLE
8
BLACK
10
116.0779999999999887
20
-111.2519999999999953
40
0.375
0
CIRCLE
8
BLACK
10
114.8079999999999927
20
-112.5219999999999914
40
0.375
0
CIRCLE
8
BLACK
10
116.0779999999999887
20
-113.7920000000000016
40
0.375
0
CIRCLE
8
BLACK
10
106.4260000000000019
20
-79.6289999999999907
40
0.65
0
CIRCLE
8
BLACK
10
111.5060000000000002
20
-79.6289999999999907
40
0.65
0
CIRCLE
8
BLACK
10
83.7314999999999969
20
-113.0344999999999942
40
0.65
0
CIRCLE
8
BLACK
10
83.7314999999999969
20
-105.5344999999999942
40
0.65
0
CIRCLE
8
BLACK
10
88.7314999999999969
20
-113.0344999999999942
40
0.65
0
CIRCLE
8
BLACK
10
88.7314999999999969
20
-105.5344999999999942
40
0.65
0
CIRCLE
8
BLACK
10
78.7314999999999969
20
-113.0344999999999942
40
0.65
0
CIRCLE
8
BLACK
10
78.7314999999999969
20
-105.5344999999999942
40
0.65
0
CIRCLE
8
BLACK
10
103.7314999999999969
20
-113.0344999999999942
40
0.65
0
CIRCLE
8
BLACK
10
103.7314999999999969
20
-105.5344999999999942
40
0.65
0
CIRCLE
8
BLACK
10
122.4279999999999973
20
-79.6289999999999907
40
0.65
0
CIRCLE
8
BLACK
10
127.5079999999999956
20
-79.6289999999999907
40
0.65
0
CIRCLE
8
BLACK
10
132.5879999999999939
20
-79.6289999999999907
40
0.65
0
CIRCLE
8
BLACK
10
137.6680000000000064
20
-79.6289999999999907
40
0.65
0
CIRCLE
8
BLACK
10
142.7479999999999905
20
-79.6289999999999907
40
0.65
0
CIRCLE
8
BLACK
10
147.828000000000003
20
-79.6289999999999907
40
0.65
0
CIRCLE
8
BLACK
10
83.5660000000000025
20
-79.6289999999999907
40
0.65
0
CIRCLE
8
BLACK
10
88.6460000000000008
20
-79.6289999999999907
40
0.65
0
CIRCLE
8
BLACK
10
93.7259999999999991
20
-79.6289999999999907
40
0.65
0
CIRCLE
8
BLACK
10
107.9499999999999886
20
-113.0300000000000011
40
0.4
0
CIRCLE
8
BLACK
10
107.9499999999999886
20
-105.4099999999999966
40
0.4
0
CIRCLE
8
BLACK
10
116.0779999999999887
20
-117.6019999999999897
40
0.375
0
CIRCLE
8
BLACK
10
114.8079999999999927
20
-118.8719999999999999
40
0.375
0
CIRCLE
8
BLACK
10
116.0779999999999887
20
-120.1419999999999959
40
0.375
0
CIRCLE
8
BLACK
10
125.4759999999999991
20
-91.5669999999999931
40
0.5
0
CIRCLE
8
BLACK
10
128.0159999999999911
20
-91.5669999999999931
40
0.5
0
CIRCLE
8
BLACK
10
130.5559999999999832
20
-91.5669999999999931
40
0.5
0
CIRCLE
8
BLACK
10
133.0960000000000036
20
-91.5669999999999931
40
0.5
0
CIRCLE
8
BLACK
10
158.4959999999999809
20
-90.5510000000000019
40
0.5
0
CIRCLE
8
BLACK
10
158.4959999999999809
20
-93.090999999999994
40
0.5
0
CIRCLE
8
BLACK
10
158.4959999999999809
20
-95.6310000000000002
40
0.5
0
CIRCLE
8
BLACK
10
158.4959999999999809
20
-98.1709999999999923
40
0.5
0
CIRCLE
8
BLACK
10
158.4959999999999809
20
-100.7109999999999985
40
0.5
0
CIRCLE
8
BLACK
10
158.4959999999999809
20
-103.2509999999999906
40
0.5
0
CIRCLE
8
BLACK
10
158.4959999999999809
20
-105.7909999999999968
40
0.5
0
CIRCLE
8
BLACK
10
158.4959999999999809
20
-108.3309999999999889
40
0.5
0
CIRCLE
8
BLACK
10
131.5720000000000027
20
-121.2849999999999966
40
0.4445
0
CIRCLE
8
BLACK
10
131.5720000000000027
20
-118.7449999999999903
40
0.4445
0
CIRCLE
8
BLACK
10
131.5720000000000027
20
-116.2049999999999983
40
0.4445
0
CIRCLE
8
BLACK
10
131.5720000000000027
20
-113.664999999999992
40
0.4445
0
CIRCLE
8
BLACK
10
131.5720000000000027
20
-111.125
40
0.4445
0
CIRCLE
8
BLACK
10
131.5720000000000027
20
-108.5849999999999937
40
0.4445
0
CIRCLE
8
BLACK
10
131.5720000000000027
20
-106.0450000000000017
40
0.4445
0
CIRCLE
8
BLACK
10
146.8119999999999834
20
-106.0450000000000017
40
0.4445
0
CIRCLE
8
BLACK
10
146.8119999999999834
20
-108.5849999999999937
40
0.4445
0
CIRCLE
8
BLACK
10
146.8119999999999834
20
-111.125
40
0.4445
0
CIRCLE
8
BLACK
10
146.8119999999999834
20
-113.664999999999992
40
0.4445
0
CIRCLE
8
BLACK
10
146.8119999999999834
20
-116.2049999999999983
40
0.4445
0
CIRCLE
8
BLACK
10
146.8119999999999834
20
-118.7449999999999903
40
0.4445
0
CIRCLE
8
BLACK
10
146.8119999999999834
20
-121.2849999999999966
40
0.4445
0
CIRCLE
8
BLACK
10
116.0779999999999887
20
-111.2519999999999953
40
0.375
0
CIRCLE
8
BLACK
10
114.8079999999999927
20
-112.5219999999999914
40
0.375
0
CIRCLE
8
BLACK
10
116.0779999999999887
20
-113.7920000000000016
40
0.375
0
CIRCLE
8
BLACK
10
106.4260000000000019
20
-79.6289999999999907
40
0.65
0
CIRCLE
8
BLACK
10
111.5060000000000002
20
-79.6289999999999907
40
0.65
0
CIRCLE
8
BLACK
10
83.7314999999999969
20
-113.0344999999999942
40
0.65
0
CIRCLE
8
BLACK
10
83.7314999999999969
20
-105.5344999999999942
40
0.65
0
CIRCLE
8
BLACK
10
88.7314999999999969
20
-113.0344999999999942
40
0.65
0
CIRCLE
8
BLACK
10
88.7314999999999969
20
-105.5344999999999942
40
0.65
0
CIRCLE
8
BLACK
10
78.7314999999999969
20
-113.0344999999999942
40
0.65
0
CIRCLE
8
BLACK
10
78.7314999999999969
20
-105.5344999999999942
40
0.65
0
CIRCLE
8
BLACK
10
103.7314999999999969
20
-113.0344999999999942
40
0.65
0
CIRCLE
8
BLACK
10
103.7314999999999969
20
-105.5344999999999942
40
0.65
0
CIRCLE
8
BLACK
10
122.4279999999999973
20
-79.6289999999999907
40
0.65
0
CIRCLE
8
BLACK
10
127.5079999999999956
20
-79.6289999999999907
40
0.65
0
CIRCLE
8
BLACK
10
132.5879999999999939
20
-79.6289999999999907
40
0.65
0
CIRCLE
8
BLACK
10
137.6680000000000064
20
-79.6289999999999907
40
0.65
0
CIRCLE
8
BLACK
10
142.7479999999999905
20
-79.6289999999999907
40
0.65
0
CIRCLE
8
BLACK
10
147.828000000000003
20
-79.6289999999999907
40
0.65
0
CIRCLE
8
BLACK
10
83.5660000000000025
20
-79.6289999999999907
40
0.65
0
CIRCLE
8
BLACK
10
88.6460000000000008
20
-79.6289999999999907
40
0.65
0
CIRCLE
8
BLACK
10
93.7259999999999991
20
-79.6289999999999907
40
0.65
0
CIRCLE
8
BLACK
10
107.9499999999999886
20
-113.0300000000000011
40
0.4
0
CIRCLE
8
BLACK
10
107.9499999999999886
20
-105.4099999999999966
40
0.4
0
CIRCLE
8
BLACK
10
116.0779999999999887
20
-117.6019999999999897
40
0.375
0
CIRCLE
8
BLACK
10
114.8079999999999927
20
-118.8719999999999999
40
0.375
0
CIRCLE
8
BLACK
10
116.0779999999999887
20
-120.1419999999999959
40
0.375
  0
ENDSEC
  0
EOF
