  0
SECTION
  2
HEADER
  9
$ANGBASE
  50
0.0
  9
$ANGDIR
  70
1
  9
$MEASUREMENT
  70
1
  0
ENDSEC
  0
SECTION
  2
TABLES
  0
TABLE
  2
LTYPE
  70
4
  0
LTYPE
  5
40F
  2
CONTINUOUS
  70
0
  3
Solid line
  72
65
  73
0
  40
0.0
  0
LTYPE
  5
410
  2
DASHDOT
 70
0
  3
Dash Dot ____ _ ____ _
 72
65
 73
4
 40
2.0
 49
1.25
 49
-0.25
 49
0.25
 49
-0.25
  0
LTYPE
  5
411
  2
DASHED
 70
0
  3
Dashed __ __ __ __ __
 72
65
 73
2
 40
0.75
 49
0.5
 49
-0.25
  0
LTYPE
  5
43B
  2
DOTTED
 70
0
  3
Dotted .  .  .  .
 72
65
 73
2
 40
0.2
 49
0.0
 49
-0.2
  0
ENDTAB
  0
TABLE
  2
STYLE
  70
4
  0
STYLE
  2
KICAD
  70
0
  40
0
  41
1
  42
1
  50
0
  71
0
  3
isocp.shx
  0
STYLE
  2
KICADB
  70
0
  40
0
  41
1
  42
1
  50
0
  71
0
  3
isocp.shx
  0
STYLE
  2
KICADI
  70
0
  40
0
  41
1
  42
1
  50
15
  71
0
  3
isocp.shx
  0
STYLE
  2
KICADBI
  70
0
  40
0
  41
1
  42
1
  50
15
  71
0
  3
isocp.shx
  0
ENDTAB
  0
TABLE
  2
LAYER
  70
1
  0
LAYER
  2
BLACK
  70
0
  62
7
  6
CONTINUOUS
  0
ENDTAB
  0
ENDSEC
  0
SECTION
  2
ENTITIES
0
LINE
8
BLACK
6
CONTINUOUS
10
74.6845160000000021
20
-132.5960029999999961
11
75.0216399999999908
21
-132.6729489999999885
0
LINE
8
BLACK
6
CONTINUOUS
10
75.0216399999999908
20
-132.6729489999999885
11
75.3480289999999968
21
-132.7871570000000077
0
LINE
8
BLACK
6
CONTINUOUS
10
75.3480289999999968
20
-132.7871570000000077
11
75.6595789999999937
21
-132.9371919999999818
0
LINE
8
BLACK
6
CONTINUOUS
10
75.6595789999999937
20
-132.9371919999999818
11
75.9523709999999994
21
-133.1211649999999906
0
LINE
8
BLACK
6
CONTINUOUS
10
75.9523709999999994
20
-133.1211649999999906
11
76.222723000000002
21
-133.3367639999999881
0
LINE
8
BLACK
6
CONTINUOUS
10
76.222723000000002
20
-133.3367639999999881
11
76.4672359999999998
21
-133.581277
0
LINE
8
BLACK
6
CONTINUOUS
10
76.4672359999999998
20
-133.581277
11
76.6828349999999972
21
-133.8516290000000026
0
LINE
8
BLACK
6
CONTINUOUS
10
76.6828349999999972
20
-133.8516290000000026
11
76.8668079999999918
21
-134.1444209999999941
0
LINE
8
BLACK
6
CONTINUOUS
10
76.8668079999999918
20
-134.1444209999999941
11
77.0168429999999944
21
-134.4559710000000052
0
LINE
8
BLACK
6
CONTINUOUS
10
77.0168429999999944
20
-134.4559710000000052
11
77.1310509999999994
21
-134.7823599999999828
0
LINE
8
BLACK
6
CONTINUOUS
10
77.1310509999999994
20
-134.7823599999999828
11
77.2079969999999918
21
-135.1194839999999999
0
LINE
8
BLACK
6
CONTINUOUS
10
77.2079969999999918
20
-135.1194839999999999
11
77.2467139999999972
21
-135.4631029999999896
0
LINE
8
BLACK
6
CONTINUOUS
10
77.2467139999999972
20
-135.4631029999999896
11
77.2467139999999972
21
-135.8088970000000018
0
LINE
8
BLACK
6
CONTINUOUS
10
77.2467139999999972
20
-135.8088970000000018
11
77.2079969999999918
21
-136.1525159999999914
0
LINE
8
BLACK
6
CONTINUOUS
10
77.2079969999999918
20
-136.1525159999999914
11
77.1310509999999994
21
-136.4896399999999801
0
LINE
8
BLACK
6
CONTINUOUS
10
77.1310509999999994
20
-136.4896399999999801
11
77.0168429999999944
21
-136.8160289999999861
0
LINE
8
BLACK
6
CONTINUOUS
10
77.0168429999999944
20
-136.8160289999999861
11
76.8668079999999918
21
-137.1275789999999972
0
LINE
8
BLACK
6
CONTINUOUS
10
76.8668079999999918
20
-137.1275789999999972
11
76.6828349999999972
21
-137.4203709999999887
0
LINE
8
BLACK
6
CONTINUOUS
10
76.6828349999999972
20
-137.4203709999999887
11
76.4672359999999998
21
-137.6907229999999913
0
LINE
8
BLACK
6
CONTINUOUS
10
76.4672359999999998
20
-137.6907229999999913
11
76.222723000000002
21
-137.9352360000000033
0
LINE
8
BLACK
6
CONTINUOUS
10
76.222723000000002
20
-137.9352360000000033
11
75.9523709999999994
21
-138.1508350000000007
0
LINE
8
BLACK
6
CONTINUOUS
10
75.9523709999999994
20
-138.1508350000000007
11
75.6595789999999937
21
-138.3348079999999811
0
LINE
8
BLACK
6
CONTINUOUS
10
75.6595789999999937
20
-138.3348079999999811
11
75.3480289999999968
21
-138.4848429999999837
0
LINE
8
BLACK
6
CONTINUOUS
10
75.3480289999999968
20
-138.4848429999999837
11
75.0216399999999908
21
-138.5990510000000029
0
LINE
8
BLACK
6
CONTINUOUS
10
75.0216399999999908
20
-138.5990510000000029
11
74.6845160000000021
21
-138.6759969999999953
0
LINE
8
BLACK
6
CONTINUOUS
10
74.6845160000000021
20
-138.6759969999999953
11
74.3408969999999982
21
-138.7147139999999865
0
LINE
8
BLACK
6
CONTINUOUS
10
74.3408969999999982
20
-138.7147139999999865
11
73.9951030000000003
21
-138.7147139999999865
0
LINE
8
BLACK
6
CONTINUOUS
10
73.9951030000000003
20
-138.7147139999999865
11
73.6514839999999964
21
-138.6759969999999953
0
LINE
8
BLACK
6
CONTINUOUS
10
73.6514839999999964
20
-138.6759969999999953
11
73.3143599999999935
21
-138.5990510000000029
0
LINE
8
BLACK
6
CONTINUOUS
10
73.3143599999999935
20
-138.5990510000000029
11
72.9879710000000017
21
-138.4848429999999837
0
LINE
8
BLACK
6
CONTINUOUS
10
72.9879710000000017
20
-138.4848429999999837
11
72.6764209999999906
21
-138.3348079999999811
0
LINE
8
BLACK
6
CONTINUOUS
10
72.6764209999999906
20
-138.3348079999999811
11
72.3836289999999991
21
-138.1508350000000007
0
LINE
8
BLACK
6
CONTINUOUS
10
72.3836289999999991
20
-138.1508350000000007
11
72.1132769999999965
21
-137.9352360000000033
0
LINE
8
BLACK
6
CONTINUOUS
10
72.1132769999999965
20
-137.9352360000000033
11
71.8687639999999988
21
-137.6907229999999913
0
LINE
8
BLACK
6
CONTINUOUS
10
71.8687639999999988
20
-137.6907229999999913
11
71.6531650000000013
21
-137.4203709999999887
0
LINE
8
BLACK
6
CONTINUOUS
10
71.6531650000000013
20
-137.4203709999999887
11
71.4691919999999925
21
-137.1275789999999972
0
LINE
8
BLACK
6
CONTINUOUS
10
71.4691919999999925
20
-137.1275789999999972
11
71.3191569999999899
21
-136.8160289999999861
0
LINE
8
BLACK
6
CONTINUOUS
10
71.3191569999999899
20
-136.8160289999999861
11
71.2049489999999992
21
-136.4896399999999801
0
LINE
8
BLACK
6
CONTINUOUS
10
71.2049489999999992
20
-136.4896399999999801
11
71.1280029999999925
21
-136.1525159999999914
0
LINE
8
BLACK
6
CONTINUOUS
10
71.1280029999999925
20
-136.1525159999999914
11
71.0892860000000013
21
-135.8088970000000018
0
LINE
8
BLACK
6
CONTINUOUS
10
71.0892860000000013
20
-135.8088970000000018
11
71.0892860000000013
21
-135.4656389999999817
0
LINE
8
BLACK
6
CONTINUOUS
10
71.0892860000000013
20
-135.4656389999999817
11
71.0892860000000013
21
-135.4631029999999896
0
LINE
8
BLACK
6
CONTINUOUS
10
71.0892860000000013
20
-135.4631029999999896
11
71.1280029999999925
21
-135.1194839999999999
0
LINE
8
BLACK
6
CONTINUOUS
10
71.1280029999999925
20
-135.1194839999999999
11
71.2049489999999992
21
-134.7823599999999828
0
LINE
8
BLACK
6
CONTINUOUS
10
71.2049489999999992
20
-134.7823599999999828
11
71.3191569999999899
21
-134.4559710000000052
0
LINE
8
BLACK
6
CONTINUOUS
10
71.3191569999999899
20
-134.4559710000000052
11
71.4691919999999925
21
-134.1444209999999941
0
LINE
8
BLACK
6
CONTINUOUS
10
71.4691919999999925
20
-134.1444209999999941
11
71.6531650000000013
21
-133.8516290000000026
0
LINE
8
BLACK
6
CONTINUOUS
10
71.6531650000000013
20
-133.8516290000000026
11
71.8687639999999988
21
-133.581277
0
LINE
8
BLACK
6
CONTINUOUS
10
71.8687639999999988
20
-133.581277
11
72.1132769999999965
21
-133.3367639999999881
0
LINE
8
BLACK
6
CONTINUOUS
10
72.1132769999999965
20
-133.3367639999999881
11
72.3836289999999991
21
-133.1211649999999906
0
LINE
8
BLACK
6
CONTINUOUS
10
72.3836289999999991
20
-133.1211649999999906
11
72.6764209999999906
21
-132.9371919999999818
0
LINE
8
BLACK
6
CONTINUOUS
10
72.6764209999999906
20
-132.9371919999999818
11
72.9879710000000017
21
-132.7871570000000077
0
LINE
8
BLACK
6
CONTINUOUS
10
72.9879710000000017
20
-132.7871570000000077
11
73.3143599999999935
21
-132.6729489999999885
0
LINE
8
BLACK
6
CONTINUOUS
10
73.3143599999999935
20
-132.6729489999999885
11
73.6514839999999964
21
-132.5960029999999961
0
LINE
8
BLACK
6
CONTINUOUS
10
73.6514839999999964
20
-132.5960029999999961
11
73.9951030000000003
21
-132.5572860000000048
0
LINE
8
BLACK
6
CONTINUOUS
10
73.9951030000000003
20
-132.5572860000000048
11
74.3408969999999982
21
-132.5572860000000048
0
LINE
8
BLACK
6
CONTINUOUS
10
74.3408969999999982
20
-132.5572860000000048
11
74.6845160000000021
21
-132.5960029999999961
0
LINE
8
BLACK
6
CONTINUOUS
10
71.1344349999999963
20
-135.8063609999999812
11
71.1725840000000005
21
-136.1449419999999861
0
LINE
8
BLACK
6
CONTINUOUS
10
71.1725840000000005
20
-136.1449419999999861
11
71.2484019999999987
21
-136.4771219999999801
0
LINE
8
BLACK
6
CONTINUOUS
10
71.2484019999999987
20
-136.4771219999999801
11
71.3609349999999978
21
-136.7987239999999929
0
LINE
8
BLACK
6
CONTINUOUS
10
71.3609349999999978
20
-136.7987239999999929
11
71.5087690000000009
21
-137.1057050000000004
0
LINE
8
BLACK
6
CONTINUOUS
10
71.5087690000000009
20
-137.1057050000000004
11
71.6900449999999978
21
-137.3942030000000045
0
LINE
8
BLACK
6
CONTINUOUS
10
71.6900449999999978
20
-137.3942030000000045
11
71.902481999999992
21
-137.6605909999999824
0
LINE
8
BLACK
6
CONTINUOUS
10
71.902481999999992
20
-137.6605909999999824
11
72.1434089999999912
21
-137.9015179999999816
0
LINE
8
BLACK
6
CONTINUOUS
10
72.1434089999999912
20
-137.9015179999999816
11
72.4097969999999975
21
-138.1139550000000042
0
LINE
8
BLACK
6
CONTINUOUS
10
72.4097969999999975
20
-138.1139550000000042
11
72.6982950000000017
21
-138.2952310000000011
0
LINE
8
BLACK
6
CONTINUOUS
10
72.6982950000000017
20
-138.2952310000000011
11
73.005275999999995
21
-138.4430649999999901
0
LINE
8
BLACK
6
CONTINUOUS
10
73.005275999999995
20
-138.4430649999999901
11
73.3268779999999936
21
-138.5555980000000034
0
LINE
8
BLACK
6
CONTINUOUS
10
73.3268779999999936
20
-138.5555980000000034
11
73.6590580000000017
21
-138.6314160000000015
0
LINE
8
BLACK
6
CONTINUOUS
10
73.6590580000000017
20
-138.6314160000000015
11
73.9976389999999924
21
-138.6695650000000057
0
LINE
8
BLACK
6
CONTINUOUS
10
73.9976389999999924
20
-138.6695650000000057
11
74.3383609999999919
21
-138.6695650000000057
0
LINE
8
BLACK
6
CONTINUOUS
10
74.3383609999999919
20
-138.6695650000000057
11
74.6769419999999968
21
-138.6314160000000015
0
LINE
8
BLACK
6
CONTINUOUS
10
74.6769419999999968
20
-138.6314160000000015
11
75.0091219999999907
21
-138.5555980000000034
0
LINE
8
BLACK
6
CONTINUOUS
10
75.0091219999999907
20
-138.5555980000000034
11
75.3307240000000036
21
-138.4430649999999901
0
LINE
8
BLACK
6
CONTINUOUS
10
75.3307240000000036
20
-138.4430649999999901
11
75.6377049999999969
21
-138.2952310000000011
0
LINE
8
BLACK
6
CONTINUOUS
10
75.6377049999999969
20
-138.2952310000000011
11
75.926203000000001
21
-138.1139550000000042
0
LINE
8
BLACK
6
CONTINUOUS
10
75.926203000000001
20
-138.1139550000000042
11
76.1925909999999931
21
-137.9015179999999816
0
LINE
8
BLACK
6
CONTINUOUS
10
76.1925909999999931
20
-137.9015179999999816
11
76.4335179999999923
21
-137.6605909999999824
0
LINE
8
BLACK
6
CONTINUOUS
10
76.4335179999999923
20
-137.6605909999999824
11
76.6459550000000007
21
-137.3942030000000045
0
LINE
8
BLACK
6
CONTINUOUS
10
76.6459550000000007
20
-137.3942030000000045
11
76.8272309999999976
21
-137.1057050000000004
0
LINE
8
BLACK
6
CONTINUOUS
10
76.8272309999999976
20
-137.1057050000000004
11
76.9750650000000007
21
-136.7987239999999929
0
LINE
8
BLACK
6
CONTINUOUS
10
76.9750650000000007
20
-136.7987239999999929
11
77.0875979999999998
21
-136.4771219999999801
0
LINE
8
BLACK
6
CONTINUOUS
10
77.0875979999999998
20
-136.4771219999999801
11
77.163415999999998
21
-136.1449419999999861
0
LINE
8
BLACK
6
CONTINUOUS
10
77.163415999999998
20
-136.1449419999999861
11
77.2015650000000022
21
-135.8063609999999812
0
LINE
8
BLACK
6
CONTINUOUS
10
77.2015650000000022
20
-135.8063609999999812
11
77.2015650000000022
21
-135.4656389999999817
0
LINE
8
BLACK
6
CONTINUOUS
10
77.2015650000000022
20
-135.4656389999999817
11
77.163415999999998
21
-135.1270580000000052
0
LINE
8
BLACK
6
CONTINUOUS
10
77.163415999999998
20
-135.1270580000000052
11
77.0875979999999998
21
-134.7948779999999829
0
LINE
8
BLACK
6
CONTINUOUS
10
77.0875979999999998
20
-134.7948779999999829
11
76.9750650000000007
21
-134.4732759999999985
0
LINE
8
BLACK
6
CONTINUOUS
10
76.9750650000000007
20
-134.4732759999999985
11
76.8272309999999976
21
-134.166294999999991
0
LINE
8
BLACK
6
CONTINUOUS
10
76.8272309999999976
20
-134.166294999999991
11
76.6459550000000007
21
-133.8777969999999868
0
LINE
8
BLACK
6
CONTINUOUS
10
76.6459550000000007
20
-133.8777969999999868
11
76.4335179999999923
21
-133.6114089999999806
0
LINE
8
BLACK
6
CONTINUOUS
10
76.4335179999999923
20
-133.6114089999999806
11
76.1925909999999931
21
-133.3704819999999813
0
LINE
8
BLACK
6
CONTINUOUS
10
76.1925909999999931
20
-133.3704819999999813
11
75.926203000000001
21
-133.1580449999999871
0
LINE
8
BLACK
6
CONTINUOUS
10
75.926203000000001
20
-133.1580449999999871
11
75.6377049999999969
21
-132.9767689999999902
0
LINE
8
BLACK
6
CONTINUOUS
10
75.6377049999999969
20
-132.9767689999999902
11
75.3307240000000036
21
-132.8289350000000013
0
LINE
8
BLACK
6
CONTINUOUS
10
75.3307240000000036
20
-132.8289350000000013
11
75.0091219999999907
21
-132.716401999999988
0
LINE
8
BLACK
6
CONTINUOUS
10
75.0091219999999907
20
-132.716401999999988
11
74.6769419999999968
21
-132.6405839999999898
0
LINE
8
BLACK
6
CONTINUOUS
10
74.6769419999999968
20
-132.6405839999999898
11
74.3383609999999919
21
-132.6024349999999856
0
LINE
8
BLACK
6
CONTINUOUS
10
74.3383609999999919
20
-132.6024349999999856
11
73.9976389999999924
21
-132.6024349999999856
0
LINE
8
BLACK
6
CONTINUOUS
10
73.9976389999999924
20
-132.6024349999999856
11
73.6590580000000017
21
-132.6405839999999898
0
LINE
8
BLACK
6
CONTINUOUS
10
73.6590580000000017
20
-132.6405839999999898
11
73.3268779999999936
21
-132.716401999999988
0
LINE
8
BLACK
6
CONTINUOUS
10
73.3268779999999936
20
-132.716401999999988
11
73.005275999999995
21
-132.8289350000000013
0
LINE
8
BLACK
6
CONTINUOUS
10
73.005275999999995
20
-132.8289350000000013
11
72.6982950000000017
21
-132.9767689999999902
0
LINE
8
BLACK
6
CONTINUOUS
10
72.6982950000000017
20
-132.9767689999999902
11
72.4097969999999975
21
-133.1580449999999871
0
LINE
8
BLACK
6
CONTINUOUS
10
72.4097969999999975
20
-133.1580449999999871
11
72.1434089999999912
21
-133.3704819999999813
0
LINE
8
BLACK
6
CONTINUOUS
10
72.1434089999999912
20
-133.3704819999999813
11
71.902481999999992
21
-133.6114089999999806
0
LINE
8
BLACK
6
CONTINUOUS
10
71.902481999999992
20
-133.6114089999999806
11
71.6900449999999978
21
-133.8777969999999868
0
LINE
8
BLACK
6
CONTINUOUS
10
71.6900449999999978
20
-133.8777969999999868
11
71.5087690000000009
21
-134.166294999999991
0
LINE
8
BLACK
6
CONTINUOUS
10
71.5087690000000009
20
-134.166294999999991
11
71.3609349999999978
21
-134.4732759999999985
0
LINE
8
BLACK
6
CONTINUOUS
10
71.3609349999999978
20
-134.4732759999999985
11
71.2484019999999987
21
-134.7948779999999829
0
LINE
8
BLACK
6
CONTINUOUS
10
71.2484019999999987
20
-134.7948779999999829
11
71.1725840000000005
21
-135.1270580000000052
0
LINE
8
BLACK
6
CONTINUOUS
10
71.1725840000000005
20
-135.1270580000000052
11
71.1344349999999963
21
-135.4656389999999817
0
LINE
8
BLACK
6
CONTINUOUS
10
71.1344349999999963
20
-135.4656389999999817
11
71.1344349999999963
21
-135.8063609999999812
0
LINE
8
BLACK
6
CONTINUOUS
10
116.0759509999999892
20
-132.5960029999999961
11
116.4130749999999921
21
-132.6729489999999885
0
LINE
8
BLACK
6
CONTINUOUS
10
116.4130749999999921
20
-132.6729489999999885
11
116.7394639999999981
21
-132.7871570000000077
0
LINE
8
BLACK
6
CONTINUOUS
10
116.7394639999999981
20
-132.7871570000000077
11
117.051013999999995
21
-132.9371919999999818
0
LINE
8
BLACK
6
CONTINUOUS
10
117.051013999999995
20
-132.9371919999999818
11
117.3438060000000007
21
-133.1211649999999906
0
LINE
8
BLACK
6
CONTINUOUS
10
117.3438060000000007
20
-133.1211649999999906
11
117.6141579999999891
21
-133.3367639999999881
0
LINE
8
BLACK
6
CONTINUOUS
10
117.6141579999999891
20
-133.3367639999999881
11
117.8586710000000011
21
-133.581277
0
LINE
8
BLACK
6
CONTINUOUS
10
117.8586710000000011
20
-133.581277
11
118.0742699999999985
21
-133.8516290000000026
0
LINE
8
BLACK
6
CONTINUOUS
10
118.0742699999999985
20
-133.8516290000000026
11
118.2582429999999931
21
-134.1444209999999941
0
LINE
8
BLACK
6
CONTINUOUS
10
118.2582429999999931
20
-134.1444209999999941
11
118.4082779999999957
21
-134.4559710000000052
0
LINE
8
BLACK
6
CONTINUOUS
10
118.4082779999999957
20
-134.4559710000000052
11
118.5224860000000007
21
-134.7823599999999828
0
LINE
8
BLACK
6
CONTINUOUS
10
118.5224860000000007
20
-134.7823599999999828
11
118.5994319999999931
21
-135.1194839999999999
0
LINE
8
BLACK
6
CONTINUOUS
10
118.5994319999999931
20
-135.1194839999999999
11
118.6381489999999985
21
-135.4631029999999896
0
LINE
8
BLACK
6
CONTINUOUS
10
118.6381489999999985
20
-135.4631029999999896
11
118.6381489999999985
21
-135.8088970000000018
0
LINE
8
BLACK
6
CONTINUOUS
10
118.6381489999999985
20
-135.8088970000000018
11
118.5994319999999931
21
-136.1525159999999914
0
LINE
8
BLACK
6
CONTINUOUS
10
118.5994319999999931
20
-136.1525159999999914
11
118.5224860000000007
21
-136.4896399999999801
0
LINE
8
BLACK
6
CONTINUOUS
10
118.5224860000000007
20
-136.4896399999999801
11
118.4082779999999957
21
-136.8160289999999861
0
LINE
8
BLACK
6
CONTINUOUS
10
118.4082779999999957
20
-136.8160289999999861
11
118.2582429999999931
21
-137.1275789999999972
0
LINE
8
BLACK
6
CONTINUOUS
10
118.2582429999999931
20
-137.1275789999999972
11
118.0742699999999985
21
-137.4203709999999887
0
LINE
8
BLACK
6
CONTINUOUS
10
118.0742699999999985
20
-137.4203709999999887
11
117.8586710000000011
21
-137.6907229999999913
0
LINE
8
BLACK
6
CONTINUOUS
10
117.8586710000000011
20
-137.6907229999999913
11
117.6141579999999891
21
-137.9352360000000033
0
LINE
8
BLACK
6
CONTINUOUS
10
117.6141579999999891
20
-137.9352360000000033
11
117.3438060000000007
21
-138.1508350000000007
0
LINE
8
BLACK
6
CONTINUOUS
10
117.3438060000000007
20
-138.1508350000000007
11
117.051013999999995
21
-138.3348079999999811
0
LINE
8
BLACK
6
CONTINUOUS
10
117.051013999999995
20
-138.3348079999999811
11
116.7394639999999981
21
-138.4848429999999837
0
LINE
8
BLACK
6
CONTINUOUS
10
116.7394639999999981
20
-138.4848429999999837
11
116.4130749999999921
21
-138.5990510000000029
0
LINE
8
BLACK
6
CONTINUOUS
10
116.4130749999999921
20
-138.5990510000000029
11
116.0759509999999892
21
-138.6759969999999953
0
LINE
8
BLACK
6
CONTINUOUS
10
116.0759509999999892
20
-138.6759969999999953
11
115.7323319999999995
21
-138.7147139999999865
0
LINE
8
BLACK
6
CONTINUOUS
10
115.7323319999999995
20
-138.7147139999999865
11
115.3865380000000016
21
-138.7147139999999865
0
LINE
8
BLACK
6
CONTINUOUS
10
115.3865380000000016
20
-138.7147139999999865
11
115.0429189999999977
21
-138.6759969999999953
0
LINE
8
BLACK
6
CONTINUOUS
10
115.0429189999999977
20
-138.6759969999999953
11
114.7057949999999948
21
-138.5990510000000029
0
LINE
8
BLACK
6
CONTINUOUS
10
114.7057949999999948
20
-138.5990510000000029
11
114.3794059999999888
21
-138.4848429999999837
0
LINE
8
BLACK
6
CONTINUOUS
10
114.3794059999999888
20
-138.4848429999999837
11
114.0678559999999919
21
-138.3348079999999811
0
LINE
8
BLACK
6
CONTINUOUS
10
114.0678559999999919
20
-138.3348079999999811
11
113.7750640000000004
21
-138.1508350000000007
0
LINE
8
BLACK
6
CONTINUOUS
10
113.7750640000000004
20
-138.1508350000000007
11
113.5047119999999978
21
-137.9352360000000033
0
LINE
8
BLACK
6
CONTINUOUS
10
113.5047119999999978
20
-137.9352360000000033
11
113.2601990000000001
21
-137.6907229999999913
0
LINE
8
BLACK
6
CONTINUOUS
10
113.2601990000000001
20
-137.6907229999999913
11
113.0445999999999884
21
-137.4203709999999887
0
LINE
8
BLACK
6
CONTINUOUS
10
113.0445999999999884
20
-137.4203709999999887
11
112.8606269999999938
21
-137.1275789999999972
0
LINE
8
BLACK
6
CONTINUOUS
10
112.8606269999999938
20
-137.1275789999999972
11
112.7105919999999912
21
-136.8160289999999861
0
LINE
8
BLACK
6
CONTINUOUS
10
112.7105919999999912
20
-136.8160289999999861
11
112.5963840000000005
21
-136.4896399999999801
0
LINE
8
BLACK
6
CONTINUOUS
10
112.5963840000000005
20
-136.4896399999999801
11
112.5194379999999938
21
-136.1525159999999914
0
LINE
8
BLACK
6
CONTINUOUS
10
112.5194379999999938
20
-136.1525159999999914
11
112.4807209999999884
21
-135.8088970000000018
0
LINE
8
BLACK
6
CONTINUOUS
10
112.4807209999999884
20
-135.8088970000000018
11
112.4807209999999884
21
-135.4656389999999817
0
LINE
8
BLACK
6
CONTINUOUS
10
112.4807209999999884
20
-135.4656389999999817
11
112.4807209999999884
21
-135.4631029999999896
0
LINE
8
BLACK
6
CONTINUOUS
10
112.4807209999999884
20
-135.4631029999999896
11
112.5194379999999938
21
-135.1194839999999999
0
LINE
8
BLACK
6
CONTINUOUS
10
112.5194379999999938
20
-135.1194839999999999
11
112.5963840000000005
21
-134.7823599999999828
0
LINE
8
BLACK
6
CONTINUOUS
10
112.5963840000000005
20
-134.7823599999999828
11
112.7105919999999912
21
-134.4559710000000052
0
LINE
8
BLACK
6
CONTINUOUS
10
112.7105919999999912
20
-134.4559710000000052
11
112.8606269999999938
21
-134.1444209999999941
0
LINE
8
BLACK
6
CONTINUOUS
10
112.8606269999999938
20
-134.1444209999999941
11
113.0445999999999884
21
-133.8516290000000026
0
LINE
8
BLACK
6
CONTINUOUS
10
113.0445999999999884
20
-133.8516290000000026
11
113.2601990000000001
21
-133.581277
0
LINE
8
BLACK
6
CONTINUOUS
10
113.2601990000000001
20
-133.581277
11
113.5047119999999978
21
-133.3367639999999881
0
LINE
8
BLACK
6
CONTINUOUS
10
113.5047119999999978
20
-133.3367639999999881
11
113.7750640000000004
21
-133.1211649999999906
0
LINE
8
BLACK
6
CONTINUOUS
10
113.7750640000000004
20
-133.1211649999999906
11
114.0678559999999919
21
-132.9371919999999818
0
LINE
8
BLACK
6
CONTINUOUS
10
114.0678559999999919
20
-132.9371919999999818
11
114.3794059999999888
21
-132.7871570000000077
0
LINE
8
BLACK
6
CONTINUOUS
10
114.3794059999999888
20
-132.7871570000000077
11
114.7057949999999948
21
-132.6729489999999885
0
LINE
8
BLACK
6
CONTINUOUS
10
114.7057949999999948
20
-132.6729489999999885
11
115.0429189999999977
21
-132.5960029999999961
0
LINE
8
BLACK
6
CONTINUOUS
10
115.0429189999999977
20
-132.5960029999999961
11
115.3865380000000016
21
-132.5572860000000048
0
LINE
8
BLACK
6
CONTINUOUS
10
115.3865380000000016
20
-132.5572860000000048
11
115.7323319999999995
21
-132.5572860000000048
0
LINE
8
BLACK
6
CONTINUOUS
10
115.7323319999999995
20
-132.5572860000000048
11
116.0759509999999892
21
-132.5960029999999961
0
LINE
8
BLACK
6
CONTINUOUS
10
112.5258699999999976
20
-135.8063609999999812
11
112.5640190000000018
21
-136.1449419999999861
0
LINE
8
BLACK
6
CONTINUOUS
10
112.5640190000000018
20
-136.1449419999999861
11
112.639837
21
-136.4771219999999801
0
LINE
8
BLACK
6
CONTINUOUS
10
112.639837
20
-136.4771219999999801
11
112.7523699999999991
21
-136.7987239999999929
0
LINE
8
BLACK
6
CONTINUOUS
10
112.7523699999999991
20
-136.7987239999999929
11
112.900203999999988
21
-137.1057050000000004
0
LINE
8
BLACK
6
CONTINUOUS
10
112.900203999999988
20
-137.1057050000000004
11
113.0814799999999991
21
-137.3942030000000045
0
LINE
8
BLACK
6
CONTINUOUS
10
113.0814799999999991
20
-137.3942030000000045
11
113.2939169999999933
21
-137.6605909999999824
0
LINE
8
BLACK
6
CONTINUOUS
10
113.2939169999999933
20
-137.6605909999999824
11
113.5348439999999925
21
-137.9015179999999816
0
LINE
8
BLACK
6
CONTINUOUS
10
113.5348439999999925
20
-137.9015179999999816
11
113.8012319999999988
21
-138.1139550000000042
0
LINE
8
BLACK
6
CONTINUOUS
10
113.8012319999999988
20
-138.1139550000000042
11
114.0897299999999888
21
-138.2952310000000011
0
LINE
8
BLACK
6
CONTINUOUS
10
114.0897299999999888
20
-138.2952310000000011
11
114.3967109999999963
21
-138.4430649999999901
0
LINE
8
BLACK
6
CONTINUOUS
10
114.3967109999999963
20
-138.4430649999999901
11
114.7183129999999949
21
-138.5555980000000034
0
LINE
8
BLACK
6
CONTINUOUS
10
114.7183129999999949
20
-138.5555980000000034
11
115.0504929999999888
21
-138.6314160000000015
0
LINE
8
BLACK
6
CONTINUOUS
10
115.0504929999999888
20
-138.6314160000000015
11
115.3890739999999937
21
-138.6695650000000057
0
LINE
8
BLACK
6
CONTINUOUS
10
115.3890739999999937
20
-138.6695650000000057
11
115.7297959999999932
21
-138.6695650000000057
0
LINE
8
BLACK
6
CONTINUOUS
10
115.7297959999999932
20
-138.6695650000000057
11
116.0683769999999981
21
-138.6314160000000015
0
LINE
8
BLACK
6
CONTINUOUS
10
116.0683769999999981
20
-138.6314160000000015
11
116.4005569999999921
21
-138.5555980000000034
0
LINE
8
BLACK
6
CONTINUOUS
10
116.4005569999999921
20
-138.5555980000000034
11
116.7221589999999907
21
-138.4430649999999901
0
LINE
8
BLACK
6
CONTINUOUS
10
116.7221589999999907
20
-138.4430649999999901
11
117.0291399999999982
21
-138.2952310000000011
0
LINE
8
BLACK
6
CONTINUOUS
10
117.0291399999999982
20
-138.2952310000000011
11
117.3176379999999881
21
-138.1139550000000042
0
LINE
8
BLACK
6
CONTINUOUS
10
117.3176379999999881
20
-138.1139550000000042
11
117.5840259999999944
21
-137.9015179999999816
0
LINE
8
BLACK
6
CONTINUOUS
10
117.5840259999999944
20
-137.9015179999999816
11
117.8249529999999936
21
-137.6605909999999824
0
LINE
8
BLACK
6
CONTINUOUS
10
117.8249529999999936
20
-137.6605909999999824
11
118.0373899999999878
21
-137.3942030000000045
0
LINE
8
BLACK
6
CONTINUOUS
10
118.0373899999999878
20
-137.3942030000000045
11
118.2186659999999989
21
-137.1057050000000004
0
LINE
8
BLACK
6
CONTINUOUS
10
118.2186659999999989
20
-137.1057050000000004
11
118.3664999999999878
21
-136.7987239999999929
0
LINE
8
BLACK
6
CONTINUOUS
10
118.3664999999999878
20
-136.7987239999999929
11
118.4790330000000012
21
-136.4771219999999801
0
LINE
8
BLACK
6
CONTINUOUS
10
118.4790330000000012
20
-136.4771219999999801
11
118.5548509999999993
21
-136.1449419999999861
0
LINE
8
BLACK
6
CONTINUOUS
10
118.5548509999999993
20
-136.1449419999999861
11
118.5929999999999893
21
-135.8063609999999812
0
LINE
8
BLACK
6
CONTINUOUS
10
118.5929999999999893
20
-135.8063609999999812
11
118.5929999999999893
21
-135.4656389999999817
0
LINE
8
BLACK
6
CONTINUOUS
10
118.5929999999999893
20
-135.4656389999999817
11
118.5548509999999993
21
-135.1270580000000052
0
LINE
8
BLACK
6
CONTINUOUS
10
118.5548509999999993
20
-135.1270580000000052
11
118.4790330000000012
21
-134.7948779999999829
0
LINE
8
BLACK
6
CONTINUOUS
10
118.4790330000000012
20
-134.7948779999999829
11
118.3664999999999878
21
-134.4732759999999985
0
LINE
8
BLACK
6
CONTINUOUS
10
118.3664999999999878
20
-134.4732759999999985
11
118.2186659999999989
21
-134.166294999999991
0
LINE
8
BLACK
6
CONTINUOUS
10
118.2186659999999989
20
-134.166294999999991
11
118.0373899999999878
21
-133.8777969999999868
0
LINE
8
BLACK
6
CONTINUOUS
10
118.0373899999999878
20
-133.8777969999999868
11
117.8249529999999936
21
-133.6114089999999806
0
LINE
8
BLACK
6
CONTINUOUS
10
117.8249529999999936
20
-133.6114089999999806
11
117.5840259999999944
21
-133.3704819999999813
0
LINE
8
BLACK
6
CONTINUOUS
10
117.5840259999999944
20
-133.3704819999999813
11
117.3176379999999881
21
-133.1580449999999871
0
LINE
8
BLACK
6
CONTINUOUS
10
117.3176379999999881
20
-133.1580449999999871
11
117.0291399999999982
21
-132.9767689999999902
0
LINE
8
BLACK
6
CONTINUOUS
10
117.0291399999999982
20
-132.9767689999999902
11
116.7221589999999907
21
-132.8289350000000013
0
LINE
8
BLACK
6
CONTINUOUS
10
116.7221589999999907
20
-132.8289350000000013
11
116.4005569999999921
21
-132.716401999999988
0
LINE
8
BLACK
6
CONTINUOUS
10
116.4005569999999921
20
-132.716401999999988
11
116.0683769999999981
21
-132.6405839999999898
0
LINE
8
BLACK
6
CONTINUOUS
10
116.0683769999999981
20
-132.6405839999999898
11
115.7297959999999932
21
-132.6024349999999856
0
LINE
8
BLACK
6
CONTINUOUS
10
115.7297959999999932
20
-132.6024349999999856
11
115.3890739999999937
21
-132.6024349999999856
0
LINE
8
BLACK
6
CONTINUOUS
10
115.3890739999999937
20
-132.6024349999999856
11
115.0504929999999888
21
-132.6405839999999898
0
LINE
8
BLACK
6
CONTINUOUS
10
115.0504929999999888
20
-132.6405839999999898
11
114.7183129999999949
21
-132.716401999999988
0
LINE
8
BLACK
6
CONTINUOUS
10
114.7183129999999949
20
-132.716401999999988
11
114.3967109999999963
21
-132.8289350000000013
0
LINE
8
BLACK
6
CONTINUOUS
10
114.3967109999999963
20
-132.8289350000000013
11
114.0897299999999888
21
-132.9767689999999902
0
LINE
8
BLACK
6
CONTINUOUS
10
114.0897299999999888
20
-132.9767689999999902
11
113.8012319999999988
21
-133.1580449999999871
0
LINE
8
BLACK
6
CONTINUOUS
10
113.8012319999999988
20
-133.1580449999999871
11
113.5348439999999925
21
-133.3704819999999813
0
LINE
8
BLACK
6
CONTINUOUS
10
113.5348439999999925
20
-133.3704819999999813
11
113.2939169999999933
21
-133.6114089999999806
0
LINE
8
BLACK
6
CONTINUOUS
10
113.2939169999999933
20
-133.6114089999999806
11
113.0814799999999991
21
-133.8777969999999868
0
LINE
8
BLACK
6
CONTINUOUS
10
113.0814799999999991
20
-133.8777969999999868
11
112.900203999999988
21
-134.166294999999991
0
LINE
8
BLACK
6
CONTINUOUS
10
112.900203999999988
20
-134.166294999999991
11
112.7523699999999991
21
-134.4732759999999985
0
LINE
8
BLACK
6
CONTINUOUS
10
112.7523699999999991
20
-134.4732759999999985
11
112.639837
21
-134.7948779999999829
0
LINE
8
BLACK
6
CONTINUOUS
10
112.639837
20
-134.7948779999999829
11
112.5640190000000018
21
-135.1270580000000052
0
LINE
8
BLACK
6
CONTINUOUS
10
112.5640190000000018
20
-135.1270580000000052
11
112.5258699999999976
21
-135.4656389999999817
0
LINE
8
BLACK
6
CONTINUOUS
10
112.5258699999999976
20
-135.4656389999999817
11
112.5258699999999976
21
-135.8063609999999812
0
LINE
8
BLACK
6
CONTINUOUS
10
226.3119509999999934
20
-132.5960029999999961
11
226.6490749999999821
21
-132.6729489999999885
0
LINE
8
BLACK
6
CONTINUOUS
10
226.6490749999999821
20
-132.6729489999999885
11
226.9754639999999881
21
-132.7871570000000077
0
LINE
8
BLACK
6
CONTINUOUS
10
226.9754639999999881
20
-132.7871570000000077
11
227.2870139999999992
21
-132.9371919999999818
0
LINE
8
BLACK
6
CONTINUOUS
10
227.2870139999999992
20
-132.9371919999999818
11
227.5798059999999907
21
-133.1211649999999906
0
LINE
8
BLACK
6
CONTINUOUS
10
227.5798059999999907
20
-133.1211649999999906
11
227.8501579999999933
21
-133.3367639999999881
0
LINE
8
BLACK
6
CONTINUOUS
10
227.8501579999999933
20
-133.3367639999999881
11
228.0946709999999769
21
-133.581277
0
LINE
8
BLACK
6
CONTINUOUS
10
228.0946709999999769
20
-133.581277
11
228.3102700000000027
21
-133.8516290000000026
0
LINE
8
BLACK
6
CONTINUOUS
10
228.3102700000000027
20
-133.8516290000000026
11
228.4942429999999831
21
-134.1444209999999941
0
LINE
8
BLACK
6
CONTINUOUS
10
228.4942429999999831
20
-134.1444209999999941
11
228.6442779999999857
21
-134.4559710000000052
0
LINE
8
BLACK
6
CONTINUOUS
10
228.6442779999999857
20
-134.4559710000000052
11
228.7584859999999765
21
-134.7823599999999828
0
LINE
8
BLACK
6
CONTINUOUS
10
228.7584859999999765
20
-134.7823599999999828
11
228.8354319999999973
21
-135.1194839999999999
0
LINE
8
BLACK
6
CONTINUOUS
10
228.8354319999999973
20
-135.1194839999999999
11
228.8741489999999885
21
-135.4631029999999896
0
LINE
8
BLACK
6
CONTINUOUS
10
228.8741489999999885
20
-135.4631029999999896
11
228.8741489999999885
21
-135.8088970000000018
0
LINE
8
BLACK
6
CONTINUOUS
10
228.8741489999999885
20
-135.8088970000000018
11
228.8354319999999973
21
-136.1525159999999914
0
LINE
8
BLACK
6
CONTINUOUS
10
228.8354319999999973
20
-136.1525159999999914
11
228.7584859999999765
21
-136.4896399999999801
0
LINE
8
BLACK
6
CONTINUOUS
10
228.7584859999999765
20
-136.4896399999999801
11
228.6442779999999857
21
-136.8160289999999861
0
LINE
8
BLACK
6
CONTINUOUS
10
228.6442779999999857
20
-136.8160289999999861
11
228.4942429999999831
21
-137.1275789999999972
0
LINE
8
BLACK
6
CONTINUOUS
10
228.4942429999999831
20
-137.1275789999999972
11
228.3102700000000027
21
-137.4203709999999887
0
LINE
8
BLACK
6
CONTINUOUS
10
228.3102700000000027
20
-137.4203709999999887
11
228.0946709999999769
21
-137.6907229999999913
0
LINE
8
BLACK
6
CONTINUOUS
10
228.0946709999999769
20
-137.6907229999999913
11
227.8501579999999933
21
-137.9352360000000033
0
LINE
8
BLACK
6
CONTINUOUS
10
227.8501579999999933
20
-137.9352360000000033
11
227.5798059999999907
21
-138.1508350000000007
0
LINE
8
BLACK
6
CONTINUOUS
10
227.5798059999999907
20
-138.1508350000000007
11
227.2870139999999992
21
-138.3348079999999811
0
LINE
8
BLACK
6
CONTINUOUS
10
227.2870139999999992
20
-138.3348079999999811
11
226.9754639999999881
21
-138.4848429999999837
0
LINE
8
BLACK
6
CONTINUOUS
10
226.9754639999999881
20
-138.4848429999999837
11
226.6490749999999821
21
-138.5990510000000029
0
LINE
8
BLACK
6
CONTINUOUS
10
226.6490749999999821
20
-138.5990510000000029
11
226.3119509999999934
21
-138.6759969999999953
0
LINE
8
BLACK
6
CONTINUOUS
10
226.3119509999999934
20
-138.6759969999999953
11
225.9683320000000037
21
-138.7147139999999865
0
LINE
8
BLACK
6
CONTINUOUS
10
225.9683320000000037
20
-138.7147139999999865
11
225.6225379999999916
21
-138.7147139999999865
0
LINE
8
BLACK
6
CONTINUOUS
10
225.6225379999999916
20
-138.7147139999999865
11
225.2789190000000019
21
-138.6759969999999953
0
LINE
8
BLACK
6
CONTINUOUS
10
225.2789190000000019
20
-138.6759969999999953
11
224.9417949999999848
21
-138.5990510000000029
0
LINE
8
BLACK
6
CONTINUOUS
10
224.9417949999999848
20
-138.5990510000000029
11
224.6154059999999788
21
-138.4848429999999837
0
LINE
8
BLACK
6
CONTINUOUS
10
224.6154059999999788
20
-138.4848429999999837
11
224.3038559999999961
21
-138.3348079999999811
0
LINE
8
BLACK
6
CONTINUOUS
10
224.3038559999999961
20
-138.3348079999999811
11
224.0110639999999762
21
-138.1508350000000007
0
LINE
8
BLACK
6
CONTINUOUS
10
224.0110639999999762
20
-138.1508350000000007
11
223.740712000000002
21
-137.9352360000000033
0
LINE
8
BLACK
6
CONTINUOUS
10
223.740712000000002
20
-137.9352360000000033
11
223.4961989999999901
21
-137.6907229999999913
0
LINE
8
BLACK
6
CONTINUOUS
10
223.4961989999999901
20
-137.6907229999999913
11
223.2805999999999926
21
-137.4203709999999887
0
LINE
8
BLACK
6
CONTINUOUS
10
223.2805999999999926
20
-137.4203709999999887
11
223.0966269999999838
21
-137.1275789999999972
0
LINE
8
BLACK
6
CONTINUOUS
10
223.0966269999999838
20
-137.1275789999999972
11
222.9465919999999812
21
-136.8160289999999861
0
LINE
8
BLACK
6
CONTINUOUS
10
222.9465919999999812
20
-136.8160289999999861
11
222.8323839999999905
21
-136.4896399999999801
0
LINE
8
BLACK
6
CONTINUOUS
10
222.8323839999999905
20
-136.4896399999999801
11
222.7554379999999981
21
-136.1525159999999914
0
LINE
8
BLACK
6
CONTINUOUS
10
222.7554379999999981
20
-136.1525159999999914
11
222.7167209999999784
21
-135.8088970000000018
0
LINE
8
BLACK
6
CONTINUOUS
10
222.7167209999999784
20
-135.8088970000000018
11
222.7167209999999784
21
-135.4656389999999817
0
LINE
8
BLACK
6
CONTINUOUS
10
222.7167209999999784
20
-135.4656389999999817
11
222.7167209999999784
21
-135.4631029999999896
0
LINE
8
BLACK
6
CONTINUOUS
10
222.7167209999999784
20
-135.4631029999999896
11
222.7554379999999981
21
-135.1194839999999999
0
LINE
8
BLACK
6
CONTINUOUS
10
222.7554379999999981
20
-135.1194839999999999
11
222.8323839999999905
21
-134.7823599999999828
0
LINE
8
BLACK
6
CONTINUOUS
10
222.8323839999999905
20
-134.7823599999999828
11
222.9465919999999812
21
-134.4559710000000052
0
LINE
8
BLACK
6
CONTINUOUS
10
222.9465919999999812
20
-134.4559710000000052
11
223.0966269999999838
21
-134.1444209999999941
0
LINE
8
BLACK
6
CONTINUOUS
10
223.0966269999999838
20
-134.1444209999999941
11
223.2805999999999926
21
-133.8516290000000026
0
LINE
8
BLACK
6
CONTINUOUS
10
223.2805999999999926
20
-133.8516290000000026
11
223.4961989999999901
21
-133.581277
0
LINE
8
BLACK
6
CONTINUOUS
10
223.4961989999999901
20
-133.581277
11
223.740712000000002
21
-133.3367639999999881
0
LINE
8
BLACK
6
CONTINUOUS
10
223.740712000000002
20
-133.3367639999999881
11
224.0110639999999762
21
-133.1211649999999906
0
LINE
8
BLACK
6
CONTINUOUS
10
224.0110639999999762
20
-133.1211649999999906
11
224.3038559999999961
21
-132.9371919999999818
0
LINE
8
BLACK
6
CONTINUOUS
10
224.3038559999999961
20
-132.9371919999999818
11
224.6154059999999788
21
-132.7871570000000077
0
LINE
8
BLACK
6
CONTINUOUS
10
224.6154059999999788
20
-132.7871570000000077
11
224.9417949999999848
21
-132.6729489999999885
0
LINE
8
BLACK
6
CONTINUOUS
10
224.9417949999999848
20
-132.6729489999999885
11
225.2789190000000019
21
-132.5960029999999961
0
LINE
8
BLACK
6
CONTINUOUS
10
225.2789190000000019
20
-132.5960029999999961
11
225.6225379999999916
21
-132.5572860000000048
0
LINE
8
BLACK
6
CONTINUOUS
10
225.6225379999999916
20
-132.5572860000000048
11
225.9683320000000037
21
-132.5572860000000048
0
LINE
8
BLACK
6
CONTINUOUS
10
225.9683320000000037
20
-132.5572860000000048
11
226.3119509999999934
21
-132.5960029999999961
0
LINE
8
BLACK
6
CONTINUOUS
10
222.7618699999999876
20
-135.8063609999999812
11
222.8000189999999918
21
-136.1449419999999861
0
LINE
8
BLACK
6
CONTINUOUS
10
222.8000189999999918
20
-136.1449419999999861
11
222.87583699999999
21
-136.4771219999999801
0
LINE
8
BLACK
6
CONTINUOUS
10
222.87583699999999
20
-136.4771219999999801
11
222.9883700000000033
21
-136.7987239999999929
0
LINE
8
BLACK
6
CONTINUOUS
10
222.9883700000000033
20
-136.7987239999999929
11
223.1362039999999922
21
-137.1057050000000004
0
LINE
8
BLACK
6
CONTINUOUS
10
223.1362039999999922
20
-137.1057050000000004
11
223.3174799999999891
21
-137.3942030000000045
0
LINE
8
BLACK
6
CONTINUOUS
10
223.3174799999999891
20
-137.3942030000000045
11
223.5299169999999833
21
-137.6605909999999824
0
LINE
8
BLACK
6
CONTINUOUS
10
223.5299169999999833
20
-137.6605909999999824
11
223.7708439999999825
21
-137.9015179999999816
0
LINE
8
BLACK
6
CONTINUOUS
10
223.7708439999999825
20
-137.9015179999999816
11
224.0372319999999888
21
-138.1139550000000042
0
LINE
8
BLACK
6
CONTINUOUS
10
224.0372319999999888
20
-138.1139550000000042
11
224.325729999999993
21
-138.2952310000000011
0
LINE
8
BLACK
6
CONTINUOUS
10
224.325729999999993
20
-138.2952310000000011
11
224.6327110000000005
21
-138.4430649999999901
0
LINE
8
BLACK
6
CONTINUOUS
10
224.6327110000000005
20
-138.4430649999999901
11
224.9543129999999849
21
-138.5555980000000034
0
LINE
8
BLACK
6
CONTINUOUS
10
224.9543129999999849
20
-138.5555980000000034
11
225.2864929999999788
21
-138.6314160000000015
0
LINE
8
BLACK
6
CONTINUOUS
10
225.2864929999999788
20
-138.6314160000000015
11
225.6250739999999837
21
-138.6695650000000057
0
LINE
8
BLACK
6
CONTINUOUS
10
225.6250739999999837
20
-138.6695650000000057
11
225.9657959999999832
21
-138.6695650000000057
0
LINE
8
BLACK
6
CONTINUOUS
10
225.9657959999999832
20
-138.6695650000000057
11
226.3043769999999881
21
-138.6314160000000015
0
LINE
8
BLACK
6
CONTINUOUS
10
226.3043769999999881
20
-138.6314160000000015
11
226.6365569999999821
21
-138.5555980000000034
0
LINE
8
BLACK
6
CONTINUOUS
10
226.6365569999999821
20
-138.5555980000000034
11
226.9581589999999949
21
-138.4430649999999901
0
LINE
8
BLACK
6
CONTINUOUS
10
226.9581589999999949
20
-138.4430649999999901
11
227.2651400000000024
21
-138.2952310000000011
0
LINE
8
BLACK
6
CONTINUOUS
10
227.2651400000000024
20
-138.2952310000000011
11
227.5536379999999781
21
-138.1139550000000042
0
LINE
8
BLACK
6
CONTINUOUS
10
227.5536379999999781
20
-138.1139550000000042
11
227.8200259999999844
21
-137.9015179999999816
0
LINE
8
BLACK
6
CONTINUOUS
10
227.8200259999999844
20
-137.9015179999999816
11
228.0609529999999836
21
-137.6605909999999824
0
LINE
8
BLACK
6
CONTINUOUS
10
228.0609529999999836
20
-137.6605909999999824
11
228.2733899999999778
21
-137.3942030000000045
0
LINE
8
BLACK
6
CONTINUOUS
10
228.2733899999999778
20
-137.3942030000000045
11
228.4546660000000031
21
-137.1057050000000004
0
LINE
8
BLACK
6
CONTINUOUS
10
228.4546660000000031
20
-137.1057050000000004
11
228.602499999999992
21
-136.7987239999999929
0
LINE
8
BLACK
6
CONTINUOUS
10
228.602499999999992
20
-136.7987239999999929
11
228.7150329999999769
21
-136.4771219999999801
0
LINE
8
BLACK
6
CONTINUOUS
10
228.7150329999999769
20
-136.4771219999999801
11
228.7908510000000035
21
-136.1449419999999861
0
LINE
8
BLACK
6
CONTINUOUS
10
228.7908510000000035
20
-136.1449419999999861
11
228.8289999999999793
21
-135.8063609999999812
0
LINE
8
BLACK
6
CONTINUOUS
10
228.8289999999999793
20
-135.8063609999999812
11
228.8289999999999793
21
-135.4656389999999817
0
LINE
8
BLACK
6
CONTINUOUS
10
228.8289999999999793
20
-135.4656389999999817
11
228.7908510000000035
21
-135.1270580000000052
0
LINE
8
BLACK
6
CONTINUOUS
10
228.7908510000000035
20
-135.1270580000000052
11
228.7150329999999769
21
-134.7948779999999829
0
LINE
8
BLACK
6
CONTINUOUS
10
228.7150329999999769
20
-134.7948779999999829
11
228.602499999999992
21
-134.4732759999999985
0
LINE
8
BLACK
6
CONTINUOUS
10
228.602499999999992
20
-134.4732759999999985
11
228.4546660000000031
21
-134.166294999999991
0
LINE
8
BLACK
6
CONTINUOUS
10
228.4546660000000031
20
-134.166294999999991
11
228.2733899999999778
21
-133.8777969999999868
0
LINE
8
BLACK
6
CONTINUOUS
10
228.2733899999999778
20
-133.8777969999999868
11
228.0609529999999836
21
-133.6114089999999806
0
LINE
8
BLACK
6
CONTINUOUS
10
228.0609529999999836
20
-133.6114089999999806
11
227.8200259999999844
21
-133.3704819999999813
0
LINE
8
BLACK
6
CONTINUOUS
10
227.8200259999999844
20
-133.3704819999999813
11
227.5536379999999781
21
-133.1580449999999871
0
LINE
8
BLACK
6
CONTINUOUS
10
227.5536379999999781
20
-133.1580449999999871
11
227.2651400000000024
21
-132.9767689999999902
0
LINE
8
BLACK
6
CONTINUOUS
10
227.2651400000000024
20
-132.9767689999999902
11
226.9581589999999949
21
-132.8289350000000013
0
LINE
8
BLACK
6
CONTINUOUS
10
226.9581589999999949
20
-132.8289350000000013
11
226.6365569999999821
21
-132.716401999999988
0
LINE
8
BLACK
6
CONTINUOUS
10
226.6365569999999821
20
-132.716401999999988
11
226.3043769999999881
21
-132.6405839999999898
0
LINE
8
BLACK
6
CONTINUOUS
10
226.3043769999999881
20
-132.6405839999999898
11
225.9657959999999832
21
-132.6024349999999856
0
LINE
8
BLACK
6
CONTINUOUS
10
225.9657959999999832
20
-132.6024349999999856
11
225.6250739999999837
21
-132.6024349999999856
0
LINE
8
BLACK
6
CONTINUOUS
10
225.6250739999999837
20
-132.6024349999999856
11
225.2864929999999788
21
-132.6405839999999898
0
LINE
8
BLACK
6
CONTINUOUS
10
225.2864929999999788
20
-132.6405839999999898
11
224.9543129999999849
21
-132.716401999999988
0
LINE
8
BLACK
6
CONTINUOUS
10
224.9543129999999849
20
-132.716401999999988
11
224.6327110000000005
21
-132.8289350000000013
0
LINE
8
BLACK
6
CONTINUOUS
10
224.6327110000000005
20
-132.8289350000000013
11
224.325729999999993
21
-132.9767689999999902
0
LINE
8
BLACK
6
CONTINUOUS
10
224.325729999999993
20
-132.9767689999999902
11
224.0372319999999888
21
-133.1580449999999871
0
LINE
8
BLACK
6
CONTINUOUS
10
224.0372319999999888
20
-133.1580449999999871
11
223.7708439999999825
21
-133.3704819999999813
0
LINE
8
BLACK
6
CONTINUOUS
10
223.7708439999999825
20
-133.3704819999999813
11
223.5299169999999833
21
-133.6114089999999806
0
LINE
8
BLACK
6
CONTINUOUS
10
223.5299169999999833
20
-133.6114089999999806
11
223.3174799999999891
21
-133.8777969999999868
0
LINE
8
BLACK
6
CONTINUOUS
10
223.3174799999999891
20
-133.8777969999999868
11
223.1362039999999922
21
-134.166294999999991
0
LINE
8
BLACK
6
CONTINUOUS
10
223.1362039999999922
20
-134.166294999999991
11
222.9883700000000033
21
-134.4732759999999985
0
LINE
8
BLACK
6
CONTINUOUS
10
222.9883700000000033
20
-134.4732759999999985
11
222.87583699999999
21
-134.7948779999999829
0
LINE
8
BLACK
6
CONTINUOUS
10
222.87583699999999
20
-134.7948779999999829
11
222.8000189999999918
21
-135.1270580000000052
0
LINE
8
BLACK
6
CONTINUOUS
10
222.8000189999999918
20
-135.1270580000000052
11
222.7618699999999876
21
-135.4656389999999817
0
LINE
8
BLACK
6
CONTINUOUS
10
222.7618699999999876
20
-135.4656389999999817
11
222.7618699999999876
21
-135.8063609999999812
0
LINE
8
BLACK
6
CONTINUOUS
10
74.6845160000000021
20
-91.4480029999999999
11
75.0216399999999908
21
-91.5249489999999923
0
LINE
8
BLACK
6
CONTINUOUS
10
75.0216399999999908
20
-91.5249489999999923
11
75.3480289999999968
21
-91.6391569999999973
0
LINE
8
BLACK
6
CONTINUOUS
10
75.3480289999999968
20
-91.6391569999999973
11
75.6595789999999937
21
-91.7891919999999999
0
LINE
8
BLACK
6
CONTINUOUS
10
75.6595789999999937
20
-91.7891919999999999
11
75.9523709999999994
21
-91.9731649999999945
0
LINE
8
BLACK
6
CONTINUOUS
10
75.9523709999999994
20
-91.9731649999999945
11
76.222723000000002
21
-92.1887639999999919
0
LINE
8
BLACK
6
CONTINUOUS
10
76.222723000000002
20
-92.1887639999999919
11
76.4672359999999998
21
-92.4332769999999897
0
LINE
8
BLACK
6
CONTINUOUS
10
76.4672359999999998
20
-92.4332769999999897
11
76.6828349999999972
21
-92.7036289999999923
0
LINE
8
BLACK
6
CONTINUOUS
10
76.6828349999999972
20
-92.7036289999999923
11
76.8668079999999918
21
-92.996420999999998
0
LINE
8
BLACK
6
CONTINUOUS
10
76.8668079999999918
20
-92.996420999999998
11
77.0168429999999944
21
-93.3079709999999949
0
LINE
8
BLACK
6
CONTINUOUS
10
77.0168429999999944
20
-93.3079709999999949
11
77.1310509999999994
21
-93.6343600000000009
0
LINE
8
BLACK
6
CONTINUOUS
10
77.1310509999999994
20
-93.6343600000000009
11
77.2079969999999918
21
-93.9714839999999896
0
LINE
8
BLACK
6
CONTINUOUS
10
77.2079969999999918
20
-93.9714839999999896
11
77.2467139999999972
21
-94.3151029999999935
0
LINE
8
BLACK
6
CONTINUOUS
10
77.2467139999999972
20
-94.3151029999999935
11
77.2467139999999972
21
-94.6608969999999914
0
LINE
8
BLACK
6
CONTINUOUS
10
77.2467139999999972
20
-94.6608969999999914
11
77.2079969999999918
21
-95.0045159999999953
0
LINE
8
BLACK
6
CONTINUOUS
10
77.2079969999999918
20
-95.0045159999999953
11
77.1310509999999994
21
-95.3416399999999982
0
LINE
8
BLACK
6
CONTINUOUS
10
77.1310509999999994
20
-95.3416399999999982
11
77.0168429999999944
21
-95.66802899999999
0
LINE
8
BLACK
6
CONTINUOUS
10
77.0168429999999944
20
-95.66802899999999
11
76.8668079999999918
21
-95.9795790000000011
0
LINE
8
BLACK
6
CONTINUOUS
10
76.8668079999999918
20
-95.9795790000000011
11
76.6828349999999972
21
-96.2723709999999926
0
LINE
8
BLACK
6
CONTINUOUS
10
76.6828349999999972
20
-96.2723709999999926
11
76.4672359999999998
21
-96.5427229999999952
0
LINE
8
BLACK
6
CONTINUOUS
10
76.4672359999999998
20
-96.5427229999999952
11
76.222723000000002
21
-96.7872359999999929
0
LINE
8
BLACK
6
CONTINUOUS
10
76.222723000000002
20
-96.7872359999999929
11
75.9523709999999994
21
-97.0028349999999904
0
LINE
8
BLACK
6
CONTINUOUS
10
75.9523709999999994
20
-97.0028349999999904
11
75.6595789999999937
21
-97.1868079999999992
0
LINE
8
BLACK
6
CONTINUOUS
10
75.6595789999999937
20
-97.1868079999999992
11
75.3480289999999968
21
-97.3368430000000018
0
LINE
8
BLACK
6
CONTINUOUS
10
75.3480289999999968
20
-97.3368430000000018
11
75.0216399999999908
21
-97.4510509999999925
0
LINE
8
BLACK
6
CONTINUOUS
10
75.0216399999999908
20
-97.4510509999999925
11
74.6845160000000021
21
-97.5279969999999992
0
LINE
8
BLACK
6
CONTINUOUS
10
74.6845160000000021
20
-97.5279969999999992
11
74.3408969999999982
21
-97.5667139999999904
0
LINE
8
BLACK
6
CONTINUOUS
10
74.3408969999999982
20
-97.5667139999999904
11
73.9951030000000003
21
-97.5667139999999904
0
LINE
8
BLACK
6
CONTINUOUS
10
73.9951030000000003
20
-97.5667139999999904
11
73.6514839999999964
21
-97.5279969999999992
0
LINE
8
BLACK
6
CONTINUOUS
10
73.6514839999999964
20
-97.5279969999999992
11
73.3143599999999935
21
-97.4510509999999925
0
LINE
8
BLACK
6
CONTINUOUS
10
73.3143599999999935
20
-97.4510509999999925
11
72.9879710000000017
21
-97.3368430000000018
0
LINE
8
BLACK
6
CONTINUOUS
10
72.9879710000000017
20
-97.3368430000000018
11
72.6764209999999906
21
-97.1868079999999992
0
LINE
8
BLACK
6
CONTINUOUS
10
72.6764209999999906
20
-97.1868079999999992
11
72.3836289999999991
21
-97.0028349999999904
0
LINE
8
BLACK
6
CONTINUOUS
10
72.3836289999999991
20
-97.0028349999999904
11
72.1132769999999965
21
-96.7872359999999929
0
LINE
8
BLACK
6
CONTINUOUS
10
72.1132769999999965
20
-96.7872359999999929
11
71.8687639999999988
21
-96.5427229999999952
0
LINE
8
BLACK
6
CONTINUOUS
10
71.8687639999999988
20
-96.5427229999999952
11
71.6531650000000013
21
-96.2723709999999926
0
LINE
8
BLACK
6
CONTINUOUS
10
71.6531650000000013
20
-96.2723709999999926
11
71.4691919999999925
21
-95.9795790000000011
0
LINE
8
BLACK
6
CONTINUOUS
10
71.4691919999999925
20
-95.9795790000000011
11
71.3191569999999899
21
-95.66802899999999
0
LINE
8
BLACK
6
CONTINUOUS
10
71.3191569999999899
20
-95.66802899999999
11
71.2049489999999992
21
-95.3416399999999982
0
LINE
8
BLACK
6
CONTINUOUS
10
71.2049489999999992
20
-95.3416399999999982
11
71.1280029999999925
21
-95.0045159999999953
0
LINE
8
BLACK
6
CONTINUOUS
10
71.1280029999999925
20
-95.0045159999999953
11
71.0892860000000013
21
-94.6608969999999914
0
LINE
8
BLACK
6
CONTINUOUS
10
71.0892860000000013
20
-94.6608969999999914
11
71.0892860000000013
21
-94.3176389999999998
0
LINE
8
BLACK
6
CONTINUOUS
10
71.0892860000000013
20
-94.3176389999999998
11
71.0892860000000013
21
-94.3151029999999935
0
LINE
8
BLACK
6
CONTINUOUS
10
71.0892860000000013
20
-94.3151029999999935
11
71.1280029999999925
21
-93.9714839999999896
0
LINE
8
BLACK
6
CONTINUOUS
10
71.1280029999999925
20
-93.9714839999999896
11
71.2049489999999992
21
-93.6343600000000009
0
LINE
8
BLACK
6
CONTINUOUS
10
71.2049489999999992
20
-93.6343600000000009
11
71.3191569999999899
21
-93.3079709999999949
0
LINE
8
BLACK
6
CONTINUOUS
10
71.3191569999999899
20
-93.3079709999999949
11
71.4691919999999925
21
-92.996420999999998
0
LINE
8
BLACK
6
CONTINUOUS
10
71.4691919999999925
20
-92.996420999999998
11
71.6531650000000013
21
-92.7036289999999923
0
LINE
8
BLACK
6
CONTINUOUS
10
71.6531650000000013
20
-92.7036289999999923
11
71.8687639999999988
21
-92.4332769999999897
0
LINE
8
BLACK
6
CONTINUOUS
10
71.8687639999999988
20
-92.4332769999999897
11
72.1132769999999965
21
-92.1887639999999919
0
LINE
8
BLACK
6
CONTINUOUS
10
72.1132769999999965
20
-92.1887639999999919
11
72.3836289999999991
21
-91.9731649999999945
0
LINE
8
BLACK
6
CONTINUOUS
10
72.3836289999999991
20
-91.9731649999999945
11
72.6764209999999906
21
-91.7891919999999999
0
LINE
8
BLACK
6
CONTINUOUS
10
72.6764209999999906
20
-91.7891919999999999
11
72.9879710000000017
21
-91.6391569999999973
0
LINE
8
BLACK
6
CONTINUOUS
10
72.9879710000000017
20
-91.6391569999999973
11
73.3143599999999935
21
-91.5249489999999923
0
LINE
8
BLACK
6
CONTINUOUS
10
73.3143599999999935
20
-91.5249489999999923
11
73.6514839999999964
21
-91.4480029999999999
0
LINE
8
BLACK
6
CONTINUOUS
10
73.6514839999999964
20
-91.4480029999999999
11
73.9951030000000003
21
-91.4092859999999945
0
LINE
8
BLACK
6
CONTINUOUS
10
73.9951030000000003
20
-91.4092859999999945
11
74.3408969999999982
21
-91.4092859999999945
0
LINE
8
BLACK
6
CONTINUOUS
10
74.3408969999999982
20
-91.4092859999999945
11
74.6845160000000021
21
-91.4480029999999999
0
LINE
8
BLACK
6
CONTINUOUS
10
71.1344349999999963
20
-94.6583609999999993
11
71.1725840000000005
21
-94.99694199999999
0
LINE
8
BLACK
6
CONTINUOUS
10
71.1725840000000005
20
-94.99694199999999
11
71.2484019999999987
21
-95.3291219999999981
0
LINE
8
BLACK
6
CONTINUOUS
10
71.2484019999999987
20
-95.3291219999999981
11
71.3609349999999978
21
-95.6507239999999967
0
LINE
8
BLACK
6
CONTINUOUS
10
71.3609349999999978
20
-95.6507239999999967
11
71.5087690000000009
21
-95.95770499999999
0
LINE
8
BLACK
6
CONTINUOUS
10
71.5087690000000009
20
-95.95770499999999
11
71.6900449999999978
21
-96.2462029999999942
0
LINE
8
BLACK
6
CONTINUOUS
10
71.6900449999999978
20
-96.2462029999999942
11
71.902481999999992
21
-96.5125910000000005
0
LINE
8
BLACK
6
CONTINUOUS
10
71.902481999999992
20
-96.5125910000000005
11
72.1434089999999912
21
-96.7535179999999997
0
LINE
8
BLACK
6
CONTINUOUS
10
72.1434089999999912
20
-96.7535179999999997
11
72.4097969999999975
21
-96.9659549999999939
0
LINE
8
BLACK
6
CONTINUOUS
10
72.4097969999999975
20
-96.9659549999999939
11
72.6982950000000017
21
-97.1472309999999908
0
LINE
8
BLACK
6
CONTINUOUS
10
72.6982950000000017
20
-97.1472309999999908
11
73.005275999999995
21
-97.2950649999999939
0
LINE
8
BLACK
6
CONTINUOUS
10
73.005275999999995
20
-97.2950649999999939
11
73.3268779999999936
21
-97.407597999999993
0
LINE
8
BLACK
6
CONTINUOUS
10
73.3268779999999936
20
-97.407597999999993
11
73.6590580000000017
21
-97.4834159999999912
0
LINE
8
BLACK
6
CONTINUOUS
10
73.6590580000000017
20
-97.4834159999999912
11
73.9976389999999924
21
-97.5215649999999954
0
LINE
8
BLACK
6
CONTINUOUS
10
73.9976389999999924
20
-97.5215649999999954
11
74.3383609999999919
21
-97.5215649999999954
0
LINE
8
BLACK
6
CONTINUOUS
10
74.3383609999999919
20
-97.5215649999999954
11
74.6769419999999968
21
-97.4834159999999912
0
LINE
8
BLACK
6
CONTINUOUS
10
74.6769419999999968
20
-97.4834159999999912
11
75.0091219999999907
21
-97.407597999999993
0
LINE
8
BLACK
6
CONTINUOUS
10
75.0091219999999907
20
-97.407597999999993
11
75.3307240000000036
21
-97.2950649999999939
0
LINE
8
BLACK
6
CONTINUOUS
10
75.3307240000000036
20
-97.2950649999999939
11
75.6377049999999969
21
-97.1472309999999908
0
LINE
8
BLACK
6
CONTINUOUS
10
75.6377049999999969
20
-97.1472309999999908
11
75.926203000000001
21
-96.9659549999999939
0
LINE
8
BLACK
6
CONTINUOUS
10
75.926203000000001
20
-96.9659549999999939
11
76.1925909999999931
21
-96.7535179999999997
0
LINE
8
BLACK
6
CONTINUOUS
10
76.1925909999999931
20
-96.7535179999999997
11
76.4335179999999923
21
-96.5125910000000005
0
LINE
8
BLACK
6
CONTINUOUS
10
76.4335179999999923
20
-96.5125910000000005
11
76.6459550000000007
21
-96.2462029999999942
0
LINE
8
BLACK
6
CONTINUOUS
10
76.6459550000000007
20
-96.2462029999999942
11
76.8272309999999976
21
-95.95770499999999
0
LINE
8
BLACK
6
CONTINUOUS
10
76.8272309999999976
20
-95.95770499999999
11
76.9750650000000007
21
-95.6507239999999967
0
LINE
8
BLACK
6
CONTINUOUS
10
76.9750650000000007
20
-95.6507239999999967
11
77.0875979999999998
21
-95.3291219999999981
0
LINE
8
BLACK
6
CONTINUOUS
10
77.0875979999999998
20
-95.3291219999999981
11
77.163415999999998
21
-94.99694199999999
0
LINE
8
BLACK
6
CONTINUOUS
10
77.163415999999998
20
-94.99694199999999
11
77.2015650000000022
21
-94.6583609999999993
0
LINE
8
BLACK
6
CONTINUOUS
10
77.2015650000000022
20
-94.6583609999999993
11
77.2015650000000022
21
-94.3176389999999998
0
LINE
8
BLACK
6
CONTINUOUS
10
77.2015650000000022
20
-94.3176389999999998
11
77.163415999999998
21
-93.9790579999999949
0
LINE
8
BLACK
6
CONTINUOUS
10
77.163415999999998
20
-93.9790579999999949
11
77.0875979999999998
21
-93.646878000000001
0
LINE
8
BLACK
6
CONTINUOUS
10
77.0875979999999998
20
-93.646878000000001
11
76.9750650000000007
21
-93.3252760000000023
0
LINE
8
BLACK
6
CONTINUOUS
10
76.9750650000000007
20
-93.3252760000000023
11
76.8272309999999976
21
-93.0182949999999948
0
LINE
8
BLACK
6
CONTINUOUS
10
76.8272309999999976
20
-93.0182949999999948
11
76.6459550000000007
21
-92.7297969999999907
0
LINE
8
BLACK
6
CONTINUOUS
10
76.6459550000000007
20
-92.7297969999999907
11
76.4335179999999923
21
-92.4634089999999986
0
LINE
8
BLACK
6
CONTINUOUS
10
76.4335179999999923
20
-92.4634089999999986
11
76.1925909999999931
21
-92.2224819999999994
0
LINE
8
BLACK
6
CONTINUOUS
10
76.1925909999999931
20
-92.2224819999999994
11
75.926203000000001
21
-92.010044999999991
0
LINE
8
BLACK
6
CONTINUOUS
10
75.926203000000001
20
-92.010044999999991
11
75.6377049999999969
21
-91.8287689999999941
0
LINE
8
BLACK
6
CONTINUOUS
10
75.6377049999999969
20
-91.8287689999999941
11
75.3307240000000036
21
-91.680934999999991
0
LINE
8
BLACK
6
CONTINUOUS
10
75.3307240000000036
20
-91.680934999999991
11
75.0091219999999907
21
-91.5684019999999919
0
LINE
8
BLACK
6
CONTINUOUS
10
75.0091219999999907
20
-91.5684019999999919
11
74.6769419999999968
21
-91.4925839999999937
0
LINE
8
BLACK
6
CONTINUOUS
10
74.6769419999999968
20
-91.4925839999999937
11
74.3383609999999919
21
-91.4544349999999895
0
LINE
8
BLACK
6
CONTINUOUS
10
74.3383609999999919
20
-91.4544349999999895
11
73.9976389999999924
21
-91.4544349999999895
0
LINE
8
BLACK
6
CONTINUOUS
10
73.9976389999999924
20
-91.4544349999999895
11
73.6590580000000017
21
-91.4925839999999937
0
LINE
8
BLACK
6
CONTINUOUS
10
73.6590580000000017
20
-91.4925839999999937
11
73.3268779999999936
21
-91.5684019999999919
0
LINE
8
BLACK
6
CONTINUOUS
10
73.3268779999999936
20
-91.5684019999999919
11
73.005275999999995
21
-91.680934999999991
0
LINE
8
BLACK
6
CONTINUOUS
10
73.005275999999995
20
-91.680934999999991
11
72.6982950000000017
21
-91.8287689999999941
0
LINE
8
BLACK
6
CONTINUOUS
10
72.6982950000000017
20
-91.8287689999999941
11
72.4097969999999975
21
-92.010044999999991
0
LINE
8
BLACK
6
CONTINUOUS
10
72.4097969999999975
20
-92.010044999999991
11
72.1434089999999912
21
-92.2224819999999994
0
LINE
8
BLACK
6
CONTINUOUS
10
72.1434089999999912
20
-92.2224819999999994
11
71.902481999999992
21
-92.4634089999999986
0
LINE
8
BLACK
6
CONTINUOUS
10
71.902481999999992
20
-92.4634089999999986
11
71.6900449999999978
21
-92.7297969999999907
0
LINE
8
BLACK
6
CONTINUOUS
10
71.6900449999999978
20
-92.7297969999999907
11
71.5087690000000009
21
-93.0182949999999948
0
LINE
8
BLACK
6
CONTINUOUS
10
71.5087690000000009
20
-93.0182949999999948
11
71.3609349999999978
21
-93.3252760000000023
0
LINE
8
BLACK
6
CONTINUOUS
10
71.3609349999999978
20
-93.3252760000000023
11
71.2484019999999987
21
-93.646878000000001
0
LINE
8
BLACK
6
CONTINUOUS
10
71.2484019999999987
20
-93.646878000000001
11
71.1725840000000005
21
-93.9790579999999949
0
LINE
8
BLACK
6
CONTINUOUS
10
71.1725840000000005
20
-93.9790579999999949
11
71.1344349999999963
21
-94.3176389999999998
0
LINE
8
BLACK
6
CONTINUOUS
10
71.1344349999999963
20
-94.3176389999999998
11
71.1344349999999963
21
-94.6583609999999993
0
LINE
8
BLACK
6
CONTINUOUS
10
116.0759509999999892
20
-91.4480029999999999
11
116.4130749999999921
21
-91.5249489999999923
0
LINE
8
BLACK
6
CONTINUOUS
10
116.4130749999999921
20
-91.5249489999999923
11
116.7394639999999981
21
-91.6391569999999973
0
LINE
8
BLACK
6
CONTINUOUS
10
116.7394639999999981
20
-91.6391569999999973
11
117.051013999999995
21
-91.7891919999999999
0
LINE
8
BLACK
6
CONTINUOUS
10
117.051013999999995
20
-91.7891919999999999
11
117.3438060000000007
21
-91.9731649999999945
0
LINE
8
BLACK
6
CONTINUOUS
10
117.3438060000000007
20
-91.9731649999999945
11
117.6141579999999891
21
-92.1887639999999919
0
LINE
8
BLACK
6
CONTINUOUS
10
117.6141579999999891
20
-92.1887639999999919
11
117.8586710000000011
21
-92.4332769999999897
0
LINE
8
BLACK
6
CONTINUOUS
10
117.8586710000000011
20
-92.4332769999999897
11
118.0742699999999985
21
-92.7036289999999923
0
LINE
8
BLACK
6
CONTINUOUS
10
118.0742699999999985
20
-92.7036289999999923
11
118.2582429999999931
21
-92.996420999999998
0
LINE
8
BLACK
6
CONTINUOUS
10
118.2582429999999931
20
-92.996420999999998
11
118.4082779999999957
21
-93.3079709999999949
0
LINE
8
BLACK
6
CONTINUOUS
10
118.4082779999999957
20
-93.3079709999999949
11
118.5224860000000007
21
-93.6343600000000009
0
LINE
8
BLACK
6
CONTINUOUS
10
118.5224860000000007
20
-93.6343600000000009
11
118.5994319999999931
21
-93.9714839999999896
0
LINE
8
BLACK
6
CONTINUOUS
10
118.5994319999999931
20
-93.9714839999999896
11
118.6381489999999985
21
-94.3151029999999935
0
LINE
8
BLACK
6
CONTINUOUS
10
118.6381489999999985
20
-94.3151029999999935
11
118.6381489999999985
21
-94.6608969999999914
0
LINE
8
BLACK
6
CONTINUOUS
10
118.6381489999999985
20
-94.6608969999999914
11
118.5994319999999931
21
-95.0045159999999953
0
LINE
8
BLACK
6
CONTINUOUS
10
118.5994319999999931
20
-95.0045159999999953
11
118.5224860000000007
21
-95.3416399999999982
0
LINE
8
BLACK
6
CONTINUOUS
10
118.5224860000000007
20
-95.3416399999999982
11
118.4082779999999957
21
-95.66802899999999
0
LINE
8
BLACK
6
CONTINUOUS
10
118.4082779999999957
20
-95.66802899999999
11
118.2582429999999931
21
-95.9795790000000011
0
LINE
8
BLACK
6
CONTINUOUS
10
118.2582429999999931
20
-95.9795790000000011
11
118.0742699999999985
21
-96.2723709999999926
0
LINE
8
BLACK
6
CONTINUOUS
10
118.0742699999999985
20
-96.2723709999999926
11
117.8586710000000011
21
-96.5427229999999952
0
LINE
8
BLACK
6
CONTINUOUS
10
117.8586710000000011
20
-96.5427229999999952
11
117.6141579999999891
21
-96.7872359999999929
0
LINE
8
BLACK
6
CONTINUOUS
10
117.6141579999999891
20
-96.7872359999999929
11
117.3438060000000007
21
-97.0028349999999904
0
LINE
8
BLACK
6
CONTINUOUS
10
117.3438060000000007
20
-97.0028349999999904
11
117.051013999999995
21
-97.1868079999999992
0
LINE
8
BLACK
6
CONTINUOUS
10
117.051013999999995
20
-97.1868079999999992
11
116.7394639999999981
21
-97.3368430000000018
0
LINE
8
BLACK
6
CONTINUOUS
10
116.7394639999999981
20
-97.3368430000000018
11
116.4130749999999921
21
-97.4510509999999925
0
LINE
8
BLACK
6
CONTINUOUS
10
116.4130749999999921
20
-97.4510509999999925
11
116.0759509999999892
21
-97.5279969999999992
0
LINE
8
BLACK
6
CONTINUOUS
10
116.0759509999999892
20
-97.5279969999999992
11
115.7323319999999995
21
-97.5667139999999904
0
LINE
8
BLACK
6
CONTINUOUS
10
115.7323319999999995
20
-97.5667139999999904
11
115.3865380000000016
21
-97.5667139999999904
0
LINE
8
BLACK
6
CONTINUOUS
10
115.3865380000000016
20
-97.5667139999999904
11
115.0429189999999977
21
-97.5279969999999992
0
LINE
8
BLACK
6
CONTINUOUS
10
115.0429189999999977
20
-97.5279969999999992
11
114.7057949999999948
21
-97.4510509999999925
0
LINE
8
BLACK
6
CONTINUOUS
10
114.7057949999999948
20
-97.4510509999999925
11
114.3794059999999888
21
-97.3368430000000018
0
LINE
8
BLACK
6
CONTINUOUS
10
114.3794059999999888
20
-97.3368430000000018
11
114.0678559999999919
21
-97.1868079999999992
0
LINE
8
BLACK
6
CONTINUOUS
10
114.0678559999999919
20
-97.1868079999999992
11
113.7750640000000004
21
-97.0028349999999904
0
LINE
8
BLACK
6
CONTINUOUS
10
113.7750640000000004
20
-97.0028349999999904
11
113.5047119999999978
21
-96.7872359999999929
0
LINE
8
BLACK
6
CONTINUOUS
10
113.5047119999999978
20
-96.7872359999999929
11
113.2601990000000001
21
-96.5427229999999952
0
LINE
8
BLACK
6
CONTINUOUS
10
113.2601990000000001
20
-96.5427229999999952
11
113.0445999999999884
21
-96.2723709999999926
0
LINE
8
BLACK
6
CONTINUOUS
10
113.0445999999999884
20
-96.2723709999999926
11
112.8606269999999938
21
-95.9795790000000011
0
LINE
8
BLACK
6
CONTINUOUS
10
112.8606269999999938
20
-95.9795790000000011
11
112.7105919999999912
21
-95.66802899999999
0
LINE
8
BLACK
6
CONTINUOUS
10
112.7105919999999912
20
-95.66802899999999
11
112.5963840000000005
21
-95.3416399999999982
0
LINE
8
BLACK
6
CONTINUOUS
10
112.5963840000000005
20
-95.3416399999999982
11
112.5194379999999938
21
-95.0045159999999953
0
LINE
8
BLACK
6
CONTINUOUS
10
112.5194379999999938
20
-95.0045159999999953
11
112.4807209999999884
21
-94.6608969999999914
0
LINE
8
BLACK
6
CONTINUOUS
10
112.4807209999999884
20
-94.6608969999999914
11
112.4807209999999884
21
-94.3176389999999998
0
LINE
8
BLACK
6
CONTINUOUS
10
112.4807209999999884
20
-94.3176389999999998
11
112.4807209999999884
21
-94.3151029999999935
0
LINE
8
BLACK
6
CONTINUOUS
10
112.4807209999999884
20
-94.3151029999999935
11
112.5194379999999938
21
-93.9714839999999896
0
LINE
8
BLACK
6
CONTINUOUS
10
112.5194379999999938
20
-93.9714839999999896
11
112.5963840000000005
21
-93.6343600000000009
0
LINE
8
BLACK
6
CONTINUOUS
10
112.5963840000000005
20
-93.6343600000000009
11
112.7105919999999912
21
-93.3079709999999949
0
LINE
8
BLACK
6
CONTINUOUS
10
112.7105919999999912
20
-93.3079709999999949
11
112.8606269999999938
21
-92.996420999999998
0
LINE
8
BLACK
6
CONTINUOUS
10
112.8606269999999938
20
-92.996420999999998
11
113.0445999999999884
21
-92.7036289999999923
0
LINE
8
BLACK
6
CONTINUOUS
10
113.0445999999999884
20
-92.7036289999999923
11
113.2601990000000001
21
-92.4332769999999897
0
LINE
8
BLACK
6
CONTINUOUS
10
113.2601990000000001
20
-92.4332769999999897
11
113.5047119999999978
21
-92.1887639999999919
0
LINE
8
BLACK
6
CONTINUOUS
10
113.5047119999999978
20
-92.1887639999999919
11
113.7750640000000004
21
-91.9731649999999945
0
LINE
8
BLACK
6
CONTINUOUS
10
113.7750640000000004
20
-91.9731649999999945
11
114.0678559999999919
21
-91.7891919999999999
0
LINE
8
BLACK
6
CONTINUOUS
10
114.0678559999999919
20
-91.7891919999999999
11
114.3794059999999888
21
-91.6391569999999973
0
LINE
8
BLACK
6
CONTINUOUS
10
114.3794059999999888
20
-91.6391569999999973
11
114.7057949999999948
21
-91.5249489999999923
0
LINE
8
BLACK
6
CONTINUOUS
10
114.7057949999999948
20
-91.5249489999999923
11
115.0429189999999977
21
-91.4480029999999999
0
LINE
8
BLACK
6
CONTINUOUS
10
115.0429189999999977
20
-91.4480029999999999
11
115.3865380000000016
21
-91.4092859999999945
0
LINE
8
BLACK
6
CONTINUOUS
10
115.3865380000000016
20
-91.4092859999999945
11
115.7323319999999995
21
-91.4092859999999945
0
LINE
8
BLACK
6
CONTINUOUS
10
115.7323319999999995
20
-91.4092859999999945
11
116.0759509999999892
21
-91.4480029999999999
0
LINE
8
BLACK
6
CONTINUOUS
10
112.5258699999999976
20
-94.6583609999999993
11
112.5640190000000018
21
-94.99694199999999
0
LINE
8
BLACK
6
CONTINUOUS
10
112.5640190000000018
20
-94.99694199999999
11
112.639837
21
-95.3291219999999981
0
LINE
8
BLACK
6
CONTINUOUS
10
112.639837
20
-95.3291219999999981
11
112.7523699999999991
21
-95.6507239999999967
0
LINE
8
BLACK
6
CONTINUOUS
10
112.7523699999999991
20
-95.6507239999999967
11
112.900203999999988
21
-95.95770499999999
0
LINE
8
BLACK
6
CONTINUOUS
10
112.900203999999988
20
-95.95770499999999
11
113.0814799999999991
21
-96.2462029999999942
0
LINE
8
BLACK
6
CONTINUOUS
10
113.0814799999999991
20
-96.2462029999999942
11
113.2939169999999933
21
-96.5125910000000005
0
LINE
8
BLACK
6
CONTINUOUS
10
113.2939169999999933
20
-96.5125910000000005
11
113.5348439999999925
21
-96.7535179999999997
0
LINE
8
BLACK
6
CONTINUOUS
10
113.5348439999999925
20
-96.7535179999999997
11
113.8012319999999988
21
-96.9659549999999939
0
LINE
8
BLACK
6
CONTINUOUS
10
113.8012319999999988
20
-96.9659549999999939
11
114.0897299999999888
21
-97.1472309999999908
0
LINE
8
BLACK
6
CONTINUOUS
10
114.0897299999999888
20
-97.1472309999999908
11
114.3967109999999963
21
-97.2950649999999939
0
LINE
8
BLACK
6
CONTINUOUS
10
114.3967109999999963
20
-97.2950649999999939
11
114.7183129999999949
21
-97.407597999999993
0
LINE
8
BLACK
6
CONTINUOUS
10
114.7183129999999949
20
-97.407597999999993
11
115.0504929999999888
21
-97.4834159999999912
0
LINE
8
BLACK
6
CONTINUOUS
10
115.0504929999999888
20
-97.4834159999999912
11
115.3890739999999937
21
-97.5215649999999954
0
LINE
8
BLACK
6
CONTINUOUS
10
115.3890739999999937
20
-97.5215649999999954
11
115.7297959999999932
21
-97.5215649999999954
0
LINE
8
BLACK
6
CONTINUOUS
10
115.7297959999999932
20
-97.5215649999999954
11
116.0683769999999981
21
-97.4834159999999912
0
LINE
8
BLACK
6
CONTINUOUS
10
116.0683769999999981
20
-97.4834159999999912
11
116.4005569999999921
21
-97.407597999999993
0
LINE
8
BLACK
6
CONTINUOUS
10
116.4005569999999921
20
-97.407597999999993
11
116.7221589999999907
21
-97.2950649999999939
0
LINE
8
BLACK
6
CONTINUOUS
10
116.7221589999999907
20
-97.2950649999999939
11
117.0291399999999982
21
-97.1472309999999908
0
LINE
8
BLACK
6
CONTINUOUS
10
117.0291399999999982
20
-97.1472309999999908
11
117.3176379999999881
21
-96.9659549999999939
0
LINE
8
BLACK
6
CONTINUOUS
10
117.3176379999999881
20
-96.9659549999999939
11
117.5840259999999944
21
-96.7535179999999997
0
LINE
8
BLACK
6
CONTINUOUS
10
117.5840259999999944
20
-96.7535179999999997
11
117.8249529999999936
21
-96.5125910000000005
0
LINE
8
BLACK
6
CONTINUOUS
10
117.8249529999999936
20
-96.5125910000000005
11
118.0373899999999878
21
-96.2462029999999942
0
LINE
8
BLACK
6
CONTINUOUS
10
118.0373899999999878
20
-96.2462029999999942
11
118.2186659999999989
21
-95.95770499999999
0
LINE
8
BLACK
6
CONTINUOUS
10
118.2186659999999989
20
-95.95770499999999
11
118.3664999999999878
21
-95.6507239999999967
0
LINE
8
BLACK
6
CONTINUOUS
10
118.3664999999999878
20
-95.6507239999999967
11
118.4790330000000012
21
-95.3291219999999981
0
LINE
8
BLACK
6
CONTINUOUS
10
118.4790330000000012
20
-95.3291219999999981
11
118.5548509999999993
21
-94.99694199999999
0
LINE
8
BLACK
6
CONTINUOUS
10
118.5548509999999993
20
-94.99694199999999
11
118.5929999999999893
21
-94.6583609999999993
0
LINE
8
BLACK
6
CONTINUOUS
10
118.5929999999999893
20
-94.6583609999999993
11
118.5929999999999893
21
-94.3176389999999998
0
LINE
8
BLACK
6
CONTINUOUS
10
118.5929999999999893
20
-94.3176389999999998
11
118.5548509999999993
21
-93.9790579999999949
0
LINE
8
BLACK
6
CONTINUOUS
10
118.5548509999999993
20
-93.9790579999999949
11
118.4790330000000012
21
-93.646878000000001
0
LINE
8
BLACK
6
CONTINUOUS
10
118.4790330000000012
20
-93.646878000000001
11
118.3664999999999878
21
-93.3252760000000023
0
LINE
8
BLACK
6
CONTINUOUS
10
118.3664999999999878
20
-93.3252760000000023
11
118.2186659999999989
21
-93.0182949999999948
0
LINE
8
BLACK
6
CONTINUOUS
10
118.2186659999999989
20
-93.0182949999999948
11
118.0373899999999878
21
-92.7297969999999907
0
LINE
8
BLACK
6
CONTINUOUS
10
118.0373899999999878
20
-92.7297969999999907
11
117.8249529999999936
21
-92.4634089999999986
0
LINE
8
BLACK
6
CONTINUOUS
10
117.8249529999999936
20
-92.4634089999999986
11
117.5840259999999944
21
-92.2224819999999994
0
LINE
8
BLACK
6
CONTINUOUS
10
117.5840259999999944
20
-92.2224819999999994
11
117.3176379999999881
21
-92.010044999999991
0
LINE
8
BLACK
6
CONTINUOUS
10
117.3176379999999881
20
-92.010044999999991
11
117.0291399999999982
21
-91.8287689999999941
0
LINE
8
BLACK
6
CONTINUOUS
10
117.0291399999999982
20
-91.8287689999999941
11
116.7221589999999907
21
-91.680934999999991
0
LINE
8
BLACK
6
CONTINUOUS
10
116.7221589999999907
20
-91.680934999999991
11
116.4005569999999921
21
-91.5684019999999919
0
LINE
8
BLACK
6
CONTINUOUS
10
116.4005569999999921
20
-91.5684019999999919
11
116.0683769999999981
21
-91.4925839999999937
0
LINE
8
BLACK
6
CONTINUOUS
10
116.0683769999999981
20
-91.4925839999999937
11
115.7297959999999932
21
-91.4544349999999895
0
LINE
8
BLACK
6
CONTINUOUS
10
115.7297959999999932
20
-91.4544349999999895
11
115.3890739999999937
21
-91.4544349999999895
0
LINE
8
BLACK
6
CONTINUOUS
10
115.3890739999999937
20
-91.4544349999999895
11
115.0504929999999888
21
-91.4925839999999937
0
LINE
8
BLACK
6
CONTINUOUS
10
115.0504929999999888
20
-91.4925839999999937
11
114.7183129999999949
21
-91.5684019999999919
0
LINE
8
BLACK
6
CONTINUOUS
10
114.7183129999999949
20
-91.5684019999999919
11
114.3967109999999963
21
-91.680934999999991
0
LINE
8
BLACK
6
CONTINUOUS
10
114.3967109999999963
20
-91.680934999999991
11
114.0897299999999888
21
-91.8287689999999941
0
LINE
8
BLACK
6
CONTINUOUS
10
114.0897299999999888
20
-91.8287689999999941
11
113.8012319999999988
21
-92.010044999999991
0
LINE
8
BLACK
6
CONTINUOUS
10
113.8012319999999988
20
-92.010044999999991
11
113.5348439999999925
21
-92.2224819999999994
0
LINE
8
BLACK
6
CONTINUOUS
10
113.5348439999999925
20
-92.2224819999999994
11
113.2939169999999933
21
-92.4634089999999986
0
LINE
8
BLACK
6
CONTINUOUS
10
113.2939169999999933
20
-92.4634089999999986
11
113.0814799999999991
21
-92.7297969999999907
0
LINE
8
BLACK
6
CONTINUOUS
10
113.0814799999999991
20
-92.7297969999999907
11
112.900203999999988
21
-93.0182949999999948
0
LINE
8
BLACK
6
CONTINUOUS
10
112.900203999999988
20
-93.0182949999999948
11
112.7523699999999991
21
-93.3252760000000023
0
LINE
8
BLACK
6
CONTINUOUS
10
112.7523699999999991
20
-93.3252760000000023
11
112.639837
21
-93.646878000000001
0
LINE
8
BLACK
6
CONTINUOUS
10
112.639837
20
-93.646878000000001
11
112.5640190000000018
21
-93.9790579999999949
0
LINE
8
BLACK
6
CONTINUOUS
10
112.5640190000000018
20
-93.9790579999999949
11
112.5258699999999976
21
-94.3176389999999998
0
LINE
8
BLACK
6
CONTINUOUS
10
112.5258699999999976
20
-94.3176389999999998
11
112.5258699999999976
21
-94.6583609999999993
0
LINE
8
BLACK
6
CONTINUOUS
10
226.3119509999999934
20
-91.4480029999999999
11
226.6490749999999821
21
-91.5249489999999923
0
LINE
8
BLACK
6
CONTINUOUS
10
226.6490749999999821
20
-91.5249489999999923
11
226.9754639999999881
21
-91.6391569999999973
0
LINE
8
BLACK
6
CONTINUOUS
10
226.9754639999999881
20
-91.6391569999999973
11
227.2870139999999992
21
-91.7891919999999999
0
LINE
8
BLACK
6
CONTINUOUS
10
227.2870139999999992
20
-91.7891919999999999
11
227.5798059999999907
21
-91.9731649999999945
0
LINE
8
BLACK
6
CONTINUOUS
10
227.5798059999999907
20
-91.9731649999999945
11
227.8501579999999933
21
-92.1887639999999919
0
LINE
8
BLACK
6
CONTINUOUS
10
227.8501579999999933
20
-92.1887639999999919
11
228.0946709999999769
21
-92.4332769999999897
0
LINE
8
BLACK
6
CONTINUOUS
10
228.0946709999999769
20
-92.4332769999999897
11
228.3102700000000027
21
-92.7036289999999923
0
LINE
8
BLACK
6
CONTINUOUS
10
228.3102700000000027
20
-92.7036289999999923
11
228.4942429999999831
21
-92.996420999999998
0
LINE
8
BLACK
6
CONTINUOUS
10
228.4942429999999831
20
-92.996420999999998
11
228.6442779999999857
21
-93.3079709999999949
0
LINE
8
BLACK
6
CONTINUOUS
10
228.6442779999999857
20
-93.3079709999999949
11
228.7584859999999765
21
-93.6343600000000009
0
LINE
8
BLACK
6
CONTINUOUS
10
228.7584859999999765
20
-93.6343600000000009
11
228.8354319999999973
21
-93.9714839999999896
0
LINE
8
BLACK
6
CONTINUOUS
10
228.8354319999999973
20
-93.9714839999999896
11
228.8741489999999885
21
-94.3151029999999935
0
LINE
8
BLACK
6
CONTINUOUS
10
228.8741489999999885
20
-94.3151029999999935
11
228.8741489999999885
21
-94.6608969999999914
0
LINE
8
BLACK
6
CONTINUOUS
10
228.8741489999999885
20
-94.6608969999999914
11
228.8354319999999973
21
-95.0045159999999953
0
LINE
8
BLACK
6
CONTINUOUS
10
228.8354319999999973
20
-95.0045159999999953
11
228.7584859999999765
21
-95.3416399999999982
0
LINE
8
BLACK
6
CONTINUOUS
10
228.7584859999999765
20
-95.3416399999999982
11
228.6442779999999857
21
-95.66802899999999
0
LINE
8
BLACK
6
CONTINUOUS
10
228.6442779999999857
20
-95.66802899999999
11
228.4942429999999831
21
-95.9795790000000011
0
LINE
8
BLACK
6
CONTINUOUS
10
228.4942429999999831
20
-95.9795790000000011
11
228.3102700000000027
21
-96.2723709999999926
0
LINE
8
BLACK
6
CONTINUOUS
10
228.3102700000000027
20
-96.2723709999999926
11
228.0946709999999769
21
-96.5427229999999952
0
LINE
8
BLACK
6
CONTINUOUS
10
228.0946709999999769
20
-96.5427229999999952
11
227.8501579999999933
21
-96.7872359999999929
0
LINE
8
BLACK
6
CONTINUOUS
10
227.8501579999999933
20
-96.7872359999999929
11
227.5798059999999907
21
-97.0028349999999904
0
LINE
8
BLACK
6
CONTINUOUS
10
227.5798059999999907
20
-97.0028349999999904
11
227.2870139999999992
21
-97.1868079999999992
0
LINE
8
BLACK
6
CONTINUOUS
10
227.2870139999999992
20
-97.1868079999999992
11
226.9754639999999881
21
-97.3368430000000018
0
LINE
8
BLACK
6
CONTINUOUS
10
226.9754639999999881
20
-97.3368430000000018
11
226.6490749999999821
21
-97.4510509999999925
0
LINE
8
BLACK
6
CONTINUOUS
10
226.6490749999999821
20
-97.4510509999999925
11
226.3119509999999934
21
-97.5279969999999992
0
LINE
8
BLACK
6
CONTINUOUS
10
226.3119509999999934
20
-97.5279969999999992
11
225.9683320000000037
21
-97.5667139999999904
0
LINE
8
BLACK
6
CONTINUOUS
10
225.9683320000000037
20
-97.5667139999999904
11
225.6225379999999916
21
-97.5667139999999904
0
LINE
8
BLACK
6
CONTINUOUS
10
225.6225379999999916
20
-97.5667139999999904
11
225.2789190000000019
21
-97.5279969999999992
0
LINE
8
BLACK
6
CONTINUOUS
10
225.2789190000000019
20
-97.5279969999999992
11
224.9417949999999848
21
-97.4510509999999925
0
LINE
8
BLACK
6
CONTINUOUS
10
224.9417949999999848
20
-97.4510509999999925
11
224.6154059999999788
21
-97.3368430000000018
0
LINE
8
BLACK
6
CONTINUOUS
10
224.6154059999999788
20
-97.3368430000000018
11
224.3038559999999961
21
-97.1868079999999992
0
LINE
8
BLACK
6
CONTINUOUS
10
224.3038559999999961
20
-97.1868079999999992
11
224.0110639999999762
21
-97.0028349999999904
0
LINE
8
BLACK
6
CONTINUOUS
10
224.0110639999999762
20
-97.0028349999999904
11
223.740712000000002
21
-96.7872359999999929
0
LINE
8
BLACK
6
CONTINUOUS
10
223.740712000000002
20
-96.7872359999999929
11
223.4961989999999901
21
-96.5427229999999952
0
LINE
8
BLACK
6
CONTINUOUS
10
223.4961989999999901
20
-96.5427229999999952
11
223.2805999999999926
21
-96.2723709999999926
0
LINE
8
BLACK
6
CONTINUOUS
10
223.2805999999999926
20
-96.2723709999999926
11
223.0966269999999838
21
-95.9795790000000011
0
LINE
8
BLACK
6
CONTINUOUS
10
223.0966269999999838
20
-95.9795790000000011
11
222.9465919999999812
21
-95.66802899999999
0
LINE
8
BLACK
6
CONTINUOUS
10
222.9465919999999812
20
-95.66802899999999
11
222.8323839999999905
21
-95.3416399999999982
0
LINE
8
BLACK
6
CONTINUOUS
10
222.8323839999999905
20
-95.3416399999999982
11
222.7554379999999981
21
-95.0045159999999953
0
LINE
8
BLACK
6
CONTINUOUS
10
222.7554379999999981
20
-95.0045159999999953
11
222.7167209999999784
21
-94.6608969999999914
0
LINE
8
BLACK
6
CONTINUOUS
10
222.7167209999999784
20
-94.6608969999999914
11
222.7167209999999784
21
-94.3176389999999998
0
LINE
8
BLACK
6
CONTINUOUS
10
222.7167209999999784
20
-94.3176389999999998
11
222.7167209999999784
21
-94.3151029999999935
0
LINE
8
BLACK
6
CONTINUOUS
10
222.7167209999999784
20
-94.3151029999999935
11
222.7554379999999981
21
-93.9714839999999896
0
LINE
8
BLACK
6
CONTINUOUS
10
222.7554379999999981
20
-93.9714839999999896
11
222.8323839999999905
21
-93.6343600000000009
0
LINE
8
BLACK
6
CONTINUOUS
10
222.8323839999999905
20
-93.6343600000000009
11
222.9465919999999812
21
-93.3079709999999949
0
LINE
8
BLACK
6
CONTINUOUS
10
222.9465919999999812
20
-93.3079709999999949
11
223.0966269999999838
21
-92.996420999999998
0
LINE
8
BLACK
6
CONTINUOUS
10
223.0966269999999838
20
-92.996420999999998
11
223.2805999999999926
21
-92.7036289999999923
0
LINE
8
BLACK
6
CONTINUOUS
10
223.2805999999999926
20
-92.7036289999999923
11
223.4961989999999901
21
-92.4332769999999897
0
LINE
8
BLACK
6
CONTINUOUS
10
223.4961989999999901
20
-92.4332769999999897
11
223.740712000000002
21
-92.1887639999999919
0
LINE
8
BLACK
6
CONTINUOUS
10
223.740712000000002
20
-92.1887639999999919
11
224.0110639999999762
21
-91.9731649999999945
0
LINE
8
BLACK
6
CONTINUOUS
10
224.0110639999999762
20
-91.9731649999999945
11
224.3038559999999961
21
-91.7891919999999999
0
LINE
8
BLACK
6
CONTINUOUS
10
224.3038559999999961
20
-91.7891919999999999
11
224.6154059999999788
21
-91.6391569999999973
0
LINE
8
BLACK
6
CONTINUOUS
10
224.6154059999999788
20
-91.6391569999999973
11
224.9417949999999848
21
-91.5249489999999923
0
LINE
8
BLACK
6
CONTINUOUS
10
224.9417949999999848
20
-91.5249489999999923
11
225.2789190000000019
21
-91.4480029999999999
0
LINE
8
BLACK
6
CONTINUOUS
10
225.2789190000000019
20
-91.4480029999999999
11
225.6225379999999916
21
-91.4092859999999945
0
LINE
8
BLACK
6
CONTINUOUS
10
225.6225379999999916
20
-91.4092859999999945
11
225.9683320000000037
21
-91.4092859999999945
0
LINE
8
BLACK
6
CONTINUOUS
10
225.9683320000000037
20
-91.4092859999999945
11
226.3119509999999934
21
-91.4480029999999999
0
LINE
8
BLACK
6
CONTINUOUS
10
222.7618699999999876
20
-94.6583609999999993
11
222.8000189999999918
21
-94.99694199999999
0
LINE
8
BLACK
6
CONTINUOUS
10
222.8000189999999918
20
-94.99694199999999
11
222.87583699999999
21
-95.3291219999999981
0
LINE
8
BLACK
6
CONTINUOUS
10
222.87583699999999
20
-95.3291219999999981
11
222.9883700000000033
21
-95.6507239999999967
0
LINE
8
BLACK
6
CONTINUOUS
10
222.9883700000000033
20
-95.6507239999999967
11
223.1362039999999922
21
-95.95770499999999
0
LINE
8
BLACK
6
CONTINUOUS
10
223.1362039999999922
20
-95.95770499999999
11
223.3174799999999891
21
-96.2462029999999942
0
LINE
8
BLACK
6
CONTINUOUS
10
223.3174799999999891
20
-96.2462029999999942
11
223.5299169999999833
21
-96.5125910000000005
0
LINE
8
BLACK
6
CONTINUOUS
10
223.5299169999999833
20
-96.5125910000000005
11
223.7708439999999825
21
-96.7535179999999997
0
LINE
8
BLACK
6
CONTINUOUS
10
223.7708439999999825
20
-96.7535179999999997
11
224.0372319999999888
21
-96.9659549999999939
0
LINE
8
BLACK
6
CONTINUOUS
10
224.0372319999999888
20
-96.9659549999999939
11
224.325729999999993
21
-97.1472309999999908
0
LINE
8
BLACK
6
CONTINUOUS
10
224.325729999999993
20
-97.1472309999999908
11
224.6327110000000005
21
-97.2950649999999939
0
LINE
8
BLACK
6
CONTINUOUS
10
224.6327110000000005
20
-97.2950649999999939
11
224.9543129999999849
21
-97.407597999999993
0
LINE
8
BLACK
6
CONTINUOUS
10
224.9543129999999849
20
-97.407597999999993
11
225.2864929999999788
21
-97.4834159999999912
0
LINE
8
BLACK
6
CONTINUOUS
10
225.2864929999999788
20
-97.4834159999999912
11
225.6250739999999837
21
-97.5215649999999954
0
LINE
8
BLACK
6
CONTINUOUS
10
225.6250739999999837
20
-97.5215649999999954
11
225.9657959999999832
21
-97.5215649999999954
0
LINE
8
BLACK
6
CONTINUOUS
10
225.9657959999999832
20
-97.5215649999999954
11
226.3043769999999881
21
-97.4834159999999912
0
LINE
8
BLACK
6
CONTINUOUS
10
226.3043769999999881
20
-97.4834159999999912
11
226.6365569999999821
21
-97.407597999999993
0
LINE
8
BLACK
6
CONTINUOUS
10
226.6365569999999821
20
-97.407597999999993
11
226.9581589999999949
21
-97.2950649999999939
0
LINE
8
BLACK
6
CONTINUOUS
10
226.9581589999999949
20
-97.2950649999999939
11
227.2651400000000024
21
-97.1472309999999908
0
LINE
8
BLACK
6
CONTINUOUS
10
227.2651400000000024
20
-97.1472309999999908
11
227.5536379999999781
21
-96.9659549999999939
0
LINE
8
BLACK
6
CONTINUOUS
10
227.5536379999999781
20
-96.9659549999999939
11
227.8200259999999844
21
-96.7535179999999997
0
LINE
8
BLACK
6
CONTINUOUS
10
227.8200259999999844
20
-96.7535179999999997
11
228.0609529999999836
21
-96.5125910000000005
0
LINE
8
BLACK
6
CONTINUOUS
10
228.0609529999999836
20
-96.5125910000000005
11
228.2733899999999778
21
-96.2462029999999942
0
LINE
8
BLACK
6
CONTINUOUS
10
228.2733899999999778
20
-96.2462029999999942
11
228.4546660000000031
21
-95.95770499999999
0
LINE
8
BLACK
6
CONTINUOUS
10
228.4546660000000031
20
-95.95770499999999
11
228.602499999999992
21
-95.6507239999999967
0
LINE
8
BLACK
6
CONTINUOUS
10
228.602499999999992
20
-95.6507239999999967
11
228.7150329999999769
21
-95.3291219999999981
0
LINE
8
BLACK
6
CONTINUOUS
10
228.7150329999999769
20
-95.3291219999999981
11
228.7908510000000035
21
-94.99694199999999
0
LINE
8
BLACK
6
CONTINUOUS
10
228.7908510000000035
20
-94.99694199999999
11
228.8289999999999793
21
-94.6583609999999993
0
LINE
8
BLACK
6
CONTINUOUS
10
228.8289999999999793
20
-94.6583609999999993
11
228.8289999999999793
21
-94.3176389999999998
0
LINE
8
BLACK
6
CONTINUOUS
10
228.8289999999999793
20
-94.3176389999999998
11
228.7908510000000035
21
-93.9790579999999949
0
LINE
8
BLACK
6
CONTINUOUS
10
228.7908510000000035
20
-93.9790579999999949
11
228.7150329999999769
21
-93.646878000000001
0
LINE
8
BLACK
6
CONTINUOUS
10
228.7150329999999769
20
-93.646878000000001
11
228.602499999999992
21
-93.3252760000000023
0
LINE
8
BLACK
6
CONTINUOUS
10
228.602499999999992
20
-93.3252760000000023
11
228.4546660000000031
21
-93.0182949999999948
0
LINE
8
BLACK
6
CONTINUOUS
10
228.4546660000000031
20
-93.0182949999999948
11
228.2733899999999778
21
-92.7297969999999907
0
LINE
8
BLACK
6
CONTINUOUS
10
228.2733899999999778
20
-92.7297969999999907
11
228.0609529999999836
21
-92.4634089999999986
0
LINE
8
BLACK
6
CONTINUOUS
10
228.0609529999999836
20
-92.4634089999999986
11
227.8200259999999844
21
-92.2224819999999994
0
LINE
8
BLACK
6
CONTINUOUS
10
227.8200259999999844
20
-92.2224819999999994
11
227.5536379999999781
21
-92.010044999999991
0
LINE
8
BLACK
6
CONTINUOUS
10
227.5536379999999781
20
-92.010044999999991
11
227.2651400000000024
21
-91.8287689999999941
0
LINE
8
BLACK
6
CONTINUOUS
10
227.2651400000000024
20
-91.8287689999999941
11
226.9581589999999949
21
-91.680934999999991
0
LINE
8
BLACK
6
CONTINUOUS
10
226.9581589999999949
20
-91.680934999999991
11
226.6365569999999821
21
-91.5684019999999919
0
LINE
8
BLACK
6
CONTINUOUS
10
226.6365569999999821
20
-91.5684019999999919
11
226.3043769999999881
21
-91.4925839999999937
0
LINE
8
BLACK
6
CONTINUOUS
10
226.3043769999999881
20
-91.4925839999999937
11
225.9657959999999832
21
-91.4544349999999895
0
LINE
8
BLACK
6
CONTINUOUS
10
225.9657959999999832
20
-91.4544349999999895
11
225.6250739999999837
21
-91.4544349999999895
0
LINE
8
BLACK
6
CONTINUOUS
10
225.6250739999999837
20
-91.4544349999999895
11
225.2864929999999788
21
-91.4925839999999937
0
LINE
8
BLACK
6
CONTINUOUS
10
225.2864929999999788
20
-91.4925839999999937
11
224.9543129999999849
21
-91.5684019999999919
0
LINE
8
BLACK
6
CONTINUOUS
10
224.9543129999999849
20
-91.5684019999999919
11
224.6327110000000005
21
-91.680934999999991
0
LINE
8
BLACK
6
CONTINUOUS
10
224.6327110000000005
20
-91.680934999999991
11
224.325729999999993
21
-91.8287689999999941
0
LINE
8
BLACK
6
CONTINUOUS
10
224.325729999999993
20
-91.8287689999999941
11
224.0372319999999888
21
-92.010044999999991
0
LINE
8
BLACK
6
CONTINUOUS
10
224.0372319999999888
20
-92.010044999999991
11
223.7708439999999825
21
-92.2224819999999994
0
LINE
8
BLACK
6
CONTINUOUS
10
223.7708439999999825
20
-92.2224819999999994
11
223.5299169999999833
21
-92.4634089999999986
0
LINE
8
BLACK
6
CONTINUOUS
10
223.5299169999999833
20
-92.4634089999999986
11
223.3174799999999891
21
-92.7297969999999907
0
LINE
8
BLACK
6
CONTINUOUS
10
223.3174799999999891
20
-92.7297969999999907
11
223.1362039999999922
21
-93.0182949999999948
0
LINE
8
BLACK
6
CONTINUOUS
10
223.1362039999999922
20
-93.0182949999999948
11
222.9883700000000033
21
-93.3252760000000023
0
LINE
8
BLACK
6
CONTINUOUS
10
222.9883700000000033
20
-93.3252760000000023
11
222.87583699999999
21
-93.646878000000001
0
LINE
8
BLACK
6
CONTINUOUS
10
222.87583699999999
20
-93.646878000000001
11
222.8000189999999918
21
-93.9790579999999949
0
LINE
8
BLACK
6
CONTINUOUS
10
222.8000189999999918
20
-93.9790579999999949
11
222.7618699999999876
21
-94.3176389999999998
0
LINE
8
BLACK
6
CONTINUOUS
10
222.7618699999999876
20
-94.3176389999999998
11
222.7618699999999876
21
-94.6583609999999993
0
LINE
8
BLACK
6
CONTINUOUS
10
230.0095669999999757
20
-89.976902999999993
11
230.0230969999999786
21
-89.9904329999999959
0
LINE
8
BLACK
6
CONTINUOUS
10
230.0230969999999786
20
-89.9904329999999959
11
230.0249999999999773
21
-90.
0
LINE
8
BLACK
6
CONTINUOUS
10
230.0249999999999773
20
-90.
11
230.0249999999999773
21
-140.
0
LINE
8
BLACK
6
CONTINUOUS
10
230.0249999999999773
20
-140.
11
230.0230969999999786
21
-140.0095670000000041
0
LINE
8
BLACK
6
CONTINUOUS
10
230.0230969999999786
20
-140.0095670000000041
11
230.0095669999999757
21
-140.023097000000007
0
LINE
8
BLACK
6
CONTINUOUS
10
230.0095669999999757
20
-140.023097000000007
11
230.
21
-140.0250000000000057
0
LINE
8
BLACK
6
CONTINUOUS
10
230.
20
-140.0250000000000057
11
70.
21
-140.0250000000000057
0
LINE
8
BLACK
6
CONTINUOUS
10
70.
20
-140.0250000000000057
11
69.9904329999999959
21
-140.023097000000007
0
LINE
8
BLACK
6
CONTINUOUS
10
69.9904329999999959
20
-140.023097000000007
11
69.976902999999993
21
-140.0095670000000041
0
LINE
8
BLACK
6
CONTINUOUS
10
69.976902999999993
20
-140.0095670000000041
11
69.9749999999999943
21
-140.
0
LINE
8
BLACK
6
CONTINUOUS
10
69.9749999999999943
20
-140.
11
69.9749999999999943
21
-90.
0
LINE
8
BLACK
6
CONTINUOUS
10
69.9749999999999943
20
-90.
11
69.976902999999993
21
-89.9904329999999959
0
LINE
8
BLACK
6
CONTINUOUS
10
69.976902999999993
20
-89.9904329999999959
11
69.9904329999999959
21
-89.976902999999993
0
LINE
8
BLACK
6
CONTINUOUS
10
69.9904329999999959
20
-89.976902999999993
11
70.
21
-89.9749999999999943
0
LINE
8
BLACK
6
CONTINUOUS
10
70.
20
-89.9749999999999943
11
230.
21
-89.9749999999999943
0
LINE
8
BLACK
6
CONTINUOUS
10
230.
20
-89.9749999999999943
11
230.0095669999999757
21
-89.976902999999993
0
LINE
8
BLACK
6
CONTINUOUS
10
70.0249999999999915
20
-90.0249999999999915
11
70.0249999999999915
21
-139.9749999999999943
0
LINE
8
BLACK
6
CONTINUOUS
10
70.0249999999999915
20
-139.9749999999999943
11
229.9749999999999943
21
-139.9749999999999943
0
LINE
8
BLACK
6
CONTINUOUS
10
229.9749999999999943
20
-139.9749999999999943
11
229.9749999999999943
21
-90.0249999999999915
0
LINE
8
BLACK
6
CONTINUOUS
10
229.9749999999999943
20
-90.0249999999999915
11
70.0249999999999915
21
-90.0249999999999915
0
CIRCLE
8
BLACK
10
127.7620000000000005
20
-107.1879999999999882
40
0.5
0
CIRCLE
8
BLACK
10
130.3019999999999925
20
-107.1879999999999882
40
0.5
0
CIRCLE
8
BLACK
10
132.8419999999999845
20
-107.1879999999999882
40
0.5
0
CIRCLE
8
BLACK
10
135.382000000000005
20
-107.1879999999999882
40
0.5
0
CIRCLE
8
BLACK
10
160.7819999999999823
20
-106.171999999999997
40
0.5
0
CIRCLE
8
BLACK
10
160.7819999999999823
20
-108.7119999999999891
40
0.5
0
CIRCLE
8
BLACK
10
160.7819999999999823
20
-111.2519999999999953
40
0.5
0
CIRCLE
8
BLACK
10
160.7819999999999823
20
-113.7920000000000016
40
0.5
0
CIRCLE
8
BLACK
10
160.7819999999999823
20
-116.3319999999999936
40
0.5
0
CIRCLE
8
BLACK
10
160.7819999999999823
20
-118.8719999999999999
40
0.5
0
CIRCLE
8
BLACK
10
160.7819999999999823
20
-121.4119999999999919
40
0.5
0
CIRCLE
8
BLACK
10
160.7819999999999823
20
-123.9519999999999982
40
0.5
0
CIRCLE
8
BLACK
10
133.8580000000000041
20
-136.9060000000000059
40
0.4445
0
CIRCLE
8
BLACK
10
133.8580000000000041
20
-134.3659999999999854
40
0.4445
0
CIRCLE
8
BLACK
10
133.8580000000000041
20
-131.8259999999999934
40
0.4445
0
CIRCLE
8
BLACK
10
133.8580000000000041
20
-129.2860000000000014
40
0.4445
0
CIRCLE
8
BLACK
10
133.8580000000000041
20
-126.7459999999999951
40
0.4445
0
CIRCLE
8
BLACK
10
133.8580000000000041
20
-124.2059999999999889
40
0.4445
0
CIRCLE
8
BLACK
10
133.8580000000000041
20
-121.6659999999999968
40
0.4445
0
CIRCLE
8
BLACK
10
149.0979999999999848
20
-121.6659999999999968
40
0.4445
0
CIRCLE
8
BLACK
10
149.0979999999999848
20
-124.2059999999999889
40
0.4445
0
CIRCLE
8
BLACK
10
149.0979999999999848
20
-126.7459999999999951
40
0.4445
0
CIRCLE
8
BLACK
10
149.0979999999999848
20
-129.2860000000000014
40
0.4445
0
CIRCLE
8
BLACK
10
149.0979999999999848
20
-131.8259999999999934
40
0.4445
0
CIRCLE
8
BLACK
10
149.0979999999999848
20
-134.3659999999999854
40
0.4445
0
CIRCLE
8
BLACK
10
149.0979999999999848
20
-136.9060000000000059
40
0.4445
0
CIRCLE
8
BLACK
10
86.2715000000000032
20
-115.3134999999999906
40
0.65
0
CIRCLE
8
BLACK
10
89.771499999999989
20
-122.8134999999999906
40
0.65
0
CIRCLE
8
BLACK
10
82.7715000000000032
20
-122.8134999999999906
40
0.65
0
CIRCLE
8
BLACK
10
106.271499999999989
20
-122.8134999999999906
40
0.65
0
CIRCLE
8
BLACK
10
106.271499999999989
20
-115.3134999999999906
40
0.65
0
CIRCLE
8
BLACK
10
124.7139999999999986
20
-94.9959999999999951
40
0.65
0
CIRCLE
8
BLACK
10
129.7939999999999827
20
-94.9959999999999951
40
0.65
0
CIRCLE
8
BLACK
10
134.8739999999999952
20
-94.9959999999999951
40
0.65
0
CIRCLE
8
BLACK
10
139.9540000000000077
20
-94.9959999999999951
40
0.65
0
CIRCLE
8
BLACK
10
145.0339999999999918
20
-94.9959999999999951
40
0.65
0
CIRCLE
8
BLACK
10
150.1140000000000043
20
-94.9959999999999951
40
0.65
0
CIRCLE
8
BLACK
10
85.8519999999999897
20
-95.25
40
0.65
0
CIRCLE
8
BLACK
10
90.9320000000000022
20
-95.25
40
0.65
0
CIRCLE
8
BLACK
10
96.0120000000000005
20
-95.25
40
0.65
  0
ENDSEC
  0
EOF
