0
SECTION
2
HEADER
9
$INSUNITS
70
4
9
$ACADVER
1
AC1014
9
$HANDSEED
5
FFFF
0
ENDSEC
0
SECTION
2
TABLES
0
TABLE
2
VPORT
5
8
100
AcDbSymbolTable
0
ENDTAB
0
TABLE
2
LTYPE
5
5
100
AcDbSymbolTable
0
LTYPE
5
14
100
AcDbSymbolTableRecord
100
AcDbLinetypeTableRecord
2
BYBLOCK
70
0
0
LTYPE
5
15
100
AcDbSymbolTableRecord
100
AcDbLinetypeTableRecord
2
BYLAYER
70
0
0
LTYPE
5
16
100
AcDbSymbolTableRecord
100
AcDbLinetypeTableRecord
2
DASHED
70
0
3
Dashed __ __ __ __ __ __ __ __ __ __ __ __ __ _
72
65
73
2
40
0.75
49
0.5
74
0
49
-0.25
74
0
0
ENDTAB
0
TABLE
2
LAYER
5
2
100
AcDbSymbolTable
70
2
0
LAYER
5
50
100
AcDbSymbolTableRecord
100
AcDbLayerTableRecord
2
0
70
0
62
7
6
CONTINUOUS
0
ENDTAB
0
TABLE
2
STYLE
5
3
100
AcDbSymbolTable
70
1
0
STYLE
5
11
100
AcDbSymbolTableRecord
100
AcDbTextStyleTableRecord
2
STANDARD
70
0
0
ENDTAB
0
TABLE
2
VIEW
5
6
100
AcDbSymbolTable
70
0
0
ENDTAB
0
TABLE
2
UCS
5
7
100
AcDbSymbolTable
70
0
0
ENDTAB
0
TABLE
2
APPID
5
9
100
AcDbSymbolTable
70
2
0
APPID
5
12
100
AcDbSymbolTableRecord
100
AcDbRegAppTableRecord
2
ACAD
70
0
0
ENDTAB
0
TABLE
2
DIMSTYLE
5
A
100
AcDbSymbolTable
70
1
0
ENDTAB
0
TABLE
2
BLOCK_RECORD
5
1
100
AcDbSymbolTable
70
1
0
BLOCK_RECORD
5
1F
100
AcDbSymbolTableRecord
100
AcDbBlockTableRecord
2
*MODEL_SPACE
0
BLOCK_RECORD
5
1B
100
AcDbSymbolTableRecord
100
AcDbBlockTableRecord
2
*PAPER_SPACE
0
ENDTAB
0
ENDSEC
0
SECTION
2
BLOCKS
0
BLOCK
5
20
100
AcDbEntity
100
AcDbBlockBegin
2
*MODEL_SPACE
0
ENDBLK
5
21
100
AcDbEntity
100
AcDbBlockEnd
0
BLOCK
5
1C
100
AcDbEntity
100
AcDbBlockBegin
2
*PAPER_SPACE
0
ENDBLK
5
1D
100
AcDbEntity
100
AcDbBlockEnd
0
ENDSEC
0
SECTION
2
ENTITIES
0
POINT
5
100
100
AcDbEntity
8
0
100
AcDbPoint
10
223.50846972722343
20
-78.868628496605197
30
0
0
POINT
5
101
100
AcDbEntity
8
0
100
AcDbPoint
10
223.50846972722343
20
-78.868628496605197
30
0
0
POINT
5
102
100
AcDbEntity
8
0
100
AcDbPoint
10
223.50846972722343
20
-138.8686284966052
30
0
0
POINT
5
103
100
AcDbEntity
8
0
100
AcDbPoint
10
223.50846972722343
20
-138.8686284966052
30
0
0
POINT
5
104
100
AcDbEntity
8
0
100
AcDbPoint
10
223.50846972722343
20
-198.8686284966052
30
0
0
POINT
5
105
100
AcDbEntity
8
0
100
AcDbPoint
10
223.50846972722343
20
-198.8686284966052
30
0
0
POINT
5
106
100
AcDbEntity
8
0
100
AcDbPoint
10
223.50846972722343
20
-258.8686284966052
30
0
0
POINT
5
107
100
AcDbEntity
8
0
100
AcDbPoint
10
223.50846972722343
20
-258.8686284966052
30
0
0
POINT
5
108
100
AcDbEntity
8
0
100
AcDbPoint
10
223.50846972722343
20
-318.8686284966052
30
0
0
POINT
5
109
100
AcDbEntity
8
0
100
AcDbPoint
10
223.50846972722343
20
-318.8686284966052
30
0
0
POINT
5
110
100
AcDbEntity
8
0
100
AcDbPoint
10
223.50846972722343
20
-78.868628496605197
30
0
0
POINT
5
111
100
AcDbEntity
8
0
100
AcDbPoint
10
223.50846972722343
20
-78.868628496605197
30
0
0
LINE
5
112
100
AcDbEntity
8
0
100
AcDbLine
10
67.713999999999999
20
-74.353999999999999
30
0
11
227.714
21
-74.353999999999999
31
0
0
LINE
5
113
100
AcDbEntity
8
0
100
AcDbLine
10
67.70443299999998
20
-124.402097
30
0
11
67.70443299999998
21
-74.355902999999998
31
0
0
LINE
5
114
100
AcDbEntity
8
0
100
AcDbLine
10
227.714
20
-124.404
30
0
11
67.713999999999999
21
-124.404
31
0
0
LINE
5
115
100
AcDbEntity
8
0
100
AcDbLine
10
227.73899999999998
20
-74.378999999999991
30
0
11
227.73899999999998
21
-124.379
31
0
0
CIRCLE
5
116
100
AcDbEntity
8
0
100
AcDbCircle
10
223.50846972722343
20
-78.868628496605197
30
0
40
0.80000000000000115
210
0
220
0
230
1
0
CIRCLE
5
117
100
AcDbEntity
8
0
100
AcDbCircle
10
223.50846972722343
20
-120.01862849660519
30
0
40
0.80000000000000115
210
0
220
0
230
1
0
CIRCLE
5
118
100
AcDbEntity
8
0
100
AcDbCircle
10
71.883469727223414
20
-120.01862849660519
30
0
40
0.80000000000000115
210
0
220
0
230
1
0
CIRCLE
5
119
100
AcDbEntity
8
0
100
AcDbCircle
10
71.883469727223414
20
-78.868628496605197
30
0
40
0.80000000000000115
210
0
220
0
230
1
0
CIRCLE
5
120
100
AcDbEntity
8
0
100
AcDbCircle
10
223.50846972722343
20
-120.01862849660519
30
0
40
0.80000000000000115
210
0
220
0
230
1
0
LINE
5
121
100
AcDbEntity
8
0
100
AcDbLine
10
67.70443299999998
20
-124.402097
30
0
11
67.70443299999998
21
-74.355902999999998
31
0
0
CIRCLE
5
122
100
AcDbEntity
8
0
100
AcDbCircle
10
223.50846972722343
20
-78.868628496605197
30
0
40
0.80000000000000115
210
0
220
0
230
1
0
LINE
5
123
100
AcDbEntity
8
0
100
AcDbLine
10
227.73899999999998
20
-74.378999999999991
30
0
11
227.73899999999998
21
-124.379
31
0
0
CIRCLE
5
124
100
AcDbEntity
8
0
100
AcDbCircle
10
71.883469727223414
20
-120.01862849660519
30
0
40
0.80000000000000115
210
0
220
0
230
1
0
LINE
5
125
100
AcDbEntity
8
0
100
AcDbLine
10
67.713999999999999
20
-74.353999999999999
30
0
11
227.714
21
-74.353999999999999
31
0
0
LINE
5
126
100
AcDbEntity
8
0
100
AcDbLine
10
227.714
20
-124.404
30
0
11
67.713999999999999
21
-124.404
31
0
0
CIRCLE
5
127
100
AcDbEntity
8
0
100
AcDbCircle
10
71.883469727223414
20
-78.868628496605197
30
0
40
0.80000000000000115
210
0
220
0
230
1
0
LINE
5
128
100
AcDbEntity
8
0
100
AcDbLine
10
227.714
20
-184.404
30
0
11
67.713999999999999
21
-184.404
31
0
0
LINE
5
129
100
AcDbEntity
8
0
100
AcDbLine
10
67.713999999999999
20
-134.35400000000001
30
0
11
227.714
21
-134.35400000000001
31
0
0
LINE
5
130
100
AcDbEntity
8
0
100
AcDbLine
10
67.713999999999999
20
-134.35400000000001
30
0
11
227.714
21
-134.35400000000001
31
0
0
LINE
5
131
100
AcDbEntity
8
0
100
AcDbLine
10
227.714
20
-184.404
30
0
11
67.713999999999999
21
-184.404
31
0
0
CIRCLE
5
132
100
AcDbEntity
8
0
100
AcDbCircle
10
71.883469727223414
20
-138.8686284966052
30
0
40
0.80000000000000115
210
0
220
0
230
1
0
CIRCLE
5
133
100
AcDbEntity
8
0
100
AcDbCircle
10
71.883469727223414
20
-138.8686284966052
30
0
40
0.80000000000000115
210
0
220
0
230
1
0
CIRCLE
5
134
100
AcDbEntity
8
0
100
AcDbCircle
10
71.883469727223414
20
-180.01862849660517
30
0
40
0.80000000000000115
210
0
220
0
230
1
0
CIRCLE
5
135
100
AcDbEntity
8
0
100
AcDbCircle
10
71.883469727223414
20
-180.01862849660517
30
0
40
0.80000000000000115
210
0
220
0
230
1
0
LINE
5
136
100
AcDbEntity
8
0
100
AcDbLine
10
67.70443299999998
20
-184.402097
30
0
11
67.70443299999998
21
-134.35590300000001
31
0
0
LINE
5
137
100
AcDbEntity
8
0
100
AcDbLine
10
67.70443299999998
20
-184.402097
30
0
11
67.70443299999998
21
-134.35590300000001
31
0
0
CIRCLE
5
138
100
AcDbEntity
8
0
100
AcDbCircle
10
223.50846972722343
20
-180.01862849660517
30
0
40
0.80000000000000115
210
0
220
0
230
1
0
CIRCLE
5
139
100
AcDbEntity
8
0
100
AcDbCircle
10
223.50846972722343
20
-180.01862849660517
30
0
40
0.80000000000000115
210
0
220
0
230
1
0
CIRCLE
5
140
100
AcDbEntity
8
0
100
AcDbCircle
10
223.50846972722343
20
-138.8686284966052
30
0
40
0.80000000000000115
210
0
220
0
230
1
0
CIRCLE
5
141
100
AcDbEntity
8
0
100
AcDbCircle
10
223.50846972722343
20
-138.8686284966052
30
0
40
0.80000000000000115
210
0
220
0
230
1
0
LINE
5
142
100
AcDbEntity
8
0
100
AcDbLine
10
227.73899999999998
20
-134.37899999999999
30
0
11
227.73899999999998
21
-184.37899999999999
31
0
0
LINE
5
143
100
AcDbEntity
8
0
100
AcDbLine
10
227.73899999999998
20
-134.37899999999999
30
0
11
227.73899999999998
21
-184.37899999999999
31
0
0
LINE
5
144
100
AcDbEntity
8
0
100
AcDbLine
10
227.714
20
-244.404
30
0
11
67.713999999999999
21
-244.404
31
0
0
LINE
5
145
100
AcDbEntity
8
0
100
AcDbLine
10
67.713999999999999
20
-194.35400000000001
30
0
11
227.714
21
-194.35400000000001
31
0
0
LINE
5
146
100
AcDbEntity
8
0
100
AcDbLine
10
67.713999999999999
20
-194.35400000000001
30
0
11
227.714
21
-194.35400000000001
31
0
0
LINE
5
147
100
AcDbEntity
8
0
100
AcDbLine
10
227.714
20
-244.404
30
0
11
67.713999999999999
21
-244.404
31
0
0
CIRCLE
5
148
100
AcDbEntity
8
0
100
AcDbCircle
10
71.883469727223414
20
-198.8686284966052
30
0
40
0.80000000000000115
210
0
220
0
230
1
0
CIRCLE
5
149
100
AcDbEntity
8
0
100
AcDbCircle
10
71.883469727223414
20
-198.8686284966052
30
0
40
0.80000000000000115
210
0
220
0
230
1
0
CIRCLE
5
150
100
AcDbEntity
8
0
100
AcDbCircle
10
71.883469727223414
20
-240.01862849660517
30
0
40
0.80000000000000115
210
0
220
0
230
1
0
CIRCLE
5
151
100
AcDbEntity
8
0
100
AcDbCircle
10
71.883469727223414
20
-240.01862849660517
30
0
40
0.80000000000000115
210
0
220
0
230
1
0
LINE
5
152
100
AcDbEntity
8
0
100
AcDbLine
10
67.70443299999998
20
-244.402097
30
0
11
67.70443299999998
21
-194.35590300000001
31
0
0
LINE
5
153
100
AcDbEntity
8
0
100
AcDbLine
10
67.70443299999998
20
-244.402097
30
0
11
67.70443299999998
21
-194.35590300000001
31
0
0
CIRCLE
5
154
100
AcDbEntity
8
0
100
AcDbCircle
10
223.50846972722343
20
-240.01862849660517
30
0
40
0.80000000000000115
210
0
220
0
230
1
0
CIRCLE
5
155
100
AcDbEntity
8
0
100
AcDbCircle
10
223.50846972722343
20
-240.01862849660517
30
0
40
0.80000000000000115
210
0
220
0
230
1
0
CIRCLE
5
156
100
AcDbEntity
8
0
100
AcDbCircle
10
223.50846972722343
20
-198.8686284966052
30
0
40
0.80000000000000115
210
0
220
0
230
1
0
CIRCLE
5
157
100
AcDbEntity
8
0
100
AcDbCircle
10
223.50846972722343
20
-198.8686284966052
30
0
40
0.80000000000000115
210
0
220
0
230
1
0
LINE
5
158
100
AcDbEntity
8
0
100
AcDbLine
10
227.73899999999998
20
-194.37899999999999
30
0
11
227.73899999999998
21
-244.37899999999999
31
0
0
LINE
5
159
100
AcDbEntity
8
0
100
AcDbLine
10
227.73899999999998
20
-194.37899999999999
30
0
11
227.73899999999998
21
-244.37899999999999
31
0
0
LINE
5
160
100
AcDbEntity
8
0
100
AcDbLine
10
227.714
20
-304.404
30
0
11
67.713999999999999
21
-304.404
31
0
0
LINE
5
161
100
AcDbEntity
8
0
100
AcDbLine
10
67.713999999999999
20
-254.35399999999998
30
0
11
227.714
21
-254.35399999999998
31
0
0
LINE
5
162
100
AcDbEntity
8
0
100
AcDbLine
10
67.713999999999999
20
-254.35399999999998
30
0
11
227.714
21
-254.35399999999998
31
0
0
LINE
5
163
100
AcDbEntity
8
0
100
AcDbLine
10
227.714
20
-304.404
30
0
11
67.713999999999999
21
-304.404
31
0
0
CIRCLE
5
164
100
AcDbEntity
8
0
100
AcDbCircle
10
71.883469727223414
20
-258.8686284966052
30
0
40
0.80000000000000115
210
0
220
0
230
1
0
CIRCLE
5
165
100
AcDbEntity
8
0
100
AcDbCircle
10
71.883469727223414
20
-258.8686284966052
30
0
40
0.80000000000000115
210
0
220
0
230
1
0
CIRCLE
5
166
100
AcDbEntity
8
0
100
AcDbCircle
10
71.883469727223414
20
-300.01862849660517
30
0
40
0.80000000000000115
210
0
220
0
230
1
0
CIRCLE
5
167
100
AcDbEntity
8
0
100
AcDbCircle
10
71.883469727223414
20
-300.01862849660517
30
0
40
0.80000000000000115
210
0
220
0
230
1
0
LINE
5
168
100
AcDbEntity
8
0
100
AcDbLine
10
67.70443299999998
20
-304.40209699999997
30
0
11
67.70443299999998
21
-254.35590299999998
31
0
0
LINE
5
169
100
AcDbEntity
8
0
100
AcDbLine
10
67.70443299999998
20
-304.40209699999997
30
0
11
67.70443299999998
21
-254.35590299999998
31
0
0
CIRCLE
5
170
100
AcDbEntity
8
0
100
AcDbCircle
10
223.50846972722343
20
-300.01862849660517
30
0
40
0.80000000000000115
210
0
220
0
230
1
0
CIRCLE
5
171
100
AcDbEntity
8
0
100
AcDbCircle
10
223.50846972722343
20
-300.01862849660517
30
0
40
0.80000000000000115
210
0
220
0
230
1
0
CIRCLE
5
172
100
AcDbEntity
8
0
100
AcDbCircle
10
223.50846972722343
20
-258.8686284966052
30
0
40
0.80000000000000115
210
0
220
0
230
1
0
CIRCLE
5
173
100
AcDbEntity
8
0
100
AcDbCircle
10
223.50846972722343
20
-258.8686284966052
30
0
40
0.80000000000000115
210
0
220
0
230
1
0
LINE
5
174
100
AcDbEntity
8
0
100
AcDbLine
10
227.73899999999998
20
-254.37899999999996
30
0
11
227.73899999999998
21
-304.37900000000002
31
0
0
LINE
5
175
100
AcDbEntity
8
0
100
AcDbLine
10
227.73899999999998
20
-254.37899999999996
30
0
11
227.73899999999998
21
-304.37900000000002
31
0
0
LINE
5
176
100
AcDbEntity
8
0
100
AcDbLine
10
227.714
20
-364.404
30
0
11
67.713999999999999
21
-364.404
31
0
0
LINE
5
177
100
AcDbEntity
8
0
100
AcDbLine
10
67.713999999999999
20
-314.35399999999998
30
0
11
227.714
21
-314.35399999999998
31
0
0
LINE
5
178
100
AcDbEntity
8
0
100
AcDbLine
10
67.713999999999999
20
-314.35399999999998
30
0
11
227.714
21
-314.35399999999998
31
0
0
LINE
5
179
100
AcDbEntity
8
0
100
AcDbLine
10
227.714
20
-364.404
30
0
11
67.713999999999999
21
-364.404
31
0
0
CIRCLE
5
180
100
AcDbEntity
8
0
100
AcDbCircle
10
71.883469727223414
20
-318.8686284966052
30
0
40
0.80000000000000115
210
0
220
0
230
1
0
CIRCLE
5
181
100
AcDbEntity
8
0
100
AcDbCircle
10
71.883469727223414
20
-318.8686284966052
30
0
40
0.80000000000000115
210
0
220
0
230
1
0
CIRCLE
5
182
100
AcDbEntity
8
0
100
AcDbCircle
10
71.883469727223414
20
-360.01862849660512
30
0
40
0.80000000000000115
210
0
220
0
230
1
0
CIRCLE
5
183
100
AcDbEntity
8
0
100
AcDbCircle
10
71.883469727223414
20
-360.01862849660512
30
0
40
0.80000000000000115
210
0
220
0
230
1
0
LINE
5
184
100
AcDbEntity
8
0
100
AcDbLine
10
67.70443299999998
20
-364.40209699999997
30
0
11
67.70443299999998
21
-314.35590299999996
31
0
0
LINE
5
185
100
AcDbEntity
8
0
100
AcDbLine
10
67.70443299999998
20
-364.40209699999997
30
0
11
67.70443299999998
21
-314.35590299999996
31
0
0
CIRCLE
5
186
100
AcDbEntity
8
0
100
AcDbCircle
10
223.50846972722343
20
-360.01862849660512
30
0
40
0.80000000000000115
210
0
220
0
230
1
0
CIRCLE
5
187
100
AcDbEntity
8
0
100
AcDbCircle
10
223.50846972722343
20
-360.01862849660512
30
0
40
0.80000000000000115
210
0
220
0
230
1
0
CIRCLE
5
188
100
AcDbEntity
8
0
100
AcDbCircle
10
223.50846972722343
20
-318.8686284966052
30
0
40
0.80000000000000115
210
0
220
0
230
1
0
CIRCLE
5
189
100
AcDbEntity
8
0
100
AcDbCircle
10
223.50846972722343
20
-318.8686284966052
30
0
40
0.80000000000000115
210
0
220
0
230
1
0
LINE
5
190
100
AcDbEntity
8
0
100
AcDbLine
10
227.73899999999998
20
-314.37899999999996
30
0
11
227.73899999999998
21
-364.37900000000002
31
0
0
LINE
5
191
100
AcDbEntity
8
0
100
AcDbLine
10
227.73899999999998
20
-314.37899999999996
30
0
11
227.73899999999998
21
-364.37900000000002
31
0
0
LINE
5
192
100
AcDbEntity
8
0
100
AcDbLine
10
227.714
20
-124.404
30
0
11
67.713999999999999
21
-124.404
31
0
0
LINE
5
193
100
AcDbEntity
8
0
100
AcDbLine
10
67.713999999999999
20
-74.353999999999999
30
0
11
227.714
21
-74.353999999999999
31
0
0
LINE
5
194
100
AcDbEntity
8
0
100
AcDbLine
10
67.713999999999999
20
-74.353999999999999
30
0
11
227.714
21
-74.353999999999999
31
0
0
LINE
5
195
100
AcDbEntity
8
0
100
AcDbLine
10
227.714
20
-124.404
30
0
11
67.713999999999999
21
-124.404
31
0
0
CIRCLE
5
196
100
AcDbEntity
8
0
100
AcDbCircle
10
71.883469727223414
20
-78.868628496605197
30
0
40
0.80000000000000115
210
0
220
0
230
1
0
CIRCLE
5
197
100
AcDbEntity
8
0
100
AcDbCircle
10
71.883469727223414
20
-78.868628496605197
30
0
40
0.80000000000000115
210
0
220
0
230
1
0
CIRCLE
5
198
100
AcDbEntity
8
0
100
AcDbCircle
10
71.883469727223414
20
-120.01862849660519
30
0
40
0.80000000000000115
210
0
220
0
230
1
0
CIRCLE
5
199
100
AcDbEntity
8
0
100
AcDbCircle
10
71.883469727223414
20
-120.01862849660519
30
0
40
0.80000000000000115
210
0
220
0
230
1
0
LINE
5
200
100
AcDbEntity
8
0
100
AcDbLine
10
67.70443299999998
20
-124.402097
30
0
11
67.70443299999998
21
-74.355902999999998
31
0
0
LINE
5
201
100
AcDbEntity
8
0
100
AcDbLine
10
67.70443299999998
20
-124.402097
30
0
11
67.70443299999998
21
-74.355902999999998
31
0
0
CIRCLE
5
202
100
AcDbEntity
8
0
100
AcDbCircle
10
223.50846972722343
20
-120.01862849660519
30
0
40
0.80000000000000115
210
0
220
0
230
1
0
CIRCLE
5
203
100
AcDbEntity
8
0
100
AcDbCircle
10
223.50846972722343
20
-120.01862849660519
30
0
40
0.80000000000000115
210
0
220
0
230
1
0
CIRCLE
5
204
100
AcDbEntity
8
0
100
AcDbCircle
10
223.50846972722343
20
-78.868628496605197
30
0
40
0.80000000000000115
210
0
220
0
230
1
0
CIRCLE
5
205
100
AcDbEntity
8
0
100
AcDbCircle
10
223.50846972722343
20
-78.868628496605197
30
0
40
0.80000000000000115
210
0
220
0
230
1
0
LINE
5
206
100
AcDbEntity
8
0
100
AcDbLine
10
227.73899999999998
20
-74.378999999999991
30
0
11
227.73899999999998
21
-124.379
31
0
0
LINE
5
207
100
AcDbEntity
8
0
100
AcDbLine
10
227.73899999999998
20
-74.378999999999991
30
0
11
227.73899999999998
21
-124.379
31
0
0
ENDSEC
0
SECTION
2
OBJECTS
0
DICTIONARY
5
C
100
AcDbDictionary
3
ACAD_GROUP
350
D
3
ACAD_MLINESTYLE
350
17
0
DICTIONARY
5
D
100
AcDbDictionary
0
DICTIONARY
5
1A
330
C
100
AcDbDictionary
0
DICTIONARY
5
17
100
AcDbDictionary
0
ENDSEC
0
EOF
