%TF.GenerationSoftware,KiCad,Pcbnew,9.0.2*%
%TF.CreationDate,2025-08-19T17:48:26+02:00*%
%TF.ProjectId,esp32c6-charger,65737033-3263-4362-9d63-686172676572,rev?*%
%TF.SameCoordinates,Original*%
%TF.FileFunction,Legend,Bot*%
%TF.FilePolarity,Positive*%
%FSLAX45Y45*%
G04 Gerber Fmt 4.5, Leading zero omitted, Abs format (unit mm)*
G04 Created by KiCad (PCBNEW 9.0.2) date 2025-08-19 17:48:26*
%MOMM*%
%LPD*%
G01*
G04 APERTURE LIST*
%ADD10C,0.100000*%
%ADD11C,0.200000*%
%ADD12C,0.101600*%
%ADD13C,0.150000*%
%ADD14C,0.127000*%
%ADD15C,0.504000*%
%ADD16C,0.120000*%
G04 APERTURE END LIST*
D10*
X19558000Y-11176000D02*
X19558000Y-11607800D01*
X19989800Y-11201400D02*
G75*
G02*
X19024600Y-11201400I-482600J0D01*
G01*
X19024600Y-11201400D02*
G75*
G02*
X19989800Y-11201400I482600J0D01*
G01*
X19456400Y-10795000D02*
X19456400Y-11607800D01*
X13639800Y-10312400D02*
X13639800Y-10109200D01*
X19456400Y-11176000D02*
X19100800Y-11176000D01*
X14681200Y-10312400D02*
X14490700Y-10312400D01*
X14681200Y-10312400D02*
X14681200Y-10109200D01*
X19558000Y-11176000D02*
X19761200Y-11176000D01*
X19558000Y-11607800D02*
X19558000Y-11176000D01*
X13843000Y-10312400D02*
X13970000Y-10312400D01*
X13639800Y-10312400D02*
X13411200Y-10312400D01*
X12801600Y-10312400D02*
X13030200Y-10312400D01*
X12801600Y-10312400D02*
X12801600Y-10109200D01*
X13843000Y-10312400D02*
X13843000Y-10109200D01*
X14573031Y-10102804D02*
X14582554Y-10098042D01*
X14582554Y-10098042D02*
X14596840Y-10098042D01*
X14596840Y-10098042D02*
X14611126Y-10102804D01*
X14611126Y-10102804D02*
X14620650Y-10112328D01*
X14620650Y-10112328D02*
X14625411Y-10121851D01*
X14625411Y-10121851D02*
X14630173Y-10140899D01*
X14630173Y-10140899D02*
X14630173Y-10155185D01*
X14630173Y-10155185D02*
X14625411Y-10174232D01*
X14625411Y-10174232D02*
X14620650Y-10183756D01*
X14620650Y-10183756D02*
X14611126Y-10193280D01*
X14611126Y-10193280D02*
X14596840Y-10198042D01*
X14596840Y-10198042D02*
X14587316Y-10198042D01*
X14587316Y-10198042D02*
X14573031Y-10193280D01*
X14573031Y-10193280D02*
X14568269Y-10188518D01*
X14568269Y-10188518D02*
X14568269Y-10155185D01*
X14568269Y-10155185D02*
X14587316Y-10155185D01*
X14525411Y-10198042D02*
X14525411Y-10098042D01*
X14525411Y-10098042D02*
X14468269Y-10198042D01*
X14468269Y-10198042D02*
X14468269Y-10098042D01*
X14420650Y-10198042D02*
X14420650Y-10098042D01*
X14420650Y-10098042D02*
X14396840Y-10098042D01*
X14396840Y-10098042D02*
X14382554Y-10102804D01*
X14382554Y-10102804D02*
X14373031Y-10112328D01*
X14373031Y-10112328D02*
X14368269Y-10121851D01*
X14368269Y-10121851D02*
X14363507Y-10140899D01*
X14363507Y-10140899D02*
X14363507Y-10155185D01*
X14363507Y-10155185D02*
X14368269Y-10174232D01*
X14368269Y-10174232D02*
X14373031Y-10183756D01*
X14373031Y-10183756D02*
X14382554Y-10193280D01*
X14382554Y-10193280D02*
X14396840Y-10198042D01*
X14396840Y-10198042D02*
X14420650Y-10198042D01*
X14447611Y-10350442D02*
X14447611Y-10250442D01*
X14447611Y-10250442D02*
X14423802Y-10250442D01*
X14423802Y-10250442D02*
X14409516Y-10255204D01*
X14409516Y-10255204D02*
X14399992Y-10264728D01*
X14399992Y-10264728D02*
X14395231Y-10274251D01*
X14395231Y-10274251D02*
X14390469Y-10293299D01*
X14390469Y-10293299D02*
X14390469Y-10307585D01*
X14390469Y-10307585D02*
X14395231Y-10326632D01*
X14395231Y-10326632D02*
X14399992Y-10336156D01*
X14399992Y-10336156D02*
X14409516Y-10345680D01*
X14409516Y-10345680D02*
X14423802Y-10350442D01*
X14423802Y-10350442D02*
X14447611Y-10350442D01*
X14309516Y-10345680D02*
X14319040Y-10350442D01*
X14319040Y-10350442D02*
X14338088Y-10350442D01*
X14338088Y-10350442D02*
X14347611Y-10345680D01*
X14347611Y-10345680D02*
X14352373Y-10336156D01*
X14352373Y-10336156D02*
X14352373Y-10298061D01*
X14352373Y-10298061D02*
X14347611Y-10288537D01*
X14347611Y-10288537D02*
X14338088Y-10283775D01*
X14338088Y-10283775D02*
X14319040Y-10283775D01*
X14319040Y-10283775D02*
X14309516Y-10288537D01*
X14309516Y-10288537D02*
X14304754Y-10298061D01*
X14304754Y-10298061D02*
X14304754Y-10307585D01*
X14304754Y-10307585D02*
X14352373Y-10317109D01*
X14276183Y-10283775D02*
X14238088Y-10283775D01*
X14261897Y-10250442D02*
X14261897Y-10336156D01*
X14261897Y-10336156D02*
X14257135Y-10345680D01*
X14257135Y-10345680D02*
X14247611Y-10350442D01*
X14247611Y-10350442D02*
X14238088Y-10350442D01*
X14166659Y-10345680D02*
X14176183Y-10350442D01*
X14176183Y-10350442D02*
X14195230Y-10350442D01*
X14195230Y-10350442D02*
X14204754Y-10345680D01*
X14204754Y-10345680D02*
X14209516Y-10336156D01*
X14209516Y-10336156D02*
X14209516Y-10298061D01*
X14209516Y-10298061D02*
X14204754Y-10288537D01*
X14204754Y-10288537D02*
X14195230Y-10283775D01*
X14195230Y-10283775D02*
X14176183Y-10283775D01*
X14176183Y-10283775D02*
X14166659Y-10288537D01*
X14166659Y-10288537D02*
X14161897Y-10298061D01*
X14161897Y-10298061D02*
X14161897Y-10307585D01*
X14161897Y-10307585D02*
X14209516Y-10317109D01*
X14076183Y-10345680D02*
X14085707Y-10350442D01*
X14085707Y-10350442D02*
X14104754Y-10350442D01*
X14104754Y-10350442D02*
X14114278Y-10345680D01*
X14114278Y-10345680D02*
X14119040Y-10340918D01*
X14119040Y-10340918D02*
X14123802Y-10331394D01*
X14123802Y-10331394D02*
X14123802Y-10302823D01*
X14123802Y-10302823D02*
X14119040Y-10293299D01*
X14119040Y-10293299D02*
X14114278Y-10288537D01*
X14114278Y-10288537D02*
X14104754Y-10283775D01*
X14104754Y-10283775D02*
X14085707Y-10283775D01*
X14085707Y-10283775D02*
X14076183Y-10288537D01*
X14047611Y-10283775D02*
X14009516Y-10283775D01*
X14033326Y-10250442D02*
X14033326Y-10336156D01*
X14033326Y-10336156D02*
X14028564Y-10345680D01*
X14028564Y-10345680D02*
X14019040Y-10350442D01*
X14019040Y-10350442D02*
X14009516Y-10350442D01*
X12520392Y-10098042D02*
X12568011Y-10098042D01*
X12568011Y-10098042D02*
X12572773Y-10145661D01*
X12572773Y-10145661D02*
X12568011Y-10140899D01*
X12568011Y-10140899D02*
X12558488Y-10136137D01*
X12558488Y-10136137D02*
X12534678Y-10136137D01*
X12534678Y-10136137D02*
X12525154Y-10140899D01*
X12525154Y-10140899D02*
X12520392Y-10145661D01*
X12520392Y-10145661D02*
X12515631Y-10155185D01*
X12515631Y-10155185D02*
X12515631Y-10178994D01*
X12515631Y-10178994D02*
X12520392Y-10188518D01*
X12520392Y-10188518D02*
X12525154Y-10193280D01*
X12525154Y-10193280D02*
X12534678Y-10198042D01*
X12534678Y-10198042D02*
X12558488Y-10198042D01*
X12558488Y-10198042D02*
X12568011Y-10193280D01*
X12568011Y-10193280D02*
X12572773Y-10188518D01*
X12487059Y-10098042D02*
X12453726Y-10198042D01*
X12453726Y-10198042D02*
X12420392Y-10098042D01*
D11*
X18989223Y-11658484D02*
X18989223Y-11458484D01*
X18989223Y-11458484D02*
X18922556Y-11601341D01*
X18922556Y-11601341D02*
X18855890Y-11458484D01*
X18855890Y-11458484D02*
X18855890Y-11658484D01*
X18674937Y-11658484D02*
X18674937Y-11553722D01*
X18674937Y-11553722D02*
X18684461Y-11534674D01*
X18684461Y-11534674D02*
X18703509Y-11525150D01*
X18703509Y-11525150D02*
X18741604Y-11525150D01*
X18741604Y-11525150D02*
X18760652Y-11534674D01*
X18674937Y-11648960D02*
X18693985Y-11658484D01*
X18693985Y-11658484D02*
X18741604Y-11658484D01*
X18741604Y-11658484D02*
X18760652Y-11648960D01*
X18760652Y-11648960D02*
X18770176Y-11629912D01*
X18770176Y-11629912D02*
X18770176Y-11610865D01*
X18770176Y-11610865D02*
X18760652Y-11591817D01*
X18760652Y-11591817D02*
X18741604Y-11582293D01*
X18741604Y-11582293D02*
X18693985Y-11582293D01*
X18693985Y-11582293D02*
X18674937Y-11572769D01*
X18579699Y-11658484D02*
X18579699Y-11458484D01*
X18560652Y-11582293D02*
X18503509Y-11658484D01*
X18503509Y-11525150D02*
X18579699Y-11601341D01*
X18341604Y-11648960D02*
X18360652Y-11658484D01*
X18360652Y-11658484D02*
X18398747Y-11658484D01*
X18398747Y-11658484D02*
X18417795Y-11648960D01*
X18417795Y-11648960D02*
X18427318Y-11629912D01*
X18427318Y-11629912D02*
X18427318Y-11553722D01*
X18427318Y-11553722D02*
X18417795Y-11534674D01*
X18417795Y-11534674D02*
X18398747Y-11525150D01*
X18398747Y-11525150D02*
X18360652Y-11525150D01*
X18360652Y-11525150D02*
X18341604Y-11534674D01*
X18341604Y-11534674D02*
X18332080Y-11553722D01*
X18332080Y-11553722D02*
X18332080Y-11572769D01*
X18332080Y-11572769D02*
X18427318Y-11591817D01*
D10*
X13307792Y-10350442D02*
X13355411Y-10350442D01*
X13355411Y-10350442D02*
X13355411Y-10250442D01*
X13260173Y-10350442D02*
X13269697Y-10345680D01*
X13269697Y-10345680D02*
X13274459Y-10340918D01*
X13274459Y-10340918D02*
X13279221Y-10331394D01*
X13279221Y-10331394D02*
X13279221Y-10302823D01*
X13279221Y-10302823D02*
X13274459Y-10293299D01*
X13274459Y-10293299D02*
X13269697Y-10288537D01*
X13269697Y-10288537D02*
X13260173Y-10283775D01*
X13260173Y-10283775D02*
X13245888Y-10283775D01*
X13245888Y-10283775D02*
X13236364Y-10288537D01*
X13236364Y-10288537D02*
X13231602Y-10293299D01*
X13231602Y-10293299D02*
X13226840Y-10302823D01*
X13226840Y-10302823D02*
X13226840Y-10331394D01*
X13226840Y-10331394D02*
X13231602Y-10340918D01*
X13231602Y-10340918D02*
X13236364Y-10345680D01*
X13236364Y-10345680D02*
X13245888Y-10350442D01*
X13245888Y-10350442D02*
X13260173Y-10350442D01*
X13141126Y-10345680D02*
X13150650Y-10350442D01*
X13150650Y-10350442D02*
X13169697Y-10350442D01*
X13169697Y-10350442D02*
X13179221Y-10345680D01*
X13179221Y-10345680D02*
X13183983Y-10340918D01*
X13183983Y-10340918D02*
X13188745Y-10331394D01*
X13188745Y-10331394D02*
X13188745Y-10302823D01*
X13188745Y-10302823D02*
X13183983Y-10293299D01*
X13183983Y-10293299D02*
X13179221Y-10288537D01*
X13179221Y-10288537D02*
X13169697Y-10283775D01*
X13169697Y-10283775D02*
X13150650Y-10283775D01*
X13150650Y-10283775D02*
X13141126Y-10288537D01*
X13098269Y-10350442D02*
X13098269Y-10250442D01*
X13088745Y-10312347D02*
X13060173Y-10350442D01*
X13060173Y-10283775D02*
X13098269Y-10321870D01*
X19984812Y-11874442D02*
X19984812Y-11774442D01*
X19941954Y-11874442D02*
X19941954Y-11822061D01*
X19941954Y-11822061D02*
X19946716Y-11812537D01*
X19946716Y-11812537D02*
X19956240Y-11807775D01*
X19956240Y-11807775D02*
X19970526Y-11807775D01*
X19970526Y-11807775D02*
X19980050Y-11812537D01*
X19980050Y-11812537D02*
X19984812Y-11817299D01*
X19908621Y-11807775D02*
X19870526Y-11807775D01*
X19894335Y-11774442D02*
X19894335Y-11860156D01*
X19894335Y-11860156D02*
X19889573Y-11869680D01*
X19889573Y-11869680D02*
X19880050Y-11874442D01*
X19880050Y-11874442D02*
X19870526Y-11874442D01*
X19851478Y-11807775D02*
X19813383Y-11807775D01*
X19837192Y-11774442D02*
X19837192Y-11860156D01*
X19837192Y-11860156D02*
X19832431Y-11869680D01*
X19832431Y-11869680D02*
X19822907Y-11874442D01*
X19822907Y-11874442D02*
X19813383Y-11874442D01*
X19780050Y-11807775D02*
X19780050Y-11907775D01*
X19780050Y-11812537D02*
X19770526Y-11807775D01*
X19770526Y-11807775D02*
X19751478Y-11807775D01*
X19751478Y-11807775D02*
X19741954Y-11812537D01*
X19741954Y-11812537D02*
X19737192Y-11817299D01*
X19737192Y-11817299D02*
X19732431Y-11826823D01*
X19732431Y-11826823D02*
X19732431Y-11855394D01*
X19732431Y-11855394D02*
X19737192Y-11864918D01*
X19737192Y-11864918D02*
X19741954Y-11869680D01*
X19741954Y-11869680D02*
X19751478Y-11874442D01*
X19751478Y-11874442D02*
X19770526Y-11874442D01*
X19770526Y-11874442D02*
X19780050Y-11869680D01*
X19694335Y-11869680D02*
X19684811Y-11874442D01*
X19684811Y-11874442D02*
X19665764Y-11874442D01*
X19665764Y-11874442D02*
X19656240Y-11869680D01*
X19656240Y-11869680D02*
X19651478Y-11860156D01*
X19651478Y-11860156D02*
X19651478Y-11855394D01*
X19651478Y-11855394D02*
X19656240Y-11845870D01*
X19656240Y-11845870D02*
X19665764Y-11841108D01*
X19665764Y-11841108D02*
X19680050Y-11841108D01*
X19680050Y-11841108D02*
X19689573Y-11836347D01*
X19689573Y-11836347D02*
X19694335Y-11826823D01*
X19694335Y-11826823D02*
X19694335Y-11822061D01*
X19694335Y-11822061D02*
X19689573Y-11812537D01*
X19689573Y-11812537D02*
X19680050Y-11807775D01*
X19680050Y-11807775D02*
X19665764Y-11807775D01*
X19665764Y-11807775D02*
X19656240Y-11812537D01*
X19608621Y-11864918D02*
X19603859Y-11869680D01*
X19603859Y-11869680D02*
X19608621Y-11874442D01*
X19608621Y-11874442D02*
X19613383Y-11869680D01*
X19613383Y-11869680D02*
X19608621Y-11864918D01*
X19608621Y-11864918D02*
X19608621Y-11874442D01*
X19608621Y-11812537D02*
X19603859Y-11817299D01*
X19603859Y-11817299D02*
X19608621Y-11822061D01*
X19608621Y-11822061D02*
X19613383Y-11817299D01*
X19613383Y-11817299D02*
X19608621Y-11812537D01*
X19608621Y-11812537D02*
X19608621Y-11822061D01*
X19489573Y-11769680D02*
X19575288Y-11898251D01*
X19384812Y-11769680D02*
X19470526Y-11898251D01*
X19308621Y-11807775D02*
X19308621Y-11888728D01*
X19308621Y-11888728D02*
X19313383Y-11898251D01*
X19313383Y-11898251D02*
X19318145Y-11903013D01*
X19318145Y-11903013D02*
X19327669Y-11907775D01*
X19327669Y-11907775D02*
X19341954Y-11907775D01*
X19341954Y-11907775D02*
X19351478Y-11903013D01*
X19308621Y-11869680D02*
X19318145Y-11874442D01*
X19318145Y-11874442D02*
X19337192Y-11874442D01*
X19337192Y-11874442D02*
X19346716Y-11869680D01*
X19346716Y-11869680D02*
X19351478Y-11864918D01*
X19351478Y-11864918D02*
X19356240Y-11855394D01*
X19356240Y-11855394D02*
X19356240Y-11826823D01*
X19356240Y-11826823D02*
X19351478Y-11817299D01*
X19351478Y-11817299D02*
X19346716Y-11812537D01*
X19346716Y-11812537D02*
X19337192Y-11807775D01*
X19337192Y-11807775D02*
X19318145Y-11807775D01*
X19318145Y-11807775D02*
X19308621Y-11812537D01*
X19222907Y-11869680D02*
X19232431Y-11874442D01*
X19232431Y-11874442D02*
X19251478Y-11874442D01*
X19251478Y-11874442D02*
X19261002Y-11869680D01*
X19261002Y-11869680D02*
X19265764Y-11860156D01*
X19265764Y-11860156D02*
X19265764Y-11822061D01*
X19265764Y-11822061D02*
X19261002Y-11812537D01*
X19261002Y-11812537D02*
X19251478Y-11807775D01*
X19251478Y-11807775D02*
X19232431Y-11807775D01*
X19232431Y-11807775D02*
X19222907Y-11812537D01*
X19222907Y-11812537D02*
X19218145Y-11822061D01*
X19218145Y-11822061D02*
X19218145Y-11831585D01*
X19218145Y-11831585D02*
X19265764Y-11841108D01*
X19175288Y-11874442D02*
X19175288Y-11807775D01*
X19175288Y-11826823D02*
X19170526Y-11817299D01*
X19170526Y-11817299D02*
X19165764Y-11812537D01*
X19165764Y-11812537D02*
X19156240Y-11807775D01*
X19156240Y-11807775D02*
X19146716Y-11807775D01*
X19127669Y-11807775D02*
X19089573Y-11807775D01*
X19113383Y-11774442D02*
X19113383Y-11860156D01*
X19113383Y-11860156D02*
X19108621Y-11869680D01*
X19108621Y-11869680D02*
X19099097Y-11874442D01*
X19099097Y-11874442D02*
X19089573Y-11874442D01*
X19056240Y-11807775D02*
X19056240Y-11893489D01*
X19056240Y-11893489D02*
X19061002Y-11903013D01*
X19061002Y-11903013D02*
X19070526Y-11907775D01*
X19070526Y-11907775D02*
X19075288Y-11907775D01*
X19056240Y-11774442D02*
X19061002Y-11779204D01*
X19061002Y-11779204D02*
X19056240Y-11783966D01*
X19056240Y-11783966D02*
X19051478Y-11779204D01*
X19051478Y-11779204D02*
X19056240Y-11774442D01*
X19056240Y-11774442D02*
X19056240Y-11783966D01*
X18965764Y-11874442D02*
X18965764Y-11822061D01*
X18965764Y-11822061D02*
X18970526Y-11812537D01*
X18970526Y-11812537D02*
X18980050Y-11807775D01*
X18980050Y-11807775D02*
X18999097Y-11807775D01*
X18999097Y-11807775D02*
X19008621Y-11812537D01*
X18965764Y-11869680D02*
X18975288Y-11874442D01*
X18975288Y-11874442D02*
X18999097Y-11874442D01*
X18999097Y-11874442D02*
X19008621Y-11869680D01*
X19008621Y-11869680D02*
X19013383Y-11860156D01*
X19013383Y-11860156D02*
X19013383Y-11850632D01*
X19013383Y-11850632D02*
X19008621Y-11841108D01*
X19008621Y-11841108D02*
X18999097Y-11836347D01*
X18999097Y-11836347D02*
X18975288Y-11836347D01*
X18975288Y-11836347D02*
X18965764Y-11831585D01*
X18918145Y-11807775D02*
X18918145Y-11874442D01*
X18918145Y-11817299D02*
X18913383Y-11812537D01*
X18913383Y-11812537D02*
X18903859Y-11807775D01*
X18903859Y-11807775D02*
X18889573Y-11807775D01*
X18889573Y-11807775D02*
X18880050Y-11812537D01*
X18880050Y-11812537D02*
X18875288Y-11822061D01*
X18875288Y-11822061D02*
X18875288Y-11874442D01*
X18784811Y-11874442D02*
X18784811Y-11822061D01*
X18784811Y-11822061D02*
X18789573Y-11812537D01*
X18789573Y-11812537D02*
X18799097Y-11807775D01*
X18799097Y-11807775D02*
X18818145Y-11807775D01*
X18818145Y-11807775D02*
X18827669Y-11812537D01*
X18784811Y-11869680D02*
X18794335Y-11874442D01*
X18794335Y-11874442D02*
X18818145Y-11874442D01*
X18818145Y-11874442D02*
X18827669Y-11869680D01*
X18827669Y-11869680D02*
X18832430Y-11860156D01*
X18832430Y-11860156D02*
X18832430Y-11850632D01*
X18832430Y-11850632D02*
X18827669Y-11841108D01*
X18827669Y-11841108D02*
X18818145Y-11836347D01*
X18818145Y-11836347D02*
X18794335Y-11836347D01*
X18794335Y-11836347D02*
X18784811Y-11831585D01*
X18741954Y-11869680D02*
X18732430Y-11874442D01*
X18732430Y-11874442D02*
X18713383Y-11874442D01*
X18713383Y-11874442D02*
X18703859Y-11869680D01*
X18703859Y-11869680D02*
X18699097Y-11860156D01*
X18699097Y-11860156D02*
X18699097Y-11855394D01*
X18699097Y-11855394D02*
X18703859Y-11845870D01*
X18703859Y-11845870D02*
X18713383Y-11841108D01*
X18713383Y-11841108D02*
X18727669Y-11841108D01*
X18727669Y-11841108D02*
X18737192Y-11836347D01*
X18737192Y-11836347D02*
X18741954Y-11826823D01*
X18741954Y-11826823D02*
X18741954Y-11822061D01*
X18741954Y-11822061D02*
X18737192Y-11812537D01*
X18737192Y-11812537D02*
X18727669Y-11807775D01*
X18727669Y-11807775D02*
X18713383Y-11807775D01*
X18713383Y-11807775D02*
X18703859Y-11812537D01*
X18661002Y-11869680D02*
X18651478Y-11874442D01*
X18651478Y-11874442D02*
X18632430Y-11874442D01*
X18632430Y-11874442D02*
X18622907Y-11869680D01*
X18622907Y-11869680D02*
X18618145Y-11860156D01*
X18618145Y-11860156D02*
X18618145Y-11855394D01*
X18618145Y-11855394D02*
X18622907Y-11845870D01*
X18622907Y-11845870D02*
X18632430Y-11841108D01*
X18632430Y-11841108D02*
X18646716Y-11841108D01*
X18646716Y-11841108D02*
X18656240Y-11836347D01*
X18656240Y-11836347D02*
X18661002Y-11826823D01*
X18661002Y-11826823D02*
X18661002Y-11822061D01*
X18661002Y-11822061D02*
X18656240Y-11812537D01*
X18656240Y-11812537D02*
X18646716Y-11807775D01*
X18646716Y-11807775D02*
X18632430Y-11807775D01*
X18632430Y-11807775D02*
X18622907Y-11812537D01*
X18575288Y-11874442D02*
X18575288Y-11807775D01*
X18575288Y-11774442D02*
X18580049Y-11779204D01*
X18580049Y-11779204D02*
X18575288Y-11783966D01*
X18575288Y-11783966D02*
X18570526Y-11779204D01*
X18570526Y-11779204D02*
X18575288Y-11774442D01*
X18575288Y-11774442D02*
X18575288Y-11783966D01*
X18489573Y-11869680D02*
X18499097Y-11874442D01*
X18499097Y-11874442D02*
X18518145Y-11874442D01*
X18518145Y-11874442D02*
X18527669Y-11869680D01*
X18527669Y-11869680D02*
X18532430Y-11860156D01*
X18532430Y-11860156D02*
X18532430Y-11822061D01*
X18532430Y-11822061D02*
X18527669Y-11812537D01*
X18527669Y-11812537D02*
X18518145Y-11807775D01*
X18518145Y-11807775D02*
X18499097Y-11807775D01*
X18499097Y-11807775D02*
X18489573Y-11812537D01*
X18489573Y-11812537D02*
X18484811Y-11822061D01*
X18484811Y-11822061D02*
X18484811Y-11831585D01*
X18484811Y-11831585D02*
X18532430Y-11841108D01*
X18446716Y-11869680D02*
X18437192Y-11874442D01*
X18437192Y-11874442D02*
X18418145Y-11874442D01*
X18418145Y-11874442D02*
X18408621Y-11869680D01*
X18408621Y-11869680D02*
X18403859Y-11860156D01*
X18403859Y-11860156D02*
X18403859Y-11855394D01*
X18403859Y-11855394D02*
X18408621Y-11845870D01*
X18408621Y-11845870D02*
X18418145Y-11841108D01*
X18418145Y-11841108D02*
X18432430Y-11841108D01*
X18432430Y-11841108D02*
X18441954Y-11836347D01*
X18441954Y-11836347D02*
X18446716Y-11826823D01*
X18446716Y-11826823D02*
X18446716Y-11822061D01*
X18446716Y-11822061D02*
X18441954Y-11812537D01*
X18441954Y-11812537D02*
X18432430Y-11807775D01*
X18432430Y-11807775D02*
X18418145Y-11807775D01*
X18418145Y-11807775D02*
X18408621Y-11812537D01*
X18361002Y-11864918D02*
X18356240Y-11869680D01*
X18356240Y-11869680D02*
X18361002Y-11874442D01*
X18361002Y-11874442D02*
X18365764Y-11869680D01*
X18365764Y-11869680D02*
X18361002Y-11864918D01*
X18361002Y-11864918D02*
X18361002Y-11874442D01*
X18270526Y-11874442D02*
X18270526Y-11774442D01*
X18270526Y-11869680D02*
X18280050Y-11874442D01*
X18280050Y-11874442D02*
X18299097Y-11874442D01*
X18299097Y-11874442D02*
X18308621Y-11869680D01*
X18308621Y-11869680D02*
X18313383Y-11864918D01*
X18313383Y-11864918D02*
X18318145Y-11855394D01*
X18318145Y-11855394D02*
X18318145Y-11826823D01*
X18318145Y-11826823D02*
X18313383Y-11817299D01*
X18313383Y-11817299D02*
X18308621Y-11812537D01*
X18308621Y-11812537D02*
X18299097Y-11807775D01*
X18299097Y-11807775D02*
X18280050Y-11807775D01*
X18280050Y-11807775D02*
X18270526Y-11812537D01*
X18184811Y-11869680D02*
X18194335Y-11874442D01*
X18194335Y-11874442D02*
X18213383Y-11874442D01*
X18213383Y-11874442D02*
X18222907Y-11869680D01*
X18222907Y-11869680D02*
X18227669Y-11860156D01*
X18227669Y-11860156D02*
X18227669Y-11822061D01*
X18227669Y-11822061D02*
X18222907Y-11812537D01*
X18222907Y-11812537D02*
X18213383Y-11807775D01*
X18213383Y-11807775D02*
X18194335Y-11807775D01*
X18194335Y-11807775D02*
X18184811Y-11812537D01*
X18184811Y-11812537D02*
X18180050Y-11822061D01*
X18180050Y-11822061D02*
X18180050Y-11831585D01*
X18180050Y-11831585D02*
X18227669Y-11841108D01*
X18146716Y-11807775D02*
X18122907Y-11874442D01*
X18122907Y-11874442D02*
X18099097Y-11807775D01*
X17989573Y-11769680D02*
X18075288Y-11898251D01*
X17956240Y-11874442D02*
X17956240Y-11807775D01*
X17956240Y-11817299D02*
X17951478Y-11812537D01*
X17951478Y-11812537D02*
X17941954Y-11807775D01*
X17941954Y-11807775D02*
X17927669Y-11807775D01*
X17927669Y-11807775D02*
X17918145Y-11812537D01*
X17918145Y-11812537D02*
X17913383Y-11822061D01*
X17913383Y-11822061D02*
X17913383Y-11874442D01*
X17913383Y-11822061D02*
X17908621Y-11812537D01*
X17908621Y-11812537D02*
X17899097Y-11807775D01*
X17899097Y-11807775D02*
X17884811Y-11807775D01*
X17884811Y-11807775D02*
X17875288Y-11812537D01*
X17875288Y-11812537D02*
X17870526Y-11822061D01*
X17870526Y-11822061D02*
X17870526Y-11874442D01*
X17780050Y-11874442D02*
X17780050Y-11822061D01*
X17780050Y-11822061D02*
X17784811Y-11812537D01*
X17784811Y-11812537D02*
X17794335Y-11807775D01*
X17794335Y-11807775D02*
X17813383Y-11807775D01*
X17813383Y-11807775D02*
X17822907Y-11812537D01*
X17780050Y-11869680D02*
X17789573Y-11874442D01*
X17789573Y-11874442D02*
X17813383Y-11874442D01*
X17813383Y-11874442D02*
X17822907Y-11869680D01*
X17822907Y-11869680D02*
X17827669Y-11860156D01*
X17827669Y-11860156D02*
X17827669Y-11850632D01*
X17827669Y-11850632D02*
X17822907Y-11841108D01*
X17822907Y-11841108D02*
X17813383Y-11836347D01*
X17813383Y-11836347D02*
X17789573Y-11836347D01*
X17789573Y-11836347D02*
X17780050Y-11831585D01*
X17732430Y-11874442D02*
X17732430Y-11774442D01*
X17722907Y-11836347D02*
X17694335Y-11874442D01*
X17694335Y-11807775D02*
X17732430Y-11845870D01*
X17613383Y-11869680D02*
X17622907Y-11874442D01*
X17622907Y-11874442D02*
X17641954Y-11874442D01*
X17641954Y-11874442D02*
X17651478Y-11869680D01*
X17651478Y-11869680D02*
X17656240Y-11860156D01*
X17656240Y-11860156D02*
X17656240Y-11822061D01*
X17656240Y-11822061D02*
X17651478Y-11812537D01*
X17651478Y-11812537D02*
X17641954Y-11807775D01*
X17641954Y-11807775D02*
X17622907Y-11807775D01*
X17622907Y-11807775D02*
X17613383Y-11812537D01*
X17613383Y-11812537D02*
X17608621Y-11822061D01*
X17608621Y-11822061D02*
X17608621Y-11831585D01*
X17608621Y-11831585D02*
X17656240Y-11841108D01*
X13085535Y-10098042D02*
X13023631Y-10098042D01*
X13023631Y-10098042D02*
X13056964Y-10136137D01*
X13056964Y-10136137D02*
X13042678Y-10136137D01*
X13042678Y-10136137D02*
X13033154Y-10140899D01*
X13033154Y-10140899D02*
X13028392Y-10145661D01*
X13028392Y-10145661D02*
X13023631Y-10155185D01*
X13023631Y-10155185D02*
X13023631Y-10178994D01*
X13023631Y-10178994D02*
X13028392Y-10188518D01*
X13028392Y-10188518D02*
X13033154Y-10193280D01*
X13033154Y-10193280D02*
X13042678Y-10198042D01*
X13042678Y-10198042D02*
X13071250Y-10198042D01*
X13071250Y-10198042D02*
X13080773Y-10193280D01*
X13080773Y-10193280D02*
X13085535Y-10188518D01*
X12995059Y-10098042D02*
X12961726Y-10198042D01*
X12961726Y-10198042D02*
X12928392Y-10098042D01*
X12904583Y-10098042D02*
X12842678Y-10098042D01*
X12842678Y-10098042D02*
X12876011Y-10136137D01*
X12876011Y-10136137D02*
X12861726Y-10136137D01*
X12861726Y-10136137D02*
X12852202Y-10140899D01*
X12852202Y-10140899D02*
X12847440Y-10145661D01*
X12847440Y-10145661D02*
X12842678Y-10155185D01*
X12842678Y-10155185D02*
X12842678Y-10178994D01*
X12842678Y-10178994D02*
X12847440Y-10188518D01*
X12847440Y-10188518D02*
X12852202Y-10193280D01*
X12852202Y-10193280D02*
X12861726Y-10198042D01*
X12861726Y-10198042D02*
X12890297Y-10198042D01*
X12890297Y-10198042D02*
X12899821Y-10193280D01*
X12899821Y-10193280D02*
X12904583Y-10188518D01*
X15106431Y-10102804D02*
X15115954Y-10098042D01*
X15115954Y-10098042D02*
X15130240Y-10098042D01*
X15130240Y-10098042D02*
X15144526Y-10102804D01*
X15144526Y-10102804D02*
X15154050Y-10112328D01*
X15154050Y-10112328D02*
X15158811Y-10121851D01*
X15158811Y-10121851D02*
X15163573Y-10140899D01*
X15163573Y-10140899D02*
X15163573Y-10155185D01*
X15163573Y-10155185D02*
X15158811Y-10174232D01*
X15158811Y-10174232D02*
X15154050Y-10183756D01*
X15154050Y-10183756D02*
X15144526Y-10193280D01*
X15144526Y-10193280D02*
X15130240Y-10198042D01*
X15130240Y-10198042D02*
X15120716Y-10198042D01*
X15120716Y-10198042D02*
X15106431Y-10193280D01*
X15106431Y-10193280D02*
X15101669Y-10188518D01*
X15101669Y-10188518D02*
X15101669Y-10155185D01*
X15101669Y-10155185D02*
X15120716Y-10155185D01*
X15058811Y-10198042D02*
X15058811Y-10098042D01*
X15058811Y-10098042D02*
X15001669Y-10198042D01*
X15001669Y-10198042D02*
X15001669Y-10098042D01*
X14954050Y-10198042D02*
X14954050Y-10098042D01*
X14954050Y-10098042D02*
X14930240Y-10098042D01*
X14930240Y-10098042D02*
X14915954Y-10102804D01*
X14915954Y-10102804D02*
X14906431Y-10112328D01*
X14906431Y-10112328D02*
X14901669Y-10121851D01*
X14901669Y-10121851D02*
X14896907Y-10140899D01*
X14896907Y-10140899D02*
X14896907Y-10155185D01*
X14896907Y-10155185D02*
X14901669Y-10174232D01*
X14901669Y-10174232D02*
X14906431Y-10183756D01*
X14906431Y-10183756D02*
X14915954Y-10193280D01*
X14915954Y-10193280D02*
X14930240Y-10198042D01*
X14930240Y-10198042D02*
X14954050Y-10198042D01*
D12*
X14074019Y-13166452D02*
X14074019Y-13115047D01*
X14074019Y-13115047D02*
X14077043Y-13109000D01*
X14077043Y-13109000D02*
X14080067Y-13105976D01*
X14080067Y-13105976D02*
X14086114Y-13102952D01*
X14086114Y-13102952D02*
X14098209Y-13102952D01*
X14098209Y-13102952D02*
X14104257Y-13105976D01*
X14104257Y-13105976D02*
X14107281Y-13109000D01*
X14107281Y-13109000D02*
X14110305Y-13115047D01*
X14110305Y-13115047D02*
X14110305Y-13166452D01*
X14173805Y-13102952D02*
X14137519Y-13102952D01*
X14155662Y-13102952D02*
X14155662Y-13166452D01*
X14155662Y-13166452D02*
X14149614Y-13157381D01*
X14149614Y-13157381D02*
X14143567Y-13151333D01*
X14143567Y-13151333D02*
X14137519Y-13148309D01*
D13*
X12693867Y-12562482D02*
X12727200Y-12514863D01*
X12751009Y-12562482D02*
X12751009Y-12462482D01*
X12751009Y-12462482D02*
X12712914Y-12462482D01*
X12712914Y-12462482D02*
X12703390Y-12467244D01*
X12703390Y-12467244D02*
X12698628Y-12472006D01*
X12698628Y-12472006D02*
X12693867Y-12481529D01*
X12693867Y-12481529D02*
X12693867Y-12495815D01*
X12693867Y-12495815D02*
X12698628Y-12505339D01*
X12698628Y-12505339D02*
X12703390Y-12510101D01*
X12703390Y-12510101D02*
X12712914Y-12514863D01*
X12712914Y-12514863D02*
X12751009Y-12514863D01*
X12655771Y-12472006D02*
X12651009Y-12467244D01*
X12651009Y-12467244D02*
X12641486Y-12462482D01*
X12641486Y-12462482D02*
X12617676Y-12462482D01*
X12617676Y-12462482D02*
X12608152Y-12467244D01*
X12608152Y-12467244D02*
X12603390Y-12472006D01*
X12603390Y-12472006D02*
X12598628Y-12481529D01*
X12598628Y-12481529D02*
X12598628Y-12491053D01*
X12598628Y-12491053D02*
X12603390Y-12505339D01*
X12603390Y-12505339D02*
X12660533Y-12562482D01*
X12660533Y-12562482D02*
X12598628Y-12562482D01*
X12688667Y-11902082D02*
X12722000Y-11854463D01*
X12745809Y-11902082D02*
X12745809Y-11802082D01*
X12745809Y-11802082D02*
X12707714Y-11802082D01*
X12707714Y-11802082D02*
X12698190Y-11806844D01*
X12698190Y-11806844D02*
X12693428Y-11811606D01*
X12693428Y-11811606D02*
X12688667Y-11821129D01*
X12688667Y-11821129D02*
X12688667Y-11835415D01*
X12688667Y-11835415D02*
X12693428Y-11844939D01*
X12693428Y-11844939D02*
X12698190Y-11849701D01*
X12698190Y-11849701D02*
X12707714Y-11854463D01*
X12707714Y-11854463D02*
X12745809Y-11854463D01*
X12593428Y-11902082D02*
X12650571Y-11902082D01*
X12622000Y-11902082D02*
X12622000Y-11802082D01*
X12622000Y-11802082D02*
X12631524Y-11816368D01*
X12631524Y-11816368D02*
X12641047Y-11825891D01*
X12641047Y-11825891D02*
X12650571Y-11830653D01*
X9490959Y-11176832D02*
X9490959Y-11076832D01*
X9433817Y-11176832D02*
X9476674Y-11119689D01*
X9433817Y-11076832D02*
X9490959Y-11133975D01*
X9338579Y-11176832D02*
X9395721Y-11176832D01*
X9367150Y-11176832D02*
X9367150Y-11076832D01*
X9367150Y-11076832D02*
X9376674Y-11091118D01*
X9376674Y-11091118D02*
X9386198Y-11100641D01*
X9386198Y-11100641D02*
X9395721Y-11105403D01*
X15476533Y-9140282D02*
X15476533Y-9211710D01*
X15476533Y-9211710D02*
X15481295Y-9225996D01*
X15481295Y-9225996D02*
X15490819Y-9235520D01*
X15490819Y-9235520D02*
X15505105Y-9240282D01*
X15505105Y-9240282D02*
X15514628Y-9240282D01*
X15376533Y-9240282D02*
X15433676Y-9240282D01*
X15405105Y-9240282D02*
X15405105Y-9140282D01*
X15405105Y-9140282D02*
X15414628Y-9154568D01*
X15414628Y-9154568D02*
X15424152Y-9164091D01*
X15424152Y-9164091D02*
X15433676Y-9168853D01*
X9126533Y-10102482D02*
X9126533Y-10173910D01*
X9126533Y-10173910D02*
X9131295Y-10188196D01*
X9131295Y-10188196D02*
X9140819Y-10197720D01*
X9140819Y-10197720D02*
X9155105Y-10202482D01*
X9155105Y-10202482D02*
X9164629Y-10202482D01*
X9083676Y-10112006D02*
X9078914Y-10107244D01*
X9078914Y-10107244D02*
X9069390Y-10102482D01*
X9069390Y-10102482D02*
X9045581Y-10102482D01*
X9045581Y-10102482D02*
X9036057Y-10107244D01*
X9036057Y-10107244D02*
X9031295Y-10112006D01*
X9031295Y-10112006D02*
X9026533Y-10121530D01*
X9026533Y-10121530D02*
X9026533Y-10131053D01*
X9026533Y-10131053D02*
X9031295Y-10145339D01*
X9031295Y-10145339D02*
X9088438Y-10202482D01*
X9088438Y-10202482D02*
X9026533Y-10202482D01*
X12074524Y-12464206D02*
X12084048Y-12459444D01*
X12084048Y-12459444D02*
X12093571Y-12449920D01*
X12093571Y-12449920D02*
X12107857Y-12435634D01*
X12107857Y-12435634D02*
X12117381Y-12430872D01*
X12117381Y-12430872D02*
X12126905Y-12430872D01*
X12122143Y-12454682D02*
X12131667Y-12449920D01*
X12131667Y-12449920D02*
X12141190Y-12440396D01*
X12141190Y-12440396D02*
X12145952Y-12421348D01*
X12145952Y-12421348D02*
X12145952Y-12388015D01*
X12145952Y-12388015D02*
X12141190Y-12368968D01*
X12141190Y-12368968D02*
X12131667Y-12359444D01*
X12131667Y-12359444D02*
X12122143Y-12354682D01*
X12122143Y-12354682D02*
X12103095Y-12354682D01*
X12103095Y-12354682D02*
X12093571Y-12359444D01*
X12093571Y-12359444D02*
X12084048Y-12368968D01*
X12084048Y-12368968D02*
X12079286Y-12388015D01*
X12079286Y-12388015D02*
X12079286Y-12421348D01*
X12079286Y-12421348D02*
X12084048Y-12440396D01*
X12084048Y-12440396D02*
X12093571Y-12449920D01*
X12093571Y-12449920D02*
X12103095Y-12454682D01*
X12103095Y-12454682D02*
X12122143Y-12454682D01*
X12041190Y-12364206D02*
X12036428Y-12359444D01*
X12036428Y-12359444D02*
X12026905Y-12354682D01*
X12026905Y-12354682D02*
X12003095Y-12354682D01*
X12003095Y-12354682D02*
X11993571Y-12359444D01*
X11993571Y-12359444D02*
X11988809Y-12364206D01*
X11988809Y-12364206D02*
X11984048Y-12373729D01*
X11984048Y-12373729D02*
X11984048Y-12383253D01*
X11984048Y-12383253D02*
X11988809Y-12397539D01*
X11988809Y-12397539D02*
X12045952Y-12454682D01*
X12045952Y-12454682D02*
X11984048Y-12454682D01*
D14*
%TO.C,U1*%
X13258800Y-12077700D02*
X13258800Y-13792200D01*
X13449300Y-11887200D02*
X14846300Y-11887200D01*
X13698300Y-13982700D02*
X13698673Y-14083727D01*
X13748673Y-14133700D02*
X14548200Y-14133700D01*
X14598200Y-14083700D02*
X14598200Y-13982700D01*
D10*
X14846300Y-13982700D02*
X13449300Y-13982700D01*
D14*
X14846300Y-13982700D02*
X13449300Y-13982700D01*
X15036800Y-12077700D02*
X15036800Y-13792200D01*
X13258800Y-12077700D02*
G75*
G02*
X13449300Y-11887200I190500J0D01*
G01*
X13449300Y-13982700D02*
G75*
G02*
X13258800Y-13792200I0J190500D01*
G01*
X13748673Y-14133700D02*
G75*
G02*
X13698673Y-14083727I2J50002D01*
G01*
X14598200Y-14083700D02*
G75*
G02*
X14548200Y-14133700I-50000J0D01*
G01*
X14846300Y-11887200D02*
G75*
G02*
X15036800Y-12077700I0J-190500D01*
G01*
X15036800Y-13792200D02*
G75*
G02*
X14846300Y-13982700I-190500J0D01*
G01*
D15*
X13278000Y-13958600D02*
G75*
G02*
X13227600Y-13958600I-25200J0D01*
G01*
X13227600Y-13958600D02*
G75*
G02*
X13278000Y-13958600I25200J0D01*
G01*
X13392300Y-13870600D02*
G75*
G02*
X13341900Y-13870600I-25200J0D01*
G01*
X13341900Y-13870600D02*
G75*
G02*
X13392300Y-13870600I25200J0D01*
G01*
D16*
%TO.C,Q1*%
X12090400Y-11832800D02*
X12010400Y-11832800D01*
X12090400Y-11832800D02*
X12170400Y-11832800D01*
X12090400Y-12144800D02*
X12010400Y-12144800D01*
X12090400Y-12144800D02*
X12170400Y-12144800D01*
X12220400Y-11837800D02*
X12196400Y-11804800D01*
X12244400Y-11804800D01*
X12220400Y-11837800D01*
G36*
X12220400Y-11837800D02*
G01*
X12196400Y-11804800D01*
X12244400Y-11804800D01*
X12220400Y-11837800D01*
G37*
%TO.C,R2*%
X12749906Y-12609000D02*
X12604494Y-12609000D01*
X12749906Y-12791000D02*
X12604494Y-12791000D01*
%TO.C,R1*%
X12744706Y-11948600D02*
X12599294Y-11948600D01*
X12744706Y-12130600D02*
X12599294Y-12130600D01*
%TO.C,K1*%
X7967150Y-11271350D02*
X10867150Y-11271350D01*
X7967150Y-12541350D02*
X7967150Y-11271350D01*
X10567150Y-11871350D02*
X10687150Y-11871350D01*
X10567150Y-11941350D02*
X10567150Y-11871350D01*
X10607150Y-11941350D02*
X10647150Y-11871350D01*
X10657150Y-12565350D02*
X10891150Y-12565350D01*
X10687150Y-11871350D02*
X10687150Y-11941350D01*
X10687150Y-11941350D02*
X10567150Y-11941350D01*
X10867150Y-11271350D02*
X10867150Y-12541350D01*
X10867150Y-12541350D02*
X7967150Y-12541350D01*
X10891150Y-12565350D02*
X10891150Y-12346350D01*
%TO.C,J1*%
X12205400Y-9027600D02*
X12441400Y-9027600D01*
X12205400Y-9089600D02*
X15277400Y-9089600D01*
X12205400Y-9239600D02*
X15277400Y-9239600D01*
X12205400Y-9729600D02*
X15277400Y-9729600D01*
X12205400Y-10031600D02*
X12205400Y-9027600D01*
X12205400Y-10031600D02*
X15277400Y-10031600D01*
X12501400Y-9027600D02*
X15277400Y-9027600D01*
X15277400Y-10031600D02*
X15277400Y-9027600D01*
X12471400Y-9027600D02*
X12427400Y-8966600D01*
X12515400Y-8966600D01*
X12471400Y-9027600D01*
G36*
X12471400Y-9027600D02*
G01*
X12427400Y-8966600D01*
X12515400Y-8966600D01*
X12471400Y-9027600D01*
G37*
%TO.C,J2*%
X8319200Y-9053000D02*
X8555200Y-9053000D01*
X8319200Y-9115000D02*
X9867200Y-9115000D01*
X8319200Y-9265000D02*
X9867200Y-9265000D01*
X8319200Y-9755000D02*
X9867200Y-9755000D01*
X8319200Y-10057000D02*
X8319200Y-9053000D01*
X8319200Y-10057000D02*
X9867200Y-10057000D01*
X8615200Y-9053000D02*
X9867200Y-9053000D01*
X9867200Y-10057000D02*
X9867200Y-9053000D01*
X8585200Y-9053000D02*
X8541200Y-8992000D01*
X8629200Y-8992000D01*
X8585200Y-9053000D01*
G36*
X8585200Y-9053000D02*
G01*
X8541200Y-8992000D01*
X8629200Y-8992000D01*
X8585200Y-9053000D01*
G37*
%TO.C,Q2*%
X12065000Y-12493200D02*
X11985000Y-12493200D01*
X12065000Y-12493200D02*
X12145000Y-12493200D01*
X12065000Y-12805200D02*
X11985000Y-12805200D01*
X12065000Y-12805200D02*
X12145000Y-12805200D01*
X12195000Y-12498200D02*
X12171000Y-12465200D01*
X12219000Y-12465200D01*
X12195000Y-12498200D01*
G36*
X12195000Y-12498200D02*
G01*
X12171000Y-12465200D01*
X12219000Y-12465200D01*
X12195000Y-12498200D01*
G37*
%TD*%
M02*
