%TF.GenerationSoftware,KiCad,Pcbnew,9.0.2*%
%TF.CreationDate,2025-08-19T17:48:26+02:00*%
%TF.ProjectId,esp32c6-charger,65737033-3263-4362-9d63-686172676572,rev?*%
%TF.SameCoordinates,Original*%
%TF.FileFunction,Copper,L2,Bot*%
%TF.FilePolarity,Positive*%
%FSLAX45Y45*%
G04 Gerber Fmt 4.5, Leading zero omitted, Abs format (unit mm)*
G04 Created by KiCad (PCBNEW 9.0.2) date 2025-08-19 17:48:26*
%MOMM*%
%LPD*%
G01*
G04 APERTURE LIST*
G04 Aperture macros list*
%AMRoundRect*
0 Rectangle with rounded corners*
0 $1 Rounding radius*
0 $2 $3 $4 $5 $6 $7 $8 $9 X,Y pos of 4 corners*
0 Add a 4 corners polygon primitive as box body*
4,1,4,$2,$3,$4,$5,$6,$7,$8,$9,$2,$3,0*
0 Add four circle primitives for the rounded corners*
1,1,$1+$1,$2,$3*
1,1,$1+$1,$4,$5*
1,1,$1+$1,$6,$7*
1,1,$1+$1,$8,$9*
0 Add four rect primitives between the rounded corners*
20,1,$1+$1,$2,$3,$4,$5,0*
20,1,$1+$1,$4,$5,$6,$7,0*
20,1,$1+$1,$6,$7,$8,$9,0*
20,1,$1+$1,$8,$9,$2,$3,0*%
G04 Aperture macros list end*
%TA.AperFunction,ComponentPad*%
%ADD10O,1.600000X2.000000*%
%TD*%
%TA.AperFunction,ComponentPad*%
%ADD11R,1.700000X1.700000*%
%TD*%
%TA.AperFunction,ComponentPad*%
%ADD12C,1.700000*%
%TD*%
%TA.AperFunction,SMDPad,CuDef*%
%ADD13RoundRect,0.152400X1.063600X0.609600X-1.063600X0.609600X-1.063600X-0.609600X1.063600X-0.609600X0*%
%TD*%
%TA.AperFunction,ComponentPad*%
%ADD14C,1.524000*%
%TD*%
%TA.AperFunction,SMDPad,CuDef*%
%ADD15RoundRect,0.152400X-1.063600X-0.609600X1.063600X-0.609600X1.063600X0.609600X-1.063600X0.609600X0*%
%TD*%
%TA.AperFunction,SMDPad,CuDef*%
%ADD16RoundRect,0.150000X0.512500X0.150000X-0.512500X0.150000X-0.512500X-0.150000X0.512500X-0.150000X0*%
%TD*%
%TA.AperFunction,SMDPad,CuDef*%
%ADD17RoundRect,0.250000X0.400000X0.625000X-0.400000X0.625000X-0.400000X-0.625000X0.400000X-0.625000X0*%
%TD*%
%TA.AperFunction,ComponentPad*%
%ADD18C,2.000000*%
%TD*%
%TA.AperFunction,ComponentPad*%
%ADD19R,2.000000X2.000000*%
%TD*%
%TA.AperFunction,ComponentPad*%
%ADD20RoundRect,0.250000X-1.050000X-1.050000X1.050000X-1.050000X1.050000X1.050000X-1.050000X1.050000X0*%
%TD*%
%TA.AperFunction,ComponentPad*%
%ADD21C,2.600000*%
%TD*%
%TA.AperFunction,Conductor*%
%ADD22C,0.200000*%
%TD*%
%TA.AperFunction,Conductor*%
%ADD23C,2.000000*%
%TD*%
G04 APERTURE END LIST*
D10*
%TO.P,Brd1,1,GND*%
%TO.N,GND*%
X12776200Y-10718800D03*
%TO.P,Brd1,2,VCC*%
%TO.N,VCC*%
X13030200Y-10718800D03*
%TO.P,Brd1,3,SCL*%
%TO.N,SCL*%
X13284200Y-10718800D03*
%TO.P,Brd1,4,SDA*%
%TO.N,SDA*%
X13538200Y-10718800D03*
%TD*%
D11*
%TO.P,RFID1,1,SDA*%
%TO.N,/CS*%
X16078200Y-10617200D03*
D12*
%TO.P,RFID1,2,SCK*%
%TO.N,/SCK*%
X16078200Y-10871200D03*
%TO.P,RFID1,3,MOSI*%
%TO.N,/MOSI*%
X16078200Y-11125200D03*
%TO.P,RFID1,4,MISO*%
%TO.N,/MISO*%
X16078200Y-11379200D03*
%TO.P,RFID1,5,IRQ*%
%TO.N,unconnected-(RFID1-IRQ-Pad5)*%
X16078200Y-11633200D03*
%TO.P,RFID1,6,GND*%
%TO.N,GND*%
X16078200Y-11887200D03*
%TO.P,RFID1,7,RST*%
%TO.N,unconnected-(RFID1-RST-Pad7)*%
X16078200Y-12141200D03*
%TO.P,RFID1,8,3\u002C3V*%
%TO.N,VCC*%
X16078200Y-12395200D03*
%TD*%
D13*
%TO.P,U1,1,GPIO0/A0/D0*%
%TO.N,Net-(D1-DIN)*%
X13302300Y-13690600D03*
D14*
X13385800Y-13690600D03*
D13*
%TO.P,U1,2,GPIO1/A1/D1*%
%TO.N,/Cable Detect*%
X13302300Y-13436600D03*
D14*
X13385800Y-13436600D03*
D13*
%TO.P,U1,3,GPIO2/A2/D2*%
%TO.N,Net-(U1-GPIO2{slash}A2{slash}D2)*%
X13302300Y-13182600D03*
D14*
X13385800Y-13182600D03*
D13*
%TO.P,U1,4,GPIO21/D3*%
%TO.N,Net-(U1-GPIO21{slash}D3)*%
X13302300Y-12928600D03*
D14*
X13385800Y-12928600D03*
D13*
%TO.P,U1,5,GPIO22/D4/SDA*%
%TO.N,SDA*%
X13302300Y-12674600D03*
D14*
X13385800Y-12674600D03*
D13*
%TO.P,U1,6,GPIO23/D5/SCL*%
%TO.N,SCL*%
X13302300Y-12420600D03*
D14*
X13385800Y-12420600D03*
D13*
%TO.P,U1,7,GPIO16/D6/TX*%
%TO.N,unconnected-(U1-GPIO16{slash}D6{slash}TX-Pad7)*%
X13302300Y-12166600D03*
D14*
X13385800Y-12166600D03*
%TO.P,U1,8,GPIO17/D7/RX*%
%TO.N,/CS*%
X14909800Y-12166600D03*
D15*
X14993300Y-12166600D03*
D14*
%TO.P,U1,9,GPIO19/D8/SCK*%
%TO.N,/SCK*%
X14909800Y-12420600D03*
D15*
X14993300Y-12420600D03*
D14*
%TO.P,U1,10,GPIO20/D9/MISO*%
%TO.N,/MISO*%
X14909800Y-12674600D03*
D15*
X14993300Y-12674600D03*
D14*
%TO.P,U1,11,GPIO18/D10/MOSI*%
%TO.N,/MOSI*%
X14909800Y-12928600D03*
D15*
X14993300Y-12928600D03*
D14*
%TO.P,U1,12,3V3*%
%TO.N,VCC*%
X14909800Y-13182600D03*
D15*
X14993300Y-13182600D03*
D14*
%TO.P,U1,13,GND*%
%TO.N,GND*%
X14909800Y-13436600D03*
D15*
X14993300Y-13436600D03*
D14*
%TO.P,U1,14,VBUS*%
%TO.N,+5V*%
X14909800Y-13690600D03*
D15*
X14993300Y-13690600D03*
%TD*%
D16*
%TO.P,Q1,1,C*%
%TO.N,/Cable lock*%
X12204150Y-11893800D03*
%TO.P,Q1,2,B*%
%TO.N,Net-(Q1-B)*%
X12204150Y-12083800D03*
%TO.P,Q1,3,E*%
%TO.N,GND*%
X11976650Y-11988800D03*
%TD*%
D17*
%TO.P,R2,1*%
%TO.N,Net-(U1-GPIO2{slash}A2{slash}D2)*%
X12832200Y-12700000D03*
%TO.P,R2,2*%
%TO.N,Net-(Q2-B)*%
X12522200Y-12700000D03*
%TD*%
%TO.P,R1,1*%
%TO.N,Net-(U1-GPIO21{slash}D3)*%
X12827000Y-12039600D03*
%TO.P,R1,2*%
%TO.N,Net-(Q1-B)*%
X12517000Y-12039600D03*
%TD*%
D18*
%TO.P,K1,11*%
%TO.N,Net-(J2-Pin_1)*%
X8627150Y-11531350D03*
%TO.P,K1,12*%
%TO.N,Net-(J2-Pin_3)*%
X8977150Y-12281350D03*
%TO.P,K1,14*%
%TO.N,Net-(J2-Pin_2)*%
X8277150Y-12281350D03*
D19*
%TO.P,K1,A1*%
%TO.N,+5V*%
X10627150Y-12281350D03*
D18*
%TO.P,K1,A2*%
%TO.N,/Relais*%
X10627150Y-11531350D03*
%TD*%
D20*
%TO.P,J1,1,Pin_1*%
%TO.N,+5V*%
X12471400Y-9499600D03*
D21*
%TO.P,J1,2,Pin_2*%
%TO.N,VCC*%
X12979400Y-9499600D03*
%TO.P,J1,3,Pin_3*%
%TO.N,/Cable lock*%
X13487400Y-9499600D03*
%TO.P,J1,4,Pin_4*%
%TO.N,/Cable Detect*%
X13995400Y-9499600D03*
%TO.P,J1,5,Pin_5*%
%TO.N,GND*%
X14503400Y-9499600D03*
%TO.P,J1,6,Pin_6*%
X15011400Y-9499600D03*
%TD*%
D20*
%TO.P,J2,1,Pin_1*%
%TO.N,Net-(J2-Pin_1)*%
X8585200Y-9525000D03*
D21*
%TO.P,J2,2,Pin_2*%
%TO.N,Net-(J2-Pin_2)*%
X9093200Y-9525000D03*
%TO.P,J2,3,Pin_3*%
%TO.N,Net-(J2-Pin_3)*%
X9601200Y-9525000D03*
%TD*%
D16*
%TO.P,Q2,1,C*%
%TO.N,/Relais*%
X12178750Y-12554200D03*
%TO.P,Q2,2,B*%
%TO.N,Net-(Q2-B)*%
X12178750Y-12744200D03*
%TO.P,Q2,3,E*%
%TO.N,GND*%
X11951250Y-12649200D03*
%TD*%
D22*
%TO.N,VCC*%
X12979400Y-10668000D02*
X13030200Y-10718800D01*
%TO.N,/Cable lock*%
X13487400Y-9499600D02*
X13487400Y-9906000D01*
X13487400Y-9906000D02*
X13309600Y-10083800D01*
X12420600Y-10083800D02*
X12204150Y-10300250D01*
X13309600Y-10083800D02*
X12420600Y-10083800D01*
X12204150Y-10300250D02*
X12204150Y-11893800D01*
%TO.N,/Cable Detect*%
X13614400Y-13436600D02*
X13716000Y-13335000D01*
X13385800Y-13436600D02*
X13614400Y-13436600D01*
X13385800Y-13436600D02*
X13302300Y-13436600D01*
X13716000Y-9779000D02*
X13995400Y-9499600D01*
X13716000Y-13335000D02*
X13716000Y-9779000D01*
%TO.N,/Relais*%
X10998200Y-11531600D02*
X10997950Y-11531350D01*
X10997950Y-11531350D02*
X10627150Y-11531350D01*
X11353800Y-11658600D02*
X11226800Y-11531600D01*
X12020800Y-12554200D02*
X11353800Y-11887200D01*
X11353800Y-11887200D02*
X11353800Y-11658600D01*
X11226800Y-11531600D02*
X10998200Y-11531600D01*
X12178750Y-12554200D02*
X12020800Y-12554200D01*
%TO.N,Net-(Q1-B)*%
X12204150Y-12083800D02*
X12472800Y-12083800D01*
X12472800Y-12083800D02*
X12517000Y-12039600D01*
%TO.N,Net-(Q2-B)*%
X12478000Y-12744200D02*
X12522200Y-12700000D01*
X12178750Y-12744200D02*
X12478000Y-12744200D01*
%TO.N,Net-(U1-GPIO21{slash}D3)*%
X12827000Y-12446000D02*
X13030200Y-12649200D01*
X13131800Y-12928600D02*
X13302300Y-12928600D01*
X13030200Y-12649200D02*
X13030200Y-12827000D01*
X12827000Y-12039600D02*
X12827000Y-12446000D01*
X13030200Y-12827000D02*
X13131800Y-12928600D01*
%TO.N,Net-(U1-GPIO2{slash}A2{slash}D2)*%
X13302300Y-13182600D02*
X13302300Y-13175300D01*
X12832200Y-12700000D02*
X12928600Y-12700000D01*
X13106400Y-12979400D02*
X13106400Y-13131800D01*
X12979400Y-12852400D02*
X13106400Y-12979400D01*
X12852400Y-12725400D02*
X12832200Y-12725400D01*
X12928600Y-12700000D02*
X12979400Y-12750800D01*
X13106400Y-13131800D02*
X13157200Y-13182600D01*
X12979400Y-12750800D02*
X12979400Y-12852400D01*
X13157200Y-13182600D02*
X13302300Y-13182600D01*
D23*
%TO.N,Net-(J2-Pin_2)*%
X9093200Y-11658600D02*
X8470450Y-12281350D01*
X8470450Y-12281350D02*
X8277150Y-12281350D01*
X9093200Y-9601200D02*
X9093200Y-11658600D01*
%TO.N,Net-(J2-Pin_1)*%
X8585200Y-11489400D02*
X8627150Y-11531350D01*
X8585200Y-9601200D02*
X8585200Y-11489400D01*
%TO.N,Net-(J2-Pin_3)*%
X9601200Y-9601200D02*
X9601200Y-11657300D01*
X9601200Y-11657300D02*
X8977150Y-12281350D01*
D22*
%TO.N,SCL*%
X13487400Y-12420600D02*
X13563600Y-12344400D01*
X13563600Y-12344400D02*
X13563600Y-11049000D01*
X13302300Y-12420600D02*
X13487400Y-12420600D01*
X13284200Y-10769600D02*
X13284200Y-10718800D01*
X13563600Y-11049000D02*
X13284200Y-10769600D01*
%TO.N,SDA*%
X13639800Y-10820400D02*
X13639800Y-12573000D01*
X13538200Y-10718800D02*
X13639800Y-10820400D01*
X13538200Y-12674600D02*
X13385800Y-12674600D01*
X13639800Y-12573000D02*
X13538200Y-12674600D01*
%TO.N,/CS*%
X16027400Y-10617200D02*
X16078200Y-10617200D01*
X15951200Y-10693400D02*
X16027400Y-10617200D01*
X15214600Y-12115800D02*
X15214600Y-11150600D01*
X15392400Y-10972800D02*
X15900400Y-10972800D01*
X15951200Y-10922000D02*
X15951200Y-10693400D01*
X14993300Y-12166600D02*
X15163800Y-12166600D01*
X15163800Y-12166600D02*
X15214600Y-12115800D01*
X15900400Y-10972800D02*
X15951200Y-10922000D01*
X15214600Y-11150600D02*
X15392400Y-10972800D01*
%TO.N,/MOSI*%
X15443200Y-12827000D02*
X15341600Y-12928600D01*
X15341600Y-12928600D02*
X14993300Y-12928600D01*
X16078200Y-11125200D02*
X15544800Y-11125200D01*
X15544800Y-11125200D02*
X15443200Y-11226800D01*
X15443200Y-11226800D02*
X15443200Y-12827000D01*
%TO.N,/SCK*%
X15290800Y-12344400D02*
X15214600Y-12420600D01*
X16078200Y-10871200D02*
X15925800Y-11023600D01*
X15214600Y-12420600D02*
X14993300Y-12420600D01*
X15290800Y-11176000D02*
X15290800Y-12344400D01*
X15443200Y-11023600D02*
X15290800Y-11176000D01*
X15925800Y-11023600D02*
X15443200Y-11023600D01*
%TO.N,/MISO*%
X16193300Y-11264100D02*
X16193300Y-11077524D01*
X15290800Y-12674600D02*
X14993300Y-12674600D01*
X16030524Y-11010100D02*
X15966224Y-11074400D01*
X15494000Y-11074400D02*
X15367000Y-11201400D01*
X16078200Y-11379200D02*
X16193300Y-11264100D01*
X16125876Y-11010100D02*
X16030524Y-11010100D01*
X15966224Y-11074400D02*
X15494000Y-11074400D01*
X15367000Y-12598400D02*
X15290800Y-12674600D01*
X16193300Y-11077524D02*
X16125876Y-11010100D01*
X15367000Y-11201400D02*
X15367000Y-12598400D01*
%TD*%
%TA.AperFunction,Conductor*%
%TO.N,GND*%
G36*
X22944254Y-9052019D02*
G01*
X22948829Y-9057299D01*
X22949950Y-9062450D01*
X22949950Y-9360743D01*
X22947981Y-9367447D01*
X22942701Y-9372022D01*
X22935785Y-9373017D01*
X22929430Y-9370114D01*
X22925652Y-9364237D01*
X22925388Y-9363162D01*
X22925201Y-9362219D01*
X22925200Y-9362218D01*
X22925200Y-9362218D01*
X22925200Y-9362218D01*
X22915049Y-9328754D01*
X22901667Y-9296447D01*
X22885183Y-9265607D01*
X22865755Y-9236531D01*
X22843571Y-9209500D01*
X22843571Y-9209500D01*
X22843570Y-9209499D01*
X22818844Y-9184773D01*
X22791813Y-9162589D01*
X22791813Y-9162589D01*
X22791812Y-9162589D01*
X22762737Y-9143161D01*
X22762736Y-9143160D01*
X22762735Y-9143160D01*
X22731897Y-9126677D01*
X22731897Y-9126676D01*
X22699589Y-9113294D01*
X22666125Y-9103143D01*
X22666124Y-9103143D01*
X22631829Y-9096321D01*
X22631828Y-9096321D01*
X22605511Y-9093729D01*
X22597028Y-9092894D01*
X22562059Y-9092894D01*
X22554213Y-9093666D01*
X22527259Y-9096321D01*
X22527257Y-9096321D01*
X22492963Y-9103143D01*
X22492962Y-9103143D01*
X22459497Y-9113294D01*
X22427190Y-9126676D01*
X22427190Y-9126677D01*
X22396351Y-9143160D01*
X22396350Y-9143161D01*
X22367275Y-9162588D01*
X22367274Y-9162589D01*
X22340243Y-9184773D01*
X22315517Y-9209499D01*
X22293332Y-9236531D01*
X22293331Y-9236532D01*
X22273905Y-9265606D01*
X22273904Y-9265608D01*
X22257420Y-9296446D01*
X22257420Y-9296447D01*
X22244038Y-9328754D01*
X22233886Y-9362218D01*
X22233886Y-9362220D01*
X22227065Y-9396514D01*
X22227064Y-9396516D01*
X22224772Y-9419795D01*
X22223637Y-9431315D01*
X22223637Y-9434457D01*
X22223637Y-9466285D01*
X22224667Y-9476746D01*
X22227064Y-9501084D01*
X22227065Y-9501086D01*
X22233886Y-9535380D01*
X22233886Y-9535382D01*
X22244038Y-9568846D01*
X22248402Y-9579383D01*
X22255628Y-9596828D01*
X22257420Y-9601153D01*
X22257420Y-9601154D01*
X22273904Y-9631992D01*
X22273905Y-9631994D01*
X22293331Y-9661068D01*
X22293332Y-9661069D01*
X22315517Y-9688101D01*
X22340243Y-9712827D01*
X22340243Y-9712827D01*
X22340243Y-9712827D01*
X22367275Y-9735012D01*
X22396350Y-9754439D01*
X22396351Y-9754440D01*
X22396351Y-9754440D01*
X22427190Y-9770923D01*
X22427190Y-9770923D01*
X22427190Y-9770924D01*
X22459498Y-9784306D01*
X22492961Y-9794457D01*
X22492962Y-9794457D01*
X22492962Y-9794457D01*
X22492963Y-9794457D01*
X22514469Y-9798735D01*
X22527258Y-9801279D01*
X22562059Y-9804707D01*
X22562059Y-9804707D01*
X22597028Y-9804707D01*
X22597028Y-9804707D01*
X22631829Y-9801279D01*
X22648805Y-9797902D01*
X22666124Y-9794457D01*
X22666125Y-9794457D01*
X22666125Y-9794457D01*
X22666126Y-9794457D01*
X22699589Y-9784306D01*
X22731897Y-9770924D01*
X22762737Y-9754439D01*
X22791812Y-9735012D01*
X22818844Y-9712827D01*
X22843571Y-9688100D01*
X22865755Y-9661069D01*
X22885183Y-9631993D01*
X22901667Y-9601153D01*
X22915049Y-9568846D01*
X22925200Y-9535383D01*
X22925388Y-9534438D01*
X22928627Y-9528247D01*
X22934698Y-9524789D01*
X22941675Y-9525163D01*
X22947342Y-9529250D01*
X22949901Y-9535752D01*
X22949950Y-9536857D01*
X22949950Y-13475543D01*
X22947981Y-13482247D01*
X22942701Y-13486822D01*
X22935785Y-13487817D01*
X22929430Y-13484914D01*
X22925652Y-13479036D01*
X22925388Y-13477962D01*
X22925201Y-13477019D01*
X22925200Y-13477018D01*
X22925200Y-13477018D01*
X22925200Y-13477017D01*
X22915049Y-13443554D01*
X22901667Y-13411247D01*
X22901083Y-13410154D01*
X22885183Y-13380408D01*
X22885183Y-13380408D01*
X22885183Y-13380407D01*
X22865755Y-13351331D01*
X22843571Y-13324300D01*
X22843571Y-13324299D01*
X22843570Y-13324299D01*
X22818844Y-13299573D01*
X22791813Y-13277389D01*
X22791813Y-13277389D01*
X22791812Y-13277388D01*
X22762737Y-13257961D01*
X22762736Y-13257960D01*
X22762735Y-13257960D01*
X22731897Y-13241477D01*
X22731897Y-13241476D01*
X22699589Y-13228094D01*
X22666125Y-13217943D01*
X22666124Y-13217943D01*
X22631829Y-13211121D01*
X22631828Y-13211121D01*
X22605511Y-13208529D01*
X22597028Y-13207693D01*
X22562059Y-13207693D01*
X22554213Y-13208466D01*
X22527259Y-13211121D01*
X22527257Y-13211121D01*
X22492963Y-13217943D01*
X22492962Y-13217943D01*
X22459497Y-13228094D01*
X22427190Y-13241476D01*
X22427190Y-13241477D01*
X22396351Y-13257960D01*
X22396350Y-13257961D01*
X22367275Y-13277388D01*
X22367274Y-13277389D01*
X22340243Y-13299573D01*
X22315517Y-13324299D01*
X22293332Y-13351330D01*
X22293331Y-13351332D01*
X22273905Y-13380406D01*
X22273904Y-13380408D01*
X22257420Y-13411246D01*
X22257420Y-13411247D01*
X22244038Y-13443554D01*
X22233886Y-13477018D01*
X22233886Y-13477019D01*
X22227065Y-13511314D01*
X22227064Y-13511316D01*
X22223637Y-13546116D01*
X22223637Y-13581084D01*
X22227064Y-13615884D01*
X22227065Y-13615886D01*
X22233886Y-13650180D01*
X22233886Y-13650181D01*
X22244038Y-13683646D01*
X22253500Y-13706491D01*
X22255628Y-13711628D01*
X22257420Y-13715953D01*
X22257420Y-13715954D01*
X22273904Y-13746792D01*
X22273905Y-13746794D01*
X22293331Y-13775868D01*
X22293332Y-13775869D01*
X22315517Y-13802901D01*
X22340243Y-13827627D01*
X22340243Y-13827627D01*
X22340243Y-13827627D01*
X22367275Y-13849811D01*
X22396350Y-13869239D01*
X22396351Y-13869240D01*
X22396351Y-13869240D01*
X22427190Y-13885723D01*
X22427190Y-13885723D01*
X22427190Y-13885724D01*
X22459498Y-13899106D01*
X22492961Y-13909257D01*
X22492962Y-13909257D01*
X22492962Y-13909257D01*
X22492963Y-13909257D01*
X22514469Y-13913535D01*
X22527258Y-13916079D01*
X22562059Y-13919506D01*
X22562059Y-13919506D01*
X22597028Y-13919506D01*
X22597028Y-13919506D01*
X22631829Y-13916079D01*
X22648805Y-13912702D01*
X22666124Y-13909257D01*
X22666125Y-13909257D01*
X22666125Y-13909257D01*
X22666126Y-13909257D01*
X22699589Y-13899106D01*
X22731897Y-13885724D01*
X22762737Y-13869239D01*
X22791812Y-13849811D01*
X22818844Y-13827627D01*
X22843571Y-13802900D01*
X22865755Y-13775869D01*
X22885183Y-13746793D01*
X22901667Y-13715953D01*
X22915049Y-13683646D01*
X22925200Y-13650182D01*
X22925388Y-13649238D01*
X22928627Y-13643047D01*
X22934698Y-13639589D01*
X22941675Y-13639963D01*
X22947342Y-13644050D01*
X22949901Y-13650552D01*
X22949950Y-13651657D01*
X22949950Y-13937550D01*
X22947981Y-13944254D01*
X22942701Y-13948829D01*
X22937550Y-13949950D01*
X10274000Y-13949950D01*
X10267296Y-13947981D01*
X10262721Y-13942701D01*
X10261600Y-13937550D01*
X10261600Y-13546116D01*
X11200037Y-13546116D01*
X11200037Y-13581084D01*
X11203464Y-13615884D01*
X11203465Y-13615886D01*
X11210286Y-13650180D01*
X11210286Y-13650181D01*
X11220438Y-13683646D01*
X11229900Y-13706491D01*
X11232028Y-13711628D01*
X11233820Y-13715953D01*
X11233820Y-13715954D01*
X11250303Y-13746792D01*
X11250305Y-13746794D01*
X11269731Y-13775868D01*
X11269732Y-13775869D01*
X11291917Y-13802901D01*
X11316642Y-13827627D01*
X11316643Y-13827627D01*
X11316643Y-13827627D01*
X11343675Y-13849811D01*
X11372750Y-13869239D01*
X11372751Y-13869240D01*
X11372751Y-13869240D01*
X11403590Y-13885723D01*
X11403590Y-13885723D01*
X11403590Y-13885724D01*
X11435898Y-13899106D01*
X11469361Y-13909257D01*
X11469362Y-13909257D01*
X11469362Y-13909257D01*
X11469363Y-13909257D01*
X11490869Y-13913535D01*
X11503658Y-13916079D01*
X11538459Y-13919506D01*
X11538459Y-13919506D01*
X11573428Y-13919506D01*
X11573428Y-13919506D01*
X11608229Y-13916079D01*
X11625205Y-13912702D01*
X11642524Y-13909257D01*
X11642525Y-13909257D01*
X11642525Y-13909257D01*
X11642526Y-13909257D01*
X11675989Y-13899106D01*
X11708297Y-13885724D01*
X11739137Y-13869239D01*
X11768212Y-13849811D01*
X11795244Y-13827627D01*
X11819971Y-13802900D01*
X11842155Y-13775869D01*
X11861583Y-13746793D01*
X11878067Y-13715953D01*
X11891449Y-13683646D01*
X11901600Y-13650182D01*
X11901600Y-13650181D01*
X11901601Y-13650180D01*
X11906723Y-13624431D01*
X11908422Y-13615885D01*
X11911850Y-13581085D01*
X11911850Y-13546115D01*
X11908422Y-13511315D01*
X11905751Y-13497884D01*
X11901601Y-13477019D01*
X11901600Y-13477018D01*
X11901600Y-13477018D01*
X11901600Y-13477017D01*
X11891449Y-13443554D01*
X11878067Y-13411247D01*
X11877483Y-13410154D01*
X11861583Y-13380408D01*
X11861583Y-13380408D01*
X11861583Y-13380407D01*
X11842155Y-13351331D01*
X11819971Y-13324300D01*
X11819971Y-13324299D01*
X11819970Y-13324299D01*
X11795244Y-13299573D01*
X11768213Y-13277389D01*
X11768213Y-13277389D01*
X11768212Y-13277388D01*
X11739137Y-13257961D01*
X11739136Y-13257960D01*
X11739135Y-13257960D01*
X11708297Y-13241477D01*
X11708297Y-13241476D01*
X11675989Y-13228094D01*
X11642525Y-13217943D01*
X11642524Y-13217943D01*
X11608229Y-13211121D01*
X11608228Y-13211121D01*
X11581911Y-13208529D01*
X11573428Y-13207693D01*
X11538459Y-13207693D01*
X11530613Y-13208466D01*
X11503659Y-13211121D01*
X11503657Y-13211121D01*
X11469363Y-13217943D01*
X11469362Y-13217943D01*
X11435897Y-13228094D01*
X11403590Y-13241476D01*
X11403590Y-13241477D01*
X11372751Y-13257960D01*
X11372750Y-13257961D01*
X11343675Y-13277388D01*
X11343674Y-13277389D01*
X11316642Y-13299573D01*
X11291917Y-13324299D01*
X11269732Y-13351330D01*
X11269731Y-13351332D01*
X11250305Y-13380406D01*
X11250303Y-13380408D01*
X11233820Y-13411246D01*
X11233820Y-13411247D01*
X11220438Y-13443554D01*
X11210286Y-13477018D01*
X11210286Y-13477019D01*
X11203465Y-13511314D01*
X11203464Y-13511316D01*
X11200037Y-13546116D01*
X10261600Y-13546116D01*
X10261600Y-12674200D01*
X11835270Y-12674200D01*
X11835290Y-12674449D01*
X11839872Y-12690220D01*
X11848231Y-12704355D01*
X11848232Y-12704356D01*
X11859844Y-12715968D01*
X11859845Y-12715968D01*
X11873980Y-12724328D01*
X11873981Y-12724328D01*
X11889750Y-12728910D01*
X11889751Y-12728910D01*
X11893435Y-12729200D01*
X11893437Y-12729200D01*
X11926250Y-12729200D01*
X11926250Y-12674200D01*
X11976250Y-12674200D01*
X11976250Y-12729200D01*
X12009063Y-12729200D01*
X12009065Y-12729200D01*
X12012749Y-12728910D01*
X12012749Y-12728910D01*
X12028519Y-12724328D01*
X12028520Y-12724328D01*
X12043327Y-12715571D01*
X12043429Y-12715743D01*
X12048953Y-12713574D01*
X12055804Y-12714942D01*
X12060829Y-12719797D01*
X12062450Y-12725926D01*
X12062450Y-12765770D01*
X12062740Y-12769457D01*
X12062740Y-12769457D01*
X12067325Y-12785239D01*
X12067325Y-12785240D01*
X12067326Y-12785240D01*
X12068697Y-12787559D01*
X12075692Y-12799386D01*
X12075692Y-12799387D01*
X12087313Y-12811008D01*
X12087313Y-12811008D01*
X12087313Y-12811008D01*
X12101460Y-12819374D01*
X12105622Y-12820584D01*
X12117243Y-12823960D01*
X12117243Y-12823960D01*
X12117243Y-12823960D01*
X12120931Y-12824250D01*
X12120931Y-12824250D01*
X12236569Y-12824250D01*
X12236569Y-12824250D01*
X12240257Y-12823960D01*
X12240257Y-12823960D01*
X12240257Y-12823960D01*
X12248769Y-12821487D01*
X12256040Y-12819374D01*
X12270186Y-12811008D01*
X12273313Y-12807882D01*
X12279445Y-12804533D01*
X12282081Y-12804250D01*
X12412881Y-12804250D01*
X12419585Y-12806218D01*
X12422608Y-12808959D01*
X12422929Y-12809365D01*
X12422929Y-12809366D01*
X12435334Y-12821771D01*
X12450267Y-12830981D01*
X12466920Y-12836500D01*
X12477199Y-12837550D01*
X12567201Y-12837550D01*
X12567202Y-12837550D01*
X12567202Y-12837550D01*
X12572830Y-12836975D01*
X12577480Y-12836500D01*
X12594133Y-12830981D01*
X12609066Y-12821771D01*
X12621471Y-12809366D01*
X12630681Y-12794433D01*
X12636200Y-12777780D01*
X12637250Y-12767501D01*
X12637250Y-12632499D01*
X12636200Y-12622220D01*
X12630681Y-12605567D01*
X12621471Y-12590634D01*
X12609066Y-12578229D01*
X12594133Y-12569019D01*
X12577480Y-12563500D01*
X12577479Y-12563500D01*
X12567201Y-12562450D01*
X12477200Y-12562450D01*
X12477198Y-12562450D01*
X12466920Y-12563500D01*
X12466920Y-12563500D01*
X12450267Y-12569018D01*
X12450266Y-12569019D01*
X12435334Y-12578229D01*
X12422929Y-12590634D01*
X12413719Y-12605566D01*
X12413718Y-12605567D01*
X12411945Y-12610918D01*
X12408200Y-12622220D01*
X12408200Y-12622220D01*
X12408200Y-12622220D01*
X12407150Y-12632498D01*
X12407150Y-12671750D01*
X12405181Y-12678454D01*
X12399901Y-12683029D01*
X12394750Y-12684150D01*
X12282081Y-12684150D01*
X12275377Y-12682181D01*
X12273313Y-12680518D01*
X12270187Y-12677392D01*
X12270186Y-12677392D01*
X12256040Y-12669025D01*
X12256039Y-12669025D01*
X12240257Y-12664440D01*
X12240257Y-12664440D01*
X12236570Y-12664150D01*
X12236569Y-12664150D01*
X12120931Y-12664150D01*
X12120930Y-12664150D01*
X12117243Y-12664440D01*
X12117243Y-12664440D01*
X12101461Y-12669025D01*
X12101460Y-12669025D01*
X12087314Y-12677392D01*
X12086697Y-12677870D01*
X12086566Y-12677702D01*
X12081395Y-12680525D01*
X12074426Y-12680025D01*
X12069656Y-12676825D01*
X12067230Y-12674200D01*
X11976250Y-12674200D01*
X11926250Y-12674200D01*
X11835270Y-12674200D01*
X11835270Y-12674200D01*
X10261600Y-12674200D01*
X10261600Y-12176563D01*
X10477100Y-12176563D01*
X10477100Y-12386137D01*
X10477100Y-12386138D01*
X10477741Y-12392098D01*
X10482770Y-12405583D01*
X10482771Y-12405583D01*
X10491395Y-12417104D01*
X10491396Y-12417105D01*
X10502916Y-12425729D01*
X10502917Y-12425730D01*
X10516402Y-12430759D01*
X10516402Y-12430759D01*
X10517094Y-12430833D01*
X10522363Y-12431400D01*
X10731937Y-12431400D01*
X10737898Y-12430759D01*
X10751383Y-12425730D01*
X10762905Y-12417105D01*
X10771530Y-12405583D01*
X10776559Y-12392098D01*
X10777200Y-12386137D01*
X10777200Y-12176563D01*
X10776559Y-12170602D01*
X10776552Y-12170581D01*
X10771530Y-12157117D01*
X10771529Y-12157116D01*
X10762905Y-12145595D01*
X10762904Y-12145595D01*
X10751384Y-12136971D01*
X10751383Y-12136970D01*
X10737898Y-12131941D01*
X10737898Y-12131941D01*
X10731938Y-12131300D01*
X10731938Y-12131300D01*
X10731937Y-12131300D01*
X10731936Y-12131300D01*
X10522363Y-12131300D01*
X10522362Y-12131300D01*
X10516402Y-12131941D01*
X10502917Y-12136970D01*
X10502916Y-12136971D01*
X10491396Y-12145595D01*
X10491395Y-12145595D01*
X10482771Y-12157116D01*
X10482770Y-12157117D01*
X10477741Y-12170602D01*
X10477100Y-12176562D01*
X10477100Y-12176562D01*
X10477100Y-12176563D01*
X10261600Y-12176563D01*
X10261600Y-11519540D01*
X10477100Y-11519540D01*
X10477100Y-11543160D01*
X10480795Y-11566487D01*
X10488093Y-11588950D01*
X10498816Y-11609993D01*
X10512698Y-11629101D01*
X10529399Y-11645802D01*
X10548507Y-11659684D01*
X10558449Y-11664750D01*
X10569550Y-11670407D01*
X10569551Y-11670407D01*
X10569551Y-11670407D01*
X10581591Y-11674319D01*
X10592013Y-11677705D01*
X10615340Y-11681400D01*
X10615341Y-11681400D01*
X10638960Y-11681400D01*
X10662287Y-11677705D01*
X10684749Y-11670407D01*
X10705793Y-11659684D01*
X10724901Y-11645802D01*
X10741602Y-11629101D01*
X10755484Y-11609993D01*
X10761508Y-11598170D01*
X10766306Y-11593091D01*
X10772557Y-11591400D01*
X10987729Y-11591400D01*
X10987891Y-11591401D01*
X10989441Y-11591421D01*
X10990294Y-11591650D01*
X11006106Y-11591650D01*
X11006106Y-11591650D01*
X11196790Y-11591650D01*
X11203494Y-11593618D01*
X11205558Y-11595282D01*
X11290118Y-11679842D01*
X11293467Y-11685974D01*
X11293750Y-11688610D01*
X11293750Y-11878533D01*
X11293750Y-11878535D01*
X11293750Y-11895105D01*
X11293750Y-11895105D01*
X11293750Y-11895106D01*
X11297842Y-11910378D01*
X11300724Y-11915369D01*
X11305748Y-11924071D01*
X11305748Y-11924072D01*
X11317635Y-11935958D01*
X11317635Y-11935959D01*
X11929708Y-12548032D01*
X11933057Y-12554164D01*
X11932558Y-12561133D01*
X11928371Y-12566727D01*
X11921825Y-12569168D01*
X11920940Y-12569200D01*
X11893435Y-12569200D01*
X11889751Y-12569490D01*
X11889750Y-12569490D01*
X11873981Y-12574072D01*
X11873980Y-12574072D01*
X11859845Y-12582431D01*
X11859844Y-12582432D01*
X11848232Y-12594044D01*
X11848231Y-12594045D01*
X11839872Y-12608180D01*
X11835290Y-12623951D01*
X11835270Y-12624200D01*
X11835270Y-12624200D01*
X12067229Y-12624200D01*
X12069656Y-12621575D01*
X12075652Y-12617988D01*
X12082635Y-12618213D01*
X12086601Y-12620653D01*
X12086697Y-12620530D01*
X12087313Y-12621008D01*
X12087313Y-12621008D01*
X12101460Y-12629374D01*
X12105622Y-12630584D01*
X12117243Y-12633960D01*
X12117243Y-12633960D01*
X12117243Y-12633960D01*
X12120931Y-12634250D01*
X12120931Y-12634250D01*
X12236569Y-12634250D01*
X12236569Y-12634250D01*
X12240257Y-12633960D01*
X12240257Y-12633960D01*
X12240257Y-12633960D01*
X12245287Y-12632498D01*
X12256040Y-12629374D01*
X12270186Y-12621008D01*
X12281808Y-12609386D01*
X12290174Y-12595240D01*
X12294760Y-12579457D01*
X12295050Y-12575769D01*
X12295050Y-12532631D01*
X12294760Y-12528943D01*
X12293306Y-12523940D01*
X12290174Y-12513161D01*
X12290174Y-12513160D01*
X12290174Y-12513160D01*
X12281808Y-12499013D01*
X12281808Y-12499013D01*
X12281808Y-12499013D01*
X12270187Y-12487392D01*
X12270186Y-12487392D01*
X12257952Y-12480156D01*
X12256040Y-12479026D01*
X12256040Y-12479025D01*
X12256040Y-12479025D01*
X12256039Y-12479025D01*
X12240257Y-12474440D01*
X12240257Y-12474440D01*
X12236570Y-12474150D01*
X12236569Y-12474150D01*
X12120931Y-12474150D01*
X12120930Y-12474150D01*
X12117243Y-12474440D01*
X12117243Y-12474440D01*
X12101461Y-12479025D01*
X12101460Y-12479025D01*
X12087314Y-12487392D01*
X12087313Y-12487392D01*
X12084187Y-12490518D01*
X12081494Y-12491988D01*
X12078913Y-12493648D01*
X12078293Y-12493737D01*
X12078055Y-12493867D01*
X12075419Y-12494150D01*
X12050810Y-12494150D01*
X12044106Y-12492181D01*
X12042042Y-12490518D01*
X11565324Y-12013800D01*
X11860670Y-12013800D01*
X11860690Y-12014049D01*
X11865272Y-12029820D01*
X11873631Y-12043955D01*
X11873632Y-12043956D01*
X11885244Y-12055568D01*
X11885245Y-12055568D01*
X11899380Y-12063928D01*
X11899381Y-12063928D01*
X11915150Y-12068510D01*
X11915151Y-12068510D01*
X11918835Y-12068800D01*
X11918837Y-12068800D01*
X11951650Y-12068800D01*
X11951650Y-12013800D01*
X12001650Y-12013800D01*
X12001650Y-12068800D01*
X12034463Y-12068800D01*
X12034465Y-12068800D01*
X12038149Y-12068510D01*
X12038149Y-12068510D01*
X12053919Y-12063928D01*
X12053920Y-12063928D01*
X12068727Y-12055171D01*
X12068829Y-12055343D01*
X12074353Y-12053174D01*
X12081204Y-12054542D01*
X12086229Y-12059397D01*
X12087850Y-12065526D01*
X12087850Y-12105370D01*
X12088140Y-12109057D01*
X12088140Y-12109057D01*
X12092725Y-12124839D01*
X12092725Y-12124840D01*
X12101092Y-12138986D01*
X12101092Y-12138987D01*
X12112713Y-12150608D01*
X12112713Y-12150608D01*
X12112713Y-12150608D01*
X12126860Y-12158974D01*
X12131022Y-12160184D01*
X12142643Y-12163560D01*
X12142643Y-12163560D01*
X12142643Y-12163560D01*
X12146331Y-12163850D01*
X12146331Y-12163850D01*
X12261969Y-12163850D01*
X12261969Y-12163850D01*
X12265657Y-12163560D01*
X12265657Y-12163560D01*
X12265657Y-12163560D01*
X12273191Y-12161371D01*
X12281440Y-12158974D01*
X12295586Y-12150608D01*
X12298713Y-12147482D01*
X12304845Y-12144133D01*
X12307481Y-12143850D01*
X12407681Y-12143850D01*
X12414385Y-12145818D01*
X12417408Y-12148559D01*
X12417729Y-12148965D01*
X12417729Y-12148966D01*
X12430134Y-12161371D01*
X12445067Y-12170581D01*
X12461720Y-12176100D01*
X12471999Y-12177150D01*
X12562001Y-12177150D01*
X12562002Y-12177150D01*
X12562002Y-12177150D01*
X12567748Y-12176563D01*
X12572280Y-12176100D01*
X12588933Y-12170581D01*
X12603866Y-12161371D01*
X12616271Y-12148966D01*
X12625481Y-12134033D01*
X12631000Y-12117380D01*
X12632050Y-12107101D01*
X12632050Y-11972099D01*
X12631000Y-11961820D01*
X12625481Y-11945167D01*
X12616271Y-11930234D01*
X12603866Y-11917829D01*
X12588933Y-11908619D01*
X12572280Y-11903100D01*
X12572279Y-11903100D01*
X12562001Y-11902050D01*
X12472000Y-11902050D01*
X12471998Y-11902050D01*
X12461720Y-11903100D01*
X12461720Y-11903100D01*
X12445067Y-11908618D01*
X12445066Y-11908619D01*
X12430134Y-11917829D01*
X12417729Y-11930234D01*
X12408519Y-11945166D01*
X12408518Y-11945167D01*
X12407253Y-11948986D01*
X12403000Y-11961820D01*
X12403000Y-11961820D01*
X12403000Y-11961820D01*
X12401950Y-11972098D01*
X12401950Y-12011350D01*
X12399981Y-12018054D01*
X12394701Y-12022629D01*
X12389550Y-12023750D01*
X12307481Y-12023750D01*
X12300777Y-12021781D01*
X12298713Y-12020118D01*
X12295587Y-12016992D01*
X12295586Y-12016992D01*
X12281440Y-12008625D01*
X12281439Y-12008625D01*
X12265657Y-12004040D01*
X12265657Y-12004040D01*
X12261970Y-12003750D01*
X12261969Y-12003750D01*
X12146331Y-12003750D01*
X12146330Y-12003750D01*
X12142643Y-12004040D01*
X12142643Y-12004040D01*
X12126861Y-12008625D01*
X12126860Y-12008625D01*
X12112714Y-12016992D01*
X12112097Y-12017470D01*
X12111966Y-12017302D01*
X12106795Y-12020125D01*
X12099826Y-12019625D01*
X12095056Y-12016425D01*
X12092630Y-12013800D01*
X12001650Y-12013800D01*
X11951650Y-12013800D01*
X11860670Y-12013800D01*
X11860670Y-12013800D01*
X11565324Y-12013800D01*
X11515323Y-11963800D01*
X11860670Y-11963800D01*
X11860670Y-11963800D01*
X11951650Y-11963800D01*
X11951650Y-11908800D01*
X12001650Y-11908800D01*
X12001650Y-11963800D01*
X12092629Y-11963800D01*
X12095056Y-11961175D01*
X12101052Y-11957588D01*
X12108035Y-11957813D01*
X12112001Y-11960253D01*
X12112097Y-11960130D01*
X12112713Y-11960608D01*
X12112713Y-11960608D01*
X12126860Y-11968974D01*
X12131022Y-11970184D01*
X12142643Y-11973560D01*
X12142643Y-11973560D01*
X12142643Y-11973560D01*
X12146331Y-11973850D01*
X12146331Y-11973850D01*
X12261969Y-11973850D01*
X12261969Y-11973850D01*
X12265657Y-11973560D01*
X12265657Y-11973560D01*
X12265657Y-11973560D01*
X12269819Y-11972350D01*
X12281440Y-11968974D01*
X12295586Y-11960608D01*
X12307208Y-11948986D01*
X12315574Y-11934840D01*
X12320160Y-11919057D01*
X12320450Y-11915369D01*
X12320450Y-11872231D01*
X12320160Y-11868543D01*
X12315574Y-11852760D01*
X12307208Y-11838613D01*
X12307208Y-11838613D01*
X12307208Y-11838613D01*
X12295587Y-11826992D01*
X12295586Y-11826992D01*
X12281440Y-11818625D01*
X12281439Y-11818625D01*
X12273140Y-11816214D01*
X12267252Y-11812454D01*
X12264331Y-11806106D01*
X12264200Y-11804307D01*
X12264200Y-10688568D01*
X12646200Y-10688568D01*
X12646200Y-10693800D01*
X12732899Y-10693800D01*
X12729607Y-10699501D01*
X12726200Y-10712217D01*
X12726200Y-10725383D01*
X12729607Y-10738099D01*
X12732899Y-10743800D01*
X12646200Y-10743800D01*
X12646200Y-10749032D01*
X12649401Y-10769242D01*
X12655724Y-10788703D01*
X12665014Y-10806935D01*
X12677042Y-10823489D01*
X12677042Y-10823490D01*
X12691510Y-10837958D01*
X12708065Y-10849986D01*
X12726297Y-10859275D01*
X12745758Y-10865599D01*
X12751200Y-10866461D01*
X12751200Y-10762101D01*
X12756901Y-10765393D01*
X12769617Y-10768800D01*
X12782783Y-10768800D01*
X12795499Y-10765393D01*
X12801200Y-10762101D01*
X12801200Y-10866461D01*
X12806642Y-10865599D01*
X12826103Y-10859275D01*
X12844335Y-10849986D01*
X12860889Y-10837958D01*
X12860889Y-10837958D01*
X12875358Y-10823490D01*
X12875358Y-10823489D01*
X12887386Y-10806935D01*
X12892123Y-10797637D01*
X12896921Y-10792558D01*
X12903703Y-10790878D01*
X12910316Y-10793132D01*
X12914220Y-10797637D01*
X12918971Y-10806961D01*
X12931003Y-10823521D01*
X12945479Y-10837997D01*
X12960975Y-10849256D01*
X12962039Y-10850029D01*
X12973661Y-10855950D01*
X12980278Y-10859322D01*
X12980278Y-10859322D01*
X12980278Y-10859322D01*
X12987147Y-10861554D01*
X12999746Y-10865648D01*
X13008642Y-10867057D01*
X13019965Y-10868850D01*
X13019965Y-10868850D01*
X13040435Y-10868850D01*
X13040435Y-10868850D01*
X13060653Y-10865648D01*
X13080122Y-10859322D01*
X13098361Y-10850029D01*
X13107659Y-10843273D01*
X13114921Y-10837997D01*
X13114921Y-10837997D01*
X13114922Y-10837997D01*
X13129397Y-10823522D01*
X13129397Y-10823522D01*
X13129397Y-10823521D01*
X13141428Y-10806961D01*
X13141429Y-10806961D01*
X13141429Y-10806961D01*
X13146152Y-10797692D01*
X13150949Y-10792612D01*
X13157731Y-10790933D01*
X13164344Y-10793187D01*
X13168248Y-10797692D01*
X13169638Y-10800418D01*
X13172971Y-10806961D01*
X13185003Y-10823521D01*
X13199479Y-10837997D01*
X13214975Y-10849256D01*
X13216039Y-10850029D01*
X13227661Y-10855950D01*
X13234278Y-10859322D01*
X13234278Y-10859322D01*
X13234278Y-10859322D01*
X13241147Y-10861554D01*
X13253746Y-10865648D01*
X13262642Y-10867057D01*
X13273965Y-10868850D01*
X13273965Y-10868850D01*
X13293390Y-10868850D01*
X13300094Y-10870819D01*
X13302158Y-10872482D01*
X13499918Y-11070242D01*
X13503267Y-11076374D01*
X13503550Y-11079010D01*
X13503550Y-12075869D01*
X13501581Y-12082573D01*
X13496301Y-12087149D01*
X13489385Y-12088143D01*
X13483030Y-12085241D01*
X13482382Y-12084637D01*
X13468047Y-12070302D01*
X13468046Y-12070302D01*
X13460094Y-12064524D01*
X13458615Y-12063261D01*
X13448995Y-12053641D01*
X13448995Y-12053641D01*
X13448994Y-12053640D01*
X13434796Y-12045243D01*
X13434795Y-12045243D01*
X13418955Y-12040641D01*
X13418955Y-12040641D01*
X13415254Y-12040350D01*
X13415253Y-12040350D01*
X13189347Y-12040350D01*
X13189346Y-12040350D01*
X13185645Y-12040641D01*
X13185645Y-12040641D01*
X13169804Y-12045243D01*
X13169804Y-12045243D01*
X13155606Y-12053640D01*
X13155605Y-12053641D01*
X13143941Y-12065305D01*
X13143940Y-12065306D01*
X13135543Y-12079504D01*
X13135543Y-12079504D01*
X13130941Y-12095345D01*
X13130941Y-12095345D01*
X13130650Y-12099046D01*
X13130650Y-12234154D01*
X13130941Y-12237855D01*
X13130941Y-12237855D01*
X13135543Y-12253695D01*
X13135543Y-12253696D01*
X13143940Y-12267894D01*
X13143941Y-12267895D01*
X13155605Y-12279559D01*
X13155605Y-12279559D01*
X13155605Y-12279559D01*
X13161300Y-12282927D01*
X13166068Y-12288034D01*
X13167318Y-12294908D01*
X13164654Y-12301367D01*
X13161300Y-12304273D01*
X13155605Y-12307641D01*
X13155605Y-12307641D01*
X13143941Y-12319305D01*
X13143940Y-12319306D01*
X13135543Y-12333504D01*
X13135543Y-12333504D01*
X13130941Y-12349345D01*
X13130941Y-12349345D01*
X13130650Y-12353046D01*
X13130650Y-12488154D01*
X13130941Y-12491855D01*
X13130941Y-12491855D01*
X13135543Y-12507695D01*
X13135543Y-12507696D01*
X13143940Y-12521894D01*
X13143941Y-12521895D01*
X13155605Y-12533559D01*
X13155605Y-12533559D01*
X13155605Y-12533559D01*
X13161300Y-12536927D01*
X13166068Y-12542034D01*
X13167318Y-12548908D01*
X13164654Y-12555367D01*
X13161300Y-12558273D01*
X13155605Y-12561641D01*
X13155605Y-12561641D01*
X13143941Y-12573305D01*
X13143940Y-12573306D01*
X13135543Y-12587504D01*
X13135543Y-12587504D01*
X13130941Y-12603345D01*
X13130941Y-12603345D01*
X13130650Y-12607046D01*
X13130650Y-12742154D01*
X13130941Y-12745855D01*
X13130941Y-12745855D01*
X13135543Y-12761695D01*
X13135543Y-12761696D01*
X13143940Y-12775894D01*
X13143941Y-12775895D01*
X13155605Y-12787559D01*
X13155605Y-12787559D01*
X13155605Y-12787559D01*
X13161300Y-12790927D01*
X13166068Y-12796034D01*
X13167318Y-12802908D01*
X13164654Y-12809367D01*
X13161300Y-12812273D01*
X13155605Y-12815641D01*
X13155605Y-12815641D01*
X13143941Y-12827305D01*
X13143941Y-12827305D01*
X13141554Y-12831340D01*
X13141483Y-12831462D01*
X13136376Y-12836230D01*
X13129501Y-12837480D01*
X13123042Y-12834816D01*
X13122041Y-12833918D01*
X13093882Y-12805758D01*
X13090533Y-12799626D01*
X13090250Y-12796990D01*
X13090250Y-12658106D01*
X13090250Y-12658105D01*
X13090250Y-12641294D01*
X13090250Y-12641294D01*
X13086158Y-12626021D01*
X13079535Y-12614550D01*
X13078252Y-12612328D01*
X13067072Y-12601148D01*
X13067071Y-12601148D01*
X12890682Y-12424758D01*
X12887333Y-12418626D01*
X12887050Y-12415990D01*
X12887050Y-12183473D01*
X12889018Y-12176769D01*
X12894299Y-12172194D01*
X12895549Y-12171703D01*
X12898933Y-12170581D01*
X12913866Y-12161371D01*
X12926271Y-12148966D01*
X12935481Y-12134033D01*
X12941000Y-12117380D01*
X12942050Y-12107101D01*
X12942050Y-11972099D01*
X12941000Y-11961820D01*
X12935481Y-11945167D01*
X12926271Y-11930234D01*
X12913866Y-11917829D01*
X12898933Y-11908619D01*
X12882280Y-11903100D01*
X12882279Y-11903100D01*
X12872001Y-11902050D01*
X12782000Y-11902050D01*
X12781998Y-11902050D01*
X12771720Y-11903100D01*
X12771720Y-11903100D01*
X12755067Y-11908618D01*
X12755066Y-11908619D01*
X12740134Y-11917829D01*
X12727729Y-11930234D01*
X12718519Y-11945166D01*
X12718518Y-11945167D01*
X12717253Y-11948986D01*
X12713000Y-11961820D01*
X12713000Y-11961820D01*
X12713000Y-11961820D01*
X12711950Y-11972098D01*
X12711950Y-12107100D01*
X12711950Y-12107102D01*
X12713000Y-12117380D01*
X12713000Y-12117380D01*
X12718518Y-12134033D01*
X12718519Y-12134034D01*
X12721573Y-12138986D01*
X12727729Y-12148966D01*
X12740134Y-12161371D01*
X12755067Y-12170581D01*
X12758450Y-12171702D01*
X12764195Y-12175680D01*
X12766877Y-12182131D01*
X12766950Y-12183473D01*
X12766950Y-12437333D01*
X12766950Y-12437335D01*
X12766950Y-12453905D01*
X12766950Y-12453905D01*
X12766950Y-12453906D01*
X12771042Y-12469178D01*
X12772951Y-12472484D01*
X12773199Y-12472913D01*
X12773199Y-12472914D01*
X12778947Y-12482871D01*
X12778948Y-12482872D01*
X12790835Y-12494758D01*
X12790835Y-12494759D01*
X12837358Y-12541282D01*
X12840707Y-12547414D01*
X12840208Y-12554383D01*
X12836021Y-12559977D01*
X12829475Y-12562418D01*
X12828590Y-12562450D01*
X12787200Y-12562450D01*
X12787198Y-12562450D01*
X12776920Y-12563500D01*
X12776920Y-12563500D01*
X12760267Y-12569018D01*
X12760266Y-12569019D01*
X12745334Y-12578229D01*
X12732929Y-12590634D01*
X12723719Y-12605566D01*
X12723718Y-12605567D01*
X12721945Y-12610918D01*
X12718200Y-12622220D01*
X12718200Y-12622220D01*
X12718200Y-12622220D01*
X12717150Y-12632498D01*
X12717150Y-12767500D01*
X12717150Y-12767502D01*
X12718200Y-12777780D01*
X12718200Y-12777780D01*
X12723718Y-12794433D01*
X12723719Y-12794434D01*
X12725296Y-12796990D01*
X12732929Y-12809366D01*
X12745334Y-12821771D01*
X12760267Y-12830981D01*
X12776920Y-12836500D01*
X12787199Y-12837550D01*
X12877201Y-12837550D01*
X12877202Y-12837550D01*
X12877202Y-12837550D01*
X12882830Y-12836975D01*
X12887480Y-12836500D01*
X12903050Y-12831340D01*
X12905896Y-12831242D01*
X12908715Y-12830837D01*
X12909342Y-12831124D01*
X12910032Y-12831100D01*
X12912479Y-12832556D01*
X12915070Y-12833740D01*
X12915443Y-12834320D01*
X12916036Y-12834673D01*
X12917308Y-12837221D01*
X12918848Y-12839617D01*
X12918987Y-12840587D01*
X12919156Y-12840925D01*
X12919350Y-12843111D01*
X12919350Y-12843733D01*
X12919350Y-12843735D01*
X12919350Y-12860305D01*
X12919350Y-12860305D01*
X12921483Y-12868267D01*
X12923442Y-12875578D01*
X12926074Y-12880137D01*
X12931348Y-12889271D01*
X12931348Y-12889272D01*
X12943235Y-12901158D01*
X12943235Y-12901159D01*
X13042718Y-13000642D01*
X13046067Y-13006774D01*
X13046350Y-13009410D01*
X13046350Y-13123133D01*
X13046350Y-13123135D01*
X13046350Y-13139705D01*
X13046350Y-13139705D01*
X13049922Y-13153036D01*
X13050442Y-13154978D01*
X13050471Y-13155028D01*
X13050473Y-13155036D01*
X13050475Y-13155035D01*
X13058347Y-13168671D01*
X13058348Y-13168672D01*
X13070235Y-13180558D01*
X13070235Y-13180559D01*
X13109148Y-13219471D01*
X13109148Y-13219472D01*
X13120328Y-13230652D01*
X13125493Y-13233634D01*
X13126401Y-13234425D01*
X13127658Y-13236396D01*
X13129271Y-13238088D01*
X13129599Y-13239437D01*
X13130159Y-13240315D01*
X13130154Y-13241727D01*
X13130650Y-13243770D01*
X13130650Y-13250154D01*
X13130941Y-13253855D01*
X13130941Y-13253855D01*
X13135543Y-13269695D01*
X13135543Y-13269696D01*
X13143940Y-13283894D01*
X13143941Y-13283895D01*
X13155605Y-13295559D01*
X13155605Y-13295559D01*
X13155605Y-13295559D01*
X13161300Y-13298927D01*
X13166068Y-13304034D01*
X13167318Y-13310908D01*
X13164654Y-13317367D01*
X13161300Y-13320273D01*
X13155605Y-13323641D01*
X13155605Y-13323641D01*
X13143941Y-13335305D01*
X13143940Y-13335306D01*
X13135543Y-13349504D01*
X13135543Y-13349504D01*
X13130941Y-13365345D01*
X13130941Y-13365345D01*
X13130650Y-13369046D01*
X13130650Y-13504154D01*
X13130941Y-13507855D01*
X13130941Y-13507855D01*
X13135543Y-13523695D01*
X13135543Y-13523696D01*
X13143940Y-13537894D01*
X13143941Y-13537895D01*
X13155605Y-13549559D01*
X13155605Y-13549559D01*
X13155605Y-13549559D01*
X13161250Y-13552898D01*
X13161300Y-13552927D01*
X13166068Y-13558034D01*
X13167318Y-13564908D01*
X13164654Y-13571367D01*
X13161300Y-13574273D01*
X13155605Y-13577641D01*
X13155605Y-13577641D01*
X13143941Y-13589305D01*
X13143940Y-13589306D01*
X13135543Y-13603504D01*
X13135543Y-13603504D01*
X13130941Y-13619345D01*
X13130941Y-13619345D01*
X13130650Y-13623046D01*
X13130650Y-13758154D01*
X13130941Y-13761855D01*
X13130941Y-13761855D01*
X13135543Y-13777695D01*
X13135543Y-13777696D01*
X13143940Y-13791894D01*
X13143941Y-13791895D01*
X13155605Y-13803559D01*
X13155605Y-13803559D01*
X13155605Y-13803559D01*
X13169804Y-13811956D01*
X13173982Y-13813170D01*
X13185645Y-13816559D01*
X13185645Y-13816559D01*
X13185645Y-13816559D01*
X13189347Y-13816850D01*
X13189347Y-13816850D01*
X13415253Y-13816850D01*
X13415253Y-13816850D01*
X13418955Y-13816559D01*
X13418955Y-13816559D01*
X13418955Y-13816559D01*
X13423132Y-13815345D01*
X13434796Y-13811956D01*
X13448995Y-13803559D01*
X13458615Y-13793939D01*
X13460094Y-13792676D01*
X13468046Y-13786898D01*
X13482098Y-13772846D01*
X13493779Y-13756769D01*
X13502800Y-13739063D01*
X13508941Y-13720164D01*
X13512050Y-13700536D01*
X13512050Y-13680664D01*
X13508941Y-13661036D01*
X13503422Y-13644050D01*
X13502801Y-13642137D01*
X13502800Y-13642137D01*
X13493779Y-13624430D01*
X13482098Y-13608354D01*
X13468046Y-13594302D01*
X13460094Y-13588524D01*
X13459417Y-13587996D01*
X13459000Y-13587646D01*
X13448995Y-13577641D01*
X13442426Y-13573756D01*
X13441648Y-13573104D01*
X13440251Y-13571007D01*
X13438532Y-13569166D01*
X13438347Y-13568149D01*
X13437774Y-13567289D01*
X13437732Y-13564770D01*
X13437282Y-13562292D01*
X13437676Y-13561337D01*
X13437659Y-13560303D01*
X13438986Y-13558162D01*
X13439946Y-13555833D01*
X13440987Y-13554931D01*
X13441339Y-13554364D01*
X13442013Y-13554042D01*
X13443300Y-13552927D01*
X13443350Y-13552898D01*
X13448995Y-13549559D01*
X13458615Y-13539939D01*
X13460094Y-13538676D01*
X13468046Y-13532898D01*
X13482098Y-13518846D01*
X13493779Y-13502769D01*
X13493779Y-13502769D01*
X13493900Y-13502571D01*
X13493966Y-13502512D01*
X13494065Y-13502375D01*
X13494094Y-13502396D01*
X13499081Y-13497884D01*
X13504473Y-13496650D01*
X13605733Y-13496650D01*
X13605735Y-13496650D01*
X13606494Y-13496650D01*
X13622305Y-13496650D01*
X13622306Y-13496650D01*
X13637578Y-13492558D01*
X13642590Y-13489664D01*
X13651272Y-13484652D01*
X13662452Y-13473472D01*
X13662452Y-13473471D01*
X13663473Y-13472451D01*
X13663473Y-13472450D01*
X13752871Y-13383052D01*
X13752872Y-13383052D01*
X13764052Y-13371872D01*
X13769064Y-13363190D01*
X13771958Y-13358178D01*
X13776050Y-13342906D01*
X13776050Y-13327094D01*
X13776050Y-13326335D01*
X13776050Y-13326333D01*
X13776050Y-12156664D01*
X14783550Y-12156664D01*
X14783550Y-12176536D01*
X14783647Y-12177150D01*
X14786659Y-12196164D01*
X14792799Y-12215063D01*
X14792799Y-12215063D01*
X14799992Y-12229179D01*
X14801821Y-12232769D01*
X14813502Y-12248846D01*
X14813502Y-12248847D01*
X14827554Y-12262898D01*
X14835506Y-12268676D01*
X14836182Y-12269204D01*
X14836600Y-12269554D01*
X14846605Y-12279559D01*
X14853174Y-12283444D01*
X14853952Y-12284096D01*
X14855349Y-12286193D01*
X14857068Y-12288034D01*
X14857253Y-12289051D01*
X14857826Y-12289911D01*
X14857867Y-12292430D01*
X14858318Y-12294908D01*
X14857924Y-12295863D01*
X14857941Y-12296897D01*
X14856614Y-12299038D01*
X14855654Y-12301367D01*
X14854612Y-12302269D01*
X14854261Y-12302836D01*
X14853587Y-12303157D01*
X14852300Y-12304273D01*
X14846605Y-12307641D01*
X14846605Y-12307641D01*
X14836985Y-12317260D01*
X14835506Y-12318524D01*
X14827554Y-12324302D01*
X14813502Y-12338353D01*
X14801821Y-12354430D01*
X14792799Y-12372137D01*
X14792799Y-12372137D01*
X14786659Y-12391036D01*
X14783550Y-12410664D01*
X14783550Y-12430536D01*
X14786659Y-12450164D01*
X14792799Y-12469063D01*
X14792799Y-12469063D01*
X14799835Y-12482872D01*
X14801821Y-12486769D01*
X14813502Y-12502846D01*
X14813502Y-12502847D01*
X14827554Y-12516898D01*
X14835506Y-12522676D01*
X14836182Y-12523204D01*
X14836600Y-12523554D01*
X14846605Y-12533559D01*
X14853174Y-12537444D01*
X14853952Y-12538096D01*
X14855349Y-12540193D01*
X14857068Y-12542034D01*
X14857253Y-12543051D01*
X14857826Y-12543911D01*
X14857867Y-12546430D01*
X14858318Y-12548908D01*
X14857924Y-12549863D01*
X14857941Y-12550897D01*
X14856614Y-12553038D01*
X14855654Y-12555367D01*
X14854612Y-12556269D01*
X14854261Y-12556836D01*
X14853587Y-12557157D01*
X14852300Y-12558273D01*
X14846605Y-12561641D01*
X14846605Y-12561641D01*
X14836985Y-12571260D01*
X14835506Y-12572524D01*
X14827554Y-12578302D01*
X14813502Y-12592353D01*
X14801821Y-12608430D01*
X14792799Y-12626137D01*
X14792799Y-12626137D01*
X14786659Y-12645036D01*
X14783550Y-12664664D01*
X14783550Y-12684536D01*
X14786659Y-12704164D01*
X14792799Y-12723063D01*
X14792799Y-12723063D01*
X14798703Y-12734650D01*
X14801821Y-12740769D01*
X14813502Y-12756846D01*
X14813502Y-12756847D01*
X14827554Y-12770898D01*
X14835506Y-12776676D01*
X14836182Y-12777204D01*
X14836600Y-12777554D01*
X14846605Y-12787559D01*
X14853174Y-12791444D01*
X14853952Y-12792096D01*
X14855349Y-12794193D01*
X14857068Y-12796034D01*
X14857253Y-12797051D01*
X14857826Y-12797911D01*
X14857867Y-12800430D01*
X14858318Y-12802908D01*
X14857924Y-12803863D01*
X14857941Y-12804897D01*
X14856614Y-12807038D01*
X14855654Y-12809367D01*
X14854612Y-12810269D01*
X14854261Y-12810836D01*
X14853587Y-12811157D01*
X14852300Y-12812273D01*
X14846605Y-12815641D01*
X14846605Y-12815641D01*
X14836985Y-12825260D01*
X14835506Y-12826524D01*
X14827554Y-12832302D01*
X14813502Y-12846353D01*
X14801821Y-12862430D01*
X14792800Y-12880136D01*
X14786659Y-12899036D01*
X14783550Y-12918664D01*
X14783550Y-12938536D01*
X14786659Y-12958164D01*
X14792799Y-12977063D01*
X14792799Y-12977063D01*
X14798703Y-12988650D01*
X14801821Y-12994769D01*
X14813502Y-13010846D01*
X14813502Y-13010847D01*
X14827554Y-13024898D01*
X14835506Y-13030676D01*
X14836182Y-13031204D01*
X14836600Y-13031554D01*
X14846605Y-13041559D01*
X14853174Y-13045444D01*
X14853952Y-13046096D01*
X14855349Y-13048193D01*
X14857068Y-13050034D01*
X14857253Y-13051051D01*
X14857826Y-13051911D01*
X14857867Y-13054430D01*
X14858318Y-13056908D01*
X14857924Y-13057863D01*
X14857941Y-13058897D01*
X14856614Y-13061038D01*
X14855654Y-13063367D01*
X14854612Y-13064269D01*
X14854261Y-13064836D01*
X14853587Y-13065157D01*
X14852300Y-13066273D01*
X14846605Y-13069641D01*
X14846605Y-13069641D01*
X14836985Y-13079260D01*
X14835506Y-13080524D01*
X14827554Y-13086302D01*
X14813502Y-13100353D01*
X14801821Y-13116430D01*
X14792799Y-13134137D01*
X14792799Y-13134137D01*
X14786659Y-13153036D01*
X14783550Y-13172664D01*
X14783550Y-13192536D01*
X14786659Y-13212164D01*
X14792799Y-13231063D01*
X14792799Y-13231063D01*
X14799274Y-13243770D01*
X14801821Y-13248769D01*
X14813502Y-13264846D01*
X14813502Y-13264847D01*
X14827554Y-13278898D01*
X14835506Y-13284676D01*
X14836179Y-13285201D01*
X14836598Y-13285552D01*
X14846605Y-13295559D01*
X14853221Y-13299472D01*
X14853997Y-13300122D01*
X14855396Y-13302220D01*
X14857117Y-13304063D01*
X14857301Y-13305077D01*
X14857874Y-13305935D01*
X14857916Y-13308456D01*
X14858367Y-13310937D01*
X14857974Y-13311890D01*
X14857991Y-13312921D01*
X14856664Y-13315065D01*
X14855703Y-13317396D01*
X14854664Y-13318296D01*
X14854314Y-13318862D01*
X14853639Y-13319184D01*
X14852349Y-13320302D01*
X14846637Y-13323680D01*
X14846636Y-13323681D01*
X14839436Y-13330881D01*
X14839436Y-13330881D01*
X14901390Y-13392835D01*
X14892643Y-13395179D01*
X14882507Y-13401031D01*
X14874231Y-13409307D01*
X14868379Y-13419443D01*
X14866035Y-13428190D01*
X14804573Y-13366728D01*
X14804573Y-13366728D01*
X14801864Y-13370456D01*
X14792846Y-13388156D01*
X14786707Y-13407048D01*
X14786707Y-13407048D01*
X14783600Y-13426668D01*
X14783600Y-13446532D01*
X14786707Y-13466152D01*
X14786707Y-13466152D01*
X14792846Y-13485044D01*
X14801864Y-13502743D01*
X14804573Y-13506471D01*
X14804573Y-13506472D01*
X14866035Y-13445009D01*
X14868379Y-13453757D01*
X14874231Y-13463893D01*
X14882507Y-13472169D01*
X14892643Y-13478021D01*
X14901390Y-13480365D01*
X14839436Y-13542319D01*
X14846636Y-13549519D01*
X14846636Y-13549519D01*
X14852349Y-13552898D01*
X14857117Y-13558005D01*
X14858367Y-13564879D01*
X14855703Y-13571338D01*
X14853997Y-13573078D01*
X14853220Y-13573728D01*
X14846605Y-13577641D01*
X14836599Y-13587647D01*
X14836178Y-13587999D01*
X14836060Y-13588051D01*
X14835506Y-13588524D01*
X14827554Y-13594302D01*
X14813502Y-13608353D01*
X14801821Y-13624430D01*
X14792799Y-13642137D01*
X14792799Y-13642137D01*
X14786659Y-13661036D01*
X14783550Y-13680664D01*
X14783550Y-13700536D01*
X14786659Y-13720164D01*
X14792799Y-13739063D01*
X14792799Y-13739063D01*
X14800583Y-13754340D01*
X14801821Y-13756769D01*
X14813502Y-13772846D01*
X14813502Y-13772847D01*
X14827554Y-13786898D01*
X14835506Y-13792676D01*
X14836985Y-13793939D01*
X14846605Y-13803559D01*
X14860804Y-13811956D01*
X14864982Y-13813170D01*
X14876645Y-13816559D01*
X14876645Y-13816559D01*
X14876645Y-13816559D01*
X14880347Y-13816850D01*
X14880347Y-13816850D01*
X15106253Y-13816850D01*
X15106253Y-13816850D01*
X15109955Y-13816559D01*
X15109955Y-13816559D01*
X15109955Y-13816559D01*
X15114132Y-13815345D01*
X15125796Y-13811956D01*
X15139995Y-13803559D01*
X15151659Y-13791895D01*
X15160056Y-13777696D01*
X15164659Y-13761855D01*
X15164950Y-13758153D01*
X15164950Y-13623047D01*
X15164659Y-13619345D01*
X15160056Y-13603504D01*
X15151659Y-13589305D01*
X15151659Y-13589305D01*
X15151659Y-13589305D01*
X15139995Y-13577641D01*
X15139995Y-13577641D01*
X15139995Y-13577641D01*
X15134251Y-13574244D01*
X15129483Y-13569137D01*
X15128233Y-13562263D01*
X15130897Y-13555804D01*
X15134251Y-13552898D01*
X15139964Y-13549519D01*
X15139964Y-13549519D01*
X15151619Y-13537864D01*
X15151620Y-13537863D01*
X15160010Y-13523676D01*
X15160010Y-13523675D01*
X15164609Y-13507847D01*
X15164609Y-13507847D01*
X15164900Y-13504149D01*
X15164900Y-13369053D01*
X15164900Y-13369051D01*
X15164609Y-13365353D01*
X15160010Y-13349524D01*
X15151620Y-13335336D01*
X15151619Y-13335336D01*
X15139964Y-13323681D01*
X15139963Y-13323680D01*
X15134251Y-13320302D01*
X15129483Y-13315195D01*
X15128233Y-13308321D01*
X15130897Y-13301862D01*
X15134251Y-13298956D01*
X15139994Y-13295560D01*
X15139994Y-13295559D01*
X15139995Y-13295559D01*
X15151659Y-13283895D01*
X15160056Y-13269696D01*
X15164659Y-13253855D01*
X15164950Y-13250153D01*
X15164950Y-13115047D01*
X15164659Y-13111345D01*
X15160056Y-13095504D01*
X15151659Y-13081305D01*
X15151659Y-13081305D01*
X15151659Y-13081305D01*
X15139995Y-13069641D01*
X15139994Y-13069641D01*
X15134300Y-13066273D01*
X15129532Y-13061166D01*
X15128282Y-13054292D01*
X15130946Y-13047833D01*
X15134300Y-13044927D01*
X15139995Y-13041559D01*
X15151659Y-13029895D01*
X15160056Y-13015696D01*
X15164659Y-12999855D01*
X15164659Y-12999854D01*
X15164773Y-12999231D01*
X15164951Y-12999264D01*
X15167129Y-12993549D01*
X15172752Y-12989401D01*
X15177003Y-12988650D01*
X15332933Y-12988650D01*
X15332935Y-12988650D01*
X15333694Y-12988650D01*
X15349505Y-12988650D01*
X15349506Y-12988650D01*
X15364778Y-12984558D01*
X15369790Y-12981664D01*
X15378472Y-12976652D01*
X15389652Y-12965472D01*
X15389652Y-12965471D01*
X15390673Y-12964451D01*
X15390673Y-12964450D01*
X15480071Y-12875052D01*
X15480072Y-12875052D01*
X15491252Y-12863872D01*
X15496264Y-12855190D01*
X15499158Y-12850178D01*
X15503250Y-12834906D01*
X15503250Y-12819094D01*
X15503250Y-12818335D01*
X15503250Y-12818333D01*
X15503250Y-11256810D01*
X15505218Y-11250106D01*
X15506882Y-11248042D01*
X15566042Y-11188882D01*
X15572174Y-11185533D01*
X15574810Y-11185250D01*
X15949628Y-11185250D01*
X15956332Y-11187218D01*
X15960676Y-11192020D01*
X15962695Y-11195981D01*
X15962695Y-11195981D01*
X15975189Y-11213179D01*
X15990221Y-11228211D01*
X16007418Y-11240705D01*
X16008295Y-11241152D01*
X16013374Y-11245949D01*
X16015054Y-11252731D01*
X16012800Y-11259345D01*
X16008295Y-11263248D01*
X16007418Y-11263695D01*
X15990221Y-11276189D01*
X15975189Y-11291221D01*
X15962695Y-11308418D01*
X15953044Y-11327358D01*
X15946475Y-11347576D01*
X15946475Y-11347576D01*
X15943150Y-11368571D01*
X15943150Y-11389829D01*
X15946475Y-11410824D01*
X15948449Y-11416898D01*
X15953044Y-11431041D01*
X15962695Y-11449982D01*
X15975189Y-11467179D01*
X15990221Y-11482211D01*
X16007418Y-11494705D01*
X16008295Y-11495152D01*
X16013374Y-11499949D01*
X16015054Y-11506731D01*
X16012800Y-11513345D01*
X16008295Y-11517248D01*
X16007418Y-11517695D01*
X15990221Y-11530189D01*
X15975189Y-11545221D01*
X15962695Y-11562418D01*
X15953044Y-11581358D01*
X15946475Y-11601576D01*
X15945123Y-11610115D01*
X15943150Y-11622571D01*
X15943150Y-11643829D01*
X15946475Y-11664824D01*
X15952535Y-11683473D01*
X15953044Y-11685041D01*
X15962695Y-11703982D01*
X15975189Y-11721179D01*
X15990221Y-11736211D01*
X16007418Y-11748705D01*
X16007418Y-11748705D01*
X16007418Y-11748705D01*
X16008349Y-11749179D01*
X16013429Y-11753977D01*
X16015109Y-11760759D01*
X16012855Y-11767372D01*
X16008350Y-11771276D01*
X16007445Y-11771738D01*
X16007444Y-11771738D01*
X16002028Y-11775673D01*
X16002028Y-11775673D01*
X16065259Y-11838904D01*
X16058901Y-11840607D01*
X16047499Y-11847190D01*
X16038190Y-11856499D01*
X16031607Y-11867901D01*
X16029904Y-11874259D01*
X15966673Y-11811028D01*
X15966673Y-11811028D01*
X15962738Y-11816444D01*
X15953090Y-11835378D01*
X15946524Y-11855587D01*
X15946524Y-11855587D01*
X15943200Y-11876575D01*
X15943200Y-11897825D01*
X15946524Y-11918813D01*
X15946524Y-11918813D01*
X15953090Y-11939022D01*
X15962737Y-11957955D01*
X15966673Y-11963372D01*
X16029904Y-11900141D01*
X16031607Y-11906499D01*
X16038190Y-11917901D01*
X16047499Y-11927210D01*
X16058901Y-11933792D01*
X16065259Y-11935496D01*
X16002028Y-11998727D01*
X16002028Y-11998727D01*
X16007445Y-12002663D01*
X16007445Y-12002663D01*
X16008349Y-12003123D01*
X16013429Y-12007921D01*
X16015109Y-12014703D01*
X16012855Y-12021316D01*
X16008350Y-12025220D01*
X16007418Y-12025695D01*
X15990221Y-12038189D01*
X15975189Y-12053221D01*
X15962695Y-12070418D01*
X15953044Y-12089358D01*
X15946475Y-12109576D01*
X15943150Y-12130571D01*
X15943150Y-12151829D01*
X15946123Y-12170602D01*
X15946475Y-12172824D01*
X15947881Y-12177150D01*
X15953044Y-12193041D01*
X15962695Y-12211982D01*
X15975189Y-12229179D01*
X15990221Y-12244211D01*
X16007418Y-12256705D01*
X16008295Y-12257152D01*
X16013374Y-12261949D01*
X16015054Y-12268731D01*
X16012800Y-12275345D01*
X16008295Y-12279248D01*
X16007418Y-12279695D01*
X15990221Y-12292189D01*
X15975189Y-12307221D01*
X15962695Y-12324418D01*
X15953044Y-12343358D01*
X15946475Y-12363576D01*
X15943150Y-12384571D01*
X15943150Y-12405829D01*
X15946302Y-12425729D01*
X15946475Y-12426824D01*
X15951767Y-12443110D01*
X15953044Y-12447041D01*
X15962695Y-12465982D01*
X15975189Y-12483179D01*
X15990221Y-12498211D01*
X16007418Y-12510705D01*
X16007418Y-12510705D01*
X16007418Y-12510705D01*
X16026359Y-12520356D01*
X16046576Y-12526925D01*
X16067571Y-12530250D01*
X16067571Y-12530250D01*
X16088829Y-12530250D01*
X16088829Y-12530250D01*
X16109824Y-12526925D01*
X16130041Y-12520356D01*
X16148982Y-12510705D01*
X16159798Y-12502847D01*
X16166179Y-12498211D01*
X16166179Y-12498211D01*
X16166179Y-12498210D01*
X16181210Y-12483179D01*
X16181211Y-12483179D01*
X16181211Y-12483179D01*
X16193705Y-12465982D01*
X16193705Y-12465982D01*
X16193705Y-12465982D01*
X16203356Y-12447041D01*
X16209925Y-12426824D01*
X16213250Y-12405829D01*
X16213250Y-12384571D01*
X16209925Y-12363576D01*
X16203356Y-12343359D01*
X16193705Y-12324418D01*
X16193705Y-12324418D01*
X16193705Y-12324418D01*
X16181211Y-12307221D01*
X16166179Y-12292189D01*
X16148982Y-12279695D01*
X16148911Y-12279659D01*
X16148105Y-12279248D01*
X16143026Y-12274451D01*
X16141346Y-12267669D01*
X16143600Y-12261056D01*
X16148105Y-12257151D01*
X16148982Y-12256705D01*
X16159798Y-12248847D01*
X16166179Y-12244211D01*
X16166179Y-12244211D01*
X16166179Y-12244210D01*
X16181210Y-12229179D01*
X16181211Y-12229179D01*
X16181211Y-12229179D01*
X16193705Y-12211982D01*
X16193705Y-12211982D01*
X16193705Y-12211982D01*
X16203356Y-12193041D01*
X16209925Y-12172824D01*
X16213250Y-12151829D01*
X16213250Y-12130571D01*
X16209925Y-12109576D01*
X16203356Y-12089359D01*
X16193705Y-12070418D01*
X16193705Y-12070418D01*
X16193705Y-12070418D01*
X16181211Y-12053221D01*
X16166179Y-12038189D01*
X16148982Y-12025695D01*
X16148050Y-12025220D01*
X16142971Y-12020423D01*
X16141291Y-12013641D01*
X16143545Y-12007027D01*
X16148051Y-12003123D01*
X16148955Y-12002662D01*
X16154372Y-11998727D01*
X16154372Y-11998727D01*
X16091141Y-11935496D01*
X16097499Y-11933792D01*
X16108901Y-11927210D01*
X16118210Y-11917901D01*
X16124792Y-11906499D01*
X16126496Y-11900141D01*
X16189727Y-11963372D01*
X16189727Y-11963372D01*
X16193662Y-11957955D01*
X16203309Y-11939022D01*
X16209876Y-11918813D01*
X16209876Y-11918813D01*
X16213200Y-11897825D01*
X16213200Y-11876575D01*
X16209876Y-11855587D01*
X16209876Y-11855587D01*
X16203309Y-11835378D01*
X16193662Y-11816445D01*
X16189727Y-11811028D01*
X16189727Y-11811028D01*
X16126496Y-11874259D01*
X16124792Y-11867901D01*
X16118210Y-11856499D01*
X16108901Y-11847190D01*
X16097499Y-11840607D01*
X16091141Y-11838904D01*
X16154372Y-11775673D01*
X16148955Y-11771737D01*
X16148955Y-11771737D01*
X16148050Y-11771276D01*
X16142971Y-11766479D01*
X16141291Y-11759697D01*
X16143545Y-11753083D01*
X16148051Y-11749179D01*
X16148982Y-11748705D01*
X16156901Y-11742951D01*
X16166179Y-11736211D01*
X16166179Y-11736211D01*
X16166179Y-11736210D01*
X16181210Y-11721179D01*
X16181211Y-11721179D01*
X16181211Y-11721179D01*
X16193705Y-11703982D01*
X16193705Y-11703982D01*
X16193705Y-11703982D01*
X16203356Y-11685041D01*
X16209925Y-11664824D01*
X16213250Y-11643829D01*
X16213250Y-11622571D01*
X16209925Y-11601576D01*
X16203356Y-11581359D01*
X16193705Y-11562418D01*
X16193705Y-11562418D01*
X16193705Y-11562418D01*
X16181211Y-11545221D01*
X16166179Y-11530189D01*
X16148982Y-11517695D01*
X16148911Y-11517659D01*
X16148105Y-11517248D01*
X16143026Y-11512451D01*
X16141346Y-11505669D01*
X16143600Y-11499056D01*
X16148105Y-11495151D01*
X16148982Y-11494705D01*
X16151179Y-11493109D01*
X16166179Y-11482211D01*
X16166179Y-11482211D01*
X16166179Y-11482210D01*
X16181210Y-11467179D01*
X16181211Y-11467179D01*
X16181211Y-11467179D01*
X16193705Y-11449982D01*
X16193705Y-11449982D01*
X16193705Y-11449982D01*
X16203356Y-11431041D01*
X16209925Y-11410824D01*
X16213250Y-11389829D01*
X16213250Y-11368571D01*
X16209925Y-11347576D01*
X16208551Y-11343347D01*
X16208507Y-11341826D01*
X16207975Y-11340400D01*
X16208409Y-11338405D01*
X16208351Y-11336363D01*
X16209160Y-11334955D01*
X16209461Y-11333573D01*
X16211575Y-11330748D01*
X16229151Y-11313173D01*
X16229151Y-11313172D01*
X16230171Y-11312152D01*
X16230172Y-11312152D01*
X16241352Y-11300972D01*
X16241756Y-11300272D01*
X16247376Y-11290537D01*
X16247377Y-11290537D01*
X16249258Y-11287279D01*
X16249258Y-11287278D01*
X16253350Y-11272006D01*
X16253350Y-11256194D01*
X16253350Y-11255435D01*
X16253350Y-11255433D01*
X16253350Y-11069619D01*
X16253350Y-11069618D01*
X16249258Y-11054346D01*
X16249257Y-11054345D01*
X16241352Y-11040653D01*
X16241352Y-11040653D01*
X16241352Y-11040652D01*
X16230172Y-11029472D01*
X16230171Y-11029472D01*
X16229738Y-11029039D01*
X16229737Y-11029038D01*
X16179313Y-10978613D01*
X16175964Y-10972481D01*
X16176462Y-10965512D01*
X16179313Y-10961077D01*
X16181210Y-10959179D01*
X16181211Y-10959179D01*
X16181211Y-10959179D01*
X16193705Y-10941982D01*
X16193705Y-10941982D01*
X16193705Y-10941982D01*
X16203356Y-10923041D01*
X16209925Y-10902824D01*
X16213250Y-10881829D01*
X16213250Y-10860571D01*
X16209925Y-10839576D01*
X16203356Y-10819359D01*
X16193705Y-10800418D01*
X16193705Y-10800418D01*
X16193705Y-10800418D01*
X16181211Y-10783221D01*
X16169857Y-10771867D01*
X16166508Y-10765735D01*
X16167007Y-10758766D01*
X16171194Y-10753173D01*
X16174291Y-10751481D01*
X16187433Y-10746580D01*
X16198955Y-10737955D01*
X16207580Y-10726433D01*
X16212609Y-10712948D01*
X16213250Y-10706987D01*
X16213250Y-10527413D01*
X16212609Y-10521452D01*
X16207580Y-10507967D01*
X16207579Y-10507967D01*
X16207579Y-10507966D01*
X16198955Y-10496446D01*
X16198954Y-10496445D01*
X16187433Y-10487821D01*
X16187433Y-10487820D01*
X16173948Y-10482791D01*
X16173948Y-10482791D01*
X16167988Y-10482150D01*
X16167988Y-10482150D01*
X16167987Y-10482150D01*
X16167986Y-10482150D01*
X15988413Y-10482150D01*
X15988412Y-10482150D01*
X15982452Y-10482791D01*
X15968967Y-10487820D01*
X15968966Y-10487821D01*
X15957445Y-10496445D01*
X15957445Y-10496446D01*
X15948821Y-10507966D01*
X15948820Y-10507967D01*
X15943791Y-10521452D01*
X15943150Y-10527412D01*
X15943150Y-10527412D01*
X15943150Y-10527414D01*
X15943150Y-10611390D01*
X15941181Y-10618094D01*
X15939518Y-10620158D01*
X15903148Y-10656528D01*
X15903148Y-10656528D01*
X15899503Y-10662842D01*
X15896325Y-10668347D01*
X15895770Y-10669308D01*
X15895242Y-10670222D01*
X15891150Y-10685494D01*
X15891150Y-10685495D01*
X15891150Y-10702305D01*
X15891150Y-10702306D01*
X15891150Y-10891990D01*
X15890285Y-10894934D01*
X15889633Y-10897933D01*
X15889258Y-10898435D01*
X15889181Y-10898694D01*
X15887518Y-10900758D01*
X15879158Y-10909118D01*
X15873026Y-10912467D01*
X15870390Y-10912750D01*
X15401067Y-10912750D01*
X15401065Y-10912750D01*
X15400306Y-10912750D01*
X15384494Y-10912750D01*
X15376858Y-10914796D01*
X15369221Y-10916842D01*
X15369221Y-10916843D01*
X15355529Y-10924748D01*
X15355528Y-10924748D01*
X15166548Y-11113728D01*
X15166548Y-11113728D01*
X15162903Y-11120042D01*
X15158642Y-11127422D01*
X15154550Y-11142694D01*
X15154550Y-11142695D01*
X15154550Y-11159505D01*
X15154550Y-11159506D01*
X15154550Y-12040509D01*
X15152581Y-12047213D01*
X15147301Y-12051789D01*
X15140385Y-12052783D01*
X15135838Y-12051182D01*
X15125796Y-12045243D01*
X15125795Y-12045243D01*
X15109955Y-12040641D01*
X15109955Y-12040641D01*
X15106254Y-12040350D01*
X15106253Y-12040350D01*
X14880347Y-12040350D01*
X14880346Y-12040350D01*
X14876645Y-12040641D01*
X14876645Y-12040641D01*
X14860804Y-12045243D01*
X14860804Y-12045243D01*
X14846606Y-12053640D01*
X14846605Y-12053641D01*
X14836985Y-12063260D01*
X14835506Y-12064524D01*
X14827554Y-12070302D01*
X14813502Y-12084353D01*
X14801821Y-12100430D01*
X14792799Y-12118137D01*
X14792799Y-12118137D01*
X14786659Y-12137036D01*
X14785268Y-12145818D01*
X14783550Y-12156664D01*
X13776050Y-12156664D01*
X13776050Y-9809010D01*
X13778018Y-9802306D01*
X13779682Y-9800242D01*
X13844912Y-9735011D01*
X13911787Y-9668136D01*
X13917919Y-9664788D01*
X13924888Y-9665286D01*
X13925296Y-9665447D01*
X13937401Y-9670461D01*
X13960199Y-9676569D01*
X13983599Y-9679650D01*
X13983600Y-9679650D01*
X14007200Y-9679650D01*
X14007201Y-9679650D01*
X14030601Y-9676569D01*
X14053399Y-9670461D01*
X14075205Y-9661428D01*
X14095645Y-9649627D01*
X14114370Y-9635259D01*
X14114370Y-9635259D01*
X14119865Y-9629764D01*
X14131059Y-9618570D01*
X14131059Y-9618570D01*
X14145427Y-9599845D01*
X14157228Y-9579405D01*
X14166261Y-9557599D01*
X14172369Y-9534801D01*
X14175450Y-9511401D01*
X14175450Y-9487801D01*
X14323400Y-9487801D01*
X14323400Y-9511399D01*
X14326480Y-9534791D01*
X14332587Y-9557584D01*
X14341616Y-9579382D01*
X14341616Y-9579383D01*
X14353414Y-9599817D01*
X14353414Y-9599817D01*
X14359672Y-9607972D01*
X14443296Y-9524349D01*
X14445798Y-9530389D01*
X14452911Y-9541035D01*
X14461965Y-9550089D01*
X14472611Y-9557202D01*
X14478651Y-9559704D01*
X14395027Y-9643328D01*
X14403183Y-9649585D01*
X14403183Y-9649586D01*
X14423617Y-9661383D01*
X14423618Y-9661384D01*
X14445416Y-9670413D01*
X14445416Y-9670413D01*
X14468208Y-9676520D01*
X14491601Y-9679600D01*
X14491603Y-9679600D01*
X14515197Y-9679600D01*
X14515198Y-9679600D01*
X14538591Y-9676520D01*
X14561384Y-9670413D01*
X14583182Y-9661384D01*
X14583183Y-9661383D01*
X14603618Y-9649585D01*
X14611772Y-9643328D01*
X14611772Y-9643328D01*
X14528149Y-9559704D01*
X14534189Y-9557202D01*
X14544835Y-9550089D01*
X14553889Y-9541035D01*
X14561002Y-9530389D01*
X14563504Y-9524349D01*
X14647128Y-9607972D01*
X14647128Y-9607972D01*
X14653385Y-9599818D01*
X14665183Y-9579383D01*
X14665184Y-9579382D01*
X14674213Y-9557584D01*
X14680320Y-9534791D01*
X14683400Y-9511399D01*
X14683400Y-9511397D01*
X14683400Y-9487803D01*
X14683400Y-9487801D01*
X14831400Y-9487801D01*
X14831400Y-9511399D01*
X14834480Y-9534791D01*
X14840587Y-9557584D01*
X14849616Y-9579382D01*
X14849616Y-9579383D01*
X14861414Y-9599817D01*
X14861414Y-9599817D01*
X14867672Y-9607972D01*
X14951296Y-9524349D01*
X14953798Y-9530389D01*
X14960911Y-9541035D01*
X14969965Y-9550089D01*
X14980611Y-9557202D01*
X14986651Y-9559704D01*
X14903027Y-9643328D01*
X14911183Y-9649585D01*
X14911183Y-9649586D01*
X14931617Y-9661383D01*
X14931618Y-9661384D01*
X14953416Y-9670413D01*
X14953416Y-9670413D01*
X14976208Y-9676520D01*
X14999601Y-9679600D01*
X14999603Y-9679600D01*
X15023197Y-9679600D01*
X15023198Y-9679600D01*
X15046591Y-9676520D01*
X15069384Y-9670413D01*
X15091182Y-9661384D01*
X15091183Y-9661383D01*
X15111618Y-9649585D01*
X15119772Y-9643328D01*
X15119772Y-9643328D01*
X15036149Y-9559704D01*
X15042189Y-9557202D01*
X15052835Y-9550089D01*
X15061889Y-9541035D01*
X15069002Y-9530389D01*
X15071504Y-9524349D01*
X15155128Y-9607972D01*
X15155128Y-9607972D01*
X15161385Y-9599818D01*
X15173183Y-9579383D01*
X15173184Y-9579382D01*
X15182213Y-9557584D01*
X15188320Y-9534791D01*
X15191400Y-9511399D01*
X15191400Y-9511397D01*
X15191400Y-9487803D01*
X15191400Y-9487801D01*
X15188320Y-9464409D01*
X15182213Y-9441616D01*
X15173184Y-9419818D01*
X15173183Y-9419817D01*
X15161385Y-9399383D01*
X15161385Y-9399383D01*
X15155128Y-9391228D01*
X15071504Y-9474851D01*
X15069002Y-9468811D01*
X15061889Y-9458165D01*
X15052835Y-9449111D01*
X15042189Y-9441998D01*
X15036149Y-9439496D01*
X15119772Y-9355872D01*
X15111617Y-9349615D01*
X15111617Y-9349614D01*
X15091183Y-9337817D01*
X15091182Y-9337816D01*
X15069384Y-9328787D01*
X15069384Y-9328787D01*
X15046591Y-9322680D01*
X15023198Y-9319600D01*
X14999601Y-9319600D01*
X14976208Y-9322680D01*
X14953416Y-9328787D01*
X14931618Y-9337816D01*
X14931617Y-9337817D01*
X14911183Y-9349614D01*
X14911182Y-9349615D01*
X14903027Y-9355872D01*
X14903027Y-9355872D01*
X14986651Y-9439496D01*
X14980611Y-9441998D01*
X14969965Y-9449111D01*
X14960911Y-9458165D01*
X14953798Y-9468811D01*
X14951296Y-9474851D01*
X14867672Y-9391228D01*
X14867672Y-9391228D01*
X14861415Y-9399382D01*
X14861414Y-9399383D01*
X14849616Y-9419817D01*
X14849616Y-9419818D01*
X14840587Y-9441616D01*
X14834480Y-9464409D01*
X14831400Y-9487801D01*
X14683400Y-9487801D01*
X14680320Y-9464409D01*
X14674213Y-9441616D01*
X14665184Y-9419818D01*
X14665183Y-9419817D01*
X14653385Y-9399383D01*
X14653385Y-9399383D01*
X14647128Y-9391228D01*
X14563504Y-9474851D01*
X14561002Y-9468811D01*
X14553889Y-9458165D01*
X14544835Y-9449111D01*
X14534189Y-9441998D01*
X14528149Y-9439496D01*
X14611772Y-9355872D01*
X14603617Y-9349615D01*
X14603617Y-9349614D01*
X14583183Y-9337817D01*
X14583182Y-9337816D01*
X14561384Y-9328787D01*
X14561384Y-9328787D01*
X14538591Y-9322680D01*
X14515198Y-9319600D01*
X14491601Y-9319600D01*
X14468208Y-9322680D01*
X14445416Y-9328787D01*
X14423618Y-9337816D01*
X14423617Y-9337817D01*
X14403183Y-9349614D01*
X14403182Y-9349615D01*
X14395027Y-9355872D01*
X14395027Y-9355872D01*
X14478651Y-9439496D01*
X14472611Y-9441998D01*
X14461965Y-9449111D01*
X14452911Y-9458165D01*
X14445798Y-9468811D01*
X14443296Y-9474851D01*
X14359672Y-9391228D01*
X14359672Y-9391228D01*
X14353415Y-9399382D01*
X14353414Y-9399383D01*
X14341616Y-9419817D01*
X14341616Y-9419818D01*
X14332587Y-9441616D01*
X14326480Y-9464409D01*
X14323400Y-9487801D01*
X14175450Y-9487801D01*
X14175450Y-9487799D01*
X14172369Y-9464399D01*
X14166261Y-9441601D01*
X14157228Y-9419795D01*
X14157228Y-9419795D01*
X14157228Y-9419794D01*
X14153012Y-9412492D01*
X14145427Y-9399355D01*
X14131059Y-9380630D01*
X14131059Y-9380630D01*
X14114370Y-9363941D01*
X14114370Y-9363941D01*
X14095645Y-9349573D01*
X14095645Y-9349573D01*
X14095645Y-9349573D01*
X14087496Y-9344868D01*
X14075206Y-9337772D01*
X14075204Y-9337771D01*
X14053399Y-9328739D01*
X14030601Y-9322631D01*
X14007202Y-9319550D01*
X14007202Y-9319550D01*
X14007201Y-9319550D01*
X13983599Y-9319550D01*
X13983598Y-9319550D01*
X13983598Y-9319550D01*
X13960199Y-9322631D01*
X13937401Y-9328739D01*
X13915595Y-9337771D01*
X13915594Y-9337772D01*
X13895154Y-9349573D01*
X13876430Y-9363941D01*
X13876429Y-9363941D01*
X13859741Y-9380630D01*
X13859741Y-9380630D01*
X13845373Y-9399355D01*
X13845373Y-9399355D01*
X13845373Y-9399355D01*
X13844601Y-9400691D01*
X13833572Y-9419794D01*
X13833571Y-9419795D01*
X13824539Y-9441601D01*
X13818431Y-9464399D01*
X13815350Y-9487798D01*
X13815350Y-9487800D01*
X13815350Y-9511400D01*
X13815350Y-9511402D01*
X13818431Y-9534801D01*
X13824539Y-9557600D01*
X13829551Y-9569699D01*
X13830298Y-9576646D01*
X13827171Y-9582894D01*
X13826863Y-9583213D01*
X13679129Y-9730948D01*
X13667948Y-9742128D01*
X13667948Y-9742129D01*
X13662936Y-9750809D01*
X13662936Y-9750810D01*
X13660042Y-9755821D01*
X13660042Y-9755821D01*
X13660042Y-9755822D01*
X13655950Y-9771094D01*
X13655950Y-9771095D01*
X13655950Y-9787905D01*
X13655950Y-9787906D01*
X13655950Y-10602695D01*
X13653981Y-10609399D01*
X13648701Y-10613975D01*
X13641785Y-10614969D01*
X13635430Y-10612067D01*
X13634782Y-10611463D01*
X13622921Y-10599603D01*
X13606361Y-10587572D01*
X13606361Y-10587571D01*
X13606361Y-10587571D01*
X13600665Y-10584669D01*
X13588122Y-10578278D01*
X13568653Y-10571952D01*
X13551199Y-10569188D01*
X13548435Y-10568750D01*
X13527965Y-10568750D01*
X13525533Y-10569135D01*
X13507746Y-10571952D01*
X13488278Y-10578278D01*
X13470039Y-10587572D01*
X13453479Y-10599603D01*
X13439003Y-10614079D01*
X13426971Y-10630639D01*
X13422248Y-10639908D01*
X13417451Y-10644988D01*
X13410669Y-10646667D01*
X13404055Y-10644413D01*
X13400151Y-10639908D01*
X13395442Y-10630665D01*
X13395429Y-10630639D01*
X13394656Y-10629575D01*
X13383397Y-10614079D01*
X13368921Y-10599603D01*
X13352361Y-10587572D01*
X13352361Y-10587571D01*
X13352361Y-10587571D01*
X13346665Y-10584669D01*
X13334122Y-10578278D01*
X13314653Y-10571952D01*
X13297199Y-10569188D01*
X13294435Y-10568750D01*
X13273965Y-10568750D01*
X13271533Y-10569135D01*
X13253746Y-10571952D01*
X13234278Y-10578278D01*
X13216039Y-10587572D01*
X13199479Y-10599603D01*
X13185003Y-10614079D01*
X13172971Y-10630639D01*
X13168248Y-10639908D01*
X13163451Y-10644988D01*
X13156669Y-10646667D01*
X13150055Y-10644413D01*
X13146151Y-10639908D01*
X13141442Y-10630665D01*
X13141429Y-10630639D01*
X13140656Y-10629575D01*
X13129397Y-10614079D01*
X13114921Y-10599603D01*
X13098361Y-10587572D01*
X13098361Y-10587571D01*
X13098361Y-10587571D01*
X13092665Y-10584669D01*
X13080122Y-10578278D01*
X13060653Y-10571952D01*
X13043199Y-10569188D01*
X13040435Y-10568750D01*
X13019965Y-10568750D01*
X13017533Y-10569135D01*
X12999746Y-10571952D01*
X12980278Y-10578278D01*
X12962039Y-10587572D01*
X12945479Y-10599603D01*
X12931003Y-10614079D01*
X12918971Y-10630639D01*
X12914220Y-10639963D01*
X12909423Y-10645043D01*
X12902641Y-10646722D01*
X12896027Y-10644468D01*
X12892123Y-10639963D01*
X12887386Y-10630665D01*
X12875358Y-10614111D01*
X12875358Y-10614110D01*
X12860889Y-10599642D01*
X12844335Y-10587614D01*
X12826103Y-10578324D01*
X12806641Y-10572001D01*
X12801200Y-10571139D01*
X12801200Y-10675499D01*
X12795499Y-10672208D01*
X12782783Y-10668800D01*
X12769617Y-10668800D01*
X12756901Y-10672208D01*
X12751200Y-10675499D01*
X12751200Y-10571139D01*
X12745759Y-10572001D01*
X12726297Y-10578324D01*
X12708065Y-10587614D01*
X12691510Y-10599642D01*
X12691510Y-10599642D01*
X12677042Y-10614110D01*
X12677042Y-10614111D01*
X12665014Y-10630665D01*
X12655724Y-10648897D01*
X12649401Y-10668358D01*
X12646200Y-10688568D01*
X12264200Y-10688568D01*
X12264200Y-10330260D01*
X12266168Y-10323556D01*
X12267832Y-10321492D01*
X12441842Y-10147482D01*
X12447974Y-10144133D01*
X12450610Y-10143850D01*
X13300933Y-10143850D01*
X13300935Y-10143850D01*
X13301694Y-10143850D01*
X13317505Y-10143850D01*
X13317506Y-10143850D01*
X13332778Y-10139758D01*
X13337790Y-10136864D01*
X13346472Y-10131852D01*
X13357652Y-10120672D01*
X13357652Y-10120671D01*
X13358673Y-10119651D01*
X13358673Y-10119650D01*
X13535452Y-9942872D01*
X13543358Y-9929178D01*
X13547450Y-9913906D01*
X13547450Y-9898094D01*
X13547450Y-9897335D01*
X13547450Y-9897333D01*
X13547450Y-9677897D01*
X13549418Y-9671193D01*
X13554699Y-9666617D01*
X13555105Y-9666440D01*
X13567204Y-9661429D01*
X13567204Y-9661429D01*
X13567205Y-9661428D01*
X13587645Y-9649627D01*
X13606370Y-9635259D01*
X13623059Y-9618570D01*
X13637427Y-9599845D01*
X13649228Y-9579405D01*
X13658261Y-9557599D01*
X13664369Y-9534801D01*
X13667450Y-9511401D01*
X13667450Y-9487799D01*
X13664369Y-9464399D01*
X13658261Y-9441601D01*
X13649228Y-9419795D01*
X13649228Y-9419795D01*
X13649228Y-9419794D01*
X13645012Y-9412492D01*
X13637427Y-9399355D01*
X13623059Y-9380630D01*
X13623059Y-9380630D01*
X13606370Y-9363941D01*
X13606370Y-9363941D01*
X13587645Y-9349573D01*
X13587645Y-9349573D01*
X13587645Y-9349573D01*
X13579496Y-9344868D01*
X13567206Y-9337772D01*
X13567204Y-9337771D01*
X13545399Y-9328739D01*
X13522601Y-9322631D01*
X13499202Y-9319550D01*
X13499202Y-9319550D01*
X13499201Y-9319550D01*
X13475599Y-9319550D01*
X13475598Y-9319550D01*
X13475598Y-9319550D01*
X13452199Y-9322631D01*
X13429401Y-9328739D01*
X13407595Y-9337771D01*
X13407594Y-9337772D01*
X13387154Y-9349573D01*
X13368430Y-9363941D01*
X13368429Y-9363941D01*
X13351741Y-9380630D01*
X13351741Y-9380630D01*
X13337373Y-9399355D01*
X13337373Y-9399355D01*
X13337373Y-9399355D01*
X13336601Y-9400691D01*
X13325572Y-9419794D01*
X13325571Y-9419795D01*
X13316539Y-9441601D01*
X13310431Y-9464399D01*
X13307350Y-9487798D01*
X13307350Y-9487800D01*
X13307350Y-9511400D01*
X13307350Y-9511402D01*
X13310429Y-9534791D01*
X13310431Y-9534801D01*
X13310586Y-9535382D01*
X13316539Y-9557599D01*
X13325571Y-9579405D01*
X13325572Y-9579406D01*
X13332668Y-9591696D01*
X13337373Y-9599845D01*
X13337373Y-9599845D01*
X13337373Y-9599845D01*
X13351741Y-9618570D01*
X13351741Y-9618570D01*
X13368429Y-9635259D01*
X13368430Y-9635259D01*
X13379431Y-9643700D01*
X13387155Y-9649627D01*
X13407595Y-9661428D01*
X13407596Y-9661429D01*
X13407596Y-9661429D01*
X13419695Y-9666440D01*
X13425136Y-9670824D01*
X13427342Y-9677454D01*
X13427350Y-9677897D01*
X13427350Y-9875990D01*
X13425381Y-9882694D01*
X13423718Y-9884758D01*
X13288358Y-10020118D01*
X13282226Y-10023467D01*
X13279590Y-10023750D01*
X12428506Y-10023750D01*
X12412694Y-10023750D01*
X12397421Y-10027842D01*
X12397421Y-10027842D01*
X12397421Y-10027842D01*
X12397421Y-10027843D01*
X12392410Y-10030736D01*
X12392409Y-10030736D01*
X12388069Y-10033242D01*
X12383728Y-10035748D01*
X12383728Y-10035748D01*
X12156098Y-10263378D01*
X12156098Y-10263379D01*
X12151086Y-10272059D01*
X12151086Y-10272060D01*
X12148192Y-10277071D01*
X12148192Y-10277071D01*
X12148192Y-10277072D01*
X12144100Y-10292344D01*
X12144100Y-10292345D01*
X12144100Y-10309155D01*
X12144100Y-10309156D01*
X12144100Y-11804307D01*
X12142131Y-11811011D01*
X12136851Y-11815586D01*
X12135160Y-11816214D01*
X12126860Y-11818625D01*
X12126860Y-11818625D01*
X12112714Y-11826992D01*
X12112713Y-11826992D01*
X12101092Y-11838613D01*
X12101092Y-11838614D01*
X12092725Y-11852760D01*
X12092725Y-11852761D01*
X12088140Y-11868543D01*
X12088140Y-11868543D01*
X12087850Y-11872230D01*
X12087850Y-11912074D01*
X12085881Y-11918778D01*
X12080601Y-11923354D01*
X12073685Y-11924348D01*
X12068814Y-11922281D01*
X12068727Y-11922429D01*
X12053920Y-11913672D01*
X12053919Y-11913672D01*
X12038149Y-11909090D01*
X12038149Y-11909090D01*
X12034465Y-11908800D01*
X12001650Y-11908800D01*
X11951650Y-11908800D01*
X11918835Y-11908800D01*
X11915151Y-11909090D01*
X11915150Y-11909090D01*
X11899381Y-11913672D01*
X11899380Y-11913672D01*
X11885245Y-11922031D01*
X11885244Y-11922032D01*
X11873632Y-11933644D01*
X11873631Y-11933645D01*
X11865272Y-11947780D01*
X11860690Y-11963551D01*
X11860670Y-11963800D01*
X11515323Y-11963800D01*
X11417482Y-11865958D01*
X11414133Y-11859826D01*
X11413850Y-11857190D01*
X11413850Y-11650694D01*
X11413850Y-11650694D01*
X11412699Y-11646400D01*
X11412010Y-11643829D01*
X11409758Y-11635421D01*
X11406108Y-11629101D01*
X11406108Y-11629101D01*
X11401852Y-11621729D01*
X11401852Y-11621729D01*
X11401852Y-11621728D01*
X11390672Y-11610548D01*
X11390671Y-11610548D01*
X11390238Y-11610115D01*
X11390237Y-11610114D01*
X11275559Y-11495435D01*
X11275559Y-11495435D01*
X11263672Y-11483548D01*
X11263672Y-11483548D01*
X11254990Y-11478536D01*
X11254990Y-11478536D01*
X11254990Y-11478536D01*
X11249978Y-11475642D01*
X11234706Y-11471550D01*
X11218894Y-11471550D01*
X11218135Y-11471550D01*
X11218133Y-11471550D01*
X11008422Y-11471550D01*
X11008260Y-11471549D01*
X11006709Y-11471529D01*
X11005856Y-11471300D01*
X10990044Y-11471300D01*
X10990044Y-11471300D01*
X10772557Y-11471300D01*
X10765853Y-11469331D01*
X10761508Y-11464529D01*
X10755484Y-11452707D01*
X10741602Y-11433599D01*
X10724901Y-11416898D01*
X10705793Y-11403016D01*
X10684750Y-11392293D01*
X10662287Y-11384995D01*
X10638960Y-11381300D01*
X10638959Y-11381300D01*
X10615341Y-11381300D01*
X10615340Y-11381300D01*
X10592013Y-11384995D01*
X10569550Y-11392293D01*
X10548507Y-11403016D01*
X10537760Y-11410824D01*
X10529399Y-11416898D01*
X10529399Y-11416898D01*
X10529399Y-11416898D01*
X10512699Y-11433599D01*
X10512699Y-11433599D01*
X10512698Y-11433599D01*
X10506736Y-11441805D01*
X10498816Y-11452707D01*
X10488093Y-11473750D01*
X10480795Y-11496213D01*
X10477100Y-11519540D01*
X10261600Y-11519540D01*
X10261600Y-9431315D01*
X11200037Y-9431315D01*
X11200037Y-9434457D01*
X11200037Y-9466285D01*
X11201067Y-9476746D01*
X11203464Y-9501084D01*
X11203465Y-9501086D01*
X11210286Y-9535380D01*
X11210286Y-9535382D01*
X11220438Y-9568846D01*
X11224802Y-9579383D01*
X11232028Y-9596828D01*
X11233820Y-9601153D01*
X11233820Y-9601154D01*
X11250303Y-9631992D01*
X11250305Y-9631994D01*
X11269731Y-9661068D01*
X11269732Y-9661069D01*
X11291917Y-9688101D01*
X11316642Y-9712827D01*
X11316643Y-9712827D01*
X11316643Y-9712827D01*
X11343675Y-9735012D01*
X11372750Y-9754439D01*
X11372751Y-9754440D01*
X11372751Y-9754440D01*
X11403590Y-9770923D01*
X11403590Y-9770923D01*
X11403590Y-9770924D01*
X11435898Y-9784306D01*
X11469361Y-9794457D01*
X11469362Y-9794457D01*
X11469362Y-9794457D01*
X11469363Y-9794457D01*
X11490869Y-9798735D01*
X11503658Y-9801279D01*
X11538459Y-9804707D01*
X11538459Y-9804707D01*
X11573428Y-9804707D01*
X11573428Y-9804707D01*
X11608229Y-9801279D01*
X11625205Y-9797902D01*
X11642524Y-9794457D01*
X11642525Y-9794457D01*
X11642525Y-9794457D01*
X11642526Y-9794457D01*
X11675989Y-9784306D01*
X11708297Y-9770924D01*
X11739137Y-9754439D01*
X11768212Y-9735012D01*
X11795244Y-9712827D01*
X11819971Y-9688100D01*
X11842155Y-9661069D01*
X11861583Y-9631993D01*
X11878067Y-9601153D01*
X11891449Y-9568846D01*
X11901600Y-9535383D01*
X11901600Y-9535382D01*
X11901601Y-9535380D01*
X11906370Y-9511402D01*
X11908422Y-9501085D01*
X11911850Y-9466285D01*
X11911850Y-9431315D01*
X11908422Y-9396515D01*
X11907371Y-9391228D01*
X11907047Y-9389598D01*
X12291350Y-9389598D01*
X12291350Y-9609600D01*
X12291350Y-9609602D01*
X12292400Y-9619880D01*
X12292400Y-9619880D01*
X12296414Y-9631992D01*
X12297919Y-9636533D01*
X12307129Y-9651466D01*
X12319534Y-9663871D01*
X12334467Y-9673081D01*
X12351120Y-9678600D01*
X12361399Y-9679650D01*
X12581401Y-9679650D01*
X12591680Y-9678600D01*
X12608333Y-9673081D01*
X12623266Y-9663871D01*
X12635671Y-9651466D01*
X12644881Y-9636533D01*
X12650400Y-9619880D01*
X12651450Y-9609601D01*
X12651450Y-9487800D01*
X12799350Y-9487800D01*
X12799350Y-9511400D01*
X12799350Y-9511402D01*
X12802429Y-9534791D01*
X12802431Y-9534801D01*
X12802586Y-9535382D01*
X12808539Y-9557599D01*
X12817571Y-9579405D01*
X12817572Y-9579406D01*
X12824668Y-9591696D01*
X12829373Y-9599845D01*
X12829373Y-9599845D01*
X12829373Y-9599845D01*
X12843741Y-9618570D01*
X12843741Y-9618570D01*
X12860429Y-9635259D01*
X12860430Y-9635259D01*
X12871431Y-9643700D01*
X12879155Y-9649627D01*
X12892292Y-9657212D01*
X12899594Y-9661428D01*
X12899595Y-9661428D01*
X12899595Y-9661428D01*
X12921401Y-9670461D01*
X12944199Y-9676569D01*
X12967599Y-9679650D01*
X12967600Y-9679650D01*
X12991200Y-9679650D01*
X12991201Y-9679650D01*
X13014601Y-9676569D01*
X13037399Y-9670461D01*
X13059205Y-9661428D01*
X13079645Y-9649627D01*
X13098370Y-9635259D01*
X13115059Y-9618570D01*
X13129427Y-9599845D01*
X13141228Y-9579405D01*
X13150261Y-9557599D01*
X13156369Y-9534801D01*
X13159450Y-9511401D01*
X13159450Y-9487799D01*
X13156369Y-9464399D01*
X13150261Y-9441601D01*
X13141228Y-9419795D01*
X13141228Y-9419795D01*
X13141228Y-9419794D01*
X13137012Y-9412492D01*
X13129427Y-9399355D01*
X13115059Y-9380630D01*
X13115059Y-9380630D01*
X13098370Y-9363941D01*
X13098370Y-9363941D01*
X13079645Y-9349573D01*
X13079645Y-9349573D01*
X13079645Y-9349573D01*
X13071496Y-9344868D01*
X13059206Y-9337772D01*
X13059204Y-9337771D01*
X13037399Y-9328739D01*
X13014601Y-9322631D01*
X12991202Y-9319550D01*
X12991202Y-9319550D01*
X12991201Y-9319550D01*
X12967599Y-9319550D01*
X12967598Y-9319550D01*
X12967598Y-9319550D01*
X12944199Y-9322631D01*
X12921401Y-9328739D01*
X12899595Y-9337771D01*
X12899594Y-9337772D01*
X12879154Y-9349573D01*
X12860430Y-9363941D01*
X12860429Y-9363941D01*
X12843741Y-9380630D01*
X12843741Y-9380630D01*
X12829373Y-9399355D01*
X12829373Y-9399355D01*
X12829373Y-9399355D01*
X12828601Y-9400691D01*
X12817572Y-9419794D01*
X12817571Y-9419795D01*
X12808539Y-9441601D01*
X12802431Y-9464399D01*
X12799350Y-9487798D01*
X12799350Y-9487800D01*
X12651450Y-9487800D01*
X12651450Y-9389599D01*
X12650400Y-9379320D01*
X12644881Y-9362667D01*
X12635671Y-9347734D01*
X12623266Y-9335329D01*
X12608333Y-9326119D01*
X12591680Y-9320600D01*
X12591679Y-9320600D01*
X12581401Y-9319550D01*
X12361400Y-9319550D01*
X12361398Y-9319550D01*
X12351120Y-9320600D01*
X12351120Y-9320600D01*
X12334467Y-9326119D01*
X12334466Y-9326119D01*
X12319534Y-9335329D01*
X12307129Y-9347734D01*
X12297919Y-9362666D01*
X12297918Y-9362667D01*
X12295451Y-9370114D01*
X12292400Y-9379320D01*
X12292400Y-9379320D01*
X12292400Y-9379320D01*
X12291350Y-9389598D01*
X11907047Y-9389598D01*
X11901601Y-9362220D01*
X11901600Y-9362218D01*
X11901600Y-9362218D01*
X11901600Y-9362218D01*
X11891449Y-9328754D01*
X11878067Y-9296447D01*
X11861583Y-9265607D01*
X11842155Y-9236531D01*
X11819971Y-9209500D01*
X11819971Y-9209500D01*
X11819970Y-9209499D01*
X11795244Y-9184773D01*
X11768213Y-9162589D01*
X11768213Y-9162589D01*
X11768212Y-9162589D01*
X11739137Y-9143161D01*
X11739136Y-9143160D01*
X11739135Y-9143160D01*
X11708297Y-9126677D01*
X11708297Y-9126676D01*
X11675989Y-9113294D01*
X11642525Y-9103143D01*
X11642524Y-9103143D01*
X11608229Y-9096321D01*
X11608228Y-9096321D01*
X11581911Y-9093729D01*
X11573428Y-9092894D01*
X11538459Y-9092894D01*
X11530613Y-9093666D01*
X11503659Y-9096321D01*
X11503657Y-9096321D01*
X11469363Y-9103143D01*
X11469362Y-9103143D01*
X11435897Y-9113294D01*
X11403590Y-9126676D01*
X11403590Y-9126677D01*
X11372751Y-9143160D01*
X11372750Y-9143161D01*
X11343675Y-9162588D01*
X11343674Y-9162589D01*
X11316642Y-9184773D01*
X11291917Y-9209499D01*
X11269732Y-9236531D01*
X11269731Y-9236532D01*
X11250305Y-9265606D01*
X11250303Y-9265608D01*
X11233820Y-9296446D01*
X11233820Y-9296447D01*
X11220438Y-9328754D01*
X11210286Y-9362218D01*
X11210286Y-9362220D01*
X11203465Y-9396514D01*
X11203464Y-9396516D01*
X11201172Y-9419795D01*
X11200037Y-9431315D01*
X10261600Y-9431315D01*
X10261600Y-9062450D01*
X10263569Y-9055746D01*
X10268849Y-9051171D01*
X10274000Y-9050050D01*
X22937550Y-9050050D01*
X22944254Y-9052019D01*
G37*
%TD.AperFunction*%
%TD*%
M02*
