%TF.GenerationSoftware,KiCad,Pcbnew,9.0.2*%
%TF.CreationDate,2025-08-19T17:48:26+02:00*%
%TF.ProjectId,esp32c6-charger,65737033-3263-4362-9d63-686172676572,rev?*%
%TF.SameCoordinates,Original*%
%TF.FileFunction,Soldermask,Top*%
%TF.FilePolarity,Negative*%
%FSLAX45Y45*%
G04 Gerber Fmt 4.5, Leading zero omitted, Abs format (unit mm)*
G04 Created by KiCad (PCBNEW 9.0.2) date 2025-08-19 17:48:26*
%MOMM*%
%LPD*%
G01*
G04 APERTURE LIST*
G04 Aperture macros list*
%AMRoundRect*
0 Rectangle with rounded corners*
0 $1 Rounding radius*
0 $2 $3 $4 $5 $6 $7 $8 $9 X,Y pos of 4 corners*
0 Add a 4 corners polygon primitive as box body*
4,1,4,$2,$3,$4,$5,$6,$7,$8,$9,$2,$3,0*
0 Add four circle primitives for the rounded corners*
1,1,$1+$1,$2,$3*
1,1,$1+$1,$4,$5*
1,1,$1+$1,$6,$7*
1,1,$1+$1,$8,$9*
0 Add four rect primitives between the rounded corners*
20,1,$1+$1,$2,$3,$4,$5,0*
20,1,$1+$1,$4,$5,$6,$7,0*
20,1,$1+$1,$6,$7,$8,$9,0*
20,1,$1+$1,$8,$9,$2,$3,0*%
G04 Aperture macros list end*
%ADD10O,1.600000X2.000000*%
%ADD11R,1.700000X1.700000*%
%ADD12C,1.700000*%
%ADD13RoundRect,0.090000X-0.660000X-0.360000X0.660000X-0.360000X0.660000X0.360000X-0.660000X0.360000X0*%
%ADD14C,1.524000*%
%ADD15C,2.000000*%
%ADD16R,2.000000X2.000000*%
%ADD17RoundRect,0.250000X-1.050000X-1.050000X1.050000X-1.050000X1.050000X1.050000X-1.050000X1.050000X0*%
%ADD18C,2.600000*%
G04 APERTURE END LIST*
D10*
%TO.C,Brd1*%
X12776200Y-10718800D03*
X13030200Y-10718800D03*
X13284200Y-10718800D03*
X13538200Y-10718800D03*
%TD*%
D11*
%TO.C,RFID1*%
X16078200Y-10617200D03*
D12*
X16078200Y-10871200D03*
X16078200Y-11125200D03*
X16078200Y-11379200D03*
X16078200Y-11633200D03*
X16078200Y-11887200D03*
X16078200Y-12141200D03*
X16078200Y-12395200D03*
%TD*%
D13*
%TO.C,D1*%
X15004000Y-10668200D03*
X15004000Y-10998200D03*
X15494000Y-10998200D03*
X15494000Y-10668200D03*
%TD*%
D14*
%TO.C,U1*%
X13385800Y-13690600D03*
X13385800Y-13436600D03*
X13385800Y-13182600D03*
X13385800Y-12928600D03*
X13385800Y-12674600D03*
X13385800Y-12420600D03*
X13385800Y-12166600D03*
X14909800Y-12166600D03*
X14909800Y-12420600D03*
X14909800Y-12674600D03*
X14909800Y-12928600D03*
X14909800Y-13182600D03*
X14909800Y-13436600D03*
X14909800Y-13690600D03*
%TD*%
D15*
%TO.C,K1*%
X8627150Y-11531350D03*
X8977150Y-12281350D03*
X8277150Y-12281350D03*
D16*
X10627150Y-12281350D03*
D15*
X10627150Y-11531350D03*
%TD*%
D17*
%TO.C,J1*%
X12471400Y-9499600D03*
D18*
X12979400Y-9499600D03*
X13487400Y-9499600D03*
X13995400Y-9499600D03*
X14503400Y-9499600D03*
X15011400Y-9499600D03*
%TD*%
D17*
%TO.C,J2*%
X8585200Y-9525000D03*
D18*
X9093200Y-9525000D03*
X9601200Y-9525000D03*
%TD*%
M02*
