M48
; DRILL file {KiCad 9.0.4} date 2025-08-29T10:20:13+0200
; FORMAT={-:-/ absolute / inch / decimal}
; #@! TF.CreationDate,2025-08-29T10:20:13+02:00
; #@! TF.GenerationSoftware,Kicad,Pcbnew,9.0.4
; #@! TF.FileFunction,Plated,1,2,PTH
FMAT,2
INCH
; #@! TA.AperFunction,Plated,PTH,ComponentDrill
T1C0.0350
; #@! TA.AperFunction,Plated,PTH,ComponentDrill
T2C0.0394
; #@! TA.AperFunction,Plated,PTH,ComponentDrill
T3C0.0512
%
G90
G05
T1
X5.18Y-4.175
X5.18Y-4.275
X5.18Y-4.375
X5.18Y-4.475
X5.18Y-4.575
X5.18Y-4.675
X5.18Y-4.775
X5.78Y-4.175
X5.78Y-4.275
X5.78Y-4.375
X5.78Y-4.475
X5.78Y-4.575
X5.78Y-4.675
X5.78Y-4.775
T2
X4.94Y-3.605
X5.04Y-3.605
X5.14Y-3.605
X5.24Y-3.605
X6.24Y-3.565
X6.24Y-3.665
X6.24Y-3.765
X6.24Y-3.865
X6.24Y-3.965
X6.24Y-4.065
X6.24Y-4.165
X6.24Y-4.265
T3
X3.0997Y-4.1549
X3.0997Y-4.4502
X3.29Y-3.135
X3.2965Y-4.1549
X3.2965Y-4.4502
X3.49Y-3.135
X3.4934Y-4.1549
X3.4934Y-4.4502
X3.69Y-3.135
X4.0839Y-4.1549
X4.0839Y-4.4502
X4.19Y-3.135
X4.39Y-3.135
X4.82Y-3.135
X5.02Y-3.135
X5.22Y-3.135
X5.42Y-3.135
X5.62Y-3.135
X5.82Y-3.135
M30
