%TF.GenerationSoftware,KiCad,Pcbnew,9.0.4*%
%TF.CreationDate,2025-08-29T10:20:17+02:00*%
%TF.ProjectId,esp32c6-charger,65737033-3263-4362-9d63-686172676572,rev?*%
%TF.SameCoordinates,Original*%
%TF.FileFunction,Soldermask,Top*%
%TF.FilePolarity,Negative*%
%FSLAX46Y46*%
G04 Gerber Fmt 4.6, Leading zero omitted, Abs format (unit mm)*
G04 Created by KiCad (PCBNEW 9.0.4) date 2025-08-29 10:20:17*
%MOMM*%
%LPD*%
G01*
G04 APERTURE LIST*
G04 Aperture macros list*
%AMRoundRect*
0 Rectangle with rounded corners*
0 $1 Rounding radius*
0 $2 $3 $4 $5 $6 $7 $8 $9 X,Y pos of 4 corners*
0 Add a 4 corners polygon primitive as box body*
4,1,4,$2,$3,$4,$5,$6,$7,$8,$9,$2,$3,0*
0 Add four circle primitives for the rounded corners*
1,1,$1+$1,$2,$3*
1,1,$1+$1,$4,$5*
1,1,$1+$1,$6,$7*
1,1,$1+$1,$8,$9*
0 Add four rect primitives between the rounded corners*
20,1,$1+$1,$2,$3,$4,$5,0*
20,1,$1+$1,$4,$5,$6,$7,0*
20,1,$1+$1,$6,$7,$8,$9,0*
20,1,$1+$1,$8,$9,$2,$3,0*%
G04 Aperture macros list end*
%ADD10O,1.600000X2.000000*%
%ADD11R,1.700000X1.700000*%
%ADD12C,1.700000*%
%ADD13RoundRect,0.090000X-0.660000X-0.360000X0.660000X-0.360000X0.660000X0.360000X-0.660000X0.360000X0*%
%ADD14C,1.524000*%
%ADD15RoundRect,0.250000X-1.050000X-1.050000X1.050000X-1.050000X1.050000X1.050000X-1.050000X1.050000X0*%
%ADD16C,2.600000*%
%ADD17C,2.000000*%
%ADD18R,2.000000X2.000000*%
G04 APERTURE END LIST*
D10*
%TO.C,Display1*%
X125476000Y-91567000D03*
X128016000Y-91567000D03*
X130556000Y-91567000D03*
X133096000Y-91567000D03*
%TD*%
D11*
%TO.C,Rfidreader1*%
X158496000Y-90551000D03*
D12*
X158496000Y-93091000D03*
X158496000Y-95631000D03*
X158496000Y-98171000D03*
X158496000Y-100711000D03*
X158496000Y-103251000D03*
X158496000Y-105791000D03*
X158496000Y-108331000D03*
%TD*%
D13*
%TO.C,D1*%
X147754000Y-91061000D03*
X147754000Y-94361000D03*
X152654000Y-94361000D03*
X152654000Y-91061000D03*
%TD*%
D14*
%TO.C,U2*%
X131572000Y-121285000D03*
X131572000Y-118745000D03*
X131572000Y-116205000D03*
X131572000Y-113665000D03*
X131572000Y-111125000D03*
X131572000Y-108585000D03*
X131572000Y-106045000D03*
X146812000Y-106045000D03*
X146812000Y-108585000D03*
X146812000Y-111125000D03*
X146812000Y-113665000D03*
X146812000Y-116205000D03*
X146812000Y-118745000D03*
X146812000Y-121285000D03*
%TD*%
D15*
%TO.C,J1*%
X106426000Y-79629000D03*
D16*
X111506000Y-79629000D03*
%TD*%
D17*
%TO.C,K1*%
X83731500Y-113034500D03*
X83731500Y-105534500D03*
X88731500Y-113034500D03*
X88731500Y-105534500D03*
X78731500Y-113034500D03*
X78731500Y-105534500D03*
D18*
X103731500Y-113034500D03*
D17*
X103731500Y-105534500D03*
%TD*%
D15*
%TO.C,J2*%
X122428000Y-79629000D03*
D16*
X127508000Y-79629000D03*
X132588000Y-79629000D03*
X137668000Y-79629000D03*
X142748000Y-79629000D03*
X147828000Y-79629000D03*
%TD*%
D15*
%TO.C,J3*%
X83566000Y-79629000D03*
D16*
X88646000Y-79629000D03*
X93726000Y-79629000D03*
%TD*%
M02*
