%TF.GenerationSoftware,KiCad,Pcbnew,9.0.2*%
%TF.CreationDate,2025-08-18T15:59:43+02:00*%
%TF.ProjectId,esp32c6-charger,65737033-3263-4362-9d63-686172676572,rev?*%
%TF.SameCoordinates,Original*%
%TF.FileFunction,Copper,L2,Bot*%
%TF.FilePolarity,Positive*%
%FSLAX46Y46*%
G04 Gerber Fmt 4.6, Leading zero omitted, Abs format (unit mm)*
G04 Created by KiCad (PCBNEW 9.0.2) date 2025-08-18 15:59:43*
%MOMM*%
%LPD*%
G01*
G04 APERTURE LIST*
G04 Aperture macros list*
%AMRoundRect*
0 Rectangle with rounded corners*
0 $1 Rounding radius*
0 $2 $3 $4 $5 $6 $7 $8 $9 X,Y pos of 4 corners*
0 Add a 4 corners polygon primitive as box body*
4,1,4,$2,$3,$4,$5,$6,$7,$8,$9,$2,$3,0*
0 Add four circle primitives for the rounded corners*
1,1,$1+$1,$2,$3*
1,1,$1+$1,$4,$5*
1,1,$1+$1,$6,$7*
1,1,$1+$1,$8,$9*
0 Add four rect primitives between the rounded corners*
20,1,$1+$1,$2,$3,$4,$5,0*
20,1,$1+$1,$4,$5,$6,$7,0*
20,1,$1+$1,$6,$7,$8,$9,0*
20,1,$1+$1,$8,$9,$2,$3,0*%
G04 Aperture macros list end*
%TA.AperFunction,ComponentPad*%
%ADD10C,2.000000*%
%TD*%
%TA.AperFunction,ComponentPad*%
%ADD11R,2.000000X2.000000*%
%TD*%
%TA.AperFunction,ComponentPad*%
%ADD12C,2.400000*%
%TD*%
%TA.AperFunction,ComponentPad*%
%ADD13RoundRect,0.250001X0.949999X0.949999X-0.949999X0.949999X-0.949999X-0.949999X0.949999X-0.949999X0*%
%TD*%
%TA.AperFunction,ComponentPad*%
%ADD14C,1.524000*%
%TD*%
%TA.AperFunction,ComponentPad*%
%ADD15R,1.700000X1.700000*%
%TD*%
%TA.AperFunction,ComponentPad*%
%ADD16C,1.700000*%
%TD*%
%TA.AperFunction,ViaPad*%
%ADD17C,0.600000*%
%TD*%
G04 APERTURE END LIST*
D10*
%TO.P,K1,11*%
%TO.N,Net-(J2-Pin_3)*%
X86271500Y-115313500D03*
%TO.P,K1,12*%
%TO.N,Net-(J2-Pin_1)*%
X89771500Y-122813500D03*
%TO.P,K1,14*%
%TO.N,Net-(J2-Pin_2)*%
X82771500Y-122813500D03*
D11*
%TO.P,K1,A1*%
%TO.N,+5V*%
X106271500Y-122813500D03*
D10*
%TO.P,K1,A2*%
%TO.N,/Relais*%
X106271500Y-115313500D03*
%TD*%
D12*
%TO.P,J2,3,Pin_3*%
%TO.N,Net-(J2-Pin_3)*%
X85852000Y-96012000D03*
%TO.P,J2,2,Pin_2*%
%TO.N,Net-(J2-Pin_2)*%
X90932000Y-96012000D03*
D13*
%TO.P,J2,1,Pin_1*%
%TO.N,Net-(J2-Pin_1)*%
X96012000Y-96012000D03*
%TD*%
D14*
%TO.P,U1,1,GPIO0/A0/D0*%
%TO.N,unconnected-(U1-GPIO0{slash}A0{slash}D0-Pad1)*%
X133858000Y-117094000D03*
%TO.P,U1,2,GPIO1/A1/D1*%
%TO.N,/Cable Detect*%
X133858000Y-119634000D03*
%TO.P,U1,3,GPIO2/A2/D2*%
%TO.N,Net-(U1-GPIO2{slash}A2{slash}D2)*%
X133858000Y-122174000D03*
%TO.P,U1,4,GPIO21/D3*%
%TO.N,Net-(U1-GPIO21{slash}D3)*%
X133858000Y-124714000D03*
%TO.P,U1,5,GPIO22/D4/SDA*%
%TO.N,Net-(Brd1-SDA)*%
X133858000Y-127254000D03*
%TO.P,U1,6,GPIO23/D5/SCL*%
%TO.N,Net-(Brd1-SCL)*%
X133858000Y-129794000D03*
%TO.P,U1,7,GPIO16/D6/TX*%
%TO.N,unconnected-(U1-GPIO16{slash}D6{slash}TX-Pad7)*%
X133858000Y-132334000D03*
%TO.P,U1,8,GPIO17/D7/RX*%
%TO.N,Net-(RFID1-SDA)*%
X149098000Y-132334000D03*
%TO.P,U1,9,GPIO19/D8/SCK*%
%TO.N,Net-(RFID1-SCK)*%
X149098000Y-129794000D03*
%TO.P,U1,10,GPIO20/D9/MISO*%
%TO.N,Net-(RFID1-MISO)*%
X149098000Y-127254000D03*
%TO.P,U1,11,GPIO18/D10/MOSI*%
%TO.N,Net-(RFID1-MOSI)*%
X149098000Y-124714000D03*
%TO.P,U1,12,3V3*%
%TO.N,VCC*%
X149098000Y-122174000D03*
%TO.P,U1,13,GND*%
%TO.N,GND*%
X149098000Y-119634000D03*
%TO.P,U1,14,VBUS*%
%TO.N,+5V*%
X149098000Y-117094000D03*
%TD*%
D15*
%TO.P,RFID1,1,SDA*%
%TO.N,Net-(RFID1-SDA)*%
X160782000Y-106172000D03*
D16*
%TO.P,RFID1,2,SCK*%
%TO.N,Net-(RFID1-SCK)*%
X160782000Y-108712000D03*
%TO.P,RFID1,3,MOSI*%
%TO.N,Net-(RFID1-MOSI)*%
X160782000Y-111252000D03*
%TO.P,RFID1,4,MISO*%
%TO.N,Net-(RFID1-MISO)*%
X160782000Y-113792000D03*
%TO.P,RFID1,5,IRQ*%
%TO.N,unconnected-(RFID1-IRQ-Pad5)*%
X160782000Y-116332000D03*
%TO.P,RFID1,6,GND*%
%TO.N,GND*%
X160782000Y-118872000D03*
%TO.P,RFID1,7,RST*%
%TO.N,unconnected-(RFID1-RST-Pad7)*%
X160782000Y-121412000D03*
%TO.P,RFID1,8,3\u002C3V*%
%TO.N,VCC*%
X160782000Y-123952000D03*
%TD*%
D15*
%TO.P,Brd1,1,GND*%
%TO.N,GND*%
X127762000Y-107188000D03*
D16*
%TO.P,Brd1,2,VCC*%
%TO.N,VCC*%
X130302000Y-107188000D03*
%TO.P,Brd1,3,SCL*%
%TO.N,Net-(Brd1-SCL)*%
X132842000Y-107188000D03*
%TO.P,Brd1,4,SDA*%
%TO.N,Net-(Brd1-SDA)*%
X135382000Y-107188000D03*
%TD*%
D13*
%TO.P,J1,1,Pin_1*%
%TO.N,+5V*%
X151384000Y-96266000D03*
D12*
%TO.P,J1,2,Pin_2*%
%TO.N,VCC*%
X146304000Y-96266000D03*
%TO.P,J1,3,Pin_3*%
%TO.N,/Cable lock*%
X141224000Y-96266000D03*
%TO.P,J1,4,Pin_4*%
%TO.N,/Cable Detect*%
X136144000Y-96266000D03*
%TO.P,J1,5,Pin_5*%
%TO.N,GND*%
X131064000Y-96266000D03*
%TO.P,J1,6,Pin_6*%
X125984000Y-96266000D03*
%TD*%
D17*
%TO.N,GND*%
X118110000Y-126492000D03*
X118110000Y-119888000D03*
%TD*%
%TA.AperFunction,Conductor*%
%TO.N,GND*%
G36*
X219442539Y-90520185D02*
G01*
X219488294Y-90572989D01*
X219499500Y-90624500D01*
X219499500Y-139375500D01*
X219479815Y-139442539D01*
X219427011Y-139488294D01*
X219375500Y-139499500D01*
X111630000Y-139499500D01*
X111562961Y-139479815D01*
X111517206Y-139427011D01*
X111506000Y-139375500D01*
X111506000Y-135461157D01*
X112000370Y-135461157D01*
X112000370Y-135810842D01*
X112034644Y-136158842D01*
X112034647Y-136158859D01*
X112102861Y-136501804D01*
X112102864Y-136501815D01*
X112102866Y-136501824D01*
X112102867Y-136501825D01*
X112204377Y-136836459D01*
X112320282Y-137116279D01*
X112338199Y-137159533D01*
X112338201Y-137159538D01*
X112503035Y-137467920D01*
X112503046Y-137467938D01*
X112697314Y-137758680D01*
X112697324Y-137758694D01*
X112919166Y-138029009D01*
X113166425Y-138276268D01*
X113166430Y-138276272D01*
X113166431Y-138276273D01*
X113436746Y-138498115D01*
X113727503Y-138692393D01*
X113727512Y-138692398D01*
X113727514Y-138692399D01*
X114035896Y-138857233D01*
X114035898Y-138857233D01*
X114035904Y-138857237D01*
X114358976Y-138991058D01*
X114693610Y-139092568D01*
X114693616Y-139092569D01*
X114693619Y-139092570D01*
X114693630Y-139092573D01*
X114908686Y-139135349D01*
X115036582Y-139160789D01*
X115384589Y-139195065D01*
X115384592Y-139195065D01*
X115734278Y-139195065D01*
X115734281Y-139195065D01*
X116082288Y-139160789D01*
X116252047Y-139127021D01*
X116425239Y-139092573D01*
X116425250Y-139092570D01*
X116425250Y-139092569D01*
X116425260Y-139092568D01*
X116759894Y-138991058D01*
X117082966Y-138857237D01*
X117391367Y-138692393D01*
X117682124Y-138498115D01*
X117952439Y-138276273D01*
X118199708Y-138029004D01*
X118421550Y-137758689D01*
X118615828Y-137467932D01*
X118780672Y-137159531D01*
X118914493Y-136836459D01*
X119016003Y-136501825D01*
X119016005Y-136501815D01*
X119016008Y-136501804D01*
X119050456Y-136328612D01*
X119084224Y-136158853D01*
X119118500Y-135810846D01*
X119118500Y-135461157D01*
X212086935Y-135461157D01*
X212086935Y-135810842D01*
X212121209Y-136158842D01*
X212121212Y-136158859D01*
X212189426Y-136501804D01*
X212189429Y-136501815D01*
X212189431Y-136501824D01*
X212189432Y-136501825D01*
X212290942Y-136836459D01*
X212406847Y-137116279D01*
X212424764Y-137159533D01*
X212424766Y-137159538D01*
X212589600Y-137467920D01*
X212589611Y-137467938D01*
X212783879Y-137758680D01*
X212783889Y-137758694D01*
X213005731Y-138029009D01*
X213252990Y-138276268D01*
X213252995Y-138276272D01*
X213252996Y-138276273D01*
X213523311Y-138498115D01*
X213814068Y-138692393D01*
X213814077Y-138692398D01*
X213814079Y-138692399D01*
X214122461Y-138857233D01*
X214122463Y-138857233D01*
X214122469Y-138857237D01*
X214445541Y-138991058D01*
X214780175Y-139092568D01*
X214780181Y-139092569D01*
X214780184Y-139092570D01*
X214780195Y-139092573D01*
X214995251Y-139135349D01*
X215123147Y-139160789D01*
X215471154Y-139195065D01*
X215471157Y-139195065D01*
X215820843Y-139195065D01*
X215820846Y-139195065D01*
X216168853Y-139160789D01*
X216338612Y-139127021D01*
X216511804Y-139092573D01*
X216511815Y-139092570D01*
X216511815Y-139092569D01*
X216511825Y-139092568D01*
X216846459Y-138991058D01*
X217169531Y-138857237D01*
X217477932Y-138692393D01*
X217768689Y-138498115D01*
X218039004Y-138276273D01*
X218286273Y-138029004D01*
X218508115Y-137758689D01*
X218702393Y-137467932D01*
X218867237Y-137159531D01*
X219001058Y-136836459D01*
X219102568Y-136501825D01*
X219102570Y-136501815D01*
X219102573Y-136501804D01*
X219137021Y-136328612D01*
X219170789Y-136158853D01*
X219205065Y-135810846D01*
X219205065Y-135461154D01*
X219170789Y-135113147D01*
X219133929Y-134927837D01*
X219102573Y-134770195D01*
X219102570Y-134770184D01*
X219102569Y-134770181D01*
X219102568Y-134770175D01*
X219001058Y-134435541D01*
X218867237Y-134112469D01*
X218702393Y-133804068D01*
X218508115Y-133513311D01*
X218286273Y-133242996D01*
X218286272Y-133242995D01*
X218286268Y-133242990D01*
X218039009Y-132995731D01*
X217768694Y-132773889D01*
X217768693Y-132773888D01*
X217768689Y-132773885D01*
X217477932Y-132579607D01*
X217477927Y-132579604D01*
X217477920Y-132579600D01*
X217169538Y-132414766D01*
X217169533Y-132414764D01*
X216846460Y-132280942D01*
X216511815Y-132179429D01*
X216511804Y-132179426D01*
X216168859Y-132111212D01*
X216168842Y-132111209D01*
X215905678Y-132085290D01*
X215820846Y-132076935D01*
X215471154Y-132076935D01*
X215392697Y-132084662D01*
X215123157Y-132111209D01*
X215123140Y-132111212D01*
X214780195Y-132179426D01*
X214780184Y-132179429D01*
X214445539Y-132280942D01*
X214122466Y-132414764D01*
X214122461Y-132414766D01*
X213814079Y-132579600D01*
X213814061Y-132579611D01*
X213523319Y-132773879D01*
X213523305Y-132773889D01*
X213252990Y-132995731D01*
X213005731Y-133242990D01*
X212783889Y-133513305D01*
X212783879Y-133513319D01*
X212589611Y-133804061D01*
X212589600Y-133804079D01*
X212424766Y-134112461D01*
X212424764Y-134112466D01*
X212290942Y-134435539D01*
X212189429Y-134770184D01*
X212189426Y-134770195D01*
X212121212Y-135113140D01*
X212121209Y-135113157D01*
X212086935Y-135461157D01*
X119118500Y-135461157D01*
X119118500Y-135461154D01*
X119084224Y-135113147D01*
X119047364Y-134927837D01*
X119016008Y-134770195D01*
X119016005Y-134770184D01*
X119016004Y-134770181D01*
X119016003Y-134770175D01*
X118914493Y-134435541D01*
X118780672Y-134112469D01*
X118615828Y-133804068D01*
X118421550Y-133513311D01*
X118199708Y-133242996D01*
X118199707Y-133242995D01*
X118199703Y-133242990D01*
X117952444Y-132995731D01*
X117682129Y-132773889D01*
X117682128Y-132773888D01*
X117682124Y-132773885D01*
X117391367Y-132579607D01*
X117391362Y-132579604D01*
X117391355Y-132579600D01*
X117082973Y-132414766D01*
X117082968Y-132414764D01*
X116759895Y-132280942D01*
X116425250Y-132179429D01*
X116425239Y-132179426D01*
X116082294Y-132111212D01*
X116082277Y-132111209D01*
X115819113Y-132085290D01*
X115734281Y-132076935D01*
X115384589Y-132076935D01*
X115306132Y-132084662D01*
X115036592Y-132111209D01*
X115036575Y-132111212D01*
X114693630Y-132179426D01*
X114693619Y-132179429D01*
X114358974Y-132280942D01*
X114035901Y-132414764D01*
X114035896Y-132414766D01*
X113727514Y-132579600D01*
X113727496Y-132579611D01*
X113436754Y-132773879D01*
X113436740Y-132773889D01*
X113166425Y-132995731D01*
X112919166Y-133242990D01*
X112697324Y-133513305D01*
X112697314Y-133513319D01*
X112503046Y-133804061D01*
X112503035Y-133804079D01*
X112338201Y-134112461D01*
X112338199Y-134112466D01*
X112204377Y-134435539D01*
X112102864Y-134770184D01*
X112102861Y-134770195D01*
X112034647Y-135113140D01*
X112034644Y-135113157D01*
X112000370Y-135461157D01*
X111506000Y-135461157D01*
X111506000Y-116994639D01*
X132595500Y-116994639D01*
X132595500Y-117193360D01*
X132626587Y-117389637D01*
X132687993Y-117578629D01*
X132687994Y-117578632D01*
X132756337Y-117712760D01*
X132778213Y-117755694D01*
X132895019Y-117916464D01*
X133035536Y-118056981D01*
X133196306Y-118173787D01*
X133314832Y-118234179D01*
X133352780Y-118253515D01*
X133403576Y-118301490D01*
X133420371Y-118369311D01*
X133397833Y-118435446D01*
X133352780Y-118474485D01*
X133196305Y-118554213D01*
X133035533Y-118671021D01*
X132895021Y-118811533D01*
X132778213Y-118972305D01*
X132687994Y-119149367D01*
X132687993Y-119149370D01*
X132626587Y-119338362D01*
X132595500Y-119534639D01*
X132595500Y-119733360D01*
X132626587Y-119929637D01*
X132687993Y-120118629D01*
X132687994Y-120118632D01*
X132758471Y-120256949D01*
X132778213Y-120295694D01*
X132895019Y-120456464D01*
X133035536Y-120596981D01*
X133196306Y-120713787D01*
X133314832Y-120774179D01*
X133352780Y-120793515D01*
X133403576Y-120841490D01*
X133420371Y-120909311D01*
X133397833Y-120975446D01*
X133352780Y-121014485D01*
X133196305Y-121094213D01*
X133035533Y-121211021D01*
X132895021Y-121351533D01*
X132778213Y-121512305D01*
X132687994Y-121689367D01*
X132687993Y-121689370D01*
X132626587Y-121878362D01*
X132595500Y-122074639D01*
X132595500Y-122273360D01*
X132626587Y-122469637D01*
X132687993Y-122658629D01*
X132687994Y-122658632D01*
X132756196Y-122792484D01*
X132778213Y-122835694D01*
X132895019Y-122996464D01*
X133035536Y-123136981D01*
X133196306Y-123253787D01*
X133314832Y-123314179D01*
X133352780Y-123333515D01*
X133403576Y-123381490D01*
X133420371Y-123449311D01*
X133397833Y-123515446D01*
X133352780Y-123554485D01*
X133196305Y-123634213D01*
X133035533Y-123751021D01*
X132895021Y-123891533D01*
X132778213Y-124052305D01*
X132687994Y-124229367D01*
X132687993Y-124229370D01*
X132626587Y-124418362D01*
X132595500Y-124614639D01*
X132595500Y-124813360D01*
X132626587Y-125009637D01*
X132687993Y-125198629D01*
X132687994Y-125198632D01*
X132778213Y-125375694D01*
X132895019Y-125536464D01*
X133035536Y-125676981D01*
X133196306Y-125793787D01*
X133314832Y-125854179D01*
X133352780Y-125873515D01*
X133403576Y-125921490D01*
X133420371Y-125989311D01*
X133397833Y-126055446D01*
X133352780Y-126094485D01*
X133196305Y-126174213D01*
X133035533Y-126291021D01*
X132895021Y-126431533D01*
X132778213Y-126592305D01*
X132687994Y-126769367D01*
X132687993Y-126769370D01*
X132626587Y-126958362D01*
X132595500Y-127154639D01*
X132595500Y-127353360D01*
X132626587Y-127549637D01*
X132687993Y-127738629D01*
X132687994Y-127738632D01*
X132778213Y-127915694D01*
X132895019Y-128076464D01*
X133035536Y-128216981D01*
X133196306Y-128333787D01*
X133314832Y-128394179D01*
X133352780Y-128413515D01*
X133403576Y-128461490D01*
X133420371Y-128529311D01*
X133397833Y-128595446D01*
X133352780Y-128634485D01*
X133196305Y-128714213D01*
X133035533Y-128831021D01*
X132895021Y-128971533D01*
X132778213Y-129132305D01*
X132687994Y-129309367D01*
X132687993Y-129309370D01*
X132626587Y-129498362D01*
X132595500Y-129694639D01*
X132595500Y-129893360D01*
X132626587Y-130089637D01*
X132687993Y-130278629D01*
X132687994Y-130278632D01*
X132778213Y-130455694D01*
X132895019Y-130616464D01*
X133035536Y-130756981D01*
X133196306Y-130873787D01*
X133314832Y-130934179D01*
X133352780Y-130953515D01*
X133403576Y-131001490D01*
X133420371Y-131069311D01*
X133397833Y-131135446D01*
X133352780Y-131174485D01*
X133196305Y-131254213D01*
X133035533Y-131371021D01*
X132895021Y-131511533D01*
X132778213Y-131672305D01*
X132687994Y-131849367D01*
X132687993Y-131849370D01*
X132626587Y-132038362D01*
X132595500Y-132234639D01*
X132595500Y-132433360D01*
X132626587Y-132629637D01*
X132687993Y-132818629D01*
X132687994Y-132818632D01*
X132778213Y-132995694D01*
X132895019Y-133156464D01*
X133035536Y-133296981D01*
X133196306Y-133413787D01*
X133283149Y-133458035D01*
X133373367Y-133504005D01*
X133373370Y-133504006D01*
X133467866Y-133534709D01*
X133562364Y-133565413D01*
X133758639Y-133596500D01*
X133758640Y-133596500D01*
X133957360Y-133596500D01*
X133957361Y-133596500D01*
X134153636Y-133565413D01*
X134342632Y-133504005D01*
X134519694Y-133413787D01*
X134680464Y-133296981D01*
X134820981Y-133156464D01*
X134937787Y-132995694D01*
X135028005Y-132818632D01*
X135089413Y-132629636D01*
X135120500Y-132433361D01*
X135120500Y-132234639D01*
X135089413Y-132038364D01*
X135028005Y-131849368D01*
X135028005Y-131849367D01*
X134937786Y-131672305D01*
X134820981Y-131511536D01*
X134680464Y-131371019D01*
X134519694Y-131254213D01*
X134363218Y-131174484D01*
X134312423Y-131126510D01*
X134295628Y-131058689D01*
X134318165Y-130992554D01*
X134363218Y-130953515D01*
X134519694Y-130873787D01*
X134680464Y-130756981D01*
X134820981Y-130616464D01*
X134937787Y-130455694D01*
X135028005Y-130278632D01*
X135089413Y-130089636D01*
X135120500Y-129893361D01*
X135120500Y-129694639D01*
X135089413Y-129498364D01*
X135028005Y-129309368D01*
X135028005Y-129309367D01*
X134937786Y-129132305D01*
X134820981Y-128971536D01*
X134680464Y-128831019D01*
X134519694Y-128714213D01*
X134363218Y-128634484D01*
X134312423Y-128586510D01*
X134295628Y-128518689D01*
X134318165Y-128452554D01*
X134363218Y-128413515D01*
X134519694Y-128333787D01*
X134680464Y-128216981D01*
X134820981Y-128076464D01*
X134937787Y-127915694D01*
X135028005Y-127738632D01*
X135089413Y-127549636D01*
X135120500Y-127353361D01*
X135120500Y-127154639D01*
X135089413Y-126958364D01*
X135028005Y-126769368D01*
X135028005Y-126769367D01*
X134937786Y-126592305D01*
X134820981Y-126431536D01*
X134680464Y-126291019D01*
X134519694Y-126174213D01*
X134363218Y-126094484D01*
X134312423Y-126046510D01*
X134295628Y-125978689D01*
X134318165Y-125912554D01*
X134363218Y-125873515D01*
X134519694Y-125793787D01*
X134680464Y-125676981D01*
X134820981Y-125536464D01*
X134937787Y-125375694D01*
X135028005Y-125198632D01*
X135089413Y-125009636D01*
X135120500Y-124813361D01*
X135120500Y-124614639D01*
X135089413Y-124418364D01*
X135028005Y-124229368D01*
X135028005Y-124229367D01*
X134937786Y-124052305D01*
X134820981Y-123891536D01*
X134680464Y-123751019D01*
X134519694Y-123634213D01*
X134363218Y-123554484D01*
X134312423Y-123506510D01*
X134295628Y-123438689D01*
X134318165Y-123372554D01*
X134363218Y-123333515D01*
X134519694Y-123253787D01*
X134680464Y-123136981D01*
X134820981Y-122996464D01*
X134937787Y-122835694D01*
X135028005Y-122658632D01*
X135089413Y-122469636D01*
X135120500Y-122273361D01*
X135120500Y-122074639D01*
X135089413Y-121878364D01*
X135028005Y-121689368D01*
X135028005Y-121689367D01*
X134937786Y-121512305D01*
X134820981Y-121351536D01*
X134680464Y-121211019D01*
X134519694Y-121094213D01*
X134363218Y-121014484D01*
X134312423Y-120966510D01*
X134295628Y-120898689D01*
X134318165Y-120832554D01*
X134363218Y-120793515D01*
X134519694Y-120713787D01*
X134680464Y-120596981D01*
X134820981Y-120456464D01*
X134937787Y-120295694D01*
X135028005Y-120118632D01*
X135089413Y-119929636D01*
X135120500Y-119733361D01*
X135120500Y-119534639D01*
X135089413Y-119338364D01*
X135041045Y-119189500D01*
X135028006Y-119149370D01*
X135028005Y-119149367D01*
X134982035Y-119059149D01*
X134937787Y-118972306D01*
X134820981Y-118811536D01*
X134680464Y-118671019D01*
X134519694Y-118554213D01*
X134363218Y-118474484D01*
X134312423Y-118426510D01*
X134295628Y-118358689D01*
X134318165Y-118292554D01*
X134363218Y-118253515D01*
X134519694Y-118173787D01*
X134680464Y-118056981D01*
X134820981Y-117916464D01*
X134937787Y-117755694D01*
X135028005Y-117578632D01*
X135089413Y-117389636D01*
X135120500Y-117193361D01*
X135120500Y-116994639D01*
X147835500Y-116994639D01*
X147835500Y-117193360D01*
X147866587Y-117389637D01*
X147927993Y-117578629D01*
X147927994Y-117578632D01*
X147996337Y-117712760D01*
X148018213Y-117755694D01*
X148135019Y-117916464D01*
X148275536Y-118056981D01*
X148436306Y-118173787D01*
X148593332Y-118253796D01*
X148644127Y-118301769D01*
X148660922Y-118369590D01*
X148638385Y-118435725D01*
X148593332Y-118474764D01*
X148436566Y-118554641D01*
X148399283Y-118581729D01*
X148399282Y-118581730D01*
X149013906Y-119196352D01*
X148926429Y-119219792D01*
X148825070Y-119278311D01*
X148742311Y-119361070D01*
X148683792Y-119462429D01*
X148660352Y-119549905D01*
X148045730Y-118935282D01*
X148045729Y-118935283D01*
X148018643Y-118972564D01*
X147928457Y-119149562D01*
X147867075Y-119338476D01*
X147867075Y-119338479D01*
X147836000Y-119534678D01*
X147836000Y-119733321D01*
X147867075Y-119929520D01*
X147867075Y-119929523D01*
X147928457Y-120118437D01*
X148018641Y-120295432D01*
X148045730Y-120332715D01*
X148660352Y-119718093D01*
X148683792Y-119805571D01*
X148742311Y-119906930D01*
X148825070Y-119989689D01*
X148926429Y-120048208D01*
X149013905Y-120071647D01*
X148399283Y-120686268D01*
X148399283Y-120686269D01*
X148436567Y-120713358D01*
X148593331Y-120793234D01*
X148644127Y-120841209D01*
X148660922Y-120909030D01*
X148638384Y-120975165D01*
X148593331Y-121014204D01*
X148436305Y-121094213D01*
X148275533Y-121211021D01*
X148135021Y-121351533D01*
X148018213Y-121512305D01*
X147927994Y-121689367D01*
X147927993Y-121689370D01*
X147866587Y-121878362D01*
X147835500Y-122074639D01*
X147835500Y-122273360D01*
X147866587Y-122469637D01*
X147927993Y-122658629D01*
X147927994Y-122658632D01*
X147996196Y-122792484D01*
X148018213Y-122835694D01*
X148135019Y-122996464D01*
X148275536Y-123136981D01*
X148436306Y-123253787D01*
X148554832Y-123314179D01*
X148592780Y-123333515D01*
X148643576Y-123381490D01*
X148660371Y-123449311D01*
X148637833Y-123515446D01*
X148592780Y-123554485D01*
X148436305Y-123634213D01*
X148275533Y-123751021D01*
X148135021Y-123891533D01*
X148018213Y-124052305D01*
X147927994Y-124229367D01*
X147927993Y-124229370D01*
X147866587Y-124418362D01*
X147835500Y-124614639D01*
X147835500Y-124813360D01*
X147866587Y-125009637D01*
X147927993Y-125198629D01*
X147927994Y-125198632D01*
X148018213Y-125375694D01*
X148135019Y-125536464D01*
X148275536Y-125676981D01*
X148436306Y-125793787D01*
X148554832Y-125854179D01*
X148592780Y-125873515D01*
X148643576Y-125921490D01*
X148660371Y-125989311D01*
X148637833Y-126055446D01*
X148592780Y-126094485D01*
X148436305Y-126174213D01*
X148275533Y-126291021D01*
X148135021Y-126431533D01*
X148018213Y-126592305D01*
X147927994Y-126769367D01*
X147927993Y-126769370D01*
X147866587Y-126958362D01*
X147835500Y-127154639D01*
X147835500Y-127353360D01*
X147866587Y-127549637D01*
X147927993Y-127738629D01*
X147927994Y-127738632D01*
X148018213Y-127915694D01*
X148135019Y-128076464D01*
X148275536Y-128216981D01*
X148436306Y-128333787D01*
X148554832Y-128394179D01*
X148592780Y-128413515D01*
X148643576Y-128461490D01*
X148660371Y-128529311D01*
X148637833Y-128595446D01*
X148592780Y-128634485D01*
X148436305Y-128714213D01*
X148275533Y-128831021D01*
X148135021Y-128971533D01*
X148018213Y-129132305D01*
X147927994Y-129309367D01*
X147927993Y-129309370D01*
X147866587Y-129498362D01*
X147835500Y-129694639D01*
X147835500Y-129893360D01*
X147866587Y-130089637D01*
X147927993Y-130278629D01*
X147927994Y-130278632D01*
X148018213Y-130455694D01*
X148135019Y-130616464D01*
X148275536Y-130756981D01*
X148436306Y-130873787D01*
X148554832Y-130934179D01*
X148592780Y-130953515D01*
X148643576Y-131001490D01*
X148660371Y-131069311D01*
X148637833Y-131135446D01*
X148592780Y-131174485D01*
X148436305Y-131254213D01*
X148275533Y-131371021D01*
X148135021Y-131511533D01*
X148018213Y-131672305D01*
X147927994Y-131849367D01*
X147927993Y-131849370D01*
X147866587Y-132038362D01*
X147835500Y-132234639D01*
X147835500Y-132433360D01*
X147866587Y-132629637D01*
X147927993Y-132818629D01*
X147927994Y-132818632D01*
X148018213Y-132995694D01*
X148135019Y-133156464D01*
X148275536Y-133296981D01*
X148436306Y-133413787D01*
X148523149Y-133458035D01*
X148613367Y-133504005D01*
X148613370Y-133504006D01*
X148707866Y-133534709D01*
X148802364Y-133565413D01*
X148998639Y-133596500D01*
X148998640Y-133596500D01*
X149197360Y-133596500D01*
X149197361Y-133596500D01*
X149393636Y-133565413D01*
X149582632Y-133504005D01*
X149759694Y-133413787D01*
X149920464Y-133296981D01*
X150060981Y-133156464D01*
X150177787Y-132995694D01*
X150268005Y-132818632D01*
X150329413Y-132629636D01*
X150360500Y-132433361D01*
X150360500Y-132234639D01*
X150329413Y-132038364D01*
X150268005Y-131849368D01*
X150268005Y-131849367D01*
X150177786Y-131672305D01*
X150060981Y-131511536D01*
X149920464Y-131371019D01*
X149759694Y-131254213D01*
X149603218Y-131174484D01*
X149552423Y-131126510D01*
X149535628Y-131058689D01*
X149558165Y-130992554D01*
X149603218Y-130953515D01*
X149759694Y-130873787D01*
X149920464Y-130756981D01*
X150060981Y-130616464D01*
X150177787Y-130455694D01*
X150268005Y-130278632D01*
X150329413Y-130089636D01*
X150360500Y-129893361D01*
X150360500Y-129694639D01*
X150329413Y-129498364D01*
X150268005Y-129309368D01*
X150268005Y-129309367D01*
X150177786Y-129132305D01*
X150060981Y-128971536D01*
X149920464Y-128831019D01*
X149759694Y-128714213D01*
X149603218Y-128634484D01*
X149552423Y-128586510D01*
X149535628Y-128518689D01*
X149558165Y-128452554D01*
X149603218Y-128413515D01*
X149759694Y-128333787D01*
X149920464Y-128216981D01*
X150060981Y-128076464D01*
X150177787Y-127915694D01*
X150268005Y-127738632D01*
X150329413Y-127549636D01*
X150360500Y-127353361D01*
X150360500Y-127154639D01*
X150329413Y-126958364D01*
X150268005Y-126769368D01*
X150268005Y-126769367D01*
X150177786Y-126592305D01*
X150060981Y-126431536D01*
X149920464Y-126291019D01*
X149759694Y-126174213D01*
X149603218Y-126094484D01*
X149552423Y-126046510D01*
X149535628Y-125978689D01*
X149558165Y-125912554D01*
X149603218Y-125873515D01*
X149759694Y-125793787D01*
X149920464Y-125676981D01*
X150060981Y-125536464D01*
X150177787Y-125375694D01*
X150268005Y-125198632D01*
X150329413Y-125009636D01*
X150360500Y-124813361D01*
X150360500Y-124614639D01*
X150329413Y-124418364D01*
X150268005Y-124229368D01*
X150268005Y-124229367D01*
X150177786Y-124052305D01*
X150060981Y-123891536D01*
X149920464Y-123751019D01*
X149759694Y-123634213D01*
X149603218Y-123554484D01*
X149552423Y-123506510D01*
X149535628Y-123438689D01*
X149558165Y-123372554D01*
X149603218Y-123333515D01*
X149759694Y-123253787D01*
X149920464Y-123136981D01*
X150060981Y-122996464D01*
X150177787Y-122835694D01*
X150268005Y-122658632D01*
X150329413Y-122469636D01*
X150360500Y-122273361D01*
X150360500Y-122074639D01*
X150329413Y-121878364D01*
X150268005Y-121689368D01*
X150268005Y-121689367D01*
X150177786Y-121512305D01*
X150060981Y-121351536D01*
X149920464Y-121211019D01*
X149759694Y-121094213D01*
X149602667Y-121014203D01*
X149551872Y-120966229D01*
X149535077Y-120898408D01*
X149557614Y-120832273D01*
X149602669Y-120793234D01*
X149759422Y-120713364D01*
X149796716Y-120686268D01*
X149182095Y-120071647D01*
X149269571Y-120048208D01*
X149370930Y-119989689D01*
X149453689Y-119906930D01*
X149512208Y-119805571D01*
X149535647Y-119718094D01*
X150150268Y-120332715D01*
X150177362Y-120295425D01*
X150267542Y-120118437D01*
X150328924Y-119929523D01*
X150328924Y-119929520D01*
X150360000Y-119733321D01*
X150360000Y-119534678D01*
X150328924Y-119338479D01*
X150328924Y-119338476D01*
X150267542Y-119149562D01*
X150177358Y-118972567D01*
X150150268Y-118935283D01*
X149535647Y-119549904D01*
X149512208Y-119462429D01*
X149453689Y-119361070D01*
X149370930Y-119278311D01*
X149269571Y-119219792D01*
X149182094Y-119196352D01*
X149796716Y-118581731D01*
X149796715Y-118581730D01*
X149759432Y-118554641D01*
X149602668Y-118474765D01*
X149551872Y-118426790D01*
X149535077Y-118358969D01*
X149557615Y-118292834D01*
X149602667Y-118253796D01*
X149759694Y-118173787D01*
X149920464Y-118056981D01*
X150060981Y-117916464D01*
X150177787Y-117755694D01*
X150268005Y-117578632D01*
X150329413Y-117389636D01*
X150360500Y-117193361D01*
X150360500Y-116994639D01*
X150329413Y-116798364D01*
X150268005Y-116609368D01*
X150268005Y-116609367D01*
X150177786Y-116432305D01*
X150060981Y-116271536D01*
X149920464Y-116131019D01*
X149759694Y-116014213D01*
X149582632Y-115923994D01*
X149582629Y-115923993D01*
X149393637Y-115862587D01*
X149295498Y-115847043D01*
X149197361Y-115831500D01*
X148998639Y-115831500D01*
X148933214Y-115841862D01*
X148802362Y-115862587D01*
X148613370Y-115923993D01*
X148613367Y-115923994D01*
X148436305Y-116014213D01*
X148275533Y-116131021D01*
X148135021Y-116271533D01*
X148018213Y-116432305D01*
X147927994Y-116609367D01*
X147927993Y-116609370D01*
X147866587Y-116798362D01*
X147835500Y-116994639D01*
X135120500Y-116994639D01*
X135089413Y-116798364D01*
X135028005Y-116609368D01*
X135028005Y-116609367D01*
X134937786Y-116432305D01*
X134820981Y-116271536D01*
X134680464Y-116131019D01*
X134519694Y-116014213D01*
X134342632Y-115923994D01*
X134342629Y-115923993D01*
X134153637Y-115862587D01*
X134055498Y-115847043D01*
X133957361Y-115831500D01*
X133758639Y-115831500D01*
X133693214Y-115841862D01*
X133562362Y-115862587D01*
X133373370Y-115923993D01*
X133373367Y-115923994D01*
X133196305Y-116014213D01*
X133035533Y-116131021D01*
X132895021Y-116271533D01*
X132778213Y-116432305D01*
X132687994Y-116609367D01*
X132687993Y-116609370D01*
X132626587Y-116798362D01*
X132595500Y-116994639D01*
X111506000Y-116994639D01*
X111506000Y-106290155D01*
X126412000Y-106290155D01*
X126412000Y-106938000D01*
X127328988Y-106938000D01*
X127296075Y-106995007D01*
X127262000Y-107122174D01*
X127262000Y-107253826D01*
X127296075Y-107380993D01*
X127328988Y-107438000D01*
X126412000Y-107438000D01*
X126412000Y-108085844D01*
X126418401Y-108145372D01*
X126418403Y-108145379D01*
X126468645Y-108280086D01*
X126468649Y-108280093D01*
X126554809Y-108395187D01*
X126554812Y-108395190D01*
X126669906Y-108481350D01*
X126669913Y-108481354D01*
X126804620Y-108531596D01*
X126804627Y-108531598D01*
X126864155Y-108537999D01*
X126864172Y-108538000D01*
X127512000Y-108538000D01*
X127512000Y-107621012D01*
X127569007Y-107653925D01*
X127696174Y-107688000D01*
X127827826Y-107688000D01*
X127954993Y-107653925D01*
X128012000Y-107621012D01*
X128012000Y-108538000D01*
X128659828Y-108538000D01*
X128659844Y-108537999D01*
X128719372Y-108531598D01*
X128719379Y-108531596D01*
X128854086Y-108481354D01*
X128854093Y-108481350D01*
X128969187Y-108395190D01*
X128969190Y-108395187D01*
X129055350Y-108280093D01*
X129055354Y-108280086D01*
X129104422Y-108148529D01*
X129146293Y-108092595D01*
X129211757Y-108068178D01*
X129280030Y-108083030D01*
X129308285Y-108104181D01*
X129422213Y-108218109D01*
X129594179Y-108343048D01*
X129594181Y-108343049D01*
X129594184Y-108343051D01*
X129783588Y-108439557D01*
X129985757Y-108505246D01*
X130195713Y-108538500D01*
X130195714Y-108538500D01*
X130408286Y-108538500D01*
X130408287Y-108538500D01*
X130618243Y-108505246D01*
X130820412Y-108439557D01*
X131009816Y-108343051D01*
X131096471Y-108280093D01*
X131181786Y-108218109D01*
X131181788Y-108218106D01*
X131181792Y-108218104D01*
X131332104Y-108067792D01*
X131332106Y-108067788D01*
X131332109Y-108067786D01*
X131457048Y-107895820D01*
X131457047Y-107895820D01*
X131457051Y-107895816D01*
X131461514Y-107887054D01*
X131509488Y-107836259D01*
X131577308Y-107819463D01*
X131643444Y-107841999D01*
X131682486Y-107887056D01*
X131686951Y-107895820D01*
X131811890Y-108067786D01*
X131962213Y-108218109D01*
X132134179Y-108343048D01*
X132134181Y-108343049D01*
X132134184Y-108343051D01*
X132323588Y-108439557D01*
X132525757Y-108505246D01*
X132735713Y-108538500D01*
X132735714Y-108538500D01*
X132948286Y-108538500D01*
X132948287Y-108538500D01*
X133158243Y-108505246D01*
X133360412Y-108439557D01*
X133549816Y-108343051D01*
X133636471Y-108280093D01*
X133721786Y-108218109D01*
X133721788Y-108218106D01*
X133721792Y-108218104D01*
X133872104Y-108067792D01*
X133872106Y-108067788D01*
X133872109Y-108067786D01*
X133997048Y-107895820D01*
X133997047Y-107895820D01*
X133997051Y-107895816D01*
X134001514Y-107887054D01*
X134049488Y-107836259D01*
X134117308Y-107819463D01*
X134183444Y-107841999D01*
X134222486Y-107887056D01*
X134226951Y-107895820D01*
X134351890Y-108067786D01*
X134502213Y-108218109D01*
X134674179Y-108343048D01*
X134674181Y-108343049D01*
X134674184Y-108343051D01*
X134863588Y-108439557D01*
X135065757Y-108505246D01*
X135275713Y-108538500D01*
X135275714Y-108538500D01*
X135488286Y-108538500D01*
X135488287Y-108538500D01*
X135698243Y-108505246D01*
X135900412Y-108439557D01*
X136089816Y-108343051D01*
X136176471Y-108280093D01*
X136261786Y-108218109D01*
X136261788Y-108218106D01*
X136261792Y-108218104D01*
X136412104Y-108067792D01*
X136412106Y-108067788D01*
X136412109Y-108067786D01*
X136537048Y-107895820D01*
X136537047Y-107895820D01*
X136537051Y-107895816D01*
X136633557Y-107706412D01*
X136699246Y-107504243D01*
X136732500Y-107294287D01*
X136732500Y-107081713D01*
X136699246Y-106871757D01*
X136633557Y-106669588D01*
X136537051Y-106480184D01*
X136537049Y-106480181D01*
X136537048Y-106480179D01*
X136412109Y-106308213D01*
X136261786Y-106157890D01*
X136089820Y-106032951D01*
X135900414Y-105936444D01*
X135900413Y-105936443D01*
X135900412Y-105936443D01*
X135698243Y-105870754D01*
X135698241Y-105870753D01*
X135698240Y-105870753D01*
X135536957Y-105845208D01*
X135488287Y-105837500D01*
X135275713Y-105837500D01*
X135227042Y-105845208D01*
X135065760Y-105870753D01*
X134863585Y-105936444D01*
X134674179Y-106032951D01*
X134502213Y-106157890D01*
X134351890Y-106308213D01*
X134226949Y-106480182D01*
X134222484Y-106488946D01*
X134174509Y-106539742D01*
X134106688Y-106556536D01*
X134040553Y-106533998D01*
X134001516Y-106488946D01*
X133997050Y-106480182D01*
X133872109Y-106308213D01*
X133721786Y-106157890D01*
X133549820Y-106032951D01*
X133360414Y-105936444D01*
X133360413Y-105936443D01*
X133360412Y-105936443D01*
X133158243Y-105870754D01*
X133158241Y-105870753D01*
X133158240Y-105870753D01*
X132996957Y-105845208D01*
X132948287Y-105837500D01*
X132735713Y-105837500D01*
X132687042Y-105845208D01*
X132525760Y-105870753D01*
X132323585Y-105936444D01*
X132134179Y-106032951D01*
X131962213Y-106157890D01*
X131811890Y-106308213D01*
X131686949Y-106480182D01*
X131682484Y-106488946D01*
X131634509Y-106539742D01*
X131566688Y-106556536D01*
X131500553Y-106533998D01*
X131461516Y-106488946D01*
X131457050Y-106480182D01*
X131332109Y-106308213D01*
X131181786Y-106157890D01*
X131009820Y-106032951D01*
X130820414Y-105936444D01*
X130820413Y-105936443D01*
X130820412Y-105936443D01*
X130618243Y-105870754D01*
X130618241Y-105870753D01*
X130618240Y-105870753D01*
X130456957Y-105845208D01*
X130408287Y-105837500D01*
X130195713Y-105837500D01*
X130147042Y-105845208D01*
X129985760Y-105870753D01*
X129783585Y-105936444D01*
X129594179Y-106032951D01*
X129422215Y-106157889D01*
X129308285Y-106271819D01*
X129246962Y-106305303D01*
X129177270Y-106300319D01*
X129121337Y-106258447D01*
X129104422Y-106227470D01*
X129055354Y-106095913D01*
X129055350Y-106095906D01*
X128969190Y-105980812D01*
X128969187Y-105980809D01*
X128854093Y-105894649D01*
X128854086Y-105894645D01*
X128719379Y-105844403D01*
X128719372Y-105844401D01*
X128659844Y-105838000D01*
X128012000Y-105838000D01*
X128012000Y-106754988D01*
X127954993Y-106722075D01*
X127827826Y-106688000D01*
X127696174Y-106688000D01*
X127569007Y-106722075D01*
X127512000Y-106754988D01*
X127512000Y-105838000D01*
X126864155Y-105838000D01*
X126804627Y-105844401D01*
X126804620Y-105844403D01*
X126669913Y-105894645D01*
X126669906Y-105894649D01*
X126554812Y-105980809D01*
X126554809Y-105980812D01*
X126468649Y-106095906D01*
X126468645Y-106095913D01*
X126418403Y-106230620D01*
X126418401Y-106230627D01*
X126412000Y-106290155D01*
X111506000Y-106290155D01*
X111506000Y-105274135D01*
X159431500Y-105274135D01*
X159431500Y-107069870D01*
X159431501Y-107069876D01*
X159437908Y-107129483D01*
X159488202Y-107264328D01*
X159488206Y-107264335D01*
X159574452Y-107379544D01*
X159574455Y-107379547D01*
X159689664Y-107465793D01*
X159689671Y-107465797D01*
X159821082Y-107514810D01*
X159877016Y-107556681D01*
X159901433Y-107622145D01*
X159886582Y-107690418D01*
X159865431Y-107718673D01*
X159751889Y-107832215D01*
X159626951Y-108004179D01*
X159530444Y-108193585D01*
X159464753Y-108395760D01*
X159431500Y-108605713D01*
X159431500Y-108818286D01*
X159464753Y-109028239D01*
X159530444Y-109230414D01*
X159626951Y-109419820D01*
X159751890Y-109591786D01*
X159902213Y-109742109D01*
X160074182Y-109867050D01*
X160082946Y-109871516D01*
X160133742Y-109919491D01*
X160150536Y-109987312D01*
X160127998Y-110053447D01*
X160082946Y-110092484D01*
X160074182Y-110096949D01*
X159902213Y-110221890D01*
X159751890Y-110372213D01*
X159626951Y-110544179D01*
X159530444Y-110733585D01*
X159464753Y-110935760D01*
X159431500Y-111145713D01*
X159431500Y-111358286D01*
X159464753Y-111568239D01*
X159530444Y-111770414D01*
X159626951Y-111959820D01*
X159751890Y-112131786D01*
X159902213Y-112282109D01*
X160074182Y-112407050D01*
X160082946Y-112411516D01*
X160133742Y-112459491D01*
X160150536Y-112527312D01*
X160127998Y-112593447D01*
X160082946Y-112632484D01*
X160074182Y-112636949D01*
X159902213Y-112761890D01*
X159751890Y-112912213D01*
X159626951Y-113084179D01*
X159530444Y-113273585D01*
X159464753Y-113475760D01*
X159431500Y-113685713D01*
X159431500Y-113898286D01*
X159464753Y-114108239D01*
X159530444Y-114310414D01*
X159626951Y-114499820D01*
X159751890Y-114671786D01*
X159902213Y-114822109D01*
X160074182Y-114947050D01*
X160082946Y-114951516D01*
X160133742Y-114999491D01*
X160150536Y-115067312D01*
X160127998Y-115133447D01*
X160082946Y-115172484D01*
X160074182Y-115176949D01*
X159902213Y-115301890D01*
X159751890Y-115452213D01*
X159626951Y-115624179D01*
X159530444Y-115813585D01*
X159464753Y-116015760D01*
X159431500Y-116225713D01*
X159431500Y-116438286D01*
X159458596Y-116609368D01*
X159464754Y-116648243D01*
X159513531Y-116798364D01*
X159530444Y-116850414D01*
X159626951Y-117039820D01*
X159751890Y-117211786D01*
X159902213Y-117362109D01*
X160074179Y-117487048D01*
X160074181Y-117487049D01*
X160074184Y-117487051D01*
X160083493Y-117491794D01*
X160134290Y-117539766D01*
X160151087Y-117607587D01*
X160128552Y-117673722D01*
X160083505Y-117712760D01*
X160074446Y-117717376D01*
X160074440Y-117717380D01*
X160020282Y-117756727D01*
X160020282Y-117756728D01*
X160652591Y-118389037D01*
X160589007Y-118406075D01*
X160474993Y-118471901D01*
X160381901Y-118564993D01*
X160316075Y-118679007D01*
X160299037Y-118742591D01*
X159666728Y-118110282D01*
X159666727Y-118110282D01*
X159627380Y-118164439D01*
X159530904Y-118353782D01*
X159465242Y-118555869D01*
X159465242Y-118555872D01*
X159432000Y-118765753D01*
X159432000Y-118978246D01*
X159465242Y-119188127D01*
X159465242Y-119188130D01*
X159530904Y-119390217D01*
X159627375Y-119579550D01*
X159666728Y-119633716D01*
X160299036Y-119001407D01*
X160316075Y-119064993D01*
X160381901Y-119179007D01*
X160474993Y-119272099D01*
X160589007Y-119337925D01*
X160652590Y-119354962D01*
X160020282Y-119987269D01*
X160020282Y-119987270D01*
X160074452Y-120026626D01*
X160074451Y-120026626D01*
X160083495Y-120031234D01*
X160134292Y-120079208D01*
X160151087Y-120147029D01*
X160128550Y-120213164D01*
X160083499Y-120252202D01*
X160074182Y-120256949D01*
X159902213Y-120381890D01*
X159751890Y-120532213D01*
X159626951Y-120704179D01*
X159530444Y-120893585D01*
X159464753Y-121095760D01*
X159431500Y-121305713D01*
X159431500Y-121518286D01*
X159458596Y-121689368D01*
X159464754Y-121728243D01*
X159513531Y-121878364D01*
X159530444Y-121930414D01*
X159626951Y-122119820D01*
X159751890Y-122291786D01*
X159902213Y-122442109D01*
X160074182Y-122567050D01*
X160082946Y-122571516D01*
X160133742Y-122619491D01*
X160150536Y-122687312D01*
X160127998Y-122753447D01*
X160082946Y-122792484D01*
X160074182Y-122796949D01*
X159902213Y-122921890D01*
X159751890Y-123072213D01*
X159626951Y-123244179D01*
X159530444Y-123433585D01*
X159464753Y-123635760D01*
X159431500Y-123845713D01*
X159431500Y-124058286D01*
X159458596Y-124229368D01*
X159464754Y-124268243D01*
X159513531Y-124418364D01*
X159530444Y-124470414D01*
X159626951Y-124659820D01*
X159751890Y-124831786D01*
X159902213Y-124982109D01*
X160074179Y-125107048D01*
X160074181Y-125107049D01*
X160074184Y-125107051D01*
X160263588Y-125203557D01*
X160465757Y-125269246D01*
X160675713Y-125302500D01*
X160675714Y-125302500D01*
X160888286Y-125302500D01*
X160888287Y-125302500D01*
X161098243Y-125269246D01*
X161300412Y-125203557D01*
X161489816Y-125107051D01*
X161623896Y-125009637D01*
X161661786Y-124982109D01*
X161661788Y-124982106D01*
X161661792Y-124982104D01*
X161812104Y-124831792D01*
X161812106Y-124831788D01*
X161812109Y-124831786D01*
X161937048Y-124659820D01*
X161937047Y-124659820D01*
X161937051Y-124659816D01*
X162033557Y-124470412D01*
X162099246Y-124268243D01*
X162132500Y-124058287D01*
X162132500Y-123845713D01*
X162099246Y-123635757D01*
X162033557Y-123433588D01*
X161937051Y-123244184D01*
X161937049Y-123244181D01*
X161937048Y-123244179D01*
X161812109Y-123072213D01*
X161661786Y-122921890D01*
X161489820Y-122796951D01*
X161489115Y-122796591D01*
X161481054Y-122792485D01*
X161430259Y-122744512D01*
X161413463Y-122676692D01*
X161435999Y-122610556D01*
X161481054Y-122571515D01*
X161489816Y-122567051D01*
X161623896Y-122469637D01*
X161661786Y-122442109D01*
X161661788Y-122442106D01*
X161661792Y-122442104D01*
X161812104Y-122291792D01*
X161812106Y-122291788D01*
X161812109Y-122291786D01*
X161937048Y-122119820D01*
X161937047Y-122119820D01*
X161937051Y-122119816D01*
X162033557Y-121930412D01*
X162099246Y-121728243D01*
X162132500Y-121518287D01*
X162132500Y-121305713D01*
X162099246Y-121095757D01*
X162033557Y-120893588D01*
X161937051Y-120704184D01*
X161937049Y-120704181D01*
X161937048Y-120704179D01*
X161812109Y-120532213D01*
X161661786Y-120381890D01*
X161489817Y-120256949D01*
X161480504Y-120252204D01*
X161429707Y-120204230D01*
X161412912Y-120136409D01*
X161435449Y-120070274D01*
X161480507Y-120031232D01*
X161489555Y-120026622D01*
X161543716Y-119987270D01*
X161543717Y-119987270D01*
X160911408Y-119354962D01*
X160974993Y-119337925D01*
X161089007Y-119272099D01*
X161182099Y-119179007D01*
X161247925Y-119064993D01*
X161264962Y-119001408D01*
X161897270Y-119633717D01*
X161897270Y-119633716D01*
X161936622Y-119579554D01*
X162033095Y-119390217D01*
X162098757Y-119188130D01*
X162098757Y-119188127D01*
X162132000Y-118978246D01*
X162132000Y-118765753D01*
X162098757Y-118555872D01*
X162098757Y-118555869D01*
X162033095Y-118353782D01*
X161936624Y-118164449D01*
X161897270Y-118110282D01*
X161897269Y-118110282D01*
X161264962Y-118742590D01*
X161247925Y-118679007D01*
X161182099Y-118564993D01*
X161089007Y-118471901D01*
X160974993Y-118406075D01*
X160911409Y-118389037D01*
X161543716Y-117756728D01*
X161489547Y-117717373D01*
X161489547Y-117717372D01*
X161480500Y-117712763D01*
X161429706Y-117664788D01*
X161412912Y-117596966D01*
X161435451Y-117530832D01*
X161480508Y-117491793D01*
X161489816Y-117487051D01*
X161623896Y-117389637D01*
X161661786Y-117362109D01*
X161661788Y-117362106D01*
X161661792Y-117362104D01*
X161812104Y-117211792D01*
X161812106Y-117211788D01*
X161812109Y-117211786D01*
X161937048Y-117039820D01*
X161937047Y-117039820D01*
X161937051Y-117039816D01*
X162033557Y-116850412D01*
X162099246Y-116648243D01*
X162132500Y-116438287D01*
X162132500Y-116225713D01*
X162099246Y-116015757D01*
X162033557Y-115813588D01*
X161937051Y-115624184D01*
X161937049Y-115624181D01*
X161937048Y-115624179D01*
X161812109Y-115452213D01*
X161661786Y-115301890D01*
X161489820Y-115176951D01*
X161489115Y-115176591D01*
X161481054Y-115172485D01*
X161430259Y-115124512D01*
X161413463Y-115056692D01*
X161435999Y-114990556D01*
X161481054Y-114951515D01*
X161489816Y-114947051D01*
X161511789Y-114931086D01*
X161661786Y-114822109D01*
X161661788Y-114822106D01*
X161661792Y-114822104D01*
X161812104Y-114671792D01*
X161812106Y-114671788D01*
X161812109Y-114671786D01*
X161937048Y-114499820D01*
X161937047Y-114499820D01*
X161937051Y-114499816D01*
X162033557Y-114310412D01*
X162099246Y-114108243D01*
X162132500Y-113898287D01*
X162132500Y-113685713D01*
X162099246Y-113475757D01*
X162033557Y-113273588D01*
X161937051Y-113084184D01*
X161937049Y-113084181D01*
X161937048Y-113084179D01*
X161812109Y-112912213D01*
X161661786Y-112761890D01*
X161489820Y-112636951D01*
X161489115Y-112636591D01*
X161481054Y-112632485D01*
X161430259Y-112584512D01*
X161413463Y-112516692D01*
X161435999Y-112450556D01*
X161481054Y-112411515D01*
X161489816Y-112407051D01*
X161511789Y-112391086D01*
X161661786Y-112282109D01*
X161661788Y-112282106D01*
X161661792Y-112282104D01*
X161812104Y-112131792D01*
X161812106Y-112131788D01*
X161812109Y-112131786D01*
X161937048Y-111959820D01*
X161937047Y-111959820D01*
X161937051Y-111959816D01*
X162033557Y-111770412D01*
X162099246Y-111568243D01*
X162132500Y-111358287D01*
X162132500Y-111145713D01*
X162099246Y-110935757D01*
X162033557Y-110733588D01*
X161937051Y-110544184D01*
X161937049Y-110544181D01*
X161937048Y-110544179D01*
X161812109Y-110372213D01*
X161661786Y-110221890D01*
X161489820Y-110096951D01*
X161489115Y-110096591D01*
X161481054Y-110092485D01*
X161430259Y-110044512D01*
X161413463Y-109976692D01*
X161435999Y-109910556D01*
X161481054Y-109871515D01*
X161489816Y-109867051D01*
X161511789Y-109851086D01*
X161661786Y-109742109D01*
X161661788Y-109742106D01*
X161661792Y-109742104D01*
X161812104Y-109591792D01*
X161812106Y-109591788D01*
X161812109Y-109591786D01*
X161937048Y-109419820D01*
X161937047Y-109419820D01*
X161937051Y-109419816D01*
X162033557Y-109230412D01*
X162099246Y-109028243D01*
X162132500Y-108818287D01*
X162132500Y-108605713D01*
X162099246Y-108395757D01*
X162033557Y-108193588D01*
X161937051Y-108004184D01*
X161937049Y-108004181D01*
X161937048Y-108004179D01*
X161812109Y-107832213D01*
X161698569Y-107718673D01*
X161665084Y-107657350D01*
X161670068Y-107587658D01*
X161711940Y-107531725D01*
X161742915Y-107514810D01*
X161874331Y-107465796D01*
X161989546Y-107379546D01*
X162075796Y-107264331D01*
X162126091Y-107129483D01*
X162132500Y-107069873D01*
X162132499Y-105274128D01*
X162126091Y-105214517D01*
X162075796Y-105079669D01*
X162075795Y-105079668D01*
X162075793Y-105079664D01*
X161989547Y-104964455D01*
X161989544Y-104964452D01*
X161874335Y-104878206D01*
X161874328Y-104878202D01*
X161739482Y-104827908D01*
X161739483Y-104827908D01*
X161679883Y-104821501D01*
X161679881Y-104821500D01*
X161679873Y-104821500D01*
X161679864Y-104821500D01*
X159884129Y-104821500D01*
X159884123Y-104821501D01*
X159824516Y-104827908D01*
X159689671Y-104878202D01*
X159689664Y-104878206D01*
X159574455Y-104964452D01*
X159574452Y-104964455D01*
X159488206Y-105079664D01*
X159488202Y-105079671D01*
X159437908Y-105214517D01*
X159431501Y-105274116D01*
X159431501Y-105274123D01*
X159431500Y-105274135D01*
X111506000Y-105274135D01*
X111506000Y-94313154D01*
X112000370Y-94313154D01*
X112000370Y-94344568D01*
X112000370Y-94662846D01*
X112010673Y-94767455D01*
X112034644Y-95010842D01*
X112034647Y-95010859D01*
X112102861Y-95353804D01*
X112102864Y-95353815D01*
X112204377Y-95688460D01*
X112297156Y-95912446D01*
X112320282Y-95968279D01*
X112338199Y-96011533D01*
X112338201Y-96011538D01*
X112503035Y-96319920D01*
X112503046Y-96319938D01*
X112697314Y-96610680D01*
X112697324Y-96610694D01*
X112919166Y-96881009D01*
X113166425Y-97128268D01*
X113166430Y-97128272D01*
X113166431Y-97128273D01*
X113436746Y-97350115D01*
X113727503Y-97544393D01*
X113727512Y-97544398D01*
X113727514Y-97544399D01*
X114035896Y-97709233D01*
X114035898Y-97709233D01*
X114035904Y-97709237D01*
X114358976Y-97843058D01*
X114693610Y-97944568D01*
X114693616Y-97944569D01*
X114693619Y-97944570D01*
X114693630Y-97944573D01*
X114908686Y-97987349D01*
X115036582Y-98012789D01*
X115384589Y-98047065D01*
X115384592Y-98047065D01*
X115734278Y-98047065D01*
X115734281Y-98047065D01*
X116082288Y-98012789D01*
X116252047Y-97979021D01*
X116425239Y-97944573D01*
X116425250Y-97944570D01*
X116425250Y-97944569D01*
X116425260Y-97944568D01*
X116759894Y-97843058D01*
X117082966Y-97709237D01*
X117391367Y-97544393D01*
X117682124Y-97350115D01*
X117952439Y-97128273D01*
X118199708Y-96881004D01*
X118421550Y-96610689D01*
X118615828Y-96319932D01*
X118704213Y-96154575D01*
X124284000Y-96154575D01*
X124284000Y-96377424D01*
X124313085Y-96598354D01*
X124313088Y-96598367D01*
X124370763Y-96813618D01*
X124456045Y-97019502D01*
X124456054Y-97019520D01*
X124567464Y-97212491D01*
X124567473Y-97212504D01*
X124618040Y-97278403D01*
X124618043Y-97278403D01*
X125268152Y-96628293D01*
X125275049Y-96644942D01*
X125362599Y-96775970D01*
X125474030Y-96887401D01*
X125605058Y-96974951D01*
X125621705Y-96981846D01*
X124971595Y-97631955D01*
X124971595Y-97631956D01*
X125037507Y-97682533D01*
X125230485Y-97793949D01*
X125230497Y-97793954D01*
X125436381Y-97879236D01*
X125651632Y-97936911D01*
X125651645Y-97936914D01*
X125872575Y-97966000D01*
X126095425Y-97966000D01*
X126316354Y-97936914D01*
X126316367Y-97936911D01*
X126531618Y-97879236D01*
X126737502Y-97793954D01*
X126737514Y-97793949D01*
X126930498Y-97682530D01*
X126996403Y-97631957D01*
X126996404Y-97631956D01*
X126346294Y-96981846D01*
X126362942Y-96974951D01*
X126493970Y-96887401D01*
X126605401Y-96775970D01*
X126692951Y-96644942D01*
X126699846Y-96628294D01*
X127349956Y-97278404D01*
X127349957Y-97278403D01*
X127400530Y-97212498D01*
X127511949Y-97019514D01*
X127511954Y-97019502D01*
X127597236Y-96813618D01*
X127654911Y-96598367D01*
X127654914Y-96598354D01*
X127684000Y-96377424D01*
X127684000Y-96154575D01*
X129364000Y-96154575D01*
X129364000Y-96377424D01*
X129393085Y-96598354D01*
X129393088Y-96598367D01*
X129450763Y-96813618D01*
X129536045Y-97019502D01*
X129536054Y-97019520D01*
X129647464Y-97212491D01*
X129647473Y-97212504D01*
X129698040Y-97278403D01*
X129698043Y-97278403D01*
X130348152Y-96628293D01*
X130355049Y-96644942D01*
X130442599Y-96775970D01*
X130554030Y-96887401D01*
X130685058Y-96974951D01*
X130701705Y-96981846D01*
X130051595Y-97631955D01*
X130051595Y-97631956D01*
X130117507Y-97682533D01*
X130310485Y-97793949D01*
X130310497Y-97793954D01*
X130516381Y-97879236D01*
X130731632Y-97936911D01*
X130731645Y-97936914D01*
X130952575Y-97966000D01*
X131175425Y-97966000D01*
X131396354Y-97936914D01*
X131396367Y-97936911D01*
X131611618Y-97879236D01*
X131817502Y-97793954D01*
X131817514Y-97793949D01*
X132010498Y-97682530D01*
X132076403Y-97631957D01*
X132076404Y-97631956D01*
X131426294Y-96981846D01*
X131442942Y-96974951D01*
X131573970Y-96887401D01*
X131685401Y-96775970D01*
X131772951Y-96644942D01*
X131779846Y-96628294D01*
X132429956Y-97278404D01*
X132429957Y-97278403D01*
X132480530Y-97212498D01*
X132591949Y-97019514D01*
X132591954Y-97019502D01*
X132677236Y-96813618D01*
X132734911Y-96598367D01*
X132734914Y-96598354D01*
X132764000Y-96377424D01*
X132764000Y-96154575D01*
X132763997Y-96154549D01*
X134443500Y-96154549D01*
X134443500Y-96377450D01*
X134443501Y-96377466D01*
X134472594Y-96598452D01*
X134472595Y-96598457D01*
X134472596Y-96598463D01*
X134530290Y-96813780D01*
X134530293Y-96813790D01*
X134615593Y-97019722D01*
X134615595Y-97019726D01*
X134727052Y-97212774D01*
X134727057Y-97212780D01*
X134727058Y-97212782D01*
X134862751Y-97389622D01*
X134862757Y-97389629D01*
X135020370Y-97547242D01*
X135020376Y-97547247D01*
X135197226Y-97682948D01*
X135390274Y-97794405D01*
X135424812Y-97808711D01*
X135595074Y-97879236D01*
X135596219Y-97879710D01*
X135811537Y-97937404D01*
X136032543Y-97966500D01*
X136032550Y-97966500D01*
X136255450Y-97966500D01*
X136255457Y-97966500D01*
X136476463Y-97937404D01*
X136691781Y-97879710D01*
X136897726Y-97794405D01*
X137090774Y-97682948D01*
X137267624Y-97547247D01*
X137425247Y-97389624D01*
X137560948Y-97212774D01*
X137672405Y-97019726D01*
X137757710Y-96813781D01*
X137815404Y-96598463D01*
X137844500Y-96377457D01*
X137844500Y-96154549D01*
X139523500Y-96154549D01*
X139523500Y-96377450D01*
X139523501Y-96377466D01*
X139552594Y-96598452D01*
X139552595Y-96598457D01*
X139552596Y-96598463D01*
X139610290Y-96813780D01*
X139610293Y-96813790D01*
X139695593Y-97019722D01*
X139695595Y-97019726D01*
X139807052Y-97212774D01*
X139807057Y-97212780D01*
X139807058Y-97212782D01*
X139942751Y-97389622D01*
X139942757Y-97389629D01*
X140100370Y-97547242D01*
X140100376Y-97547247D01*
X140277226Y-97682948D01*
X140470274Y-97794405D01*
X140504812Y-97808711D01*
X140675074Y-97879236D01*
X140676219Y-97879710D01*
X140891537Y-97937404D01*
X141112543Y-97966500D01*
X141112550Y-97966500D01*
X141335450Y-97966500D01*
X141335457Y-97966500D01*
X141556463Y-97937404D01*
X141771781Y-97879710D01*
X141977726Y-97794405D01*
X142170774Y-97682948D01*
X142347624Y-97547247D01*
X142505247Y-97389624D01*
X142640948Y-97212774D01*
X142752405Y-97019726D01*
X142837710Y-96813781D01*
X142895404Y-96598463D01*
X142924500Y-96377457D01*
X142924500Y-96154549D01*
X144603500Y-96154549D01*
X144603500Y-96377450D01*
X144603501Y-96377466D01*
X144632594Y-96598452D01*
X144632595Y-96598457D01*
X144632596Y-96598463D01*
X144690290Y-96813780D01*
X144690293Y-96813790D01*
X144775593Y-97019722D01*
X144775595Y-97019726D01*
X144887052Y-97212774D01*
X144887057Y-97212780D01*
X144887058Y-97212782D01*
X145022751Y-97389622D01*
X145022757Y-97389629D01*
X145180370Y-97547242D01*
X145180376Y-97547247D01*
X145357226Y-97682948D01*
X145550274Y-97794405D01*
X145584812Y-97808711D01*
X145755074Y-97879236D01*
X145756219Y-97879710D01*
X145971537Y-97937404D01*
X146192543Y-97966500D01*
X146192550Y-97966500D01*
X146415450Y-97966500D01*
X146415457Y-97966500D01*
X146636463Y-97937404D01*
X146851781Y-97879710D01*
X147057726Y-97794405D01*
X147250774Y-97682948D01*
X147427624Y-97547247D01*
X147585247Y-97389624D01*
X147720948Y-97212774D01*
X147832405Y-97019726D01*
X147917710Y-96813781D01*
X147975404Y-96598463D01*
X148004500Y-96377457D01*
X148004500Y-96154543D01*
X147975404Y-95933537D01*
X147917710Y-95718219D01*
X147905383Y-95688460D01*
X147832406Y-95512277D01*
X147832405Y-95512274D01*
X147720948Y-95319226D01*
X147680094Y-95265984D01*
X149683500Y-95265984D01*
X149683500Y-97266015D01*
X149694000Y-97368795D01*
X149694001Y-97368797D01*
X149700904Y-97389629D01*
X149749186Y-97535335D01*
X149749187Y-97535337D01*
X149841286Y-97684651D01*
X149841289Y-97684655D01*
X149965344Y-97808710D01*
X149965348Y-97808713D01*
X150114662Y-97900812D01*
X150114664Y-97900813D01*
X150114666Y-97900814D01*
X150281203Y-97955999D01*
X150383992Y-97966500D01*
X150383997Y-97966500D01*
X152384003Y-97966500D01*
X152384008Y-97966500D01*
X152486797Y-97955999D01*
X152653334Y-97900814D01*
X152802655Y-97808711D01*
X152926711Y-97684655D01*
X153018814Y-97535334D01*
X153073999Y-97368797D01*
X153084500Y-97266008D01*
X153084500Y-95265992D01*
X153073999Y-95163203D01*
X153018814Y-94996666D01*
X153011468Y-94984757D01*
X152926713Y-94847348D01*
X152926710Y-94847344D01*
X152802655Y-94723289D01*
X152802651Y-94723286D01*
X152653337Y-94631187D01*
X152653335Y-94631186D01*
X152570065Y-94603593D01*
X152486797Y-94576001D01*
X152486795Y-94576000D01*
X152384015Y-94565500D01*
X152384008Y-94565500D01*
X150383992Y-94565500D01*
X150383984Y-94565500D01*
X150281204Y-94576000D01*
X150281203Y-94576001D01*
X150114664Y-94631186D01*
X150114662Y-94631187D01*
X149965348Y-94723286D01*
X149965344Y-94723289D01*
X149841289Y-94847344D01*
X149841286Y-94847348D01*
X149749187Y-94996662D01*
X149749186Y-94996664D01*
X149694001Y-95163203D01*
X149694000Y-95163204D01*
X149683500Y-95265984D01*
X147680094Y-95265984D01*
X147585247Y-95142376D01*
X147585242Y-95142370D01*
X147427629Y-94984757D01*
X147427622Y-94984751D01*
X147250782Y-94849058D01*
X147250780Y-94849057D01*
X147250774Y-94849052D01*
X147057726Y-94737595D01*
X147057722Y-94737593D01*
X146851790Y-94652293D01*
X146851783Y-94652291D01*
X146851781Y-94652290D01*
X146636463Y-94594596D01*
X146636457Y-94594595D01*
X146636452Y-94594594D01*
X146415466Y-94565501D01*
X146415463Y-94565500D01*
X146415457Y-94565500D01*
X146192543Y-94565500D01*
X146192537Y-94565500D01*
X146192533Y-94565501D01*
X145971547Y-94594594D01*
X145971540Y-94594595D01*
X145971537Y-94594596D01*
X145756219Y-94652290D01*
X145756209Y-94652293D01*
X145550277Y-94737593D01*
X145550273Y-94737595D01*
X145357226Y-94849052D01*
X145357217Y-94849058D01*
X145180377Y-94984751D01*
X145180370Y-94984757D01*
X145022757Y-95142370D01*
X145022751Y-95142377D01*
X144887058Y-95319217D01*
X144887052Y-95319226D01*
X144775595Y-95512273D01*
X144775593Y-95512277D01*
X144690293Y-95718209D01*
X144690290Y-95718219D01*
X144632597Y-95933534D01*
X144632594Y-95933547D01*
X144603501Y-96154533D01*
X144603500Y-96154549D01*
X142924500Y-96154549D01*
X142924500Y-96154543D01*
X142895404Y-95933537D01*
X142837710Y-95718219D01*
X142825383Y-95688460D01*
X142752406Y-95512277D01*
X142752405Y-95512274D01*
X142640948Y-95319226D01*
X142505247Y-95142376D01*
X142505242Y-95142370D01*
X142347629Y-94984757D01*
X142347622Y-94984751D01*
X142170782Y-94849058D01*
X142170780Y-94849057D01*
X142170774Y-94849052D01*
X141977726Y-94737595D01*
X141977722Y-94737593D01*
X141771790Y-94652293D01*
X141771783Y-94652291D01*
X141771781Y-94652290D01*
X141556463Y-94594596D01*
X141556457Y-94594595D01*
X141556452Y-94594594D01*
X141335466Y-94565501D01*
X141335463Y-94565500D01*
X141335457Y-94565500D01*
X141112543Y-94565500D01*
X141112537Y-94565500D01*
X141112533Y-94565501D01*
X140891547Y-94594594D01*
X140891540Y-94594595D01*
X140891537Y-94594596D01*
X140676219Y-94652290D01*
X140676209Y-94652293D01*
X140470277Y-94737593D01*
X140470273Y-94737595D01*
X140277226Y-94849052D01*
X140277217Y-94849058D01*
X140100377Y-94984751D01*
X140100370Y-94984757D01*
X139942757Y-95142370D01*
X139942751Y-95142377D01*
X139807058Y-95319217D01*
X139807052Y-95319226D01*
X139695595Y-95512273D01*
X139695593Y-95512277D01*
X139610293Y-95718209D01*
X139610290Y-95718219D01*
X139552597Y-95933534D01*
X139552594Y-95933547D01*
X139523501Y-96154533D01*
X139523500Y-96154549D01*
X137844500Y-96154549D01*
X137844500Y-96154543D01*
X137815404Y-95933537D01*
X137757710Y-95718219D01*
X137745383Y-95688460D01*
X137672406Y-95512277D01*
X137672405Y-95512274D01*
X137560948Y-95319226D01*
X137425247Y-95142376D01*
X137425242Y-95142370D01*
X137267629Y-94984757D01*
X137267622Y-94984751D01*
X137090782Y-94849058D01*
X137090780Y-94849057D01*
X137090774Y-94849052D01*
X136897726Y-94737595D01*
X136897722Y-94737593D01*
X136691790Y-94652293D01*
X136691783Y-94652291D01*
X136691781Y-94652290D01*
X136476463Y-94594596D01*
X136476457Y-94594595D01*
X136476452Y-94594594D01*
X136255466Y-94565501D01*
X136255463Y-94565500D01*
X136255457Y-94565500D01*
X136032543Y-94565500D01*
X136032537Y-94565500D01*
X136032533Y-94565501D01*
X135811547Y-94594594D01*
X135811540Y-94594595D01*
X135811537Y-94594596D01*
X135596219Y-94652290D01*
X135596209Y-94652293D01*
X135390277Y-94737593D01*
X135390273Y-94737595D01*
X135197226Y-94849052D01*
X135197217Y-94849058D01*
X135020377Y-94984751D01*
X135020370Y-94984757D01*
X134862757Y-95142370D01*
X134862751Y-95142377D01*
X134727058Y-95319217D01*
X134727052Y-95319226D01*
X134615595Y-95512273D01*
X134615593Y-95512277D01*
X134530293Y-95718209D01*
X134530290Y-95718219D01*
X134472597Y-95933534D01*
X134472594Y-95933547D01*
X134443501Y-96154533D01*
X134443500Y-96154549D01*
X132763997Y-96154549D01*
X132734914Y-95933645D01*
X132734911Y-95933632D01*
X132677236Y-95718381D01*
X132591954Y-95512497D01*
X132591949Y-95512485D01*
X132480533Y-95319507D01*
X132429956Y-95253595D01*
X132429955Y-95253595D01*
X131779846Y-95903704D01*
X131772951Y-95887058D01*
X131685401Y-95756030D01*
X131573970Y-95644599D01*
X131442942Y-95557049D01*
X131426293Y-95550152D01*
X132076403Y-94900043D01*
X132076403Y-94900040D01*
X132010504Y-94849473D01*
X132010491Y-94849464D01*
X131817520Y-94738054D01*
X131817502Y-94738045D01*
X131611618Y-94652763D01*
X131396367Y-94595088D01*
X131396354Y-94595085D01*
X131175425Y-94566000D01*
X130952575Y-94566000D01*
X130731645Y-94595085D01*
X130731632Y-94595088D01*
X130516381Y-94652763D01*
X130310497Y-94738045D01*
X130310479Y-94738054D01*
X130117511Y-94849462D01*
X130051595Y-94900042D01*
X130701706Y-95550152D01*
X130685058Y-95557049D01*
X130554030Y-95644599D01*
X130442599Y-95756030D01*
X130355049Y-95887058D01*
X130348153Y-95903706D01*
X129698042Y-95253595D01*
X129647462Y-95319511D01*
X129536054Y-95512479D01*
X129536045Y-95512497D01*
X129450763Y-95718381D01*
X129393088Y-95933632D01*
X129393085Y-95933645D01*
X129364000Y-96154575D01*
X127684000Y-96154575D01*
X127654914Y-95933645D01*
X127654911Y-95933632D01*
X127597236Y-95718381D01*
X127511954Y-95512497D01*
X127511949Y-95512485D01*
X127400533Y-95319507D01*
X127349956Y-95253595D01*
X127349955Y-95253595D01*
X126699846Y-95903704D01*
X126692951Y-95887058D01*
X126605401Y-95756030D01*
X126493970Y-95644599D01*
X126362942Y-95557049D01*
X126346293Y-95550152D01*
X126996403Y-94900043D01*
X126996403Y-94900041D01*
X126930504Y-94849473D01*
X126930491Y-94849464D01*
X126737520Y-94738054D01*
X126737502Y-94738045D01*
X126531618Y-94652763D01*
X126316367Y-94595088D01*
X126316354Y-94595085D01*
X126095425Y-94566000D01*
X125872575Y-94566000D01*
X125651645Y-94595085D01*
X125651632Y-94595088D01*
X125436381Y-94652763D01*
X125230497Y-94738045D01*
X125230479Y-94738054D01*
X125037511Y-94849462D01*
X124971595Y-94900042D01*
X125621706Y-95550152D01*
X125605058Y-95557049D01*
X125474030Y-95644599D01*
X125362599Y-95756030D01*
X125275049Y-95887058D01*
X125268153Y-95903706D01*
X124618042Y-95253595D01*
X124567462Y-95319511D01*
X124456054Y-95512479D01*
X124456045Y-95512497D01*
X124370763Y-95718381D01*
X124313088Y-95933632D01*
X124313085Y-95933645D01*
X124284000Y-96154575D01*
X118704213Y-96154575D01*
X118780672Y-96011531D01*
X118914493Y-95688459D01*
X119016003Y-95353825D01*
X119016005Y-95353815D01*
X119016008Y-95353804D01*
X119058062Y-95142377D01*
X119084224Y-95010853D01*
X119118500Y-94662846D01*
X119118500Y-94313154D01*
X212086935Y-94313154D01*
X212086935Y-94344568D01*
X212086935Y-94662846D01*
X212097238Y-94767455D01*
X212121209Y-95010842D01*
X212121212Y-95010859D01*
X212189426Y-95353804D01*
X212189429Y-95353815D01*
X212290942Y-95688460D01*
X212383721Y-95912446D01*
X212406847Y-95968279D01*
X212424764Y-96011533D01*
X212424766Y-96011538D01*
X212589600Y-96319920D01*
X212589611Y-96319938D01*
X212783879Y-96610680D01*
X212783889Y-96610694D01*
X213005731Y-96881009D01*
X213252990Y-97128268D01*
X213252995Y-97128272D01*
X213252996Y-97128273D01*
X213523311Y-97350115D01*
X213814068Y-97544393D01*
X213814077Y-97544398D01*
X213814079Y-97544399D01*
X214122461Y-97709233D01*
X214122463Y-97709233D01*
X214122469Y-97709237D01*
X214445541Y-97843058D01*
X214780175Y-97944568D01*
X214780181Y-97944569D01*
X214780184Y-97944570D01*
X214780195Y-97944573D01*
X214995251Y-97987349D01*
X215123147Y-98012789D01*
X215471154Y-98047065D01*
X215471157Y-98047065D01*
X215820843Y-98047065D01*
X215820846Y-98047065D01*
X216168853Y-98012789D01*
X216338612Y-97979021D01*
X216511804Y-97944573D01*
X216511815Y-97944570D01*
X216511815Y-97944569D01*
X216511825Y-97944568D01*
X216846459Y-97843058D01*
X217169531Y-97709237D01*
X217477932Y-97544393D01*
X217768689Y-97350115D01*
X218039004Y-97128273D01*
X218286273Y-96881004D01*
X218508115Y-96610689D01*
X218702393Y-96319932D01*
X218867237Y-96011531D01*
X219001058Y-95688459D01*
X219102568Y-95353825D01*
X219102570Y-95353815D01*
X219102573Y-95353804D01*
X219144627Y-95142377D01*
X219170789Y-95010853D01*
X219205065Y-94662846D01*
X219205065Y-94313154D01*
X219170789Y-93965147D01*
X219133929Y-93779837D01*
X219102573Y-93622195D01*
X219102570Y-93622184D01*
X219102569Y-93622181D01*
X219102568Y-93622175D01*
X219001058Y-93287541D01*
X218867237Y-92964469D01*
X218702393Y-92656068D01*
X218508115Y-92365311D01*
X218286273Y-92094996D01*
X218286272Y-92094995D01*
X218286268Y-92094990D01*
X218039009Y-91847731D01*
X217768694Y-91625889D01*
X217768693Y-91625888D01*
X217768689Y-91625885D01*
X217477932Y-91431607D01*
X217477927Y-91431604D01*
X217477920Y-91431600D01*
X217169538Y-91266766D01*
X217169533Y-91266764D01*
X216846460Y-91132942D01*
X216511815Y-91031429D01*
X216511804Y-91031426D01*
X216168859Y-90963212D01*
X216168842Y-90963209D01*
X215905678Y-90937290D01*
X215820846Y-90928935D01*
X215471154Y-90928935D01*
X215392697Y-90936662D01*
X215123157Y-90963209D01*
X215123140Y-90963212D01*
X214780195Y-91031426D01*
X214780184Y-91031429D01*
X214445539Y-91132942D01*
X214122466Y-91266764D01*
X214122461Y-91266766D01*
X213814079Y-91431600D01*
X213814061Y-91431611D01*
X213523319Y-91625879D01*
X213523305Y-91625889D01*
X213252990Y-91847731D01*
X213005731Y-92094990D01*
X212783889Y-92365305D01*
X212783879Y-92365319D01*
X212589611Y-92656061D01*
X212589600Y-92656079D01*
X212424766Y-92964461D01*
X212424764Y-92964466D01*
X212290942Y-93287539D01*
X212189429Y-93622184D01*
X212189426Y-93622195D01*
X212121212Y-93965140D01*
X212121209Y-93965157D01*
X212111917Y-94059508D01*
X212086935Y-94313154D01*
X119118500Y-94313154D01*
X119084224Y-93965147D01*
X119047364Y-93779837D01*
X119016008Y-93622195D01*
X119016005Y-93622184D01*
X119016004Y-93622181D01*
X119016003Y-93622175D01*
X118914493Y-93287541D01*
X118780672Y-92964469D01*
X118615828Y-92656068D01*
X118421550Y-92365311D01*
X118199708Y-92094996D01*
X118199707Y-92094995D01*
X118199703Y-92094990D01*
X117952444Y-91847731D01*
X117682129Y-91625889D01*
X117682128Y-91625888D01*
X117682124Y-91625885D01*
X117391367Y-91431607D01*
X117391362Y-91431604D01*
X117391355Y-91431600D01*
X117082973Y-91266766D01*
X117082968Y-91266764D01*
X116759895Y-91132942D01*
X116425250Y-91031429D01*
X116425239Y-91031426D01*
X116082294Y-90963212D01*
X116082277Y-90963209D01*
X115819113Y-90937290D01*
X115734281Y-90928935D01*
X115384589Y-90928935D01*
X115306132Y-90936662D01*
X115036592Y-90963209D01*
X115036575Y-90963212D01*
X114693630Y-91031426D01*
X114693619Y-91031429D01*
X114358974Y-91132942D01*
X114035901Y-91266764D01*
X114035896Y-91266766D01*
X113727514Y-91431600D01*
X113727496Y-91431611D01*
X113436754Y-91625879D01*
X113436740Y-91625889D01*
X113166425Y-91847731D01*
X112919166Y-92094990D01*
X112697324Y-92365305D01*
X112697314Y-92365319D01*
X112503046Y-92656061D01*
X112503035Y-92656079D01*
X112338201Y-92964461D01*
X112338199Y-92964466D01*
X112204377Y-93287539D01*
X112102864Y-93622184D01*
X112102861Y-93622195D01*
X112034647Y-93965140D01*
X112034644Y-93965157D01*
X112025352Y-94059508D01*
X112000370Y-94313154D01*
X111506000Y-94313154D01*
X111506000Y-90624500D01*
X111525685Y-90557461D01*
X111578489Y-90511706D01*
X111630000Y-90500500D01*
X219375500Y-90500500D01*
X219442539Y-90520185D01*
G37*
%TD.AperFunction*%
%TD*%
M02*
