%TF.GenerationSoftware,KiCad,Pcbnew,9.0.2*%
%TF.CreationDate,2025-08-18T15:59:43+02:00*%
%TF.ProjectId,esp32c6-charger,65737033-3263-4362-9d63-686172676572,rev?*%
%TF.SameCoordinates,Original*%
%TF.FileFunction,Legend,Bot*%
%TF.FilePolarity,Positive*%
%FSLAX46Y46*%
G04 Gerber Fmt 4.6, Leading zero omitted, Abs format (unit mm)*
G04 Created by KiCad (PCBNEW 9.0.2) date 2025-08-18 15:59:43*
%MOMM*%
%LPD*%
G01*
G04 APERTURE LIST*
%ADD10C,0.200000*%
%ADD11C,0.100000*%
%ADD12C,0.150000*%
%ADD13C,0.120000*%
G04 APERTURE END LIST*
D10*
X193194231Y-135888838D02*
X193194231Y-133888838D01*
X193194231Y-133888838D02*
X192527564Y-135317409D01*
X192527564Y-135317409D02*
X191860898Y-133888838D01*
X191860898Y-133888838D02*
X191860898Y-135888838D01*
X190051374Y-135888838D02*
X190051374Y-134841219D01*
X190051374Y-134841219D02*
X190146612Y-134650742D01*
X190146612Y-134650742D02*
X190337088Y-134555504D01*
X190337088Y-134555504D02*
X190718041Y-134555504D01*
X190718041Y-134555504D02*
X190908517Y-134650742D01*
X190051374Y-135793600D02*
X190241850Y-135888838D01*
X190241850Y-135888838D02*
X190718041Y-135888838D01*
X190718041Y-135888838D02*
X190908517Y-135793600D01*
X190908517Y-135793600D02*
X191003755Y-135603123D01*
X191003755Y-135603123D02*
X191003755Y-135412647D01*
X191003755Y-135412647D02*
X190908517Y-135222171D01*
X190908517Y-135222171D02*
X190718041Y-135126933D01*
X190718041Y-135126933D02*
X190241850Y-135126933D01*
X190241850Y-135126933D02*
X190051374Y-135031695D01*
X189098993Y-135888838D02*
X189098993Y-133888838D01*
X188908517Y-135126933D02*
X188337088Y-135888838D01*
X188337088Y-134555504D02*
X189098993Y-135317409D01*
X186718040Y-135793600D02*
X186908516Y-135888838D01*
X186908516Y-135888838D02*
X187289469Y-135888838D01*
X187289469Y-135888838D02*
X187479945Y-135793600D01*
X187479945Y-135793600D02*
X187575183Y-135603123D01*
X187575183Y-135603123D02*
X187575183Y-134841219D01*
X187575183Y-134841219D02*
X187479945Y-134650742D01*
X187479945Y-134650742D02*
X187289469Y-134555504D01*
X187289469Y-134555504D02*
X186908516Y-134555504D01*
X186908516Y-134555504D02*
X186718040Y-134650742D01*
X186718040Y-134650742D02*
X186622802Y-134841219D01*
X186622802Y-134841219D02*
X186622802Y-135031695D01*
X186622802Y-135031695D02*
X187575183Y-135222171D01*
D11*
X198882000Y-131064000D02*
X200914000Y-131064000D01*
X198882000Y-135382000D02*
X198882000Y-131064000D01*
X198882000Y-131064000D02*
X198882000Y-135382000D01*
X197866000Y-131064000D02*
X194310000Y-131064000D01*
X197866000Y-127254000D02*
X197866000Y-135382000D01*
X203200000Y-131318000D02*
G75*
G02*
X193548000Y-131318000I-4826000J0D01*
G01*
X193548000Y-131318000D02*
G75*
G02*
X203200000Y-131318000I4826000J0D01*
G01*
X136906000Y-104394000D02*
X136398000Y-104394000D01*
X136906000Y-102616000D02*
X136906000Y-104394000D01*
X131064000Y-104394000D02*
X131572000Y-104394000D01*
X131064000Y-103632000D02*
X131064000Y-104394000D01*
X141224000Y-104394000D02*
X141986000Y-104394000D01*
X141224000Y-102870000D02*
X141224000Y-104394000D01*
X146685000Y-104394000D02*
X145923000Y-104394000D01*
X146685000Y-104013000D02*
X146685000Y-104394000D01*
X136094115Y-104774419D02*
X136094115Y-103774419D01*
X136094115Y-103774419D02*
X135856020Y-103774419D01*
X135856020Y-103774419D02*
X135713163Y-103822038D01*
X135713163Y-103822038D02*
X135617925Y-103917276D01*
X135617925Y-103917276D02*
X135570306Y-104012514D01*
X135570306Y-104012514D02*
X135522687Y-104202990D01*
X135522687Y-104202990D02*
X135522687Y-104345847D01*
X135522687Y-104345847D02*
X135570306Y-104536323D01*
X135570306Y-104536323D02*
X135617925Y-104631561D01*
X135617925Y-104631561D02*
X135713163Y-104726800D01*
X135713163Y-104726800D02*
X135856020Y-104774419D01*
X135856020Y-104774419D02*
X136094115Y-104774419D01*
X134713163Y-104726800D02*
X134808401Y-104774419D01*
X134808401Y-104774419D02*
X134998877Y-104774419D01*
X134998877Y-104774419D02*
X135094115Y-104726800D01*
X135094115Y-104726800D02*
X135141734Y-104631561D01*
X135141734Y-104631561D02*
X135141734Y-104250609D01*
X135141734Y-104250609D02*
X135094115Y-104155371D01*
X135094115Y-104155371D02*
X134998877Y-104107752D01*
X134998877Y-104107752D02*
X134808401Y-104107752D01*
X134808401Y-104107752D02*
X134713163Y-104155371D01*
X134713163Y-104155371D02*
X134665544Y-104250609D01*
X134665544Y-104250609D02*
X134665544Y-104345847D01*
X134665544Y-104345847D02*
X135141734Y-104441085D01*
X134379829Y-104107752D02*
X133998877Y-104107752D01*
X134236972Y-103774419D02*
X134236972Y-104631561D01*
X134236972Y-104631561D02*
X134189353Y-104726800D01*
X134189353Y-104726800D02*
X134094115Y-104774419D01*
X134094115Y-104774419D02*
X133998877Y-104774419D01*
X133284591Y-104726800D02*
X133379829Y-104774419D01*
X133379829Y-104774419D02*
X133570305Y-104774419D01*
X133570305Y-104774419D02*
X133665543Y-104726800D01*
X133665543Y-104726800D02*
X133713162Y-104631561D01*
X133713162Y-104631561D02*
X133713162Y-104250609D01*
X133713162Y-104250609D02*
X133665543Y-104155371D01*
X133665543Y-104155371D02*
X133570305Y-104107752D01*
X133570305Y-104107752D02*
X133379829Y-104107752D01*
X133379829Y-104107752D02*
X133284591Y-104155371D01*
X133284591Y-104155371D02*
X133236972Y-104250609D01*
X133236972Y-104250609D02*
X133236972Y-104345847D01*
X133236972Y-104345847D02*
X133713162Y-104441085D01*
X132379829Y-104726800D02*
X132475067Y-104774419D01*
X132475067Y-104774419D02*
X132665543Y-104774419D01*
X132665543Y-104774419D02*
X132760781Y-104726800D01*
X132760781Y-104726800D02*
X132808400Y-104679180D01*
X132808400Y-104679180D02*
X132856019Y-104583942D01*
X132856019Y-104583942D02*
X132856019Y-104298228D01*
X132856019Y-104298228D02*
X132808400Y-104202990D01*
X132808400Y-104202990D02*
X132760781Y-104155371D01*
X132760781Y-104155371D02*
X132665543Y-104107752D01*
X132665543Y-104107752D02*
X132475067Y-104107752D01*
X132475067Y-104107752D02*
X132379829Y-104155371D01*
X132094114Y-104107752D02*
X131713162Y-104107752D01*
X131951257Y-103774419D02*
X131951257Y-104631561D01*
X131951257Y-104631561D02*
X131903638Y-104726800D01*
X131903638Y-104726800D02*
X131808400Y-104774419D01*
X131808400Y-104774419D02*
X131713162Y-104774419D01*
X126680306Y-102298038D02*
X126775544Y-102250419D01*
X126775544Y-102250419D02*
X126918401Y-102250419D01*
X126918401Y-102250419D02*
X127061258Y-102298038D01*
X127061258Y-102298038D02*
X127156496Y-102393276D01*
X127156496Y-102393276D02*
X127204115Y-102488514D01*
X127204115Y-102488514D02*
X127251734Y-102678990D01*
X127251734Y-102678990D02*
X127251734Y-102821847D01*
X127251734Y-102821847D02*
X127204115Y-103012323D01*
X127204115Y-103012323D02*
X127156496Y-103107561D01*
X127156496Y-103107561D02*
X127061258Y-103202800D01*
X127061258Y-103202800D02*
X126918401Y-103250419D01*
X126918401Y-103250419D02*
X126823163Y-103250419D01*
X126823163Y-103250419D02*
X126680306Y-103202800D01*
X126680306Y-103202800D02*
X126632687Y-103155180D01*
X126632687Y-103155180D02*
X126632687Y-102821847D01*
X126632687Y-102821847D02*
X126823163Y-102821847D01*
X126204115Y-103250419D02*
X126204115Y-102250419D01*
X126204115Y-102250419D02*
X125632687Y-103250419D01*
X125632687Y-103250419D02*
X125632687Y-102250419D01*
X125156496Y-103250419D02*
X125156496Y-102250419D01*
X125156496Y-102250419D02*
X124918401Y-102250419D01*
X124918401Y-102250419D02*
X124775544Y-102298038D01*
X124775544Y-102298038D02*
X124680306Y-102393276D01*
X124680306Y-102393276D02*
X124632687Y-102488514D01*
X124632687Y-102488514D02*
X124585068Y-102678990D01*
X124585068Y-102678990D02*
X124585068Y-102821847D01*
X124585068Y-102821847D02*
X124632687Y-103012323D01*
X124632687Y-103012323D02*
X124680306Y-103107561D01*
X124680306Y-103107561D02*
X124775544Y-103202800D01*
X124775544Y-103202800D02*
X124918401Y-103250419D01*
X124918401Y-103250419D02*
X125156496Y-103250419D01*
X131760306Y-102298038D02*
X131855544Y-102250419D01*
X131855544Y-102250419D02*
X131998401Y-102250419D01*
X131998401Y-102250419D02*
X132141258Y-102298038D01*
X132141258Y-102298038D02*
X132236496Y-102393276D01*
X132236496Y-102393276D02*
X132284115Y-102488514D01*
X132284115Y-102488514D02*
X132331734Y-102678990D01*
X132331734Y-102678990D02*
X132331734Y-102821847D01*
X132331734Y-102821847D02*
X132284115Y-103012323D01*
X132284115Y-103012323D02*
X132236496Y-103107561D01*
X132236496Y-103107561D02*
X132141258Y-103202800D01*
X132141258Y-103202800D02*
X131998401Y-103250419D01*
X131998401Y-103250419D02*
X131903163Y-103250419D01*
X131903163Y-103250419D02*
X131760306Y-103202800D01*
X131760306Y-103202800D02*
X131712687Y-103155180D01*
X131712687Y-103155180D02*
X131712687Y-102821847D01*
X131712687Y-102821847D02*
X131903163Y-102821847D01*
X131284115Y-103250419D02*
X131284115Y-102250419D01*
X131284115Y-102250419D02*
X130712687Y-103250419D01*
X130712687Y-103250419D02*
X130712687Y-102250419D01*
X130236496Y-103250419D02*
X130236496Y-102250419D01*
X130236496Y-102250419D02*
X129998401Y-102250419D01*
X129998401Y-102250419D02*
X129855544Y-102298038D01*
X129855544Y-102298038D02*
X129760306Y-102393276D01*
X129760306Y-102393276D02*
X129712687Y-102488514D01*
X129712687Y-102488514D02*
X129665068Y-102678990D01*
X129665068Y-102678990D02*
X129665068Y-102821847D01*
X129665068Y-102821847D02*
X129712687Y-103012323D01*
X129712687Y-103012323D02*
X129760306Y-103107561D01*
X129760306Y-103107561D02*
X129855544Y-103202800D01*
X129855544Y-103202800D02*
X129998401Y-103250419D01*
X129998401Y-103250419D02*
X130236496Y-103250419D01*
X145015925Y-104774419D02*
X145492115Y-104774419D01*
X145492115Y-104774419D02*
X145492115Y-103774419D01*
X144539734Y-104774419D02*
X144634972Y-104726800D01*
X144634972Y-104726800D02*
X144682591Y-104679180D01*
X144682591Y-104679180D02*
X144730210Y-104583942D01*
X144730210Y-104583942D02*
X144730210Y-104298228D01*
X144730210Y-104298228D02*
X144682591Y-104202990D01*
X144682591Y-104202990D02*
X144634972Y-104155371D01*
X144634972Y-104155371D02*
X144539734Y-104107752D01*
X144539734Y-104107752D02*
X144396877Y-104107752D01*
X144396877Y-104107752D02*
X144301639Y-104155371D01*
X144301639Y-104155371D02*
X144254020Y-104202990D01*
X144254020Y-104202990D02*
X144206401Y-104298228D01*
X144206401Y-104298228D02*
X144206401Y-104583942D01*
X144206401Y-104583942D02*
X144254020Y-104679180D01*
X144254020Y-104679180D02*
X144301639Y-104726800D01*
X144301639Y-104726800D02*
X144396877Y-104774419D01*
X144396877Y-104774419D02*
X144539734Y-104774419D01*
X143349258Y-104726800D02*
X143444496Y-104774419D01*
X143444496Y-104774419D02*
X143634972Y-104774419D01*
X143634972Y-104774419D02*
X143730210Y-104726800D01*
X143730210Y-104726800D02*
X143777829Y-104679180D01*
X143777829Y-104679180D02*
X143825448Y-104583942D01*
X143825448Y-104583942D02*
X143825448Y-104298228D01*
X143825448Y-104298228D02*
X143777829Y-104202990D01*
X143777829Y-104202990D02*
X143730210Y-104155371D01*
X143730210Y-104155371D02*
X143634972Y-104107752D01*
X143634972Y-104107752D02*
X143444496Y-104107752D01*
X143444496Y-104107752D02*
X143349258Y-104155371D01*
X142920686Y-104774419D02*
X142920686Y-103774419D01*
X142825448Y-104393466D02*
X142539734Y-104774419D01*
X142539734Y-104107752D02*
X142920686Y-104488704D01*
X148540115Y-103123466D02*
X147778211Y-103123466D01*
X148159163Y-103504419D02*
X148159163Y-102742514D01*
X147397258Y-102504419D02*
X146778211Y-102504419D01*
X146778211Y-102504419D02*
X147111544Y-102885371D01*
X147111544Y-102885371D02*
X146968687Y-102885371D01*
X146968687Y-102885371D02*
X146873449Y-102932990D01*
X146873449Y-102932990D02*
X146825830Y-102980609D01*
X146825830Y-102980609D02*
X146778211Y-103075847D01*
X146778211Y-103075847D02*
X146778211Y-103313942D01*
X146778211Y-103313942D02*
X146825830Y-103409180D01*
X146825830Y-103409180D02*
X146873449Y-103456800D01*
X146873449Y-103456800D02*
X146968687Y-103504419D01*
X146968687Y-103504419D02*
X147254401Y-103504419D01*
X147254401Y-103504419D02*
X147349639Y-103456800D01*
X147349639Y-103456800D02*
X147397258Y-103409180D01*
X146349639Y-103409180D02*
X146302020Y-103456800D01*
X146302020Y-103456800D02*
X146349639Y-103504419D01*
X146349639Y-103504419D02*
X146397258Y-103456800D01*
X146397258Y-103456800D02*
X146349639Y-103409180D01*
X146349639Y-103409180D02*
X146349639Y-103504419D01*
X145968687Y-102504419D02*
X145349640Y-102504419D01*
X145349640Y-102504419D02*
X145682973Y-102885371D01*
X145682973Y-102885371D02*
X145540116Y-102885371D01*
X145540116Y-102885371D02*
X145444878Y-102932990D01*
X145444878Y-102932990D02*
X145397259Y-102980609D01*
X145397259Y-102980609D02*
X145349640Y-103075847D01*
X145349640Y-103075847D02*
X145349640Y-103313942D01*
X145349640Y-103313942D02*
X145397259Y-103409180D01*
X145397259Y-103409180D02*
X145444878Y-103456800D01*
X145444878Y-103456800D02*
X145540116Y-103504419D01*
X145540116Y-103504419D02*
X145825830Y-103504419D01*
X145825830Y-103504419D02*
X145921068Y-103456800D01*
X145921068Y-103456800D02*
X145968687Y-103409180D01*
X145063925Y-102504419D02*
X144730592Y-103504419D01*
X144730592Y-103504419D02*
X144397259Y-102504419D01*
X152560115Y-103377466D02*
X151798211Y-103377466D01*
X152179163Y-103758419D02*
X152179163Y-102996514D01*
X150845830Y-102758419D02*
X151322020Y-102758419D01*
X151322020Y-102758419D02*
X151369639Y-103234609D01*
X151369639Y-103234609D02*
X151322020Y-103186990D01*
X151322020Y-103186990D02*
X151226782Y-103139371D01*
X151226782Y-103139371D02*
X150988687Y-103139371D01*
X150988687Y-103139371D02*
X150893449Y-103186990D01*
X150893449Y-103186990D02*
X150845830Y-103234609D01*
X150845830Y-103234609D02*
X150798211Y-103329847D01*
X150798211Y-103329847D02*
X150798211Y-103567942D01*
X150798211Y-103567942D02*
X150845830Y-103663180D01*
X150845830Y-103663180D02*
X150893449Y-103710800D01*
X150893449Y-103710800D02*
X150988687Y-103758419D01*
X150988687Y-103758419D02*
X151226782Y-103758419D01*
X151226782Y-103758419D02*
X151322020Y-103710800D01*
X151322020Y-103710800D02*
X151369639Y-103663180D01*
X150512496Y-102758419D02*
X150179163Y-103758419D01*
X150179163Y-103758419D02*
X149845830Y-102758419D01*
D12*
X94909594Y-111768319D02*
X94909594Y-110768319D01*
X94338166Y-111768319D02*
X94766737Y-111196890D01*
X94338166Y-110768319D02*
X94909594Y-111339747D01*
X93385785Y-111768319D02*
X93957213Y-111768319D01*
X93671499Y-111768319D02*
X93671499Y-110768319D01*
X93671499Y-110768319D02*
X93766737Y-110911176D01*
X93766737Y-110911176D02*
X93861975Y-111006414D01*
X93861975Y-111006414D02*
X93957213Y-111054033D01*
X90965333Y-89446819D02*
X90965333Y-90161104D01*
X90965333Y-90161104D02*
X91012952Y-90303961D01*
X91012952Y-90303961D02*
X91108190Y-90399200D01*
X91108190Y-90399200D02*
X91251047Y-90446819D01*
X91251047Y-90446819D02*
X91346285Y-90446819D01*
X90536761Y-89542057D02*
X90489142Y-89494438D01*
X90489142Y-89494438D02*
X90393904Y-89446819D01*
X90393904Y-89446819D02*
X90155809Y-89446819D01*
X90155809Y-89446819D02*
X90060571Y-89494438D01*
X90060571Y-89494438D02*
X90012952Y-89542057D01*
X90012952Y-89542057D02*
X89965333Y-89637295D01*
X89965333Y-89637295D02*
X89965333Y-89732533D01*
X89965333Y-89732533D02*
X90012952Y-89875390D01*
X90012952Y-89875390D02*
X90584380Y-90446819D01*
X90584380Y-90446819D02*
X89965333Y-90446819D01*
X138717333Y-89700819D02*
X138717333Y-90415104D01*
X138717333Y-90415104D02*
X138764952Y-90557961D01*
X138764952Y-90557961D02*
X138860190Y-90653200D01*
X138860190Y-90653200D02*
X139003047Y-90700819D01*
X139003047Y-90700819D02*
X139098285Y-90700819D01*
X137717333Y-90700819D02*
X138288761Y-90700819D01*
X138003047Y-90700819D02*
X138003047Y-89700819D01*
X138003047Y-89700819D02*
X138098285Y-89843676D01*
X138098285Y-89843676D02*
X138193523Y-89938914D01*
X138193523Y-89938914D02*
X138288761Y-89986533D01*
D13*
%TO.C,K1*%
X108911500Y-125653500D02*
X108911500Y-123463500D01*
X106571500Y-125653500D02*
X108911500Y-125653500D01*
X108671500Y-125413500D02*
X79671500Y-125413500D01*
X79671500Y-125413500D02*
X79671500Y-112713500D01*
X106871500Y-119413500D02*
X105671500Y-119413500D01*
X106071500Y-119413500D02*
X106471500Y-118713500D01*
X105671500Y-119413500D02*
X105671500Y-118713500D01*
X106871500Y-118713500D02*
X106871500Y-119413500D01*
X105671500Y-118713500D02*
X106871500Y-118713500D01*
X108671500Y-112713500D02*
X108671500Y-125413500D01*
X79671500Y-112713500D02*
X108671500Y-112713500D01*
%TO.C,J2*%
X96452000Y-102092000D02*
X95572000Y-102092000D01*
X96012000Y-101482000D01*
X96452000Y-102092000D01*
G36*
X96452000Y-102092000D02*
G01*
X95572000Y-102092000D01*
X96012000Y-101482000D01*
X96452000Y-102092000D01*
G37*
X82592000Y-90992000D02*
X82592000Y-101482000D01*
X95712000Y-101482000D02*
X82592000Y-101482000D01*
X98672000Y-101482000D02*
X96312000Y-101482000D01*
X98672000Y-100362000D02*
X82592000Y-100362000D01*
X98672000Y-92612000D02*
X82592000Y-92612000D01*
X98672000Y-90992000D02*
X82592000Y-90992000D01*
X98672000Y-90992000D02*
X98672000Y-101482000D01*
%TO.C,J1*%
X154044000Y-91246000D02*
X154044000Y-101736000D01*
X154044000Y-91246000D02*
X122724000Y-91246000D01*
X154044000Y-92866000D02*
X122724000Y-92866000D01*
X154044000Y-100616000D02*
X122724000Y-100616000D01*
X154044000Y-101736000D02*
X151684000Y-101736000D01*
X151084000Y-101736000D02*
X122724000Y-101736000D01*
X122724000Y-91246000D02*
X122724000Y-101736000D01*
X151824000Y-102346000D02*
X150944000Y-102346000D01*
X151384000Y-101736000D01*
X151824000Y-102346000D01*
G36*
X151824000Y-102346000D02*
G01*
X150944000Y-102346000D01*
X151384000Y-101736000D01*
X151824000Y-102346000D01*
G37*
%TD*%
M02*
