%TF.GenerationSoftware,KiCad,Pcbnew,9.0.4*%
%TF.CreationDate,2025-08-29T10:20:17+02:00*%
%TF.ProjectId,esp32c6-charger,65737033-3263-4362-9d63-686172676572,rev?*%
%TF.SameCoordinates,Original*%
%TF.FileFunction,Copper,L2,Bot*%
%TF.FilePolarity,Positive*%
%FSLAX46Y46*%
G04 Gerber Fmt 4.6, Leading zero omitted, Abs format (unit mm)*
G04 Created by KiCad (PCBNEW 9.0.4) date 2025-08-29 10:20:17*
%MOMM*%
%LPD*%
G01*
G04 APERTURE LIST*
G04 Aperture macros list*
%AMRoundRect*
0 Rectangle with rounded corners*
0 $1 Rounding radius*
0 $2 $3 $4 $5 $6 $7 $8 $9 X,Y pos of 4 corners*
0 Add a 4 corners polygon primitive as box body*
4,1,4,$2,$3,$4,$5,$6,$7,$8,$9,$2,$3,0*
0 Add four circle primitives for the rounded corners*
1,1,$1+$1,$2,$3*
1,1,$1+$1,$4,$5*
1,1,$1+$1,$6,$7*
1,1,$1+$1,$8,$9*
0 Add four rect primitives between the rounded corners*
20,1,$1+$1,$2,$3,$4,$5,0*
20,1,$1+$1,$4,$5,$6,$7,0*
20,1,$1+$1,$6,$7,$8,$9,0*
20,1,$1+$1,$8,$9,$2,$3,0*%
G04 Aperture macros list end*
%TA.AperFunction,ComponentPad*%
%ADD10O,1.600000X2.000000*%
%TD*%
%TA.AperFunction,ComponentPad*%
%ADD11R,1.700000X1.700000*%
%TD*%
%TA.AperFunction,ComponentPad*%
%ADD12C,1.700000*%
%TD*%
%TA.AperFunction,SMDPad,CuDef*%
%ADD13RoundRect,0.152400X1.063600X0.609600X-1.063600X0.609600X-1.063600X-0.609600X1.063600X-0.609600X0*%
%TD*%
%TA.AperFunction,ComponentPad*%
%ADD14C,1.524000*%
%TD*%
%TA.AperFunction,SMDPad,CuDef*%
%ADD15RoundRect,0.152400X-1.063600X-0.609600X1.063600X-0.609600X1.063600X0.609600X-1.063600X0.609600X0*%
%TD*%
%TA.AperFunction,SMDPad,CuDef*%
%ADD16RoundRect,0.250001X-0.462499X-0.624999X0.462499X-0.624999X0.462499X0.624999X-0.462499X0.624999X0*%
%TD*%
%TA.AperFunction,SMDPad,CuDef*%
%ADD17RoundRect,0.250000X-0.400000X-0.625000X0.400000X-0.625000X0.400000X0.625000X-0.400000X0.625000X0*%
%TD*%
%TA.AperFunction,SMDPad,CuDef*%
%ADD18RoundRect,0.150000X0.587500X0.150000X-0.587500X0.150000X-0.587500X-0.150000X0.587500X-0.150000X0*%
%TD*%
%TA.AperFunction,ComponentPad*%
%ADD19RoundRect,0.250000X-1.050000X-1.050000X1.050000X-1.050000X1.050000X1.050000X-1.050000X1.050000X0*%
%TD*%
%TA.AperFunction,ComponentPad*%
%ADD20C,2.600000*%
%TD*%
%TA.AperFunction,SMDPad,CuDef*%
%ADD21RoundRect,0.250000X0.785000X0.945000X-0.785000X0.945000X-0.785000X-0.945000X0.785000X-0.945000X0*%
%TD*%
%TA.AperFunction,SMDPad,CuDef*%
%ADD22RoundRect,0.250000X0.400000X0.625000X-0.400000X0.625000X-0.400000X-0.625000X0.400000X-0.625000X0*%
%TD*%
%TA.AperFunction,SMDPad,CuDef*%
%ADD23RoundRect,0.375000X-0.625000X-0.375000X0.625000X-0.375000X0.625000X0.375000X-0.625000X0.375000X0*%
%TD*%
%TA.AperFunction,SMDPad,CuDef*%
%ADD24RoundRect,0.500000X-0.500000X-1.400000X0.500000X-1.400000X0.500000X1.400000X-0.500000X1.400000X0*%
%TD*%
%TA.AperFunction,ComponentPad*%
%ADD25C,2.000000*%
%TD*%
%TA.AperFunction,ComponentPad*%
%ADD26R,2.000000X2.000000*%
%TD*%
%TA.AperFunction,SMDPad,CuDef*%
%ADD27RoundRect,0.112500X0.112500X-0.187500X0.112500X0.187500X-0.112500X0.187500X-0.112500X-0.187500X0*%
%TD*%
%TA.AperFunction,Conductor*%
%ADD28C,0.200000*%
%TD*%
%TA.AperFunction,Conductor*%
%ADD29C,2.000000*%
%TD*%
G04 APERTURE END LIST*
D10*
%TO.P,Display1,1,GND*%
%TO.N,GND*%
X125476000Y-91567000D03*
%TO.P,Display1,2,VCC*%
%TO.N,VCC*%
X128016000Y-91567000D03*
%TO.P,Display1,3,SCL*%
%TO.N,/SCL*%
X130556000Y-91567000D03*
%TO.P,Display1,4,SDA*%
%TO.N,/SDA*%
X133096000Y-91567000D03*
%TD*%
D11*
%TO.P,Rfidreader1,1,SDA*%
%TO.N,/CS*%
X158496000Y-90551000D03*
D12*
%TO.P,Rfidreader1,2,SCK*%
%TO.N,/SCK*%
X158496000Y-93091000D03*
%TO.P,Rfidreader1,3,MOSI*%
%TO.N,/MOSI*%
X158496000Y-95631000D03*
%TO.P,Rfidreader1,4,MISO*%
%TO.N,/MISO*%
X158496000Y-98171000D03*
%TO.P,Rfidreader1,5,IRQ*%
%TO.N,unconnected-(Rfidreader1-IRQ-Pad5)*%
X158496000Y-100711000D03*
%TO.P,Rfidreader1,6,GND*%
%TO.N,GND*%
X158496000Y-103251000D03*
%TO.P,Rfidreader1,7,RST*%
%TO.N,unconnected-(Rfidreader1-RST-Pad7)*%
X158496000Y-105791000D03*
%TO.P,Rfidreader1,8,3\u002C3V*%
%TO.N,VCC*%
X158496000Y-108331000D03*
%TD*%
D13*
%TO.P,U2,1,GPIO0/A0/D0*%
%TO.N,/LED*%
X130737000Y-121285000D03*
D14*
X131572000Y-121285000D03*
D13*
%TO.P,U2,2,GPIO1/A1/D1*%
%TO.N,/Detect*%
X130737000Y-118745000D03*
D14*
X131572000Y-118745000D03*
D13*
%TO.P,U2,3,GPIO2/A2/D2*%
%TO.N,Net-(U2-GPIO2{slash}A2{slash}D2)*%
X130737000Y-116205000D03*
D14*
X131572000Y-116205000D03*
D13*
%TO.P,U2,4,GPIO21/D3*%
%TO.N,Net-(U2-GPIO21{slash}D3)*%
X130737000Y-113665000D03*
D14*
X131572000Y-113665000D03*
D13*
%TO.P,U2,5,GPIO22/D4/SDA*%
%TO.N,/SDA*%
X130737000Y-111125000D03*
D14*
X131572000Y-111125000D03*
D13*
%TO.P,U2,6,GPIO23/D5/SCL*%
%TO.N,/SCL*%
X130737000Y-108585000D03*
D14*
X131572000Y-108585000D03*
D13*
%TO.P,U2,7,GPIO16/D6/TX*%
%TO.N,unconnected-(U2-GPIO16{slash}D6{slash}TX-Pad7)*%
X130737000Y-106045000D03*
D14*
X131572000Y-106045000D03*
%TO.P,U2,8,GPIO17/D7/RX*%
%TO.N,/CS*%
X146812000Y-106045000D03*
D15*
X147647000Y-106045000D03*
D14*
%TO.P,U2,9,GPIO19/D8/SCK*%
%TO.N,/SCK*%
X146812000Y-108585000D03*
D15*
X147647000Y-108585000D03*
D14*
%TO.P,U2,10,GPIO20/D9/MISO*%
%TO.N,/MISO*%
X146812000Y-111125000D03*
D15*
X147647000Y-111125000D03*
D14*
%TO.P,U2,11,GPIO18/D10/MOSI*%
%TO.N,/MOSI*%
X146812000Y-113665000D03*
D15*
X147647000Y-113665000D03*
D14*
%TO.P,U2,12,3V3*%
%TO.N,VCC*%
X146812000Y-116205000D03*
D15*
X147647000Y-116205000D03*
D14*
%TO.P,U2,13,GND*%
%TO.N,GND*%
X146812000Y-118745000D03*
D15*
X147647000Y-118745000D03*
D14*
%TO.P,U2,14,VBUS*%
%TO.N,VDD*%
X146812000Y-121285000D03*
D15*
X147647000Y-121285000D03*
%TD*%
D16*
%TO.P,D4,1,K*%
%TO.N,/Detect*%
X119479000Y-95377000D03*
%TO.P,D4,2,A*%
%TO.N,Net-(D4-A)*%
X122454000Y-95377000D03*
%TD*%
%TO.P,D3,1,K*%
%TO.N,/Lock*%
X119479000Y-99187000D03*
%TO.P,D3,2,A*%
%TO.N,Net-(D3-A)*%
X122454000Y-99187000D03*
%TD*%
D17*
%TO.P,R3,1*%
%TO.N,Net-(D2-A)*%
X125196000Y-102997000D03*
%TO.P,R3,2*%
%TO.N,VCC*%
X128296000Y-102997000D03*
%TD*%
D16*
%TO.P,D2,1,K*%
%TO.N,/Relay*%
X119479000Y-102997000D03*
%TO.P,D2,2,A*%
%TO.N,Net-(D2-A)*%
X122454000Y-102997000D03*
%TD*%
D18*
%TO.P,Q2,1,C*%
%TO.N,/Lock*%
X116640000Y-107127000D03*
%TO.P,Q2,2,B*%
%TO.N,Net-(Q2-B)*%
X116640000Y-109027000D03*
%TO.P,Q2,3,E*%
%TO.N,GND*%
X114765000Y-108077000D03*
%TD*%
D19*
%TO.P,J1,1,Pin_1*%
%TO.N,+12V*%
X106426000Y-79629000D03*
D20*
%TO.P,J1,2,Pin_2*%
%TO.N,GND*%
X111506000Y-79629000D03*
%TD*%
D21*
%TO.P,C1,1*%
%TO.N,+12V*%
X106102000Y-93599000D03*
%TO.P,C1,2*%
%TO.N,GND*%
X101162000Y-93599000D03*
%TD*%
D22*
%TO.P,R1,1*%
%TO.N,Net-(U2-GPIO2{slash}A2{slash}D2)*%
X124460000Y-113157000D03*
%TO.P,R1,2*%
%TO.N,Net-(Q1-B)*%
X121360000Y-113157000D03*
%TD*%
%TO.P,R2,1*%
%TO.N,Net-(U2-GPIO21{slash}D3)*%
X124486000Y-108331000D03*
%TO.P,R2,2*%
%TO.N,Net-(Q2-B)*%
X121386000Y-108331000D03*
%TD*%
D23*
%TO.P,U1,1,GND*%
%TO.N,GND*%
X109270000Y-98185000D03*
%TO.P,U1,2,VO*%
%TO.N,VDD*%
X109270000Y-95885000D03*
D24*
X115570000Y-95885000D03*
D23*
%TO.P,U1,3,VI*%
%TO.N,+12V*%
X109270000Y-93585000D03*
%TD*%
D17*
%TO.P,R4,1*%
%TO.N,Net-(D3-A)*%
X125196000Y-99187000D03*
%TO.P,R4,2*%
%TO.N,VCC*%
X128296000Y-99187000D03*
%TD*%
D25*
%TO.P,K1,11*%
%TO.N,Net-(J3-Pin_2)*%
X83731500Y-113034500D03*
X83731500Y-105534500D03*
%TO.P,K1,12*%
%TO.N,Net-(J3-Pin_3)*%
X88731500Y-113034500D03*
X88731500Y-105534500D03*
%TO.P,K1,14*%
%TO.N,Net-(J3-Pin_1)*%
X78731500Y-113034500D03*
X78731500Y-105534500D03*
D26*
%TO.P,K1,A1*%
%TO.N,VDD*%
X103731500Y-113034500D03*
D25*
%TO.P,K1,A2*%
%TO.N,/Relay*%
X103731500Y-105534500D03*
%TD*%
D17*
%TO.P,R5,1*%
%TO.N,Net-(D4-A)*%
X125196000Y-95377000D03*
%TO.P,R5,2*%
%TO.N,VCC*%
X128296000Y-95377000D03*
%TD*%
D19*
%TO.P,J2,1,Pin_1*%
%TO.N,VDD*%
X122428000Y-79629000D03*
D20*
%TO.P,J2,2,Pin_2*%
%TO.N,VCC*%
X127508000Y-79629000D03*
%TO.P,J2,3,Pin_3*%
%TO.N,/Lock*%
X132588000Y-79629000D03*
%TO.P,J2,4,Pin_4*%
%TO.N,/Detect*%
X137668000Y-79629000D03*
%TO.P,J2,5,Pin_5*%
%TO.N,GND*%
X142748000Y-79629000D03*
%TO.P,J2,6,Pin_6*%
X147828000Y-79629000D03*
%TD*%
D19*
%TO.P,J3,1,Pin_1*%
%TO.N,Net-(J3-Pin_1)*%
X83566000Y-79629000D03*
D20*
%TO.P,J3,2,Pin_2*%
%TO.N,Net-(J3-Pin_2)*%
X88646000Y-79629000D03*
%TO.P,J3,3,Pin_3*%
%TO.N,Net-(J3-Pin_3)*%
X93726000Y-79629000D03*
%TD*%
D27*
%TO.P,D5,1,K*%
%TO.N,VDD*%
X108204000Y-113064000D03*
%TO.P,D5,2,A*%
%TO.N,/Relay*%
X108204000Y-110964000D03*
%TD*%
D21*
%TO.P,C2,1*%
%TO.N,VDD*%
X106077000Y-97663000D03*
%TO.P,C2,2*%
%TO.N,GND*%
X101137000Y-97663000D03*
%TD*%
D18*
%TO.P,Q1,1,C*%
%TO.N,/Relay*%
X116626000Y-112019000D03*
%TO.P,Q1,2,B*%
%TO.N,Net-(Q1-B)*%
X116626000Y-113919000D03*
%TO.P,Q1,3,E*%
%TO.N,GND*%
X114751000Y-112969000D03*
%TD*%
D28*
%TO.N,VCC*%
X127508000Y-91059000D02*
X128016000Y-91567000D01*
X128296000Y-91847000D02*
X128016000Y-91567000D01*
X128296000Y-95377000D02*
X128296000Y-91847000D01*
X128296000Y-95377000D02*
X128296000Y-102997000D01*
%TO.N,/SCL*%
X132588000Y-108585000D02*
X133350000Y-107823000D01*
X133350000Y-107823000D02*
X133350000Y-94869000D01*
X130737000Y-108585000D02*
X132588000Y-108585000D01*
X130556000Y-92075000D02*
X130556000Y-91567000D01*
X133350000Y-94869000D02*
X130556000Y-92075000D01*
%TO.N,/SDA*%
X134112000Y-92583000D02*
X134112000Y-110109000D01*
X133096000Y-91567000D02*
X134112000Y-92583000D01*
X133096000Y-111125000D02*
X131572000Y-111125000D01*
X134112000Y-110109000D02*
X133096000Y-111125000D01*
%TO.N,/Lock*%
X117348000Y-98425000D02*
X117348000Y-106619000D01*
X117348000Y-99187000D02*
X119479000Y-99187000D01*
X117348000Y-106619000D02*
X116840000Y-107127000D01*
X130048000Y-81915000D02*
X119828900Y-81915000D01*
X119828900Y-81915000D02*
X117348000Y-84395900D01*
X117348000Y-84395900D02*
X117348000Y-98425000D01*
X117348000Y-98425000D02*
X117348000Y-99187000D01*
X132588000Y-79375000D02*
X130048000Y-81915000D01*
%TO.N,Net-(Q1-B)*%
X119126000Y-113157000D02*
X121360000Y-113157000D01*
X118364000Y-113919000D02*
X119126000Y-113157000D01*
X116826000Y-113919000D02*
X118364000Y-113919000D01*
%TO.N,Net-(Q2-B)*%
X116840000Y-109027000D02*
X118684000Y-109027000D01*
X119380000Y-108331000D02*
X121132000Y-108331000D01*
X118684000Y-109027000D02*
X119380000Y-108331000D01*
%TO.N,/Relay*%
X115570000Y-111379000D02*
X116210000Y-112019000D01*
X116826000Y-112127000D02*
X116840000Y-112141000D01*
X115570000Y-110109000D02*
X115570000Y-111379000D01*
X115570000Y-108712000D02*
X115570000Y-109220000D01*
X108204000Y-108712000D02*
X115570000Y-108712000D01*
X119479000Y-107216000D02*
X118618000Y-108077000D01*
X116210000Y-112019000D02*
X116826000Y-112019000D01*
X115570000Y-109220000D02*
X115570000Y-110109000D01*
X107058500Y-105534500D02*
X103731500Y-105534500D01*
X118618000Y-108077000D02*
X116205000Y-108077000D01*
X108204000Y-109220000D02*
X108204000Y-106680000D01*
X108204000Y-109220000D02*
X108204000Y-108712000D01*
X108204000Y-106680000D02*
X107058500Y-105534500D01*
X119479000Y-102997000D02*
X119479000Y-107216000D01*
X116205000Y-108077000D02*
X115570000Y-108712000D01*
X108204000Y-110964000D02*
X108204000Y-109220000D01*
D29*
%TO.N,Net-(J3-Pin_2)*%
X83731500Y-96100500D02*
X83731500Y-105534500D01*
X88646000Y-79629000D02*
X88646000Y-91186000D01*
X88646000Y-91186000D02*
X83731500Y-96100500D01*
X83731500Y-105534500D02*
X83731500Y-113034500D01*
%TO.N,Net-(J3-Pin_1)*%
X78740000Y-105526000D02*
X78731500Y-105534500D01*
X83566000Y-79629000D02*
X83566000Y-89154000D01*
X83566000Y-89154000D02*
X78740000Y-93980000D01*
X78740000Y-93980000D02*
X78740000Y-105526000D01*
X78731500Y-105534500D02*
X78731500Y-113034500D01*
%TO.N,Net-(J3-Pin_3)*%
X88731500Y-105534500D02*
X88731500Y-113034500D01*
X88731500Y-97958500D02*
X88731500Y-105534500D01*
X93726000Y-79967000D02*
X93726000Y-92964000D01*
X93726000Y-92964000D02*
X88731500Y-97958500D01*
D28*
%TO.N,Net-(U2-GPIO2{slash}A2{slash}D2)*%
X130737000Y-116205000D02*
X130737000Y-116132000D01*
X124460000Y-114935000D02*
X124460000Y-113157000D01*
X125730000Y-116205000D02*
X124460000Y-114935000D01*
X130048000Y-116459000D02*
X129794000Y-116205000D01*
X129794000Y-116205000D02*
X125730000Y-116205000D01*
X130737000Y-116205000D02*
X130302000Y-116205000D01*
X130302000Y-116205000D02*
X130048000Y-116459000D01*
%TO.N,Net-(U2-GPIO21{slash}D3)*%
X127762000Y-109093000D02*
X127000000Y-108331000D01*
X128778000Y-113665000D02*
X127762000Y-112649000D01*
X127000000Y-108331000D02*
X124232000Y-108331000D01*
X127762000Y-112649000D02*
X127762000Y-109093000D01*
X130737000Y-113665000D02*
X128778000Y-113665000D01*
%TO.N,+12V*%
X106426000Y-79375000D02*
X106102000Y-79699000D01*
X108516500Y-92831500D02*
X109270000Y-93585000D01*
X106116000Y-93585000D02*
X106102000Y-93599000D01*
X106102000Y-79699000D02*
X106102000Y-93599000D01*
X109270000Y-93585000D02*
X106116000Y-93585000D01*
X107169500Y-94361000D02*
X105871500Y-94361000D01*
%TO.N,Net-(D2-A)*%
X122454000Y-102997000D02*
X125196000Y-102997000D01*
%TO.N,/CS*%
X157988000Y-90551000D02*
X158496000Y-90551000D01*
X157226000Y-91313000D02*
X157988000Y-90551000D01*
X149860000Y-105537000D02*
X149860000Y-95885000D01*
X151638000Y-94107000D02*
X156718000Y-94107000D01*
X157226000Y-93599000D02*
X157226000Y-91313000D01*
X147647000Y-106045000D02*
X149352000Y-106045000D01*
X149352000Y-106045000D02*
X149860000Y-105537000D01*
X156718000Y-94107000D02*
X157226000Y-93599000D01*
X149860000Y-95885000D02*
X151638000Y-94107000D01*
%TO.N,/MOSI*%
X152146000Y-112649000D02*
X151130000Y-113665000D01*
X151130000Y-113665000D02*
X147647000Y-113665000D01*
X158496000Y-95631000D02*
X153162000Y-95631000D01*
X153162000Y-95631000D02*
X152146000Y-96647000D01*
X152146000Y-96647000D02*
X152146000Y-112649000D01*
%TO.N,/SCK*%
X150622000Y-107823000D02*
X149860000Y-108585000D01*
X158496000Y-93091000D02*
X156972000Y-94615000D01*
X149860000Y-108585000D02*
X147647000Y-108585000D01*
X150622000Y-96139000D02*
X150622000Y-107823000D01*
X152146000Y-94615000D02*
X150622000Y-96139000D01*
X156972000Y-94615000D02*
X152146000Y-94615000D01*
%TO.N,/MISO*%
X159647000Y-97020000D02*
X159647000Y-95154240D01*
X150622000Y-111125000D02*
X147647000Y-111125000D01*
X158019240Y-94480000D02*
X157376240Y-95123000D01*
X152654000Y-95123000D02*
X151384000Y-96393000D01*
X158496000Y-98171000D02*
X159647000Y-97020000D01*
X158972760Y-94480000D02*
X158019240Y-94480000D01*
X157376240Y-95123000D02*
X152654000Y-95123000D01*
X151384000Y-110363000D02*
X150622000Y-111125000D01*
X159647000Y-95154240D02*
X158972760Y-94480000D01*
X151384000Y-96393000D02*
X151384000Y-110363000D01*
%TO.N,VDD*%
X107601000Y-96139000D02*
X107696000Y-96139000D01*
X115570000Y-95631000D02*
X116840000Y-94361000D01*
X115570000Y-95885000D02*
X115570000Y-95631000D01*
X102430500Y-101309500D02*
X106077000Y-97663000D01*
X121666000Y-79375000D02*
X122428000Y-79375000D01*
X103761000Y-113064000D02*
X103731500Y-113034500D01*
X108204000Y-113064000D02*
X103761000Y-113064000D01*
X116840000Y-84201000D02*
X121666000Y-79375000D01*
X116840000Y-94361000D02*
X116840000Y-84201000D01*
X107696000Y-96139000D02*
X107950000Y-95885000D01*
X103731500Y-113034500D02*
X102430500Y-111733500D01*
X107950000Y-95885000D02*
X109270000Y-95885000D01*
X102430500Y-111733500D02*
X102430500Y-101309500D01*
X106077000Y-97663000D02*
X107601000Y-96139000D01*
X109270000Y-95885000D02*
X115570000Y-95885000D01*
%TO.N,Net-(D3-A)*%
X122454000Y-99187000D02*
X125196000Y-99187000D01*
%TO.N,Net-(D4-A)*%
X122454000Y-95377000D02*
X125196000Y-95377000D01*
%TO.N,/Detect*%
X117856000Y-84709000D02*
X117856000Y-94615000D01*
X117856000Y-94615000D02*
X118618000Y-95377000D01*
X137668000Y-81661000D02*
X136906000Y-82423000D01*
X137668000Y-79375000D02*
X137668000Y-81661000D01*
X131572000Y-118745000D02*
X130737000Y-118745000D01*
X118618000Y-95377000D02*
X119479000Y-95377000D01*
X136906000Y-82423000D02*
X120142000Y-82423000D01*
X120142000Y-82423000D02*
X117856000Y-84709000D01*
%TD*%
%TA.AperFunction,Conductor*%
%TO.N,GND*%
G36*
X114012540Y-96505185D02*
G01*
X114058295Y-96557989D01*
X114069501Y-96609500D01*
X114069501Y-97343034D01*
X114080113Y-97462415D01*
X114136089Y-97658045D01*
X114136090Y-97658048D01*
X114136091Y-97658049D01*
X114230302Y-97838407D01*
X114261921Y-97877185D01*
X114358890Y-97996109D01*
X114392499Y-98023513D01*
X114516593Y-98124698D01*
X114696951Y-98218909D01*
X114892582Y-98274886D01*
X115011963Y-98285500D01*
X116128036Y-98285499D01*
X116247418Y-98274886D01*
X116443049Y-98218909D01*
X116566090Y-98154637D01*
X116634623Y-98141047D01*
X116699627Y-98166666D01*
X116740460Y-98223361D01*
X116747500Y-98264547D01*
X116747500Y-106202500D01*
X116727815Y-106269539D01*
X116675011Y-106315294D01*
X116623500Y-106326500D01*
X115986798Y-106326500D01*
X115949932Y-106329401D01*
X115949926Y-106329402D01*
X115792106Y-106375254D01*
X115792103Y-106375255D01*
X115650637Y-106458917D01*
X115650629Y-106458923D01*
X115534423Y-106575129D01*
X115534417Y-106575137D01*
X115450755Y-106716603D01*
X115450754Y-106716606D01*
X115404902Y-106874426D01*
X115404901Y-106874432D01*
X115402000Y-106911298D01*
X115402000Y-107153000D01*
X115382315Y-107220039D01*
X115329511Y-107265794D01*
X115278000Y-107277000D01*
X115015000Y-107277000D01*
X115015000Y-107953000D01*
X114995315Y-108020039D01*
X114942511Y-108065794D01*
X114910930Y-108075388D01*
X114699068Y-108109888D01*
X114696783Y-108109602D01*
X114679138Y-108111500D01*
X108928500Y-108111500D01*
X108861461Y-108091815D01*
X108815706Y-108039011D01*
X108804500Y-107987500D01*
X108804500Y-107826998D01*
X113530204Y-107826998D01*
X113530205Y-107827000D01*
X114515000Y-107827000D01*
X114515000Y-107277000D01*
X114111850Y-107277000D01*
X114075010Y-107279899D01*
X114075004Y-107279900D01*
X113917306Y-107325716D01*
X113917303Y-107325717D01*
X113775947Y-107409314D01*
X113775938Y-107409321D01*
X113659821Y-107525438D01*
X113659814Y-107525447D01*
X113576218Y-107666801D01*
X113530399Y-107824513D01*
X113530204Y-107826998D01*
X108804500Y-107826998D01*
X108804500Y-106769060D01*
X108804501Y-106769047D01*
X108804501Y-106600944D01*
X108804501Y-106600943D01*
X108763577Y-106448216D01*
X108721454Y-106375256D01*
X108684524Y-106311290D01*
X108684518Y-106311282D01*
X107546090Y-105172855D01*
X107546088Y-105172852D01*
X107427217Y-105053981D01*
X107427216Y-105053980D01*
X107340404Y-105003860D01*
X107340404Y-105003859D01*
X107340400Y-105003858D01*
X107290285Y-104974923D01*
X107137557Y-104933999D01*
X106979443Y-104933999D01*
X106971847Y-104933999D01*
X106971831Y-104934000D01*
X105185568Y-104934000D01*
X105118529Y-104914315D01*
X105075083Y-104866295D01*
X105067357Y-104851131D01*
X105014843Y-104748067D01*
X104876017Y-104556990D01*
X104709010Y-104389983D01*
X104517933Y-104251157D01*
X104446402Y-104214710D01*
X104307496Y-104143933D01*
X104082868Y-104070946D01*
X103849597Y-104034000D01*
X103849592Y-104034000D01*
X103613408Y-104034000D01*
X103613403Y-104034000D01*
X103380130Y-104070947D01*
X103380127Y-104070947D01*
X103193318Y-104131646D01*
X103123477Y-104133641D01*
X103063644Y-104097561D01*
X103032816Y-104034860D01*
X103031000Y-104013715D01*
X103031000Y-101609596D01*
X103050685Y-101542557D01*
X103067314Y-101521920D01*
X105194417Y-99394816D01*
X105255738Y-99361333D01*
X105282086Y-99358499D01*
X106912008Y-99358499D01*
X107014797Y-99347999D01*
X107181334Y-99292814D01*
X107330656Y-99200712D01*
X107454712Y-99076656D01*
X107546814Y-98927334D01*
X107576579Y-98837507D01*
X107616350Y-98780065D01*
X107680866Y-98753241D01*
X107749642Y-98765556D01*
X107800842Y-98813098D01*
X107814618Y-98846586D01*
X107818828Y-98863515D01*
X107818831Y-98863523D01*
X107903390Y-99034022D01*
X107903392Y-99034025D01*
X108022632Y-99182366D01*
X108022633Y-99182367D01*
X108170974Y-99301607D01*
X108170977Y-99301609D01*
X108341476Y-99386168D01*
X108526175Y-99432102D01*
X108568903Y-99435000D01*
X109020000Y-99435000D01*
X109520000Y-99435000D01*
X109971097Y-99435000D01*
X110013824Y-99432102D01*
X110198523Y-99386168D01*
X110369022Y-99301609D01*
X110369025Y-99301607D01*
X110517366Y-99182367D01*
X110517367Y-99182366D01*
X110636607Y-99034025D01*
X110636609Y-99034022D01*
X110721168Y-98863523D01*
X110767102Y-98678824D01*
X110770000Y-98636096D01*
X110770000Y-98435000D01*
X109520000Y-98435000D01*
X109520000Y-99435000D01*
X109020000Y-99435000D01*
X109020000Y-98309000D01*
X109039685Y-98241961D01*
X109092489Y-98196206D01*
X109144000Y-98185000D01*
X109270000Y-98185000D01*
X109270000Y-98059000D01*
X109289685Y-97991961D01*
X109342489Y-97946206D01*
X109394000Y-97935000D01*
X110770000Y-97935000D01*
X110770000Y-97733903D01*
X110767102Y-97691175D01*
X110721168Y-97506476D01*
X110636609Y-97335977D01*
X110636607Y-97335974D01*
X110517367Y-97187633D01*
X110517366Y-97187632D01*
X110448115Y-97131967D01*
X110408196Y-97074624D01*
X110405616Y-97004802D01*
X110441194Y-96944669D01*
X110448089Y-96938694D01*
X110517722Y-96882722D01*
X110637030Y-96734296D01*
X110721641Y-96563693D01*
X110724628Y-96557671D01*
X110726535Y-96558617D01*
X110762131Y-96510590D01*
X110827478Y-96485860D01*
X110836916Y-96485500D01*
X113945501Y-96485500D01*
X114012540Y-96505185D01*
G37*
%TD.AperFunction*%
%TA.AperFunction,Conductor*%
G36*
X227156539Y-74899185D02*
G01*
X227202294Y-74951989D01*
X227213500Y-75003500D01*
X227213500Y-77986430D01*
X227193815Y-78053469D01*
X227141011Y-78099224D01*
X227071853Y-78109168D01*
X227008297Y-78080143D01*
X226970523Y-78021365D01*
X226967883Y-78010622D01*
X226966007Y-78001192D01*
X226966005Y-78001184D01*
X226966004Y-78001181D01*
X226966003Y-78001175D01*
X226864493Y-77666541D01*
X226730672Y-77343469D01*
X226565828Y-77035068D01*
X226371550Y-76744311D01*
X226149708Y-76473996D01*
X226149707Y-76473995D01*
X226149703Y-76473990D01*
X225902444Y-76226731D01*
X225632129Y-76004889D01*
X225632128Y-76004888D01*
X225632124Y-76004885D01*
X225341367Y-75810607D01*
X225341362Y-75810604D01*
X225341355Y-75810600D01*
X225032973Y-75645766D01*
X225032968Y-75645764D01*
X224709895Y-75511942D01*
X224375250Y-75410429D01*
X224375239Y-75410426D01*
X224032294Y-75342212D01*
X224032277Y-75342209D01*
X223769113Y-75316290D01*
X223684281Y-75307935D01*
X223334589Y-75307935D01*
X223256132Y-75315662D01*
X222986592Y-75342209D01*
X222986575Y-75342212D01*
X222643630Y-75410426D01*
X222643619Y-75410429D01*
X222308974Y-75511942D01*
X221985901Y-75645764D01*
X221985896Y-75645766D01*
X221677514Y-75810600D01*
X221677496Y-75810611D01*
X221386754Y-76004879D01*
X221386740Y-76004889D01*
X221116425Y-76226731D01*
X220869166Y-76473990D01*
X220647324Y-76744305D01*
X220647314Y-76744319D01*
X220453046Y-77035061D01*
X220453035Y-77035079D01*
X220288201Y-77343461D01*
X220288199Y-77343466D01*
X220154377Y-77666539D01*
X220052864Y-78001184D01*
X220052861Y-78001195D01*
X219984647Y-78344140D01*
X219984644Y-78344157D01*
X219964836Y-78545275D01*
X219950370Y-78692154D01*
X219950370Y-78723568D01*
X219950370Y-79041846D01*
X219958473Y-79124112D01*
X219984644Y-79389842D01*
X219984647Y-79389859D01*
X220052861Y-79732804D01*
X220052864Y-79732815D01*
X220154377Y-80067460D01*
X220212938Y-80208837D01*
X220270282Y-80347279D01*
X220288199Y-80390533D01*
X220288201Y-80390538D01*
X220453035Y-80698920D01*
X220453046Y-80698938D01*
X220647314Y-80989680D01*
X220647324Y-80989694D01*
X220869166Y-81260009D01*
X221116425Y-81507268D01*
X221116430Y-81507272D01*
X221116431Y-81507273D01*
X221386746Y-81729115D01*
X221677503Y-81923393D01*
X221677512Y-81923398D01*
X221677514Y-81923399D01*
X221985896Y-82088233D01*
X221985898Y-82088233D01*
X221985904Y-82088237D01*
X222308976Y-82222058D01*
X222643610Y-82323568D01*
X222643616Y-82323569D01*
X222643619Y-82323570D01*
X222643630Y-82323573D01*
X222858686Y-82366349D01*
X222986582Y-82391789D01*
X223334589Y-82426065D01*
X223334592Y-82426065D01*
X223684278Y-82426065D01*
X223684281Y-82426065D01*
X224032288Y-82391789D01*
X224202047Y-82358021D01*
X224375239Y-82323573D01*
X224375250Y-82323570D01*
X224375250Y-82323569D01*
X224375260Y-82323568D01*
X224709894Y-82222058D01*
X225032966Y-82088237D01*
X225341367Y-81923393D01*
X225632124Y-81729115D01*
X225902439Y-81507273D01*
X226149708Y-81260004D01*
X226371550Y-80989689D01*
X226565828Y-80698932D01*
X226730672Y-80390531D01*
X226864493Y-80067459D01*
X226966003Y-79732825D01*
X226967882Y-79723379D01*
X227000267Y-79661467D01*
X227060983Y-79626893D01*
X227130752Y-79630632D01*
X227187424Y-79671498D01*
X227213006Y-79736516D01*
X227213500Y-79747569D01*
X227213500Y-119134430D01*
X227193815Y-119201469D01*
X227141011Y-119247224D01*
X227071853Y-119257168D01*
X227008297Y-119228143D01*
X226970523Y-119169365D01*
X226967883Y-119158622D01*
X226966007Y-119149192D01*
X226966005Y-119149184D01*
X226966004Y-119149181D01*
X226966003Y-119149175D01*
X226864493Y-118814541D01*
X226730672Y-118491469D01*
X226724831Y-118480542D01*
X226565834Y-118183079D01*
X226565833Y-118183077D01*
X226565828Y-118183068D01*
X226371550Y-117892311D01*
X226149708Y-117621996D01*
X226149707Y-117621995D01*
X226149703Y-117621990D01*
X225902444Y-117374731D01*
X225632129Y-117152889D01*
X225632128Y-117152888D01*
X225632124Y-117152885D01*
X225341367Y-116958607D01*
X225341362Y-116958604D01*
X225341355Y-116958600D01*
X225032973Y-116793766D01*
X225032968Y-116793764D01*
X224709895Y-116659942D01*
X224375250Y-116558429D01*
X224375239Y-116558426D01*
X224032294Y-116490212D01*
X224032277Y-116490209D01*
X223769113Y-116464290D01*
X223684281Y-116455935D01*
X223334589Y-116455935D01*
X223256132Y-116463662D01*
X222986592Y-116490209D01*
X222986575Y-116490212D01*
X222643630Y-116558426D01*
X222643619Y-116558429D01*
X222308974Y-116659942D01*
X221985901Y-116793764D01*
X221985896Y-116793766D01*
X221677514Y-116958600D01*
X221677496Y-116958611D01*
X221386754Y-117152879D01*
X221386740Y-117152889D01*
X221116425Y-117374731D01*
X220869166Y-117621990D01*
X220647324Y-117892305D01*
X220647314Y-117892319D01*
X220453046Y-118183061D01*
X220453035Y-118183079D01*
X220288201Y-118491461D01*
X220288199Y-118491466D01*
X220154377Y-118814539D01*
X220052864Y-119149184D01*
X220052861Y-119149195D01*
X219984647Y-119492140D01*
X219984644Y-119492157D01*
X219950370Y-119840157D01*
X219950370Y-120189842D01*
X219984644Y-120537842D01*
X219984647Y-120537859D01*
X220052861Y-120880804D01*
X220052864Y-120880815D01*
X220154377Y-121215460D01*
X220249003Y-121443907D01*
X220270282Y-121495279D01*
X220288199Y-121538533D01*
X220288201Y-121538538D01*
X220453035Y-121846920D01*
X220453046Y-121846938D01*
X220647314Y-122137680D01*
X220647324Y-122137694D01*
X220869166Y-122408009D01*
X221116425Y-122655268D01*
X221116430Y-122655272D01*
X221116431Y-122655273D01*
X221386746Y-122877115D01*
X221677503Y-123071393D01*
X221677512Y-123071398D01*
X221677514Y-123071399D01*
X221985896Y-123236233D01*
X221985898Y-123236233D01*
X221985904Y-123236237D01*
X222308976Y-123370058D01*
X222643610Y-123471568D01*
X222643616Y-123471569D01*
X222643619Y-123471570D01*
X222643630Y-123471573D01*
X222858686Y-123514349D01*
X222986582Y-123539789D01*
X223334589Y-123574065D01*
X223334592Y-123574065D01*
X223684278Y-123574065D01*
X223684281Y-123574065D01*
X224032288Y-123539789D01*
X224202047Y-123506021D01*
X224375239Y-123471573D01*
X224375250Y-123471570D01*
X224375250Y-123471569D01*
X224375260Y-123471568D01*
X224709894Y-123370058D01*
X225032966Y-123236237D01*
X225341367Y-123071393D01*
X225632124Y-122877115D01*
X225902439Y-122655273D01*
X226149708Y-122408004D01*
X226371550Y-122137689D01*
X226565828Y-121846932D01*
X226730672Y-121538531D01*
X226864493Y-121215459D01*
X226966003Y-120880825D01*
X226967882Y-120871379D01*
X227000267Y-120809467D01*
X227060983Y-120774893D01*
X227130752Y-120778632D01*
X227187424Y-120819498D01*
X227213006Y-120884516D01*
X227213500Y-120895569D01*
X227213500Y-123754500D01*
X227193815Y-123821539D01*
X227141011Y-123867294D01*
X227089500Y-123878500D01*
X99438000Y-123878500D01*
X99370961Y-123858815D01*
X99325206Y-123806011D01*
X99314000Y-123754500D01*
X99314000Y-111812554D01*
X101829998Y-111812554D01*
X101870923Y-111965285D01*
X101883245Y-111986627D01*
X101949977Y-112102212D01*
X101949981Y-112102217D01*
X102068849Y-112221085D01*
X102068855Y-112221090D01*
X102194681Y-112346916D01*
X102228166Y-112408239D01*
X102231000Y-112434597D01*
X102231000Y-114082370D01*
X102231001Y-114082376D01*
X102237408Y-114141983D01*
X102287702Y-114276828D01*
X102287706Y-114276835D01*
X102373952Y-114392044D01*
X102373955Y-114392047D01*
X102489164Y-114478293D01*
X102489171Y-114478297D01*
X102624017Y-114528591D01*
X102624016Y-114528591D01*
X102630944Y-114529335D01*
X102683627Y-114535000D01*
X104779372Y-114534999D01*
X104838983Y-114528591D01*
X104973831Y-114478296D01*
X105089046Y-114392046D01*
X105175296Y-114276831D01*
X105225591Y-114141983D01*
X105232000Y-114082373D01*
X105232000Y-113788500D01*
X105251685Y-113721461D01*
X105304489Y-113675706D01*
X105356000Y-113664500D01*
X107586225Y-113664500D01*
X107653264Y-113684185D01*
X107673907Y-113700820D01*
X107712796Y-113739710D01*
X107712800Y-113739713D01*
X107712802Y-113739715D01*
X107846113Y-113818555D01*
X107994844Y-113861765D01*
X108029595Y-113864500D01*
X108378404Y-113864499D01*
X108413156Y-113861765D01*
X108561887Y-113818555D01*
X108695198Y-113739715D01*
X108804715Y-113630198D01*
X108883555Y-113496887D01*
X108926765Y-113348156D01*
X108929500Y-113313405D01*
X108929500Y-113219001D01*
X113516204Y-113219001D01*
X113516399Y-113221486D01*
X113562218Y-113379198D01*
X113645814Y-113520552D01*
X113645821Y-113520561D01*
X113761938Y-113636678D01*
X113761947Y-113636685D01*
X113903303Y-113720282D01*
X113903306Y-113720283D01*
X114061004Y-113766099D01*
X114061010Y-113766100D01*
X114097850Y-113768999D01*
X114097866Y-113769000D01*
X114501000Y-113769000D01*
X114501000Y-113219000D01*
X115001000Y-113219000D01*
X115001000Y-113769000D01*
X115264000Y-113769000D01*
X115331039Y-113788685D01*
X115376794Y-113841489D01*
X115388000Y-113893000D01*
X115388000Y-114134701D01*
X115390901Y-114171567D01*
X115390902Y-114171569D01*
X115436754Y-114329393D01*
X115436755Y-114329396D01*
X115520417Y-114470862D01*
X115520423Y-114470870D01*
X115636629Y-114587076D01*
X115636633Y-114587079D01*
X115636635Y-114587081D01*
X115778102Y-114670744D01*
X115802881Y-114677943D01*
X115935926Y-114716597D01*
X115935929Y-114716597D01*
X115935931Y-114716598D01*
X115972806Y-114719500D01*
X115972814Y-114719500D01*
X117279186Y-114719500D01*
X117279194Y-114719500D01*
X117316069Y-114716598D01*
X117316071Y-114716597D01*
X117316073Y-114716597D01*
X117402473Y-114691495D01*
X117473898Y-114670744D01*
X117615365Y-114587081D01*
X117646626Y-114555820D01*
X117707948Y-114522334D01*
X117734308Y-114519500D01*
X118277331Y-114519500D01*
X118277347Y-114519501D01*
X118284943Y-114519501D01*
X118443054Y-114519501D01*
X118443057Y-114519501D01*
X118595785Y-114478577D01*
X118645904Y-114449639D01*
X118732716Y-114399520D01*
X118844520Y-114287716D01*
X118844521Y-114287713D01*
X119338418Y-113793816D01*
X119399740Y-113760334D01*
X119426098Y-113757500D01*
X120089911Y-113757500D01*
X120156950Y-113777185D01*
X120202705Y-113829989D01*
X120213269Y-113868898D01*
X120220001Y-113934797D01*
X120220001Y-113934799D01*
X120268900Y-114082364D01*
X120275186Y-114101334D01*
X120367288Y-114250656D01*
X120491344Y-114374712D01*
X120640666Y-114466814D01*
X120807203Y-114521999D01*
X120909991Y-114532500D01*
X121810008Y-114532499D01*
X121810016Y-114532498D01*
X121810019Y-114532498D01*
X121866302Y-114526748D01*
X121912797Y-114521999D01*
X122079334Y-114466814D01*
X122228656Y-114374712D01*
X122352712Y-114250656D01*
X122444814Y-114101334D01*
X122499999Y-113934797D01*
X122510500Y-113832009D01*
X122510499Y-112481992D01*
X122510498Y-112481983D01*
X123309500Y-112481983D01*
X123309500Y-113832001D01*
X123309501Y-113832018D01*
X123320000Y-113934796D01*
X123320001Y-113934799D01*
X123368900Y-114082364D01*
X123375186Y-114101334D01*
X123467288Y-114250656D01*
X123591344Y-114374712D01*
X123740666Y-114466814D01*
X123774500Y-114478025D01*
X123831947Y-114517796D01*
X123858772Y-114582311D01*
X123859500Y-114595732D01*
X123859500Y-114848330D01*
X123859499Y-114848348D01*
X123859499Y-115014054D01*
X123859498Y-115014054D01*
X123859499Y-115014057D01*
X123900423Y-115166785D01*
X123900424Y-115166787D01*
X123900423Y-115166787D01*
X123915012Y-115192054D01*
X123915014Y-115192056D01*
X123979479Y-115303714D01*
X123979481Y-115303717D01*
X124098349Y-115422585D01*
X124098355Y-115422590D01*
X125245139Y-116569374D01*
X125245149Y-116569385D01*
X125249479Y-116573715D01*
X125249480Y-116573716D01*
X125361284Y-116685520D01*
X125448095Y-116735639D01*
X125448097Y-116735641D01*
X125498213Y-116764576D01*
X125498215Y-116764577D01*
X125650942Y-116805500D01*
X125650943Y-116805500D01*
X128899970Y-116805500D01*
X128967009Y-116825185D01*
X129012764Y-116877989D01*
X129021435Y-116911465D01*
X129022274Y-116911312D01*
X129023413Y-116917552D01*
X129069434Y-117075954D01*
X129069435Y-117075957D01*
X129153405Y-117217943D01*
X129153412Y-117217952D01*
X129270047Y-117334587D01*
X129270050Y-117334589D01*
X129270053Y-117334592D01*
X129326996Y-117368268D01*
X129374679Y-117419338D01*
X129387182Y-117488079D01*
X129360536Y-117552669D01*
X129326996Y-117581731D01*
X129270053Y-117615408D01*
X129270047Y-117615412D01*
X129153412Y-117732047D01*
X129153405Y-117732056D01*
X129069435Y-117874042D01*
X129069434Y-117874045D01*
X129023413Y-118032447D01*
X129023412Y-118032453D01*
X129020500Y-118069458D01*
X129020500Y-119420541D01*
X129023412Y-119457546D01*
X129023413Y-119457552D01*
X129069434Y-119615954D01*
X129069435Y-119615957D01*
X129153405Y-119757943D01*
X129153412Y-119757952D01*
X129270047Y-119874587D01*
X129270050Y-119874589D01*
X129270053Y-119874592D01*
X129326502Y-119907976D01*
X129326996Y-119908268D01*
X129374679Y-119959338D01*
X129387182Y-120028079D01*
X129360536Y-120092669D01*
X129326996Y-120121732D01*
X129270053Y-120155408D01*
X129270047Y-120155412D01*
X129153412Y-120272047D01*
X129153405Y-120272056D01*
X129069435Y-120414042D01*
X129069434Y-120414045D01*
X129023413Y-120572447D01*
X129023412Y-120572453D01*
X129020500Y-120609458D01*
X129020500Y-121960541D01*
X129023412Y-121997546D01*
X129023413Y-121997552D01*
X129069434Y-122155954D01*
X129069435Y-122155957D01*
X129153405Y-122297943D01*
X129153412Y-122297952D01*
X129270047Y-122414587D01*
X129270051Y-122414590D01*
X129270053Y-122414592D01*
X129412041Y-122498564D01*
X129453816Y-122510701D01*
X129570447Y-122544586D01*
X129570450Y-122544586D01*
X129570452Y-122544587D01*
X129607466Y-122547500D01*
X129607474Y-122547500D01*
X131866526Y-122547500D01*
X131866534Y-122547500D01*
X131903548Y-122544587D01*
X131903550Y-122544586D01*
X131903552Y-122544586D01*
X131945323Y-122532449D01*
X132061959Y-122498564D01*
X132203947Y-122414592D01*
X132300148Y-122318389D01*
X132314939Y-122305758D01*
X132394464Y-122247981D01*
X132534981Y-122107464D01*
X132651787Y-121946694D01*
X132742005Y-121769632D01*
X132803413Y-121580636D01*
X132834500Y-121384361D01*
X132834500Y-121185639D01*
X132803413Y-120989364D01*
X132748221Y-120819498D01*
X132742006Y-120800370D01*
X132742005Y-120800367D01*
X132651786Y-120623305D01*
X132534981Y-120462536D01*
X132394464Y-120322019D01*
X132314937Y-120264239D01*
X132308175Y-120258960D01*
X132304000Y-120255461D01*
X132203947Y-120155408D01*
X132138259Y-120116560D01*
X132130477Y-120110038D01*
X132116510Y-120089073D01*
X132099321Y-120070663D01*
X132097471Y-120060492D01*
X132091740Y-120051890D01*
X132091324Y-120026702D01*
X132086817Y-120001921D01*
X132090758Y-119992366D01*
X132090588Y-119982030D01*
X132103856Y-119960616D01*
X132113462Y-119937332D01*
X132123874Y-119928309D01*
X132127389Y-119922638D01*
X132134127Y-119919425D01*
X132147004Y-119908268D01*
X132147498Y-119907976D01*
X132203947Y-119874592D01*
X132300148Y-119778389D01*
X132314939Y-119765758D01*
X132394464Y-119707981D01*
X132534981Y-119567464D01*
X132651787Y-119406694D01*
X132742005Y-119229632D01*
X132803413Y-119040636D01*
X132834500Y-118844361D01*
X132834500Y-118645639D01*
X132803413Y-118449364D01*
X132742005Y-118260368D01*
X132742005Y-118260367D01*
X132651786Y-118083305D01*
X132641762Y-118069508D01*
X132534981Y-117922536D01*
X132394464Y-117782019D01*
X132386347Y-117776122D01*
X132314938Y-117724240D01*
X132308175Y-117718960D01*
X132304000Y-117715461D01*
X132203947Y-117615408D01*
X132138259Y-117576560D01*
X132130477Y-117570038D01*
X132116510Y-117549073D01*
X132099321Y-117530663D01*
X132097471Y-117520492D01*
X132091740Y-117511890D01*
X132091324Y-117486702D01*
X132086817Y-117461921D01*
X132090758Y-117452366D01*
X132090588Y-117442030D01*
X132103856Y-117420616D01*
X132113462Y-117397332D01*
X132123874Y-117388309D01*
X132127389Y-117382638D01*
X132134127Y-117379425D01*
X132147004Y-117368268D01*
X132203947Y-117334592D01*
X132300148Y-117238389D01*
X132314939Y-117225758D01*
X132394464Y-117167981D01*
X132534981Y-117027464D01*
X132651787Y-116866694D01*
X132742005Y-116689632D01*
X132803413Y-116500636D01*
X132834500Y-116304361D01*
X132834500Y-116105639D01*
X132803413Y-115909364D01*
X132742005Y-115720368D01*
X132742005Y-115720367D01*
X132672937Y-115584815D01*
X132651787Y-115543306D01*
X132534981Y-115382536D01*
X132394464Y-115242019D01*
X132314937Y-115184239D01*
X132308175Y-115178960D01*
X132304000Y-115175461D01*
X132203947Y-115075408D01*
X132138259Y-115036560D01*
X132130477Y-115030038D01*
X132116510Y-115009073D01*
X132099321Y-114990663D01*
X132097471Y-114980492D01*
X132091740Y-114971890D01*
X132091324Y-114946702D01*
X132086817Y-114921921D01*
X132090758Y-114912366D01*
X132090588Y-114902030D01*
X132103856Y-114880616D01*
X132113462Y-114857332D01*
X132123874Y-114848309D01*
X132127389Y-114842638D01*
X132134127Y-114839425D01*
X132147004Y-114828268D01*
X132203947Y-114794592D01*
X132300148Y-114698389D01*
X132314939Y-114685758D01*
X132394464Y-114627981D01*
X132534981Y-114487464D01*
X132651787Y-114326694D01*
X132742005Y-114149632D01*
X132803413Y-113960636D01*
X132834500Y-113764361D01*
X132834500Y-113565639D01*
X132803413Y-113369364D01*
X132742005Y-113180368D01*
X132742005Y-113180367D01*
X132672937Y-113044815D01*
X132651787Y-113003306D01*
X132534981Y-112842536D01*
X132394464Y-112702019D01*
X132314937Y-112644239D01*
X132308175Y-112638960D01*
X132304000Y-112635461D01*
X132203947Y-112535408D01*
X132138259Y-112496560D01*
X132130477Y-112490038D01*
X132116510Y-112469073D01*
X132099321Y-112450663D01*
X132097471Y-112440492D01*
X132091740Y-112431890D01*
X132091324Y-112406702D01*
X132086817Y-112381921D01*
X132090758Y-112372366D01*
X132090588Y-112362030D01*
X132103856Y-112340616D01*
X132113462Y-112317332D01*
X132123874Y-112308309D01*
X132127389Y-112302638D01*
X132134127Y-112299425D01*
X132147004Y-112288268D01*
X132203947Y-112254592D01*
X132300148Y-112158389D01*
X132314939Y-112145758D01*
X132394464Y-112087981D01*
X132534981Y-111947464D01*
X132651787Y-111786694D01*
X132651789Y-111786689D01*
X132653000Y-111784715D01*
X132653656Y-111784121D01*
X132654651Y-111782752D01*
X132654938Y-111782960D01*
X132704810Y-111737837D01*
X132758730Y-111725500D01*
X133009331Y-111725500D01*
X133009347Y-111725501D01*
X133016943Y-111725501D01*
X133175054Y-111725501D01*
X133175057Y-111725501D01*
X133327785Y-111684577D01*
X133387182Y-111650284D01*
X133464716Y-111605520D01*
X133576520Y-111493716D01*
X133576520Y-111493714D01*
X133586724Y-111483511D01*
X133586728Y-111483506D01*
X134480713Y-110589521D01*
X134480716Y-110589520D01*
X134592520Y-110477716D01*
X134642639Y-110390904D01*
X134671577Y-110340785D01*
X134712501Y-110188057D01*
X134712501Y-110029943D01*
X134712501Y-110022348D01*
X134712500Y-110022330D01*
X134712500Y-105945639D01*
X145549500Y-105945639D01*
X145549500Y-106144361D01*
X145551135Y-106154685D01*
X145580587Y-106340637D01*
X145641993Y-106529629D01*
X145641994Y-106529632D01*
X145708165Y-106659497D01*
X145732213Y-106706694D01*
X145849019Y-106867464D01*
X145849021Y-106867466D01*
X145989539Y-107007984D01*
X146069060Y-107065758D01*
X146075824Y-107071039D01*
X146079998Y-107074537D01*
X146180053Y-107174592D01*
X146245737Y-107213437D01*
X146253522Y-107219962D01*
X146267488Y-107240926D01*
X146284679Y-107259338D01*
X146286528Y-107269506D01*
X146292260Y-107278110D01*
X146292674Y-107303297D01*
X146297182Y-107328079D01*
X146293239Y-107337634D01*
X146293410Y-107347970D01*
X146280143Y-107369381D01*
X146270536Y-107392669D01*
X146260122Y-107401692D01*
X146256609Y-107407363D01*
X146249871Y-107410575D01*
X146236996Y-107421731D01*
X146205800Y-107440181D01*
X146180053Y-107455408D01*
X146180046Y-107455413D01*
X146083854Y-107551604D01*
X146069061Y-107564239D01*
X145989536Y-107622018D01*
X145849021Y-107762533D01*
X145732213Y-107923305D01*
X145641994Y-108100367D01*
X145641993Y-108100370D01*
X145580587Y-108289362D01*
X145549500Y-108485639D01*
X145549500Y-108684360D01*
X145580587Y-108880637D01*
X145641993Y-109069629D01*
X145641994Y-109069632D01*
X145713917Y-109210786D01*
X145732213Y-109246694D01*
X145849019Y-109407464D01*
X145849021Y-109407466D01*
X145989539Y-109547984D01*
X146069060Y-109605758D01*
X146075824Y-109611039D01*
X146079998Y-109614537D01*
X146180053Y-109714592D01*
X146245737Y-109753437D01*
X146253522Y-109759962D01*
X146267488Y-109780926D01*
X146284679Y-109799338D01*
X146286528Y-109809506D01*
X146292260Y-109818110D01*
X146292674Y-109843297D01*
X146297182Y-109868079D01*
X146293239Y-109877634D01*
X146293410Y-109887970D01*
X146280143Y-109909381D01*
X146270536Y-109932669D01*
X146260122Y-109941692D01*
X146256609Y-109947363D01*
X146249871Y-109950575D01*
X146236996Y-109961732D01*
X146180053Y-109995408D01*
X146180046Y-109995413D01*
X146083854Y-110091604D01*
X146069061Y-110104239D01*
X145989536Y-110162018D01*
X145849021Y-110302533D01*
X145732213Y-110463305D01*
X145641994Y-110640367D01*
X145641993Y-110640370D01*
X145580587Y-110829362D01*
X145549500Y-111025639D01*
X145549500Y-111224360D01*
X145580587Y-111420637D01*
X145641993Y-111609629D01*
X145641994Y-111609632D01*
X145729567Y-111781501D01*
X145732213Y-111786694D01*
X145849019Y-111947464D01*
X145849021Y-111947466D01*
X145989539Y-112087984D01*
X146009130Y-112102217D01*
X146067007Y-112144267D01*
X146069060Y-112145758D01*
X146075824Y-112151039D01*
X146079998Y-112154537D01*
X146180053Y-112254592D01*
X146245737Y-112293437D01*
X146253522Y-112299962D01*
X146267488Y-112320926D01*
X146284679Y-112339338D01*
X146286528Y-112349506D01*
X146292260Y-112358110D01*
X146292674Y-112383297D01*
X146297182Y-112408079D01*
X146293239Y-112417634D01*
X146293410Y-112427970D01*
X146280143Y-112449381D01*
X146270536Y-112472669D01*
X146260122Y-112481692D01*
X146256609Y-112487363D01*
X146249871Y-112490575D01*
X146236996Y-112501732D01*
X146180053Y-112535408D01*
X146180046Y-112535413D01*
X146083854Y-112631604D01*
X146069061Y-112644239D01*
X145989536Y-112702018D01*
X145849021Y-112842533D01*
X145732213Y-113003305D01*
X145641994Y-113180367D01*
X145641993Y-113180370D01*
X145580587Y-113369362D01*
X145580587Y-113369364D01*
X145549500Y-113565639D01*
X145549500Y-113764361D01*
X145560213Y-113832001D01*
X145580587Y-113960637D01*
X145641993Y-114149629D01*
X145641994Y-114149632D01*
X145725993Y-114314486D01*
X145732213Y-114326694D01*
X145849019Y-114487464D01*
X145849021Y-114487466D01*
X145989539Y-114627984D01*
X146069060Y-114685758D01*
X146075824Y-114691039D01*
X146079998Y-114694537D01*
X146180053Y-114794592D01*
X146245737Y-114833437D01*
X146253522Y-114839962D01*
X146267488Y-114860926D01*
X146284679Y-114879338D01*
X146286528Y-114889506D01*
X146292260Y-114898110D01*
X146292674Y-114923297D01*
X146297182Y-114948079D01*
X146293239Y-114957634D01*
X146293410Y-114967970D01*
X146280143Y-114989381D01*
X146270536Y-115012669D01*
X146260122Y-115021692D01*
X146256609Y-115027363D01*
X146249871Y-115030575D01*
X146236996Y-115041732D01*
X146180053Y-115075408D01*
X146180046Y-115075413D01*
X146083854Y-115171604D01*
X146069061Y-115184239D01*
X145989536Y-115242018D01*
X145849021Y-115382533D01*
X145732213Y-115543305D01*
X145641994Y-115720367D01*
X145641993Y-115720370D01*
X145580587Y-115909362D01*
X145549500Y-116105639D01*
X145549500Y-116304360D01*
X145580587Y-116500637D01*
X145641993Y-116689629D01*
X145641994Y-116689632D01*
X145695053Y-116793764D01*
X145732213Y-116866694D01*
X145849019Y-117027464D01*
X145849021Y-117027466D01*
X145989539Y-117167984D01*
X146069060Y-117225758D01*
X146075786Y-117231007D01*
X146079979Y-117234518D01*
X146180053Y-117334592D01*
X146246208Y-117373716D01*
X146253975Y-117380220D01*
X146267962Y-117401197D01*
X146285170Y-117419627D01*
X146287015Y-117429773D01*
X146292736Y-117438353D01*
X146293161Y-117463564D01*
X146297673Y-117488369D01*
X146293740Y-117497900D01*
X146293915Y-117508212D01*
X146280643Y-117529649D01*
X146271028Y-117552958D01*
X146260643Y-117561956D01*
X146257137Y-117567620D01*
X146250391Y-117570838D01*
X146237487Y-117582021D01*
X146180370Y-117615800D01*
X146180357Y-117615810D01*
X146108360Y-117687806D01*
X146108360Y-117687807D01*
X146727905Y-118307352D01*
X146640429Y-118330792D01*
X146539070Y-118389311D01*
X146456311Y-118472070D01*
X146397792Y-118573429D01*
X146374352Y-118660905D01*
X145759730Y-118046282D01*
X145759729Y-118046283D01*
X145732643Y-118083564D01*
X145642457Y-118260562D01*
X145581075Y-118449476D01*
X145581075Y-118449479D01*
X145550000Y-118645678D01*
X145550000Y-118844321D01*
X145581075Y-119040520D01*
X145581075Y-119040523D01*
X145642457Y-119229437D01*
X145732641Y-119406432D01*
X145759730Y-119443715D01*
X145759731Y-119443716D01*
X146374352Y-118829094D01*
X146397792Y-118916571D01*
X146456311Y-119017930D01*
X146539070Y-119100689D01*
X146640429Y-119159208D01*
X146727904Y-119182647D01*
X146108360Y-119802191D01*
X146180360Y-119874192D01*
X146180364Y-119874195D01*
X146237486Y-119907977D01*
X146285169Y-119959046D01*
X146297673Y-120027788D01*
X146271028Y-120092377D01*
X146253975Y-120109779D01*
X146246204Y-120116285D01*
X146180053Y-120155408D01*
X146079990Y-120255469D01*
X146075784Y-120258992D01*
X146074598Y-120259509D01*
X146069061Y-120264239D01*
X145989536Y-120322018D01*
X145849021Y-120462533D01*
X145732213Y-120623305D01*
X145641994Y-120800367D01*
X145641993Y-120800370D01*
X145580587Y-120989362D01*
X145549500Y-121185639D01*
X145549500Y-121384360D01*
X145580587Y-121580637D01*
X145641993Y-121769629D01*
X145641994Y-121769632D01*
X145719835Y-121922401D01*
X145732213Y-121946694D01*
X145849019Y-122107464D01*
X145849021Y-122107466D01*
X145989539Y-122247984D01*
X146069060Y-122305758D01*
X146083851Y-122318390D01*
X146180053Y-122414592D01*
X146322041Y-122498564D01*
X146363816Y-122510701D01*
X146480447Y-122544586D01*
X146480450Y-122544586D01*
X146480452Y-122544587D01*
X146517466Y-122547500D01*
X146517474Y-122547500D01*
X148776526Y-122547500D01*
X148776534Y-122547500D01*
X148813548Y-122544587D01*
X148813550Y-122544586D01*
X148813552Y-122544586D01*
X148855323Y-122532449D01*
X148971959Y-122498564D01*
X149113947Y-122414592D01*
X149230592Y-122297947D01*
X149314564Y-122155959D01*
X149360587Y-121997548D01*
X149363500Y-121960534D01*
X149363500Y-120609466D01*
X149360587Y-120572452D01*
X149314564Y-120414041D01*
X149230592Y-120272053D01*
X149230590Y-120272051D01*
X149230587Y-120272047D01*
X149113952Y-120155412D01*
X149113949Y-120155410D01*
X149113947Y-120155408D01*
X149056511Y-120121440D01*
X149008829Y-120070371D01*
X148996326Y-120001630D01*
X149022972Y-119937040D01*
X149056514Y-119907976D01*
X149113637Y-119874193D01*
X149113643Y-119874189D01*
X149230189Y-119757643D01*
X149230196Y-119757634D01*
X149314102Y-119615756D01*
X149314103Y-119615753D01*
X149360088Y-119457473D01*
X149360089Y-119457467D01*
X149362999Y-119420488D01*
X149362999Y-118069530D01*
X149362998Y-118069508D01*
X149360089Y-118032533D01*
X149314102Y-117874242D01*
X149230196Y-117732365D01*
X149230189Y-117732356D01*
X149113643Y-117615810D01*
X149113634Y-117615803D01*
X149056513Y-117582022D01*
X149008829Y-117530953D01*
X148996326Y-117462211D01*
X149022972Y-117397622D01*
X149056514Y-117368558D01*
X149113941Y-117334596D01*
X149113942Y-117334594D01*
X149113947Y-117334592D01*
X149230592Y-117217947D01*
X149314564Y-117075959D01*
X149360587Y-116917548D01*
X149363500Y-116880534D01*
X149363500Y-115529466D01*
X149360587Y-115492452D01*
X149314564Y-115334041D01*
X149230592Y-115192053D01*
X149230590Y-115192051D01*
X149230587Y-115192047D01*
X149113952Y-115075412D01*
X149113944Y-115075406D01*
X149057004Y-115041732D01*
X149009321Y-114990663D01*
X148996817Y-114921921D01*
X149023462Y-114857332D01*
X149057004Y-114828268D01*
X149113947Y-114794592D01*
X149230592Y-114677947D01*
X149314564Y-114535959D01*
X149348449Y-114419323D01*
X149360586Y-114377552D01*
X149361726Y-114371312D01*
X149363512Y-114371638D01*
X149385294Y-114314486D01*
X149441524Y-114273013D01*
X149484030Y-114265500D01*
X151043331Y-114265500D01*
X151043347Y-114265501D01*
X151050943Y-114265501D01*
X151209054Y-114265501D01*
X151209057Y-114265501D01*
X151361785Y-114224577D01*
X151453597Y-114171569D01*
X151498716Y-114145520D01*
X151610520Y-114033716D01*
X151610520Y-114033714D01*
X151620724Y-114023511D01*
X151620728Y-114023506D01*
X152504506Y-113139728D01*
X152504511Y-113139724D01*
X152514714Y-113129520D01*
X152514716Y-113129520D01*
X152626520Y-113017716D01*
X152679925Y-112925215D01*
X152705577Y-112880785D01*
X152746501Y-112728057D01*
X152746501Y-112569943D01*
X152746501Y-112562348D01*
X152746500Y-112562330D01*
X152746500Y-96947097D01*
X152766185Y-96880058D01*
X152782819Y-96859416D01*
X153374416Y-96267819D01*
X153435739Y-96234334D01*
X153462097Y-96231500D01*
X157210281Y-96231500D01*
X157277320Y-96251185D01*
X157320765Y-96299205D01*
X157340947Y-96338814D01*
X157340948Y-96338815D01*
X157465890Y-96510786D01*
X157616213Y-96661109D01*
X157788182Y-96786050D01*
X157796946Y-96790516D01*
X157847742Y-96838491D01*
X157864536Y-96906312D01*
X157841998Y-96972447D01*
X157796946Y-97011484D01*
X157788182Y-97015949D01*
X157616213Y-97140890D01*
X157465890Y-97291213D01*
X157340951Y-97463179D01*
X157244444Y-97652585D01*
X157178753Y-97854760D01*
X157145500Y-98064713D01*
X157145500Y-98277286D01*
X157166393Y-98409203D01*
X157178754Y-98487243D01*
X157234239Y-98658009D01*
X157244444Y-98689414D01*
X157340951Y-98878820D01*
X157465890Y-99050786D01*
X157616213Y-99201109D01*
X157788182Y-99326050D01*
X157796946Y-99330516D01*
X157847742Y-99378491D01*
X157864536Y-99446312D01*
X157841998Y-99512447D01*
X157796946Y-99551484D01*
X157788182Y-99555949D01*
X157616213Y-99680890D01*
X157465890Y-99831213D01*
X157340951Y-100003179D01*
X157244444Y-100192585D01*
X157178753Y-100394760D01*
X157162589Y-100496815D01*
X157145500Y-100604713D01*
X157145500Y-100817287D01*
X157178754Y-101027243D01*
X157195153Y-101077715D01*
X157244444Y-101229414D01*
X157340951Y-101418820D01*
X157465890Y-101590786D01*
X157616213Y-101741109D01*
X157788179Y-101866048D01*
X157788181Y-101866049D01*
X157788184Y-101866051D01*
X157797493Y-101870794D01*
X157848290Y-101918766D01*
X157865087Y-101986587D01*
X157842552Y-102052722D01*
X157797505Y-102091760D01*
X157788446Y-102096376D01*
X157788440Y-102096380D01*
X157734282Y-102135727D01*
X157734282Y-102135728D01*
X158366591Y-102768037D01*
X158303007Y-102785075D01*
X158188993Y-102850901D01*
X158095901Y-102943993D01*
X158030075Y-103058007D01*
X158013037Y-103121591D01*
X157380728Y-102489282D01*
X157380727Y-102489282D01*
X157341380Y-102543439D01*
X157244904Y-102732782D01*
X157179242Y-102934869D01*
X157179242Y-102934872D01*
X157146000Y-103144753D01*
X157146000Y-103357246D01*
X157179242Y-103567127D01*
X157179242Y-103567130D01*
X157244904Y-103769217D01*
X157341375Y-103958550D01*
X157380728Y-104012716D01*
X158013036Y-103380407D01*
X158030075Y-103443993D01*
X158095901Y-103558007D01*
X158188993Y-103651099D01*
X158303007Y-103716925D01*
X158366590Y-103733962D01*
X157734282Y-104366269D01*
X157734282Y-104366270D01*
X157788452Y-104405626D01*
X157788451Y-104405626D01*
X157797495Y-104410234D01*
X157848292Y-104458208D01*
X157865087Y-104526029D01*
X157842550Y-104592164D01*
X157797499Y-104631202D01*
X157788182Y-104635949D01*
X157616213Y-104760890D01*
X157465890Y-104911213D01*
X157340951Y-105083179D01*
X157244444Y-105272585D01*
X157178753Y-105474760D01*
X157165194Y-105560368D01*
X157145500Y-105684713D01*
X157145500Y-105897287D01*
X157178754Y-106107243D01*
X157231487Y-106269539D01*
X157244444Y-106309414D01*
X157340951Y-106498820D01*
X157465890Y-106670786D01*
X157616213Y-106821109D01*
X157788182Y-106946050D01*
X157796946Y-106950516D01*
X157847742Y-106998491D01*
X157864536Y-107066312D01*
X157841998Y-107132447D01*
X157796946Y-107171484D01*
X157788182Y-107175949D01*
X157616213Y-107300890D01*
X157465890Y-107451213D01*
X157340951Y-107623179D01*
X157244444Y-107812585D01*
X157178753Y-108014760D01*
X157163431Y-108111500D01*
X157145500Y-108224713D01*
X157145500Y-108437287D01*
X157178754Y-108647243D01*
X157231668Y-108810096D01*
X157244444Y-108849414D01*
X157340951Y-109038820D01*
X157465890Y-109210786D01*
X157616213Y-109361109D01*
X157788179Y-109486048D01*
X157788181Y-109486049D01*
X157788184Y-109486051D01*
X157977588Y-109582557D01*
X158179757Y-109648246D01*
X158389713Y-109681500D01*
X158389714Y-109681500D01*
X158602286Y-109681500D01*
X158602287Y-109681500D01*
X158812243Y-109648246D01*
X159014412Y-109582557D01*
X159203816Y-109486051D01*
X159272018Y-109436500D01*
X159375786Y-109361109D01*
X159375788Y-109361106D01*
X159375792Y-109361104D01*
X159526104Y-109210792D01*
X159526106Y-109210788D01*
X159526109Y-109210786D01*
X159651048Y-109038820D01*
X159651047Y-109038820D01*
X159651051Y-109038816D01*
X159747557Y-108849412D01*
X159813246Y-108647243D01*
X159846500Y-108437287D01*
X159846500Y-108224713D01*
X159813246Y-108014757D01*
X159747557Y-107812588D01*
X159651051Y-107623184D01*
X159651049Y-107623181D01*
X159651048Y-107623179D01*
X159526109Y-107451213D01*
X159375786Y-107300890D01*
X159203820Y-107175951D01*
X159203115Y-107175591D01*
X159195054Y-107171485D01*
X159144259Y-107123512D01*
X159127463Y-107055692D01*
X159149999Y-106989556D01*
X159195054Y-106950515D01*
X159203816Y-106946051D01*
X159245241Y-106915954D01*
X159375786Y-106821109D01*
X159375788Y-106821106D01*
X159375792Y-106821104D01*
X159526104Y-106670792D01*
X159526106Y-106670788D01*
X159526109Y-106670786D01*
X159651048Y-106498820D01*
X159651047Y-106498820D01*
X159651051Y-106498816D01*
X159747557Y-106309412D01*
X159813246Y-106107243D01*
X159846500Y-105897287D01*
X159846500Y-105684713D01*
X159813246Y-105474757D01*
X159747557Y-105272588D01*
X159651051Y-105083184D01*
X159651049Y-105083181D01*
X159651048Y-105083179D01*
X159526109Y-104911213D01*
X159375786Y-104760890D01*
X159203817Y-104635949D01*
X159194504Y-104631204D01*
X159143707Y-104583230D01*
X159126912Y-104515409D01*
X159149449Y-104449274D01*
X159194507Y-104410232D01*
X159203555Y-104405622D01*
X159257716Y-104366270D01*
X159257717Y-104366270D01*
X158625408Y-103733962D01*
X158688993Y-103716925D01*
X158803007Y-103651099D01*
X158896099Y-103558007D01*
X158961925Y-103443993D01*
X158978962Y-103380408D01*
X159611270Y-104012717D01*
X159611270Y-104012716D01*
X159650622Y-103958554D01*
X159747095Y-103769217D01*
X159812757Y-103567130D01*
X159812757Y-103567127D01*
X159846000Y-103357246D01*
X159846000Y-103144753D01*
X159812757Y-102934872D01*
X159812757Y-102934869D01*
X159747095Y-102732782D01*
X159650624Y-102543449D01*
X159611270Y-102489282D01*
X159611269Y-102489282D01*
X158978962Y-103121590D01*
X158961925Y-103058007D01*
X158896099Y-102943993D01*
X158803007Y-102850901D01*
X158688993Y-102785075D01*
X158625409Y-102768037D01*
X159257716Y-102135728D01*
X159203547Y-102096373D01*
X159203547Y-102096372D01*
X159194500Y-102091763D01*
X159143706Y-102043788D01*
X159126912Y-101975966D01*
X159149451Y-101909832D01*
X159194508Y-101870793D01*
X159203816Y-101866051D01*
X159283007Y-101808515D01*
X159375786Y-101741109D01*
X159375788Y-101741106D01*
X159375792Y-101741104D01*
X159526104Y-101590792D01*
X159526106Y-101590788D01*
X159526109Y-101590786D01*
X159651048Y-101418820D01*
X159651047Y-101418820D01*
X159651051Y-101418816D01*
X159747557Y-101229412D01*
X159813246Y-101027243D01*
X159846500Y-100817287D01*
X159846500Y-100604713D01*
X159813246Y-100394757D01*
X159747557Y-100192588D01*
X159651051Y-100003184D01*
X159651049Y-100003181D01*
X159651048Y-100003179D01*
X159526109Y-99831213D01*
X159375786Y-99680890D01*
X159203820Y-99555951D01*
X159203115Y-99555591D01*
X159195054Y-99551485D01*
X159144259Y-99503512D01*
X159127463Y-99435692D01*
X159149999Y-99369556D01*
X159195054Y-99330515D01*
X159203816Y-99326051D01*
X159250194Y-99292356D01*
X159375786Y-99201109D01*
X159375788Y-99201106D01*
X159375792Y-99201104D01*
X159526104Y-99050792D01*
X159526106Y-99050788D01*
X159526109Y-99050786D01*
X159651048Y-98878820D01*
X159651047Y-98878820D01*
X159651051Y-98878816D01*
X159747557Y-98689412D01*
X159813246Y-98487243D01*
X159846500Y-98277287D01*
X159846500Y-98064713D01*
X159813246Y-97854757D01*
X159799506Y-97812473D01*
X159799072Y-97797262D01*
X159793754Y-97783003D01*
X159798095Y-97763047D01*
X159797512Y-97742635D01*
X159805599Y-97728548D01*
X159808606Y-97714730D01*
X159829754Y-97686479D01*
X160005506Y-97510728D01*
X160005511Y-97510724D01*
X160015714Y-97500520D01*
X160015716Y-97500520D01*
X160127520Y-97388716D01*
X160153893Y-97343036D01*
X160187765Y-97284369D01*
X160187766Y-97284366D01*
X160206576Y-97251787D01*
X160223766Y-97187635D01*
X160247501Y-97099057D01*
X160247501Y-96940942D01*
X160247501Y-96933347D01*
X160247500Y-96933329D01*
X160247500Y-95075185D01*
X160247500Y-95075183D01*
X160206577Y-94922456D01*
X160186267Y-94887277D01*
X160127524Y-94785530D01*
X160127521Y-94785526D01*
X160127520Y-94785524D01*
X160015716Y-94673720D01*
X160015715Y-94673719D01*
X160011385Y-94669389D01*
X160011374Y-94669379D01*
X159507126Y-94165131D01*
X159473641Y-94103808D01*
X159478625Y-94034116D01*
X159507126Y-93989769D01*
X159526104Y-93970792D01*
X159526106Y-93970788D01*
X159526109Y-93970786D01*
X159651048Y-93798820D01*
X159651047Y-93798820D01*
X159651051Y-93798816D01*
X159747557Y-93609412D01*
X159813246Y-93407243D01*
X159846500Y-93197287D01*
X159846500Y-92984713D01*
X159813246Y-92774757D01*
X159747557Y-92572588D01*
X159651051Y-92383184D01*
X159651049Y-92383181D01*
X159651048Y-92383179D01*
X159526109Y-92211213D01*
X159412569Y-92097673D01*
X159379084Y-92036350D01*
X159384068Y-91966658D01*
X159425940Y-91910725D01*
X159456915Y-91893810D01*
X159588331Y-91844796D01*
X159703546Y-91758546D01*
X159789796Y-91643331D01*
X159840091Y-91508483D01*
X159846500Y-91448873D01*
X159846499Y-89653128D01*
X159840091Y-89593517D01*
X159789796Y-89458669D01*
X159789795Y-89458668D01*
X159789793Y-89458664D01*
X159703547Y-89343455D01*
X159703544Y-89343452D01*
X159588335Y-89257206D01*
X159588328Y-89257202D01*
X159453482Y-89206908D01*
X159453483Y-89206908D01*
X159393883Y-89200501D01*
X159393881Y-89200500D01*
X159393873Y-89200500D01*
X159393864Y-89200500D01*
X157598129Y-89200500D01*
X157598123Y-89200501D01*
X157538516Y-89206908D01*
X157403671Y-89257202D01*
X157403664Y-89257206D01*
X157288455Y-89343452D01*
X157288452Y-89343455D01*
X157202206Y-89458664D01*
X157202202Y-89458671D01*
X157151908Y-89593517D01*
X157145501Y-89653116D01*
X157145501Y-89653123D01*
X157145500Y-89653135D01*
X157145500Y-90492902D01*
X157125815Y-90559941D01*
X157109181Y-90580583D01*
X156745481Y-90944282D01*
X156745480Y-90944284D01*
X156709027Y-91007423D01*
X156677248Y-91062465D01*
X156671697Y-91072081D01*
X156666423Y-91081215D01*
X156625499Y-91233943D01*
X156625499Y-91233945D01*
X156625499Y-91402046D01*
X156625500Y-91402059D01*
X156625500Y-93298903D01*
X156616855Y-93328343D01*
X156610332Y-93358330D01*
X156606577Y-93363345D01*
X156605815Y-93365942D01*
X156589181Y-93386584D01*
X156505584Y-93470181D01*
X156444261Y-93503666D01*
X156417903Y-93506500D01*
X151724670Y-93506500D01*
X151724654Y-93506499D01*
X151717058Y-93506499D01*
X151558943Y-93506499D01*
X151482579Y-93526961D01*
X151406214Y-93547423D01*
X151406209Y-93547426D01*
X151269290Y-93626475D01*
X151269282Y-93626481D01*
X149379481Y-95516282D01*
X149379479Y-95516285D01*
X149364436Y-95542341D01*
X149343027Y-95579424D01*
X149329361Y-95603094D01*
X149329359Y-95603096D01*
X149300425Y-95653209D01*
X149300424Y-95653210D01*
X149300423Y-95653215D01*
X149259499Y-95805943D01*
X149259499Y-95805945D01*
X149259499Y-95974046D01*
X149259500Y-95974059D01*
X149259500Y-104784092D01*
X149239815Y-104851131D01*
X149187011Y-104896886D01*
X149117853Y-104906830D01*
X149072379Y-104890824D01*
X148971957Y-104831435D01*
X148971954Y-104831434D01*
X148813552Y-104785413D01*
X148813546Y-104785412D01*
X148776541Y-104782500D01*
X148776534Y-104782500D01*
X146517466Y-104782500D01*
X146517458Y-104782500D01*
X146480453Y-104785412D01*
X146480447Y-104785413D01*
X146322045Y-104831434D01*
X146322042Y-104831435D01*
X146180056Y-104915405D01*
X146180046Y-104915413D01*
X146083854Y-105011604D01*
X146069061Y-105024239D01*
X145989536Y-105082018D01*
X145849021Y-105222533D01*
X145732213Y-105383305D01*
X145641994Y-105560367D01*
X145641993Y-105560370D01*
X145580587Y-105749362D01*
X145580587Y-105749364D01*
X145549500Y-105945639D01*
X134712500Y-105945639D01*
X134712500Y-92672059D01*
X134712501Y-92672046D01*
X134712501Y-92503945D01*
X134712501Y-92503943D01*
X134671577Y-92351215D01*
X134642639Y-92301095D01*
X134592520Y-92214284D01*
X134480716Y-92102480D01*
X134480715Y-92102479D01*
X134476385Y-92098149D01*
X134476374Y-92098139D01*
X134420814Y-92042579D01*
X134387329Y-91981256D01*
X134386022Y-91935505D01*
X134396500Y-91869352D01*
X134396500Y-91264648D01*
X134365195Y-91067000D01*
X134364477Y-91062465D01*
X134326077Y-90944282D01*
X134301220Y-90867781D01*
X134301218Y-90867778D01*
X134301218Y-90867776D01*
X134208419Y-90685650D01*
X134208287Y-90685390D01*
X134200556Y-90674749D01*
X134087971Y-90519786D01*
X133943213Y-90375028D01*
X133777613Y-90254715D01*
X133777612Y-90254714D01*
X133777610Y-90254713D01*
X133720653Y-90225691D01*
X133595223Y-90161781D01*
X133400534Y-90098522D01*
X133225995Y-90070878D01*
X133198352Y-90066500D01*
X132993648Y-90066500D01*
X132969329Y-90070351D01*
X132791465Y-90098522D01*
X132596776Y-90161781D01*
X132414386Y-90254715D01*
X132248786Y-90375028D01*
X132104028Y-90519786D01*
X131983715Y-90685386D01*
X131936485Y-90778080D01*
X131888510Y-90828876D01*
X131820689Y-90845671D01*
X131754554Y-90823134D01*
X131715515Y-90778080D01*
X131668419Y-90685650D01*
X131668287Y-90685390D01*
X131660556Y-90674749D01*
X131547971Y-90519786D01*
X131403213Y-90375028D01*
X131237613Y-90254715D01*
X131237612Y-90254714D01*
X131237610Y-90254713D01*
X131180653Y-90225691D01*
X131055223Y-90161781D01*
X130860534Y-90098522D01*
X130685995Y-90070878D01*
X130658352Y-90066500D01*
X130453648Y-90066500D01*
X130429329Y-90070351D01*
X130251465Y-90098522D01*
X130056776Y-90161781D01*
X129874386Y-90254715D01*
X129708786Y-90375028D01*
X129564028Y-90519786D01*
X129443715Y-90685386D01*
X129396485Y-90778080D01*
X129348510Y-90828876D01*
X129280689Y-90845671D01*
X129214554Y-90823134D01*
X129175515Y-90778080D01*
X129128419Y-90685650D01*
X129128287Y-90685390D01*
X129120556Y-90674749D01*
X129007971Y-90519786D01*
X128863213Y-90375028D01*
X128697613Y-90254715D01*
X128697612Y-90254714D01*
X128697610Y-90254713D01*
X128640653Y-90225691D01*
X128515223Y-90161781D01*
X128320534Y-90098522D01*
X128145995Y-90070878D01*
X128118352Y-90066500D01*
X127913648Y-90066500D01*
X127889329Y-90070351D01*
X127711465Y-90098522D01*
X127516776Y-90161781D01*
X127334386Y-90254715D01*
X127168786Y-90375028D01*
X127024028Y-90519786D01*
X126903713Y-90685388D01*
X126856203Y-90778630D01*
X126808228Y-90829426D01*
X126740407Y-90846220D01*
X126674272Y-90823682D01*
X126635234Y-90778628D01*
X126587861Y-90685652D01*
X126467582Y-90520105D01*
X126467582Y-90520104D01*
X126322895Y-90375417D01*
X126157349Y-90255140D01*
X125975029Y-90162244D01*
X125780413Y-90099009D01*
X125726000Y-90090390D01*
X125726000Y-91133988D01*
X125668993Y-91101075D01*
X125541826Y-91067000D01*
X125410174Y-91067000D01*
X125283007Y-91101075D01*
X125226000Y-91133988D01*
X125226000Y-90090390D01*
X125171586Y-90099009D01*
X124976970Y-90162244D01*
X124794650Y-90255140D01*
X124629105Y-90375417D01*
X124629104Y-90375417D01*
X124484417Y-90520104D01*
X124484417Y-90520105D01*
X124364140Y-90685650D01*
X124271244Y-90867968D01*
X124208009Y-91062582D01*
X124176000Y-91264682D01*
X124176000Y-91317000D01*
X125042988Y-91317000D01*
X125010075Y-91374007D01*
X124976000Y-91501174D01*
X124976000Y-91632826D01*
X125010075Y-91759993D01*
X125042988Y-91817000D01*
X124176000Y-91817000D01*
X124176000Y-91869317D01*
X124208009Y-92071417D01*
X124271244Y-92266031D01*
X124364140Y-92448349D01*
X124484417Y-92613894D01*
X124484417Y-92613895D01*
X124629104Y-92758582D01*
X124794650Y-92878859D01*
X124976968Y-92971754D01*
X125171578Y-93034988D01*
X125226000Y-93043607D01*
X125226000Y-92000012D01*
X125283007Y-92032925D01*
X125410174Y-92067000D01*
X125541826Y-92067000D01*
X125668993Y-92032925D01*
X125726000Y-92000012D01*
X125726000Y-93043606D01*
X125780421Y-93034988D01*
X125975031Y-92971754D01*
X126157349Y-92878859D01*
X126322894Y-92758582D01*
X126322895Y-92758582D01*
X126467582Y-92613895D01*
X126467582Y-92613894D01*
X126587861Y-92448347D01*
X126635234Y-92355371D01*
X126683208Y-92304575D01*
X126751028Y-92287779D01*
X126817164Y-92310316D01*
X126856203Y-92355369D01*
X126903713Y-92448611D01*
X127024028Y-92614213D01*
X127168786Y-92758971D01*
X127304943Y-92857893D01*
X127334390Y-92879287D01*
X127516777Y-92972218D01*
X127516785Y-92972222D01*
X127609817Y-93002449D01*
X127667493Y-93041885D01*
X127694692Y-93106244D01*
X127695500Y-93120380D01*
X127695500Y-93938267D01*
X127675815Y-94005306D01*
X127623011Y-94051061D01*
X127610506Y-94055972D01*
X127576671Y-94067184D01*
X127576663Y-94067187D01*
X127427342Y-94159289D01*
X127303289Y-94283342D01*
X127211187Y-94432663D01*
X127211185Y-94432668D01*
X127198322Y-94471486D01*
X127156001Y-94599203D01*
X127156001Y-94599204D01*
X127156000Y-94599204D01*
X127145500Y-94701983D01*
X127145500Y-96052001D01*
X127145501Y-96052018D01*
X127156000Y-96154796D01*
X127156001Y-96154799D01*
X127187941Y-96251185D01*
X127211186Y-96321334D01*
X127303288Y-96470656D01*
X127427344Y-96594712D01*
X127576666Y-96686814D01*
X127610500Y-96698025D01*
X127667947Y-96737796D01*
X127694772Y-96802311D01*
X127695500Y-96815732D01*
X127695500Y-97748267D01*
X127675815Y-97815306D01*
X127623011Y-97861061D01*
X127610506Y-97865972D01*
X127576671Y-97877184D01*
X127576663Y-97877187D01*
X127427342Y-97969289D01*
X127303289Y-98093342D01*
X127211187Y-98242663D01*
X127211185Y-98242668D01*
X127196992Y-98285500D01*
X127156001Y-98409203D01*
X127156001Y-98409204D01*
X127156000Y-98409204D01*
X127145500Y-98511983D01*
X127145500Y-99862001D01*
X127145501Y-99862018D01*
X127156000Y-99964796D01*
X127156001Y-99964799D01*
X127168721Y-100003184D01*
X127211186Y-100131334D01*
X127303288Y-100280656D01*
X127427344Y-100404712D01*
X127576666Y-100496814D01*
X127610500Y-100508025D01*
X127667947Y-100547796D01*
X127694772Y-100612311D01*
X127695500Y-100625732D01*
X127695500Y-101558267D01*
X127675815Y-101625306D01*
X127623011Y-101671061D01*
X127610506Y-101675972D01*
X127576671Y-101687184D01*
X127576663Y-101687187D01*
X127427342Y-101779289D01*
X127303289Y-101903342D01*
X127211187Y-102052663D01*
X127211185Y-102052668D01*
X127183662Y-102135727D01*
X127156001Y-102219203D01*
X127156001Y-102219204D01*
X127156000Y-102219204D01*
X127145500Y-102321983D01*
X127145500Y-103672001D01*
X127145501Y-103672018D01*
X127156000Y-103774796D01*
X127156001Y-103774799D01*
X127211185Y-103941331D01*
X127211186Y-103941334D01*
X127303288Y-104090656D01*
X127427344Y-104214712D01*
X127576666Y-104306814D01*
X127743203Y-104361999D01*
X127845991Y-104372500D01*
X128746008Y-104372499D01*
X128746016Y-104372498D01*
X128746019Y-104372498D01*
X128806996Y-104366269D01*
X128848797Y-104361999D01*
X129015334Y-104306814D01*
X129164656Y-104214712D01*
X129288712Y-104090656D01*
X129380814Y-103941334D01*
X129435999Y-103774797D01*
X129446500Y-103672009D01*
X129446499Y-102321992D01*
X129435999Y-102219203D01*
X129380814Y-102052666D01*
X129288712Y-101903344D01*
X129164656Y-101779288D01*
X129015334Y-101687186D01*
X129015328Y-101687184D01*
X128981494Y-101675972D01*
X128924050Y-101636199D01*
X128897228Y-101571683D01*
X128896500Y-101558267D01*
X128896500Y-100625732D01*
X128916185Y-100558693D01*
X128968989Y-100512938D01*
X128981495Y-100508026D01*
X129015334Y-100496814D01*
X129164656Y-100404712D01*
X129288712Y-100280656D01*
X129380814Y-100131334D01*
X129435999Y-99964797D01*
X129446500Y-99862009D01*
X129446499Y-98511992D01*
X129443970Y-98487239D01*
X129435999Y-98409203D01*
X129435998Y-98409200D01*
X129428172Y-98385582D01*
X129380814Y-98242666D01*
X129288712Y-98093344D01*
X129164656Y-97969288D01*
X129015334Y-97877186D01*
X129015328Y-97877184D01*
X128981494Y-97865972D01*
X128924050Y-97826199D01*
X128897228Y-97761683D01*
X128896500Y-97748267D01*
X128896500Y-96815732D01*
X128916185Y-96748693D01*
X128968989Y-96702938D01*
X128981495Y-96698026D01*
X129015334Y-96686814D01*
X129164656Y-96594712D01*
X129288712Y-96470656D01*
X129380814Y-96321334D01*
X129435999Y-96154797D01*
X129446500Y-96052009D01*
X129446499Y-94701992D01*
X129445957Y-94696690D01*
X129435999Y-94599203D01*
X129435998Y-94599200D01*
X129407354Y-94512758D01*
X129380814Y-94432666D01*
X129288712Y-94283344D01*
X129164656Y-94159288D01*
X129015334Y-94067186D01*
X129015328Y-94067184D01*
X128981494Y-94055972D01*
X128924050Y-94016199D01*
X128897228Y-93951683D01*
X128896500Y-93938267D01*
X128896500Y-92777047D01*
X128916185Y-92710008D01*
X128932819Y-92689366D01*
X128960128Y-92662057D01*
X129007966Y-92614219D01*
X129007968Y-92614215D01*
X129007971Y-92614213D01*
X129128284Y-92448614D01*
X129128286Y-92448611D01*
X129128287Y-92448610D01*
X129175516Y-92355917D01*
X129223489Y-92305123D01*
X129291310Y-92288328D01*
X129357445Y-92310865D01*
X129396483Y-92355917D01*
X129440348Y-92442006D01*
X129443715Y-92448614D01*
X129564028Y-92614213D01*
X129708786Y-92758971D01*
X129844943Y-92857893D01*
X129874390Y-92879287D01*
X129990607Y-92938503D01*
X130056776Y-92972218D01*
X130056778Y-92972218D01*
X130056781Y-92972220D01*
X130125475Y-92994540D01*
X130251465Y-93035477D01*
X130340425Y-93049567D01*
X130453648Y-93067500D01*
X130453649Y-93067500D01*
X130647903Y-93067500D01*
X130714942Y-93087185D01*
X130735584Y-93103819D01*
X132713181Y-95081416D01*
X132746666Y-95142739D01*
X132749500Y-95169097D01*
X132749500Y-105137693D01*
X132729815Y-105204732D01*
X132677011Y-105250487D01*
X132607853Y-105260431D01*
X132544297Y-105231406D01*
X132537819Y-105225374D01*
X132394466Y-105082021D01*
X132394462Y-105082018D01*
X132314937Y-105024239D01*
X132300147Y-105011608D01*
X132203947Y-104915408D01*
X132203946Y-104915407D01*
X132203943Y-104915405D01*
X132061957Y-104831435D01*
X132061954Y-104831434D01*
X131903552Y-104785413D01*
X131903546Y-104785412D01*
X131866541Y-104782500D01*
X131866534Y-104782500D01*
X129607466Y-104782500D01*
X129607458Y-104782500D01*
X129570453Y-104785412D01*
X129570447Y-104785413D01*
X129412045Y-104831434D01*
X129412042Y-104831435D01*
X129270056Y-104915405D01*
X129270047Y-104915412D01*
X129153412Y-105032047D01*
X129153405Y-105032056D01*
X129069435Y-105174042D01*
X129069434Y-105174045D01*
X129023413Y-105332447D01*
X129023412Y-105332453D01*
X129020500Y-105369458D01*
X129020500Y-106720541D01*
X129023412Y-106757546D01*
X129023413Y-106757552D01*
X129069434Y-106915954D01*
X129069435Y-106915957D01*
X129069436Y-106915959D01*
X129085701Y-106943461D01*
X129153405Y-107057943D01*
X129153412Y-107057952D01*
X129270047Y-107174587D01*
X129270050Y-107174589D01*
X129270053Y-107174592D01*
X129326996Y-107208268D01*
X129374679Y-107259338D01*
X129387182Y-107328079D01*
X129360536Y-107392669D01*
X129326996Y-107421731D01*
X129295800Y-107440181D01*
X129270053Y-107455408D01*
X129270047Y-107455412D01*
X129153412Y-107572047D01*
X129153405Y-107572056D01*
X129069435Y-107714042D01*
X129069434Y-107714045D01*
X129023413Y-107872447D01*
X129023412Y-107872453D01*
X129020500Y-107909458D01*
X129020500Y-109260541D01*
X129023412Y-109297546D01*
X129023413Y-109297552D01*
X129069434Y-109455954D01*
X129069435Y-109455957D01*
X129153405Y-109597943D01*
X129153412Y-109597952D01*
X129270047Y-109714587D01*
X129270050Y-109714589D01*
X129270053Y-109714592D01*
X129326996Y-109748268D01*
X129374679Y-109799338D01*
X129387182Y-109868079D01*
X129360536Y-109932669D01*
X129326996Y-109961732D01*
X129270053Y-109995408D01*
X129270047Y-109995412D01*
X129153412Y-110112047D01*
X129153405Y-110112056D01*
X129069435Y-110254042D01*
X129069434Y-110254045D01*
X129023413Y-110412447D01*
X129023412Y-110412453D01*
X129020500Y-110449458D01*
X129020500Y-111800541D01*
X129023412Y-111837541D01*
X129023413Y-111837552D01*
X129069434Y-111995954D01*
X129069435Y-111995957D01*
X129153405Y-112137943D01*
X129153412Y-112137952D01*
X129270047Y-112254587D01*
X129270050Y-112254589D01*
X129270053Y-112254592D01*
X129326996Y-112288268D01*
X129374679Y-112339338D01*
X129387182Y-112408079D01*
X129360536Y-112472669D01*
X129326996Y-112501732D01*
X129270053Y-112535408D01*
X129270047Y-112535412D01*
X129153412Y-112652047D01*
X129153405Y-112652056D01*
X129069435Y-112794042D01*
X129057432Y-112835356D01*
X129019825Y-112894241D01*
X128956352Y-112923446D01*
X128887165Y-112913699D01*
X128850675Y-112888440D01*
X128398819Y-112436584D01*
X128365334Y-112375261D01*
X128362500Y-112348903D01*
X128362500Y-109182060D01*
X128362501Y-109182047D01*
X128362501Y-109013944D01*
X128360375Y-109006009D01*
X128321577Y-108861216D01*
X128249161Y-108735786D01*
X128242524Y-108724290D01*
X128242518Y-108724282D01*
X127487590Y-107969355D01*
X127487588Y-107969352D01*
X127368717Y-107850481D01*
X127368716Y-107850480D01*
X127272761Y-107795081D01*
X127272760Y-107795080D01*
X127231783Y-107771422D01*
X127175881Y-107756443D01*
X127079057Y-107730499D01*
X126920943Y-107730499D01*
X126913347Y-107730499D01*
X126913331Y-107730500D01*
X125756089Y-107730500D01*
X125689050Y-107710815D01*
X125643295Y-107658011D01*
X125632731Y-107619102D01*
X125629752Y-107589941D01*
X125625999Y-107553203D01*
X125570814Y-107386666D01*
X125478712Y-107237344D01*
X125354656Y-107113288D01*
X125205334Y-107021186D01*
X125038797Y-106966001D01*
X125038795Y-106966000D01*
X124936010Y-106955500D01*
X124035998Y-106955500D01*
X124035980Y-106955501D01*
X123933203Y-106966000D01*
X123933200Y-106966001D01*
X123766668Y-107021185D01*
X123766663Y-107021187D01*
X123617342Y-107113289D01*
X123493289Y-107237342D01*
X123401187Y-107386663D01*
X123401185Y-107386668D01*
X123383453Y-107440181D01*
X123346001Y-107553203D01*
X123346001Y-107553204D01*
X123346000Y-107553204D01*
X123335500Y-107655983D01*
X123335500Y-109006001D01*
X123335501Y-109006018D01*
X123346000Y-109108796D01*
X123346001Y-109108799D01*
X123401185Y-109275331D01*
X123401187Y-109275336D01*
X123414890Y-109297552D01*
X123493288Y-109424656D01*
X123617344Y-109548712D01*
X123766666Y-109640814D01*
X123933203Y-109695999D01*
X124035991Y-109706500D01*
X124936008Y-109706499D01*
X124936016Y-109706498D01*
X124936019Y-109706498D01*
X124992302Y-109700748D01*
X125038797Y-109695999D01*
X125205334Y-109640814D01*
X125354656Y-109548712D01*
X125478712Y-109424656D01*
X125570814Y-109275334D01*
X125625999Y-109108797D01*
X125630000Y-109069632D01*
X125632732Y-109042897D01*
X125659129Y-108978205D01*
X125716310Y-108938054D01*
X125756090Y-108931500D01*
X126699903Y-108931500D01*
X126766942Y-108951185D01*
X126787584Y-108967819D01*
X127125181Y-109305416D01*
X127158666Y-109366739D01*
X127161500Y-109393097D01*
X127161500Y-112562330D01*
X127161499Y-112562348D01*
X127161499Y-112728054D01*
X127161498Y-112728054D01*
X127202423Y-112880785D01*
X127227053Y-112923446D01*
X127228075Y-112925215D01*
X127281478Y-113017712D01*
X127281479Y-113017714D01*
X127281481Y-113017717D01*
X127400349Y-113136585D01*
X127400355Y-113136590D01*
X128297478Y-114033713D01*
X128297480Y-114033716D01*
X128409284Y-114145520D01*
X128454403Y-114171569D01*
X128464645Y-114177482D01*
X128546209Y-114224574D01*
X128546210Y-114224575D01*
X128546212Y-114224575D01*
X128546215Y-114224577D01*
X128698943Y-114265501D01*
X128698946Y-114265501D01*
X128864653Y-114265501D01*
X128864669Y-114265500D01*
X128899970Y-114265500D01*
X128967009Y-114285185D01*
X129012764Y-114337989D01*
X129021435Y-114371465D01*
X129022274Y-114371312D01*
X129023413Y-114377552D01*
X129069434Y-114535954D01*
X129069435Y-114535957D01*
X129153405Y-114677943D01*
X129153412Y-114677952D01*
X129270047Y-114794587D01*
X129270050Y-114794589D01*
X129270053Y-114794592D01*
X129326996Y-114828268D01*
X129374679Y-114879338D01*
X129387182Y-114948079D01*
X129360536Y-115012669D01*
X129326996Y-115041732D01*
X129270053Y-115075408D01*
X129270047Y-115075412D01*
X129153412Y-115192047D01*
X129153405Y-115192056D01*
X129069435Y-115334042D01*
X129069434Y-115334045D01*
X129023413Y-115492447D01*
X129022274Y-115498688D01*
X129020487Y-115498361D01*
X128998706Y-115555514D01*
X128942476Y-115596987D01*
X128899970Y-115604500D01*
X126030097Y-115604500D01*
X125963058Y-115584815D01*
X125942416Y-115568181D01*
X125096819Y-114722584D01*
X125082115Y-114695656D01*
X125065523Y-114669838D01*
X125064631Y-114663637D01*
X125063334Y-114661261D01*
X125060500Y-114634903D01*
X125060500Y-114595732D01*
X125080185Y-114528693D01*
X125132989Y-114482938D01*
X125145495Y-114478026D01*
X125179334Y-114466814D01*
X125328656Y-114374712D01*
X125452712Y-114250656D01*
X125544814Y-114101334D01*
X125599999Y-113934797D01*
X125610500Y-113832009D01*
X125610499Y-112481992D01*
X125605126Y-112429398D01*
X125599999Y-112379203D01*
X125599998Y-112379200D01*
X125590158Y-112349506D01*
X125544814Y-112212666D01*
X125452712Y-112063344D01*
X125328656Y-111939288D01*
X125210785Y-111866585D01*
X125179336Y-111847187D01*
X125179331Y-111847185D01*
X125177862Y-111846698D01*
X125012797Y-111792001D01*
X125012795Y-111792000D01*
X124910010Y-111781500D01*
X124009998Y-111781500D01*
X124009980Y-111781501D01*
X123907203Y-111792000D01*
X123907200Y-111792001D01*
X123740668Y-111847185D01*
X123740663Y-111847187D01*
X123591342Y-111939289D01*
X123467289Y-112063342D01*
X123375187Y-112212663D01*
X123375185Y-112212668D01*
X123367884Y-112234701D01*
X123320001Y-112379203D01*
X123320001Y-112379204D01*
X123320000Y-112379204D01*
X123309500Y-112481983D01*
X122510498Y-112481983D01*
X122510468Y-112481692D01*
X122499999Y-112379203D01*
X122499998Y-112379200D01*
X122490158Y-112349506D01*
X122444814Y-112212666D01*
X122352712Y-112063344D01*
X122228656Y-111939288D01*
X122110785Y-111866585D01*
X122079336Y-111847187D01*
X122079331Y-111847185D01*
X122077862Y-111846698D01*
X121912797Y-111792001D01*
X121912795Y-111792000D01*
X121810010Y-111781500D01*
X120909998Y-111781500D01*
X120909980Y-111781501D01*
X120807203Y-111792000D01*
X120807200Y-111792001D01*
X120640668Y-111847185D01*
X120640663Y-111847187D01*
X120491342Y-111939289D01*
X120367289Y-112063342D01*
X120275187Y-112212663D01*
X120275185Y-112212668D01*
X120267884Y-112234701D01*
X120221308Y-112375261D01*
X120220001Y-112379204D01*
X120220000Y-112379205D01*
X120213268Y-112445103D01*
X120186871Y-112509795D01*
X120129690Y-112549946D01*
X120089910Y-112556500D01*
X119212670Y-112556500D01*
X119212654Y-112556499D01*
X119205058Y-112556499D01*
X119046943Y-112556499D01*
X118970579Y-112576961D01*
X118894214Y-112597423D01*
X118894209Y-112597426D01*
X118757290Y-112676475D01*
X118757282Y-112676481D01*
X118151584Y-113282181D01*
X118090261Y-113315666D01*
X118063903Y-113318500D01*
X117734308Y-113318500D01*
X117667269Y-113298815D01*
X117646626Y-113282180D01*
X117615370Y-113250923D01*
X117615362Y-113250917D01*
X117532194Y-113201732D01*
X117473898Y-113167256D01*
X117473897Y-113167255D01*
X117473896Y-113167255D01*
X117473893Y-113167254D01*
X117316073Y-113121402D01*
X117316067Y-113121401D01*
X117279201Y-113118500D01*
X117279194Y-113118500D01*
X115972806Y-113118500D01*
X115972798Y-113118500D01*
X115935932Y-113121401D01*
X115935926Y-113121402D01*
X115778106Y-113167254D01*
X115778103Y-113167255D01*
X115719806Y-113201732D01*
X115656685Y-113219000D01*
X115001000Y-113219000D01*
X114501000Y-113219000D01*
X113516205Y-113219000D01*
X113516204Y-113219001D01*
X108929500Y-113219001D01*
X108929499Y-113061666D01*
X108929499Y-112814606D01*
X108929498Y-112814584D01*
X108926765Y-112779847D01*
X108926765Y-112779844D01*
X108909088Y-112718998D01*
X113516204Y-112718998D01*
X113516205Y-112719000D01*
X114501000Y-112719000D01*
X114501000Y-112169000D01*
X114097850Y-112169000D01*
X114061010Y-112171899D01*
X114061004Y-112171900D01*
X113903306Y-112217716D01*
X113903303Y-112217717D01*
X113761947Y-112301314D01*
X113761938Y-112301321D01*
X113645821Y-112417438D01*
X113645814Y-112417447D01*
X113562218Y-112558801D01*
X113516399Y-112716513D01*
X113516204Y-112718998D01*
X108909088Y-112718998D01*
X108883555Y-112631113D01*
X108804715Y-112497802D01*
X108804713Y-112497800D01*
X108804710Y-112497796D01*
X108695203Y-112388289D01*
X108695194Y-112388282D01*
X108575223Y-112317332D01*
X108561887Y-112309445D01*
X108413156Y-112266235D01*
X108413153Y-112266234D01*
X108413151Y-112266234D01*
X108382395Y-112263814D01*
X108378405Y-112263500D01*
X108378404Y-112263500D01*
X108029606Y-112263500D01*
X108029584Y-112263501D01*
X107994847Y-112266234D01*
X107994844Y-112266235D01*
X107846113Y-112309445D01*
X107846111Y-112309445D01*
X107846111Y-112309446D01*
X107712805Y-112388282D01*
X107712796Y-112388289D01*
X107673907Y-112427180D01*
X107612584Y-112460666D01*
X107586225Y-112463500D01*
X105355999Y-112463500D01*
X105288960Y-112443815D01*
X105243205Y-112391011D01*
X105231999Y-112339500D01*
X105231999Y-111986627D01*
X105231998Y-111986623D01*
X105229704Y-111965285D01*
X105225591Y-111927017D01*
X105203053Y-111866590D01*
X105175297Y-111792171D01*
X105175293Y-111792164D01*
X105089047Y-111676955D01*
X105089044Y-111676952D01*
X104973835Y-111590706D01*
X104973828Y-111590702D01*
X104838982Y-111540408D01*
X104838983Y-111540408D01*
X104779383Y-111534001D01*
X104779381Y-111534000D01*
X104779373Y-111534000D01*
X104779365Y-111534000D01*
X103155000Y-111534000D01*
X103087961Y-111514315D01*
X103042206Y-111461511D01*
X103031000Y-111410000D01*
X103031000Y-107055284D01*
X103050685Y-106988245D01*
X103103489Y-106942490D01*
X103172647Y-106932546D01*
X103193312Y-106937351D01*
X103285377Y-106967265D01*
X103380131Y-106998053D01*
X103613403Y-107035000D01*
X103613408Y-107035000D01*
X103849597Y-107035000D01*
X104082868Y-106998053D01*
X104113054Y-106988245D01*
X104307492Y-106925068D01*
X104517933Y-106817843D01*
X104709010Y-106679017D01*
X104876017Y-106512010D01*
X105014843Y-106320933D01*
X105075083Y-106202704D01*
X105123058Y-106151909D01*
X105185568Y-106135000D01*
X106758403Y-106135000D01*
X106825442Y-106154685D01*
X106846084Y-106171319D01*
X107567181Y-106892416D01*
X107600666Y-106953739D01*
X107603500Y-106980097D01*
X107603500Y-110363515D01*
X107586232Y-110426636D01*
X107530032Y-110521666D01*
X107524445Y-110531113D01*
X107492704Y-110640367D01*
X107481234Y-110679847D01*
X107481234Y-110679849D01*
X107478500Y-110714589D01*
X107478500Y-111213393D01*
X107478501Y-111213415D01*
X107481234Y-111248152D01*
X107481234Y-111248155D01*
X107481235Y-111248156D01*
X107524445Y-111396887D01*
X107524446Y-111396888D01*
X107603282Y-111530194D01*
X107603289Y-111530203D01*
X107712796Y-111639710D01*
X107712800Y-111639713D01*
X107712802Y-111639715D01*
X107846113Y-111718555D01*
X107994844Y-111761765D01*
X108029595Y-111764500D01*
X108378404Y-111764499D01*
X108413156Y-111761765D01*
X108561887Y-111718555D01*
X108695198Y-111639715D01*
X108804715Y-111530198D01*
X108883555Y-111396887D01*
X108926765Y-111248156D01*
X108929500Y-111213405D01*
X108929499Y-110714596D01*
X108926765Y-110679844D01*
X108883555Y-110531113D01*
X108843454Y-110463306D01*
X108821768Y-110426636D01*
X108804500Y-110363515D01*
X108804500Y-109436500D01*
X108824185Y-109369461D01*
X108876989Y-109323706D01*
X108928500Y-109312500D01*
X114845500Y-109312500D01*
X114912539Y-109332185D01*
X114958294Y-109384989D01*
X114969500Y-109436500D01*
X114969500Y-111292330D01*
X114969499Y-111292348D01*
X114969499Y-111458054D01*
X114969498Y-111458054D01*
X115010423Y-111610785D01*
X115027126Y-111639715D01*
X115027125Y-111639715D01*
X115027126Y-111639716D01*
X115089475Y-111747709D01*
X115089481Y-111747717D01*
X115208349Y-111866585D01*
X115208355Y-111866590D01*
X115299084Y-111957319D01*
X115332569Y-112018642D01*
X115327585Y-112088334D01*
X115285713Y-112144267D01*
X115220249Y-112168684D01*
X115211403Y-112169000D01*
X115001000Y-112169000D01*
X115001000Y-112719000D01*
X115656685Y-112719000D01*
X115719806Y-112736268D01*
X115778102Y-112770744D01*
X115819724Y-112782836D01*
X115935926Y-112816597D01*
X115935929Y-112816597D01*
X115935931Y-112816598D01*
X115972806Y-112819500D01*
X115972814Y-112819500D01*
X117279186Y-112819500D01*
X117279194Y-112819500D01*
X117316069Y-112816598D01*
X117316071Y-112816597D01*
X117316073Y-112816597D01*
X117393696Y-112794045D01*
X117473898Y-112770744D01*
X117615365Y-112687081D01*
X117731581Y-112570865D01*
X117815244Y-112429398D01*
X117853005Y-112299425D01*
X117861097Y-112271573D01*
X117861098Y-112271567D01*
X117863999Y-112234701D01*
X117864000Y-112234694D01*
X117864000Y-111803306D01*
X117861098Y-111766431D01*
X117860536Y-111764498D01*
X117824284Y-111639717D01*
X117815244Y-111608602D01*
X117731581Y-111467135D01*
X117731579Y-111467133D01*
X117731576Y-111467129D01*
X117615370Y-111350923D01*
X117615362Y-111350917D01*
X117516296Y-111292330D01*
X117473898Y-111267256D01*
X117473897Y-111267255D01*
X117473896Y-111267255D01*
X117473893Y-111267254D01*
X117316073Y-111221402D01*
X117316067Y-111221401D01*
X117279201Y-111218500D01*
X117279194Y-111218500D01*
X116310098Y-111218500D01*
X116280652Y-111209853D01*
X116250668Y-111203330D01*
X116245655Y-111199577D01*
X116243059Y-111198815D01*
X116222414Y-111182178D01*
X116206816Y-111166579D01*
X116173333Y-111105255D01*
X116170500Y-111078901D01*
X116170500Y-109951500D01*
X116190185Y-109884461D01*
X116242989Y-109838706D01*
X116294500Y-109827500D01*
X117293186Y-109827500D01*
X117293194Y-109827500D01*
X117330069Y-109824598D01*
X117330071Y-109824597D01*
X117330073Y-109824597D01*
X117371691Y-109812505D01*
X117487898Y-109778744D01*
X117629365Y-109695081D01*
X117660626Y-109663820D01*
X117721948Y-109630334D01*
X117748308Y-109627500D01*
X118597331Y-109627500D01*
X118597347Y-109627501D01*
X118604943Y-109627501D01*
X118763054Y-109627501D01*
X118763057Y-109627501D01*
X118915785Y-109586577D01*
X118980137Y-109549423D01*
X119052716Y-109507520D01*
X119164520Y-109395716D01*
X119164520Y-109395714D01*
X119174721Y-109385514D01*
X119174724Y-109385509D01*
X119592418Y-108967816D01*
X119653740Y-108934334D01*
X119680098Y-108931500D01*
X120115911Y-108931500D01*
X120182950Y-108951185D01*
X120228705Y-109003989D01*
X120239269Y-109042898D01*
X120246001Y-109108797D01*
X120246001Y-109108799D01*
X120301185Y-109275331D01*
X120301187Y-109275336D01*
X120314890Y-109297552D01*
X120393288Y-109424656D01*
X120517344Y-109548712D01*
X120666666Y-109640814D01*
X120833203Y-109695999D01*
X120935991Y-109706500D01*
X121836008Y-109706499D01*
X121836016Y-109706498D01*
X121836019Y-109706498D01*
X121892302Y-109700748D01*
X121938797Y-109695999D01*
X122105334Y-109640814D01*
X122254656Y-109548712D01*
X122378712Y-109424656D01*
X122470814Y-109275334D01*
X122525999Y-109108797D01*
X122536500Y-109006009D01*
X122536499Y-107655992D01*
X122525999Y-107553203D01*
X122470814Y-107386666D01*
X122378712Y-107237344D01*
X122254656Y-107113288D01*
X122105334Y-107021186D01*
X121938797Y-106966001D01*
X121938795Y-106966000D01*
X121836010Y-106955500D01*
X120935998Y-106955500D01*
X120935980Y-106955501D01*
X120833203Y-106966000D01*
X120833200Y-106966001D01*
X120666668Y-107021185D01*
X120666663Y-107021187D01*
X120517342Y-107113289D01*
X120393288Y-107237343D01*
X120393285Y-107237347D01*
X120308092Y-107375467D01*
X120306956Y-107376488D01*
X120306518Y-107377954D01*
X120281058Y-107399782D01*
X120256144Y-107422192D01*
X120254634Y-107422437D01*
X120253475Y-107423432D01*
X120220266Y-107428029D01*
X120187182Y-107433413D01*
X120185780Y-107432804D01*
X120184266Y-107433014D01*
X120153845Y-107418928D01*
X120123100Y-107405570D01*
X120122249Y-107404298D01*
X120120863Y-107403657D01*
X120102887Y-107375362D01*
X120084244Y-107347501D01*
X120083951Y-107345557D01*
X120083396Y-107344683D01*
X120082977Y-107339089D01*
X120078556Y-107309722D01*
X120078615Y-107298362D01*
X120079501Y-107295057D01*
X120079501Y-107136943D01*
X120079500Y-107136939D01*
X120079500Y-104456443D01*
X120099185Y-104389404D01*
X120151989Y-104343649D01*
X120164490Y-104338738D01*
X120260834Y-104306814D01*
X120410155Y-104214711D01*
X120534211Y-104090655D01*
X120626314Y-103941334D01*
X120681499Y-103774797D01*
X120692000Y-103672008D01*
X120692000Y-102321992D01*
X120691999Y-102321984D01*
X121241000Y-102321984D01*
X121241000Y-103672015D01*
X121251500Y-103774795D01*
X121251501Y-103774796D01*
X121306686Y-103941335D01*
X121306687Y-103941337D01*
X121398786Y-104090651D01*
X121398789Y-104090655D01*
X121522844Y-104214710D01*
X121522848Y-104214713D01*
X121672162Y-104306812D01*
X121672164Y-104306813D01*
X121672166Y-104306814D01*
X121838703Y-104361999D01*
X121941492Y-104372500D01*
X121941497Y-104372500D01*
X122966503Y-104372500D01*
X122966508Y-104372500D01*
X123069297Y-104361999D01*
X123235834Y-104306814D01*
X123385155Y-104214711D01*
X123509211Y-104090655D01*
X123601314Y-103941334D01*
X123656499Y-103774797D01*
X123663231Y-103708897D01*
X123664225Y-103706459D01*
X123663851Y-103703853D01*
X123677352Y-103674289D01*
X123689627Y-103644206D01*
X123691781Y-103642692D01*
X123692876Y-103640297D01*
X123720216Y-103622726D01*
X123746807Y-103604055D01*
X123750119Y-103603509D01*
X123751654Y-103602523D01*
X123786589Y-103597500D01*
X123925911Y-103597500D01*
X123992950Y-103617185D01*
X124038705Y-103669989D01*
X124049269Y-103708898D01*
X124056001Y-103774797D01*
X124056001Y-103774799D01*
X124111185Y-103941331D01*
X124111186Y-103941334D01*
X124203288Y-104090656D01*
X124327344Y-104214712D01*
X124476666Y-104306814D01*
X124643203Y-104361999D01*
X124745991Y-104372500D01*
X125646008Y-104372499D01*
X125646016Y-104372498D01*
X125646019Y-104372498D01*
X125706996Y-104366269D01*
X125748797Y-104361999D01*
X125915334Y-104306814D01*
X126064656Y-104214712D01*
X126188712Y-104090656D01*
X126280814Y-103941334D01*
X126335999Y-103774797D01*
X126346500Y-103672009D01*
X126346499Y-102321992D01*
X126335999Y-102219203D01*
X126280814Y-102052666D01*
X126188712Y-101903344D01*
X126064656Y-101779288D01*
X125915334Y-101687186D01*
X125748797Y-101632001D01*
X125748795Y-101632000D01*
X125646010Y-101621500D01*
X124745998Y-101621500D01*
X124745980Y-101621501D01*
X124643203Y-101632000D01*
X124643200Y-101632001D01*
X124476668Y-101687185D01*
X124476663Y-101687187D01*
X124327342Y-101779289D01*
X124203289Y-101903342D01*
X124111187Y-102052663D01*
X124111185Y-102052668D01*
X124056001Y-102219204D01*
X124056000Y-102219205D01*
X124049268Y-102285103D01*
X124048273Y-102287540D01*
X124048648Y-102290147D01*
X124035145Y-102319712D01*
X124022871Y-102349795D01*
X124020716Y-102351307D01*
X124019623Y-102353703D01*
X123992281Y-102371274D01*
X123965690Y-102389946D01*
X123962378Y-102390491D01*
X123960845Y-102391477D01*
X123925910Y-102396500D01*
X123786589Y-102396500D01*
X123719550Y-102376815D01*
X123673795Y-102324011D01*
X123663231Y-102285102D01*
X123656499Y-102219205D01*
X123656499Y-102219204D01*
X123656499Y-102219203D01*
X123601314Y-102052666D01*
X123601313Y-102052664D01*
X123601312Y-102052662D01*
X123509213Y-101903348D01*
X123509210Y-101903344D01*
X123385155Y-101779289D01*
X123385151Y-101779286D01*
X123235837Y-101687187D01*
X123235835Y-101687186D01*
X123116999Y-101647808D01*
X123069297Y-101632001D01*
X123069295Y-101632000D01*
X122966515Y-101621500D01*
X122966508Y-101621500D01*
X121941492Y-101621500D01*
X121941484Y-101621500D01*
X121838704Y-101632000D01*
X121838703Y-101632001D01*
X121672164Y-101687186D01*
X121672162Y-101687187D01*
X121522848Y-101779286D01*
X121522844Y-101779289D01*
X121398789Y-101903344D01*
X121398786Y-101903348D01*
X121306687Y-102052662D01*
X121306686Y-102052664D01*
X121251501Y-102219203D01*
X121251500Y-102219204D01*
X121241000Y-102321984D01*
X120691999Y-102321984D01*
X120681499Y-102219203D01*
X120626314Y-102052666D01*
X120626313Y-102052664D01*
X120626312Y-102052662D01*
X120534213Y-101903348D01*
X120534210Y-101903344D01*
X120410155Y-101779289D01*
X120410151Y-101779286D01*
X120260837Y-101687187D01*
X120260835Y-101687186D01*
X120141999Y-101647808D01*
X120094297Y-101632001D01*
X120094295Y-101632000D01*
X119991515Y-101621500D01*
X119991508Y-101621500D01*
X118966492Y-101621500D01*
X118966484Y-101621500D01*
X118863704Y-101632000D01*
X118863703Y-101632001D01*
X118697164Y-101687186D01*
X118697162Y-101687187D01*
X118547848Y-101779286D01*
X118547844Y-101779289D01*
X118423789Y-101903344D01*
X118423786Y-101903348D01*
X118331687Y-102052662D01*
X118331686Y-102052664D01*
X118276501Y-102219203D01*
X118276500Y-102219204D01*
X118266000Y-102321984D01*
X118266000Y-103672015D01*
X118276500Y-103774795D01*
X118276501Y-103774796D01*
X118331686Y-103941335D01*
X118331687Y-103941337D01*
X118423786Y-104090651D01*
X118423789Y-104090655D01*
X118547844Y-104214710D01*
X118547848Y-104214713D01*
X118697162Y-104306812D01*
X118697164Y-104306813D01*
X118697166Y-104306814D01*
X118793504Y-104338737D01*
X118850949Y-104378509D01*
X118877772Y-104443025D01*
X118878500Y-104456443D01*
X118878500Y-106915903D01*
X118858815Y-106982942D01*
X118842181Y-107003584D01*
X118405584Y-107440181D01*
X118344261Y-107473666D01*
X118317903Y-107476500D01*
X118001612Y-107476500D01*
X117934573Y-107456815D01*
X117888818Y-107404011D01*
X117878413Y-107345152D01*
X117877904Y-107345132D01*
X117877995Y-107342789D01*
X117877994Y-107342778D01*
X117877998Y-107342717D01*
X117878000Y-107342694D01*
X117878000Y-106935238D01*
X117894614Y-106873236D01*
X117907577Y-106850784D01*
X117948500Y-106698057D01*
X117948500Y-99911500D01*
X117951050Y-99902814D01*
X117949762Y-99893853D01*
X117960740Y-99869812D01*
X117968185Y-99844461D01*
X117975025Y-99838533D01*
X117978787Y-99830297D01*
X118001021Y-99816007D01*
X118020989Y-99798706D01*
X118031503Y-99796418D01*
X118037565Y-99792523D01*
X118072500Y-99787500D01*
X118146411Y-99787500D01*
X118213450Y-99807185D01*
X118259205Y-99859989D01*
X118269769Y-99898898D01*
X118276500Y-99964794D01*
X118276501Y-99964796D01*
X118331686Y-100131335D01*
X118331687Y-100131337D01*
X118423786Y-100280651D01*
X118423789Y-100280655D01*
X118547844Y-100404710D01*
X118547848Y-100404713D01*
X118697162Y-100496812D01*
X118697164Y-100496813D01*
X118697166Y-100496814D01*
X118863703Y-100551999D01*
X118966492Y-100562500D01*
X118966497Y-100562500D01*
X119991503Y-100562500D01*
X119991508Y-100562500D01*
X120094297Y-100551999D01*
X120260834Y-100496814D01*
X120410155Y-100404711D01*
X120534211Y-100280655D01*
X120626314Y-100131334D01*
X120681499Y-99964797D01*
X120692000Y-99862008D01*
X120692000Y-98511992D01*
X120691999Y-98511984D01*
X121241000Y-98511984D01*
X121241000Y-99862015D01*
X121251500Y-99964795D01*
X121251501Y-99964796D01*
X121306686Y-100131335D01*
X121306687Y-100131337D01*
X121398786Y-100280651D01*
X121398789Y-100280655D01*
X121522844Y-100404710D01*
X121522848Y-100404713D01*
X121672162Y-100496812D01*
X121672164Y-100496813D01*
X121672166Y-100496814D01*
X121838703Y-100551999D01*
X121941492Y-100562500D01*
X121941497Y-100562500D01*
X122966503Y-100562500D01*
X122966508Y-100562500D01*
X123069297Y-100551999D01*
X123235834Y-100496814D01*
X123385155Y-100404711D01*
X123509211Y-100280655D01*
X123601314Y-100131334D01*
X123656499Y-99964797D01*
X123663231Y-99898897D01*
X123664225Y-99896459D01*
X123663851Y-99893853D01*
X123677352Y-99864289D01*
X123689627Y-99834206D01*
X123691781Y-99832692D01*
X123692876Y-99830297D01*
X123720216Y-99812726D01*
X123746807Y-99794055D01*
X123750119Y-99793509D01*
X123751654Y-99792523D01*
X123786589Y-99787500D01*
X123925911Y-99787500D01*
X123992950Y-99807185D01*
X124038705Y-99859989D01*
X124049269Y-99898898D01*
X124056001Y-99964797D01*
X124056001Y-99964799D01*
X124068721Y-100003184D01*
X124111186Y-100131334D01*
X124203288Y-100280656D01*
X124327344Y-100404712D01*
X124476666Y-100496814D01*
X124643203Y-100551999D01*
X124745991Y-100562500D01*
X125646008Y-100562499D01*
X125646016Y-100562498D01*
X125646019Y-100562498D01*
X125702302Y-100556748D01*
X125748797Y-100551999D01*
X125915334Y-100496814D01*
X126064656Y-100404712D01*
X126188712Y-100280656D01*
X126280814Y-100131334D01*
X126335999Y-99964797D01*
X126346500Y-99862009D01*
X126346499Y-98511992D01*
X126343970Y-98487239D01*
X126335999Y-98409203D01*
X126335998Y-98409200D01*
X126328172Y-98385582D01*
X126280814Y-98242666D01*
X126188712Y-98093344D01*
X126064656Y-97969288D01*
X125915334Y-97877186D01*
X125748797Y-97822001D01*
X125748795Y-97822000D01*
X125646010Y-97811500D01*
X124745998Y-97811500D01*
X124745980Y-97811501D01*
X124643203Y-97822000D01*
X124643200Y-97822001D01*
X124476668Y-97877185D01*
X124476663Y-97877187D01*
X124327342Y-97969289D01*
X124203289Y-98093342D01*
X124111187Y-98242663D01*
X124111185Y-98242668D01*
X124056001Y-98409204D01*
X124056000Y-98409205D01*
X124049268Y-98475103D01*
X124048273Y-98477540D01*
X124048648Y-98480147D01*
X124035145Y-98509712D01*
X124022871Y-98539795D01*
X124020716Y-98541307D01*
X124019623Y-98543703D01*
X123992281Y-98561274D01*
X123965690Y-98579946D01*
X123962378Y-98580491D01*
X123960845Y-98581477D01*
X123925910Y-98586500D01*
X123786589Y-98586500D01*
X123719550Y-98566815D01*
X123673795Y-98514011D01*
X123663231Y-98475102D01*
X123656499Y-98409205D01*
X123656499Y-98409204D01*
X123656499Y-98409203D01*
X123601314Y-98242666D01*
X123601313Y-98242664D01*
X123601312Y-98242662D01*
X123509213Y-98093348D01*
X123509210Y-98093344D01*
X123385155Y-97969289D01*
X123385151Y-97969286D01*
X123235837Y-97877187D01*
X123235835Y-97877186D01*
X123116999Y-97837808D01*
X123069297Y-97822001D01*
X123069295Y-97822000D01*
X122966515Y-97811500D01*
X122966508Y-97811500D01*
X121941492Y-97811500D01*
X121941484Y-97811500D01*
X121838704Y-97822000D01*
X121838703Y-97822001D01*
X121672164Y-97877186D01*
X121672162Y-97877187D01*
X121522848Y-97969286D01*
X121522844Y-97969289D01*
X121398789Y-98093344D01*
X121398786Y-98093348D01*
X121306687Y-98242662D01*
X121306686Y-98242664D01*
X121251501Y-98409203D01*
X121251500Y-98409204D01*
X121241000Y-98511984D01*
X120691999Y-98511984D01*
X120681499Y-98409203D01*
X120626314Y-98242666D01*
X120626313Y-98242664D01*
X120626312Y-98242662D01*
X120534213Y-98093348D01*
X120534210Y-98093344D01*
X120410155Y-97969289D01*
X120410151Y-97969286D01*
X120260837Y-97877187D01*
X120260835Y-97877186D01*
X120141999Y-97837808D01*
X120094297Y-97822001D01*
X120094295Y-97822000D01*
X119991515Y-97811500D01*
X119991508Y-97811500D01*
X118966492Y-97811500D01*
X118966484Y-97811500D01*
X118863704Y-97822000D01*
X118863703Y-97822001D01*
X118697164Y-97877186D01*
X118697162Y-97877187D01*
X118547848Y-97969286D01*
X118547844Y-97969289D01*
X118423789Y-98093344D01*
X118423786Y-98093348D01*
X118331687Y-98242662D01*
X118331686Y-98242664D01*
X118276501Y-98409203D01*
X118276500Y-98409205D01*
X118269769Y-98475102D01*
X118268774Y-98477540D01*
X118269149Y-98480147D01*
X118255647Y-98509710D01*
X118243373Y-98539794D01*
X118241218Y-98541307D01*
X118240124Y-98543703D01*
X118212783Y-98561273D01*
X118186193Y-98579945D01*
X118182880Y-98580490D01*
X118181346Y-98581477D01*
X118146411Y-98586500D01*
X118072500Y-98586500D01*
X118005461Y-98566815D01*
X117959706Y-98514011D01*
X117948500Y-98462500D01*
X117948500Y-95856097D01*
X117968185Y-95789058D01*
X118020989Y-95743303D01*
X118090147Y-95733359D01*
X118153703Y-95762384D01*
X118160170Y-95768406D01*
X118229682Y-95837918D01*
X118263166Y-95899239D01*
X118266000Y-95925597D01*
X118266000Y-96052015D01*
X118276500Y-96154795D01*
X118276501Y-96154796D01*
X118331686Y-96321335D01*
X118331687Y-96321337D01*
X118423786Y-96470651D01*
X118423789Y-96470655D01*
X118547844Y-96594710D01*
X118547848Y-96594713D01*
X118697162Y-96686812D01*
X118697164Y-96686813D01*
X118697166Y-96686814D01*
X118863703Y-96741999D01*
X118966492Y-96752500D01*
X118966497Y-96752500D01*
X119991503Y-96752500D01*
X119991508Y-96752500D01*
X120094297Y-96741999D01*
X120260834Y-96686814D01*
X120410155Y-96594711D01*
X120534211Y-96470655D01*
X120626314Y-96321334D01*
X120681499Y-96154797D01*
X120692000Y-96052008D01*
X120692000Y-94701992D01*
X120691999Y-94701984D01*
X121241000Y-94701984D01*
X121241000Y-96052015D01*
X121251500Y-96154795D01*
X121251501Y-96154796D01*
X121306686Y-96321335D01*
X121306687Y-96321337D01*
X121398786Y-96470651D01*
X121398789Y-96470655D01*
X121522844Y-96594710D01*
X121522848Y-96594713D01*
X121672162Y-96686812D01*
X121672164Y-96686813D01*
X121672166Y-96686814D01*
X121838703Y-96741999D01*
X121941492Y-96752500D01*
X121941497Y-96752500D01*
X122966503Y-96752500D01*
X122966508Y-96752500D01*
X123069297Y-96741999D01*
X123235834Y-96686814D01*
X123385155Y-96594711D01*
X123509211Y-96470655D01*
X123601314Y-96321334D01*
X123656499Y-96154797D01*
X123663231Y-96088897D01*
X123664225Y-96086459D01*
X123663851Y-96083853D01*
X123677352Y-96054289D01*
X123689627Y-96024206D01*
X123691781Y-96022692D01*
X123692876Y-96020297D01*
X123720216Y-96002726D01*
X123746807Y-95984055D01*
X123750119Y-95983509D01*
X123751654Y-95982523D01*
X123786589Y-95977500D01*
X123925911Y-95977500D01*
X123992950Y-95997185D01*
X124038705Y-96049989D01*
X124049269Y-96088898D01*
X124056001Y-96154797D01*
X124056001Y-96154799D01*
X124087941Y-96251185D01*
X124111186Y-96321334D01*
X124203288Y-96470656D01*
X124327344Y-96594712D01*
X124476666Y-96686814D01*
X124643203Y-96741999D01*
X124745991Y-96752500D01*
X125646008Y-96752499D01*
X125646016Y-96752498D01*
X125646019Y-96752498D01*
X125702302Y-96746748D01*
X125748797Y-96741999D01*
X125915334Y-96686814D01*
X126064656Y-96594712D01*
X126188712Y-96470656D01*
X126280814Y-96321334D01*
X126335999Y-96154797D01*
X126346500Y-96052009D01*
X126346499Y-94701992D01*
X126345957Y-94696690D01*
X126335999Y-94599203D01*
X126335998Y-94599200D01*
X126307354Y-94512758D01*
X126280814Y-94432666D01*
X126188712Y-94283344D01*
X126064656Y-94159288D01*
X125915334Y-94067186D01*
X125748797Y-94012001D01*
X125748795Y-94012000D01*
X125646010Y-94001500D01*
X124745998Y-94001500D01*
X124745980Y-94001501D01*
X124643203Y-94012000D01*
X124643200Y-94012001D01*
X124476668Y-94067185D01*
X124476663Y-94067187D01*
X124327342Y-94159289D01*
X124203289Y-94283342D01*
X124111187Y-94432663D01*
X124111185Y-94432668D01*
X124098322Y-94471486D01*
X124057723Y-94594008D01*
X124056001Y-94599204D01*
X124056000Y-94599205D01*
X124049268Y-94665103D01*
X124048273Y-94667540D01*
X124048648Y-94670147D01*
X124035145Y-94699712D01*
X124022871Y-94729795D01*
X124020716Y-94731307D01*
X124019623Y-94733703D01*
X123992281Y-94751274D01*
X123965690Y-94769946D01*
X123962378Y-94770491D01*
X123960845Y-94771477D01*
X123925910Y-94776500D01*
X123786589Y-94776500D01*
X123719550Y-94756815D01*
X123673795Y-94704011D01*
X123663231Y-94665102D01*
X123660498Y-94638353D01*
X123656499Y-94599203D01*
X123601314Y-94432666D01*
X123601313Y-94432664D01*
X123601312Y-94432662D01*
X123509213Y-94283348D01*
X123509210Y-94283344D01*
X123385155Y-94159289D01*
X123385151Y-94159286D01*
X123235837Y-94067187D01*
X123235835Y-94067186D01*
X123142083Y-94036120D01*
X123069297Y-94012001D01*
X123069295Y-94012000D01*
X122966515Y-94001500D01*
X122966508Y-94001500D01*
X121941492Y-94001500D01*
X121941484Y-94001500D01*
X121838704Y-94012000D01*
X121838703Y-94012001D01*
X121672164Y-94067186D01*
X121672162Y-94067187D01*
X121522848Y-94159286D01*
X121522844Y-94159289D01*
X121398789Y-94283344D01*
X121398786Y-94283348D01*
X121306687Y-94432662D01*
X121306686Y-94432664D01*
X121251501Y-94599203D01*
X121251500Y-94599204D01*
X121241000Y-94701984D01*
X120691999Y-94701984D01*
X120681499Y-94599203D01*
X120626314Y-94432666D01*
X120626313Y-94432664D01*
X120626312Y-94432662D01*
X120534213Y-94283348D01*
X120534210Y-94283344D01*
X120410155Y-94159289D01*
X120410151Y-94159286D01*
X120260837Y-94067187D01*
X120260835Y-94067186D01*
X120167083Y-94036120D01*
X120094297Y-94012001D01*
X120094295Y-94012000D01*
X119991515Y-94001500D01*
X119991508Y-94001500D01*
X118966492Y-94001500D01*
X118966484Y-94001500D01*
X118863704Y-94012000D01*
X118863703Y-94012001D01*
X118697164Y-94067186D01*
X118645596Y-94098994D01*
X118578204Y-94117434D01*
X118511540Y-94096511D01*
X118466771Y-94042869D01*
X118456500Y-93993455D01*
X118456500Y-85009097D01*
X118476185Y-84942058D01*
X118492819Y-84921416D01*
X120354416Y-83059819D01*
X120415739Y-83026334D01*
X120442097Y-83023500D01*
X136819331Y-83023500D01*
X136819347Y-83023501D01*
X136826943Y-83023501D01*
X136985054Y-83023501D01*
X136985057Y-83023501D01*
X137137785Y-82982577D01*
X137187904Y-82953639D01*
X137274716Y-82903520D01*
X137386520Y-82791716D01*
X137386520Y-82791714D01*
X137396728Y-82781507D01*
X137396729Y-82781504D01*
X138148520Y-82029716D01*
X138227577Y-81892784D01*
X138268501Y-81740057D01*
X138268501Y-81581942D01*
X138268501Y-81574347D01*
X138268500Y-81574329D01*
X138268500Y-81411965D01*
X138288185Y-81344926D01*
X138340989Y-81299171D01*
X138345048Y-81297404D01*
X138466037Y-81247289D01*
X138466037Y-81247288D01*
X138466049Y-81247284D01*
X138670450Y-81129273D01*
X138857699Y-80985592D01*
X138863972Y-80979319D01*
X138912648Y-80930644D01*
X139024587Y-80818704D01*
X139024592Y-80818699D01*
X139168273Y-80631450D01*
X139286284Y-80427049D01*
X139376606Y-80208993D01*
X139437693Y-79981014D01*
X139468500Y-79747011D01*
X139468500Y-79511014D01*
X140948000Y-79511014D01*
X140948000Y-79746985D01*
X140978799Y-79980914D01*
X141039870Y-80208837D01*
X141130160Y-80426819D01*
X141130165Y-80426828D01*
X141248144Y-80631171D01*
X141248145Y-80631172D01*
X141310721Y-80712723D01*
X142146958Y-79876487D01*
X142171978Y-79936890D01*
X142243112Y-80043351D01*
X142333649Y-80133888D01*
X142440110Y-80205022D01*
X142500511Y-80230041D01*
X141664275Y-81066277D01*
X141745827Y-81128854D01*
X141745828Y-81128855D01*
X141950171Y-81246834D01*
X141950180Y-81246839D01*
X142168163Y-81337129D01*
X142168161Y-81337129D01*
X142396085Y-81398200D01*
X142630014Y-81428999D01*
X142630029Y-81429000D01*
X142865971Y-81429000D01*
X142865985Y-81428999D01*
X143099914Y-81398200D01*
X143327837Y-81337129D01*
X143545819Y-81246839D01*
X143545828Y-81246834D01*
X143750181Y-81128850D01*
X143831723Y-81066279D01*
X143831723Y-81066276D01*
X142995487Y-80230041D01*
X143055890Y-80205022D01*
X143162351Y-80133888D01*
X143252888Y-80043351D01*
X143324022Y-79936890D01*
X143349041Y-79876487D01*
X144185276Y-80712723D01*
X144185279Y-80712723D01*
X144247850Y-80631181D01*
X144365834Y-80426828D01*
X144365839Y-80426819D01*
X144456129Y-80208837D01*
X144517200Y-79980914D01*
X144547999Y-79746985D01*
X144548000Y-79746971D01*
X144548000Y-79511028D01*
X144547999Y-79511014D01*
X146028000Y-79511014D01*
X146028000Y-79746985D01*
X146058799Y-79980914D01*
X146119870Y-80208837D01*
X146210160Y-80426819D01*
X146210165Y-80426828D01*
X146328144Y-80631171D01*
X146328145Y-80631172D01*
X146390721Y-80712723D01*
X147226958Y-79876487D01*
X147251978Y-79936890D01*
X147323112Y-80043351D01*
X147413649Y-80133888D01*
X147520110Y-80205022D01*
X147580511Y-80230041D01*
X146744275Y-81066277D01*
X146825827Y-81128854D01*
X146825828Y-81128855D01*
X147030171Y-81246834D01*
X147030180Y-81246839D01*
X147248163Y-81337129D01*
X147248161Y-81337129D01*
X147476085Y-81398200D01*
X147710014Y-81428999D01*
X147710029Y-81429000D01*
X147945971Y-81429000D01*
X147945985Y-81428999D01*
X148179914Y-81398200D01*
X148407837Y-81337129D01*
X148625819Y-81246839D01*
X148625828Y-81246834D01*
X148830181Y-81128850D01*
X148911723Y-81066279D01*
X148911723Y-81066276D01*
X148075487Y-80230041D01*
X148135890Y-80205022D01*
X148242351Y-80133888D01*
X148332888Y-80043351D01*
X148404022Y-79936890D01*
X148429041Y-79876488D01*
X149265276Y-80712723D01*
X149265279Y-80712723D01*
X149327850Y-80631181D01*
X149445834Y-80426828D01*
X149445839Y-80426819D01*
X149536129Y-80208837D01*
X149597200Y-79980914D01*
X149627999Y-79746985D01*
X149628000Y-79746971D01*
X149628000Y-79511028D01*
X149627999Y-79511014D01*
X149597200Y-79277085D01*
X149536129Y-79049162D01*
X149445839Y-78831180D01*
X149445834Y-78831171D01*
X149327855Y-78626828D01*
X149327854Y-78626827D01*
X149265277Y-78545275D01*
X148429041Y-79381511D01*
X148404022Y-79321110D01*
X148332888Y-79214649D01*
X148242351Y-79124112D01*
X148135890Y-79052978D01*
X148075488Y-79027958D01*
X148911723Y-78191721D01*
X148830172Y-78129145D01*
X148830171Y-78129144D01*
X148625828Y-78011165D01*
X148625819Y-78011160D01*
X148407836Y-77920870D01*
X148407838Y-77920870D01*
X148179914Y-77859799D01*
X147945985Y-77829000D01*
X147710014Y-77829000D01*
X147476085Y-77859799D01*
X147248162Y-77920870D01*
X147030180Y-78011160D01*
X147030171Y-78011165D01*
X146825828Y-78129144D01*
X146825818Y-78129150D01*
X146744275Y-78191720D01*
X146744275Y-78191721D01*
X147580512Y-79027958D01*
X147520110Y-79052978D01*
X147413649Y-79124112D01*
X147323112Y-79214649D01*
X147251978Y-79321110D01*
X147226958Y-79381511D01*
X146390721Y-78545275D01*
X146390720Y-78545275D01*
X146328150Y-78626818D01*
X146328144Y-78626828D01*
X146210165Y-78831171D01*
X146210160Y-78831180D01*
X146119870Y-79049162D01*
X146058799Y-79277085D01*
X146028000Y-79511014D01*
X144547999Y-79511014D01*
X144517200Y-79277085D01*
X144456129Y-79049162D01*
X144365839Y-78831180D01*
X144365834Y-78831171D01*
X144247855Y-78626828D01*
X144247854Y-78626827D01*
X144185277Y-78545275D01*
X143349041Y-79381511D01*
X143324022Y-79321110D01*
X143252888Y-79214649D01*
X143162351Y-79124112D01*
X143055890Y-79052978D01*
X142995488Y-79027958D01*
X143831723Y-78191721D01*
X143750172Y-78129145D01*
X143750171Y-78129144D01*
X143545828Y-78011165D01*
X143545819Y-78011160D01*
X143327836Y-77920870D01*
X143327838Y-77920870D01*
X143099914Y-77859799D01*
X142865985Y-77829000D01*
X142630014Y-77829000D01*
X142396085Y-77859799D01*
X142168162Y-77920870D01*
X141950180Y-78011160D01*
X141950171Y-78011165D01*
X141745828Y-78129144D01*
X141745818Y-78129150D01*
X141664275Y-78191720D01*
X141664275Y-78191721D01*
X142500512Y-79027958D01*
X142440110Y-79052978D01*
X142333649Y-79124112D01*
X142243112Y-79214649D01*
X142171978Y-79321110D01*
X142146958Y-79381512D01*
X141310721Y-78545275D01*
X141310720Y-78545275D01*
X141248150Y-78626818D01*
X141248144Y-78626828D01*
X141130165Y-78831171D01*
X141130160Y-78831180D01*
X141039870Y-79049162D01*
X140978799Y-79277085D01*
X140948000Y-79511014D01*
X139468500Y-79511014D01*
X139468500Y-79510989D01*
X139437693Y-79276986D01*
X139376606Y-79049007D01*
X139286284Y-78830951D01*
X139286282Y-78830948D01*
X139286280Y-78830943D01*
X139206149Y-78692154D01*
X139168273Y-78626550D01*
X139024592Y-78439301D01*
X139024587Y-78439295D01*
X138857704Y-78272412D01*
X138857697Y-78272406D01*
X138670454Y-78128730D01*
X138670453Y-78128729D01*
X138670450Y-78128727D01*
X138586300Y-78080143D01*
X138466056Y-78010719D01*
X138466045Y-78010714D01*
X138247993Y-77920394D01*
X138020010Y-77859306D01*
X137786020Y-77828501D01*
X137786017Y-77828500D01*
X137786011Y-77828500D01*
X137549989Y-77828500D01*
X137549983Y-77828500D01*
X137549979Y-77828501D01*
X137315989Y-77859306D01*
X137088006Y-77920394D01*
X136869954Y-78010714D01*
X136869943Y-78010719D01*
X136665545Y-78128730D01*
X136478302Y-78272406D01*
X136478295Y-78272412D01*
X136311412Y-78439295D01*
X136311406Y-78439302D01*
X136167730Y-78626545D01*
X136167727Y-78626549D01*
X136167727Y-78626550D01*
X136160014Y-78639909D01*
X136049719Y-78830943D01*
X136049714Y-78830954D01*
X135959394Y-79049006D01*
X135898306Y-79276989D01*
X135867501Y-79510979D01*
X135867500Y-79510995D01*
X135867500Y-79747004D01*
X135867501Y-79747020D01*
X135898306Y-79981010D01*
X135959394Y-80208993D01*
X136049714Y-80427045D01*
X136049719Y-80427056D01*
X136120677Y-80549957D01*
X136167727Y-80631450D01*
X136167729Y-80631453D01*
X136167730Y-80631454D01*
X136311406Y-80818697D01*
X136311412Y-80818704D01*
X136478295Y-80985587D01*
X136478302Y-80985593D01*
X136588306Y-81070001D01*
X136665550Y-81129273D01*
X136869951Y-81247284D01*
X136869956Y-81247286D01*
X136869962Y-81247289D01*
X136954844Y-81282448D01*
X137009248Y-81326288D01*
X137031313Y-81392582D01*
X137014034Y-81460282D01*
X136995073Y-81484690D01*
X136693582Y-81786182D01*
X136632261Y-81819666D01*
X136605903Y-81822500D01*
X131289097Y-81822500D01*
X131222058Y-81802815D01*
X131176303Y-81750011D01*
X131166359Y-81680853D01*
X131195384Y-81617297D01*
X131201416Y-81610819D01*
X131286991Y-81525242D01*
X131580027Y-81232206D01*
X131641348Y-81198723D01*
X131711039Y-81203707D01*
X131729705Y-81212502D01*
X131789940Y-81247278D01*
X131789943Y-81247279D01*
X131789951Y-81247284D01*
X132008007Y-81337606D01*
X132235986Y-81398693D01*
X132469989Y-81429500D01*
X132469996Y-81429500D01*
X132706004Y-81429500D01*
X132706011Y-81429500D01*
X132940014Y-81398693D01*
X133167993Y-81337606D01*
X133386049Y-81247284D01*
X133590450Y-81129273D01*
X133777699Y-80985592D01*
X133944592Y-80818699D01*
X134088273Y-80631450D01*
X134206284Y-80427049D01*
X134296606Y-80208993D01*
X134357693Y-79981014D01*
X134388500Y-79747011D01*
X134388500Y-79510989D01*
X134357693Y-79276986D01*
X134296606Y-79049007D01*
X134206284Y-78830951D01*
X134206282Y-78830948D01*
X134206280Y-78830943D01*
X134126149Y-78692154D01*
X134088273Y-78626550D01*
X133944592Y-78439301D01*
X133944587Y-78439295D01*
X133777704Y-78272412D01*
X133777697Y-78272406D01*
X133590454Y-78128730D01*
X133590453Y-78128729D01*
X133590450Y-78128727D01*
X133506300Y-78080143D01*
X133386056Y-78010719D01*
X133386045Y-78010714D01*
X133167993Y-77920394D01*
X132940010Y-77859306D01*
X132706020Y-77828501D01*
X132706017Y-77828500D01*
X132706011Y-77828500D01*
X132469989Y-77828500D01*
X132469983Y-77828500D01*
X132469979Y-77828501D01*
X132235989Y-77859306D01*
X132008006Y-77920394D01*
X131789954Y-78010714D01*
X131789943Y-78010719D01*
X131585545Y-78128730D01*
X131398302Y-78272406D01*
X131398295Y-78272412D01*
X131231412Y-78439295D01*
X131231406Y-78439302D01*
X131087730Y-78626545D01*
X131087727Y-78626549D01*
X131087727Y-78626550D01*
X131080014Y-78639909D01*
X130969719Y-78830943D01*
X130969714Y-78830954D01*
X130879394Y-79049006D01*
X130818306Y-79276989D01*
X130787501Y-79510979D01*
X130787500Y-79510995D01*
X130787500Y-79747004D01*
X130787501Y-79747020D01*
X130818306Y-79981012D01*
X130866227Y-80159856D01*
X130864564Y-80229706D01*
X130834133Y-80279630D01*
X129835584Y-81278181D01*
X129774261Y-81311666D01*
X129747903Y-81314500D01*
X128634350Y-81314500D01*
X128567311Y-81294815D01*
X128521556Y-81242011D01*
X128511612Y-81172853D01*
X128540637Y-81109297D01*
X128558864Y-81092124D01*
X128610252Y-81052692D01*
X128697699Y-80985592D01*
X128864592Y-80818699D01*
X129008273Y-80631450D01*
X129126284Y-80427049D01*
X129216606Y-80208993D01*
X129277693Y-79981014D01*
X129308500Y-79747011D01*
X129308500Y-79510989D01*
X129277693Y-79276986D01*
X129216606Y-79049007D01*
X129126284Y-78830951D01*
X129126282Y-78830948D01*
X129126280Y-78830943D01*
X129046149Y-78692154D01*
X129008273Y-78626550D01*
X128864592Y-78439301D01*
X128864587Y-78439295D01*
X128697704Y-78272412D01*
X128697697Y-78272406D01*
X128510454Y-78128730D01*
X128510453Y-78128729D01*
X128510450Y-78128727D01*
X128426300Y-78080143D01*
X128306056Y-78010719D01*
X128306045Y-78010714D01*
X128087993Y-77920394D01*
X127860010Y-77859306D01*
X127626020Y-77828501D01*
X127626017Y-77828500D01*
X127626011Y-77828500D01*
X127389989Y-77828500D01*
X127389983Y-77828500D01*
X127389979Y-77828501D01*
X127155989Y-77859306D01*
X126928006Y-77920394D01*
X126709954Y-78010714D01*
X126709943Y-78010719D01*
X126505545Y-78128730D01*
X126318302Y-78272406D01*
X126318295Y-78272412D01*
X126151412Y-78439295D01*
X126151406Y-78439302D01*
X126007730Y-78626545D01*
X126007727Y-78626549D01*
X126007727Y-78626550D01*
X126000014Y-78639909D01*
X125889719Y-78830943D01*
X125889714Y-78830954D01*
X125799394Y-79049006D01*
X125738306Y-79276989D01*
X125707501Y-79510979D01*
X125707500Y-79510995D01*
X125707500Y-79747004D01*
X125707501Y-79747020D01*
X125738306Y-79981010D01*
X125799394Y-80208993D01*
X125889714Y-80427045D01*
X125889719Y-80427056D01*
X125960677Y-80549957D01*
X126007727Y-80631450D01*
X126007729Y-80631453D01*
X126007730Y-80631454D01*
X126151406Y-80818697D01*
X126151412Y-80818704D01*
X126318295Y-80985587D01*
X126318302Y-80985593D01*
X126457136Y-81092124D01*
X126498339Y-81148552D01*
X126502494Y-81218298D01*
X126468282Y-81279218D01*
X126406565Y-81311971D01*
X126381650Y-81314500D01*
X124189976Y-81314500D01*
X124122937Y-81294815D01*
X124077182Y-81242011D01*
X124067238Y-81172853D01*
X124084436Y-81125405D01*
X124162814Y-80998334D01*
X124217999Y-80831797D01*
X124228500Y-80729009D01*
X124228499Y-78528992D01*
X124217999Y-78426203D01*
X124162814Y-78259666D01*
X124070712Y-78110344D01*
X123946656Y-77986288D01*
X123797334Y-77894186D01*
X123630797Y-77839001D01*
X123630795Y-77839000D01*
X123528010Y-77828500D01*
X121327998Y-77828500D01*
X121327981Y-77828501D01*
X121225203Y-77839000D01*
X121225200Y-77839001D01*
X121058668Y-77894185D01*
X121058663Y-77894187D01*
X120909342Y-77986289D01*
X120785289Y-78110342D01*
X120693187Y-78259663D01*
X120693185Y-78259668D01*
X120686886Y-78278678D01*
X120638001Y-78426203D01*
X120638001Y-78426204D01*
X120638000Y-78426204D01*
X120627500Y-78528983D01*
X120627500Y-79512901D01*
X120607815Y-79579940D01*
X120591181Y-79600582D01*
X116471286Y-83720478D01*
X116359481Y-83832282D01*
X116359477Y-83832287D01*
X116311505Y-83915379D01*
X116311505Y-83915380D01*
X116280423Y-83969214D01*
X116280423Y-83969215D01*
X116239499Y-84121943D01*
X116239499Y-84121945D01*
X116239499Y-84290046D01*
X116239500Y-84290059D01*
X116239500Y-93360500D01*
X116219815Y-93427539D01*
X116167011Y-93473294D01*
X116115500Y-93484500D01*
X115011971Y-93484500D01*
X115011965Y-93484500D01*
X115011964Y-93484501D01*
X115000316Y-93485536D01*
X114892584Y-93495113D01*
X114696954Y-93551089D01*
X114606772Y-93598196D01*
X114516593Y-93645302D01*
X114516591Y-93645303D01*
X114516590Y-93645304D01*
X114358890Y-93773890D01*
X114230304Y-93931590D01*
X114230302Y-93931593D01*
X114191798Y-94005306D01*
X114136089Y-94111954D01*
X114080114Y-94307583D01*
X114080113Y-94307586D01*
X114069500Y-94426966D01*
X114069500Y-95160500D01*
X114049815Y-95227539D01*
X113997011Y-95273294D01*
X113945500Y-95284500D01*
X110836916Y-95284500D01*
X110769877Y-95264815D01*
X110724122Y-95212011D01*
X110722425Y-95207887D01*
X110637032Y-95035707D01*
X110637030Y-95035704D01*
X110517722Y-94887278D01*
X110517721Y-94887277D01*
X110448514Y-94831647D01*
X110408595Y-94774304D01*
X110406015Y-94704482D01*
X110441594Y-94644349D01*
X110448514Y-94638353D01*
X110497217Y-94599204D01*
X110517722Y-94582722D01*
X110637030Y-94434296D01*
X110721641Y-94263693D01*
X110767600Y-94078889D01*
X110770500Y-94036123D01*
X110770499Y-93133878D01*
X110767600Y-93091111D01*
X110721641Y-92906307D01*
X110697630Y-92857893D01*
X110637032Y-92735707D01*
X110637030Y-92735704D01*
X110517722Y-92587278D01*
X110517721Y-92587277D01*
X110369295Y-92467969D01*
X110369292Y-92467967D01*
X110198697Y-92383360D01*
X110013892Y-92337400D01*
X109988229Y-92335660D01*
X109971123Y-92334500D01*
X109971121Y-92334500D01*
X108889897Y-92334500D01*
X108827897Y-92317887D01*
X108748285Y-92271923D01*
X108595557Y-92230999D01*
X108437443Y-92230999D01*
X108322897Y-92261692D01*
X108284714Y-92271923D01*
X108147784Y-92350981D01*
X108147781Y-92350983D01*
X108035983Y-92462781D01*
X108035981Y-92462784D01*
X107956922Y-92599715D01*
X107956922Y-92599716D01*
X107936001Y-92677790D01*
X107924000Y-92707021D01*
X107919089Y-92715649D01*
X107902970Y-92735704D01*
X107871017Y-92800130D01*
X107869272Y-92803198D01*
X107846578Y-92825108D01*
X107825166Y-92848279D01*
X107821632Y-92849194D01*
X107819008Y-92851729D01*
X107788066Y-92857893D01*
X107757531Y-92865807D01*
X107754065Y-92864667D01*
X107750485Y-92865381D01*
X107721120Y-92853837D01*
X107691155Y-92843987D01*
X107688854Y-92841153D01*
X107685459Y-92839819D01*
X107667000Y-92814237D01*
X107647114Y-92789746D01*
X107646260Y-92785495D01*
X107644575Y-92783160D01*
X107644128Y-92774881D01*
X107637499Y-92741871D01*
X107637499Y-92603998D01*
X107637498Y-92603981D01*
X107626999Y-92501203D01*
X107626998Y-92501200D01*
X107614267Y-92462781D01*
X107571814Y-92334666D01*
X107479712Y-92185344D01*
X107355656Y-92061288D01*
X107206334Y-91969186D01*
X107039797Y-91914001D01*
X107039795Y-91914000D01*
X106937016Y-91903500D01*
X106937009Y-91903500D01*
X106826500Y-91903500D01*
X106759461Y-91883815D01*
X106713706Y-91831011D01*
X106702500Y-91779500D01*
X106702500Y-81553499D01*
X106722185Y-81486460D01*
X106774989Y-81440705D01*
X106826500Y-81429499D01*
X107526002Y-81429499D01*
X107526008Y-81429499D01*
X107628797Y-81418999D01*
X107795334Y-81363814D01*
X107944656Y-81271712D01*
X108068712Y-81147656D01*
X108160814Y-80998334D01*
X108215999Y-80831797D01*
X108226500Y-80729009D01*
X108226499Y-79511014D01*
X109706000Y-79511014D01*
X109706000Y-79746985D01*
X109736799Y-79980914D01*
X109797870Y-80208837D01*
X109888160Y-80426819D01*
X109888165Y-80426828D01*
X110006144Y-80631171D01*
X110006145Y-80631172D01*
X110068721Y-80712723D01*
X110904958Y-79876487D01*
X110929978Y-79936890D01*
X111001112Y-80043351D01*
X111091649Y-80133888D01*
X111198110Y-80205022D01*
X111258511Y-80230041D01*
X110422275Y-81066277D01*
X110503827Y-81128854D01*
X110503828Y-81128855D01*
X110708171Y-81246834D01*
X110708180Y-81246839D01*
X110926163Y-81337129D01*
X110926161Y-81337129D01*
X111154085Y-81398200D01*
X111388014Y-81428999D01*
X111388029Y-81429000D01*
X111623971Y-81429000D01*
X111623985Y-81428999D01*
X111857914Y-81398200D01*
X112085837Y-81337129D01*
X112303819Y-81246839D01*
X112303828Y-81246834D01*
X112508181Y-81128850D01*
X112589723Y-81066279D01*
X112589723Y-81066276D01*
X111753487Y-80230041D01*
X111813890Y-80205022D01*
X111920351Y-80133888D01*
X112010888Y-80043351D01*
X112082022Y-79936890D01*
X112107041Y-79876488D01*
X112943276Y-80712723D01*
X112943279Y-80712723D01*
X113005850Y-80631181D01*
X113123834Y-80426828D01*
X113123839Y-80426819D01*
X113214129Y-80208837D01*
X113275200Y-79980914D01*
X113305999Y-79746985D01*
X113306000Y-79746971D01*
X113306000Y-79511028D01*
X113305999Y-79511014D01*
X113275200Y-79277085D01*
X113214129Y-79049162D01*
X113123839Y-78831180D01*
X113123834Y-78831171D01*
X113005855Y-78626828D01*
X113005854Y-78626827D01*
X112943277Y-78545275D01*
X112107041Y-79381511D01*
X112082022Y-79321110D01*
X112010888Y-79214649D01*
X111920351Y-79124112D01*
X111813890Y-79052978D01*
X111753488Y-79027958D01*
X112589723Y-78191721D01*
X112508172Y-78129145D01*
X112508171Y-78129144D01*
X112303828Y-78011165D01*
X112303819Y-78011160D01*
X112085836Y-77920870D01*
X112085838Y-77920870D01*
X111857914Y-77859799D01*
X111623985Y-77829000D01*
X111388014Y-77829000D01*
X111154085Y-77859799D01*
X110926162Y-77920870D01*
X110708180Y-78011160D01*
X110708171Y-78011165D01*
X110503828Y-78129144D01*
X110503818Y-78129150D01*
X110422275Y-78191720D01*
X110422275Y-78191721D01*
X111258512Y-79027958D01*
X111198110Y-79052978D01*
X111091649Y-79124112D01*
X111001112Y-79214649D01*
X110929978Y-79321110D01*
X110904958Y-79381512D01*
X110068721Y-78545275D01*
X110068720Y-78545275D01*
X110006150Y-78626818D01*
X110006144Y-78626828D01*
X109888165Y-78831171D01*
X109888160Y-78831180D01*
X109797870Y-79049162D01*
X109736799Y-79277085D01*
X109706000Y-79511014D01*
X108226499Y-79511014D01*
X108226499Y-78528992D01*
X108215999Y-78426203D01*
X108160814Y-78259666D01*
X108068712Y-78110344D01*
X107944656Y-77986288D01*
X107795334Y-77894186D01*
X107628797Y-77839001D01*
X107628795Y-77839000D01*
X107526010Y-77828500D01*
X105325998Y-77828500D01*
X105325981Y-77828501D01*
X105223203Y-77839000D01*
X105223200Y-77839001D01*
X105056668Y-77894185D01*
X105056663Y-77894187D01*
X104907342Y-77986289D01*
X104783289Y-78110342D01*
X104691187Y-78259663D01*
X104691185Y-78259668D01*
X104684886Y-78278678D01*
X104636001Y-78426203D01*
X104636001Y-78426204D01*
X104636000Y-78426204D01*
X104625500Y-78528983D01*
X104625500Y-80729001D01*
X104625501Y-80729018D01*
X104636000Y-80831796D01*
X104636001Y-80831799D01*
X104676249Y-80953258D01*
X104691186Y-80998334D01*
X104783288Y-81147656D01*
X104907344Y-81271712D01*
X105056666Y-81363814D01*
X105223203Y-81418999D01*
X105325991Y-81429500D01*
X105377500Y-81429499D01*
X105444538Y-81449182D01*
X105490293Y-81501985D01*
X105501500Y-81553499D01*
X105501500Y-91779500D01*
X105481815Y-91846539D01*
X105429011Y-91892294D01*
X105377501Y-91903500D01*
X105266999Y-91903500D01*
X105266980Y-91903501D01*
X105164203Y-91914000D01*
X105164200Y-91914001D01*
X104997668Y-91969185D01*
X104997663Y-91969187D01*
X104848342Y-92061289D01*
X104724289Y-92185342D01*
X104632187Y-92334663D01*
X104632185Y-92334668D01*
X104625325Y-92355371D01*
X104577001Y-92501203D01*
X104577001Y-92501204D01*
X104577000Y-92501204D01*
X104566500Y-92603983D01*
X104566500Y-94594001D01*
X104566501Y-94594018D01*
X104577000Y-94696796D01*
X104577001Y-94696799D01*
X104604724Y-94780460D01*
X104632186Y-94863334D01*
X104724288Y-95012656D01*
X104848344Y-95136712D01*
X104997666Y-95228814D01*
X105164203Y-95283999D01*
X105266991Y-95294500D01*
X106937008Y-95294499D01*
X107039797Y-95283999D01*
X107206334Y-95228814D01*
X107355656Y-95136712D01*
X107479712Y-95012656D01*
X107571814Y-94863334D01*
X107590030Y-94808357D01*
X107620055Y-94759679D01*
X107650020Y-94729716D01*
X107729077Y-94592784D01*
X107741132Y-94547792D01*
X107744527Y-94542222D01*
X107745040Y-94535717D01*
X107762486Y-94512758D01*
X107777495Y-94488134D01*
X107783364Y-94485282D01*
X107787313Y-94480087D01*
X107814403Y-94470204D01*
X107840342Y-94457604D01*
X107846820Y-94458378D01*
X107852952Y-94456142D01*
X107881085Y-94462475D01*
X107909717Y-94465898D01*
X107916330Y-94470408D01*
X107921116Y-94471486D01*
X107934711Y-94482946D01*
X107949217Y-94492840D01*
X107953617Y-94497304D01*
X108022278Y-94582722D01*
X108097077Y-94642847D01*
X108102110Y-94647953D01*
X108115377Y-94672673D01*
X108131405Y-94695696D01*
X108131676Y-94703040D01*
X108135152Y-94709516D01*
X108132949Y-94737481D01*
X108133985Y-94765518D01*
X108130242Y-94771843D01*
X108129665Y-94779170D01*
X108112691Y-94801506D01*
X108098406Y-94825651D01*
X108091486Y-94831647D01*
X108022278Y-94887277D01*
X108022277Y-94887278D01*
X107902969Y-95035704D01*
X107902967Y-95035707D01*
X107818360Y-95206303D01*
X107818359Y-95206306D01*
X107811409Y-95234250D01*
X107776125Y-95294556D01*
X107745965Y-95315509D01*
X107734985Y-95320929D01*
X107718215Y-95325423D01*
X107676478Y-95349520D01*
X107672998Y-95351528D01*
X107672980Y-95351538D01*
X107581290Y-95404475D01*
X107581282Y-95404481D01*
X107469479Y-95516284D01*
X107469479Y-95516285D01*
X107469478Y-95516286D01*
X107443423Y-95542341D01*
X107387840Y-95574432D01*
X107369216Y-95579422D01*
X107369212Y-95579424D01*
X107232287Y-95658477D01*
X107232282Y-95658481D01*
X107120480Y-95770283D01*
X107120480Y-95770284D01*
X107120478Y-95770286D01*
X107034667Y-95856097D01*
X106959582Y-95931182D01*
X106898259Y-95964666D01*
X106871901Y-95967500D01*
X105241998Y-95967500D01*
X105241981Y-95967501D01*
X105139203Y-95978000D01*
X105139200Y-95978001D01*
X104972668Y-96033185D01*
X104972663Y-96033187D01*
X104823342Y-96125289D01*
X104699289Y-96249342D01*
X104607187Y-96398663D01*
X104607185Y-96398668D01*
X104579349Y-96482670D01*
X104552001Y-96565203D01*
X104552001Y-96565204D01*
X104552000Y-96565204D01*
X104541500Y-96667983D01*
X104541500Y-98297901D01*
X104521815Y-98364940D01*
X104505181Y-98385582D01*
X102061786Y-100828978D01*
X101949981Y-100940782D01*
X101949980Y-100940784D01*
X101914155Y-101002835D01*
X101870923Y-101077715D01*
X101829999Y-101230443D01*
X101829999Y-101388557D01*
X101829999Y-101388559D01*
X101830000Y-101398553D01*
X101830000Y-111646830D01*
X101829999Y-111646848D01*
X101829999Y-111812554D01*
X101829998Y-111812554D01*
X99314000Y-111812554D01*
X99314000Y-98657986D01*
X99602001Y-98657986D01*
X99612494Y-98760697D01*
X99667641Y-98927119D01*
X99667643Y-98927124D01*
X99759684Y-99076345D01*
X99883654Y-99200315D01*
X100032875Y-99292356D01*
X100032880Y-99292358D01*
X100199302Y-99347505D01*
X100199309Y-99347506D01*
X100302019Y-99357999D01*
X100886999Y-99357999D01*
X101387000Y-99357999D01*
X101971972Y-99357999D01*
X101971986Y-99357998D01*
X102074697Y-99347505D01*
X102241119Y-99292358D01*
X102241124Y-99292356D01*
X102390345Y-99200315D01*
X102514315Y-99076345D01*
X102606356Y-98927124D01*
X102606358Y-98927119D01*
X102661505Y-98760697D01*
X102661506Y-98760690D01*
X102671999Y-98657986D01*
X102672000Y-98657973D01*
X102672000Y-97913000D01*
X101387000Y-97913000D01*
X101387000Y-99357999D01*
X100886999Y-99357999D01*
X100887000Y-99357998D01*
X100887000Y-97913000D01*
X99602001Y-97913000D01*
X99602001Y-98657986D01*
X99314000Y-98657986D01*
X99314000Y-96668013D01*
X99602000Y-96668013D01*
X99602000Y-97413000D01*
X100887000Y-97413000D01*
X101387000Y-97413000D01*
X102671999Y-97413000D01*
X102671999Y-96668028D01*
X102671998Y-96668013D01*
X102661505Y-96565302D01*
X102606358Y-96398880D01*
X102606356Y-96398875D01*
X102514315Y-96249654D01*
X102390345Y-96125684D01*
X102241124Y-96033643D01*
X102241119Y-96033641D01*
X102074697Y-95978494D01*
X102074690Y-95978493D01*
X101971986Y-95968000D01*
X101387000Y-95968000D01*
X101387000Y-97413000D01*
X100887000Y-97413000D01*
X100887000Y-95968000D01*
X100302028Y-95968000D01*
X100302012Y-95968001D01*
X100199302Y-95978494D01*
X100032880Y-96033641D01*
X100032875Y-96033643D01*
X99883654Y-96125684D01*
X99759684Y-96249654D01*
X99667643Y-96398875D01*
X99667641Y-96398880D01*
X99612494Y-96565302D01*
X99612493Y-96565309D01*
X99602000Y-96668013D01*
X99314000Y-96668013D01*
X99314000Y-94593986D01*
X99627001Y-94593986D01*
X99637494Y-94696697D01*
X99692641Y-94863119D01*
X99692643Y-94863124D01*
X99784684Y-95012345D01*
X99908654Y-95136315D01*
X100057875Y-95228356D01*
X100057880Y-95228358D01*
X100224302Y-95283505D01*
X100224309Y-95283506D01*
X100327019Y-95293999D01*
X100911999Y-95293999D01*
X101412000Y-95293999D01*
X101996972Y-95293999D01*
X101996986Y-95293998D01*
X102099697Y-95283505D01*
X102266119Y-95228358D01*
X102266124Y-95228356D01*
X102415345Y-95136315D01*
X102539315Y-95012345D01*
X102631356Y-94863124D01*
X102631358Y-94863119D01*
X102686505Y-94696697D01*
X102686506Y-94696690D01*
X102696999Y-94593986D01*
X102697000Y-94593973D01*
X102697000Y-93849000D01*
X101412000Y-93849000D01*
X101412000Y-95293999D01*
X100911999Y-95293999D01*
X100912000Y-95293998D01*
X100912000Y-93849000D01*
X99627001Y-93849000D01*
X99627001Y-94593986D01*
X99314000Y-94593986D01*
X99314000Y-92604013D01*
X99627000Y-92604013D01*
X99627000Y-93349000D01*
X100912000Y-93349000D01*
X101412000Y-93349000D01*
X102696999Y-93349000D01*
X102696999Y-92604028D01*
X102696998Y-92604013D01*
X102686505Y-92501302D01*
X102631358Y-92334880D01*
X102631356Y-92334875D01*
X102539315Y-92185654D01*
X102415345Y-92061684D01*
X102266124Y-91969643D01*
X102266119Y-91969641D01*
X102099697Y-91914494D01*
X102099690Y-91914493D01*
X101996986Y-91904000D01*
X101412000Y-91904000D01*
X101412000Y-93349000D01*
X100912000Y-93349000D01*
X100912000Y-91904000D01*
X100327028Y-91904000D01*
X100327012Y-91904001D01*
X100224302Y-91914494D01*
X100057880Y-91969641D01*
X100057875Y-91969643D01*
X99908654Y-92061684D01*
X99784684Y-92185654D01*
X99692643Y-92334875D01*
X99692641Y-92334880D01*
X99637494Y-92501302D01*
X99637493Y-92501309D01*
X99627000Y-92604013D01*
X99314000Y-92604013D01*
X99314000Y-75003500D01*
X99333685Y-74936461D01*
X99386489Y-74890706D01*
X99438000Y-74879500D01*
X227089500Y-74879500D01*
X227156539Y-74899185D01*
G37*
%TD.AperFunction*%
%TD*%
M02*
