%TF.GenerationSoftware,KiCad,Pcbnew,9.0.2*%
%TF.CreationDate,2025-08-18T15:59:43+02:00*%
%TF.ProjectId,esp32c6-charger,65737033-3263-4362-9d63-686172676572,rev?*%
%TF.SameCoordinates,Original*%
%TF.FileFunction,Copper,L1,Top*%
%TF.FilePolarity,Positive*%
%FSLAX46Y46*%
G04 Gerber Fmt 4.6, Leading zero omitted, Abs format (unit mm)*
G04 Created by KiCad (PCBNEW 9.0.2) date 2025-08-18 15:59:43*
%MOMM*%
%LPD*%
G01*
G04 APERTURE LIST*
G04 Aperture macros list*
%AMRoundRect*
0 Rectangle with rounded corners*
0 $1 Rounding radius*
0 $2 $3 $4 $5 $6 $7 $8 $9 X,Y pos of 4 corners*
0 Add a 4 corners polygon primitive as box body*
4,1,4,$2,$3,$4,$5,$6,$7,$8,$9,$2,$3,0*
0 Add four circle primitives for the rounded corners*
1,1,$1+$1,$2,$3*
1,1,$1+$1,$4,$5*
1,1,$1+$1,$6,$7*
1,1,$1+$1,$8,$9*
0 Add four rect primitives between the rounded corners*
20,1,$1+$1,$2,$3,$4,$5,0*
20,1,$1+$1,$4,$5,$6,$7,0*
20,1,$1+$1,$6,$7,$8,$9,0*
20,1,$1+$1,$8,$9,$2,$3,0*%
G04 Aperture macros list end*
%TA.AperFunction,ComponentPad*%
%ADD10C,2.000000*%
%TD*%
%TA.AperFunction,ComponentPad*%
%ADD11R,2.000000X2.000000*%
%TD*%
%TA.AperFunction,ComponentPad*%
%ADD12C,2.400000*%
%TD*%
%TA.AperFunction,ComponentPad*%
%ADD13RoundRect,0.250001X0.949999X0.949999X-0.949999X0.949999X-0.949999X-0.949999X0.949999X-0.949999X0*%
%TD*%
%TA.AperFunction,SMDPad,CuDef*%
%ADD14RoundRect,0.250000X0.400000X0.625000X-0.400000X0.625000X-0.400000X-0.625000X0.400000X-0.625000X0*%
%TD*%
%TA.AperFunction,SMDPad,CuDef*%
%ADD15RoundRect,0.150000X0.512500X0.150000X-0.512500X0.150000X-0.512500X-0.150000X0.512500X-0.150000X0*%
%TD*%
%TA.AperFunction,SMDPad,CuDef*%
%ADD16RoundRect,0.152400X1.063600X0.609600X-1.063600X0.609600X-1.063600X-0.609600X1.063600X-0.609600X0*%
%TD*%
%TA.AperFunction,ComponentPad*%
%ADD17C,1.524000*%
%TD*%
%TA.AperFunction,SMDPad,CuDef*%
%ADD18RoundRect,0.152400X-1.063600X-0.609600X1.063600X-0.609600X1.063600X0.609600X-1.063600X0.609600X0*%
%TD*%
%TA.AperFunction,ComponentPad*%
%ADD19R,1.700000X1.700000*%
%TD*%
%TA.AperFunction,ComponentPad*%
%ADD20C,1.700000*%
%TD*%
%TA.AperFunction,ViaPad*%
%ADD21C,0.600000*%
%TD*%
%TA.AperFunction,Conductor*%
%ADD22C,0.200000*%
%TD*%
%TA.AperFunction,Conductor*%
%ADD23C,2.000000*%
%TD*%
%TA.AperFunction,Conductor*%
%ADD24C,1.000000*%
%TD*%
G04 APERTURE END LIST*
D10*
%TO.P,K1,11*%
%TO.N,Net-(J2-Pin_3)*%
X86271500Y-115313500D03*
%TO.P,K1,12*%
%TO.N,Net-(J2-Pin_1)*%
X89771500Y-122813500D03*
%TO.P,K1,14*%
%TO.N,Net-(J2-Pin_2)*%
X82771500Y-122813500D03*
D11*
%TO.P,K1,A1*%
%TO.N,+5V*%
X106271500Y-122813500D03*
D10*
%TO.P,K1,A2*%
%TO.N,/Relais*%
X106271500Y-115313500D03*
%TD*%
D12*
%TO.P,J2,3,Pin_3*%
%TO.N,Net-(J2-Pin_3)*%
X85852000Y-96012000D03*
%TO.P,J2,2,Pin_2*%
%TO.N,Net-(J2-Pin_2)*%
X90932000Y-96012000D03*
D13*
%TO.P,J2,1,Pin_1*%
%TO.N,Net-(J2-Pin_1)*%
X96012000Y-96012000D03*
%TD*%
D14*
%TO.P,R2,1*%
%TO.N,Net-(U1-GPIO2{slash}A2{slash}D2)*%
X128804000Y-125984000D03*
%TO.P,R2,2*%
%TO.N,Net-(Q2-B)*%
X125704000Y-125984000D03*
%TD*%
%TO.P,R1,1*%
%TO.N,Net-(U1-GPIO21{slash}D3)*%
X128804000Y-119126000D03*
%TO.P,R1,2*%
%TO.N,Net-(Q1-B)*%
X125704000Y-119126000D03*
%TD*%
D15*
%TO.P,Q2,1,C*%
%TO.N,/Relais*%
X121787500Y-127442000D03*
%TO.P,Q2,2,B*%
%TO.N,Net-(Q2-B)*%
X121787500Y-125542000D03*
%TO.P,Q2,3,E*%
%TO.N,GND*%
X119512500Y-126492000D03*
%TD*%
%TO.P,Q1,1,C*%
%TO.N,/Cable lock*%
X122041500Y-120838000D03*
%TO.P,Q1,2,B*%
%TO.N,Net-(Q1-B)*%
X122041500Y-118938000D03*
%TO.P,Q1,3,E*%
%TO.N,GND*%
X119766500Y-119888000D03*
%TD*%
D16*
%TO.P,U1,1,GPIO0/A0/D0*%
%TO.N,unconnected-(U1-GPIO0{slash}A0{slash}D0-Pad1)*%
X133023000Y-117094000D03*
D17*
X133858000Y-117094000D03*
D16*
%TO.P,U1,2,GPIO1/A1/D1*%
%TO.N,/Cable Detect*%
X133023000Y-119634000D03*
D17*
X133858000Y-119634000D03*
D16*
%TO.P,U1,3,GPIO2/A2/D2*%
%TO.N,Net-(U1-GPIO2{slash}A2{slash}D2)*%
X133023000Y-122174000D03*
D17*
X133858000Y-122174000D03*
D16*
%TO.P,U1,4,GPIO21/D3*%
%TO.N,Net-(U1-GPIO21{slash}D3)*%
X133023000Y-124714000D03*
D17*
X133858000Y-124714000D03*
D16*
%TO.P,U1,5,GPIO22/D4/SDA*%
%TO.N,Net-(Brd1-SDA)*%
X133023000Y-127254000D03*
D17*
X133858000Y-127254000D03*
D16*
%TO.P,U1,6,GPIO23/D5/SCL*%
%TO.N,Net-(Brd1-SCL)*%
X133023000Y-129794000D03*
D17*
X133858000Y-129794000D03*
D16*
%TO.P,U1,7,GPIO16/D6/TX*%
%TO.N,unconnected-(U1-GPIO16{slash}D6{slash}TX-Pad7)*%
X133023000Y-132334000D03*
D17*
X133858000Y-132334000D03*
%TO.P,U1,8,GPIO17/D7/RX*%
%TO.N,Net-(RFID1-SDA)*%
X149098000Y-132334000D03*
D18*
X149933000Y-132334000D03*
D17*
%TO.P,U1,9,GPIO19/D8/SCK*%
%TO.N,Net-(RFID1-SCK)*%
X149098000Y-129794000D03*
D18*
X149933000Y-129794000D03*
D17*
%TO.P,U1,10,GPIO20/D9/MISO*%
%TO.N,Net-(RFID1-MISO)*%
X149098000Y-127254000D03*
D18*
X149933000Y-127254000D03*
D17*
%TO.P,U1,11,GPIO18/D10/MOSI*%
%TO.N,Net-(RFID1-MOSI)*%
X149098000Y-124714000D03*
D18*
X149933000Y-124714000D03*
D17*
%TO.P,U1,12,3V3*%
%TO.N,VCC*%
X149098000Y-122174000D03*
D18*
X149933000Y-122174000D03*
D17*
%TO.P,U1,13,GND*%
%TO.N,GND*%
X149098000Y-119634000D03*
D18*
X149933000Y-119634000D03*
D17*
%TO.P,U1,14,VBUS*%
%TO.N,+5V*%
X149098000Y-117094000D03*
D18*
X149933000Y-117094000D03*
%TD*%
D19*
%TO.P,RFID1,1,SDA*%
%TO.N,Net-(RFID1-SDA)*%
X160782000Y-106172000D03*
D20*
%TO.P,RFID1,2,SCK*%
%TO.N,Net-(RFID1-SCK)*%
X160782000Y-108712000D03*
%TO.P,RFID1,3,MOSI*%
%TO.N,Net-(RFID1-MOSI)*%
X160782000Y-111252000D03*
%TO.P,RFID1,4,MISO*%
%TO.N,Net-(RFID1-MISO)*%
X160782000Y-113792000D03*
%TO.P,RFID1,5,IRQ*%
%TO.N,unconnected-(RFID1-IRQ-Pad5)*%
X160782000Y-116332000D03*
%TO.P,RFID1,6,GND*%
%TO.N,GND*%
X160782000Y-118872000D03*
%TO.P,RFID1,7,RST*%
%TO.N,unconnected-(RFID1-RST-Pad7)*%
X160782000Y-121412000D03*
%TO.P,RFID1,8,3\u002C3V*%
%TO.N,VCC*%
X160782000Y-123952000D03*
%TD*%
D19*
%TO.P,Brd1,1,GND*%
%TO.N,GND*%
X127762000Y-107188000D03*
D20*
%TO.P,Brd1,2,VCC*%
%TO.N,VCC*%
X130302000Y-107188000D03*
%TO.P,Brd1,3,SCL*%
%TO.N,Net-(Brd1-SCL)*%
X132842000Y-107188000D03*
%TO.P,Brd1,4,SDA*%
%TO.N,Net-(Brd1-SDA)*%
X135382000Y-107188000D03*
%TD*%
D13*
%TO.P,J1,1,Pin_1*%
%TO.N,+5V*%
X151384000Y-96266000D03*
D12*
%TO.P,J1,2,Pin_2*%
%TO.N,VCC*%
X146304000Y-96266000D03*
%TO.P,J1,3,Pin_3*%
%TO.N,/Cable lock*%
X141224000Y-96266000D03*
%TO.P,J1,4,Pin_4*%
%TO.N,/Cable Detect*%
X136144000Y-96266000D03*
%TO.P,J1,5,Pin_5*%
%TO.N,GND*%
X131064000Y-96266000D03*
%TO.P,J1,6,Pin_6*%
X125984000Y-96266000D03*
%TD*%
D21*
%TO.N,GND*%
X118110000Y-126492000D03*
X118110000Y-119888000D03*
%TD*%
D22*
%TO.N,/Cable lock*%
X141224000Y-95504000D02*
X139192000Y-93472000D01*
X123591000Y-95103000D02*
X123591000Y-112942100D01*
X121600000Y-120838000D02*
X122041500Y-120838000D01*
X139192000Y-93472000D02*
X125222000Y-93472000D01*
X125222000Y-93472000D02*
X123591000Y-95103000D01*
X123591000Y-112942100D02*
X120904000Y-115629100D01*
X120904000Y-120142000D02*
X121600000Y-120838000D01*
X120904000Y-115629100D02*
X120904000Y-120142000D01*
%TO.N,Net-(U1-GPIO2{slash}A2{slash}D2)*%
X128804000Y-125984000D02*
X134366000Y-125984000D01*
X134366000Y-125984000D02*
X135128000Y-125222000D01*
X135128000Y-125222000D02*
X135128000Y-122682000D01*
X135128000Y-122682000D02*
X134620000Y-122174000D01*
X134620000Y-122174000D02*
X133858000Y-122174000D01*
%TO.N,Net-(Brd1-SDA)*%
X135382000Y-107188000D02*
X135636000Y-107442000D01*
X135636000Y-107442000D02*
X135636000Y-126492000D01*
X135636000Y-126492000D02*
X134874000Y-127254000D01*
X134874000Y-127254000D02*
X133858000Y-127254000D01*
%TO.N,Net-(Brd1-SCL)*%
X132842000Y-107188000D02*
X132842000Y-106172000D01*
X136144000Y-105664000D02*
X136906000Y-106426000D01*
X132842000Y-106172000D02*
X133350000Y-105664000D01*
X133350000Y-105664000D02*
X136144000Y-105664000D01*
X136906000Y-106426000D02*
X136906000Y-128778000D01*
X135890000Y-129794000D02*
X133858000Y-129794000D01*
X136906000Y-128778000D02*
X135890000Y-129794000D01*
%TO.N,+5V*%
X151384000Y-116840000D02*
X151384000Y-95504000D01*
X123190000Y-112776000D02*
X113152500Y-122813500D01*
X151130000Y-117094000D02*
X151384000Y-116840000D01*
X113152500Y-122813500D02*
X106271500Y-122813500D01*
X151384000Y-95504000D02*
X148697000Y-92817000D01*
X149933000Y-117094000D02*
X151130000Y-117094000D01*
X148697000Y-92817000D02*
X125046586Y-92817000D01*
X125046586Y-92817000D02*
X123190000Y-94673586D01*
X123190000Y-94673586D02*
X123190000Y-112776000D01*
D23*
%TO.N,Net-(J2-Pin_3)*%
X85852000Y-104394000D02*
X85852000Y-95504000D01*
X86271500Y-115313500D02*
X86271500Y-104813500D01*
D22*
%TO.N,/Relais*%
X121787500Y-127442000D02*
X106106000Y-127442000D01*
X106106000Y-127442000D02*
X104648000Y-125984000D01*
X104648000Y-116937000D02*
X106271500Y-115313500D01*
X104648000Y-125984000D02*
X104648000Y-116937000D01*
%TO.N,GND*%
X118110000Y-119888000D02*
X119766500Y-119888000D01*
X118110000Y-126492000D02*
X119512500Y-126492000D01*
%TO.N,Net-(U1-GPIO21{slash}D3)*%
X128804000Y-119126000D02*
X128804000Y-123470000D01*
X128804000Y-123470000D02*
X130048000Y-124714000D01*
X130048000Y-124714000D02*
X133023000Y-124714000D01*
%TO.N,Net-(RFID1-MISO)*%
X160782000Y-113792000D02*
X162306000Y-115316000D01*
X162306000Y-115316000D02*
X162306000Y-124460000D01*
X153416000Y-123444000D02*
X148590000Y-123444000D01*
X162306000Y-124460000D02*
X161290000Y-125476000D01*
X161290000Y-125476000D02*
X155448000Y-125476000D01*
X147828000Y-125984000D02*
X149098000Y-127254000D01*
X155448000Y-125476000D02*
X153416000Y-123444000D01*
X148590000Y-123444000D02*
X147828000Y-124206000D01*
X147828000Y-124206000D02*
X147828000Y-125984000D01*
%TO.N,Net-(RFID1-SCK)*%
X149098000Y-129794000D02*
X161798000Y-129794000D01*
X161798000Y-129794000D02*
X163322000Y-128270000D01*
X163322000Y-128270000D02*
X163322000Y-111252000D01*
X163322000Y-111252000D02*
X160782000Y-108712000D01*
%TO.N,Net-(RFID1-SDA)*%
X149933000Y-132334000D02*
X162306000Y-132334000D01*
X162306000Y-132334000D02*
X163830000Y-130810000D01*
X163830000Y-130810000D02*
X163830000Y-109220000D01*
X163830000Y-109220000D02*
X160782000Y-106172000D01*
%TO.N,Net-(RFID1-MOSI)*%
X160782000Y-111252000D02*
X162814000Y-113284000D01*
X162814000Y-113284000D02*
X162814000Y-125222000D01*
X162814000Y-125222000D02*
X161798000Y-126238000D01*
X150575000Y-126191000D02*
X149098000Y-124714000D01*
X151235626Y-126238000D02*
X151188626Y-126191000D01*
X161798000Y-126238000D02*
X151235626Y-126238000D01*
X151188626Y-126191000D02*
X150575000Y-126191000D01*
%TO.N,Net-(J2-Pin_2)*%
X82935500Y-122813500D02*
X83058000Y-122936000D01*
X82771500Y-122813500D02*
X82935500Y-122813500D01*
%TO.N,Net-(J2-Pin_3)*%
X85852000Y-114894000D02*
X86271500Y-115313500D01*
%TO.N,VCC*%
X149933000Y-122174000D02*
X146304000Y-118545000D01*
X146304000Y-118545000D02*
X146304000Y-104648000D01*
X146304000Y-95504000D02*
X146304000Y-104648000D01*
X130302000Y-107188000D02*
X132842000Y-104648000D01*
X132842000Y-104648000D02*
X146304000Y-104648000D01*
%TO.N,/Cable Detect*%
X133023000Y-119634000D02*
X128913000Y-115524000D01*
X128913000Y-115524000D02*
X128913000Y-102735000D01*
X128913000Y-102735000D02*
X136144000Y-95504000D01*
%TO.N,VCC*%
X153162000Y-122174000D02*
X154940000Y-123952000D01*
X154940000Y-123952000D02*
X160782000Y-123952000D01*
X149098000Y-122174000D02*
X153162000Y-122174000D01*
%TO.N,Net-(Q1-B)*%
X122041500Y-118938000D02*
X125516000Y-118938000D01*
X125516000Y-118938000D02*
X125704000Y-119126000D01*
%TO.N,Net-(Q2-B)*%
X121787500Y-125542000D02*
X125262000Y-125542000D01*
X125262000Y-125542000D02*
X125704000Y-125984000D01*
D24*
%TO.N,Net-(J2-Pin_3)*%
X86271500Y-104813500D02*
X85852000Y-104394000D01*
D23*
%TO.N,Net-(J2-Pin_2)*%
X84450500Y-122813500D02*
X82771500Y-122813500D01*
X90932000Y-95504000D02*
X90932000Y-116332000D01*
%TO.N,Net-(J2-Pin_1)*%
X96012000Y-95504000D02*
X96012000Y-116573000D01*
%TO.N,Net-(J2-Pin_2)*%
X90932000Y-116332000D02*
X84450500Y-122813500D01*
%TO.N,Net-(J2-Pin_1)*%
X96012000Y-116573000D02*
X89771500Y-122813500D01*
%TD*%
M02*
