%TF.GenerationSoftware,KiCad,Pcbnew,9.0.4*%
%TF.CreationDate,2025-08-29T10:20:17+02:00*%
%TF.ProjectId,esp32c6-charger,65737033-3263-4362-9d63-686172676572,rev?*%
%TF.SameCoordinates,Original*%
%TF.FileFunction,Copper,L1,Top*%
%TF.FilePolarity,Positive*%
%FSLAX46Y46*%
G04 Gerber Fmt 4.6, Leading zero omitted, Abs format (unit mm)*
G04 Created by KiCad (PCBNEW 9.0.4) date 2025-08-29 10:20:17*
%MOMM*%
%LPD*%
G01*
G04 APERTURE LIST*
G04 Aperture macros list*
%AMRoundRect*
0 Rectangle with rounded corners*
0 $1 Rounding radius*
0 $2 $3 $4 $5 $6 $7 $8 $9 X,Y pos of 4 corners*
0 Add a 4 corners polygon primitive as box body*
4,1,4,$2,$3,$4,$5,$6,$7,$8,$9,$2,$3,0*
0 Add four circle primitives for the rounded corners*
1,1,$1+$1,$2,$3*
1,1,$1+$1,$4,$5*
1,1,$1+$1,$6,$7*
1,1,$1+$1,$8,$9*
0 Add four rect primitives between the rounded corners*
20,1,$1+$1,$2,$3,$4,$5,0*
20,1,$1+$1,$4,$5,$6,$7,0*
20,1,$1+$1,$6,$7,$8,$9,0*
20,1,$1+$1,$8,$9,$2,$3,0*%
G04 Aperture macros list end*
%TA.AperFunction,ComponentPad*%
%ADD10O,1.600000X2.000000*%
%TD*%
%TA.AperFunction,ComponentPad*%
%ADD11R,1.700000X1.700000*%
%TD*%
%TA.AperFunction,ComponentPad*%
%ADD12C,1.700000*%
%TD*%
%TA.AperFunction,SMDPad,CuDef*%
%ADD13RoundRect,0.090000X-0.660000X-0.360000X0.660000X-0.360000X0.660000X0.360000X-0.660000X0.360000X0*%
%TD*%
%TA.AperFunction,ComponentPad*%
%ADD14C,1.524000*%
%TD*%
%TA.AperFunction,ComponentPad*%
%ADD15RoundRect,0.250000X-1.050000X-1.050000X1.050000X-1.050000X1.050000X1.050000X-1.050000X1.050000X0*%
%TD*%
%TA.AperFunction,ComponentPad*%
%ADD16C,2.600000*%
%TD*%
%TA.AperFunction,ComponentPad*%
%ADD17C,2.000000*%
%TD*%
%TA.AperFunction,ComponentPad*%
%ADD18R,2.000000X2.000000*%
%TD*%
%TA.AperFunction,Conductor*%
%ADD19C,0.200000*%
%TD*%
G04 APERTURE END LIST*
D10*
%TO.P,Display1,1,GND*%
%TO.N,GND*%
X125476000Y-91567000D03*
%TO.P,Display1,2,VCC*%
%TO.N,VCC*%
X128016000Y-91567000D03*
%TO.P,Display1,3,SCL*%
%TO.N,/SCL*%
X130556000Y-91567000D03*
%TO.P,Display1,4,SDA*%
%TO.N,/SDA*%
X133096000Y-91567000D03*
%TD*%
D11*
%TO.P,Rfidreader1,1,SDA*%
%TO.N,/CS*%
X158496000Y-90551000D03*
D12*
%TO.P,Rfidreader1,2,SCK*%
%TO.N,/SCK*%
X158496000Y-93091000D03*
%TO.P,Rfidreader1,3,MOSI*%
%TO.N,/MOSI*%
X158496000Y-95631000D03*
%TO.P,Rfidreader1,4,MISO*%
%TO.N,/MISO*%
X158496000Y-98171000D03*
%TO.P,Rfidreader1,5,IRQ*%
%TO.N,unconnected-(Rfidreader1-IRQ-Pad5)*%
X158496000Y-100711000D03*
%TO.P,Rfidreader1,6,GND*%
%TO.N,GND*%
X158496000Y-103251000D03*
%TO.P,Rfidreader1,7,RST*%
%TO.N,unconnected-(Rfidreader1-RST-Pad7)*%
X158496000Y-105791000D03*
%TO.P,Rfidreader1,8,3\u002C3V*%
%TO.N,VCC*%
X158496000Y-108331000D03*
%TD*%
D13*
%TO.P,D1,1,VDD*%
%TO.N,VDD*%
X147754000Y-91061000D03*
%TO.P,D1,2,DOUT*%
%TO.N,unconnected-(D1-DOUT-Pad2)*%
X147754000Y-94361000D03*
%TO.P,D1,3,VSS*%
%TO.N,GND*%
X152654000Y-94361000D03*
%TO.P,D1,4,DIN*%
%TO.N,/LED*%
X152654000Y-91061000D03*
%TD*%
D14*
%TO.P,U2,1,GPIO0/A0/D0*%
%TO.N,/LED*%
X131572000Y-121285000D03*
%TO.P,U2,2,GPIO1/A1/D1*%
%TO.N,/Detect*%
X131572000Y-118745000D03*
%TO.P,U2,3,GPIO2/A2/D2*%
%TO.N,Net-(U2-GPIO2{slash}A2{slash}D2)*%
X131572000Y-116205000D03*
%TO.P,U2,4,GPIO21/D3*%
%TO.N,Net-(U2-GPIO21{slash}D3)*%
X131572000Y-113665000D03*
%TO.P,U2,5,GPIO22/D4/SDA*%
%TO.N,/SDA*%
X131572000Y-111125000D03*
%TO.P,U2,6,GPIO23/D5/SCL*%
%TO.N,/SCL*%
X131572000Y-108585000D03*
%TO.P,U2,7,GPIO16/D6/TX*%
%TO.N,unconnected-(U2-GPIO16{slash}D6{slash}TX-Pad7)*%
X131572000Y-106045000D03*
%TO.P,U2,8,GPIO17/D7/RX*%
%TO.N,/CS*%
X146812000Y-106045000D03*
%TO.P,U2,9,GPIO19/D8/SCK*%
%TO.N,/SCK*%
X146812000Y-108585000D03*
%TO.P,U2,10,GPIO20/D9/MISO*%
%TO.N,/MISO*%
X146812000Y-111125000D03*
%TO.P,U2,11,GPIO18/D10/MOSI*%
%TO.N,/MOSI*%
X146812000Y-113665000D03*
%TO.P,U2,12,3V3*%
%TO.N,VCC*%
X146812000Y-116205000D03*
%TO.P,U2,13,GND*%
%TO.N,GND*%
X146812000Y-118745000D03*
%TO.P,U2,14,VBUS*%
%TO.N,VDD*%
X146812000Y-121285000D03*
%TD*%
D15*
%TO.P,J1,1,Pin_1*%
%TO.N,+12V*%
X106426000Y-79629000D03*
D16*
%TO.P,J1,2,Pin_2*%
%TO.N,GND*%
X111506000Y-79629000D03*
%TD*%
D17*
%TO.P,K1,11*%
%TO.N,Net-(J3-Pin_2)*%
X83731500Y-113034500D03*
X83731500Y-105534500D03*
%TO.P,K1,12*%
%TO.N,Net-(J3-Pin_3)*%
X88731500Y-113034500D03*
X88731500Y-105534500D03*
%TO.P,K1,14*%
%TO.N,Net-(J3-Pin_1)*%
X78731500Y-113034500D03*
X78731500Y-105534500D03*
D18*
%TO.P,K1,A1*%
%TO.N,VDD*%
X103731500Y-113034500D03*
D17*
%TO.P,K1,A2*%
%TO.N,/Relay*%
X103731500Y-105534500D03*
%TD*%
D15*
%TO.P,J2,1,Pin_1*%
%TO.N,VDD*%
X122428000Y-79629000D03*
D16*
%TO.P,J2,2,Pin_2*%
%TO.N,VCC*%
X127508000Y-79629000D03*
%TO.P,J2,3,Pin_3*%
%TO.N,/Lock*%
X132588000Y-79629000D03*
%TO.P,J2,4,Pin_4*%
%TO.N,/Detect*%
X137668000Y-79629000D03*
%TO.P,J2,5,Pin_5*%
%TO.N,GND*%
X142748000Y-79629000D03*
%TO.P,J2,6,Pin_6*%
X147828000Y-79629000D03*
%TD*%
D15*
%TO.P,J3,1,Pin_1*%
%TO.N,Net-(J3-Pin_1)*%
X83566000Y-79629000D03*
D16*
%TO.P,J3,2,Pin_2*%
%TO.N,Net-(J3-Pin_2)*%
X88646000Y-79629000D03*
%TO.P,J3,3,Pin_3*%
%TO.N,Net-(J3-Pin_3)*%
X93726000Y-79629000D03*
%TD*%
D19*
%TO.N,VCC*%
X158496000Y-114935000D02*
X158496000Y-108331000D01*
X144272000Y-122809000D02*
X145542000Y-121539000D01*
X145542000Y-117221000D02*
X146558000Y-116205000D01*
X145542000Y-121539000D02*
X145542000Y-117221000D01*
X128016000Y-91567000D02*
X128016000Y-121539000D01*
X157226000Y-116205000D02*
X158496000Y-114935000D01*
X146558000Y-116205000D02*
X148082000Y-116205000D01*
X129286000Y-122809000D02*
X144272000Y-122809000D01*
X148082000Y-116205000D02*
X146812000Y-116205000D01*
X128016000Y-79883000D02*
X128016000Y-91567000D01*
X127508000Y-79375000D02*
X128016000Y-79883000D01*
X146812000Y-116205000D02*
X157226000Y-116205000D01*
X128016000Y-121539000D02*
X129286000Y-122809000D01*
%TO.N,VDD*%
X103731500Y-113034500D02*
X113907000Y-123210000D01*
X138430000Y-77343000D02*
X140208000Y-79121000D01*
X140208000Y-90043000D02*
X141226000Y-91061000D01*
X122428000Y-79375000D02*
X124460000Y-77343000D01*
X113907000Y-123210000D02*
X144887000Y-123210000D01*
X144887000Y-123210000D02*
X146812000Y-121285000D01*
X141226000Y-91061000D02*
X147754000Y-91061000D01*
X140208000Y-79121000D02*
X140208000Y-90043000D01*
X124460000Y-77343000D02*
X138430000Y-77343000D01*
%TO.N,/LED*%
X137922000Y-93599000D02*
X129794000Y-93599000D01*
X152654000Y-91061000D02*
X152654000Y-92329000D01*
X129794000Y-93599000D02*
X128524000Y-94869000D01*
X151892000Y-93091000D02*
X138430000Y-93091000D01*
X128524000Y-94869000D02*
X128524000Y-120523000D01*
X152654000Y-92329000D02*
X151892000Y-93091000D01*
X138430000Y-93091000D02*
X137922000Y-93599000D01*
X128524000Y-120523000D02*
X129286000Y-121285000D01*
X129286000Y-121285000D02*
X131572000Y-121285000D01*
%TD*%
%TA.AperFunction,Conductor*%
%TO.N,GND*%
G36*
X227156539Y-74899185D02*
G01*
X227202294Y-74951989D01*
X227213500Y-75003500D01*
X227213500Y-77986430D01*
X227193815Y-78053469D01*
X227141011Y-78099224D01*
X227071853Y-78109168D01*
X227008297Y-78080143D01*
X226970523Y-78021365D01*
X226967883Y-78010622D01*
X226966007Y-78001192D01*
X226966005Y-78001184D01*
X226966004Y-78001181D01*
X226966003Y-78001175D01*
X226864493Y-77666541D01*
X226730672Y-77343469D01*
X226565828Y-77035068D01*
X226371550Y-76744311D01*
X226149708Y-76473996D01*
X226149707Y-76473995D01*
X226149703Y-76473990D01*
X225902444Y-76226731D01*
X225632129Y-76004889D01*
X225632128Y-76004888D01*
X225632124Y-76004885D01*
X225341367Y-75810607D01*
X225341362Y-75810604D01*
X225341355Y-75810600D01*
X225032973Y-75645766D01*
X225032968Y-75645764D01*
X224709895Y-75511942D01*
X224375250Y-75410429D01*
X224375239Y-75410426D01*
X224032294Y-75342212D01*
X224032277Y-75342209D01*
X223769113Y-75316290D01*
X223684281Y-75307935D01*
X223334589Y-75307935D01*
X223256132Y-75315662D01*
X222986592Y-75342209D01*
X222986575Y-75342212D01*
X222643630Y-75410426D01*
X222643619Y-75410429D01*
X222308974Y-75511942D01*
X221985901Y-75645764D01*
X221985896Y-75645766D01*
X221677514Y-75810600D01*
X221677496Y-75810611D01*
X221386754Y-76004879D01*
X221386740Y-76004889D01*
X221116425Y-76226731D01*
X220869166Y-76473990D01*
X220647324Y-76744305D01*
X220647314Y-76744319D01*
X220453046Y-77035061D01*
X220453035Y-77035079D01*
X220288201Y-77343461D01*
X220288199Y-77343466D01*
X220154377Y-77666539D01*
X220052864Y-78001184D01*
X220052861Y-78001195D01*
X219984647Y-78344140D01*
X219984644Y-78344157D01*
X219964836Y-78545275D01*
X219950370Y-78692154D01*
X219950370Y-78723568D01*
X219950370Y-79041846D01*
X219956336Y-79102415D01*
X219984644Y-79389842D01*
X219984647Y-79389859D01*
X220052861Y-79732804D01*
X220052864Y-79732815D01*
X220154377Y-80067460D01*
X220212015Y-80206609D01*
X220270282Y-80347279D01*
X220288199Y-80390533D01*
X220288201Y-80390538D01*
X220453035Y-80698920D01*
X220453046Y-80698938D01*
X220647314Y-80989680D01*
X220647324Y-80989694D01*
X220869166Y-81260009D01*
X221116425Y-81507268D01*
X221116430Y-81507272D01*
X221116431Y-81507273D01*
X221386746Y-81729115D01*
X221677503Y-81923393D01*
X221677512Y-81923398D01*
X221677514Y-81923399D01*
X221985896Y-82088233D01*
X221985898Y-82088233D01*
X221985904Y-82088237D01*
X222308976Y-82222058D01*
X222643610Y-82323568D01*
X222643616Y-82323569D01*
X222643619Y-82323570D01*
X222643630Y-82323573D01*
X222858686Y-82366349D01*
X222986582Y-82391789D01*
X223334589Y-82426065D01*
X223334592Y-82426065D01*
X223684278Y-82426065D01*
X223684281Y-82426065D01*
X224032288Y-82391789D01*
X224202047Y-82358021D01*
X224375239Y-82323573D01*
X224375250Y-82323570D01*
X224375250Y-82323569D01*
X224375260Y-82323568D01*
X224709894Y-82222058D01*
X225032966Y-82088237D01*
X225341367Y-81923393D01*
X225632124Y-81729115D01*
X225902439Y-81507273D01*
X226149708Y-81260004D01*
X226371550Y-80989689D01*
X226565828Y-80698932D01*
X226730672Y-80390531D01*
X226864493Y-80067459D01*
X226966003Y-79732825D01*
X226967882Y-79723379D01*
X227000267Y-79661467D01*
X227060983Y-79626893D01*
X227130752Y-79630632D01*
X227187424Y-79671498D01*
X227213006Y-79736516D01*
X227213500Y-79747569D01*
X227213500Y-119134430D01*
X227193815Y-119201469D01*
X227141011Y-119247224D01*
X227071853Y-119257168D01*
X227008297Y-119228143D01*
X226970523Y-119169365D01*
X226967883Y-119158622D01*
X226966007Y-119149192D01*
X226966005Y-119149184D01*
X226966004Y-119149181D01*
X226966003Y-119149175D01*
X226864493Y-118814541D01*
X226730672Y-118491469D01*
X226724831Y-118480542D01*
X226565834Y-118183079D01*
X226565833Y-118183077D01*
X226565828Y-118183068D01*
X226371550Y-117892311D01*
X226149708Y-117621996D01*
X226149707Y-117621995D01*
X226149703Y-117621990D01*
X225902444Y-117374731D01*
X225632129Y-117152889D01*
X225632128Y-117152888D01*
X225632124Y-117152885D01*
X225341367Y-116958607D01*
X225341362Y-116958604D01*
X225341355Y-116958600D01*
X225032973Y-116793766D01*
X225032968Y-116793764D01*
X224709895Y-116659942D01*
X224375250Y-116558429D01*
X224375239Y-116558426D01*
X224032294Y-116490212D01*
X224032277Y-116490209D01*
X223769113Y-116464290D01*
X223684281Y-116455935D01*
X223334589Y-116455935D01*
X223256132Y-116463662D01*
X222986592Y-116490209D01*
X222986575Y-116490212D01*
X222643630Y-116558426D01*
X222643619Y-116558429D01*
X222308974Y-116659942D01*
X221985901Y-116793764D01*
X221985896Y-116793766D01*
X221677514Y-116958600D01*
X221677496Y-116958611D01*
X221386754Y-117152879D01*
X221386740Y-117152889D01*
X221116425Y-117374731D01*
X220869166Y-117621990D01*
X220647324Y-117892305D01*
X220647314Y-117892319D01*
X220453046Y-118183061D01*
X220453035Y-118183079D01*
X220288201Y-118491461D01*
X220288199Y-118491466D01*
X220154377Y-118814539D01*
X220052864Y-119149184D01*
X220052861Y-119149195D01*
X219984647Y-119492140D01*
X219984644Y-119492157D01*
X219950370Y-119840157D01*
X219950370Y-120189842D01*
X219984644Y-120537842D01*
X219984647Y-120537859D01*
X220052861Y-120880804D01*
X220052864Y-120880815D01*
X220154377Y-121215460D01*
X220249003Y-121443907D01*
X220270282Y-121495279D01*
X220288199Y-121538533D01*
X220288201Y-121538538D01*
X220453035Y-121846920D01*
X220453046Y-121846938D01*
X220647314Y-122137680D01*
X220647324Y-122137694D01*
X220869166Y-122408009D01*
X221116425Y-122655268D01*
X221116430Y-122655272D01*
X221116431Y-122655273D01*
X221386746Y-122877115D01*
X221677503Y-123071393D01*
X221677512Y-123071398D01*
X221677514Y-123071399D01*
X221985896Y-123236233D01*
X221985898Y-123236233D01*
X221985904Y-123236237D01*
X222308976Y-123370058D01*
X222643610Y-123471568D01*
X222643616Y-123471569D01*
X222643619Y-123471570D01*
X222643630Y-123471573D01*
X222858686Y-123514349D01*
X222986582Y-123539789D01*
X223334589Y-123574065D01*
X223334592Y-123574065D01*
X223684278Y-123574065D01*
X223684281Y-123574065D01*
X224032288Y-123539789D01*
X224202047Y-123506021D01*
X224375239Y-123471573D01*
X224375250Y-123471570D01*
X224375250Y-123471569D01*
X224375260Y-123471568D01*
X224709894Y-123370058D01*
X225032966Y-123236237D01*
X225341367Y-123071393D01*
X225632124Y-122877115D01*
X225902439Y-122655273D01*
X226149708Y-122408004D01*
X226371550Y-122137689D01*
X226565828Y-121846932D01*
X226730672Y-121538531D01*
X226864493Y-121215459D01*
X226966003Y-120880825D01*
X226967882Y-120871379D01*
X227000267Y-120809467D01*
X227060983Y-120774893D01*
X227130752Y-120778632D01*
X227187424Y-120819498D01*
X227213006Y-120884516D01*
X227213500Y-120895569D01*
X227213500Y-123754500D01*
X227193815Y-123821539D01*
X227141011Y-123867294D01*
X227089500Y-123878500D01*
X145367099Y-123878500D01*
X145345855Y-123872262D01*
X145323768Y-123870683D01*
X145312982Y-123862609D01*
X145300060Y-123858815D01*
X145285561Y-123842083D01*
X145267833Y-123828812D01*
X145263124Y-123816189D01*
X145254305Y-123806011D01*
X145251154Y-123784096D01*
X145243415Y-123763349D01*
X145246278Y-123750186D01*
X145244361Y-123736853D01*
X145253559Y-123716710D01*
X145258266Y-123695075D01*
X145271536Y-123677346D01*
X145273386Y-123673297D01*
X145279416Y-123666821D01*
X145279417Y-123666819D01*
X145279418Y-123666818D01*
X145367520Y-123578716D01*
X145367521Y-123578713D01*
X146397473Y-122548760D01*
X146458794Y-122515277D01*
X146511521Y-122515841D01*
X146511552Y-122515651D01*
X146512843Y-122515855D01*
X146514099Y-122515869D01*
X146516352Y-122516409D01*
X146516364Y-122516413D01*
X146712639Y-122547500D01*
X146712640Y-122547500D01*
X146911360Y-122547500D01*
X146911361Y-122547500D01*
X147107636Y-122516413D01*
X147296632Y-122455005D01*
X147473694Y-122364787D01*
X147634464Y-122247981D01*
X147774981Y-122107464D01*
X147891787Y-121946694D01*
X147982005Y-121769632D01*
X148043413Y-121580636D01*
X148074500Y-121384361D01*
X148074500Y-121185639D01*
X148043413Y-120989364D01*
X147988221Y-120819498D01*
X147982006Y-120800370D01*
X147982005Y-120800367D01*
X147912937Y-120664815D01*
X147891787Y-120623306D01*
X147774981Y-120462536D01*
X147634464Y-120322019D01*
X147473694Y-120205213D01*
X147316667Y-120125203D01*
X147265872Y-120077229D01*
X147249077Y-120009408D01*
X147271614Y-119943273D01*
X147316669Y-119904234D01*
X147473422Y-119824364D01*
X147510715Y-119797268D01*
X146896094Y-119182647D01*
X146983571Y-119159208D01*
X147084930Y-119100689D01*
X147167689Y-119017930D01*
X147226208Y-118916571D01*
X147249647Y-118829094D01*
X147864268Y-119443715D01*
X147891362Y-119406425D01*
X147981542Y-119229437D01*
X148042924Y-119040523D01*
X148042924Y-119040520D01*
X148074000Y-118844321D01*
X148074000Y-118645678D01*
X148042924Y-118449479D01*
X148042924Y-118449476D01*
X147981542Y-118260562D01*
X147891358Y-118083567D01*
X147864268Y-118046283D01*
X147249647Y-118660904D01*
X147226208Y-118573429D01*
X147167689Y-118472070D01*
X147084930Y-118389311D01*
X146983571Y-118330792D01*
X146896093Y-118307352D01*
X147510715Y-117692730D01*
X147473432Y-117665641D01*
X147316668Y-117585765D01*
X147265872Y-117537790D01*
X147249077Y-117469969D01*
X147271615Y-117403834D01*
X147316667Y-117364796D01*
X147473694Y-117284787D01*
X147634464Y-117167981D01*
X147774981Y-117027464D01*
X147891787Y-116866694D01*
X147891789Y-116866689D01*
X147893000Y-116864715D01*
X147893656Y-116864121D01*
X147894651Y-116862752D01*
X147894938Y-116862960D01*
X147944810Y-116817837D01*
X147998730Y-116805500D01*
X157139331Y-116805500D01*
X157139347Y-116805501D01*
X157146943Y-116805501D01*
X157305054Y-116805501D01*
X157305057Y-116805501D01*
X157457785Y-116764577D01*
X157507904Y-116735639D01*
X157594716Y-116685520D01*
X157706520Y-116573716D01*
X157706520Y-116573714D01*
X157716728Y-116563507D01*
X157716730Y-116563504D01*
X158864713Y-115415521D01*
X158864716Y-115415520D01*
X158976520Y-115303716D01*
X159026639Y-115216904D01*
X159055577Y-115166785D01*
X159096500Y-115014058D01*
X159096500Y-114855943D01*
X159096500Y-109616718D01*
X159116185Y-109549679D01*
X159164207Y-109506233D01*
X159203815Y-109486052D01*
X159203815Y-109486051D01*
X159203816Y-109486051D01*
X159311980Y-109407466D01*
X159375786Y-109361109D01*
X159375788Y-109361106D01*
X159375792Y-109361104D01*
X159526104Y-109210792D01*
X159526106Y-109210788D01*
X159526109Y-109210786D01*
X159651048Y-109038820D01*
X159651047Y-109038820D01*
X159651051Y-109038816D01*
X159747557Y-108849412D01*
X159813246Y-108647243D01*
X159846500Y-108437287D01*
X159846500Y-108224713D01*
X159813246Y-108014757D01*
X159747557Y-107812588D01*
X159651051Y-107623184D01*
X159651049Y-107623181D01*
X159651048Y-107623179D01*
X159526109Y-107451213D01*
X159375786Y-107300890D01*
X159203820Y-107175951D01*
X159203115Y-107175591D01*
X159195054Y-107171485D01*
X159144259Y-107123512D01*
X159127463Y-107055692D01*
X159149999Y-106989556D01*
X159195054Y-106950515D01*
X159203816Y-106946051D01*
X159311980Y-106867466D01*
X159375786Y-106821109D01*
X159375788Y-106821106D01*
X159375792Y-106821104D01*
X159526104Y-106670792D01*
X159526106Y-106670788D01*
X159526109Y-106670786D01*
X159651048Y-106498820D01*
X159651047Y-106498820D01*
X159651051Y-106498816D01*
X159747557Y-106309412D01*
X159813246Y-106107243D01*
X159846500Y-105897287D01*
X159846500Y-105684713D01*
X159813246Y-105474757D01*
X159747557Y-105272588D01*
X159651051Y-105083184D01*
X159651049Y-105083181D01*
X159651048Y-105083179D01*
X159526109Y-104911213D01*
X159375786Y-104760890D01*
X159203817Y-104635949D01*
X159194504Y-104631204D01*
X159143707Y-104583230D01*
X159126912Y-104515409D01*
X159149449Y-104449274D01*
X159194507Y-104410232D01*
X159203555Y-104405622D01*
X159257716Y-104366270D01*
X159257717Y-104366270D01*
X158625408Y-103733962D01*
X158688993Y-103716925D01*
X158803007Y-103651099D01*
X158896099Y-103558007D01*
X158961925Y-103443993D01*
X158978962Y-103380408D01*
X159611270Y-104012717D01*
X159611270Y-104012716D01*
X159650622Y-103958554D01*
X159747095Y-103769217D01*
X159812757Y-103567130D01*
X159812757Y-103567127D01*
X159846000Y-103357246D01*
X159846000Y-103144753D01*
X159812757Y-102934872D01*
X159812757Y-102934869D01*
X159747095Y-102732782D01*
X159650624Y-102543449D01*
X159611270Y-102489282D01*
X159611269Y-102489282D01*
X158978962Y-103121590D01*
X158961925Y-103058007D01*
X158896099Y-102943993D01*
X158803007Y-102850901D01*
X158688993Y-102785075D01*
X158625409Y-102768037D01*
X159257716Y-102135728D01*
X159203547Y-102096373D01*
X159203547Y-102096372D01*
X159194500Y-102091763D01*
X159143706Y-102043788D01*
X159126912Y-101975966D01*
X159149451Y-101909832D01*
X159194508Y-101870793D01*
X159203816Y-101866051D01*
X159283007Y-101808515D01*
X159375786Y-101741109D01*
X159375788Y-101741106D01*
X159375792Y-101741104D01*
X159526104Y-101590792D01*
X159526106Y-101590788D01*
X159526109Y-101590786D01*
X159651048Y-101418820D01*
X159651047Y-101418820D01*
X159651051Y-101418816D01*
X159747557Y-101229412D01*
X159813246Y-101027243D01*
X159846500Y-100817287D01*
X159846500Y-100604713D01*
X159813246Y-100394757D01*
X159747557Y-100192588D01*
X159651051Y-100003184D01*
X159651049Y-100003181D01*
X159651048Y-100003179D01*
X159526109Y-99831213D01*
X159375786Y-99680890D01*
X159203820Y-99555951D01*
X159203115Y-99555591D01*
X159195054Y-99551485D01*
X159144259Y-99503512D01*
X159127463Y-99435692D01*
X159149999Y-99369556D01*
X159195054Y-99330515D01*
X159203816Y-99326051D01*
X159225789Y-99310086D01*
X159375786Y-99201109D01*
X159375788Y-99201106D01*
X159375792Y-99201104D01*
X159526104Y-99050792D01*
X159526106Y-99050788D01*
X159526109Y-99050786D01*
X159651048Y-98878820D01*
X159651047Y-98878820D01*
X159651051Y-98878816D01*
X159747557Y-98689412D01*
X159813246Y-98487243D01*
X159846500Y-98277287D01*
X159846500Y-98064713D01*
X159813246Y-97854757D01*
X159747557Y-97652588D01*
X159651051Y-97463184D01*
X159651049Y-97463181D01*
X159651048Y-97463179D01*
X159526109Y-97291213D01*
X159375786Y-97140890D01*
X159203820Y-97015951D01*
X159203115Y-97015591D01*
X159195054Y-97011485D01*
X159144259Y-96963512D01*
X159127463Y-96895692D01*
X159149999Y-96829556D01*
X159195054Y-96790515D01*
X159203816Y-96786051D01*
X159225789Y-96770086D01*
X159375786Y-96661109D01*
X159375788Y-96661106D01*
X159375792Y-96661104D01*
X159526104Y-96510792D01*
X159526106Y-96510788D01*
X159526109Y-96510786D01*
X159651048Y-96338820D01*
X159651047Y-96338820D01*
X159651051Y-96338816D01*
X159747557Y-96149412D01*
X159813246Y-95947243D01*
X159846500Y-95737287D01*
X159846500Y-95524713D01*
X159813246Y-95314757D01*
X159747557Y-95112588D01*
X159651051Y-94923184D01*
X159651049Y-94923181D01*
X159651048Y-94923179D01*
X159526109Y-94751213D01*
X159375786Y-94600890D01*
X159203820Y-94475951D01*
X159203115Y-94475591D01*
X159195054Y-94471485D01*
X159144259Y-94423512D01*
X159127463Y-94355692D01*
X159149999Y-94289556D01*
X159195054Y-94250515D01*
X159203816Y-94246051D01*
X159267887Y-94199501D01*
X159375786Y-94121109D01*
X159375788Y-94121106D01*
X159375792Y-94121104D01*
X159526104Y-93970792D01*
X159526106Y-93970788D01*
X159526109Y-93970786D01*
X159651048Y-93798820D01*
X159651047Y-93798820D01*
X159651051Y-93798816D01*
X159747557Y-93609412D01*
X159813246Y-93407243D01*
X159846500Y-93197287D01*
X159846500Y-92984713D01*
X159813246Y-92774757D01*
X159747557Y-92572588D01*
X159651051Y-92383184D01*
X159651049Y-92383181D01*
X159651048Y-92383179D01*
X159526109Y-92211213D01*
X159412569Y-92097673D01*
X159379084Y-92036350D01*
X159384068Y-91966658D01*
X159425940Y-91910725D01*
X159456915Y-91893810D01*
X159588331Y-91844796D01*
X159703546Y-91758546D01*
X159789796Y-91643331D01*
X159840091Y-91508483D01*
X159846500Y-91448873D01*
X159846499Y-89653128D01*
X159840091Y-89593517D01*
X159789796Y-89458669D01*
X159789795Y-89458668D01*
X159789793Y-89458664D01*
X159703547Y-89343455D01*
X159703544Y-89343452D01*
X159588335Y-89257206D01*
X159588328Y-89257202D01*
X159453482Y-89206908D01*
X159453483Y-89206908D01*
X159393883Y-89200501D01*
X159393881Y-89200500D01*
X159393873Y-89200500D01*
X159393864Y-89200500D01*
X157598129Y-89200500D01*
X157598123Y-89200501D01*
X157538516Y-89206908D01*
X157403671Y-89257202D01*
X157403664Y-89257206D01*
X157288455Y-89343452D01*
X157288452Y-89343455D01*
X157202206Y-89458664D01*
X157202202Y-89458671D01*
X157151908Y-89593517D01*
X157145501Y-89653116D01*
X157145501Y-89653123D01*
X157145500Y-89653135D01*
X157145500Y-91448870D01*
X157145501Y-91448876D01*
X157151908Y-91508483D01*
X157202202Y-91643328D01*
X157202206Y-91643335D01*
X157288452Y-91758544D01*
X157288455Y-91758547D01*
X157403664Y-91844793D01*
X157403671Y-91844797D01*
X157535082Y-91893810D01*
X157591016Y-91935681D01*
X157615433Y-92001145D01*
X157600582Y-92069418D01*
X157579431Y-92097673D01*
X157465889Y-92211215D01*
X157340951Y-92383179D01*
X157244444Y-92572585D01*
X157178753Y-92774760D01*
X157146434Y-92978815D01*
X157145500Y-92984713D01*
X157145500Y-93197287D01*
X157178754Y-93407243D01*
X157184909Y-93426187D01*
X157244444Y-93609414D01*
X157340951Y-93798820D01*
X157465890Y-93970786D01*
X157616213Y-94121109D01*
X157788182Y-94246050D01*
X157796946Y-94250516D01*
X157847742Y-94298491D01*
X157864536Y-94366312D01*
X157841998Y-94432447D01*
X157796946Y-94471484D01*
X157788182Y-94475949D01*
X157616213Y-94600890D01*
X157465890Y-94751213D01*
X157340951Y-94923179D01*
X157244444Y-95112585D01*
X157178753Y-95314760D01*
X157145500Y-95524713D01*
X157145500Y-95737286D01*
X157178753Y-95947239D01*
X157244444Y-96149414D01*
X157340951Y-96338820D01*
X157465890Y-96510786D01*
X157616213Y-96661109D01*
X157788182Y-96786050D01*
X157796946Y-96790516D01*
X157847742Y-96838491D01*
X157864536Y-96906312D01*
X157841998Y-96972447D01*
X157796946Y-97011484D01*
X157788182Y-97015949D01*
X157616213Y-97140890D01*
X157465890Y-97291213D01*
X157340951Y-97463179D01*
X157244444Y-97652585D01*
X157178753Y-97854760D01*
X157145500Y-98064713D01*
X157145500Y-98277286D01*
X157178753Y-98487239D01*
X157244444Y-98689414D01*
X157340951Y-98878820D01*
X157465890Y-99050786D01*
X157616213Y-99201109D01*
X157788182Y-99326050D01*
X157796946Y-99330516D01*
X157847742Y-99378491D01*
X157864536Y-99446312D01*
X157841998Y-99512447D01*
X157796946Y-99551484D01*
X157788182Y-99555949D01*
X157616213Y-99680890D01*
X157465890Y-99831213D01*
X157340951Y-100003179D01*
X157244444Y-100192585D01*
X157178753Y-100394760D01*
X157145500Y-100604713D01*
X157145500Y-100817286D01*
X157178753Y-101027239D01*
X157244444Y-101229414D01*
X157340951Y-101418820D01*
X157465890Y-101590786D01*
X157616213Y-101741109D01*
X157788179Y-101866048D01*
X157788181Y-101866049D01*
X157788184Y-101866051D01*
X157797493Y-101870794D01*
X157848290Y-101918766D01*
X157865087Y-101986587D01*
X157842552Y-102052722D01*
X157797505Y-102091760D01*
X157788446Y-102096376D01*
X157788440Y-102096380D01*
X157734282Y-102135727D01*
X157734282Y-102135728D01*
X158366591Y-102768037D01*
X158303007Y-102785075D01*
X158188993Y-102850901D01*
X158095901Y-102943993D01*
X158030075Y-103058007D01*
X158013037Y-103121591D01*
X157380728Y-102489282D01*
X157380727Y-102489282D01*
X157341380Y-102543439D01*
X157244904Y-102732782D01*
X157179242Y-102934869D01*
X157179242Y-102934872D01*
X157146000Y-103144753D01*
X157146000Y-103357246D01*
X157179242Y-103567127D01*
X157179242Y-103567130D01*
X157244904Y-103769217D01*
X157341375Y-103958550D01*
X157380728Y-104012716D01*
X158013036Y-103380407D01*
X158030075Y-103443993D01*
X158095901Y-103558007D01*
X158188993Y-103651099D01*
X158303007Y-103716925D01*
X158366590Y-103733962D01*
X157734282Y-104366269D01*
X157734282Y-104366270D01*
X157788452Y-104405626D01*
X157788451Y-104405626D01*
X157797495Y-104410234D01*
X157848292Y-104458208D01*
X157865087Y-104526029D01*
X157842550Y-104592164D01*
X157797499Y-104631202D01*
X157788182Y-104635949D01*
X157616213Y-104760890D01*
X157465890Y-104911213D01*
X157340951Y-105083179D01*
X157244444Y-105272585D01*
X157178753Y-105474760D01*
X157150587Y-105652597D01*
X157145500Y-105684713D01*
X157145500Y-105897287D01*
X157178754Y-106107243D01*
X157190814Y-106144361D01*
X157244444Y-106309414D01*
X157340951Y-106498820D01*
X157465890Y-106670786D01*
X157616213Y-106821109D01*
X157788182Y-106946050D01*
X157796946Y-106950516D01*
X157847742Y-106998491D01*
X157864536Y-107066312D01*
X157841998Y-107132447D01*
X157796946Y-107171484D01*
X157788182Y-107175949D01*
X157616213Y-107300890D01*
X157465890Y-107451213D01*
X157340951Y-107623179D01*
X157244444Y-107812585D01*
X157178753Y-108014760D01*
X157165194Y-108100368D01*
X157145500Y-108224713D01*
X157145500Y-108437287D01*
X157178754Y-108647243D01*
X157190814Y-108684361D01*
X157244444Y-108849414D01*
X157340951Y-109038820D01*
X157465890Y-109210786D01*
X157616213Y-109361109D01*
X157788184Y-109486051D01*
X157788184Y-109486052D01*
X157827793Y-109506233D01*
X157878590Y-109554206D01*
X157895500Y-109616718D01*
X157895500Y-114634903D01*
X157875815Y-114701942D01*
X157859181Y-114722584D01*
X157013584Y-115568181D01*
X156952261Y-115601666D01*
X156925903Y-115604500D01*
X147998730Y-115604500D01*
X147931691Y-115584815D01*
X147894808Y-115547133D01*
X147894651Y-115547248D01*
X147893872Y-115546176D01*
X147893000Y-115545285D01*
X147891789Y-115543309D01*
X147891786Y-115543305D01*
X147774981Y-115382536D01*
X147634464Y-115242019D01*
X147473694Y-115125213D01*
X147317218Y-115045484D01*
X147266423Y-114997510D01*
X147249628Y-114929689D01*
X147272165Y-114863554D01*
X147317218Y-114824515D01*
X147473694Y-114744787D01*
X147634464Y-114627981D01*
X147774981Y-114487464D01*
X147891787Y-114326694D01*
X147982005Y-114149632D01*
X148043413Y-113960636D01*
X148074500Y-113764361D01*
X148074500Y-113565639D01*
X148043413Y-113369364D01*
X147982005Y-113180368D01*
X147982005Y-113180367D01*
X147891786Y-113003305D01*
X147774981Y-112842536D01*
X147634464Y-112702019D01*
X147473694Y-112585213D01*
X147317218Y-112505484D01*
X147266423Y-112457510D01*
X147249628Y-112389689D01*
X147272165Y-112323554D01*
X147317218Y-112284515D01*
X147473694Y-112204787D01*
X147634464Y-112087981D01*
X147774981Y-111947464D01*
X147891787Y-111786694D01*
X147982005Y-111609632D01*
X148043413Y-111420636D01*
X148074500Y-111224361D01*
X148074500Y-111025639D01*
X148043413Y-110829364D01*
X147982005Y-110640368D01*
X147982005Y-110640367D01*
X147891786Y-110463305D01*
X147774981Y-110302536D01*
X147634464Y-110162019D01*
X147473694Y-110045213D01*
X147317218Y-109965484D01*
X147266423Y-109917510D01*
X147249628Y-109849689D01*
X147272165Y-109783554D01*
X147317218Y-109744515D01*
X147473694Y-109664787D01*
X147634464Y-109547981D01*
X147774981Y-109407464D01*
X147891787Y-109246694D01*
X147982005Y-109069632D01*
X148043413Y-108880636D01*
X148074500Y-108684361D01*
X148074500Y-108485639D01*
X148043413Y-108289364D01*
X147982005Y-108100368D01*
X147982005Y-108100367D01*
X147891786Y-107923305D01*
X147774981Y-107762536D01*
X147634464Y-107622019D01*
X147473694Y-107505213D01*
X147317218Y-107425484D01*
X147266423Y-107377510D01*
X147249628Y-107309689D01*
X147272165Y-107243554D01*
X147317218Y-107204515D01*
X147473694Y-107124787D01*
X147634464Y-107007981D01*
X147774981Y-106867464D01*
X147891787Y-106706694D01*
X147982005Y-106529632D01*
X148043413Y-106340636D01*
X148074500Y-106144361D01*
X148074500Y-105945639D01*
X148043413Y-105749364D01*
X147982005Y-105560368D01*
X147982005Y-105560367D01*
X147891786Y-105383305D01*
X147774981Y-105222536D01*
X147634464Y-105082019D01*
X147473694Y-104965213D01*
X147460525Y-104958503D01*
X147296632Y-104874994D01*
X147296629Y-104874993D01*
X147107637Y-104813587D01*
X147009498Y-104798043D01*
X146911361Y-104782500D01*
X146712639Y-104782500D01*
X146647214Y-104792862D01*
X146516362Y-104813587D01*
X146327370Y-104874993D01*
X146327367Y-104874994D01*
X146150305Y-104965213D01*
X145989533Y-105082021D01*
X145849021Y-105222533D01*
X145732213Y-105383305D01*
X145641994Y-105560367D01*
X145641993Y-105560370D01*
X145580587Y-105749362D01*
X145549500Y-105945639D01*
X145549500Y-106144360D01*
X145580587Y-106340637D01*
X145641993Y-106529629D01*
X145641994Y-106529632D01*
X145713917Y-106670786D01*
X145732213Y-106706694D01*
X145849019Y-106867464D01*
X145989536Y-107007981D01*
X146150306Y-107124787D01*
X146165340Y-107132447D01*
X146306780Y-107204515D01*
X146357576Y-107252490D01*
X146374371Y-107320311D01*
X146351833Y-107386446D01*
X146306780Y-107425485D01*
X146150305Y-107505213D01*
X145989533Y-107622021D01*
X145849021Y-107762533D01*
X145732213Y-107923305D01*
X145641994Y-108100367D01*
X145641993Y-108100370D01*
X145580587Y-108289362D01*
X145549500Y-108485639D01*
X145549500Y-108684360D01*
X145580587Y-108880637D01*
X145641993Y-109069629D01*
X145641994Y-109069632D01*
X145713917Y-109210786D01*
X145732213Y-109246694D01*
X145849019Y-109407464D01*
X145989536Y-109547981D01*
X146150306Y-109664787D01*
X146268832Y-109725179D01*
X146306780Y-109744515D01*
X146357576Y-109792490D01*
X146374371Y-109860311D01*
X146351833Y-109926446D01*
X146306780Y-109965485D01*
X146150305Y-110045213D01*
X145989533Y-110162021D01*
X145849021Y-110302533D01*
X145732213Y-110463305D01*
X145641994Y-110640367D01*
X145641993Y-110640370D01*
X145580587Y-110829362D01*
X145549500Y-111025639D01*
X145549500Y-111224360D01*
X145580587Y-111420637D01*
X145641993Y-111609629D01*
X145641994Y-111609632D01*
X145732213Y-111786694D01*
X145849019Y-111947464D01*
X145989536Y-112087981D01*
X146150306Y-112204787D01*
X146268832Y-112265179D01*
X146306780Y-112284515D01*
X146357576Y-112332490D01*
X146374371Y-112400311D01*
X146351833Y-112466446D01*
X146306780Y-112505485D01*
X146150305Y-112585213D01*
X145989533Y-112702021D01*
X145849021Y-112842533D01*
X145732213Y-113003305D01*
X145641994Y-113180367D01*
X145641993Y-113180370D01*
X145580587Y-113369362D01*
X145549500Y-113565639D01*
X145549500Y-113764360D01*
X145580587Y-113960637D01*
X145641993Y-114149629D01*
X145641994Y-114149632D01*
X145706805Y-114276828D01*
X145732213Y-114326694D01*
X145849019Y-114487464D01*
X145989536Y-114627981D01*
X146150306Y-114744787D01*
X146268832Y-114805179D01*
X146306780Y-114824515D01*
X146357576Y-114872490D01*
X146374371Y-114940311D01*
X146351833Y-115006446D01*
X146306780Y-115045485D01*
X146150305Y-115125213D01*
X145989533Y-115242021D01*
X145849021Y-115382533D01*
X145732213Y-115543305D01*
X145641994Y-115720367D01*
X145641993Y-115720370D01*
X145580587Y-115909362D01*
X145549500Y-116105639D01*
X145549500Y-116309233D01*
X145548061Y-116309233D01*
X145535009Y-116371304D01*
X145513448Y-116400315D01*
X145173286Y-116740478D01*
X145061481Y-116852282D01*
X145061475Y-116852290D01*
X145011398Y-116939028D01*
X145011398Y-116939029D01*
X144982423Y-116989215D01*
X144941499Y-117141943D01*
X144941499Y-117141945D01*
X144941499Y-117310046D01*
X144941500Y-117310059D01*
X144941500Y-121238903D01*
X144921815Y-121305942D01*
X144905181Y-121326584D01*
X144059584Y-122172181D01*
X143998261Y-122205666D01*
X143971903Y-122208500D01*
X132704938Y-122208500D01*
X132637899Y-122188815D01*
X132592144Y-122136011D01*
X132582200Y-122066853D01*
X132604620Y-122011615D01*
X132627449Y-121980191D01*
X132651787Y-121946694D01*
X132742005Y-121769632D01*
X132803413Y-121580636D01*
X132834500Y-121384361D01*
X132834500Y-121185639D01*
X132803413Y-120989364D01*
X132748221Y-120819498D01*
X132742006Y-120800370D01*
X132742005Y-120800367D01*
X132672937Y-120664815D01*
X132651787Y-120623306D01*
X132534981Y-120462536D01*
X132394464Y-120322019D01*
X132233694Y-120205213D01*
X132077218Y-120125484D01*
X132026423Y-120077510D01*
X132009628Y-120009689D01*
X132032165Y-119943554D01*
X132077218Y-119904515D01*
X132233694Y-119824787D01*
X132394464Y-119707981D01*
X132534981Y-119567464D01*
X132651787Y-119406694D01*
X132742005Y-119229632D01*
X132803413Y-119040636D01*
X132834500Y-118844361D01*
X132834500Y-118645639D01*
X132803413Y-118449364D01*
X132742005Y-118260368D01*
X132742005Y-118260367D01*
X132664165Y-118107599D01*
X132651787Y-118083306D01*
X132534981Y-117922536D01*
X132394464Y-117782019D01*
X132233694Y-117665213D01*
X132077218Y-117585484D01*
X132026423Y-117537510D01*
X132009628Y-117469689D01*
X132032165Y-117403554D01*
X132077218Y-117364515D01*
X132233694Y-117284787D01*
X132394464Y-117167981D01*
X132534981Y-117027464D01*
X132651787Y-116866694D01*
X132742005Y-116689632D01*
X132803413Y-116500636D01*
X132834500Y-116304361D01*
X132834500Y-116105639D01*
X132803413Y-115909364D01*
X132742005Y-115720368D01*
X132742005Y-115720367D01*
X132672937Y-115584815D01*
X132651787Y-115543306D01*
X132534981Y-115382536D01*
X132394464Y-115242019D01*
X132233694Y-115125213D01*
X132077218Y-115045484D01*
X132026423Y-114997510D01*
X132009628Y-114929689D01*
X132032165Y-114863554D01*
X132077218Y-114824515D01*
X132233694Y-114744787D01*
X132394464Y-114627981D01*
X132534981Y-114487464D01*
X132651787Y-114326694D01*
X132742005Y-114149632D01*
X132803413Y-113960636D01*
X132834500Y-113764361D01*
X132834500Y-113565639D01*
X132803413Y-113369364D01*
X132742005Y-113180368D01*
X132742005Y-113180367D01*
X132651786Y-113003305D01*
X132534981Y-112842536D01*
X132394464Y-112702019D01*
X132233694Y-112585213D01*
X132077218Y-112505484D01*
X132026423Y-112457510D01*
X132009628Y-112389689D01*
X132032165Y-112323554D01*
X132077218Y-112284515D01*
X132233694Y-112204787D01*
X132394464Y-112087981D01*
X132534981Y-111947464D01*
X132651787Y-111786694D01*
X132742005Y-111609632D01*
X132803413Y-111420636D01*
X132834500Y-111224361D01*
X132834500Y-111025639D01*
X132803413Y-110829364D01*
X132742005Y-110640368D01*
X132742005Y-110640367D01*
X132651786Y-110463305D01*
X132534981Y-110302536D01*
X132394464Y-110162019D01*
X132233694Y-110045213D01*
X132077218Y-109965484D01*
X132026423Y-109917510D01*
X132009628Y-109849689D01*
X132032165Y-109783554D01*
X132077218Y-109744515D01*
X132233694Y-109664787D01*
X132394464Y-109547981D01*
X132534981Y-109407464D01*
X132651787Y-109246694D01*
X132742005Y-109069632D01*
X132803413Y-108880636D01*
X132834500Y-108684361D01*
X132834500Y-108485639D01*
X132803413Y-108289364D01*
X132742005Y-108100368D01*
X132742005Y-108100367D01*
X132651786Y-107923305D01*
X132534981Y-107762536D01*
X132394464Y-107622019D01*
X132233694Y-107505213D01*
X132077218Y-107425484D01*
X132026423Y-107377510D01*
X132009628Y-107309689D01*
X132032165Y-107243554D01*
X132077218Y-107204515D01*
X132233694Y-107124787D01*
X132394464Y-107007981D01*
X132534981Y-106867464D01*
X132651787Y-106706694D01*
X132742005Y-106529632D01*
X132803413Y-106340636D01*
X132834500Y-106144361D01*
X132834500Y-105945639D01*
X132803413Y-105749364D01*
X132742005Y-105560368D01*
X132742005Y-105560367D01*
X132651786Y-105383305D01*
X132534981Y-105222536D01*
X132394464Y-105082019D01*
X132233694Y-104965213D01*
X132220525Y-104958503D01*
X132056632Y-104874994D01*
X132056629Y-104874993D01*
X131867637Y-104813587D01*
X131769498Y-104798043D01*
X131671361Y-104782500D01*
X131472639Y-104782500D01*
X131407214Y-104792862D01*
X131276362Y-104813587D01*
X131087370Y-104874993D01*
X131087367Y-104874994D01*
X130910305Y-104965213D01*
X130749533Y-105082021D01*
X130609021Y-105222533D01*
X130492213Y-105383305D01*
X130401994Y-105560367D01*
X130401993Y-105560370D01*
X130340587Y-105749362D01*
X130309500Y-105945639D01*
X130309500Y-106144360D01*
X130340587Y-106340637D01*
X130401993Y-106529629D01*
X130401994Y-106529632D01*
X130473917Y-106670786D01*
X130492213Y-106706694D01*
X130609019Y-106867464D01*
X130749536Y-107007981D01*
X130910306Y-107124787D01*
X130925340Y-107132447D01*
X131066780Y-107204515D01*
X131117576Y-107252490D01*
X131134371Y-107320311D01*
X131111833Y-107386446D01*
X131066780Y-107425485D01*
X130910305Y-107505213D01*
X130749533Y-107622021D01*
X130609021Y-107762533D01*
X130492213Y-107923305D01*
X130401994Y-108100367D01*
X130401993Y-108100370D01*
X130340587Y-108289362D01*
X130309500Y-108485639D01*
X130309500Y-108684360D01*
X130340587Y-108880637D01*
X130401993Y-109069629D01*
X130401994Y-109069632D01*
X130473917Y-109210786D01*
X130492213Y-109246694D01*
X130609019Y-109407464D01*
X130749536Y-109547981D01*
X130910306Y-109664787D01*
X131028832Y-109725179D01*
X131066780Y-109744515D01*
X131117576Y-109792490D01*
X131134371Y-109860311D01*
X131111833Y-109926446D01*
X131066780Y-109965485D01*
X130910305Y-110045213D01*
X130749533Y-110162021D01*
X130609021Y-110302533D01*
X130492213Y-110463305D01*
X130401994Y-110640367D01*
X130401993Y-110640370D01*
X130340587Y-110829362D01*
X130309500Y-111025639D01*
X130309500Y-111224360D01*
X130340587Y-111420637D01*
X130401993Y-111609629D01*
X130401994Y-111609632D01*
X130492213Y-111786694D01*
X130609019Y-111947464D01*
X130749536Y-112087981D01*
X130910306Y-112204787D01*
X131028832Y-112265179D01*
X131066780Y-112284515D01*
X131117576Y-112332490D01*
X131134371Y-112400311D01*
X131111833Y-112466446D01*
X131066780Y-112505485D01*
X130910305Y-112585213D01*
X130749533Y-112702021D01*
X130609021Y-112842533D01*
X130492213Y-113003305D01*
X130401994Y-113180367D01*
X130401993Y-113180370D01*
X130340587Y-113369362D01*
X130309500Y-113565639D01*
X130309500Y-113764360D01*
X130340587Y-113960637D01*
X130401993Y-114149629D01*
X130401994Y-114149632D01*
X130466805Y-114276828D01*
X130492213Y-114326694D01*
X130609019Y-114487464D01*
X130749536Y-114627981D01*
X130910306Y-114744787D01*
X131028832Y-114805179D01*
X131066780Y-114824515D01*
X131117576Y-114872490D01*
X131134371Y-114940311D01*
X131111833Y-115006446D01*
X131066780Y-115045485D01*
X130910305Y-115125213D01*
X130749533Y-115242021D01*
X130609021Y-115382533D01*
X130492213Y-115543305D01*
X130401994Y-115720367D01*
X130401993Y-115720370D01*
X130340587Y-115909362D01*
X130309500Y-116105639D01*
X130309500Y-116304360D01*
X130340587Y-116500637D01*
X130401993Y-116689629D01*
X130401994Y-116689632D01*
X130455053Y-116793764D01*
X130492213Y-116866694D01*
X130609019Y-117027464D01*
X130749536Y-117167981D01*
X130910306Y-117284787D01*
X130959905Y-117310059D01*
X131066780Y-117364515D01*
X131117576Y-117412490D01*
X131134371Y-117480311D01*
X131111833Y-117546446D01*
X131066780Y-117585485D01*
X130910305Y-117665213D01*
X130749533Y-117782021D01*
X130609021Y-117922533D01*
X130492213Y-118083305D01*
X130401994Y-118260367D01*
X130401993Y-118260370D01*
X130340587Y-118449362D01*
X130309500Y-118645639D01*
X130309500Y-118844360D01*
X130340587Y-119040637D01*
X130401993Y-119229629D01*
X130401994Y-119229632D01*
X130416025Y-119257168D01*
X130492213Y-119406694D01*
X130609019Y-119567464D01*
X130749536Y-119707981D01*
X130910306Y-119824787D01*
X131028832Y-119885179D01*
X131066780Y-119904515D01*
X131117576Y-119952490D01*
X131134371Y-120020311D01*
X131111833Y-120086446D01*
X131066780Y-120125485D01*
X130910305Y-120205213D01*
X130749533Y-120322021D01*
X130609021Y-120462533D01*
X130492210Y-120623309D01*
X130491000Y-120625285D01*
X130490343Y-120625878D01*
X130489349Y-120627248D01*
X130489061Y-120627039D01*
X130439190Y-120672163D01*
X130385270Y-120684500D01*
X129586098Y-120684500D01*
X129519059Y-120664815D01*
X129498417Y-120648181D01*
X129160819Y-120310583D01*
X129127334Y-120249260D01*
X129124500Y-120222902D01*
X129124500Y-95169097D01*
X129144185Y-95102058D01*
X129160819Y-95081416D01*
X130006416Y-94235819D01*
X130067739Y-94202334D01*
X130094097Y-94199500D01*
X137835331Y-94199500D01*
X137835347Y-94199501D01*
X137842943Y-94199501D01*
X138001054Y-94199501D01*
X138001057Y-94199501D01*
X138153785Y-94158577D01*
X138203904Y-94129639D01*
X138290716Y-94079520D01*
X138402520Y-93967716D01*
X138402521Y-93967713D01*
X138642417Y-93727816D01*
X138703739Y-93694334D01*
X138730097Y-93691500D01*
X146398725Y-93691500D01*
X146465764Y-93711185D01*
X146511519Y-93763989D01*
X146521463Y-93833147D01*
X146518782Y-93846215D01*
X146503500Y-93962298D01*
X146503500Y-94759703D01*
X146518696Y-94875142D01*
X146518699Y-94875151D01*
X146578093Y-95018541D01*
X146578200Y-95018798D01*
X146672851Y-95142149D01*
X146796202Y-95236800D01*
X146939849Y-95296301D01*
X147055299Y-95311500D01*
X148452700Y-95311499D01*
X148452703Y-95311499D01*
X148568142Y-95296303D01*
X148568146Y-95296301D01*
X148568151Y-95296301D01*
X148711798Y-95236800D01*
X148835149Y-95142149D01*
X148929800Y-95018798D01*
X148989301Y-94875151D01*
X149004500Y-94759701D01*
X149004500Y-94759670D01*
X151404000Y-94759670D01*
X151419185Y-94875019D01*
X151419187Y-94875024D01*
X151478633Y-95018541D01*
X151478633Y-95018542D01*
X151573207Y-95141792D01*
X151696458Y-95236366D01*
X151839975Y-95295812D01*
X151839980Y-95295814D01*
X151955329Y-95311000D01*
X152404000Y-95311000D01*
X152904000Y-95311000D01*
X153352671Y-95311000D01*
X153468019Y-95295814D01*
X153468024Y-95295812D01*
X153611541Y-95236366D01*
X153611542Y-95236366D01*
X153734792Y-95141792D01*
X153829366Y-95018542D01*
X153829366Y-95018541D01*
X153888812Y-94875024D01*
X153888814Y-94875019D01*
X153904000Y-94759670D01*
X153904000Y-94611000D01*
X152904000Y-94611000D01*
X152904000Y-95311000D01*
X152404000Y-95311000D01*
X152404000Y-94611000D01*
X151404000Y-94611000D01*
X151404000Y-94759670D01*
X149004500Y-94759670D01*
X149004499Y-94361000D01*
X149004499Y-93962296D01*
X148988241Y-93838790D01*
X148989716Y-93838595D01*
X148991160Y-93777754D01*
X149030317Y-93719888D01*
X149094543Y-93692378D01*
X149109275Y-93691500D01*
X151299247Y-93691500D01*
X151366286Y-93711185D01*
X151412041Y-93763989D01*
X151421985Y-93833147D01*
X151419255Y-93846451D01*
X151404000Y-93962329D01*
X151404000Y-94111000D01*
X152404000Y-94111000D01*
X152904000Y-94111000D01*
X153904000Y-94111000D01*
X153904000Y-93962329D01*
X153888814Y-93846980D01*
X153888812Y-93846975D01*
X153829366Y-93703458D01*
X153829366Y-93703457D01*
X153734792Y-93580207D01*
X153611541Y-93485633D01*
X153468024Y-93426187D01*
X153468019Y-93426185D01*
X153352671Y-93411000D01*
X152904000Y-93411000D01*
X152904000Y-94111000D01*
X152404000Y-94111000D01*
X152404000Y-93479596D01*
X152412644Y-93450155D01*
X152419168Y-93420169D01*
X152422922Y-93415153D01*
X152423685Y-93412557D01*
X152440319Y-93391915D01*
X152560277Y-93271957D01*
X153134520Y-92697716D01*
X153213577Y-92560784D01*
X153254501Y-92408057D01*
X153254501Y-92249942D01*
X153254501Y-92242347D01*
X153254500Y-92242329D01*
X153254500Y-92133172D01*
X153274185Y-92066133D01*
X153326989Y-92020378D01*
X153362317Y-92010233D01*
X153468151Y-91996301D01*
X153611798Y-91936800D01*
X153735149Y-91842149D01*
X153829800Y-91718798D01*
X153889301Y-91575151D01*
X153904500Y-91459701D01*
X153904499Y-90662300D01*
X153904499Y-90662298D01*
X153904499Y-90662296D01*
X153889303Y-90546857D01*
X153889301Y-90546850D01*
X153889301Y-90546849D01*
X153829800Y-90403202D01*
X153735149Y-90279851D01*
X153611798Y-90185200D01*
X153611794Y-90185198D01*
X153468151Y-90125699D01*
X153468149Y-90125698D01*
X153352701Y-90110500D01*
X151955296Y-90110500D01*
X151839857Y-90125696D01*
X151839848Y-90125699D01*
X151696205Y-90185198D01*
X151696202Y-90185199D01*
X151696202Y-90185200D01*
X151572851Y-90279851D01*
X151499521Y-90375417D01*
X151478198Y-90403205D01*
X151418699Y-90546848D01*
X151418698Y-90546850D01*
X151403500Y-90662298D01*
X151403500Y-91459703D01*
X151418696Y-91575142D01*
X151418699Y-91575151D01*
X151476074Y-91713667D01*
X151478200Y-91718798D01*
X151572851Y-91842149D01*
X151696202Y-91936800D01*
X151839849Y-91996301D01*
X151853544Y-91998104D01*
X151917437Y-92026366D01*
X151955911Y-92084689D01*
X151956745Y-92154554D01*
X151925040Y-92208723D01*
X151679582Y-92454182D01*
X151618262Y-92487666D01*
X151591903Y-92490500D01*
X138350940Y-92490500D01*
X138310019Y-92501464D01*
X138310019Y-92501465D01*
X138272751Y-92511451D01*
X138198214Y-92531423D01*
X138198209Y-92531426D01*
X138061290Y-92610475D01*
X138061282Y-92610481D01*
X137974055Y-92697709D01*
X137949480Y-92722284D01*
X137949478Y-92722286D01*
X137813804Y-92857961D01*
X137709584Y-92962181D01*
X137648261Y-92995666D01*
X137621903Y-92998500D01*
X133995162Y-92998500D01*
X133928123Y-92978815D01*
X133882368Y-92926011D01*
X133872424Y-92856853D01*
X133901449Y-92793297D01*
X133922277Y-92774181D01*
X133943219Y-92758966D01*
X134087966Y-92614219D01*
X134087968Y-92614215D01*
X134087971Y-92614213D01*
X134169886Y-92501465D01*
X134208287Y-92448610D01*
X134301220Y-92266219D01*
X134364477Y-92071534D01*
X134396500Y-91869352D01*
X134396500Y-91264648D01*
X134365195Y-91067000D01*
X134364477Y-91062465D01*
X134335127Y-90972137D01*
X134301220Y-90867781D01*
X134301218Y-90867778D01*
X134301218Y-90867776D01*
X134208419Y-90685650D01*
X134208287Y-90685390D01*
X134191508Y-90662296D01*
X134087971Y-90519786D01*
X133943213Y-90375028D01*
X133777613Y-90254715D01*
X133777612Y-90254714D01*
X133777610Y-90254713D01*
X133720653Y-90225691D01*
X133595223Y-90161781D01*
X133400534Y-90098522D01*
X133225995Y-90070878D01*
X133198352Y-90066500D01*
X132993648Y-90066500D01*
X132969329Y-90070351D01*
X132791465Y-90098522D01*
X132596776Y-90161781D01*
X132414386Y-90254715D01*
X132248786Y-90375028D01*
X132104028Y-90519786D01*
X131983715Y-90685386D01*
X131936485Y-90778080D01*
X131888510Y-90828876D01*
X131820689Y-90845671D01*
X131754554Y-90823134D01*
X131715515Y-90778080D01*
X131668419Y-90685650D01*
X131668287Y-90685390D01*
X131651508Y-90662296D01*
X131547971Y-90519786D01*
X131403213Y-90375028D01*
X131237613Y-90254715D01*
X131237612Y-90254714D01*
X131237610Y-90254713D01*
X131180653Y-90225691D01*
X131055223Y-90161781D01*
X130860534Y-90098522D01*
X130685995Y-90070878D01*
X130658352Y-90066500D01*
X130453648Y-90066500D01*
X130429329Y-90070351D01*
X130251465Y-90098522D01*
X130056776Y-90161781D01*
X129874386Y-90254715D01*
X129708786Y-90375028D01*
X129564028Y-90519786D01*
X129443715Y-90685386D01*
X129396485Y-90778080D01*
X129348510Y-90828876D01*
X129280689Y-90845671D01*
X129214554Y-90823134D01*
X129175515Y-90778080D01*
X129128419Y-90685650D01*
X129128287Y-90685390D01*
X129111508Y-90662296D01*
X129007971Y-90519786D01*
X128863213Y-90375028D01*
X128697610Y-90254712D01*
X128684200Y-90247879D01*
X128633406Y-90199903D01*
X128616500Y-90137397D01*
X128616500Y-81109048D01*
X128636185Y-81042009D01*
X128665015Y-81010671D01*
X128697699Y-80985592D01*
X128864592Y-80818699D01*
X129008273Y-80631450D01*
X129126284Y-80427049D01*
X129216606Y-80208993D01*
X129277693Y-79981014D01*
X129308500Y-79747011D01*
X129308500Y-79510989D01*
X129277693Y-79276986D01*
X129216606Y-79049007D01*
X129126284Y-78830951D01*
X129126282Y-78830948D01*
X129126280Y-78830943D01*
X129046149Y-78692154D01*
X129008273Y-78626550D01*
X128864592Y-78439301D01*
X128864587Y-78439295D01*
X128697704Y-78272412D01*
X128697697Y-78272406D01*
X128558864Y-78165876D01*
X128517661Y-78109448D01*
X128513506Y-78039702D01*
X128547718Y-77978782D01*
X128609435Y-77946029D01*
X128634350Y-77943500D01*
X131461650Y-77943500D01*
X131528689Y-77963185D01*
X131574444Y-78015989D01*
X131584388Y-78085147D01*
X131555363Y-78148703D01*
X131537136Y-78165876D01*
X131398302Y-78272406D01*
X131398295Y-78272412D01*
X131231412Y-78439295D01*
X131231406Y-78439302D01*
X131087730Y-78626545D01*
X131087727Y-78626549D01*
X131087727Y-78626550D01*
X131080014Y-78639909D01*
X130969719Y-78830943D01*
X130969714Y-78830954D01*
X130879394Y-79049006D01*
X130818306Y-79276989D01*
X130787501Y-79510979D01*
X130787500Y-79510995D01*
X130787500Y-79747004D01*
X130787501Y-79747020D01*
X130818306Y-79981010D01*
X130879394Y-80208993D01*
X130969714Y-80427045D01*
X130969719Y-80427056D01*
X131040677Y-80549957D01*
X131087727Y-80631450D01*
X131087729Y-80631453D01*
X131087730Y-80631454D01*
X131231406Y-80818697D01*
X131231412Y-80818704D01*
X131398295Y-80985587D01*
X131398302Y-80985593D01*
X131508306Y-81070001D01*
X131585550Y-81129273D01*
X131716918Y-81205118D01*
X131789943Y-81247280D01*
X131789948Y-81247282D01*
X131789951Y-81247284D01*
X132008007Y-81337606D01*
X132235986Y-81398693D01*
X132469989Y-81429500D01*
X132469996Y-81429500D01*
X132706004Y-81429500D01*
X132706011Y-81429500D01*
X132940014Y-81398693D01*
X133167993Y-81337606D01*
X133386049Y-81247284D01*
X133590450Y-81129273D01*
X133777699Y-80985592D01*
X133944592Y-80818699D01*
X134088273Y-80631450D01*
X134206284Y-80427049D01*
X134296606Y-80208993D01*
X134357693Y-79981014D01*
X134388500Y-79747011D01*
X134388500Y-79510989D01*
X134357693Y-79276986D01*
X134296606Y-79049007D01*
X134206284Y-78830951D01*
X134206282Y-78830948D01*
X134206280Y-78830943D01*
X134126149Y-78692154D01*
X134088273Y-78626550D01*
X133944592Y-78439301D01*
X133944587Y-78439295D01*
X133777704Y-78272412D01*
X133777697Y-78272406D01*
X133638864Y-78165876D01*
X133597661Y-78109448D01*
X133593506Y-78039702D01*
X133627718Y-77978782D01*
X133689435Y-77946029D01*
X133714350Y-77943500D01*
X136541650Y-77943500D01*
X136608689Y-77963185D01*
X136654444Y-78015989D01*
X136664388Y-78085147D01*
X136635363Y-78148703D01*
X136617136Y-78165876D01*
X136478302Y-78272406D01*
X136478295Y-78272412D01*
X136311412Y-78439295D01*
X136311406Y-78439302D01*
X136167730Y-78626545D01*
X136167727Y-78626549D01*
X136167727Y-78626550D01*
X136160014Y-78639909D01*
X136049719Y-78830943D01*
X136049714Y-78830954D01*
X135959394Y-79049006D01*
X135898306Y-79276989D01*
X135867501Y-79510979D01*
X135867500Y-79510995D01*
X135867500Y-79747004D01*
X135867501Y-79747020D01*
X135898306Y-79981010D01*
X135959394Y-80208993D01*
X136049714Y-80427045D01*
X136049719Y-80427056D01*
X136120677Y-80549957D01*
X136167727Y-80631450D01*
X136167729Y-80631453D01*
X136167730Y-80631454D01*
X136311406Y-80818697D01*
X136311412Y-80818704D01*
X136478295Y-80985587D01*
X136478302Y-80985593D01*
X136588306Y-81070001D01*
X136665550Y-81129273D01*
X136796918Y-81205118D01*
X136869943Y-81247280D01*
X136869948Y-81247282D01*
X136869951Y-81247284D01*
X137088007Y-81337606D01*
X137315986Y-81398693D01*
X137549989Y-81429500D01*
X137549996Y-81429500D01*
X137786004Y-81429500D01*
X137786011Y-81429500D01*
X138020014Y-81398693D01*
X138247993Y-81337606D01*
X138466049Y-81247284D01*
X138670450Y-81129273D01*
X138857699Y-80985592D01*
X139024592Y-80818699D01*
X139168273Y-80631450D01*
X139286284Y-80427049D01*
X139368939Y-80227501D01*
X139412780Y-80173099D01*
X139479074Y-80151034D01*
X139546773Y-80168313D01*
X139594384Y-80219450D01*
X139607500Y-80274955D01*
X139607500Y-89956330D01*
X139607499Y-89956348D01*
X139607499Y-90122054D01*
X139607498Y-90122054D01*
X139608475Y-90125699D01*
X139648423Y-90274785D01*
X139648424Y-90274787D01*
X139648423Y-90274787D01*
X139651348Y-90279852D01*
X139651349Y-90279853D01*
X139727477Y-90411712D01*
X139727481Y-90411717D01*
X139846349Y-90530585D01*
X139846355Y-90530590D01*
X140741139Y-91425374D01*
X140741149Y-91425385D01*
X140745479Y-91429715D01*
X140745480Y-91429716D01*
X140857284Y-91541520D01*
X140857286Y-91541521D01*
X140857290Y-91541524D01*
X140915535Y-91575151D01*
X140994216Y-91620577D01*
X141089309Y-91646057D01*
X141146942Y-91661500D01*
X141146943Y-91661500D01*
X146473528Y-91661500D01*
X146540567Y-91681185D01*
X146571536Y-91713667D01*
X146573253Y-91712350D01*
X146578198Y-91718794D01*
X146578200Y-91718798D01*
X146672851Y-91842149D01*
X146796202Y-91936800D01*
X146939849Y-91996301D01*
X147055299Y-92011500D01*
X148452700Y-92011499D01*
X148452703Y-92011499D01*
X148568142Y-91996303D01*
X148568146Y-91996301D01*
X148568151Y-91996301D01*
X148711798Y-91936800D01*
X148835149Y-91842149D01*
X148929800Y-91718798D01*
X148989301Y-91575151D01*
X149004500Y-91459701D01*
X149004499Y-90662300D01*
X149004499Y-90662298D01*
X149004499Y-90662296D01*
X148989303Y-90546857D01*
X148989301Y-90546850D01*
X148989301Y-90546849D01*
X148929800Y-90403202D01*
X148835149Y-90279851D01*
X148711798Y-90185200D01*
X148711794Y-90185198D01*
X148568151Y-90125699D01*
X148568149Y-90125698D01*
X148452701Y-90110500D01*
X147055296Y-90110500D01*
X146939857Y-90125696D01*
X146939848Y-90125699D01*
X146796205Y-90185198D01*
X146796202Y-90185199D01*
X146796202Y-90185200D01*
X146672851Y-90279851D01*
X146578200Y-90403202D01*
X146578199Y-90403204D01*
X146573253Y-90409650D01*
X146571017Y-90407934D01*
X146530358Y-90446711D01*
X146473528Y-90460500D01*
X141526097Y-90460500D01*
X141459058Y-90440815D01*
X141438416Y-90424181D01*
X140844819Y-89830584D01*
X140830115Y-89803656D01*
X140813523Y-89777838D01*
X140812631Y-89771637D01*
X140811334Y-89769261D01*
X140808500Y-89742903D01*
X140808500Y-80273648D01*
X140828185Y-80206609D01*
X140880989Y-80160854D01*
X140950147Y-80150910D01*
X141013703Y-80179935D01*
X141047061Y-80226196D01*
X141130160Y-80426819D01*
X141130165Y-80426828D01*
X141248144Y-80631171D01*
X141248145Y-80631172D01*
X141310721Y-80712723D01*
X142146958Y-79876487D01*
X142171978Y-79936890D01*
X142243112Y-80043351D01*
X142333649Y-80133888D01*
X142440110Y-80205022D01*
X142500511Y-80230041D01*
X141664275Y-81066277D01*
X141745827Y-81128854D01*
X141745828Y-81128855D01*
X141950171Y-81246834D01*
X141950180Y-81246839D01*
X142168163Y-81337129D01*
X142168161Y-81337129D01*
X142396085Y-81398200D01*
X142630014Y-81428999D01*
X142630029Y-81429000D01*
X142865971Y-81429000D01*
X142865985Y-81428999D01*
X143099914Y-81398200D01*
X143327837Y-81337129D01*
X143545819Y-81246839D01*
X143545828Y-81246834D01*
X143750181Y-81128850D01*
X143831723Y-81066279D01*
X143831723Y-81066276D01*
X142995487Y-80230041D01*
X143055890Y-80205022D01*
X143162351Y-80133888D01*
X143252888Y-80043351D01*
X143324022Y-79936890D01*
X143349041Y-79876487D01*
X144185276Y-80712723D01*
X144185279Y-80712723D01*
X144247850Y-80631181D01*
X144365834Y-80426828D01*
X144365839Y-80426819D01*
X144456129Y-80208837D01*
X144517200Y-79980914D01*
X144547999Y-79746985D01*
X144548000Y-79746971D01*
X144548000Y-79511028D01*
X144547999Y-79511014D01*
X146028000Y-79511014D01*
X146028000Y-79746985D01*
X146058799Y-79980914D01*
X146119870Y-80208837D01*
X146210160Y-80426819D01*
X146210165Y-80426828D01*
X146328144Y-80631171D01*
X146328145Y-80631172D01*
X146390721Y-80712723D01*
X147226958Y-79876487D01*
X147251978Y-79936890D01*
X147323112Y-80043351D01*
X147413649Y-80133888D01*
X147520110Y-80205022D01*
X147580511Y-80230041D01*
X146744275Y-81066277D01*
X146825827Y-81128854D01*
X146825828Y-81128855D01*
X147030171Y-81246834D01*
X147030180Y-81246839D01*
X147248163Y-81337129D01*
X147248161Y-81337129D01*
X147476085Y-81398200D01*
X147710014Y-81428999D01*
X147710029Y-81429000D01*
X147945971Y-81429000D01*
X147945985Y-81428999D01*
X148179914Y-81398200D01*
X148407837Y-81337129D01*
X148625819Y-81246839D01*
X148625828Y-81246834D01*
X148830181Y-81128850D01*
X148911723Y-81066279D01*
X148911723Y-81066276D01*
X148075487Y-80230041D01*
X148135890Y-80205022D01*
X148242351Y-80133888D01*
X148332888Y-80043351D01*
X148404022Y-79936890D01*
X148429041Y-79876488D01*
X149265276Y-80712723D01*
X149265279Y-80712723D01*
X149327850Y-80631181D01*
X149445834Y-80426828D01*
X149445839Y-80426819D01*
X149536129Y-80208837D01*
X149597200Y-79980914D01*
X149627999Y-79746985D01*
X149628000Y-79746971D01*
X149628000Y-79511028D01*
X149627999Y-79511014D01*
X149597200Y-79277085D01*
X149536129Y-79049162D01*
X149445839Y-78831180D01*
X149445834Y-78831171D01*
X149327855Y-78626828D01*
X149327854Y-78626827D01*
X149265277Y-78545275D01*
X148429041Y-79381511D01*
X148404022Y-79321110D01*
X148332888Y-79214649D01*
X148242351Y-79124112D01*
X148135890Y-79052978D01*
X148075488Y-79027958D01*
X148911723Y-78191721D01*
X148830172Y-78129145D01*
X148830171Y-78129144D01*
X148625828Y-78011165D01*
X148625819Y-78011160D01*
X148407836Y-77920870D01*
X148407838Y-77920870D01*
X148179914Y-77859799D01*
X147945985Y-77829000D01*
X147710014Y-77829000D01*
X147476085Y-77859799D01*
X147248162Y-77920870D01*
X147030180Y-78011160D01*
X147030171Y-78011165D01*
X146825828Y-78129144D01*
X146825818Y-78129150D01*
X146744275Y-78191720D01*
X146744275Y-78191721D01*
X147580512Y-79027958D01*
X147520110Y-79052978D01*
X147413649Y-79124112D01*
X147323112Y-79214649D01*
X147251978Y-79321110D01*
X147226958Y-79381511D01*
X146390721Y-78545275D01*
X146390720Y-78545275D01*
X146328150Y-78626818D01*
X146328144Y-78626828D01*
X146210165Y-78831171D01*
X146210160Y-78831180D01*
X146119870Y-79049162D01*
X146058799Y-79277085D01*
X146028000Y-79511014D01*
X144547999Y-79511014D01*
X144517200Y-79277085D01*
X144456129Y-79049162D01*
X144365839Y-78831180D01*
X144365834Y-78831171D01*
X144247855Y-78626828D01*
X144247854Y-78626827D01*
X144185277Y-78545275D01*
X143349041Y-79381511D01*
X143324022Y-79321110D01*
X143252888Y-79214649D01*
X143162351Y-79124112D01*
X143055890Y-79052978D01*
X142995488Y-79027958D01*
X143831723Y-78191721D01*
X143750172Y-78129145D01*
X143750171Y-78129144D01*
X143545828Y-78011165D01*
X143545819Y-78011160D01*
X143327836Y-77920870D01*
X143327838Y-77920870D01*
X143099914Y-77859799D01*
X142865985Y-77829000D01*
X142630014Y-77829000D01*
X142396085Y-77859799D01*
X142168162Y-77920870D01*
X141950180Y-78011160D01*
X141950171Y-78011165D01*
X141745828Y-78129144D01*
X141745818Y-78129150D01*
X141664275Y-78191720D01*
X141664275Y-78191721D01*
X142500512Y-79027958D01*
X142440110Y-79052978D01*
X142333649Y-79124112D01*
X142243112Y-79214649D01*
X142171978Y-79321110D01*
X142146958Y-79381512D01*
X141310721Y-78545275D01*
X141310720Y-78545275D01*
X141248150Y-78626818D01*
X141248144Y-78626828D01*
X141130165Y-78831171D01*
X141130163Y-78831175D01*
X141040347Y-79048012D01*
X140996506Y-79102415D01*
X140930212Y-79124480D01*
X140862513Y-79107201D01*
X140814902Y-79056064D01*
X140806013Y-79032659D01*
X140767577Y-78889216D01*
X140734070Y-78831180D01*
X140688524Y-78752290D01*
X140688518Y-78752282D01*
X140263591Y-78327355D01*
X138917590Y-76981355D01*
X138917588Y-76981352D01*
X138798717Y-76862481D01*
X138798716Y-76862480D01*
X138711904Y-76812360D01*
X138711904Y-76812359D01*
X138711900Y-76812358D01*
X138661785Y-76783423D01*
X138509057Y-76742499D01*
X138350943Y-76742499D01*
X138343347Y-76742499D01*
X138343331Y-76742500D01*
X124546669Y-76742500D01*
X124546653Y-76742499D01*
X124539057Y-76742499D01*
X124380943Y-76742499D01*
X124273587Y-76771265D01*
X124228210Y-76783424D01*
X124228209Y-76783425D01*
X124178096Y-76812359D01*
X124178095Y-76812360D01*
X124134689Y-76837420D01*
X124091285Y-76862479D01*
X124091282Y-76862481D01*
X123979478Y-76974286D01*
X123161582Y-77792181D01*
X123100259Y-77825666D01*
X123073901Y-77828500D01*
X121327998Y-77828500D01*
X121327981Y-77828501D01*
X121225203Y-77839000D01*
X121225200Y-77839001D01*
X121058668Y-77894185D01*
X121058663Y-77894187D01*
X120909342Y-77986289D01*
X120785289Y-78110342D01*
X120693187Y-78259663D01*
X120693185Y-78259668D01*
X120686886Y-78278678D01*
X120638001Y-78426203D01*
X120638001Y-78426204D01*
X120638000Y-78426204D01*
X120627500Y-78528983D01*
X120627500Y-80729001D01*
X120627501Y-80729018D01*
X120638000Y-80831796D01*
X120638001Y-80831799D01*
X120678249Y-80953258D01*
X120693186Y-80998334D01*
X120785288Y-81147656D01*
X120909344Y-81271712D01*
X121058666Y-81363814D01*
X121225203Y-81418999D01*
X121327991Y-81429500D01*
X123528008Y-81429499D01*
X123630797Y-81418999D01*
X123797334Y-81363814D01*
X123946656Y-81271712D01*
X124070712Y-81147656D01*
X124162814Y-80998334D01*
X124217999Y-80831797D01*
X124228500Y-80729009D01*
X124228499Y-78528992D01*
X124224731Y-78492108D01*
X124237500Y-78423416D01*
X124260405Y-78391828D01*
X124672416Y-77979819D01*
X124733739Y-77946334D01*
X124760097Y-77943500D01*
X126381650Y-77943500D01*
X126448689Y-77963185D01*
X126494444Y-78015989D01*
X126504388Y-78085147D01*
X126475363Y-78148703D01*
X126457136Y-78165876D01*
X126318302Y-78272406D01*
X126318295Y-78272412D01*
X126151412Y-78439295D01*
X126151406Y-78439302D01*
X126007730Y-78626545D01*
X126007727Y-78626549D01*
X126007727Y-78626550D01*
X126000014Y-78639909D01*
X125889719Y-78830943D01*
X125889714Y-78830954D01*
X125799394Y-79049006D01*
X125738306Y-79276989D01*
X125707501Y-79510979D01*
X125707500Y-79510995D01*
X125707500Y-79747004D01*
X125707501Y-79747020D01*
X125738306Y-79981010D01*
X125799394Y-80208993D01*
X125889714Y-80427045D01*
X125889719Y-80427056D01*
X125960677Y-80549957D01*
X126007727Y-80631450D01*
X126007729Y-80631453D01*
X126007730Y-80631454D01*
X126151406Y-80818697D01*
X126151412Y-80818704D01*
X126318295Y-80985587D01*
X126318302Y-80985593D01*
X126428306Y-81070001D01*
X126505550Y-81129273D01*
X126636918Y-81205118D01*
X126709943Y-81247280D01*
X126709948Y-81247282D01*
X126709951Y-81247284D01*
X126928007Y-81337606D01*
X127155986Y-81398693D01*
X127307686Y-81418664D01*
X127371582Y-81446930D01*
X127410053Y-81505255D01*
X127415500Y-81541603D01*
X127415500Y-90137397D01*
X127395815Y-90204436D01*
X127347800Y-90247879D01*
X127334389Y-90254712D01*
X127168786Y-90375028D01*
X127024028Y-90519786D01*
X126903713Y-90685388D01*
X126856203Y-90778630D01*
X126808228Y-90829426D01*
X126740407Y-90846220D01*
X126674272Y-90823682D01*
X126635234Y-90778628D01*
X126587861Y-90685652D01*
X126467582Y-90520105D01*
X126467582Y-90520104D01*
X126322895Y-90375417D01*
X126157349Y-90255140D01*
X125975029Y-90162244D01*
X125780413Y-90099009D01*
X125726000Y-90090390D01*
X125726000Y-91133988D01*
X125668993Y-91101075D01*
X125541826Y-91067000D01*
X125410174Y-91067000D01*
X125283007Y-91101075D01*
X125226000Y-91133988D01*
X125226000Y-90090390D01*
X125171586Y-90099009D01*
X124976970Y-90162244D01*
X124794650Y-90255140D01*
X124629105Y-90375417D01*
X124629104Y-90375417D01*
X124484417Y-90520104D01*
X124484417Y-90520105D01*
X124364140Y-90685650D01*
X124271244Y-90867968D01*
X124208009Y-91062582D01*
X124176000Y-91264682D01*
X124176000Y-91317000D01*
X125042988Y-91317000D01*
X125010075Y-91374007D01*
X124976000Y-91501174D01*
X124976000Y-91632826D01*
X125010075Y-91759993D01*
X125042988Y-91817000D01*
X124176000Y-91817000D01*
X124176000Y-91869317D01*
X124208009Y-92071417D01*
X124271244Y-92266031D01*
X124364140Y-92448349D01*
X124484417Y-92613894D01*
X124484417Y-92613895D01*
X124629104Y-92758582D01*
X124794650Y-92878859D01*
X124976968Y-92971754D01*
X125171578Y-93034988D01*
X125226000Y-93043607D01*
X125226000Y-92000012D01*
X125283007Y-92032925D01*
X125410174Y-92067000D01*
X125541826Y-92067000D01*
X125668993Y-92032925D01*
X125726000Y-92000012D01*
X125726000Y-93043606D01*
X125780421Y-93034988D01*
X125975031Y-92971754D01*
X126157349Y-92878859D01*
X126322894Y-92758582D01*
X126322895Y-92758582D01*
X126467582Y-92613895D01*
X126467582Y-92613894D01*
X126587861Y-92448347D01*
X126635234Y-92355371D01*
X126683208Y-92304575D01*
X126751028Y-92287779D01*
X126817164Y-92310316D01*
X126856203Y-92355369D01*
X126903713Y-92448611D01*
X127024028Y-92614213D01*
X127024034Y-92614219D01*
X127168781Y-92758966D01*
X127334390Y-92879287D01*
X127347793Y-92886116D01*
X127398589Y-92934088D01*
X127415500Y-92996601D01*
X127415500Y-121452330D01*
X127415499Y-121452348D01*
X127415499Y-121618054D01*
X127415498Y-121618054D01*
X127456423Y-121770785D01*
X127485358Y-121820900D01*
X127485359Y-121820904D01*
X127485360Y-121820904D01*
X127523606Y-121887150D01*
X127535479Y-121907714D01*
X127535481Y-121907717D01*
X127654349Y-122026585D01*
X127654355Y-122026590D01*
X128025584Y-122397819D01*
X128059069Y-122459142D01*
X128054085Y-122528834D01*
X128012213Y-122584767D01*
X127946749Y-122609184D01*
X127937903Y-122609500D01*
X114207097Y-122609500D01*
X114140058Y-122589815D01*
X114119416Y-122573181D01*
X105268318Y-113722083D01*
X105234833Y-113660760D01*
X105231999Y-113634402D01*
X105231999Y-111986629D01*
X105231998Y-111986623D01*
X105231997Y-111986616D01*
X105225591Y-111927017D01*
X105175296Y-111792169D01*
X105175295Y-111792168D01*
X105175293Y-111792164D01*
X105089047Y-111676955D01*
X105089044Y-111676952D01*
X104973835Y-111590706D01*
X104973828Y-111590702D01*
X104838982Y-111540408D01*
X104838983Y-111540408D01*
X104779383Y-111534001D01*
X104779381Y-111534000D01*
X104779373Y-111534000D01*
X104779364Y-111534000D01*
X102683629Y-111534000D01*
X102683623Y-111534001D01*
X102624016Y-111540408D01*
X102489171Y-111590702D01*
X102489164Y-111590706D01*
X102373955Y-111676952D01*
X102373952Y-111676955D01*
X102287706Y-111792164D01*
X102287702Y-111792171D01*
X102237408Y-111927017D01*
X102235210Y-111947466D01*
X102231001Y-111986623D01*
X102231000Y-111986635D01*
X102231000Y-114082370D01*
X102231001Y-114082376D01*
X102237408Y-114141983D01*
X102287702Y-114276828D01*
X102287706Y-114276835D01*
X102373952Y-114392044D01*
X102373955Y-114392047D01*
X102489164Y-114478293D01*
X102489171Y-114478297D01*
X102624017Y-114528591D01*
X102624016Y-114528591D01*
X102630944Y-114529335D01*
X102683627Y-114535000D01*
X104331402Y-114534999D01*
X104398441Y-114554684D01*
X104419083Y-114571318D01*
X113426478Y-123578713D01*
X113426480Y-123578716D01*
X113514584Y-123666820D01*
X113548068Y-123728141D01*
X113548067Y-123728142D01*
X113548068Y-123728143D01*
X113543084Y-123797834D01*
X113519894Y-123828812D01*
X113509888Y-123842179D01*
X113501212Y-123853768D01*
X113471315Y-123864918D01*
X113435749Y-123878184D01*
X113426902Y-123878500D01*
X99438000Y-123878500D01*
X99370961Y-123858815D01*
X99325206Y-123806011D01*
X99314000Y-123754500D01*
X99314000Y-105416402D01*
X102231000Y-105416402D01*
X102231000Y-105652597D01*
X102267946Y-105885868D01*
X102340933Y-106110496D01*
X102442287Y-106309412D01*
X102448157Y-106320933D01*
X102586983Y-106512010D01*
X102753990Y-106679017D01*
X102945067Y-106817843D01*
X103042454Y-106867464D01*
X103155503Y-106925066D01*
X103155505Y-106925066D01*
X103155508Y-106925068D01*
X103233829Y-106950516D01*
X103380131Y-106998053D01*
X103613403Y-107035000D01*
X103613408Y-107035000D01*
X103849597Y-107035000D01*
X104082868Y-106998053D01*
X104109019Y-106989556D01*
X104307492Y-106925068D01*
X104517933Y-106817843D01*
X104709010Y-106679017D01*
X104876017Y-106512010D01*
X105014843Y-106320933D01*
X105122068Y-106110492D01*
X105195053Y-105885868D01*
X105216673Y-105749364D01*
X105232000Y-105652597D01*
X105232000Y-105416402D01*
X105195053Y-105183131D01*
X105161189Y-105078912D01*
X105122068Y-104958508D01*
X105122066Y-104958505D01*
X105122066Y-104958503D01*
X105032387Y-104782500D01*
X105014843Y-104748067D01*
X104876017Y-104556990D01*
X104709010Y-104389983D01*
X104517933Y-104251157D01*
X104307496Y-104143933D01*
X104082868Y-104070946D01*
X103849597Y-104034000D01*
X103849592Y-104034000D01*
X103613408Y-104034000D01*
X103613403Y-104034000D01*
X103380131Y-104070946D01*
X103155503Y-104143933D01*
X102945066Y-104251157D01*
X102836050Y-104330362D01*
X102753990Y-104389983D01*
X102753988Y-104389985D01*
X102753987Y-104389985D01*
X102586985Y-104556987D01*
X102586985Y-104556988D01*
X102586983Y-104556990D01*
X102561428Y-104592164D01*
X102448157Y-104748066D01*
X102340933Y-104958503D01*
X102267946Y-105183131D01*
X102231000Y-105416402D01*
X99314000Y-105416402D01*
X99314000Y-78528983D01*
X104625500Y-78528983D01*
X104625500Y-80729001D01*
X104625501Y-80729018D01*
X104636000Y-80831796D01*
X104636001Y-80831799D01*
X104676249Y-80953258D01*
X104691186Y-80998334D01*
X104783288Y-81147656D01*
X104907344Y-81271712D01*
X105056666Y-81363814D01*
X105223203Y-81418999D01*
X105325991Y-81429500D01*
X107526008Y-81429499D01*
X107628797Y-81418999D01*
X107795334Y-81363814D01*
X107944656Y-81271712D01*
X108068712Y-81147656D01*
X108160814Y-80998334D01*
X108215999Y-80831797D01*
X108226500Y-80729009D01*
X108226499Y-79511014D01*
X109706000Y-79511014D01*
X109706000Y-79746985D01*
X109736799Y-79980914D01*
X109797870Y-80208837D01*
X109888160Y-80426819D01*
X109888165Y-80426828D01*
X110006144Y-80631171D01*
X110006145Y-80631172D01*
X110068721Y-80712723D01*
X110904958Y-79876487D01*
X110929978Y-79936890D01*
X111001112Y-80043351D01*
X111091649Y-80133888D01*
X111198110Y-80205022D01*
X111258511Y-80230041D01*
X110422275Y-81066277D01*
X110503827Y-81128854D01*
X110503828Y-81128855D01*
X110708171Y-81246834D01*
X110708180Y-81246839D01*
X110926163Y-81337129D01*
X110926161Y-81337129D01*
X111154085Y-81398200D01*
X111388014Y-81428999D01*
X111388029Y-81429000D01*
X111623971Y-81429000D01*
X111623985Y-81428999D01*
X111857914Y-81398200D01*
X112085837Y-81337129D01*
X112303819Y-81246839D01*
X112303828Y-81246834D01*
X112508181Y-81128850D01*
X112589723Y-81066279D01*
X112589723Y-81066276D01*
X111753487Y-80230041D01*
X111813890Y-80205022D01*
X111920351Y-80133888D01*
X112010888Y-80043351D01*
X112082022Y-79936890D01*
X112107041Y-79876488D01*
X112943276Y-80712723D01*
X112943279Y-80712723D01*
X113005850Y-80631181D01*
X113123834Y-80426828D01*
X113123839Y-80426819D01*
X113214129Y-80208837D01*
X113275200Y-79980914D01*
X113305999Y-79746985D01*
X113306000Y-79746971D01*
X113306000Y-79511028D01*
X113305999Y-79511014D01*
X113275200Y-79277085D01*
X113214129Y-79049162D01*
X113123839Y-78831180D01*
X113123834Y-78831171D01*
X113005855Y-78626828D01*
X113005854Y-78626827D01*
X112943277Y-78545275D01*
X112107041Y-79381511D01*
X112082022Y-79321110D01*
X112010888Y-79214649D01*
X111920351Y-79124112D01*
X111813890Y-79052978D01*
X111753488Y-79027958D01*
X112589723Y-78191721D01*
X112508172Y-78129145D01*
X112508171Y-78129144D01*
X112303828Y-78011165D01*
X112303819Y-78011160D01*
X112085836Y-77920870D01*
X112085838Y-77920870D01*
X111857914Y-77859799D01*
X111623985Y-77829000D01*
X111388014Y-77829000D01*
X111154085Y-77859799D01*
X110926162Y-77920870D01*
X110708180Y-78011160D01*
X110708171Y-78011165D01*
X110503828Y-78129144D01*
X110503818Y-78129150D01*
X110422275Y-78191720D01*
X110422275Y-78191721D01*
X111258512Y-79027958D01*
X111198110Y-79052978D01*
X111091649Y-79124112D01*
X111001112Y-79214649D01*
X110929978Y-79321110D01*
X110904958Y-79381512D01*
X110068721Y-78545275D01*
X110068720Y-78545275D01*
X110006150Y-78626818D01*
X110006144Y-78626828D01*
X109888165Y-78831171D01*
X109888160Y-78831180D01*
X109797870Y-79049162D01*
X109736799Y-79277085D01*
X109706000Y-79511014D01*
X108226499Y-79511014D01*
X108226499Y-78528992D01*
X108215999Y-78426203D01*
X108160814Y-78259666D01*
X108068712Y-78110344D01*
X107944656Y-77986288D01*
X107795334Y-77894186D01*
X107628797Y-77839001D01*
X107628795Y-77839000D01*
X107526010Y-77828500D01*
X105325998Y-77828500D01*
X105325981Y-77828501D01*
X105223203Y-77839000D01*
X105223200Y-77839001D01*
X105056668Y-77894185D01*
X105056663Y-77894187D01*
X104907342Y-77986289D01*
X104783289Y-78110342D01*
X104691187Y-78259663D01*
X104691185Y-78259668D01*
X104684886Y-78278678D01*
X104636001Y-78426203D01*
X104636001Y-78426204D01*
X104636000Y-78426204D01*
X104625500Y-78528983D01*
X99314000Y-78528983D01*
X99314000Y-75003500D01*
X99333685Y-74936461D01*
X99386489Y-74890706D01*
X99438000Y-74879500D01*
X227089500Y-74879500D01*
X227156539Y-74899185D01*
G37*
%TD.AperFunction*%
%TD*%
M02*
