M48
; DRILL file {KiCad 9.0.2} date 2025-08-18T16:05:21+0200
; FORMAT={-:-/ absolute / inch / decimal}
; #@! TF.CreationDate,2025-08-18T16:05:21+02:00
; #@! TF.GenerationSoftware,Kicad,Pcbnew,9.0.2
; #@! TF.FileFunction,Plated,1,2,PTH
FMAT,2
INCH
; #@! TA.AperFunction,Plated,PTH,ViaDrill
T1C0.0118
; #@! TA.AperFunction,Plated,PTH,ComponentDrill
T2C0.0350
; #@! TA.AperFunction,Plated,PTH,ComponentDrill
T3C0.0394
; #@! TA.AperFunction,Plated,PTH,ComponentDrill
T4C0.0512
; #@! TA.AperFunction,Plated,PTH,ComponentDrill
T5C0.0630
%
G90
G05
T1
X4.65Y-4.72
X4.65Y-4.98
T2
X5.27Y-4.61
X5.27Y-4.71
X5.27Y-4.81
X5.27Y-4.91
X5.27Y-5.01
X5.27Y-5.11
X5.27Y-5.21
X5.87Y-4.61
X5.87Y-4.71
X5.87Y-4.81
X5.87Y-4.91
X5.87Y-5.01
X5.87Y-5.11
X5.87Y-5.21
T3
X5.03Y-4.22
X5.13Y-4.22
X5.23Y-4.22
X5.33Y-4.22
X6.33Y-4.18
X6.33Y-4.28
X6.33Y-4.38
X6.33Y-4.48
X6.33Y-4.58
X6.33Y-4.68
X6.33Y-4.78
X6.33Y-4.88
T4
X3.2587Y-4.8352
X3.3965Y-4.5399
X3.5343Y-4.8352
X4.1839Y-4.5399
X4.1839Y-4.8352
T5
X3.38Y-3.78
X3.58Y-3.78
X3.78Y-3.78
X4.96Y-3.79
X5.16Y-3.79
X5.36Y-3.79
X5.56Y-3.79
X5.76Y-3.79
X5.96Y-3.79
M30
