%TF.GenerationSoftware,KiCad,Pcbnew,9.0.2*%
%TF.CreationDate,2025-08-18T15:59:43+02:00*%
%TF.ProjectId,esp32c6-charger,65737033-3263-4362-9d63-686172676572,rev?*%
%TF.SameCoordinates,Original*%
%TF.FileFunction,Soldermask,Bot*%
%TF.FilePolarity,Negative*%
%FSLAX46Y46*%
G04 Gerber Fmt 4.6, Leading zero omitted, Abs format (unit mm)*
G04 Created by KiCad (PCBNEW 9.0.2) date 2025-08-18 15:59:43*
%MOMM*%
%LPD*%
G01*
G04 APERTURE LIST*
G04 Aperture macros list*
%AMRoundRect*
0 Rectangle with rounded corners*
0 $1 Rounding radius*
0 $2 $3 $4 $5 $6 $7 $8 $9 X,Y pos of 4 corners*
0 Add a 4 corners polygon primitive as box body*
4,1,4,$2,$3,$4,$5,$6,$7,$8,$9,$2,$3,0*
0 Add four circle primitives for the rounded corners*
1,1,$1+$1,$2,$3*
1,1,$1+$1,$4,$5*
1,1,$1+$1,$6,$7*
1,1,$1+$1,$8,$9*
0 Add four rect primitives between the rounded corners*
20,1,$1+$1,$2,$3,$4,$5,0*
20,1,$1+$1,$4,$5,$6,$7,0*
20,1,$1+$1,$6,$7,$8,$9,0*
20,1,$1+$1,$8,$9,$2,$3,0*%
G04 Aperture macros list end*
%ADD10C,2.000000*%
%ADD11R,2.000000X2.000000*%
%ADD12C,2.400000*%
%ADD13RoundRect,0.250001X0.949999X0.949999X-0.949999X0.949999X-0.949999X-0.949999X0.949999X-0.949999X0*%
%ADD14C,1.524000*%
%ADD15R,1.700000X1.700000*%
%ADD16C,1.700000*%
G04 APERTURE END LIST*
D10*
%TO.C,K1*%
X86271500Y-115313500D03*
X89771500Y-122813500D03*
X82771500Y-122813500D03*
D11*
X106271500Y-122813500D03*
D10*
X106271500Y-115313500D03*
%TD*%
D12*
%TO.C,J2*%
X85852000Y-96012000D03*
X90932000Y-96012000D03*
D13*
X96012000Y-96012000D03*
%TD*%
D14*
%TO.C,U1*%
X133858000Y-117094000D03*
X133858000Y-119634000D03*
X133858000Y-122174000D03*
X133858000Y-124714000D03*
X133858000Y-127254000D03*
X133858000Y-129794000D03*
X133858000Y-132334000D03*
X149098000Y-132334000D03*
X149098000Y-129794000D03*
X149098000Y-127254000D03*
X149098000Y-124714000D03*
X149098000Y-122174000D03*
X149098000Y-119634000D03*
X149098000Y-117094000D03*
%TD*%
D15*
%TO.C,RFID1*%
X160782000Y-106172000D03*
D16*
X160782000Y-108712000D03*
X160782000Y-111252000D03*
X160782000Y-113792000D03*
X160782000Y-116332000D03*
X160782000Y-118872000D03*
X160782000Y-121412000D03*
X160782000Y-123952000D03*
%TD*%
D15*
%TO.C,Brd1*%
X127762000Y-107188000D03*
D16*
X130302000Y-107188000D03*
X132842000Y-107188000D03*
X135382000Y-107188000D03*
%TD*%
D13*
%TO.C,J1*%
X151384000Y-96266000D03*
D12*
X146304000Y-96266000D03*
X141224000Y-96266000D03*
X136144000Y-96266000D03*
X131064000Y-96266000D03*
X125984000Y-96266000D03*
%TD*%
M02*
