M48
; DRILL file {KiCad 9.0.2} date 2025-08-19T17:48:26+0200
; FORMAT={-:-/ absolute / inch / decimal}
; #@! TF.CreationDate,2025-08-19T17:48:26+02:00
; #@! TF.GenerationSoftware,Kicad,Pcbnew,9.0.2
; #@! TF.FileFunction,MixedPlating,1,2
FMAT,2
INCH
; #@! TA.AperFunction,Plated,PTH,ComponentDrill
T1C0.0350
; #@! TA.AperFunction,Plated,PTH,ComponentDrill
T2C0.0394
; #@! TA.AperFunction,Plated,PTH,ComponentDrill
T3C0.0512
%
G90
G05
T1
X5.27Y-4.79
X5.27Y-4.89
X5.27Y-4.99
X5.27Y-5.09
X5.27Y-5.19
X5.27Y-5.29
X5.27Y-5.39
X5.87Y-4.79
X5.87Y-4.89
X5.87Y-4.99
X5.87Y-5.09
X5.87Y-5.19
X5.87Y-5.29
X5.87Y-5.39
T2
X5.03Y-4.22
X5.13Y-4.22
X5.23Y-4.22
X5.33Y-4.22
X6.33Y-4.18
X6.33Y-4.28
X6.33Y-4.38
X6.33Y-4.48
X6.33Y-4.58
X6.33Y-4.68
X6.33Y-4.78
X6.33Y-4.88
T3
X3.2587Y-4.8352
X3.38Y-3.75
X3.3965Y-4.5399
X3.5343Y-4.8352
X3.58Y-3.75
X3.78Y-3.75
X4.1839Y-4.5399
X4.1839Y-4.8352
X4.91Y-3.74
X5.11Y-3.74
X5.31Y-3.74
X5.51Y-3.74
X5.71Y-3.74
X5.91Y-3.74
M30
