%TF.GenerationSoftware,KiCad,Pcbnew,9.0.2*%
%TF.CreationDate,2025-08-20T17:26:38+02:00*%
%TF.ProjectId,esp32c6-charger,65737033-3263-4362-9d63-686172676572,rev?*%
%TF.SameCoordinates,Original*%
%TF.FileFunction,AssemblyDrawing,Bot*%
%FSLAX45Y45*%
G04 Gerber Fmt 4.5, Leading zero omitted, Abs format (unit mm)*
G04 Created by KiCad (PCBNEW 9.0.2) date 2025-08-20 17:26:38*
%MOMM*%
%LPD*%
G01*
G04 APERTURE LIST*
%ADD10C,0.120000*%
%ADD11C,0.150000*%
%ADD12C,0.060000*%
%ADD13C,0.100000*%
%ADD14C,0.504000*%
G04 APERTURE END LIST*
D10*
X11873697Y-11161586D02*
X11873697Y-11081586D01*
X11873697Y-11081586D02*
X11854650Y-11081586D01*
X11854650Y-11081586D02*
X11843221Y-11085395D01*
X11843221Y-11085395D02*
X11835602Y-11093014D01*
X11835602Y-11093014D02*
X11831793Y-11100633D01*
X11831793Y-11100633D02*
X11827983Y-11115871D01*
X11827983Y-11115871D02*
X11827983Y-11127300D01*
X11827983Y-11127300D02*
X11831793Y-11142538D01*
X11831793Y-11142538D02*
X11835602Y-11150157D01*
X11835602Y-11150157D02*
X11843221Y-11157776D01*
X11843221Y-11157776D02*
X11854650Y-11161586D01*
X11854650Y-11161586D02*
X11873697Y-11161586D01*
X11759412Y-11108252D02*
X11759412Y-11161586D01*
X11778459Y-11077776D02*
X11797507Y-11134919D01*
X11797507Y-11134919D02*
X11747983Y-11134919D01*
X11873697Y-11542585D02*
X11873697Y-11462585D01*
X11873697Y-11462585D02*
X11854650Y-11462585D01*
X11854650Y-11462585D02*
X11843221Y-11466395D01*
X11843221Y-11466395D02*
X11835602Y-11474014D01*
X11835602Y-11474014D02*
X11831793Y-11481633D01*
X11831793Y-11481633D02*
X11827983Y-11496871D01*
X11827983Y-11496871D02*
X11827983Y-11508300D01*
X11827983Y-11508300D02*
X11831793Y-11523538D01*
X11831793Y-11523538D02*
X11835602Y-11531157D01*
X11835602Y-11531157D02*
X11843221Y-11538776D01*
X11843221Y-11538776D02*
X11854650Y-11542585D01*
X11854650Y-11542585D02*
X11873697Y-11542585D01*
X11797507Y-11470204D02*
X11793697Y-11466395D01*
X11793697Y-11466395D02*
X11786078Y-11462585D01*
X11786078Y-11462585D02*
X11767031Y-11462585D01*
X11767031Y-11462585D02*
X11759412Y-11466395D01*
X11759412Y-11466395D02*
X11755602Y-11470204D01*
X11755602Y-11470204D02*
X11751793Y-11477824D01*
X11751793Y-11477824D02*
X11751793Y-11485443D01*
X11751793Y-11485443D02*
X11755602Y-11496871D01*
X11755602Y-11496871D02*
X11801317Y-11542585D01*
X11801317Y-11542585D02*
X11751793Y-11542585D01*
D11*
X12626971Y-11649682D02*
X12646019Y-11649682D01*
X12646019Y-11649682D02*
X12655543Y-11654444D01*
X12655543Y-11654444D02*
X12660305Y-11659206D01*
X12660305Y-11659206D02*
X12669828Y-11673491D01*
X12669828Y-11673491D02*
X12674590Y-11692539D01*
X12674590Y-11692539D02*
X12674590Y-11730634D01*
X12674590Y-11730634D02*
X12669828Y-11740158D01*
X12669828Y-11740158D02*
X12665067Y-11744920D01*
X12665067Y-11744920D02*
X12655543Y-11749682D01*
X12655543Y-11749682D02*
X12636495Y-11749682D01*
X12636495Y-11749682D02*
X12626971Y-11744920D01*
X12626971Y-11744920D02*
X12622209Y-11740158D01*
X12622209Y-11740158D02*
X12617448Y-11730634D01*
X12617448Y-11730634D02*
X12617448Y-11706825D01*
X12617448Y-11706825D02*
X12622209Y-11697301D01*
X12622209Y-11697301D02*
X12626971Y-11692539D01*
X12626971Y-11692539D02*
X12636495Y-11687777D01*
X12636495Y-11687777D02*
X12655543Y-11687777D01*
X12655543Y-11687777D02*
X12665067Y-11692539D01*
X12665067Y-11692539D02*
X12669828Y-11697301D01*
X12669828Y-11697301D02*
X12674590Y-11706825D01*
X12560305Y-11692539D02*
X12569828Y-11687777D01*
X12569828Y-11687777D02*
X12574590Y-11683015D01*
X12574590Y-11683015D02*
X12579352Y-11673491D01*
X12579352Y-11673491D02*
X12579352Y-11668729D01*
X12579352Y-11668729D02*
X12574590Y-11659206D01*
X12574590Y-11659206D02*
X12569828Y-11654444D01*
X12569828Y-11654444D02*
X12560305Y-11649682D01*
X12560305Y-11649682D02*
X12541257Y-11649682D01*
X12541257Y-11649682D02*
X12531733Y-11654444D01*
X12531733Y-11654444D02*
X12526971Y-11659206D01*
X12526971Y-11659206D02*
X12522209Y-11668729D01*
X12522209Y-11668729D02*
X12522209Y-11673491D01*
X12522209Y-11673491D02*
X12526971Y-11683015D01*
X12526971Y-11683015D02*
X12531733Y-11687777D01*
X12531733Y-11687777D02*
X12541257Y-11692539D01*
X12541257Y-11692539D02*
X12560305Y-11692539D01*
X12560305Y-11692539D02*
X12569828Y-11697301D01*
X12569828Y-11697301D02*
X12574590Y-11702063D01*
X12574590Y-11702063D02*
X12579352Y-11711587D01*
X12579352Y-11711587D02*
X12579352Y-11730634D01*
X12579352Y-11730634D02*
X12574590Y-11740158D01*
X12574590Y-11740158D02*
X12569828Y-11744920D01*
X12569828Y-11744920D02*
X12560305Y-11749682D01*
X12560305Y-11749682D02*
X12541257Y-11749682D01*
X12541257Y-11749682D02*
X12531733Y-11744920D01*
X12531733Y-11744920D02*
X12526971Y-11740158D01*
X12526971Y-11740158D02*
X12522209Y-11730634D01*
X12522209Y-11730634D02*
X12522209Y-11711587D01*
X12522209Y-11711587D02*
X12526971Y-11702063D01*
X12526971Y-11702063D02*
X12531733Y-11697301D01*
X12531733Y-11697301D02*
X12541257Y-11692539D01*
D10*
X12611733Y-11923585D02*
X12638400Y-11885490D01*
X12657447Y-11923585D02*
X12657447Y-11843585D01*
X12657447Y-11843585D02*
X12626971Y-11843585D01*
X12626971Y-11843585D02*
X12619352Y-11847395D01*
X12619352Y-11847395D02*
X12615543Y-11851204D01*
X12615543Y-11851204D02*
X12611733Y-11858824D01*
X12611733Y-11858824D02*
X12611733Y-11870252D01*
X12611733Y-11870252D02*
X12615543Y-11877871D01*
X12615543Y-11877871D02*
X12619352Y-11881681D01*
X12619352Y-11881681D02*
X12626971Y-11885490D01*
X12626971Y-11885490D02*
X12657447Y-11885490D01*
X12585067Y-11843585D02*
X12535543Y-11843585D01*
X12535543Y-11843585D02*
X12562209Y-11874062D01*
X12562209Y-11874062D02*
X12550781Y-11874062D01*
X12550781Y-11874062D02*
X12543162Y-11877871D01*
X12543162Y-11877871D02*
X12539352Y-11881681D01*
X12539352Y-11881681D02*
X12535543Y-11889300D01*
X12535543Y-11889300D02*
X12535543Y-11908347D01*
X12535543Y-11908347D02*
X12539352Y-11915966D01*
X12539352Y-11915966D02*
X12543162Y-11919776D01*
X12543162Y-11919776D02*
X12550781Y-11923585D01*
X12550781Y-11923585D02*
X12573638Y-11923585D01*
X12573638Y-11923585D02*
X12581257Y-11919776D01*
X12581257Y-11919776D02*
X12585067Y-11915966D01*
X11873697Y-11923585D02*
X11873697Y-11843585D01*
X11873697Y-11843585D02*
X11854650Y-11843585D01*
X11854650Y-11843585D02*
X11843221Y-11847395D01*
X11843221Y-11847395D02*
X11835602Y-11855014D01*
X11835602Y-11855014D02*
X11831793Y-11862633D01*
X11831793Y-11862633D02*
X11827983Y-11877871D01*
X11827983Y-11877871D02*
X11827983Y-11889300D01*
X11827983Y-11889300D02*
X11831793Y-11904538D01*
X11831793Y-11904538D02*
X11835602Y-11912157D01*
X11835602Y-11912157D02*
X11843221Y-11919776D01*
X11843221Y-11919776D02*
X11854650Y-11923585D01*
X11854650Y-11923585D02*
X11873697Y-11923585D01*
X11801317Y-11843585D02*
X11751793Y-11843585D01*
X11751793Y-11843585D02*
X11778459Y-11874062D01*
X11778459Y-11874062D02*
X11767031Y-11874062D01*
X11767031Y-11874062D02*
X11759412Y-11877871D01*
X11759412Y-11877871D02*
X11755602Y-11881681D01*
X11755602Y-11881681D02*
X11751793Y-11889300D01*
X11751793Y-11889300D02*
X11751793Y-11908347D01*
X11751793Y-11908347D02*
X11755602Y-11915966D01*
X11755602Y-11915966D02*
X11759412Y-11919776D01*
X11759412Y-11919776D02*
X11767031Y-11923585D01*
X11767031Y-11923585D02*
X11789888Y-11923585D01*
X11789888Y-11923585D02*
X11797507Y-11919776D01*
X11797507Y-11919776D02*
X11801317Y-11915966D01*
D11*
X11984564Y-12602901D02*
X11970278Y-12607663D01*
X11970278Y-12607663D02*
X11965517Y-12612425D01*
X11965517Y-12612425D02*
X11960755Y-12621948D01*
X11960755Y-12621948D02*
X11960755Y-12636234D01*
X11960755Y-12636234D02*
X11965517Y-12645758D01*
X11965517Y-12645758D02*
X11970278Y-12650520D01*
X11970278Y-12650520D02*
X11979802Y-12655282D01*
X11979802Y-12655282D02*
X12017897Y-12655282D01*
X12017897Y-12655282D02*
X12017897Y-12555282D01*
X12017897Y-12555282D02*
X11984564Y-12555282D01*
X11984564Y-12555282D02*
X11975040Y-12560044D01*
X11975040Y-12560044D02*
X11970278Y-12564806D01*
X11970278Y-12564806D02*
X11965517Y-12574329D01*
X11965517Y-12574329D02*
X11965517Y-12583853D01*
X11965517Y-12583853D02*
X11970278Y-12593377D01*
X11970278Y-12593377D02*
X11975040Y-12598139D01*
X11975040Y-12598139D02*
X11984564Y-12602901D01*
X11984564Y-12602901D02*
X12017897Y-12602901D01*
X11860755Y-12645758D02*
X11865517Y-12650520D01*
X11865517Y-12650520D02*
X11879802Y-12655282D01*
X11879802Y-12655282D02*
X11889326Y-12655282D01*
X11889326Y-12655282D02*
X11903612Y-12650520D01*
X11903612Y-12650520D02*
X11913136Y-12640996D01*
X11913136Y-12640996D02*
X11917897Y-12631472D01*
X11917897Y-12631472D02*
X11922659Y-12612425D01*
X11922659Y-12612425D02*
X11922659Y-12598139D01*
X11922659Y-12598139D02*
X11917897Y-12579091D01*
X11917897Y-12579091D02*
X11913136Y-12569568D01*
X11913136Y-12569568D02*
X11903612Y-12560044D01*
X11903612Y-12560044D02*
X11889326Y-12555282D01*
X11889326Y-12555282D02*
X11879802Y-12555282D01*
X11879802Y-12555282D02*
X11865517Y-12560044D01*
X11865517Y-12560044D02*
X11860755Y-12564806D01*
X11803612Y-12598139D02*
X11813136Y-12593377D01*
X11813136Y-12593377D02*
X11817897Y-12588615D01*
X11817897Y-12588615D02*
X11822659Y-12579091D01*
X11822659Y-12579091D02*
X11822659Y-12574329D01*
X11822659Y-12574329D02*
X11817897Y-12564806D01*
X11817897Y-12564806D02*
X11813136Y-12560044D01*
X11813136Y-12560044D02*
X11803612Y-12555282D01*
X11803612Y-12555282D02*
X11784564Y-12555282D01*
X11784564Y-12555282D02*
X11775040Y-12560044D01*
X11775040Y-12560044D02*
X11770278Y-12564806D01*
X11770278Y-12564806D02*
X11765517Y-12574329D01*
X11765517Y-12574329D02*
X11765517Y-12579091D01*
X11765517Y-12579091D02*
X11770278Y-12588615D01*
X11770278Y-12588615D02*
X11775040Y-12593377D01*
X11775040Y-12593377D02*
X11784564Y-12598139D01*
X11784564Y-12598139D02*
X11803612Y-12598139D01*
X11803612Y-12598139D02*
X11813136Y-12602901D01*
X11813136Y-12602901D02*
X11817897Y-12607663D01*
X11817897Y-12607663D02*
X11822659Y-12617187D01*
X11822659Y-12617187D02*
X11822659Y-12636234D01*
X11822659Y-12636234D02*
X11817897Y-12645758D01*
X11817897Y-12645758D02*
X11813136Y-12650520D01*
X11813136Y-12650520D02*
X11803612Y-12655282D01*
X11803612Y-12655282D02*
X11784564Y-12655282D01*
X11784564Y-12655282D02*
X11775040Y-12650520D01*
X11775040Y-12650520D02*
X11770278Y-12645758D01*
X11770278Y-12645758D02*
X11765517Y-12636234D01*
X11765517Y-12636234D02*
X11765517Y-12617187D01*
X11765517Y-12617187D02*
X11770278Y-12607663D01*
X11770278Y-12607663D02*
X11775040Y-12602901D01*
X11775040Y-12602901D02*
X11784564Y-12598139D01*
X11670278Y-12655282D02*
X11727421Y-12655282D01*
X11698850Y-12655282D02*
X11698850Y-12555282D01*
X11698850Y-12555282D02*
X11708374Y-12569568D01*
X11708374Y-12569568D02*
X11717897Y-12579091D01*
X11717897Y-12579091D02*
X11727421Y-12583853D01*
X11636945Y-12555282D02*
X11570278Y-12555282D01*
X11570278Y-12555282D02*
X11613136Y-12655282D01*
D12*
X11802659Y-12391802D02*
X11806469Y-12389897D01*
X11806469Y-12389897D02*
X11810278Y-12386088D01*
X11810278Y-12386088D02*
X11815993Y-12380374D01*
X11815993Y-12380374D02*
X11819802Y-12378469D01*
X11819802Y-12378469D02*
X11823612Y-12378469D01*
X11821707Y-12387993D02*
X11825517Y-12386088D01*
X11825517Y-12386088D02*
X11829326Y-12382278D01*
X11829326Y-12382278D02*
X11831231Y-12374659D01*
X11831231Y-12374659D02*
X11831231Y-12361326D01*
X11831231Y-12361326D02*
X11829326Y-12353707D01*
X11829326Y-12353707D02*
X11825517Y-12349897D01*
X11825517Y-12349897D02*
X11821707Y-12347993D01*
X11821707Y-12347993D02*
X11814088Y-12347993D01*
X11814088Y-12347993D02*
X11810278Y-12349897D01*
X11810278Y-12349897D02*
X11806469Y-12353707D01*
X11806469Y-12353707D02*
X11804564Y-12361326D01*
X11804564Y-12361326D02*
X11804564Y-12374659D01*
X11804564Y-12374659D02*
X11806469Y-12382278D01*
X11806469Y-12382278D02*
X11810278Y-12386088D01*
X11810278Y-12386088D02*
X11814088Y-12387993D01*
X11814088Y-12387993D02*
X11821707Y-12387993D01*
X11766469Y-12387993D02*
X11789326Y-12387993D01*
X11777897Y-12387993D02*
X11777897Y-12347993D01*
X11777897Y-12347993D02*
X11781707Y-12353707D01*
X11781707Y-12353707D02*
X11785517Y-12357516D01*
X11785517Y-12357516D02*
X11789326Y-12359421D01*
D11*
X12655324Y-12852282D02*
X12712467Y-12852282D01*
X12683895Y-12852282D02*
X12683895Y-12752282D01*
X12683895Y-12752282D02*
X12693419Y-12766568D01*
X12693419Y-12766568D02*
X12702943Y-12776091D01*
X12702943Y-12776091D02*
X12712467Y-12780853D01*
X12593419Y-12752282D02*
X12583895Y-12752282D01*
X12583895Y-12752282D02*
X12574371Y-12757044D01*
X12574371Y-12757044D02*
X12569609Y-12761806D01*
X12569609Y-12761806D02*
X12564848Y-12771329D01*
X12564848Y-12771329D02*
X12560086Y-12790377D01*
X12560086Y-12790377D02*
X12560086Y-12814187D01*
X12560086Y-12814187D02*
X12564848Y-12833234D01*
X12564848Y-12833234D02*
X12569609Y-12842758D01*
X12569609Y-12842758D02*
X12574371Y-12847520D01*
X12574371Y-12847520D02*
X12583895Y-12852282D01*
X12583895Y-12852282D02*
X12593419Y-12852282D01*
X12593419Y-12852282D02*
X12602943Y-12847520D01*
X12602943Y-12847520D02*
X12607705Y-12842758D01*
X12607705Y-12842758D02*
X12612467Y-12833234D01*
X12612467Y-12833234D02*
X12617228Y-12814187D01*
X12617228Y-12814187D02*
X12617228Y-12790377D01*
X12617228Y-12790377D02*
X12612467Y-12771329D01*
X12612467Y-12771329D02*
X12607705Y-12761806D01*
X12607705Y-12761806D02*
X12602943Y-12757044D01*
X12602943Y-12757044D02*
X12593419Y-12752282D01*
X12517228Y-12852282D02*
X12517228Y-12752282D01*
X12507705Y-12814187D02*
X12479133Y-12852282D01*
X12479133Y-12785615D02*
X12517228Y-12823710D01*
D10*
X12632185Y-12610467D02*
X12594090Y-12583800D01*
X12632185Y-12564752D02*
X12552185Y-12564752D01*
X12552185Y-12564752D02*
X12552185Y-12595229D01*
X12552185Y-12595229D02*
X12555995Y-12602848D01*
X12555995Y-12602848D02*
X12559804Y-12606657D01*
X12559804Y-12606657D02*
X12567424Y-12610467D01*
X12567424Y-12610467D02*
X12578852Y-12610467D01*
X12578852Y-12610467D02*
X12586471Y-12606657D01*
X12586471Y-12606657D02*
X12590281Y-12602848D01*
X12590281Y-12602848D02*
X12594090Y-12595229D01*
X12594090Y-12595229D02*
X12594090Y-12564752D01*
X12559804Y-12640943D02*
X12555995Y-12644752D01*
X12555995Y-12644752D02*
X12552185Y-12652371D01*
X12552185Y-12652371D02*
X12552185Y-12671419D01*
X12552185Y-12671419D02*
X12555995Y-12679038D01*
X12555995Y-12679038D02*
X12559804Y-12682848D01*
X12559804Y-12682848D02*
X12567424Y-12686657D01*
X12567424Y-12686657D02*
X12575043Y-12686657D01*
X12575043Y-12686657D02*
X12586471Y-12682848D01*
X12586471Y-12682848D02*
X12632185Y-12637133D01*
X12632185Y-12637133D02*
X12632185Y-12686657D01*
D11*
X12653924Y-12548882D02*
X12711067Y-12548882D01*
X12682495Y-12548882D02*
X12682495Y-12448882D01*
X12682495Y-12448882D02*
X12692019Y-12463168D01*
X12692019Y-12463168D02*
X12701543Y-12472691D01*
X12701543Y-12472691D02*
X12711067Y-12477453D01*
X12592019Y-12448882D02*
X12582495Y-12448882D01*
X12582495Y-12448882D02*
X12572971Y-12453644D01*
X12572971Y-12453644D02*
X12568209Y-12458406D01*
X12568209Y-12458406D02*
X12563448Y-12467929D01*
X12563448Y-12467929D02*
X12558686Y-12486977D01*
X12558686Y-12486977D02*
X12558686Y-12510787D01*
X12558686Y-12510787D02*
X12563448Y-12529834D01*
X12563448Y-12529834D02*
X12568209Y-12539358D01*
X12568209Y-12539358D02*
X12572971Y-12544120D01*
X12572971Y-12544120D02*
X12582495Y-12548882D01*
X12582495Y-12548882D02*
X12592019Y-12548882D01*
X12592019Y-12548882D02*
X12601543Y-12544120D01*
X12601543Y-12544120D02*
X12606305Y-12539358D01*
X12606305Y-12539358D02*
X12611067Y-12529834D01*
X12611067Y-12529834D02*
X12615828Y-12510787D01*
X12615828Y-12510787D02*
X12615828Y-12486977D01*
X12615828Y-12486977D02*
X12611067Y-12467929D01*
X12611067Y-12467929D02*
X12606305Y-12458406D01*
X12606305Y-12458406D02*
X12601543Y-12453644D01*
X12601543Y-12453644D02*
X12592019Y-12448882D01*
X12515828Y-12548882D02*
X12515828Y-12448882D01*
X12506305Y-12510787D02*
X12477733Y-12548882D01*
X12477733Y-12482215D02*
X12515828Y-12520310D01*
D10*
X12607733Y-12285785D02*
X12634400Y-12247690D01*
X12653447Y-12285785D02*
X12653447Y-12205785D01*
X12653447Y-12205785D02*
X12622971Y-12205785D01*
X12622971Y-12205785D02*
X12615352Y-12209595D01*
X12615352Y-12209595D02*
X12611543Y-12213404D01*
X12611543Y-12213404D02*
X12607733Y-12221024D01*
X12607733Y-12221024D02*
X12607733Y-12232452D01*
X12607733Y-12232452D02*
X12611543Y-12240071D01*
X12611543Y-12240071D02*
X12615352Y-12243881D01*
X12615352Y-12243881D02*
X12622971Y-12247690D01*
X12622971Y-12247690D02*
X12653447Y-12247690D01*
X12531543Y-12285785D02*
X12577257Y-12285785D01*
X12554400Y-12285785D02*
X12554400Y-12205785D01*
X12554400Y-12205785D02*
X12562019Y-12217214D01*
X12562019Y-12217214D02*
X12569638Y-12224833D01*
X12569638Y-12224833D02*
X12577257Y-12228643D01*
D11*
X12626971Y-11268682D02*
X12646019Y-11268682D01*
X12646019Y-11268682D02*
X12655543Y-11273444D01*
X12655543Y-11273444D02*
X12660305Y-11278206D01*
X12660305Y-11278206D02*
X12669828Y-11292491D01*
X12669828Y-11292491D02*
X12674590Y-11311539D01*
X12674590Y-11311539D02*
X12674590Y-11349634D01*
X12674590Y-11349634D02*
X12669828Y-11359158D01*
X12669828Y-11359158D02*
X12665067Y-11363920D01*
X12665067Y-11363920D02*
X12655543Y-11368682D01*
X12655543Y-11368682D02*
X12636495Y-11368682D01*
X12636495Y-11368682D02*
X12626971Y-11363920D01*
X12626971Y-11363920D02*
X12622209Y-11359158D01*
X12622209Y-11359158D02*
X12617448Y-11349634D01*
X12617448Y-11349634D02*
X12617448Y-11325825D01*
X12617448Y-11325825D02*
X12622209Y-11316301D01*
X12622209Y-11316301D02*
X12626971Y-11311539D01*
X12626971Y-11311539D02*
X12636495Y-11306777D01*
X12636495Y-11306777D02*
X12655543Y-11306777D01*
X12655543Y-11306777D02*
X12665067Y-11311539D01*
X12665067Y-11311539D02*
X12669828Y-11316301D01*
X12669828Y-11316301D02*
X12674590Y-11325825D01*
X12560305Y-11311539D02*
X12569828Y-11306777D01*
X12569828Y-11306777D02*
X12574590Y-11302015D01*
X12574590Y-11302015D02*
X12579352Y-11292491D01*
X12579352Y-11292491D02*
X12579352Y-11287729D01*
X12579352Y-11287729D02*
X12574590Y-11278206D01*
X12574590Y-11278206D02*
X12569828Y-11273444D01*
X12569828Y-11273444D02*
X12560305Y-11268682D01*
X12560305Y-11268682D02*
X12541257Y-11268682D01*
X12541257Y-11268682D02*
X12531733Y-11273444D01*
X12531733Y-11273444D02*
X12526971Y-11278206D01*
X12526971Y-11278206D02*
X12522209Y-11287729D01*
X12522209Y-11287729D02*
X12522209Y-11292491D01*
X12522209Y-11292491D02*
X12526971Y-11302015D01*
X12526971Y-11302015D02*
X12531733Y-11306777D01*
X12531733Y-11306777D02*
X12541257Y-11311539D01*
X12541257Y-11311539D02*
X12560305Y-11311539D01*
X12560305Y-11311539D02*
X12569828Y-11316301D01*
X12569828Y-11316301D02*
X12574590Y-11321063D01*
X12574590Y-11321063D02*
X12579352Y-11330587D01*
X12579352Y-11330587D02*
X12579352Y-11349634D01*
X12579352Y-11349634D02*
X12574590Y-11359158D01*
X12574590Y-11359158D02*
X12569828Y-11363920D01*
X12569828Y-11363920D02*
X12560305Y-11368682D01*
X12560305Y-11368682D02*
X12541257Y-11368682D01*
X12541257Y-11368682D02*
X12531733Y-11363920D01*
X12531733Y-11363920D02*
X12526971Y-11359158D01*
X12526971Y-11359158D02*
X12522209Y-11349634D01*
X12522209Y-11349634D02*
X12522209Y-11330587D01*
X12522209Y-11330587D02*
X12526971Y-11321063D01*
X12526971Y-11321063D02*
X12531733Y-11316301D01*
X12531733Y-11316301D02*
X12541257Y-11311539D01*
D10*
X12611733Y-11542585D02*
X12638400Y-11504490D01*
X12657447Y-11542585D02*
X12657447Y-11462585D01*
X12657447Y-11462585D02*
X12626971Y-11462585D01*
X12626971Y-11462585D02*
X12619352Y-11466395D01*
X12619352Y-11466395D02*
X12615543Y-11470204D01*
X12615543Y-11470204D02*
X12611733Y-11477824D01*
X12611733Y-11477824D02*
X12611733Y-11489252D01*
X12611733Y-11489252D02*
X12615543Y-11496871D01*
X12615543Y-11496871D02*
X12619352Y-11500681D01*
X12619352Y-11500681D02*
X12626971Y-11504490D01*
X12626971Y-11504490D02*
X12657447Y-11504490D01*
X12543162Y-11489252D02*
X12543162Y-11542585D01*
X12562209Y-11458776D02*
X12581257Y-11515919D01*
X12581257Y-11515919D02*
X12531733Y-11515919D01*
D11*
X9638579Y-12621594D02*
X9648102Y-12616832D01*
X9648102Y-12616832D02*
X9662388Y-12616832D01*
X9662388Y-12616832D02*
X9676674Y-12621594D01*
X9676674Y-12621594D02*
X9686198Y-12631118D01*
X9686198Y-12631118D02*
X9690959Y-12640641D01*
X9690959Y-12640641D02*
X9695721Y-12659689D01*
X9695721Y-12659689D02*
X9695721Y-12673975D01*
X9695721Y-12673975D02*
X9690959Y-12693022D01*
X9690959Y-12693022D02*
X9686198Y-12702546D01*
X9686198Y-12702546D02*
X9676674Y-12712070D01*
X9676674Y-12712070D02*
X9662388Y-12716832D01*
X9662388Y-12716832D02*
X9652864Y-12716832D01*
X9652864Y-12716832D02*
X9638579Y-12712070D01*
X9638579Y-12712070D02*
X9633817Y-12707308D01*
X9633817Y-12707308D02*
X9633817Y-12673975D01*
X9633817Y-12673975D02*
X9652864Y-12673975D01*
X9595721Y-12626356D02*
X9590959Y-12621594D01*
X9590959Y-12621594D02*
X9581436Y-12616832D01*
X9581436Y-12616832D02*
X9557626Y-12616832D01*
X9557626Y-12616832D02*
X9548102Y-12621594D01*
X9548102Y-12621594D02*
X9543340Y-12626356D01*
X9543340Y-12626356D02*
X9538579Y-12635879D01*
X9538579Y-12635879D02*
X9538579Y-12645403D01*
X9538579Y-12645403D02*
X9543340Y-12659689D01*
X9543340Y-12659689D02*
X9600483Y-12716832D01*
X9600483Y-12716832D02*
X9538579Y-12716832D01*
X9438579Y-12716832D02*
X9471912Y-12669213D01*
X9495721Y-12716832D02*
X9495721Y-12616832D01*
X9495721Y-12616832D02*
X9457626Y-12616832D01*
X9457626Y-12616832D02*
X9448102Y-12621594D01*
X9448102Y-12621594D02*
X9443340Y-12626356D01*
X9443340Y-12626356D02*
X9438579Y-12635879D01*
X9438579Y-12635879D02*
X9438579Y-12650165D01*
X9438579Y-12650165D02*
X9443340Y-12659689D01*
X9443340Y-12659689D02*
X9448102Y-12664451D01*
X9448102Y-12664451D02*
X9457626Y-12669213D01*
X9457626Y-12669213D02*
X9495721Y-12669213D01*
X9348102Y-12716832D02*
X9395721Y-12716832D01*
X9395721Y-12716832D02*
X9395721Y-12616832D01*
X9314769Y-12678737D02*
X9238579Y-12678737D01*
X9138579Y-12716832D02*
X9195721Y-12716832D01*
X9167150Y-12716832D02*
X9167150Y-12616832D01*
X9167150Y-12616832D02*
X9176674Y-12631118D01*
X9176674Y-12631118D02*
X9186198Y-12640641D01*
X9186198Y-12640641D02*
X9195721Y-12645403D01*
X9500959Y-11951832D02*
X9500959Y-11851832D01*
X9443817Y-11951832D02*
X9486674Y-11894689D01*
X9443817Y-11851832D02*
X9500959Y-11908975D01*
X9348579Y-11951832D02*
X9405721Y-11951832D01*
X9377150Y-11951832D02*
X9377150Y-11851832D01*
X9377150Y-11851832D02*
X9386674Y-11866118D01*
X9386674Y-11866118D02*
X9396198Y-11875641D01*
X9396198Y-11875641D02*
X9405721Y-11880403D01*
X12626971Y-10887682D02*
X12646019Y-10887682D01*
X12646019Y-10887682D02*
X12655543Y-10892444D01*
X12655543Y-10892444D02*
X12660305Y-10897206D01*
X12660305Y-10897206D02*
X12669828Y-10911491D01*
X12669828Y-10911491D02*
X12674590Y-10930539D01*
X12674590Y-10930539D02*
X12674590Y-10968634D01*
X12674590Y-10968634D02*
X12669828Y-10978158D01*
X12669828Y-10978158D02*
X12665067Y-10982920D01*
X12665067Y-10982920D02*
X12655543Y-10987682D01*
X12655543Y-10987682D02*
X12636495Y-10987682D01*
X12636495Y-10987682D02*
X12626971Y-10982920D01*
X12626971Y-10982920D02*
X12622209Y-10978158D01*
X12622209Y-10978158D02*
X12617448Y-10968634D01*
X12617448Y-10968634D02*
X12617448Y-10944825D01*
X12617448Y-10944825D02*
X12622209Y-10935301D01*
X12622209Y-10935301D02*
X12626971Y-10930539D01*
X12626971Y-10930539D02*
X12636495Y-10925777D01*
X12636495Y-10925777D02*
X12655543Y-10925777D01*
X12655543Y-10925777D02*
X12665067Y-10930539D01*
X12665067Y-10930539D02*
X12669828Y-10935301D01*
X12669828Y-10935301D02*
X12674590Y-10944825D01*
X12560305Y-10930539D02*
X12569828Y-10925777D01*
X12569828Y-10925777D02*
X12574590Y-10921015D01*
X12574590Y-10921015D02*
X12579352Y-10911491D01*
X12579352Y-10911491D02*
X12579352Y-10906730D01*
X12579352Y-10906730D02*
X12574590Y-10897206D01*
X12574590Y-10897206D02*
X12569828Y-10892444D01*
X12569828Y-10892444D02*
X12560305Y-10887682D01*
X12560305Y-10887682D02*
X12541257Y-10887682D01*
X12541257Y-10887682D02*
X12531733Y-10892444D01*
X12531733Y-10892444D02*
X12526971Y-10897206D01*
X12526971Y-10897206D02*
X12522209Y-10906730D01*
X12522209Y-10906730D02*
X12522209Y-10911491D01*
X12522209Y-10911491D02*
X12526971Y-10921015D01*
X12526971Y-10921015D02*
X12531733Y-10925777D01*
X12531733Y-10925777D02*
X12541257Y-10930539D01*
X12541257Y-10930539D02*
X12560305Y-10930539D01*
X12560305Y-10930539D02*
X12569828Y-10935301D01*
X12569828Y-10935301D02*
X12574590Y-10940063D01*
X12574590Y-10940063D02*
X12579352Y-10949587D01*
X12579352Y-10949587D02*
X12579352Y-10968634D01*
X12579352Y-10968634D02*
X12574590Y-10978158D01*
X12574590Y-10978158D02*
X12569828Y-10982920D01*
X12569828Y-10982920D02*
X12560305Y-10987682D01*
X12560305Y-10987682D02*
X12541257Y-10987682D01*
X12541257Y-10987682D02*
X12531733Y-10982920D01*
X12531733Y-10982920D02*
X12526971Y-10978158D01*
X12526971Y-10978158D02*
X12522209Y-10968634D01*
X12522209Y-10968634D02*
X12522209Y-10949587D01*
X12522209Y-10949587D02*
X12526971Y-10940063D01*
X12526971Y-10940063D02*
X12531733Y-10935301D01*
X12531733Y-10935301D02*
X12541257Y-10930539D01*
D10*
X12611733Y-11161586D02*
X12638400Y-11123490D01*
X12657447Y-11161586D02*
X12657447Y-11081586D01*
X12657447Y-11081586D02*
X12626971Y-11081586D01*
X12626971Y-11081586D02*
X12619352Y-11085395D01*
X12619352Y-11085395D02*
X12615543Y-11089205D01*
X12615543Y-11089205D02*
X12611733Y-11096824D01*
X12611733Y-11096824D02*
X12611733Y-11108252D01*
X12611733Y-11108252D02*
X12615543Y-11115871D01*
X12615543Y-11115871D02*
X12619352Y-11119681D01*
X12619352Y-11119681D02*
X12626971Y-11123490D01*
X12626971Y-11123490D02*
X12657447Y-11123490D01*
X12539352Y-11081586D02*
X12577447Y-11081586D01*
X12577447Y-11081586D02*
X12581257Y-11119681D01*
X12581257Y-11119681D02*
X12577447Y-11115871D01*
X12577447Y-11115871D02*
X12569828Y-11112062D01*
X12569828Y-11112062D02*
X12550781Y-11112062D01*
X12550781Y-11112062D02*
X12543162Y-11115871D01*
X12543162Y-11115871D02*
X12539352Y-11119681D01*
X12539352Y-11119681D02*
X12535543Y-11127300D01*
X12535543Y-11127300D02*
X12535543Y-11146347D01*
X12535543Y-11146347D02*
X12539352Y-11153966D01*
X12539352Y-11153966D02*
X12543162Y-11157776D01*
X12543162Y-11157776D02*
X12550781Y-11161586D01*
X12550781Y-11161586D02*
X12569828Y-11161586D01*
X12569828Y-11161586D02*
X12577447Y-11157776D01*
X12577447Y-11157776D02*
X12581257Y-11153966D01*
D11*
X13774733Y-9125082D02*
X13774733Y-9196510D01*
X13774733Y-9196510D02*
X13779495Y-9210796D01*
X13779495Y-9210796D02*
X13789019Y-9220320D01*
X13789019Y-9220320D02*
X13803305Y-9225082D01*
X13803305Y-9225082D02*
X13812828Y-9225082D01*
X13674733Y-9225082D02*
X13731876Y-9225082D01*
X13703305Y-9225082D02*
X13703305Y-9125082D01*
X13703305Y-9125082D02*
X13712828Y-9139368D01*
X13712828Y-9139368D02*
X13722352Y-9148891D01*
X13722352Y-9148891D02*
X13731876Y-9153653D01*
X9126533Y-9150482D02*
X9126533Y-9221910D01*
X9126533Y-9221910D02*
X9131295Y-9236196D01*
X9131295Y-9236196D02*
X9140819Y-9245720D01*
X9140819Y-9245720D02*
X9155105Y-9250482D01*
X9155105Y-9250482D02*
X9164629Y-9250482D01*
X9083676Y-9160006D02*
X9078914Y-9155244D01*
X9078914Y-9155244D02*
X9069390Y-9150482D01*
X9069390Y-9150482D02*
X9045581Y-9150482D01*
X9045581Y-9150482D02*
X9036057Y-9155244D01*
X9036057Y-9155244D02*
X9031295Y-9160006D01*
X9031295Y-9160006D02*
X9026533Y-9169530D01*
X9026533Y-9169530D02*
X9026533Y-9179053D01*
X9026533Y-9179053D02*
X9031295Y-9193339D01*
X9031295Y-9193339D02*
X9088438Y-9250482D01*
X9088438Y-9250482D02*
X9026533Y-9250482D01*
X11983164Y-13092101D02*
X11968878Y-13096863D01*
X11968878Y-13096863D02*
X11964117Y-13101625D01*
X11964117Y-13101625D02*
X11959355Y-13111148D01*
X11959355Y-13111148D02*
X11959355Y-13125434D01*
X11959355Y-13125434D02*
X11964117Y-13134958D01*
X11964117Y-13134958D02*
X11968878Y-13139720D01*
X11968878Y-13139720D02*
X11978402Y-13144482D01*
X11978402Y-13144482D02*
X12016497Y-13144482D01*
X12016497Y-13144482D02*
X12016497Y-13044482D01*
X12016497Y-13044482D02*
X11983164Y-13044482D01*
X11983164Y-13044482D02*
X11973640Y-13049244D01*
X11973640Y-13049244D02*
X11968878Y-13054006D01*
X11968878Y-13054006D02*
X11964117Y-13063529D01*
X11964117Y-13063529D02*
X11964117Y-13073053D01*
X11964117Y-13073053D02*
X11968878Y-13082577D01*
X11968878Y-13082577D02*
X11973640Y-13087339D01*
X11973640Y-13087339D02*
X11983164Y-13092101D01*
X11983164Y-13092101D02*
X12016497Y-13092101D01*
X11859355Y-13134958D02*
X11864117Y-13139720D01*
X11864117Y-13139720D02*
X11878402Y-13144482D01*
X11878402Y-13144482D02*
X11887926Y-13144482D01*
X11887926Y-13144482D02*
X11902212Y-13139720D01*
X11902212Y-13139720D02*
X11911736Y-13130196D01*
X11911736Y-13130196D02*
X11916497Y-13120672D01*
X11916497Y-13120672D02*
X11921259Y-13101625D01*
X11921259Y-13101625D02*
X11921259Y-13087339D01*
X11921259Y-13087339D02*
X11916497Y-13068291D01*
X11916497Y-13068291D02*
X11911736Y-13058768D01*
X11911736Y-13058768D02*
X11902212Y-13049244D01*
X11902212Y-13049244D02*
X11887926Y-13044482D01*
X11887926Y-13044482D02*
X11878402Y-13044482D01*
X11878402Y-13044482D02*
X11864117Y-13049244D01*
X11864117Y-13049244D02*
X11859355Y-13054006D01*
X11802212Y-13087339D02*
X11811736Y-13082577D01*
X11811736Y-13082577D02*
X11816497Y-13077815D01*
X11816497Y-13077815D02*
X11821259Y-13068291D01*
X11821259Y-13068291D02*
X11821259Y-13063529D01*
X11821259Y-13063529D02*
X11816497Y-13054006D01*
X11816497Y-13054006D02*
X11811736Y-13049244D01*
X11811736Y-13049244D02*
X11802212Y-13044482D01*
X11802212Y-13044482D02*
X11783164Y-13044482D01*
X11783164Y-13044482D02*
X11773640Y-13049244D01*
X11773640Y-13049244D02*
X11768878Y-13054006D01*
X11768878Y-13054006D02*
X11764117Y-13063529D01*
X11764117Y-13063529D02*
X11764117Y-13068291D01*
X11764117Y-13068291D02*
X11768878Y-13077815D01*
X11768878Y-13077815D02*
X11773640Y-13082577D01*
X11773640Y-13082577D02*
X11783164Y-13087339D01*
X11783164Y-13087339D02*
X11802212Y-13087339D01*
X11802212Y-13087339D02*
X11811736Y-13092101D01*
X11811736Y-13092101D02*
X11816497Y-13096863D01*
X11816497Y-13096863D02*
X11821259Y-13106387D01*
X11821259Y-13106387D02*
X11821259Y-13125434D01*
X11821259Y-13125434D02*
X11816497Y-13134958D01*
X11816497Y-13134958D02*
X11811736Y-13139720D01*
X11811736Y-13139720D02*
X11802212Y-13144482D01*
X11802212Y-13144482D02*
X11783164Y-13144482D01*
X11783164Y-13144482D02*
X11773640Y-13139720D01*
X11773640Y-13139720D02*
X11768878Y-13134958D01*
X11768878Y-13134958D02*
X11764117Y-13125434D01*
X11764117Y-13125434D02*
X11764117Y-13106387D01*
X11764117Y-13106387D02*
X11768878Y-13096863D01*
X11768878Y-13096863D02*
X11773640Y-13092101D01*
X11773640Y-13092101D02*
X11783164Y-13087339D01*
X11668878Y-13144482D02*
X11726021Y-13144482D01*
X11697450Y-13144482D02*
X11697450Y-13044482D01*
X11697450Y-13044482D02*
X11706974Y-13058768D01*
X11706974Y-13058768D02*
X11716497Y-13068291D01*
X11716497Y-13068291D02*
X11726021Y-13073053D01*
X11635545Y-13044482D02*
X11568878Y-13044482D01*
X11568878Y-13044482D02*
X11611736Y-13144482D01*
D12*
X11801259Y-12881002D02*
X11805069Y-12879097D01*
X11805069Y-12879097D02*
X11808878Y-12875288D01*
X11808878Y-12875288D02*
X11814593Y-12869574D01*
X11814593Y-12869574D02*
X11818402Y-12867669D01*
X11818402Y-12867669D02*
X11822212Y-12867669D01*
X11820307Y-12877193D02*
X11824117Y-12875288D01*
X11824117Y-12875288D02*
X11827926Y-12871478D01*
X11827926Y-12871478D02*
X11829831Y-12863859D01*
X11829831Y-12863859D02*
X11829831Y-12850526D01*
X11829831Y-12850526D02*
X11827926Y-12842907D01*
X11827926Y-12842907D02*
X11824117Y-12839097D01*
X11824117Y-12839097D02*
X11820307Y-12837193D01*
X11820307Y-12837193D02*
X11812688Y-12837193D01*
X11812688Y-12837193D02*
X11808878Y-12839097D01*
X11808878Y-12839097D02*
X11805069Y-12842907D01*
X11805069Y-12842907D02*
X11803164Y-12850526D01*
X11803164Y-12850526D02*
X11803164Y-12863859D01*
X11803164Y-12863859D02*
X11805069Y-12871478D01*
X11805069Y-12871478D02*
X11808878Y-12875288D01*
X11808878Y-12875288D02*
X11812688Y-12877193D01*
X11812688Y-12877193D02*
X11820307Y-12877193D01*
X11787926Y-12841002D02*
X11786021Y-12839097D01*
X11786021Y-12839097D02*
X11782212Y-12837193D01*
X11782212Y-12837193D02*
X11772688Y-12837193D01*
X11772688Y-12837193D02*
X11768878Y-12839097D01*
X11768878Y-12839097D02*
X11766974Y-12841002D01*
X11766974Y-12841002D02*
X11765069Y-12844812D01*
X11765069Y-12844812D02*
X11765069Y-12848621D01*
X11765069Y-12848621D02*
X11766974Y-12854336D01*
X11766974Y-12854336D02*
X11789831Y-12877193D01*
X11789831Y-12877193D02*
X11765069Y-12877193D01*
%TO.C,U1*%
D13*
X13257800Y-13983600D02*
X15037800Y-13983600D01*
X15037800Y-11886100D01*
X13257800Y-11886100D01*
X13257800Y-13983600D01*
D14*
X13392600Y-13871200D02*
G75*
G02*
X13342200Y-13871200I-25200J0D01*
G01*
X13342200Y-13871200D02*
G75*
G02*
X13392600Y-13871200I25200J0D01*
G01*
D13*
%TO.C,D4*%
X11654650Y-11045200D02*
X11974650Y-11045200D01*
X11654650Y-11165200D02*
X11654650Y-11045200D01*
X11694650Y-11205200D02*
X11654650Y-11165200D01*
X11974650Y-11045200D02*
X11974650Y-11205200D01*
X11974650Y-11205200D02*
X11694650Y-11205200D01*
%TO.C,D2*%
X11654650Y-11426200D02*
X11974650Y-11426200D01*
X11654650Y-11546200D02*
X11654650Y-11426200D01*
X11694650Y-11586200D02*
X11654650Y-11546200D01*
X11974650Y-11426200D02*
X11974650Y-11586200D01*
X11974650Y-11586200D02*
X11694650Y-11586200D01*
%TO.C,R3*%
X12438400Y-11807200D02*
X12438400Y-11967200D01*
X12438400Y-11967200D02*
X12758400Y-11967200D01*
X12758400Y-11807200D02*
X12438400Y-11807200D01*
X12758400Y-11967200D02*
X12758400Y-11807200D01*
%TO.C,D3*%
X11654650Y-11807200D02*
X11974650Y-11807200D01*
X11654650Y-11927200D02*
X11654650Y-11807200D01*
X11694650Y-11967200D02*
X11654650Y-11927200D01*
X11974650Y-11807200D02*
X11974650Y-11967200D01*
X11974650Y-11967200D02*
X11694650Y-11967200D01*
%TO.C,Q1*%
X11718850Y-12224800D02*
X11718850Y-12514800D01*
X11718850Y-12514800D02*
X11878850Y-12514800D01*
X11838850Y-12224800D02*
X11718850Y-12224800D01*
X11878850Y-12264800D02*
X11838850Y-12224800D01*
X11878850Y-12514800D02*
X11878850Y-12264800D01*
%TO.C,R2*%
X12435800Y-12543800D02*
X12435800Y-12703800D01*
X12435800Y-12703800D02*
X12755800Y-12703800D01*
X12755800Y-12543800D02*
X12435800Y-12543800D01*
X12755800Y-12703800D02*
X12755800Y-12543800D01*
%TO.C,R1*%
X12434400Y-12169400D02*
X12434400Y-12329400D01*
X12434400Y-12329400D02*
X12754400Y-12329400D01*
X12754400Y-12169400D02*
X12434400Y-12169400D01*
X12754400Y-12329400D02*
X12754400Y-12169400D01*
%TO.C,R4*%
X12438400Y-11426200D02*
X12438400Y-11586200D01*
X12438400Y-11586200D02*
X12758400Y-11586200D01*
X12758400Y-11426200D02*
X12438400Y-11426200D01*
X12758400Y-11586200D02*
X12758400Y-11426200D01*
%TO.C,K1*%
X7977150Y-11281350D02*
X10857150Y-11281350D01*
X7977150Y-12531350D02*
X7977150Y-11281350D01*
X10627150Y-12131350D02*
X10627150Y-11681350D01*
X10757150Y-12531350D02*
X7977150Y-12531350D01*
X10857150Y-11281350D02*
X10857150Y-12431350D01*
X10857150Y-12431350D02*
X10757150Y-12531350D01*
%TO.C,R5*%
X12438400Y-11045200D02*
X12438400Y-11205200D01*
X12438400Y-11205200D02*
X12758400Y-11205200D01*
X12758400Y-11045200D02*
X12438400Y-11045200D01*
X12758400Y-11205200D02*
X12758400Y-11045200D01*
%TO.C,J1*%
X12217400Y-9089600D02*
X12217400Y-10019600D01*
X12217400Y-9089600D02*
X15265400Y-9089600D01*
X12217400Y-9239600D02*
X15265400Y-9239600D01*
X12217400Y-9729600D02*
X15265400Y-9729600D01*
X12217400Y-10019600D02*
X15265400Y-10019600D01*
X12267400Y-9039600D02*
X12217400Y-9089600D01*
X12566900Y-9613400D02*
X12357600Y-9404100D01*
X12585200Y-9595100D02*
X12375900Y-9385800D01*
X13074900Y-9613400D02*
X12865600Y-9404100D01*
X13093200Y-9595100D02*
X12883900Y-9385800D01*
X13582900Y-9613400D02*
X13373600Y-9404100D01*
X13601200Y-9595100D02*
X13391900Y-9385800D01*
X14090900Y-9613400D02*
X13881600Y-9404100D01*
X14109200Y-9595100D02*
X13899900Y-9385800D01*
X14598900Y-9613400D02*
X14389600Y-9404100D01*
X14617200Y-9595100D02*
X14407900Y-9385800D01*
X15106900Y-9613400D02*
X14897600Y-9404100D01*
X15125200Y-9595100D02*
X14915900Y-9385800D01*
X15265400Y-9039600D02*
X12267400Y-9039600D01*
X15265400Y-10019600D02*
X15265400Y-9039600D01*
X12621400Y-9499600D02*
G75*
G02*
X12321400Y-9499600I-150000J0D01*
G01*
X12321400Y-9499600D02*
G75*
G02*
X12621400Y-9499600I150000J0D01*
G01*
X13129400Y-9499600D02*
G75*
G02*
X12829400Y-9499600I-150000J0D01*
G01*
X12829400Y-9499600D02*
G75*
G02*
X13129400Y-9499600I150000J0D01*
G01*
X13637400Y-9499600D02*
G75*
G02*
X13337400Y-9499600I-150000J0D01*
G01*
X13337400Y-9499600D02*
G75*
G02*
X13637400Y-9499600I150000J0D01*
G01*
X14145400Y-9499600D02*
G75*
G02*
X13845400Y-9499600I-150000J0D01*
G01*
X13845400Y-9499600D02*
G75*
G02*
X14145400Y-9499600I150000J0D01*
G01*
X14653400Y-9499600D02*
G75*
G02*
X14353400Y-9499600I-150000J0D01*
G01*
X14353400Y-9499600D02*
G75*
G02*
X14653400Y-9499600I150000J0D01*
G01*
X15161400Y-9499600D02*
G75*
G02*
X14861400Y-9499600I-150000J0D01*
G01*
X14861400Y-9499600D02*
G75*
G02*
X15161400Y-9499600I150000J0D01*
G01*
%TO.C,J2*%
X8331200Y-9115000D02*
X8331200Y-10045000D01*
X8331200Y-9115000D02*
X9855200Y-9115000D01*
X8331200Y-9265000D02*
X9855200Y-9265000D01*
X8331200Y-9755000D02*
X9855200Y-9755000D01*
X8331200Y-10045000D02*
X9855200Y-10045000D01*
X8381200Y-9065000D02*
X8331200Y-9115000D01*
X8680700Y-9638800D02*
X8471400Y-9429500D01*
X8699000Y-9620500D02*
X8489700Y-9411200D01*
X9188700Y-9638800D02*
X8979400Y-9429500D01*
X9207000Y-9620500D02*
X8997700Y-9411200D01*
X9696700Y-9638800D02*
X9487400Y-9429500D01*
X9715000Y-9620500D02*
X9505700Y-9411200D01*
X9855200Y-9065000D02*
X8381200Y-9065000D01*
X9855200Y-10045000D02*
X9855200Y-9065000D01*
X8735200Y-9525000D02*
G75*
G02*
X8435200Y-9525000I-150000J0D01*
G01*
X8435200Y-9525000D02*
G75*
G02*
X8735200Y-9525000I150000J0D01*
G01*
X9243200Y-9525000D02*
G75*
G02*
X8943200Y-9525000I-150000J0D01*
G01*
X8943200Y-9525000D02*
G75*
G02*
X9243200Y-9525000I150000J0D01*
G01*
X9751200Y-9525000D02*
G75*
G02*
X9451200Y-9525000I-150000J0D01*
G01*
X9451200Y-9525000D02*
G75*
G02*
X9751200Y-9525000I150000J0D01*
G01*
%TO.C,Q2*%
X11717450Y-12714000D02*
X11717450Y-13004000D01*
X11717450Y-13004000D02*
X11877450Y-13004000D01*
X11837450Y-12714000D02*
X11717450Y-12714000D01*
X11877450Y-12754000D02*
X11837450Y-12714000D01*
X11877450Y-13004000D02*
X11877450Y-12754000D01*
%TD*%
M02*
