%TF.GenerationSoftware,KiCad,Pcbnew,9.0.2*%
%TF.CreationDate,2025-08-24T11:37:44+02:00*%
%TF.ProjectId,esp32c6-charger,65737033-3263-4362-9d63-686172676572,rev?*%
%TF.SameCoordinates,Original*%
%TF.FileFunction,AssemblyDrawing,Top*%
%FSLAX45Y45*%
G04 Gerber Fmt 4.5, Leading zero omitted, Abs format (unit mm)*
G04 Created by KiCad (PCBNEW 9.0.2) date 2025-08-24 11:37:44*
%MOMM*%
%LPD*%
G01*
G04 APERTURE LIST*
%ADD10C,0.150000*%
%ADD11C,0.100000*%
G04 APERTURE END LIST*
D10*
X11818233Y-9495420D02*
X11832519Y-9500182D01*
X11832519Y-9500182D02*
X11856328Y-9500182D01*
X11856328Y-9500182D02*
X11865852Y-9495420D01*
X11865852Y-9495420D02*
X11870614Y-9490658D01*
X11870614Y-9490658D02*
X11875376Y-9481134D01*
X11875376Y-9481134D02*
X11875376Y-9471610D01*
X11875376Y-9471610D02*
X11870614Y-9462087D01*
X11870614Y-9462087D02*
X11865852Y-9457325D01*
X11865852Y-9457325D02*
X11856328Y-9452563D01*
X11856328Y-9452563D02*
X11837281Y-9447801D01*
X11837281Y-9447801D02*
X11827757Y-9443039D01*
X11827757Y-9443039D02*
X11822995Y-9438277D01*
X11822995Y-9438277D02*
X11818233Y-9428753D01*
X11818233Y-9428753D02*
X11818233Y-9419230D01*
X11818233Y-9419230D02*
X11822995Y-9409706D01*
X11822995Y-9409706D02*
X11827757Y-9404944D01*
X11827757Y-9404944D02*
X11837281Y-9400182D01*
X11837281Y-9400182D02*
X11861090Y-9400182D01*
X11861090Y-9400182D02*
X11875376Y-9404944D01*
X11913471Y-9495420D02*
X11927757Y-9500182D01*
X11927757Y-9500182D02*
X11951567Y-9500182D01*
X11951567Y-9500182D02*
X11961090Y-9495420D01*
X11961090Y-9495420D02*
X11965852Y-9490658D01*
X11965852Y-9490658D02*
X11970614Y-9481134D01*
X11970614Y-9481134D02*
X11970614Y-9471610D01*
X11970614Y-9471610D02*
X11965852Y-9462087D01*
X11965852Y-9462087D02*
X11961090Y-9457325D01*
X11961090Y-9457325D02*
X11951567Y-9452563D01*
X11951567Y-9452563D02*
X11932519Y-9447801D01*
X11932519Y-9447801D02*
X11922995Y-9443039D01*
X11922995Y-9443039D02*
X11918233Y-9438277D01*
X11918233Y-9438277D02*
X11913471Y-9428753D01*
X11913471Y-9428753D02*
X11913471Y-9419230D01*
X11913471Y-9419230D02*
X11918233Y-9409706D01*
X11918233Y-9409706D02*
X11922995Y-9404944D01*
X11922995Y-9404944D02*
X11932519Y-9400182D01*
X11932519Y-9400182D02*
X11956328Y-9400182D01*
X11956328Y-9400182D02*
X11970614Y-9404944D01*
X12013471Y-9500182D02*
X12013471Y-9400182D01*
X12013471Y-9400182D02*
X12037281Y-9400182D01*
X12037281Y-9400182D02*
X12051567Y-9404944D01*
X12051567Y-9404944D02*
X12061090Y-9414468D01*
X12061090Y-9414468D02*
X12065852Y-9423991D01*
X12065852Y-9423991D02*
X12070614Y-9443039D01*
X12070614Y-9443039D02*
X12070614Y-9457325D01*
X12070614Y-9457325D02*
X12065852Y-9476372D01*
X12065852Y-9476372D02*
X12061090Y-9485896D01*
X12061090Y-9485896D02*
X12051567Y-9495420D01*
X12051567Y-9495420D02*
X12037281Y-9500182D01*
X12037281Y-9500182D02*
X12013471Y-9500182D01*
X12165852Y-9500182D02*
X12108709Y-9500182D01*
X12137281Y-9500182D02*
X12137281Y-9400182D01*
X12137281Y-9400182D02*
X12127757Y-9414468D01*
X12127757Y-9414468D02*
X12118233Y-9423991D01*
X12118233Y-9423991D02*
X12108709Y-9428753D01*
X12199186Y-9400182D02*
X12261090Y-9400182D01*
X12261090Y-9400182D02*
X12227757Y-9438277D01*
X12227757Y-9438277D02*
X12242043Y-9438277D01*
X12242043Y-9438277D02*
X12251567Y-9443039D01*
X12251567Y-9443039D02*
X12256328Y-9447801D01*
X12256328Y-9447801D02*
X12261090Y-9457325D01*
X12261090Y-9457325D02*
X12261090Y-9481134D01*
X12261090Y-9481134D02*
X12256328Y-9490658D01*
X12256328Y-9490658D02*
X12251567Y-9495420D01*
X12251567Y-9495420D02*
X12242043Y-9500182D01*
X12242043Y-9500182D02*
X12213471Y-9500182D01*
X12213471Y-9500182D02*
X12203948Y-9495420D01*
X12203948Y-9495420D02*
X12199186Y-9490658D01*
X12322995Y-9400182D02*
X12332519Y-9400182D01*
X12332519Y-9400182D02*
X12342043Y-9404944D01*
X12342043Y-9404944D02*
X12346805Y-9409706D01*
X12346805Y-9409706D02*
X12351567Y-9419230D01*
X12351567Y-9419230D02*
X12356328Y-9438277D01*
X12356328Y-9438277D02*
X12356328Y-9462087D01*
X12356328Y-9462087D02*
X12351567Y-9481134D01*
X12351567Y-9481134D02*
X12346805Y-9490658D01*
X12346805Y-9490658D02*
X12342043Y-9495420D01*
X12342043Y-9495420D02*
X12332519Y-9500182D01*
X12332519Y-9500182D02*
X12322995Y-9500182D01*
X12322995Y-9500182D02*
X12313471Y-9495420D01*
X12313471Y-9495420D02*
X12308709Y-9490658D01*
X12308709Y-9490658D02*
X12303948Y-9481134D01*
X12303948Y-9481134D02*
X12299186Y-9462087D01*
X12299186Y-9462087D02*
X12299186Y-9438277D01*
X12299186Y-9438277D02*
X12303948Y-9419230D01*
X12303948Y-9419230D02*
X12308709Y-9409706D01*
X12308709Y-9409706D02*
X12313471Y-9404944D01*
X12313471Y-9404944D02*
X12322995Y-9400182D01*
X12442043Y-9400182D02*
X12422995Y-9400182D01*
X12422995Y-9400182D02*
X12413471Y-9404944D01*
X12413471Y-9404944D02*
X12408709Y-9409706D01*
X12408709Y-9409706D02*
X12399186Y-9423991D01*
X12399186Y-9423991D02*
X12394424Y-9443039D01*
X12394424Y-9443039D02*
X12394424Y-9481134D01*
X12394424Y-9481134D02*
X12399186Y-9490658D01*
X12399186Y-9490658D02*
X12403948Y-9495420D01*
X12403948Y-9495420D02*
X12413471Y-9500182D01*
X12413471Y-9500182D02*
X12432519Y-9500182D01*
X12432519Y-9500182D02*
X12442043Y-9495420D01*
X12442043Y-9495420D02*
X12446805Y-9490658D01*
X12446805Y-9490658D02*
X12451567Y-9481134D01*
X12451567Y-9481134D02*
X12451567Y-9457325D01*
X12451567Y-9457325D02*
X12446805Y-9447801D01*
X12446805Y-9447801D02*
X12442043Y-9443039D01*
X12442043Y-9443039D02*
X12432519Y-9438277D01*
X12432519Y-9438277D02*
X12413471Y-9438277D01*
X12413471Y-9438277D02*
X12403948Y-9443039D01*
X12403948Y-9443039D02*
X12399186Y-9447801D01*
X12399186Y-9447801D02*
X12394424Y-9457325D01*
X15687695Y-11116582D02*
X15654362Y-11068963D01*
X15630552Y-11116582D02*
X15630552Y-11016582D01*
X15630552Y-11016582D02*
X15668648Y-11016582D01*
X15668648Y-11016582D02*
X15678171Y-11021344D01*
X15678171Y-11021344D02*
X15682933Y-11026106D01*
X15682933Y-11026106D02*
X15687695Y-11035630D01*
X15687695Y-11035630D02*
X15687695Y-11049915D01*
X15687695Y-11049915D02*
X15682933Y-11059439D01*
X15682933Y-11059439D02*
X15678171Y-11064201D01*
X15678171Y-11064201D02*
X15668648Y-11068963D01*
X15668648Y-11068963D02*
X15630552Y-11068963D01*
X15787695Y-11107058D02*
X15782933Y-11111820D01*
X15782933Y-11111820D02*
X15768648Y-11116582D01*
X15768648Y-11116582D02*
X15759124Y-11116582D01*
X15759124Y-11116582D02*
X15744838Y-11111820D01*
X15744838Y-11111820D02*
X15735314Y-11102296D01*
X15735314Y-11102296D02*
X15730552Y-11092772D01*
X15730552Y-11092772D02*
X15725790Y-11073725D01*
X15725790Y-11073725D02*
X15725790Y-11059439D01*
X15725790Y-11059439D02*
X15730552Y-11040391D01*
X15730552Y-11040391D02*
X15735314Y-11030868D01*
X15735314Y-11030868D02*
X15744838Y-11021344D01*
X15744838Y-11021344D02*
X15759124Y-11016582D01*
X15759124Y-11016582D02*
X15768648Y-11016582D01*
X15768648Y-11016582D02*
X15782933Y-11021344D01*
X15782933Y-11021344D02*
X15787695Y-11026106D01*
X15878171Y-11016582D02*
X15830552Y-11016582D01*
X15830552Y-11016582D02*
X15825790Y-11064201D01*
X15825790Y-11064201D02*
X15830552Y-11059439D01*
X15830552Y-11059439D02*
X15840076Y-11054677D01*
X15840076Y-11054677D02*
X15863886Y-11054677D01*
X15863886Y-11054677D02*
X15873409Y-11059439D01*
X15873409Y-11059439D02*
X15878171Y-11064201D01*
X15878171Y-11064201D02*
X15882933Y-11073725D01*
X15882933Y-11073725D02*
X15882933Y-11097534D01*
X15882933Y-11097534D02*
X15878171Y-11107058D01*
X15878171Y-11107058D02*
X15873409Y-11111820D01*
X15873409Y-11111820D02*
X15863886Y-11116582D01*
X15863886Y-11116582D02*
X15840076Y-11116582D01*
X15840076Y-11116582D02*
X15830552Y-11111820D01*
X15830552Y-11111820D02*
X15825790Y-11107058D01*
X15921029Y-11026106D02*
X15925790Y-11021344D01*
X15925790Y-11021344D02*
X15935314Y-11016582D01*
X15935314Y-11016582D02*
X15959124Y-11016582D01*
X15959124Y-11016582D02*
X15968648Y-11021344D01*
X15968648Y-11021344D02*
X15973409Y-11026106D01*
X15973409Y-11026106D02*
X15978171Y-11035630D01*
X15978171Y-11035630D02*
X15978171Y-11045153D01*
X15978171Y-11045153D02*
X15973409Y-11059439D01*
X15973409Y-11059439D02*
X15916267Y-11116582D01*
X15916267Y-11116582D02*
X15978171Y-11116582D01*
X16016267Y-11026106D02*
X16021029Y-11021344D01*
X16021029Y-11021344D02*
X16030552Y-11016582D01*
X16030552Y-11016582D02*
X16054362Y-11016582D01*
X16054362Y-11016582D02*
X16063886Y-11021344D01*
X16063886Y-11021344D02*
X16068648Y-11026106D01*
X16068648Y-11026106D02*
X16073409Y-11035630D01*
X16073409Y-11035630D02*
X16073409Y-11045153D01*
X16073409Y-11045153D02*
X16068648Y-11059439D01*
X16068648Y-11059439D02*
X16011505Y-11116582D01*
X16011505Y-11116582D02*
X16073409Y-11116582D01*
X15895082Y-10296481D02*
X15847463Y-10329814D01*
X15895082Y-10353624D02*
X15795082Y-10353624D01*
X15795082Y-10353624D02*
X15795082Y-10315529D01*
X15795082Y-10315529D02*
X15799844Y-10306005D01*
X15799844Y-10306005D02*
X15804606Y-10301243D01*
X15804606Y-10301243D02*
X15814129Y-10296481D01*
X15814129Y-10296481D02*
X15828415Y-10296481D01*
X15828415Y-10296481D02*
X15837939Y-10301243D01*
X15837939Y-10301243D02*
X15842701Y-10306005D01*
X15842701Y-10306005D02*
X15847463Y-10315529D01*
X15847463Y-10315529D02*
X15847463Y-10353624D01*
X15828415Y-10267910D02*
X15828415Y-10229814D01*
X15895082Y-10253624D02*
X15809368Y-10253624D01*
X15809368Y-10253624D02*
X15799844Y-10248862D01*
X15799844Y-10248862D02*
X15795082Y-10239338D01*
X15795082Y-10239338D02*
X15795082Y-10229814D01*
X15895082Y-10196481D02*
X15828415Y-10196481D01*
X15795082Y-10196481D02*
X15799844Y-10201243D01*
X15799844Y-10201243D02*
X15804606Y-10196481D01*
X15804606Y-10196481D02*
X15799844Y-10191719D01*
X15799844Y-10191719D02*
X15795082Y-10196481D01*
X15795082Y-10196481D02*
X15804606Y-10196481D01*
X15895082Y-10106005D02*
X15795082Y-10106005D01*
X15890320Y-10106005D02*
X15895082Y-10115529D01*
X15895082Y-10115529D02*
X15895082Y-10134576D01*
X15895082Y-10134576D02*
X15890320Y-10144100D01*
X15890320Y-10144100D02*
X15885558Y-10148862D01*
X15885558Y-10148862D02*
X15876034Y-10153624D01*
X15876034Y-10153624D02*
X15847463Y-10153624D01*
X15847463Y-10153624D02*
X15837939Y-10148862D01*
X15837939Y-10148862D02*
X15833177Y-10144100D01*
X15833177Y-10144100D02*
X15828415Y-10134576D01*
X15828415Y-10134576D02*
X15828415Y-10115529D01*
X15828415Y-10115529D02*
X15833177Y-10106005D01*
X15895082Y-10058386D02*
X15828415Y-10058386D01*
X15847463Y-10058386D02*
X15837939Y-10053624D01*
X15837939Y-10053624D02*
X15833177Y-10048862D01*
X15833177Y-10048862D02*
X15828415Y-10039338D01*
X15828415Y-10039338D02*
X15828415Y-10029814D01*
X15890320Y-9958386D02*
X15895082Y-9967910D01*
X15895082Y-9967910D02*
X15895082Y-9986957D01*
X15895082Y-9986957D02*
X15890320Y-9996481D01*
X15890320Y-9996481D02*
X15880796Y-10001243D01*
X15880796Y-10001243D02*
X15842701Y-10001243D01*
X15842701Y-10001243D02*
X15833177Y-9996481D01*
X15833177Y-9996481D02*
X15828415Y-9986957D01*
X15828415Y-9986957D02*
X15828415Y-9967910D01*
X15828415Y-9967910D02*
X15833177Y-9958386D01*
X15833177Y-9958386D02*
X15842701Y-9953624D01*
X15842701Y-9953624D02*
X15852225Y-9953624D01*
X15852225Y-9953624D02*
X15861748Y-10001243D01*
X15895082Y-9867910D02*
X15842701Y-9867910D01*
X15842701Y-9867910D02*
X15833177Y-9872671D01*
X15833177Y-9872671D02*
X15828415Y-9882195D01*
X15828415Y-9882195D02*
X15828415Y-9901243D01*
X15828415Y-9901243D02*
X15833177Y-9910767D01*
X15890320Y-9867910D02*
X15895082Y-9877433D01*
X15895082Y-9877433D02*
X15895082Y-9901243D01*
X15895082Y-9901243D02*
X15890320Y-9910767D01*
X15890320Y-9910767D02*
X15880796Y-9915529D01*
X15880796Y-9915529D02*
X15871272Y-9915529D01*
X15871272Y-9915529D02*
X15861748Y-9910767D01*
X15861748Y-9910767D02*
X15856987Y-9901243D01*
X15856987Y-9901243D02*
X15856987Y-9877433D01*
X15856987Y-9877433D02*
X15852225Y-9867910D01*
X15895082Y-9777433D02*
X15795082Y-9777433D01*
X15890320Y-9777433D02*
X15895082Y-9786957D01*
X15895082Y-9786957D02*
X15895082Y-9806005D01*
X15895082Y-9806005D02*
X15890320Y-9815529D01*
X15890320Y-9815529D02*
X15885558Y-9820290D01*
X15885558Y-9820290D02*
X15876034Y-9825052D01*
X15876034Y-9825052D02*
X15847463Y-9825052D01*
X15847463Y-9825052D02*
X15837939Y-9820290D01*
X15837939Y-9820290D02*
X15833177Y-9815529D01*
X15833177Y-9815529D02*
X15828415Y-9806005D01*
X15828415Y-9806005D02*
X15828415Y-9786957D01*
X15828415Y-9786957D02*
X15833177Y-9777433D01*
X15890320Y-9691719D02*
X15895082Y-9701243D01*
X15895082Y-9701243D02*
X15895082Y-9720290D01*
X15895082Y-9720290D02*
X15890320Y-9729814D01*
X15890320Y-9729814D02*
X15880796Y-9734576D01*
X15880796Y-9734576D02*
X15842701Y-9734576D01*
X15842701Y-9734576D02*
X15833177Y-9729814D01*
X15833177Y-9729814D02*
X15828415Y-9720290D01*
X15828415Y-9720290D02*
X15828415Y-9701243D01*
X15828415Y-9701243D02*
X15833177Y-9691719D01*
X15833177Y-9691719D02*
X15842701Y-9686957D01*
X15842701Y-9686957D02*
X15852225Y-9686957D01*
X15852225Y-9686957D02*
X15861748Y-9734576D01*
X15895082Y-9644100D02*
X15828415Y-9644100D01*
X15847463Y-9644100D02*
X15837939Y-9639338D01*
X15837939Y-9639338D02*
X15833177Y-9634576D01*
X15833177Y-9634576D02*
X15828415Y-9625052D01*
X15828415Y-9625052D02*
X15828415Y-9615529D01*
X15895082Y-9529814D02*
X15895082Y-9586957D01*
X15895082Y-9558386D02*
X15795082Y-9558386D01*
X15795082Y-9558386D02*
X15809368Y-9567909D01*
X15809368Y-9567909D02*
X15818891Y-9577433D01*
X15818891Y-9577433D02*
X15823653Y-9586957D01*
X14689448Y-9616582D02*
X14713257Y-9716582D01*
X14713257Y-9716582D02*
X14732305Y-9645153D01*
X14732305Y-9645153D02*
X14751352Y-9716582D01*
X14751352Y-9716582D02*
X14775162Y-9616582D01*
X14808495Y-9711820D02*
X14822781Y-9716582D01*
X14822781Y-9716582D02*
X14846590Y-9716582D01*
X14846590Y-9716582D02*
X14856114Y-9711820D01*
X14856114Y-9711820D02*
X14860876Y-9707058D01*
X14860876Y-9707058D02*
X14865638Y-9697534D01*
X14865638Y-9697534D02*
X14865638Y-9688010D01*
X14865638Y-9688010D02*
X14860876Y-9678487D01*
X14860876Y-9678487D02*
X14856114Y-9673725D01*
X14856114Y-9673725D02*
X14846590Y-9668963D01*
X14846590Y-9668963D02*
X14827543Y-9664201D01*
X14827543Y-9664201D02*
X14818019Y-9659439D01*
X14818019Y-9659439D02*
X14813257Y-9654677D01*
X14813257Y-9654677D02*
X14808495Y-9645153D01*
X14808495Y-9645153D02*
X14808495Y-9635630D01*
X14808495Y-9635630D02*
X14813257Y-9626106D01*
X14813257Y-9626106D02*
X14818019Y-9621344D01*
X14818019Y-9621344D02*
X14827543Y-9616582D01*
X14827543Y-9616582D02*
X14851352Y-9616582D01*
X14851352Y-9616582D02*
X14865638Y-9621344D01*
X14903733Y-9626106D02*
X14908495Y-9621344D01*
X14908495Y-9621344D02*
X14918019Y-9616582D01*
X14918019Y-9616582D02*
X14941828Y-9616582D01*
X14941828Y-9616582D02*
X14951352Y-9621344D01*
X14951352Y-9621344D02*
X14956114Y-9626106D01*
X14956114Y-9626106D02*
X14960876Y-9635630D01*
X14960876Y-9635630D02*
X14960876Y-9645153D01*
X14960876Y-9645153D02*
X14956114Y-9659439D01*
X14956114Y-9659439D02*
X14898971Y-9716582D01*
X14898971Y-9716582D02*
X14960876Y-9716582D01*
X15018019Y-9659439D02*
X15008495Y-9654677D01*
X15008495Y-9654677D02*
X15003733Y-9649915D01*
X15003733Y-9649915D02*
X14998971Y-9640391D01*
X14998971Y-9640391D02*
X14998971Y-9635630D01*
X14998971Y-9635630D02*
X15003733Y-9626106D01*
X15003733Y-9626106D02*
X15008495Y-9621344D01*
X15008495Y-9621344D02*
X15018019Y-9616582D01*
X15018019Y-9616582D02*
X15037067Y-9616582D01*
X15037067Y-9616582D02*
X15046590Y-9621344D01*
X15046590Y-9621344D02*
X15051352Y-9626106D01*
X15051352Y-9626106D02*
X15056114Y-9635630D01*
X15056114Y-9635630D02*
X15056114Y-9640391D01*
X15056114Y-9640391D02*
X15051352Y-9649915D01*
X15051352Y-9649915D02*
X15046590Y-9654677D01*
X15046590Y-9654677D02*
X15037067Y-9659439D01*
X15037067Y-9659439D02*
X15018019Y-9659439D01*
X15018019Y-9659439D02*
X15008495Y-9664201D01*
X15008495Y-9664201D02*
X15003733Y-9668963D01*
X15003733Y-9668963D02*
X14998971Y-9678487D01*
X14998971Y-9678487D02*
X14998971Y-9697534D01*
X14998971Y-9697534D02*
X15003733Y-9707058D01*
X15003733Y-9707058D02*
X15008495Y-9711820D01*
X15008495Y-9711820D02*
X15018019Y-9716582D01*
X15018019Y-9716582D02*
X15037067Y-9716582D01*
X15037067Y-9716582D02*
X15046590Y-9711820D01*
X15046590Y-9711820D02*
X15051352Y-9707058D01*
X15051352Y-9707058D02*
X15056114Y-9697534D01*
X15056114Y-9697534D02*
X15056114Y-9678487D01*
X15056114Y-9678487D02*
X15051352Y-9668963D01*
X15051352Y-9668963D02*
X15046590Y-9664201D01*
X15046590Y-9664201D02*
X15037067Y-9659439D01*
X15151352Y-9716582D02*
X15094209Y-9716582D01*
X15122781Y-9716582D02*
X15122781Y-9616582D01*
X15122781Y-9616582D02*
X15113257Y-9630868D01*
X15113257Y-9630868D02*
X15103733Y-9640391D01*
X15103733Y-9640391D02*
X15094209Y-9645153D01*
X15189448Y-9626106D02*
X15194209Y-9621344D01*
X15194209Y-9621344D02*
X15203733Y-9616582D01*
X15203733Y-9616582D02*
X15227543Y-9616582D01*
X15227543Y-9616582D02*
X15237067Y-9621344D01*
X15237067Y-9621344D02*
X15241828Y-9626106D01*
X15241828Y-9626106D02*
X15246590Y-9635630D01*
X15246590Y-9635630D02*
X15246590Y-9645153D01*
X15246590Y-9645153D02*
X15241828Y-9659439D01*
X15241828Y-9659439D02*
X15184686Y-9716582D01*
X15184686Y-9716582D02*
X15246590Y-9716582D01*
X15322781Y-9664201D02*
X15337067Y-9668963D01*
X15337067Y-9668963D02*
X15341828Y-9673725D01*
X15341828Y-9673725D02*
X15346590Y-9683249D01*
X15346590Y-9683249D02*
X15346590Y-9697534D01*
X15346590Y-9697534D02*
X15341828Y-9707058D01*
X15341828Y-9707058D02*
X15337067Y-9711820D01*
X15337067Y-9711820D02*
X15327543Y-9716582D01*
X15327543Y-9716582D02*
X15289448Y-9716582D01*
X15289448Y-9716582D02*
X15289448Y-9616582D01*
X15289448Y-9616582D02*
X15322781Y-9616582D01*
X15322781Y-9616582D02*
X15332305Y-9621344D01*
X15332305Y-9621344D02*
X15337067Y-9626106D01*
X15337067Y-9626106D02*
X15341828Y-9635630D01*
X15341828Y-9635630D02*
X15341828Y-9645153D01*
X15341828Y-9645153D02*
X15337067Y-9654677D01*
X15337067Y-9654677D02*
X15332305Y-9659439D01*
X15332305Y-9659439D02*
X15322781Y-9664201D01*
X15322781Y-9664201D02*
X15289448Y-9664201D01*
X14961352Y-9307330D02*
X14961352Y-9227330D01*
X14961352Y-9227330D02*
X14980400Y-9227330D01*
X14980400Y-9227330D02*
X14991829Y-9231139D01*
X14991829Y-9231139D02*
X14999448Y-9238758D01*
X14999448Y-9238758D02*
X15003257Y-9246377D01*
X15003257Y-9246377D02*
X15007067Y-9261615D01*
X15007067Y-9261615D02*
X15007067Y-9273044D01*
X15007067Y-9273044D02*
X15003257Y-9288282D01*
X15003257Y-9288282D02*
X14999448Y-9295901D01*
X14999448Y-9295901D02*
X14991829Y-9303520D01*
X14991829Y-9303520D02*
X14980400Y-9307330D01*
X14980400Y-9307330D02*
X14961352Y-9307330D01*
X15083257Y-9307330D02*
X15037543Y-9307330D01*
X15060400Y-9307330D02*
X15060400Y-9227330D01*
X15060400Y-9227330D02*
X15052781Y-9238758D01*
X15052781Y-9238758D02*
X15045162Y-9246377D01*
X15045162Y-9246377D02*
X15037543Y-9250187D01*
D11*
%TO.C,Rfidreader1*%
X15722600Y-8991600D02*
X15786100Y-8928100D01*
X15722600Y-10960100D02*
X15722600Y-8991600D01*
X15786100Y-8928100D02*
X15976600Y-8928100D01*
X15976600Y-8928100D02*
X15976600Y-10960100D01*
X15976600Y-10960100D02*
X15722600Y-10960100D01*
%TO.C,D1*%
X14770400Y-9021100D02*
X14770400Y-9521100D01*
X14770400Y-9521100D02*
X15270400Y-9521100D01*
X15270400Y-9021100D02*
X14770400Y-9021100D01*
X15270400Y-9421100D02*
X15170400Y-9521100D01*
X15270400Y-9521100D02*
X15270400Y-9021100D01*
X15220400Y-9271100D02*
G75*
G02*
X14820400Y-9271100I-200000J0D01*
G01*
X14820400Y-9271100D02*
G75*
G02*
X15220400Y-9271100I200000J0D01*
G01*
%TD*%
M02*
