%TF.GenerationSoftware,KiCad,Pcbnew,9.0.4*%
%TF.CreationDate,2025-09-13T16:38:24+02:00*%
%TF.ProjectId,esp32c6-charger,65737033-3263-4362-9d63-686172676572,rev?*%
%TF.SameCoordinates,Original*%
%TF.FileFunction,AssemblyDrawing,Bot*%
%FSLAX45Y45*%
G04 Gerber Fmt 4.5, Leading zero omitted, Abs format (unit mm)*
G04 Created by KiCad (PCBNEW 9.0.4) date 2025-09-13 16:38:24*
%MOMM*%
%LPD*%
G01*
G04 APERTURE LIST*
%ADD10C,0.120000*%
%ADD11C,0.150000*%
%ADD12C,0.100000*%
%ADD13C,0.504000*%
G04 APERTURE END LIST*
D10*
X12155697Y-9574086D02*
X12155697Y-9494086D01*
X12155697Y-9494086D02*
X12136650Y-9494086D01*
X12136650Y-9494086D02*
X12125221Y-9497895D01*
X12125221Y-9497895D02*
X12117602Y-9505514D01*
X12117602Y-9505514D02*
X12113793Y-9513133D01*
X12113793Y-9513133D02*
X12109983Y-9528371D01*
X12109983Y-9528371D02*
X12109983Y-9539800D01*
X12109983Y-9539800D02*
X12113793Y-9555038D01*
X12113793Y-9555038D02*
X12117602Y-9562657D01*
X12117602Y-9562657D02*
X12125221Y-9570276D01*
X12125221Y-9570276D02*
X12136650Y-9574086D01*
X12136650Y-9574086D02*
X12155697Y-9574086D01*
X12041412Y-9520752D02*
X12041412Y-9574086D01*
X12060459Y-9490276D02*
X12079507Y-9547419D01*
X12079507Y-9547419D02*
X12029983Y-9547419D01*
X12159991Y-9955086D02*
X12159991Y-9875086D01*
X12159991Y-9875086D02*
X12140943Y-9875086D01*
X12140943Y-9875086D02*
X12129515Y-9878895D01*
X12129515Y-9878895D02*
X12121896Y-9886514D01*
X12121896Y-9886514D02*
X12118086Y-9894133D01*
X12118086Y-9894133D02*
X12114277Y-9909371D01*
X12114277Y-9909371D02*
X12114277Y-9920800D01*
X12114277Y-9920800D02*
X12118086Y-9936038D01*
X12118086Y-9936038D02*
X12121896Y-9943657D01*
X12121896Y-9943657D02*
X12129515Y-9951276D01*
X12129515Y-9951276D02*
X12140943Y-9955086D01*
X12140943Y-9955086D02*
X12159991Y-9955086D01*
X12087610Y-9875086D02*
X12038086Y-9875086D01*
X12038086Y-9875086D02*
X12064753Y-9905562D01*
X12064753Y-9905562D02*
X12053324Y-9905562D01*
X12053324Y-9905562D02*
X12045705Y-9909371D01*
X12045705Y-9909371D02*
X12041896Y-9913181D01*
X12041896Y-9913181D02*
X12038086Y-9920800D01*
X12038086Y-9920800D02*
X12038086Y-9939847D01*
X12038086Y-9939847D02*
X12041896Y-9947466D01*
X12041896Y-9947466D02*
X12045705Y-9951276D01*
X12045705Y-9951276D02*
X12053324Y-9955086D01*
X12053324Y-9955086D02*
X12076181Y-9955086D01*
X12076181Y-9955086D02*
X12083801Y-9951276D01*
X12083801Y-9951276D02*
X12087610Y-9947466D01*
X12687933Y-10336086D02*
X12714600Y-10297990D01*
X12733647Y-10336086D02*
X12733647Y-10256086D01*
X12733647Y-10256086D02*
X12703171Y-10256086D01*
X12703171Y-10256086D02*
X12695552Y-10259895D01*
X12695552Y-10259895D02*
X12691743Y-10263705D01*
X12691743Y-10263705D02*
X12687933Y-10271324D01*
X12687933Y-10271324D02*
X12687933Y-10282752D01*
X12687933Y-10282752D02*
X12691743Y-10290371D01*
X12691743Y-10290371D02*
X12695552Y-10294181D01*
X12695552Y-10294181D02*
X12703171Y-10297990D01*
X12703171Y-10297990D02*
X12733647Y-10297990D01*
X12661267Y-10256086D02*
X12611743Y-10256086D01*
X12611743Y-10256086D02*
X12638409Y-10286562D01*
X12638409Y-10286562D02*
X12626981Y-10286562D01*
X12626981Y-10286562D02*
X12619362Y-10290371D01*
X12619362Y-10290371D02*
X12615552Y-10294181D01*
X12615552Y-10294181D02*
X12611743Y-10301800D01*
X12611743Y-10301800D02*
X12611743Y-10320847D01*
X12611743Y-10320847D02*
X12615552Y-10328466D01*
X12615552Y-10328466D02*
X12619362Y-10332276D01*
X12619362Y-10332276D02*
X12626981Y-10336086D01*
X12626981Y-10336086D02*
X12649838Y-10336086D01*
X12649838Y-10336086D02*
X12657457Y-10332276D01*
X12657457Y-10332276D02*
X12661267Y-10328466D01*
X12155697Y-10336086D02*
X12155697Y-10256086D01*
X12155697Y-10256086D02*
X12136650Y-10256086D01*
X12136650Y-10256086D02*
X12125221Y-10259895D01*
X12125221Y-10259895D02*
X12117602Y-10267514D01*
X12117602Y-10267514D02*
X12113793Y-10275133D01*
X12113793Y-10275133D02*
X12109983Y-10290371D01*
X12109983Y-10290371D02*
X12109983Y-10301800D01*
X12109983Y-10301800D02*
X12113793Y-10317038D01*
X12113793Y-10317038D02*
X12117602Y-10324657D01*
X12117602Y-10324657D02*
X12125221Y-10332276D01*
X12125221Y-10332276D02*
X12136650Y-10336086D01*
X12136650Y-10336086D02*
X12155697Y-10336086D01*
X12079507Y-10263705D02*
X12075697Y-10259895D01*
X12075697Y-10259895D02*
X12068078Y-10256086D01*
X12068078Y-10256086D02*
X12049031Y-10256086D01*
X12049031Y-10256086D02*
X12041412Y-10259895D01*
X12041412Y-10259895D02*
X12037602Y-10263705D01*
X12037602Y-10263705D02*
X12033793Y-10271324D01*
X12033793Y-10271324D02*
X12033793Y-10278943D01*
X12033793Y-10278943D02*
X12037602Y-10290371D01*
X12037602Y-10290371D02*
X12083317Y-10336086D01*
X12083317Y-10336086D02*
X12033793Y-10336086D01*
D11*
X11879901Y-11066486D02*
X11884663Y-11080771D01*
X11884663Y-11080771D02*
X11889425Y-11085533D01*
X11889425Y-11085533D02*
X11898948Y-11090295D01*
X11898948Y-11090295D02*
X11913234Y-11090295D01*
X11913234Y-11090295D02*
X11922758Y-11085533D01*
X11922758Y-11085533D02*
X11927520Y-11080771D01*
X11927520Y-11080771D02*
X11932282Y-11071248D01*
X11932282Y-11071248D02*
X11932282Y-11033152D01*
X11932282Y-11033152D02*
X11832282Y-11033152D01*
X11832282Y-11033152D02*
X11832282Y-11066486D01*
X11832282Y-11066486D02*
X11837044Y-11076010D01*
X11837044Y-11076010D02*
X11841806Y-11080771D01*
X11841806Y-11080771D02*
X11851329Y-11085533D01*
X11851329Y-11085533D02*
X11860853Y-11085533D01*
X11860853Y-11085533D02*
X11870377Y-11080771D01*
X11870377Y-11080771D02*
X11875139Y-11076010D01*
X11875139Y-11076010D02*
X11879901Y-11066486D01*
X11879901Y-11066486D02*
X11879901Y-11033152D01*
X11922758Y-11190295D02*
X11927520Y-11185533D01*
X11927520Y-11185533D02*
X11932282Y-11171248D01*
X11932282Y-11171248D02*
X11932282Y-11161724D01*
X11932282Y-11161724D02*
X11927520Y-11147438D01*
X11927520Y-11147438D02*
X11917996Y-11137914D01*
X11917996Y-11137914D02*
X11908472Y-11133152D01*
X11908472Y-11133152D02*
X11889425Y-11128391D01*
X11889425Y-11128391D02*
X11875139Y-11128391D01*
X11875139Y-11128391D02*
X11856091Y-11133152D01*
X11856091Y-11133152D02*
X11846568Y-11137914D01*
X11846568Y-11137914D02*
X11837044Y-11147438D01*
X11837044Y-11147438D02*
X11832282Y-11161724D01*
X11832282Y-11161724D02*
X11832282Y-11171248D01*
X11832282Y-11171248D02*
X11837044Y-11185533D01*
X11837044Y-11185533D02*
X11841806Y-11190295D01*
X11832282Y-11223629D02*
X11832282Y-11285533D01*
X11832282Y-11285533D02*
X11870377Y-11252200D01*
X11870377Y-11252200D02*
X11870377Y-11266486D01*
X11870377Y-11266486D02*
X11875139Y-11276009D01*
X11875139Y-11276009D02*
X11879901Y-11280771D01*
X11879901Y-11280771D02*
X11889425Y-11285533D01*
X11889425Y-11285533D02*
X11913234Y-11285533D01*
X11913234Y-11285533D02*
X11922758Y-11280771D01*
X11922758Y-11280771D02*
X11927520Y-11276009D01*
X11927520Y-11276009D02*
X11932282Y-11266486D01*
X11932282Y-11266486D02*
X11932282Y-11237914D01*
X11932282Y-11237914D02*
X11927520Y-11228390D01*
X11927520Y-11228390D02*
X11922758Y-11223629D01*
X11832282Y-11318867D02*
X11832282Y-11380771D01*
X11832282Y-11380771D02*
X11870377Y-11347438D01*
X11870377Y-11347438D02*
X11870377Y-11361724D01*
X11870377Y-11361724D02*
X11875139Y-11371248D01*
X11875139Y-11371248D02*
X11879901Y-11376009D01*
X11879901Y-11376009D02*
X11889425Y-11380771D01*
X11889425Y-11380771D02*
X11913234Y-11380771D01*
X11913234Y-11380771D02*
X11922758Y-11376009D01*
X11922758Y-11376009D02*
X11927520Y-11371248D01*
X11927520Y-11371248D02*
X11932282Y-11361724D01*
X11932282Y-11361724D02*
X11932282Y-11333152D01*
X11932282Y-11333152D02*
X11927520Y-11323629D01*
X11927520Y-11323629D02*
X11922758Y-11318867D01*
X11832282Y-11414105D02*
X11832282Y-11480771D01*
X11832282Y-11480771D02*
X11932282Y-11437914D01*
X11662806Y-11242676D02*
X11658044Y-11233152D01*
X11658044Y-11233152D02*
X11648520Y-11223628D01*
X11648520Y-11223628D02*
X11634234Y-11209343D01*
X11634234Y-11209343D02*
X11629472Y-11199819D01*
X11629472Y-11199819D02*
X11629472Y-11190295D01*
X11653282Y-11195057D02*
X11648520Y-11185533D01*
X11648520Y-11185533D02*
X11638996Y-11176010D01*
X11638996Y-11176010D02*
X11619948Y-11171248D01*
X11619948Y-11171248D02*
X11586615Y-11171248D01*
X11586615Y-11171248D02*
X11567568Y-11176010D01*
X11567568Y-11176010D02*
X11558044Y-11185533D01*
X11558044Y-11185533D02*
X11553282Y-11195057D01*
X11553282Y-11195057D02*
X11553282Y-11214105D01*
X11553282Y-11214105D02*
X11558044Y-11223628D01*
X11558044Y-11223628D02*
X11567568Y-11233152D01*
X11567568Y-11233152D02*
X11586615Y-11237914D01*
X11586615Y-11237914D02*
X11619948Y-11237914D01*
X11619948Y-11237914D02*
X11638996Y-11233152D01*
X11638996Y-11233152D02*
X11648520Y-11223628D01*
X11648520Y-11223628D02*
X11653282Y-11214105D01*
X11653282Y-11214105D02*
X11653282Y-11195057D01*
X11562806Y-11276009D02*
X11558044Y-11280771D01*
X11558044Y-11280771D02*
X11553282Y-11290295D01*
X11553282Y-11290295D02*
X11553282Y-11314105D01*
X11553282Y-11314105D02*
X11558044Y-11323628D01*
X11558044Y-11323628D02*
X11562806Y-11328390D01*
X11562806Y-11328390D02*
X11572329Y-11333152D01*
X11572329Y-11333152D02*
X11581853Y-11333152D01*
X11581853Y-11333152D02*
X11596139Y-11328390D01*
X11596139Y-11328390D02*
X11653282Y-11271248D01*
X11653282Y-11271248D02*
X11653282Y-11333152D01*
X11556124Y-7426858D02*
X11560886Y-7431620D01*
X11560886Y-7431620D02*
X11575171Y-7436382D01*
X11575171Y-7436382D02*
X11584695Y-7436382D01*
X11584695Y-7436382D02*
X11598981Y-7431620D01*
X11598981Y-7431620D02*
X11608505Y-7422096D01*
X11608505Y-7422096D02*
X11613267Y-7412572D01*
X11613267Y-7412572D02*
X11618029Y-7393525D01*
X11618029Y-7393525D02*
X11618029Y-7379239D01*
X11618029Y-7379239D02*
X11613267Y-7360191D01*
X11613267Y-7360191D02*
X11608505Y-7350668D01*
X11608505Y-7350668D02*
X11598981Y-7341144D01*
X11598981Y-7341144D02*
X11584695Y-7336382D01*
X11584695Y-7336382D02*
X11575171Y-7336382D01*
X11575171Y-7336382D02*
X11560886Y-7341144D01*
X11560886Y-7341144D02*
X11556124Y-7345906D01*
X11498981Y-7436382D02*
X11508505Y-7431620D01*
X11508505Y-7431620D02*
X11513267Y-7426858D01*
X11513267Y-7426858D02*
X11518029Y-7417334D01*
X11518029Y-7417334D02*
X11518029Y-7388763D01*
X11518029Y-7388763D02*
X11513267Y-7379239D01*
X11513267Y-7379239D02*
X11508505Y-7374477D01*
X11508505Y-7374477D02*
X11498981Y-7369715D01*
X11498981Y-7369715D02*
X11484695Y-7369715D01*
X11484695Y-7369715D02*
X11475171Y-7374477D01*
X11475171Y-7374477D02*
X11470410Y-7379239D01*
X11470410Y-7379239D02*
X11465648Y-7388763D01*
X11465648Y-7388763D02*
X11465648Y-7417334D01*
X11465648Y-7417334D02*
X11470410Y-7426858D01*
X11470410Y-7426858D02*
X11475171Y-7431620D01*
X11475171Y-7431620D02*
X11484695Y-7436382D01*
X11484695Y-7436382D02*
X11498981Y-7436382D01*
X11422790Y-7369715D02*
X11422790Y-7436382D01*
X11422790Y-7379239D02*
X11418029Y-7374477D01*
X11418029Y-7374477D02*
X11408505Y-7369715D01*
X11408505Y-7369715D02*
X11394219Y-7369715D01*
X11394219Y-7369715D02*
X11384695Y-7374477D01*
X11384695Y-7374477D02*
X11379933Y-7384001D01*
X11379933Y-7384001D02*
X11379933Y-7436382D01*
X11332314Y-7369715D02*
X11332314Y-7436382D01*
X11332314Y-7379239D02*
X11327552Y-7374477D01*
X11327552Y-7374477D02*
X11318029Y-7369715D01*
X11318029Y-7369715D02*
X11303743Y-7369715D01*
X11303743Y-7369715D02*
X11294219Y-7374477D01*
X11294219Y-7374477D02*
X11289457Y-7384001D01*
X11289457Y-7384001D02*
X11289457Y-7436382D01*
X11265648Y-7445906D02*
X11189457Y-7445906D01*
X11146600Y-7336382D02*
X11137076Y-7336382D01*
X11137076Y-7336382D02*
X11127552Y-7341144D01*
X11127552Y-7341144D02*
X11122791Y-7345906D01*
X11122791Y-7345906D02*
X11118029Y-7355429D01*
X11118029Y-7355429D02*
X11113267Y-7374477D01*
X11113267Y-7374477D02*
X11113267Y-7398287D01*
X11113267Y-7398287D02*
X11118029Y-7417334D01*
X11118029Y-7417334D02*
X11122791Y-7426858D01*
X11122791Y-7426858D02*
X11127552Y-7431620D01*
X11127552Y-7431620D02*
X11137076Y-7436382D01*
X11137076Y-7436382D02*
X11146600Y-7436382D01*
X11146600Y-7436382D02*
X11156124Y-7431620D01*
X11156124Y-7431620D02*
X11160886Y-7426858D01*
X11160886Y-7426858D02*
X11165648Y-7417334D01*
X11165648Y-7417334D02*
X11170410Y-7398287D01*
X11170410Y-7398287D02*
X11170410Y-7374477D01*
X11170410Y-7374477D02*
X11165648Y-7355429D01*
X11165648Y-7355429D02*
X11160886Y-7345906D01*
X11160886Y-7345906D02*
X11156124Y-7341144D01*
X11156124Y-7341144D02*
X11146600Y-7336382D01*
X11018029Y-7436382D02*
X11075171Y-7436382D01*
X11046600Y-7436382D02*
X11046600Y-7336382D01*
X11046600Y-7336382D02*
X11056124Y-7350668D01*
X11056124Y-7350668D02*
X11065648Y-7360191D01*
X11065648Y-7360191D02*
X11075171Y-7364953D01*
X10984695Y-7436382D02*
X10932314Y-7369715D01*
X10984695Y-7369715D02*
X10932314Y-7436382D01*
X10875171Y-7336382D02*
X10865648Y-7336382D01*
X10865648Y-7336382D02*
X10856124Y-7341144D01*
X10856124Y-7341144D02*
X10851362Y-7345906D01*
X10851362Y-7345906D02*
X10846600Y-7355429D01*
X10846600Y-7355429D02*
X10841838Y-7374477D01*
X10841838Y-7374477D02*
X10841838Y-7398287D01*
X10841838Y-7398287D02*
X10846600Y-7417334D01*
X10846600Y-7417334D02*
X10851362Y-7426858D01*
X10851362Y-7426858D02*
X10856124Y-7431620D01*
X10856124Y-7431620D02*
X10865648Y-7436382D01*
X10865648Y-7436382D02*
X10875171Y-7436382D01*
X10875171Y-7436382D02*
X10884695Y-7431620D01*
X10884695Y-7431620D02*
X10889457Y-7426858D01*
X10889457Y-7426858D02*
X10894219Y-7417334D01*
X10894219Y-7417334D02*
X10898981Y-7398287D01*
X10898981Y-7398287D02*
X10898981Y-7374477D01*
X10898981Y-7374477D02*
X10894219Y-7355429D01*
X10894219Y-7355429D02*
X10889457Y-7345906D01*
X10889457Y-7345906D02*
X10884695Y-7341144D01*
X10884695Y-7341144D02*
X10875171Y-7336382D01*
X10803743Y-7345906D02*
X10798981Y-7341144D01*
X10798981Y-7341144D02*
X10789457Y-7336382D01*
X10789457Y-7336382D02*
X10765648Y-7336382D01*
X10765648Y-7336382D02*
X10756124Y-7341144D01*
X10756124Y-7341144D02*
X10751362Y-7345906D01*
X10751362Y-7345906D02*
X10746600Y-7355429D01*
X10746600Y-7355429D02*
X10746600Y-7364953D01*
X10746600Y-7364953D02*
X10751362Y-7379239D01*
X10751362Y-7379239D02*
X10808505Y-7436382D01*
X10808505Y-7436382D02*
X10746600Y-7436382D01*
X10727552Y-7445906D02*
X10651362Y-7445906D01*
X10632314Y-7431620D02*
X10618029Y-7436382D01*
X10618029Y-7436382D02*
X10594219Y-7436382D01*
X10594219Y-7436382D02*
X10584695Y-7431620D01*
X10584695Y-7431620D02*
X10579933Y-7426858D01*
X10579933Y-7426858D02*
X10575171Y-7417334D01*
X10575171Y-7417334D02*
X10575171Y-7407810D01*
X10575171Y-7407810D02*
X10579933Y-7398287D01*
X10579933Y-7398287D02*
X10584695Y-7393525D01*
X10584695Y-7393525D02*
X10594219Y-7388763D01*
X10594219Y-7388763D02*
X10613267Y-7384001D01*
X10613267Y-7384001D02*
X10622790Y-7379239D01*
X10622790Y-7379239D02*
X10627552Y-7374477D01*
X10627552Y-7374477D02*
X10632314Y-7364953D01*
X10632314Y-7364953D02*
X10632314Y-7355429D01*
X10632314Y-7355429D02*
X10627552Y-7345906D01*
X10627552Y-7345906D02*
X10622790Y-7341144D01*
X10622790Y-7341144D02*
X10613267Y-7336382D01*
X10613267Y-7336382D02*
X10589457Y-7336382D01*
X10589457Y-7336382D02*
X10575171Y-7341144D01*
X10518029Y-7436382D02*
X10527552Y-7431620D01*
X10527552Y-7431620D02*
X10532314Y-7426858D01*
X10532314Y-7426858D02*
X10537076Y-7417334D01*
X10537076Y-7417334D02*
X10537076Y-7388763D01*
X10537076Y-7388763D02*
X10532314Y-7379239D01*
X10532314Y-7379239D02*
X10527552Y-7374477D01*
X10527552Y-7374477D02*
X10518029Y-7369715D01*
X10518029Y-7369715D02*
X10503743Y-7369715D01*
X10503743Y-7369715D02*
X10494219Y-7374477D01*
X10494219Y-7374477D02*
X10489457Y-7379239D01*
X10489457Y-7379239D02*
X10484695Y-7388763D01*
X10484695Y-7388763D02*
X10484695Y-7417334D01*
X10484695Y-7417334D02*
X10489457Y-7426858D01*
X10489457Y-7426858D02*
X10494219Y-7431620D01*
X10494219Y-7431620D02*
X10503743Y-7436382D01*
X10503743Y-7436382D02*
X10518029Y-7436382D01*
X10398981Y-7431620D02*
X10408505Y-7436382D01*
X10408505Y-7436382D02*
X10427552Y-7436382D01*
X10427552Y-7436382D02*
X10437076Y-7431620D01*
X10437076Y-7431620D02*
X10441838Y-7426858D01*
X10441838Y-7426858D02*
X10446600Y-7417334D01*
X10446600Y-7417334D02*
X10446600Y-7388763D01*
X10446600Y-7388763D02*
X10441838Y-7379239D01*
X10441838Y-7379239D02*
X10437076Y-7374477D01*
X10437076Y-7374477D02*
X10427552Y-7369715D01*
X10427552Y-7369715D02*
X10408505Y-7369715D01*
X10408505Y-7369715D02*
X10398981Y-7374477D01*
X10356124Y-7436382D02*
X10356124Y-7336382D01*
X10346600Y-7398287D02*
X10318029Y-7436382D01*
X10318029Y-7369715D02*
X10356124Y-7407810D01*
X10237076Y-7431620D02*
X10246600Y-7436382D01*
X10246600Y-7436382D02*
X10265648Y-7436382D01*
X10265648Y-7436382D02*
X10275171Y-7431620D01*
X10275171Y-7431620D02*
X10279933Y-7422096D01*
X10279933Y-7422096D02*
X10279933Y-7384001D01*
X10279933Y-7384001D02*
X10275171Y-7374477D01*
X10275171Y-7374477D02*
X10265648Y-7369715D01*
X10265648Y-7369715D02*
X10246600Y-7369715D01*
X10246600Y-7369715D02*
X10237076Y-7374477D01*
X10237076Y-7374477D02*
X10232314Y-7384001D01*
X10232314Y-7384001D02*
X10232314Y-7393525D01*
X10232314Y-7393525D02*
X10279933Y-7403048D01*
X10203743Y-7369715D02*
X10165648Y-7369715D01*
X10189457Y-7336382D02*
X10189457Y-7422096D01*
X10189457Y-7422096D02*
X10184695Y-7431620D01*
X10184695Y-7431620D02*
X10175171Y-7436382D01*
X10175171Y-7436382D02*
X10165648Y-7436382D01*
X10929933Y-7588382D02*
X10929933Y-7659810D01*
X10929933Y-7659810D02*
X10934695Y-7674096D01*
X10934695Y-7674096D02*
X10944219Y-7683620D01*
X10944219Y-7683620D02*
X10958505Y-7688382D01*
X10958505Y-7688382D02*
X10968029Y-7688382D01*
X10829933Y-7688382D02*
X10887076Y-7688382D01*
X10858505Y-7688382D02*
X10858505Y-7588382D01*
X10858505Y-7588382D02*
X10868029Y-7602668D01*
X10868029Y-7602668D02*
X10877552Y-7612191D01*
X10877552Y-7612191D02*
X10887076Y-7616953D01*
X10379867Y-9395858D02*
X10384629Y-9400620D01*
X10384629Y-9400620D02*
X10398914Y-9405382D01*
X10398914Y-9405382D02*
X10408438Y-9405382D01*
X10408438Y-9405382D02*
X10422724Y-9400620D01*
X10422724Y-9400620D02*
X10432248Y-9391096D01*
X10432248Y-9391096D02*
X10437009Y-9381572D01*
X10437009Y-9381572D02*
X10441771Y-9362525D01*
X10441771Y-9362525D02*
X10441771Y-9348239D01*
X10441771Y-9348239D02*
X10437009Y-9329191D01*
X10437009Y-9329191D02*
X10432248Y-9319668D01*
X10432248Y-9319668D02*
X10422724Y-9310144D01*
X10422724Y-9310144D02*
X10408438Y-9305382D01*
X10408438Y-9305382D02*
X10398914Y-9305382D01*
X10398914Y-9305382D02*
X10384629Y-9310144D01*
X10384629Y-9310144D02*
X10379867Y-9314906D01*
X10284629Y-9405382D02*
X10341771Y-9405382D01*
X10313200Y-9405382D02*
X10313200Y-9305382D01*
X10313200Y-9305382D02*
X10322724Y-9319668D01*
X10322724Y-9319668D02*
X10332248Y-9329191D01*
X10332248Y-9329191D02*
X10341771Y-9333953D01*
D10*
X12304333Y-11694985D02*
X12331000Y-11656890D01*
X12350047Y-11694985D02*
X12350047Y-11614985D01*
X12350047Y-11614985D02*
X12319571Y-11614985D01*
X12319571Y-11614985D02*
X12311952Y-11618795D01*
X12311952Y-11618795D02*
X12308143Y-11622604D01*
X12308143Y-11622604D02*
X12304333Y-11630224D01*
X12304333Y-11630224D02*
X12304333Y-11641652D01*
X12304333Y-11641652D02*
X12308143Y-11649271D01*
X12308143Y-11649271D02*
X12311952Y-11653081D01*
X12311952Y-11653081D02*
X12319571Y-11656890D01*
X12319571Y-11656890D02*
X12350047Y-11656890D01*
X12228143Y-11694985D02*
X12273857Y-11694985D01*
X12251000Y-11694985D02*
X12251000Y-11614985D01*
X12251000Y-11614985D02*
X12258619Y-11626414D01*
X12258619Y-11626414D02*
X12266238Y-11634033D01*
X12266238Y-11634033D02*
X12273857Y-11637843D01*
X12306933Y-11390185D02*
X12333600Y-11352090D01*
X12352647Y-11390185D02*
X12352647Y-11310185D01*
X12352647Y-11310185D02*
X12322171Y-11310185D01*
X12322171Y-11310185D02*
X12314552Y-11313995D01*
X12314552Y-11313995D02*
X12310743Y-11317804D01*
X12310743Y-11317804D02*
X12306933Y-11325424D01*
X12306933Y-11325424D02*
X12306933Y-11336852D01*
X12306933Y-11336852D02*
X12310743Y-11344471D01*
X12310743Y-11344471D02*
X12314552Y-11348281D01*
X12314552Y-11348281D02*
X12322171Y-11352090D01*
X12322171Y-11352090D02*
X12352647Y-11352090D01*
X12276457Y-11317804D02*
X12272647Y-11313995D01*
X12272647Y-11313995D02*
X12265028Y-11310185D01*
X12265028Y-11310185D02*
X12245981Y-11310185D01*
X12245981Y-11310185D02*
X12238362Y-11313995D01*
X12238362Y-11313995D02*
X12234552Y-11317804D01*
X12234552Y-11317804D02*
X12230743Y-11325424D01*
X12230743Y-11325424D02*
X12230743Y-11333043D01*
X12230743Y-11333043D02*
X12234552Y-11344471D01*
X12234552Y-11344471D02*
X12280267Y-11390185D01*
X12280267Y-11390185D02*
X12230743Y-11390185D01*
X11198385Y-9527548D02*
X11263147Y-9527548D01*
X11263147Y-9527548D02*
X11270766Y-9531357D01*
X11270766Y-9531357D02*
X11274576Y-9535167D01*
X11274576Y-9535167D02*
X11278385Y-9542786D01*
X11278385Y-9542786D02*
X11278385Y-9558024D01*
X11278385Y-9558024D02*
X11274576Y-9565643D01*
X11274576Y-9565643D02*
X11270766Y-9569452D01*
X11270766Y-9569452D02*
X11263147Y-9573262D01*
X11263147Y-9573262D02*
X11198385Y-9573262D01*
X11278385Y-9653262D02*
X11278385Y-9607548D01*
X11278385Y-9630405D02*
X11198385Y-9630405D01*
X11198385Y-9630405D02*
X11209814Y-9622786D01*
X11209814Y-9622786D02*
X11217433Y-9615167D01*
X11217433Y-9615167D02*
X11221243Y-9607548D01*
X12687933Y-9955086D02*
X12714600Y-9916990D01*
X12733647Y-9955086D02*
X12733647Y-9875086D01*
X12733647Y-9875086D02*
X12703171Y-9875086D01*
X12703171Y-9875086D02*
X12695552Y-9878895D01*
X12695552Y-9878895D02*
X12691743Y-9882705D01*
X12691743Y-9882705D02*
X12687933Y-9890324D01*
X12687933Y-9890324D02*
X12687933Y-9901752D01*
X12687933Y-9901752D02*
X12691743Y-9909371D01*
X12691743Y-9909371D02*
X12695552Y-9913181D01*
X12695552Y-9913181D02*
X12703171Y-9916990D01*
X12703171Y-9916990D02*
X12733647Y-9916990D01*
X12619362Y-9901752D02*
X12619362Y-9955086D01*
X12638409Y-9871276D02*
X12657457Y-9928419D01*
X12657457Y-9928419D02*
X12607933Y-9928419D01*
D11*
X9246959Y-10973932D02*
X9246959Y-10873932D01*
X9189817Y-10973932D02*
X9232674Y-10916789D01*
X9189817Y-10873932D02*
X9246959Y-10931075D01*
X9094579Y-10973932D02*
X9151721Y-10973932D01*
X9123150Y-10973932D02*
X9123150Y-10873932D01*
X9123150Y-10873932D02*
X9132674Y-10888218D01*
X9132674Y-10888218D02*
X9142198Y-10897741D01*
X9142198Y-10897741D02*
X9151721Y-10902503D01*
D10*
X12687933Y-9574086D02*
X12714600Y-9535990D01*
X12733647Y-9574086D02*
X12733647Y-9494086D01*
X12733647Y-9494086D02*
X12703171Y-9494086D01*
X12703171Y-9494086D02*
X12695552Y-9497895D01*
X12695552Y-9497895D02*
X12691743Y-9501705D01*
X12691743Y-9501705D02*
X12687933Y-9509324D01*
X12687933Y-9509324D02*
X12687933Y-9520752D01*
X12687933Y-9520752D02*
X12691743Y-9528371D01*
X12691743Y-9528371D02*
X12695552Y-9532181D01*
X12695552Y-9532181D02*
X12703171Y-9535990D01*
X12703171Y-9535990D02*
X12733647Y-9535990D01*
X12615552Y-9494086D02*
X12653647Y-9494086D01*
X12653647Y-9494086D02*
X12657457Y-9532181D01*
X12657457Y-9532181D02*
X12653647Y-9528371D01*
X12653647Y-9528371D02*
X12646028Y-9524562D01*
X12646028Y-9524562D02*
X12626981Y-9524562D01*
X12626981Y-9524562D02*
X12619362Y-9528371D01*
X12619362Y-9528371D02*
X12615552Y-9532181D01*
X12615552Y-9532181D02*
X12611743Y-9539800D01*
X12611743Y-9539800D02*
X12611743Y-9558847D01*
X12611743Y-9558847D02*
X12615552Y-9566466D01*
X12615552Y-9566466D02*
X12619362Y-9570276D01*
X12619362Y-9570276D02*
X12626981Y-9574086D01*
X12626981Y-9574086D02*
X12646028Y-9574086D01*
X12646028Y-9574086D02*
X12653647Y-9570276D01*
X12653647Y-9570276D02*
X12657457Y-9566466D01*
D11*
X13546133Y-7588382D02*
X13546133Y-7659810D01*
X13546133Y-7659810D02*
X13550895Y-7674096D01*
X13550895Y-7674096D02*
X13560419Y-7683620D01*
X13560419Y-7683620D02*
X13574705Y-7688382D01*
X13574705Y-7688382D02*
X13584228Y-7688382D01*
X13503276Y-7597906D02*
X13498514Y-7593144D01*
X13498514Y-7593144D02*
X13488990Y-7588382D01*
X13488990Y-7588382D02*
X13465181Y-7588382D01*
X13465181Y-7588382D02*
X13455657Y-7593144D01*
X13455657Y-7593144D02*
X13450895Y-7597906D01*
X13450895Y-7597906D02*
X13446133Y-7607429D01*
X13446133Y-7607429D02*
X13446133Y-7616953D01*
X13446133Y-7616953D02*
X13450895Y-7631239D01*
X13450895Y-7631239D02*
X13508038Y-7688382D01*
X13508038Y-7688382D02*
X13446133Y-7688382D01*
X8897933Y-7588382D02*
X8897933Y-7659810D01*
X8897933Y-7659810D02*
X8902695Y-7674096D01*
X8902695Y-7674096D02*
X8912219Y-7683620D01*
X8912219Y-7683620D02*
X8926505Y-7688382D01*
X8926505Y-7688382D02*
X8936029Y-7688382D01*
X8859838Y-7588382D02*
X8797933Y-7588382D01*
X8797933Y-7588382D02*
X8831267Y-7626477D01*
X8831267Y-7626477D02*
X8816981Y-7626477D01*
X8816981Y-7626477D02*
X8807457Y-7631239D01*
X8807457Y-7631239D02*
X8802695Y-7636001D01*
X8802695Y-7636001D02*
X8797933Y-7645525D01*
X8797933Y-7645525D02*
X8797933Y-7669334D01*
X8797933Y-7669334D02*
X8802695Y-7678858D01*
X8802695Y-7678858D02*
X8807457Y-7683620D01*
X8807457Y-7683620D02*
X8816981Y-7688382D01*
X8816981Y-7688382D02*
X8845552Y-7688382D01*
X8845552Y-7688382D02*
X8855076Y-7683620D01*
X8855076Y-7683620D02*
X8859838Y-7678858D01*
X10628482Y-10602952D02*
X10628482Y-10545810D01*
X10628482Y-10574381D02*
X10528482Y-10574381D01*
X10528482Y-10574381D02*
X10542768Y-10564857D01*
X10542768Y-10564857D02*
X10552291Y-10555333D01*
X10552291Y-10555333D02*
X10557053Y-10545810D01*
X10628482Y-10645810D02*
X10528482Y-10645810D01*
X10528482Y-10645810D02*
X10628482Y-10702952D01*
X10628482Y-10702952D02*
X10528482Y-10702952D01*
X10561815Y-10793429D02*
X10628482Y-10793429D01*
X10523720Y-10769619D02*
X10595149Y-10745810D01*
X10595149Y-10745810D02*
X10595149Y-10807714D01*
X10628482Y-10898190D02*
X10628482Y-10841048D01*
X10628482Y-10869619D02*
X10528482Y-10869619D01*
X10528482Y-10869619D02*
X10542768Y-10860095D01*
X10542768Y-10860095D02*
X10552291Y-10850571D01*
X10552291Y-10850571D02*
X10557053Y-10841048D01*
X10561815Y-10983905D02*
X10628482Y-10983905D01*
X10523720Y-10960095D02*
X10595149Y-10936286D01*
X10595149Y-10936286D02*
X10595149Y-10998190D01*
X10571339Y-11050571D02*
X10566577Y-11041048D01*
X10566577Y-11041048D02*
X10561815Y-11036286D01*
X10561815Y-11036286D02*
X10552291Y-11031524D01*
X10552291Y-11031524D02*
X10547530Y-11031524D01*
X10547530Y-11031524D02*
X10538006Y-11036286D01*
X10538006Y-11036286D02*
X10533244Y-11041048D01*
X10533244Y-11041048D02*
X10528482Y-11050571D01*
X10528482Y-11050571D02*
X10528482Y-11069619D01*
X10528482Y-11069619D02*
X10533244Y-11079143D01*
X10533244Y-11079143D02*
X10538006Y-11083905D01*
X10538006Y-11083905D02*
X10547530Y-11088667D01*
X10547530Y-11088667D02*
X10552291Y-11088667D01*
X10552291Y-11088667D02*
X10561815Y-11083905D01*
X10561815Y-11083905D02*
X10566577Y-11079143D01*
X10566577Y-11079143D02*
X10571339Y-11069619D01*
X10571339Y-11069619D02*
X10571339Y-11050571D01*
X10571339Y-11050571D02*
X10576101Y-11041048D01*
X10576101Y-11041048D02*
X10580863Y-11036286D01*
X10580863Y-11036286D02*
X10590387Y-11031524D01*
X10590387Y-11031524D02*
X10609434Y-11031524D01*
X10609434Y-11031524D02*
X10618958Y-11036286D01*
X10618958Y-11036286D02*
X10623720Y-11041048D01*
X10623720Y-11041048D02*
X10628482Y-11050571D01*
X10628482Y-11050571D02*
X10628482Y-11069619D01*
X10628482Y-11069619D02*
X10623720Y-11079143D01*
X10623720Y-11079143D02*
X10618958Y-11083905D01*
X10618958Y-11083905D02*
X10609434Y-11088667D01*
X10609434Y-11088667D02*
X10590387Y-11088667D01*
X10590387Y-11088667D02*
X10580863Y-11083905D01*
X10580863Y-11083905D02*
X10576101Y-11079143D01*
X10576101Y-11079143D02*
X10571339Y-11069619D01*
X10528482Y-11122000D02*
X10628482Y-11145810D01*
X10628482Y-11145810D02*
X10557053Y-11164857D01*
X10557053Y-11164857D02*
X10628482Y-11183905D01*
X10628482Y-11183905D02*
X10528482Y-11207714D01*
X10623720Y-11241048D02*
X10628482Y-11255333D01*
X10628482Y-11255333D02*
X10628482Y-11279143D01*
X10628482Y-11279143D02*
X10623720Y-11288667D01*
X10623720Y-11288667D02*
X10618958Y-11293428D01*
X10618958Y-11293428D02*
X10609434Y-11298190D01*
X10609434Y-11298190D02*
X10599910Y-11298190D01*
X10599910Y-11298190D02*
X10590387Y-11293428D01*
X10590387Y-11293428D02*
X10585625Y-11288667D01*
X10585625Y-11288667D02*
X10580863Y-11279143D01*
X10580863Y-11279143D02*
X10576101Y-11260095D01*
X10576101Y-11260095D02*
X10571339Y-11250571D01*
X10571339Y-11250571D02*
X10566577Y-11245809D01*
X10566577Y-11245809D02*
X10557053Y-11241048D01*
X10557053Y-11241048D02*
X10547530Y-11241048D01*
X10547530Y-11241048D02*
X10538006Y-11245809D01*
X10538006Y-11245809D02*
X10533244Y-11250571D01*
X10533244Y-11250571D02*
X10528482Y-11260095D01*
X10528482Y-11260095D02*
X10528482Y-11283905D01*
X10528482Y-11283905D02*
X10533244Y-11298190D01*
X11020482Y-11276809D02*
X10920482Y-11276809D01*
X11020482Y-11333952D02*
X10963339Y-11291095D01*
X10920482Y-11333952D02*
X10977625Y-11276809D01*
D10*
X10831386Y-10832952D02*
X10751386Y-10832952D01*
X10751386Y-10832952D02*
X10751386Y-10852000D01*
X10751386Y-10852000D02*
X10755195Y-10863429D01*
X10755195Y-10863429D02*
X10762814Y-10871048D01*
X10762814Y-10871048D02*
X10770433Y-10874857D01*
X10770433Y-10874857D02*
X10785671Y-10878667D01*
X10785671Y-10878667D02*
X10797100Y-10878667D01*
X10797100Y-10878667D02*
X10812338Y-10874857D01*
X10812338Y-10874857D02*
X10819957Y-10871048D01*
X10819957Y-10871048D02*
X10827576Y-10863429D01*
X10827576Y-10863429D02*
X10831386Y-10852000D01*
X10831386Y-10852000D02*
X10831386Y-10832952D01*
X10751386Y-10951048D02*
X10751386Y-10912952D01*
X10751386Y-10912952D02*
X10789481Y-10909143D01*
X10789481Y-10909143D02*
X10785671Y-10912952D01*
X10785671Y-10912952D02*
X10781862Y-10920571D01*
X10781862Y-10920571D02*
X10781862Y-10939619D01*
X10781862Y-10939619D02*
X10785671Y-10947238D01*
X10785671Y-10947238D02*
X10789481Y-10951048D01*
X10789481Y-10951048D02*
X10797100Y-10954857D01*
X10797100Y-10954857D02*
X10816147Y-10954857D01*
X10816147Y-10954857D02*
X10823766Y-10951048D01*
X10823766Y-10951048D02*
X10827576Y-10947238D01*
X10827576Y-10947238D02*
X10831386Y-10939619D01*
X10831386Y-10939619D02*
X10831386Y-10920571D01*
X10831386Y-10920571D02*
X10827576Y-10912952D01*
X10827576Y-10912952D02*
X10823766Y-10909143D01*
D11*
X10377367Y-9802258D02*
X10382129Y-9807020D01*
X10382129Y-9807020D02*
X10396414Y-9811782D01*
X10396414Y-9811782D02*
X10405938Y-9811782D01*
X10405938Y-9811782D02*
X10420224Y-9807020D01*
X10420224Y-9807020D02*
X10429748Y-9797496D01*
X10429748Y-9797496D02*
X10434509Y-9787972D01*
X10434509Y-9787972D02*
X10439271Y-9768925D01*
X10439271Y-9768925D02*
X10439271Y-9754639D01*
X10439271Y-9754639D02*
X10434509Y-9735591D01*
X10434509Y-9735591D02*
X10429748Y-9726068D01*
X10429748Y-9726068D02*
X10420224Y-9716544D01*
X10420224Y-9716544D02*
X10405938Y-9711782D01*
X10405938Y-9711782D02*
X10396414Y-9711782D01*
X10396414Y-9711782D02*
X10382129Y-9716544D01*
X10382129Y-9716544D02*
X10377367Y-9721306D01*
X10339271Y-9721306D02*
X10334509Y-9716544D01*
X10334509Y-9716544D02*
X10324986Y-9711782D01*
X10324986Y-9711782D02*
X10301176Y-9711782D01*
X10301176Y-9711782D02*
X10291652Y-9716544D01*
X10291652Y-9716544D02*
X10286890Y-9721306D01*
X10286890Y-9721306D02*
X10282129Y-9730830D01*
X10282129Y-9730830D02*
X10282129Y-9740353D01*
X10282129Y-9740353D02*
X10286890Y-9754639D01*
X10286890Y-9754639D02*
X10344033Y-9811782D01*
X10344033Y-9811782D02*
X10282129Y-9811782D01*
X11879901Y-11701486D02*
X11884663Y-11715771D01*
X11884663Y-11715771D02*
X11889425Y-11720533D01*
X11889425Y-11720533D02*
X11898948Y-11725295D01*
X11898948Y-11725295D02*
X11913234Y-11725295D01*
X11913234Y-11725295D02*
X11922758Y-11720533D01*
X11922758Y-11720533D02*
X11927520Y-11715771D01*
X11927520Y-11715771D02*
X11932282Y-11706248D01*
X11932282Y-11706248D02*
X11932282Y-11668152D01*
X11932282Y-11668152D02*
X11832282Y-11668152D01*
X11832282Y-11668152D02*
X11832282Y-11701486D01*
X11832282Y-11701486D02*
X11837044Y-11711009D01*
X11837044Y-11711009D02*
X11841806Y-11715771D01*
X11841806Y-11715771D02*
X11851329Y-11720533D01*
X11851329Y-11720533D02*
X11860853Y-11720533D01*
X11860853Y-11720533D02*
X11870377Y-11715771D01*
X11870377Y-11715771D02*
X11875139Y-11711009D01*
X11875139Y-11711009D02*
X11879901Y-11701486D01*
X11879901Y-11701486D02*
X11879901Y-11668152D01*
X11922758Y-11825295D02*
X11927520Y-11820533D01*
X11927520Y-11820533D02*
X11932282Y-11806248D01*
X11932282Y-11806248D02*
X11932282Y-11796724D01*
X11932282Y-11796724D02*
X11927520Y-11782438D01*
X11927520Y-11782438D02*
X11917996Y-11772914D01*
X11917996Y-11772914D02*
X11908472Y-11768152D01*
X11908472Y-11768152D02*
X11889425Y-11763390D01*
X11889425Y-11763390D02*
X11875139Y-11763390D01*
X11875139Y-11763390D02*
X11856091Y-11768152D01*
X11856091Y-11768152D02*
X11846568Y-11772914D01*
X11846568Y-11772914D02*
X11837044Y-11782438D01*
X11837044Y-11782438D02*
X11832282Y-11796724D01*
X11832282Y-11796724D02*
X11832282Y-11806248D01*
X11832282Y-11806248D02*
X11837044Y-11820533D01*
X11837044Y-11820533D02*
X11841806Y-11825295D01*
X11832282Y-11858629D02*
X11832282Y-11920533D01*
X11832282Y-11920533D02*
X11870377Y-11887200D01*
X11870377Y-11887200D02*
X11870377Y-11901486D01*
X11870377Y-11901486D02*
X11875139Y-11911009D01*
X11875139Y-11911009D02*
X11879901Y-11915771D01*
X11879901Y-11915771D02*
X11889425Y-11920533D01*
X11889425Y-11920533D02*
X11913234Y-11920533D01*
X11913234Y-11920533D02*
X11922758Y-11915771D01*
X11922758Y-11915771D02*
X11927520Y-11911009D01*
X11927520Y-11911009D02*
X11932282Y-11901486D01*
X11932282Y-11901486D02*
X11932282Y-11872914D01*
X11932282Y-11872914D02*
X11927520Y-11863390D01*
X11927520Y-11863390D02*
X11922758Y-11858629D01*
X11832282Y-11953867D02*
X11832282Y-12015771D01*
X11832282Y-12015771D02*
X11870377Y-11982438D01*
X11870377Y-11982438D02*
X11870377Y-11996724D01*
X11870377Y-11996724D02*
X11875139Y-12006248D01*
X11875139Y-12006248D02*
X11879901Y-12011009D01*
X11879901Y-12011009D02*
X11889425Y-12015771D01*
X11889425Y-12015771D02*
X11913234Y-12015771D01*
X11913234Y-12015771D02*
X11922758Y-12011009D01*
X11922758Y-12011009D02*
X11927520Y-12006248D01*
X11927520Y-12006248D02*
X11932282Y-11996724D01*
X11932282Y-11996724D02*
X11932282Y-11968152D01*
X11932282Y-11968152D02*
X11927520Y-11958629D01*
X11927520Y-11958629D02*
X11922758Y-11953867D01*
X11832282Y-12049105D02*
X11832282Y-12115771D01*
X11832282Y-12115771D02*
X11932282Y-12072914D01*
X11662806Y-11877676D02*
X11658044Y-11868152D01*
X11658044Y-11868152D02*
X11648520Y-11858628D01*
X11648520Y-11858628D02*
X11634234Y-11844343D01*
X11634234Y-11844343D02*
X11629472Y-11834819D01*
X11629472Y-11834819D02*
X11629472Y-11825295D01*
X11653282Y-11830057D02*
X11648520Y-11820533D01*
X11648520Y-11820533D02*
X11638996Y-11811009D01*
X11638996Y-11811009D02*
X11619948Y-11806248D01*
X11619948Y-11806248D02*
X11586615Y-11806248D01*
X11586615Y-11806248D02*
X11567568Y-11811009D01*
X11567568Y-11811009D02*
X11558044Y-11820533D01*
X11558044Y-11820533D02*
X11553282Y-11830057D01*
X11553282Y-11830057D02*
X11553282Y-11849105D01*
X11553282Y-11849105D02*
X11558044Y-11858628D01*
X11558044Y-11858628D02*
X11567568Y-11868152D01*
X11567568Y-11868152D02*
X11586615Y-11872914D01*
X11586615Y-11872914D02*
X11619948Y-11872914D01*
X11619948Y-11872914D02*
X11638996Y-11868152D01*
X11638996Y-11868152D02*
X11648520Y-11858628D01*
X11648520Y-11858628D02*
X11653282Y-11849105D01*
X11653282Y-11849105D02*
X11653282Y-11830057D01*
X11653282Y-11968152D02*
X11653282Y-11911009D01*
X11653282Y-11939581D02*
X11553282Y-11939581D01*
X11553282Y-11939581D02*
X11567568Y-11930057D01*
X11567568Y-11930057D02*
X11577091Y-11920533D01*
X11577091Y-11920533D02*
X11581853Y-11911009D01*
%TO.C,U2*%
D12*
X13029200Y-12421500D02*
X14809200Y-12421500D01*
X14809200Y-10324000D01*
X13029200Y-10324000D01*
X13029200Y-12421500D01*
D13*
X13164000Y-12309100D02*
G75*
G02*
X13113600Y-12309100I-25200J0D01*
G01*
X13113600Y-12309100D02*
G75*
G02*
X13164000Y-12309100I25200J0D01*
G01*
D12*
%TO.C,D4*%
X11936650Y-9457700D02*
X12256650Y-9457700D01*
X11936650Y-9577700D02*
X11936650Y-9457700D01*
X11976650Y-9617700D02*
X11936650Y-9577700D01*
X12256650Y-9457700D02*
X12256650Y-9617700D01*
X12256650Y-9617700D02*
X11976650Y-9617700D01*
%TO.C,D3*%
X11940943Y-9838700D02*
X12260943Y-9838700D01*
X11940943Y-9958700D02*
X11940943Y-9838700D01*
X11980943Y-9998700D02*
X11940943Y-9958700D01*
X12260943Y-9838700D02*
X12260943Y-9998700D01*
X12260943Y-9998700D02*
X11980943Y-9998700D01*
%TO.C,R3*%
X12514600Y-10219700D02*
X12514600Y-10379700D01*
X12514600Y-10379700D02*
X12834600Y-10379700D01*
X12834600Y-10219700D02*
X12514600Y-10219700D01*
X12834600Y-10379700D02*
X12834600Y-10219700D01*
%TO.C,D2*%
X11936650Y-10219700D02*
X12256650Y-10219700D01*
X11936650Y-10339700D02*
X11936650Y-10219700D01*
X11976650Y-10379700D02*
X11936650Y-10339700D01*
X12256650Y-10219700D02*
X12256650Y-10379700D01*
X12256650Y-10379700D02*
X11976650Y-10379700D01*
%TO.C,Q2*%
X11782800Y-11075200D02*
X11782800Y-11425200D01*
X11359800Y-11252200D02*
G75*
G02*
X11783162Y-11076838I248000J0D01*
G01*
X11783162Y-11427562D02*
G75*
G02*
X11359800Y-11252200I-175363J175363D01*
G01*
%TO.C,J1*%
X10388600Y-7552900D02*
X10388600Y-8482900D01*
X10388600Y-7552900D02*
X11404600Y-7552900D01*
X10388600Y-7702900D02*
X11404600Y-7702900D01*
X10388600Y-8192900D02*
X11404600Y-8192900D01*
X10388600Y-8482900D02*
X11404600Y-8482900D01*
X10438600Y-7502900D02*
X10388600Y-7552900D01*
X10738100Y-8076700D02*
X10528800Y-7867400D01*
X10756400Y-8058400D02*
X10547100Y-7849100D01*
X11246100Y-8076700D02*
X11036800Y-7867400D01*
X11264400Y-8058400D02*
X11055100Y-7849100D01*
X11404600Y-7502900D02*
X10438600Y-7502900D01*
X11404600Y-8482900D02*
X11404600Y-7502900D01*
X10792600Y-7962900D02*
G75*
G02*
X10492600Y-7962900I-150000J0D01*
G01*
X10492600Y-7962900D02*
G75*
G02*
X10792600Y-7962900I150000J0D01*
G01*
X11300600Y-7962900D02*
G75*
G02*
X11000600Y-7962900I-150000J0D01*
G01*
X11000600Y-7962900D02*
G75*
G02*
X11300600Y-7962900I150000J0D01*
G01*
%TO.C,C1*%
X10063200Y-9199900D02*
X10583200Y-9199900D01*
X10063200Y-9519900D02*
X10063200Y-9199900D01*
X10583200Y-9199900D02*
X10663200Y-9279900D01*
X10663200Y-9279900D02*
X10663200Y-9519900D01*
X10663200Y-9519900D02*
X10063200Y-9519900D01*
%TO.C,R1*%
X12131000Y-11578600D02*
X12131000Y-11738600D01*
X12131000Y-11738600D02*
X12451000Y-11738600D01*
X12451000Y-11578600D02*
X12131000Y-11578600D01*
X12451000Y-11738600D02*
X12451000Y-11578600D01*
%TO.C,R2*%
X12133600Y-11273800D02*
X12133600Y-11433800D01*
X12133600Y-11433800D02*
X12453600Y-11433800D01*
X12453600Y-11273800D02*
X12133600Y-11273800D01*
X12453600Y-11433800D02*
X12453600Y-11273800D01*
%TO.C,U1*%
X11057000Y-9253500D02*
X11427000Y-9253500D01*
X11057000Y-9823500D02*
X11057000Y-9253500D01*
X11057000Y-9823500D02*
X11157000Y-9923500D01*
X11157000Y-9923500D02*
X11427000Y-9923500D01*
X11427000Y-9923500D02*
X11427000Y-9253500D01*
%TO.C,R4*%
X12514600Y-9838700D02*
X12514600Y-9998700D01*
X12514600Y-9998700D02*
X12834600Y-9998700D01*
X12834600Y-9838700D02*
X12514600Y-9838700D01*
X12834600Y-9998700D02*
X12834600Y-9838700D01*
%TO.C,K1*%
X7723150Y-10303450D02*
X10603150Y-10303450D01*
X7723150Y-11553450D02*
X7723150Y-10303450D01*
X10373150Y-11153450D02*
X10373150Y-10703450D01*
X10503150Y-11553450D02*
X7723150Y-11553450D01*
X10603150Y-10303450D02*
X10603150Y-11453450D01*
X10603150Y-11453450D02*
X10503150Y-11553450D01*
%TO.C,R5*%
X12514600Y-9457700D02*
X12514600Y-9617700D01*
X12514600Y-9617700D02*
X12834600Y-9617700D01*
X12834600Y-9457700D02*
X12514600Y-9457700D01*
X12834600Y-9617700D02*
X12834600Y-9457700D01*
%TO.C,J2*%
X11988800Y-7552900D02*
X11988800Y-8482900D01*
X11988800Y-7552900D02*
X15036800Y-7552900D01*
X11988800Y-7702900D02*
X15036800Y-7702900D01*
X11988800Y-8192900D02*
X15036800Y-8192900D01*
X11988800Y-8482900D02*
X15036800Y-8482900D01*
X12038800Y-7502900D02*
X11988800Y-7552900D01*
X12338300Y-8076700D02*
X12129000Y-7867400D01*
X12356600Y-8058400D02*
X12147300Y-7849100D01*
X12846300Y-8076700D02*
X12637000Y-7867400D01*
X12864600Y-8058400D02*
X12655300Y-7849100D01*
X13354300Y-8076700D02*
X13145000Y-7867400D01*
X13372600Y-8058400D02*
X13163300Y-7849100D01*
X13862300Y-8076700D02*
X13653000Y-7867400D01*
X13880600Y-8058400D02*
X13671300Y-7849100D01*
X14370300Y-8076700D02*
X14161000Y-7867400D01*
X14388600Y-8058400D02*
X14179300Y-7849100D01*
X14878300Y-8076700D02*
X14669000Y-7867400D01*
X14896600Y-8058400D02*
X14687300Y-7849100D01*
X15036800Y-7502900D02*
X12038800Y-7502900D01*
X15036800Y-8482900D02*
X15036800Y-7502900D01*
X12392800Y-7962900D02*
G75*
G02*
X12092800Y-7962900I-150000J0D01*
G01*
X12092800Y-7962900D02*
G75*
G02*
X12392800Y-7962900I150000J0D01*
G01*
X12900800Y-7962900D02*
G75*
G02*
X12600800Y-7962900I-150000J0D01*
G01*
X12600800Y-7962900D02*
G75*
G02*
X12900800Y-7962900I150000J0D01*
G01*
X13408800Y-7962900D02*
G75*
G02*
X13108800Y-7962900I-150000J0D01*
G01*
X13108800Y-7962900D02*
G75*
G02*
X13408800Y-7962900I150000J0D01*
G01*
X13916800Y-7962900D02*
G75*
G02*
X13616800Y-7962900I-150000J0D01*
G01*
X13616800Y-7962900D02*
G75*
G02*
X13916800Y-7962900I150000J0D01*
G01*
X14424800Y-7962900D02*
G75*
G02*
X14124800Y-7962900I-150000J0D01*
G01*
X14124800Y-7962900D02*
G75*
G02*
X14424800Y-7962900I150000J0D01*
G01*
X14932800Y-7962900D02*
G75*
G02*
X14632800Y-7962900I-150000J0D01*
G01*
X14632800Y-7962900D02*
G75*
G02*
X14932800Y-7962900I150000J0D01*
G01*
%TO.C,J3*%
X8102600Y-7552900D02*
X8102600Y-8482900D01*
X8102600Y-7552900D02*
X9626600Y-7552900D01*
X8102600Y-7702900D02*
X9626600Y-7702900D01*
X8102600Y-8192900D02*
X9626600Y-8192900D01*
X8102600Y-8482900D02*
X9626600Y-8482900D01*
X8152600Y-7502900D02*
X8102600Y-7552900D01*
X8452100Y-8076700D02*
X8242800Y-7867400D01*
X8470400Y-8058400D02*
X8261100Y-7849100D01*
X8960100Y-8076700D02*
X8750800Y-7867400D01*
X8978400Y-8058400D02*
X8769100Y-7849100D01*
X9468100Y-8076700D02*
X9258800Y-7867400D01*
X9486400Y-8058400D02*
X9277100Y-7849100D01*
X9626600Y-7502900D02*
X8152600Y-7502900D01*
X9626600Y-8482900D02*
X9626600Y-7502900D01*
X8506600Y-7962900D02*
G75*
G02*
X8206600Y-7962900I-150000J0D01*
G01*
X8206600Y-7962900D02*
G75*
G02*
X8506600Y-7962900I150000J0D01*
G01*
X9014600Y-7962900D02*
G75*
G02*
X8714600Y-7962900I-150000J0D01*
G01*
X8714600Y-7962900D02*
G75*
G02*
X9014600Y-7962900I150000J0D01*
G01*
X9522600Y-7962900D02*
G75*
G02*
X9222600Y-7962900I-150000J0D01*
G01*
X9222600Y-7962900D02*
G75*
G02*
X9522600Y-7962900I150000J0D01*
G01*
%TO.C,D5*%
X10795000Y-10541000D02*
X10795000Y-10722000D01*
X10795000Y-11303000D02*
X10795000Y-11122000D01*
X10895000Y-11052000D02*
X10695000Y-11052000D01*
X10895000Y-11062000D02*
X10695000Y-11062000D01*
X10895000Y-11072000D02*
X10695000Y-11072000D01*
X10895000Y-11122000D02*
X10695000Y-11122000D01*
X10695000Y-10722000D01*
X10895000Y-10722000D01*
X10895000Y-11122000D01*
%TO.C,C2*%
X10060700Y-9606300D02*
X10580700Y-9606300D01*
X10060700Y-9926300D02*
X10060700Y-9606300D01*
X10580700Y-9606300D02*
X10660700Y-9686300D01*
X10660700Y-9686300D02*
X10660700Y-9926300D01*
X10660700Y-9926300D02*
X10060700Y-9926300D01*
%TO.C,Q1*%
X11782800Y-11710200D02*
X11782800Y-12060200D01*
X11359800Y-11887200D02*
G75*
G02*
X11783162Y-11711837I248000J0D01*
G01*
X11783162Y-12062562D02*
G75*
G02*
X11359800Y-11887200I-175363J175363D01*
G01*
%TD*%
M02*
