%TF.GenerationSoftware,KiCad,Pcbnew,9.0.2*%
%TF.CreationDate,2025-08-22T21:41:17+02:00*%
%TF.ProjectId,esp32c6-charger,65737033-3263-4362-9d63-686172676572,rev?*%
%TF.SameCoordinates,Original*%
%TF.FileFunction,Copper,L2,Bot*%
%TF.FilePolarity,Positive*%
%FSLAX45Y45*%
G04 Gerber Fmt 4.5, Leading zero omitted, Abs format (unit mm)*
G04 Created by KiCad (PCBNEW 9.0.2) date 2025-08-22 21:41:17*
%MOMM*%
%LPD*%
G01*
G04 APERTURE LIST*
G04 Aperture macros list*
%AMRoundRect*
0 Rectangle with rounded corners*
0 $1 Rounding radius*
0 $2 $3 $4 $5 $6 $7 $8 $9 X,Y pos of 4 corners*
0 Add a 4 corners polygon primitive as box body*
4,1,4,$2,$3,$4,$5,$6,$7,$8,$9,$2,$3,0*
0 Add four circle primitives for the rounded corners*
1,1,$1+$1,$2,$3*
1,1,$1+$1,$4,$5*
1,1,$1+$1,$6,$7*
1,1,$1+$1,$8,$9*
0 Add four rect primitives between the rounded corners*
20,1,$1+$1,$2,$3,$4,$5,0*
20,1,$1+$1,$4,$5,$6,$7,0*
20,1,$1+$1,$6,$7,$8,$9,0*
20,1,$1+$1,$8,$9,$2,$3,0*%
G04 Aperture macros list end*
%TA.AperFunction,ComponentPad*%
%ADD10O,1.600000X2.000000*%
%TD*%
%TA.AperFunction,ComponentPad*%
%ADD11R,1.700000X1.700000*%
%TD*%
%TA.AperFunction,ComponentPad*%
%ADD12C,1.700000*%
%TD*%
%TA.AperFunction,SMDPad,CuDef*%
%ADD13RoundRect,0.152400X1.063600X0.609600X-1.063600X0.609600X-1.063600X-0.609600X1.063600X-0.609600X0*%
%TD*%
%TA.AperFunction,ComponentPad*%
%ADD14C,1.524000*%
%TD*%
%TA.AperFunction,SMDPad,CuDef*%
%ADD15RoundRect,0.152400X-1.063600X-0.609600X1.063600X-0.609600X1.063600X0.609600X-1.063600X0.609600X0*%
%TD*%
%TA.AperFunction,SMDPad,CuDef*%
%ADD16RoundRect,0.250001X-0.462499X-0.624999X0.462499X-0.624999X0.462499X0.624999X-0.462499X0.624999X0*%
%TD*%
%TA.AperFunction,SMDPad,CuDef*%
%ADD17RoundRect,0.250000X-0.400000X-0.625000X0.400000X-0.625000X0.400000X0.625000X-0.400000X0.625000X0*%
%TD*%
%TA.AperFunction,SMDPad,CuDef*%
%ADD18RoundRect,0.150000X0.512500X0.150000X-0.512500X0.150000X-0.512500X-0.150000X0.512500X-0.150000X0*%
%TD*%
%TA.AperFunction,SMDPad,CuDef*%
%ADD19RoundRect,0.250000X0.785000X0.945000X-0.785000X0.945000X-0.785000X-0.945000X0.785000X-0.945000X0*%
%TD*%
%TA.AperFunction,SMDPad,CuDef*%
%ADD20RoundRect,0.250000X0.400000X0.625000X-0.400000X0.625000X-0.400000X-0.625000X0.400000X-0.625000X0*%
%TD*%
%TA.AperFunction,SMDPad,CuDef*%
%ADD21RoundRect,0.375000X-0.625000X-0.375000X0.625000X-0.375000X0.625000X0.375000X-0.625000X0.375000X0*%
%TD*%
%TA.AperFunction,SMDPad,CuDef*%
%ADD22RoundRect,0.500000X-0.500000X-1.400000X0.500000X-1.400000X0.500000X1.400000X-0.500000X1.400000X0*%
%TD*%
%TA.AperFunction,ComponentPad*%
%ADD23C,2.000000*%
%TD*%
%TA.AperFunction,ComponentPad*%
%ADD24R,2.000000X2.000000*%
%TD*%
%TA.AperFunction,ComponentPad*%
%ADD25RoundRect,0.250000X-1.050000X-1.050000X1.050000X-1.050000X1.050000X1.050000X-1.050000X1.050000X0*%
%TD*%
%TA.AperFunction,ComponentPad*%
%ADD26C,2.600000*%
%TD*%
%TA.AperFunction,ComponentPad*%
%ADD27R,3.500000X3.500000*%
%TD*%
%TA.AperFunction,ComponentPad*%
%ADD28RoundRect,0.750000X-1.000000X0.750000X-1.000000X-0.750000X1.000000X-0.750000X1.000000X0.750000X0*%
%TD*%
%TA.AperFunction,ComponentPad*%
%ADD29RoundRect,0.875000X-0.875000X0.875000X-0.875000X-0.875000X0.875000X-0.875000X0.875000X0.875000X0*%
%TD*%
%TA.AperFunction,Conductor*%
%ADD30C,0.200000*%
%TD*%
%TA.AperFunction,Conductor*%
%ADD31C,2.000000*%
%TD*%
G04 APERTURE END LIST*
D10*
%TO.P,Brd1,1,GND*%
%TO.N,GND*%
X12776200Y-10718800D03*
%TO.P,Brd1,2,VCC*%
%TO.N,VCC*%
X13030200Y-10718800D03*
%TO.P,Brd1,3,SCL*%
%TO.N,/SCL*%
X13284200Y-10718800D03*
%TO.P,Brd1,4,SDA*%
%TO.N,/SDA*%
X13538200Y-10718800D03*
%TD*%
D11*
%TO.P,RFID1,1,SDA*%
%TO.N,/CS*%
X16078200Y-10617200D03*
D12*
%TO.P,RFID1,2,SCK*%
%TO.N,/SCK*%
X16078200Y-10871200D03*
%TO.P,RFID1,3,MOSI*%
%TO.N,/MOSI*%
X16078200Y-11125200D03*
%TO.P,RFID1,4,MISO*%
%TO.N,/MISO*%
X16078200Y-11379200D03*
%TO.P,RFID1,5,IRQ*%
%TO.N,unconnected-(RFID1-IRQ-Pad5)*%
X16078200Y-11633200D03*
%TO.P,RFID1,6,GND*%
%TO.N,GND*%
X16078200Y-11887200D03*
%TO.P,RFID1,7,RST*%
%TO.N,unconnected-(RFID1-RST-Pad7)*%
X16078200Y-12141200D03*
%TO.P,RFID1,8,3\u002C3V*%
%TO.N,VCC*%
X16078200Y-12395200D03*
%TD*%
D13*
%TO.P,U1,1,GPIO0/A0/D0*%
%TO.N,/LED*%
X13302300Y-13690600D03*
D14*
X13385800Y-13690600D03*
D13*
%TO.P,U1,2,GPIO1/A1/D1*%
%TO.N,/Detect*%
X13302300Y-13436600D03*
D14*
X13385800Y-13436600D03*
D13*
%TO.P,U1,3,GPIO2/A2/D2*%
%TO.N,Net-(U1-GPIO2{slash}A2{slash}D2)*%
X13302300Y-13182600D03*
D14*
X13385800Y-13182600D03*
D13*
%TO.P,U1,4,GPIO21/D3*%
%TO.N,Net-(U1-GPIO21{slash}D3)*%
X13302300Y-12928600D03*
D14*
X13385800Y-12928600D03*
D13*
%TO.P,U1,5,GPIO22/D4/SDA*%
%TO.N,/SDA*%
X13302300Y-12674600D03*
D14*
X13385800Y-12674600D03*
D13*
%TO.P,U1,6,GPIO23/D5/SCL*%
%TO.N,/SCL*%
X13302300Y-12420600D03*
D14*
X13385800Y-12420600D03*
D13*
%TO.P,U1,7,GPIO16/D6/TX*%
%TO.N,unconnected-(U1-GPIO16{slash}D6{slash}TX-Pad7)*%
X13302300Y-12166600D03*
D14*
X13385800Y-12166600D03*
%TO.P,U1,8,GPIO17/D7/RX*%
%TO.N,/CS*%
X14909800Y-12166600D03*
D15*
X14993300Y-12166600D03*
D14*
%TO.P,U1,9,GPIO19/D8/SCK*%
%TO.N,/SCK*%
X14909800Y-12420600D03*
D15*
X14993300Y-12420600D03*
D14*
%TO.P,U1,10,GPIO20/D9/MISO*%
%TO.N,/MISO*%
X14909800Y-12674600D03*
D15*
X14993300Y-12674600D03*
D14*
%TO.P,U1,11,GPIO18/D10/MOSI*%
%TO.N,/MOSI*%
X14909800Y-12928600D03*
D15*
X14993300Y-12928600D03*
D14*
%TO.P,U1,12,3V3*%
%TO.N,VCC*%
X14909800Y-13182600D03*
D15*
X14993300Y-13182600D03*
D14*
%TO.P,U1,13,GND*%
%TO.N,GND*%
X14909800Y-13436600D03*
D15*
X14993300Y-13436600D03*
D14*
%TO.P,U1,14,VBUS*%
%TO.N,VDD*%
X14909800Y-13690600D03*
D15*
X14993300Y-13690600D03*
%TD*%
D16*
%TO.P,D4,1,K*%
%TO.N,/Detect*%
X12176500Y-11099800D03*
%TO.P,D4,2,A*%
%TO.N,Net-(D4-A)*%
X12474000Y-11099800D03*
%TD*%
%TO.P,D2,1,K*%
%TO.N,/Lock*%
X12176500Y-11480800D03*
%TO.P,D2,2,A*%
%TO.N,Net-(D2-A)*%
X12474000Y-11480800D03*
%TD*%
D17*
%TO.P,R3,1*%
%TO.N,Net-(D3-A)*%
X12748200Y-11861800D03*
%TO.P,R3,2*%
%TO.N,VCC*%
X13058200Y-11861800D03*
%TD*%
D16*
%TO.P,D3,1,K*%
%TO.N,Net-(D3-K)*%
X12176500Y-11861800D03*
%TO.P,D3,2,A*%
%TO.N,Net-(D3-A)*%
X12474000Y-11861800D03*
%TD*%
D18*
%TO.P,Q1,1,C*%
%TO.N,/Lock*%
X11912600Y-12274800D03*
%TO.P,Q1,2,B*%
%TO.N,Net-(Q1-B)*%
X11912600Y-12464800D03*
%TO.P,Q1,3,E*%
%TO.N,GND*%
X11685100Y-12369800D03*
%TD*%
D19*
%TO.P,C1,1*%
%TO.N,+12V*%
X10838800Y-10922000D03*
%TO.P,C1,2*%
%TO.N,GND*%
X10344800Y-10922000D03*
%TD*%
D20*
%TO.P,R2,1*%
%TO.N,Net-(U1-GPIO2{slash}A2{slash}D2)*%
X12674600Y-12877800D03*
%TO.P,R2,2*%
%TO.N,Net-(Q2-B)*%
X12364600Y-12877800D03*
%TD*%
%TO.P,R1,1*%
%TO.N,Net-(U1-GPIO21{slash}D3)*%
X12677200Y-12395200D03*
%TO.P,R1,2*%
%TO.N,Net-(Q1-B)*%
X12367200Y-12395200D03*
%TD*%
D21*
%TO.P,U2,1,GND*%
%TO.N,GND*%
X11155600Y-11380600D03*
%TO.P,U2,2,VO*%
%TO.N,VDD*%
X11155600Y-11150600D03*
D22*
X11785600Y-11150600D03*
D21*
%TO.P,U2,3,VI*%
%TO.N,+12V*%
X11155600Y-10920600D03*
%TD*%
D17*
%TO.P,R4,1*%
%TO.N,Net-(D2-A)*%
X12748200Y-11480800D03*
%TO.P,R4,2*%
%TO.N,VCC*%
X13058200Y-11480800D03*
%TD*%
D23*
%TO.P,K1,11*%
%TO.N,Net-(J2-Pin_1)*%
X8601750Y-12115550D03*
%TO.P,K1,12*%
%TO.N,Net-(J2-Pin_3)*%
X8951750Y-12865550D03*
%TO.P,K1,14*%
%TO.N,Net-(J2-Pin_2)*%
X8251750Y-12865550D03*
D24*
%TO.P,K1,A1*%
%TO.N,VDD*%
X10601750Y-12865550D03*
D23*
%TO.P,K1,A2*%
%TO.N,Net-(D3-K)*%
X10601750Y-12115550D03*
%TD*%
D17*
%TO.P,R5,1*%
%TO.N,Net-(D4-A)*%
X12748200Y-11099800D03*
%TO.P,R5,2*%
%TO.N,VCC*%
X13058200Y-11099800D03*
%TD*%
D25*
%TO.P,J1,1,Pin_1*%
%TO.N,VDD*%
X12471400Y-9499600D03*
D26*
%TO.P,J1,2,Pin_2*%
%TO.N,VCC*%
X12979400Y-9499600D03*
%TO.P,J1,3,Pin_3*%
%TO.N,/Lock*%
X13487400Y-9499600D03*
%TO.P,J1,4,Pin_4*%
%TO.N,/Detect*%
X13995400Y-9499600D03*
%TO.P,J1,5,Pin_5*%
%TO.N,GND*%
X14503400Y-9499600D03*
%TO.P,J1,6,Pin_6*%
X15011400Y-9499600D03*
%TD*%
D25*
%TO.P,J2,1,Pin_1*%
%TO.N,Net-(J2-Pin_1)*%
X8585200Y-9525000D03*
D26*
%TO.P,J2,2,Pin_2*%
%TO.N,Net-(J2-Pin_2)*%
X9093200Y-9525000D03*
%TO.P,J2,3,Pin_3*%
%TO.N,Net-(J2-Pin_3)*%
X9601200Y-9525000D03*
%TD*%
D19*
%TO.P,C2,1*%
%TO.N,VDD*%
X10836300Y-11328400D03*
%TO.P,C2,2*%
%TO.N,GND*%
X10342300Y-11328400D03*
%TD*%
D27*
%TO.P,J3,1,In*%
%TO.N,+12V*%
X11080250Y-10388600D03*
D28*
%TO.P,J3,2,Ext*%
%TO.N,GND*%
X11080250Y-9788600D03*
D29*
%TO.P,J3,3*%
%TO.N,N/C*%
X11550250Y-10088600D03*
%TD*%
D18*
%TO.P,Q2,1,C*%
%TO.N,Net-(D3-K)*%
X11911200Y-12764000D03*
%TO.P,Q2,2,B*%
%TO.N,Net-(Q2-B)*%
X11911200Y-12954000D03*
%TO.P,Q2,3,E*%
%TO.N,GND*%
X11683700Y-12859000D03*
%TD*%
D30*
%TO.N,VCC*%
X12979400Y-10668000D02*
X13030200Y-10718800D01*
X13058200Y-10746800D02*
X13030200Y-10718800D01*
X13058200Y-11099800D02*
X13058200Y-10746800D01*
X13058200Y-11099800D02*
X13058200Y-11861800D01*
%TO.N,/SCL*%
X13487400Y-12420600D02*
X13563600Y-12344400D01*
X13563600Y-12344400D02*
X13563600Y-11049000D01*
X13302300Y-12420600D02*
X13487400Y-12420600D01*
X13284200Y-10769600D02*
X13284200Y-10718800D01*
X13563600Y-11049000D02*
X13284200Y-10769600D01*
%TO.N,/SDA*%
X13639800Y-10820400D02*
X13639800Y-12573000D01*
X13538200Y-10718800D02*
X13639800Y-10820400D01*
X13538200Y-12674600D02*
X13385800Y-12674600D01*
X13639800Y-12573000D02*
X13538200Y-12674600D01*
%TO.N,/Lock*%
X11963400Y-11404600D02*
X11963400Y-12224000D01*
X11963400Y-11480800D02*
X12176500Y-11480800D01*
X11963400Y-12224000D02*
X11912600Y-12274800D01*
X13233400Y-9753600D02*
X12211490Y-9753600D01*
X12211490Y-9753600D02*
X11963400Y-10001690D01*
X11963400Y-10001690D02*
X11963400Y-11404600D01*
X11963400Y-11404600D02*
X11963400Y-11480800D01*
X13487400Y-9499600D02*
X13233400Y-9753600D01*
%TO.N,Net-(Q1-B)*%
X11912600Y-12464800D02*
X12097000Y-12464800D01*
X12166600Y-12395200D02*
X12341800Y-12395200D01*
X12097000Y-12464800D02*
X12166600Y-12395200D01*
%TO.N,Net-(Q2-B)*%
X12141200Y-12877800D02*
X12364600Y-12877800D01*
X12065000Y-12954000D02*
X12141200Y-12877800D01*
X11911200Y-12954000D02*
X12065000Y-12954000D01*
%TO.N,Net-(U1-GPIO21{slash}D3)*%
X13004800Y-12471400D02*
X12928600Y-12395200D01*
X13106400Y-12928600D02*
X13004800Y-12827000D01*
X12928600Y-12395200D02*
X12651800Y-12395200D01*
X13004800Y-12827000D02*
X13004800Y-12471400D01*
X13302300Y-12928600D02*
X13106400Y-12928600D01*
%TO.N,Net-(U1-GPIO2{slash}A2{slash}D2)*%
X13302300Y-13182600D02*
X13302300Y-13175300D01*
X12674600Y-13055600D02*
X12674600Y-12877800D01*
X12801600Y-13182600D02*
X12674600Y-13055600D01*
X13233400Y-13208000D02*
X13208000Y-13182600D01*
X13208000Y-13182600D02*
X12801600Y-13182600D01*
X13302300Y-13182600D02*
X13258800Y-13182600D01*
X13258800Y-13182600D02*
X13233400Y-13208000D01*
D31*
%TO.N,Net-(J2-Pin_2)*%
X9093200Y-12192000D02*
X8419650Y-12865550D01*
X8419650Y-12865550D02*
X8251750Y-12865550D01*
X9093200Y-9601200D02*
X9093200Y-12192000D01*
%TO.N,Net-(J2-Pin_1)*%
X8585200Y-12099000D02*
X8601750Y-12115550D01*
X8585200Y-9601200D02*
X8585200Y-12099000D01*
%TO.N,Net-(J2-Pin_3)*%
X9601200Y-9601200D02*
X9601200Y-12216100D01*
X9601200Y-12216100D02*
X8951750Y-12865550D01*
D30*
%TO.N,+12V*%
X11080250Y-10845250D02*
X11155600Y-10920600D01*
X10840200Y-10920600D02*
X10838800Y-10922000D01*
X11155600Y-10920600D02*
X10840200Y-10920600D01*
X11080250Y-10388600D02*
X11080250Y-10845250D01*
X10945550Y-10998200D02*
X10815750Y-10998200D01*
%TO.N,Net-(D2-A)*%
X12474000Y-11480800D02*
X12748200Y-11480800D01*
%TO.N,Net-(D3-K)*%
X11785600Y-12700000D02*
X11849600Y-12764000D01*
X11911200Y-12774800D02*
X11912600Y-12776200D01*
X11785600Y-12573000D02*
X11785600Y-12700000D01*
X11785600Y-12573000D02*
X10693400Y-12573000D01*
X12176500Y-12283700D02*
X12090400Y-12369800D01*
X11849600Y-12764000D02*
X11911200Y-12764000D01*
X11785600Y-12446000D02*
X11785600Y-12573000D01*
X10693400Y-12573000D02*
X10601750Y-12481350D01*
X12176500Y-11861800D02*
X12176500Y-12283700D01*
X10601750Y-12481350D02*
X10601750Y-12115550D01*
X12090400Y-12369800D02*
X11861800Y-12369800D01*
X11861800Y-12369800D02*
X11785600Y-12446000D01*
%TO.N,/CS*%
X16027400Y-10617200D02*
X16078200Y-10617200D01*
X15951200Y-10693400D02*
X16027400Y-10617200D01*
X15214600Y-12115800D02*
X15214600Y-11150600D01*
X15392400Y-10972800D02*
X15900400Y-10972800D01*
X15951200Y-10922000D02*
X15951200Y-10693400D01*
X14993300Y-12166600D02*
X15163800Y-12166600D01*
X15163800Y-12166600D02*
X15214600Y-12115800D01*
X15900400Y-10972800D02*
X15951200Y-10922000D01*
X15214600Y-11150600D02*
X15392400Y-10972800D01*
%TO.N,/MOSI*%
X15443200Y-12827000D02*
X15341600Y-12928600D01*
X15341600Y-12928600D02*
X14993300Y-12928600D01*
X16078200Y-11125200D02*
X15544800Y-11125200D01*
X15544800Y-11125200D02*
X15443200Y-11226800D01*
X15443200Y-11226800D02*
X15443200Y-12827000D01*
%TO.N,/SCK*%
X15290800Y-12344400D02*
X15214600Y-12420600D01*
X16078200Y-10871200D02*
X15925800Y-11023600D01*
X15214600Y-12420600D02*
X14993300Y-12420600D01*
X15290800Y-11176000D02*
X15290800Y-12344400D01*
X15443200Y-11023600D02*
X15290800Y-11176000D01*
X15925800Y-11023600D02*
X15443200Y-11023600D01*
%TO.N,/MISO*%
X16193300Y-11264100D02*
X16193300Y-11077524D01*
X15290800Y-12674600D02*
X14993300Y-12674600D01*
X16030524Y-11010100D02*
X15966224Y-11074400D01*
X15494000Y-11074400D02*
X15367000Y-11201400D01*
X16078200Y-11379200D02*
X16193300Y-11264100D01*
X16125876Y-11010100D02*
X16030524Y-11010100D01*
X15966224Y-11074400D02*
X15494000Y-11074400D01*
X15367000Y-12598400D02*
X15290800Y-12674600D01*
X16193300Y-11077524D02*
X16125876Y-11010100D01*
X15367000Y-11201400D02*
X15367000Y-12598400D01*
%TO.N,VDD*%
X10988700Y-11176000D02*
X10998200Y-11176000D01*
X11785600Y-11125200D02*
X11912600Y-10998200D01*
X11785600Y-11150600D02*
X11785600Y-11125200D01*
X10471650Y-11693050D02*
X10836300Y-11328400D01*
X12395200Y-9499600D02*
X12471400Y-9499600D01*
X11912600Y-9982200D02*
X12395200Y-9499600D01*
X11912600Y-10998200D02*
X11912600Y-9982200D01*
X10998200Y-11176000D02*
X11023600Y-11150600D01*
X10601750Y-12865550D02*
X10471650Y-12735450D01*
X11023600Y-11150600D02*
X11155600Y-11150600D01*
X10471650Y-12735450D02*
X10471650Y-11693050D01*
X10836300Y-11328400D02*
X10988700Y-11176000D01*
X11155600Y-11150600D02*
X11785600Y-11150600D01*
%TO.N,Net-(D3-A)*%
X12474000Y-11861800D02*
X12748200Y-11861800D01*
%TO.N,Net-(D4-A)*%
X12474000Y-11099800D02*
X12748200Y-11099800D01*
%TO.N,/Detect*%
X12014200Y-10033000D02*
X12014200Y-11023600D01*
X12014200Y-11023600D02*
X12090400Y-11099800D01*
X13995400Y-9728200D02*
X13919200Y-9804400D01*
X13995400Y-9499600D02*
X13995400Y-9728200D01*
X13385800Y-13436600D02*
X13302300Y-13436600D01*
X12090400Y-11099800D02*
X12176500Y-11099800D01*
X13919200Y-9804400D02*
X12242800Y-9804400D01*
X12242800Y-9804400D02*
X12014200Y-10033000D01*
%TD*%
%TA.AperFunction,Conductor*%
%TO.N,GND*%
G36*
X11629854Y-11212618D02*
G01*
X11634429Y-11217899D01*
X11635550Y-11223050D01*
X11635550Y-11296403D01*
X11636611Y-11308341D01*
X11642209Y-11327904D01*
X11642209Y-11327905D01*
X11642209Y-11327905D01*
X11651630Y-11345941D01*
X11654792Y-11349818D01*
X11664489Y-11361711D01*
X11667850Y-11364451D01*
X11680259Y-11374570D01*
X11698295Y-11383991D01*
X11717858Y-11389589D01*
X11729796Y-11390650D01*
X11841404Y-11390650D01*
X11853342Y-11389589D01*
X11872905Y-11383991D01*
X11885209Y-11377564D01*
X11892062Y-11376205D01*
X11898563Y-11378767D01*
X11902646Y-11384436D01*
X11903350Y-11388555D01*
X11903350Y-12182350D01*
X11901381Y-12189054D01*
X11896101Y-12193629D01*
X11890950Y-12194750D01*
X11854780Y-12194750D01*
X11851093Y-12195040D01*
X11851093Y-12195040D01*
X11835311Y-12199625D01*
X11835310Y-12199625D01*
X11821164Y-12207992D01*
X11821163Y-12207992D01*
X11809542Y-12219613D01*
X11809542Y-12219614D01*
X11801175Y-12233760D01*
X11801175Y-12233761D01*
X11796590Y-12249543D01*
X11796590Y-12249543D01*
X11796300Y-12253230D01*
X11796300Y-12293074D01*
X11794331Y-12299778D01*
X11789051Y-12304354D01*
X11782135Y-12305348D01*
X11777264Y-12303281D01*
X11777177Y-12303429D01*
X11762370Y-12294672D01*
X11762369Y-12294672D01*
X11746599Y-12290090D01*
X11746599Y-12290090D01*
X11742915Y-12289800D01*
X11710100Y-12289800D01*
X11710100Y-12449800D01*
X11713150Y-12449800D01*
X11719854Y-12451768D01*
X11724429Y-12457049D01*
X11725550Y-12462200D01*
X11725550Y-12500550D01*
X11723581Y-12507254D01*
X11718301Y-12511829D01*
X11713150Y-12512950D01*
X10723410Y-12512950D01*
X10716706Y-12510981D01*
X10714642Y-12509318D01*
X10665432Y-12460108D01*
X10662083Y-12453976D01*
X10661800Y-12451340D01*
X10661800Y-12394800D01*
X11569120Y-12394800D01*
X11569140Y-12395049D01*
X11573722Y-12410820D01*
X11582081Y-12424955D01*
X11582082Y-12424956D01*
X11593694Y-12436568D01*
X11593695Y-12436568D01*
X11607830Y-12444928D01*
X11607831Y-12444928D01*
X11623600Y-12449510D01*
X11623601Y-12449510D01*
X11627285Y-12449800D01*
X11627287Y-12449800D01*
X11660100Y-12449800D01*
X11660100Y-12394800D01*
X11569120Y-12394800D01*
X11569120Y-12394800D01*
X10661800Y-12394800D01*
X10661800Y-12344800D01*
X11569120Y-12344800D01*
X11569120Y-12344800D01*
X11660100Y-12344800D01*
X11660100Y-12289800D01*
X11627285Y-12289800D01*
X11623601Y-12290090D01*
X11623600Y-12290090D01*
X11607831Y-12294672D01*
X11607830Y-12294672D01*
X11593695Y-12303031D01*
X11593694Y-12303032D01*
X11582082Y-12314644D01*
X11582081Y-12314645D01*
X11573722Y-12328780D01*
X11569140Y-12344551D01*
X11569120Y-12344800D01*
X10661800Y-12344800D01*
X10661800Y-12260957D01*
X10663769Y-12254253D01*
X10668571Y-12249908D01*
X10680393Y-12243884D01*
X10699501Y-12230002D01*
X10716202Y-12213301D01*
X10730084Y-12194193D01*
X10740807Y-12173149D01*
X10748105Y-12150687D01*
X10750267Y-12137036D01*
X10751800Y-12127360D01*
X10751800Y-12103740D01*
X10748105Y-12080413D01*
X10742532Y-12063260D01*
X10740807Y-12057951D01*
X10740807Y-12057950D01*
X10740807Y-12057950D01*
X10734332Y-12045243D01*
X10730084Y-12036907D01*
X10716202Y-12017799D01*
X10699501Y-12001098D01*
X10680393Y-11987216D01*
X10673240Y-11983571D01*
X10659350Y-11976493D01*
X10636887Y-11969195D01*
X10613560Y-11965500D01*
X10613559Y-11965500D01*
X10589941Y-11965500D01*
X10589940Y-11965500D01*
X10566613Y-11969195D01*
X10566613Y-11969195D01*
X10547932Y-11975265D01*
X10540948Y-11975464D01*
X10534964Y-11971856D01*
X10531882Y-11965586D01*
X10531700Y-11963471D01*
X10531700Y-11723060D01*
X10533669Y-11716356D01*
X10535331Y-11714292D01*
X10748042Y-11501582D01*
X10754174Y-11498233D01*
X10756809Y-11497950D01*
X10919801Y-11497950D01*
X10930080Y-11496900D01*
X10946733Y-11491381D01*
X10961666Y-11482171D01*
X10974071Y-11469766D01*
X10983281Y-11454833D01*
X10986258Y-11445851D01*
X10990235Y-11440106D01*
X10996687Y-11437424D01*
X11003564Y-11438656D01*
X11008684Y-11443410D01*
X11010062Y-11446759D01*
X11010483Y-11448451D01*
X11010483Y-11448452D01*
X11018939Y-11465502D01*
X11018939Y-11465502D01*
X11030863Y-11480337D01*
X11030863Y-11480337D01*
X11045697Y-11492261D01*
X11045698Y-11492261D01*
X11062748Y-11500717D01*
X11081218Y-11505310D01*
X11085490Y-11505600D01*
X11130600Y-11505600D01*
X11180600Y-11505600D01*
X11225710Y-11505600D01*
X11229982Y-11505310D01*
X11248452Y-11500717D01*
X11265502Y-11492261D01*
X11265502Y-11492261D01*
X11280337Y-11480337D01*
X11280337Y-11480337D01*
X11292261Y-11465502D01*
X11292261Y-11465502D01*
X11300717Y-11448452D01*
X11305310Y-11429982D01*
X11305600Y-11425710D01*
X11305600Y-11405600D01*
X11180600Y-11405600D01*
X11180600Y-11505600D01*
X11130600Y-11505600D01*
X11130600Y-11393000D01*
X11132569Y-11386296D01*
X11137849Y-11381721D01*
X11143000Y-11380600D01*
X11155600Y-11380600D01*
X11155600Y-11368000D01*
X11157569Y-11361296D01*
X11162849Y-11356721D01*
X11168000Y-11355600D01*
X11305600Y-11355600D01*
X11305600Y-11335490D01*
X11305310Y-11331217D01*
X11300717Y-11312748D01*
X11292261Y-11295698D01*
X11292261Y-11295697D01*
X11280337Y-11280863D01*
X11280337Y-11280863D01*
X11273411Y-11275297D01*
X11269420Y-11269562D01*
X11269162Y-11262580D01*
X11272719Y-11256567D01*
X11273409Y-11255969D01*
X11280372Y-11250372D01*
X11292303Y-11235530D01*
X11300764Y-11218469D01*
X11301063Y-11217867D01*
X11301253Y-11217962D01*
X11304813Y-11213159D01*
X11311348Y-11210686D01*
X11312292Y-11210650D01*
X11623150Y-11210650D01*
X11629854Y-11212618D01*
G37*
%TD.AperFunction*%
%TA.AperFunction,Conductor*%
G36*
X22879704Y-9052019D02*
G01*
X22884279Y-9057299D01*
X22885400Y-9062450D01*
X22885400Y-9225813D01*
X22883431Y-9232517D01*
X22878151Y-9237092D01*
X22871235Y-9238087D01*
X22864880Y-9235184D01*
X22863415Y-9233679D01*
X22843570Y-9209499D01*
X22818844Y-9184773D01*
X22791813Y-9162589D01*
X22791813Y-9162589D01*
X22791812Y-9162589D01*
X22762737Y-9143161D01*
X22762736Y-9143160D01*
X22762735Y-9143160D01*
X22731897Y-9126677D01*
X22731897Y-9126676D01*
X22699589Y-9113294D01*
X22666125Y-9103143D01*
X22666124Y-9103143D01*
X22631829Y-9096321D01*
X22631828Y-9096321D01*
X22605511Y-9093729D01*
X22597028Y-9092894D01*
X22562059Y-9092894D01*
X22554213Y-9093666D01*
X22527259Y-9096321D01*
X22527257Y-9096321D01*
X22492963Y-9103143D01*
X22492962Y-9103143D01*
X22459497Y-9113294D01*
X22427190Y-9126676D01*
X22427190Y-9126677D01*
X22396351Y-9143160D01*
X22396350Y-9143161D01*
X22367275Y-9162588D01*
X22367274Y-9162589D01*
X22340243Y-9184773D01*
X22315517Y-9209499D01*
X22293332Y-9236531D01*
X22293331Y-9236532D01*
X22273905Y-9265606D01*
X22273904Y-9265608D01*
X22257420Y-9296446D01*
X22257420Y-9296447D01*
X22244038Y-9328754D01*
X22233886Y-9362218D01*
X22233886Y-9362220D01*
X22227065Y-9396514D01*
X22227064Y-9396516D01*
X22224772Y-9419795D01*
X22223637Y-9431315D01*
X22223637Y-9434457D01*
X22223637Y-9466285D01*
X22224667Y-9476746D01*
X22227064Y-9501084D01*
X22227065Y-9501086D01*
X22233886Y-9535380D01*
X22233886Y-9535382D01*
X22244038Y-9568846D01*
X22248402Y-9579383D01*
X22255628Y-9596828D01*
X22257420Y-9601153D01*
X22257420Y-9601154D01*
X22273904Y-9631992D01*
X22273905Y-9631994D01*
X22293331Y-9661068D01*
X22293332Y-9661069D01*
X22315517Y-9688101D01*
X22340243Y-9712827D01*
X22340243Y-9712827D01*
X22340243Y-9712827D01*
X22367275Y-9735012D01*
X22396350Y-9754439D01*
X22396351Y-9754440D01*
X22396351Y-9754440D01*
X22427190Y-9770923D01*
X22427190Y-9770923D01*
X22427190Y-9770924D01*
X22459498Y-9784306D01*
X22492961Y-9794457D01*
X22492962Y-9794457D01*
X22492962Y-9794457D01*
X22492963Y-9794457D01*
X22514469Y-9798735D01*
X22527258Y-9801279D01*
X22562059Y-9804707D01*
X22562059Y-9804707D01*
X22597028Y-9804707D01*
X22597028Y-9804707D01*
X22631829Y-9801279D01*
X22648805Y-9797902D01*
X22666124Y-9794457D01*
X22666125Y-9794457D01*
X22666125Y-9794457D01*
X22666126Y-9794457D01*
X22699589Y-9784306D01*
X22731897Y-9770924D01*
X22762737Y-9754439D01*
X22791812Y-9735012D01*
X22818844Y-9712827D01*
X22843571Y-9688100D01*
X22863415Y-9663920D01*
X22869189Y-9659987D01*
X22876174Y-9659800D01*
X22882150Y-9663419D01*
X22885222Y-9669694D01*
X22885400Y-9671787D01*
X22885400Y-13340613D01*
X22883431Y-13347317D01*
X22878151Y-13351892D01*
X22871235Y-13352887D01*
X22864880Y-13349984D01*
X22863415Y-13348479D01*
X22843570Y-13324299D01*
X22818844Y-13299573D01*
X22791813Y-13277389D01*
X22791813Y-13277389D01*
X22791812Y-13277388D01*
X22762737Y-13257961D01*
X22762736Y-13257960D01*
X22762735Y-13257960D01*
X22731897Y-13241477D01*
X22731897Y-13241476D01*
X22699589Y-13228094D01*
X22666125Y-13217943D01*
X22666124Y-13217943D01*
X22631829Y-13211121D01*
X22631828Y-13211121D01*
X22605511Y-13208529D01*
X22597028Y-13207693D01*
X22562059Y-13207693D01*
X22554213Y-13208466D01*
X22527259Y-13211121D01*
X22527257Y-13211121D01*
X22492963Y-13217943D01*
X22492962Y-13217943D01*
X22459497Y-13228094D01*
X22427190Y-13241476D01*
X22427190Y-13241477D01*
X22396351Y-13257960D01*
X22396350Y-13257961D01*
X22367275Y-13277388D01*
X22367274Y-13277389D01*
X22340243Y-13299573D01*
X22315517Y-13324299D01*
X22293332Y-13351330D01*
X22293331Y-13351332D01*
X22273905Y-13380406D01*
X22273904Y-13380408D01*
X22257420Y-13411246D01*
X22257420Y-13411247D01*
X22244038Y-13443554D01*
X22233886Y-13477018D01*
X22233886Y-13477019D01*
X22227065Y-13511314D01*
X22227064Y-13511316D01*
X22223637Y-13546116D01*
X22223637Y-13581084D01*
X22227064Y-13615884D01*
X22227065Y-13615886D01*
X22233886Y-13650180D01*
X22233886Y-13650181D01*
X22244038Y-13683646D01*
X22253500Y-13706491D01*
X22255628Y-13711628D01*
X22257420Y-13715953D01*
X22257420Y-13715954D01*
X22273904Y-13746792D01*
X22273905Y-13746794D01*
X22293331Y-13775868D01*
X22293332Y-13775869D01*
X22315517Y-13802901D01*
X22340243Y-13827627D01*
X22340243Y-13827627D01*
X22340243Y-13827627D01*
X22367275Y-13849811D01*
X22396350Y-13869239D01*
X22396351Y-13869240D01*
X22396351Y-13869240D01*
X22427190Y-13885723D01*
X22427190Y-13885723D01*
X22427190Y-13885724D01*
X22459498Y-13899106D01*
X22492961Y-13909257D01*
X22492962Y-13909257D01*
X22492962Y-13909257D01*
X22492963Y-13909257D01*
X22514469Y-13913535D01*
X22527258Y-13916079D01*
X22562059Y-13919506D01*
X22562059Y-13919506D01*
X22597028Y-13919506D01*
X22597028Y-13919506D01*
X22631829Y-13916079D01*
X22648805Y-13912702D01*
X22666124Y-13909257D01*
X22666125Y-13909257D01*
X22666125Y-13909257D01*
X22666126Y-13909257D01*
X22699589Y-13899106D01*
X22731897Y-13885724D01*
X22762737Y-13869239D01*
X22791812Y-13849811D01*
X22818844Y-13827627D01*
X22843571Y-13802900D01*
X22863415Y-13778720D01*
X22869189Y-13774787D01*
X22876174Y-13774600D01*
X22882150Y-13778219D01*
X22885222Y-13784494D01*
X22885400Y-13786587D01*
X22885400Y-13937550D01*
X22883431Y-13944254D01*
X22878151Y-13948829D01*
X22873000Y-13949950D01*
X10172400Y-13949950D01*
X10165696Y-13947981D01*
X10161121Y-13942701D01*
X10160000Y-13937550D01*
X10160000Y-12743355D01*
X10411600Y-12743355D01*
X10415692Y-12758628D01*
X10416925Y-12760763D01*
X10423598Y-12772321D01*
X10423598Y-12772322D01*
X10435485Y-12784208D01*
X10435486Y-12784209D01*
X10448068Y-12796792D01*
X10451417Y-12802924D01*
X10451700Y-12805560D01*
X10451700Y-12970337D01*
X10451700Y-12970338D01*
X10452341Y-12976298D01*
X10457370Y-12989783D01*
X10457371Y-12989783D01*
X10465995Y-13001304D01*
X10465996Y-13001305D01*
X10477516Y-13009929D01*
X10477517Y-13009930D01*
X10491002Y-13014959D01*
X10491002Y-13014959D01*
X10491694Y-13015033D01*
X10496963Y-13015600D01*
X10706537Y-13015600D01*
X10712498Y-13014959D01*
X10725983Y-13009930D01*
X10737505Y-13001305D01*
X10746130Y-12989783D01*
X10751159Y-12976298D01*
X10751800Y-12970337D01*
X10751800Y-12884000D01*
X11567720Y-12884000D01*
X11567740Y-12884249D01*
X11572322Y-12900020D01*
X11580681Y-12914155D01*
X11580682Y-12914156D01*
X11592294Y-12925768D01*
X11592295Y-12925768D01*
X11606430Y-12934128D01*
X11606431Y-12934128D01*
X11622200Y-12938710D01*
X11622201Y-12938710D01*
X11625885Y-12939000D01*
X11625887Y-12939000D01*
X11658700Y-12939000D01*
X11658700Y-12884000D01*
X11708700Y-12884000D01*
X11708700Y-12939000D01*
X11741513Y-12939000D01*
X11741515Y-12939000D01*
X11745199Y-12938710D01*
X11745199Y-12938710D01*
X11760969Y-12934128D01*
X11760970Y-12934128D01*
X11775777Y-12925371D01*
X11775879Y-12925543D01*
X11781403Y-12923374D01*
X11788254Y-12924742D01*
X11793279Y-12929597D01*
X11794900Y-12935726D01*
X11794900Y-12975570D01*
X11795190Y-12979257D01*
X11795190Y-12979257D01*
X11799775Y-12995039D01*
X11799775Y-12995040D01*
X11808142Y-13009186D01*
X11808142Y-13009187D01*
X11819763Y-13020808D01*
X11819763Y-13020808D01*
X11819763Y-13020808D01*
X11833910Y-13029174D01*
X11836388Y-13029894D01*
X11849693Y-13033760D01*
X11849693Y-13033760D01*
X11849693Y-13033760D01*
X11853381Y-13034050D01*
X11853381Y-13034050D01*
X11969019Y-13034050D01*
X11969019Y-13034050D01*
X11972707Y-13033760D01*
X11972707Y-13033760D01*
X11972707Y-13033760D01*
X11981347Y-13031249D01*
X11988490Y-13029174D01*
X12002636Y-13020808D01*
X12005763Y-13017682D01*
X12011895Y-13014333D01*
X12014531Y-13014050D01*
X12056333Y-13014050D01*
X12056335Y-13014050D01*
X12057094Y-13014050D01*
X12072905Y-13014050D01*
X12072906Y-13014050D01*
X12088178Y-13009958D01*
X12093190Y-13007064D01*
X12101872Y-13002052D01*
X12113052Y-12990872D01*
X12113052Y-12990871D01*
X12162442Y-12941482D01*
X12168574Y-12938133D01*
X12171210Y-12937850D01*
X12237591Y-12937850D01*
X12244295Y-12939818D01*
X12248870Y-12945099D01*
X12249927Y-12948990D01*
X12250600Y-12955580D01*
X12250600Y-12955580D01*
X12255490Y-12970336D01*
X12256119Y-12972233D01*
X12265329Y-12987166D01*
X12277734Y-12999571D01*
X12292667Y-13008781D01*
X12309320Y-13014300D01*
X12319599Y-13015350D01*
X12409601Y-13015350D01*
X12409602Y-13015350D01*
X12409602Y-13015350D01*
X12415230Y-13014775D01*
X12419880Y-13014300D01*
X12436533Y-13008781D01*
X12451466Y-12999571D01*
X12463871Y-12987166D01*
X12473081Y-12972233D01*
X12478600Y-12955580D01*
X12479650Y-12945301D01*
X12479650Y-12810299D01*
X12479650Y-12810298D01*
X12559550Y-12810298D01*
X12559550Y-12945300D01*
X12559550Y-12945302D01*
X12560600Y-12955580D01*
X12560600Y-12955580D01*
X12565490Y-12970336D01*
X12566119Y-12972233D01*
X12575329Y-12987166D01*
X12587734Y-12999571D01*
X12602667Y-13008781D01*
X12606050Y-13009902D01*
X12611795Y-13013880D01*
X12614477Y-13020331D01*
X12614550Y-13021673D01*
X12614550Y-13046933D01*
X12614550Y-13046935D01*
X12614550Y-13063505D01*
X12614550Y-13063505D01*
X12614550Y-13063506D01*
X12618642Y-13078778D01*
X12618642Y-13078779D01*
X12618642Y-13078779D01*
X12620101Y-13081305D01*
X12620101Y-13081306D01*
X12626548Y-13092471D01*
X12626548Y-13092472D01*
X12638435Y-13104358D01*
X12638435Y-13104359D01*
X12753114Y-13219037D01*
X12753115Y-13219038D01*
X12753548Y-13219471D01*
X12753548Y-13219472D01*
X12764728Y-13230652D01*
X12773409Y-13235664D01*
X12773410Y-13235664D01*
X12778421Y-13238558D01*
X12778421Y-13238558D01*
X12793694Y-13242650D01*
X12793694Y-13242650D01*
X13118597Y-13242650D01*
X13125301Y-13244618D01*
X13129876Y-13249899D01*
X13130743Y-13253246D01*
X13130827Y-13253231D01*
X13130941Y-13253855D01*
X13135543Y-13269695D01*
X13135543Y-13269696D01*
X13143940Y-13283894D01*
X13143941Y-13283895D01*
X13155605Y-13295559D01*
X13155605Y-13295559D01*
X13155605Y-13295559D01*
X13161300Y-13298927D01*
X13166068Y-13304034D01*
X13167318Y-13310908D01*
X13164654Y-13317367D01*
X13161300Y-13320273D01*
X13155605Y-13323641D01*
X13155605Y-13323641D01*
X13143941Y-13335305D01*
X13143940Y-13335306D01*
X13135543Y-13349504D01*
X13135543Y-13349504D01*
X13130941Y-13365345D01*
X13130941Y-13365345D01*
X13130650Y-13369046D01*
X13130650Y-13504154D01*
X13130941Y-13507855D01*
X13130941Y-13507855D01*
X13135543Y-13523695D01*
X13135543Y-13523696D01*
X13143940Y-13537894D01*
X13143941Y-13537895D01*
X13155605Y-13549559D01*
X13155605Y-13549559D01*
X13155605Y-13549559D01*
X13161250Y-13552898D01*
X13161300Y-13552927D01*
X13166068Y-13558034D01*
X13167318Y-13564908D01*
X13164654Y-13571367D01*
X13161300Y-13574273D01*
X13155605Y-13577641D01*
X13155605Y-13577641D01*
X13143941Y-13589305D01*
X13143940Y-13589306D01*
X13135543Y-13603504D01*
X13135543Y-13603504D01*
X13130941Y-13619345D01*
X13130941Y-13619345D01*
X13130650Y-13623046D01*
X13130650Y-13758154D01*
X13130941Y-13761855D01*
X13130941Y-13761855D01*
X13135543Y-13777695D01*
X13135543Y-13777696D01*
X13143940Y-13791894D01*
X13143941Y-13791895D01*
X13155605Y-13803559D01*
X13155605Y-13803559D01*
X13155605Y-13803559D01*
X13169804Y-13811956D01*
X13173982Y-13813170D01*
X13185645Y-13816559D01*
X13185645Y-13816559D01*
X13185645Y-13816559D01*
X13189347Y-13816850D01*
X13189347Y-13816850D01*
X13415253Y-13816850D01*
X13415253Y-13816850D01*
X13418955Y-13816559D01*
X13418955Y-13816559D01*
X13418955Y-13816559D01*
X13423132Y-13815345D01*
X13434796Y-13811956D01*
X13448995Y-13803559D01*
X13458615Y-13793939D01*
X13460094Y-13792676D01*
X13468046Y-13786898D01*
X13482098Y-13772846D01*
X13493779Y-13756769D01*
X13502800Y-13739063D01*
X13508941Y-13720164D01*
X13512050Y-13700536D01*
X13512050Y-13680664D01*
X13508941Y-13661036D01*
X13502800Y-13642137D01*
X13502800Y-13642137D01*
X13493779Y-13624430D01*
X13482098Y-13608354D01*
X13468046Y-13594302D01*
X13460094Y-13588524D01*
X13459417Y-13587996D01*
X13459000Y-13587646D01*
X13448995Y-13577641D01*
X13442426Y-13573756D01*
X13441648Y-13573104D01*
X13440251Y-13571007D01*
X13438532Y-13569166D01*
X13438347Y-13568149D01*
X13437774Y-13567289D01*
X13437732Y-13564770D01*
X13437282Y-13562292D01*
X13437676Y-13561337D01*
X13437659Y-13560303D01*
X13438986Y-13558162D01*
X13439946Y-13555833D01*
X13440987Y-13554931D01*
X13441339Y-13554364D01*
X13442013Y-13554042D01*
X13443300Y-13552927D01*
X13443350Y-13552898D01*
X13448995Y-13549559D01*
X13458615Y-13539939D01*
X13460094Y-13538676D01*
X13468046Y-13532898D01*
X13482098Y-13518846D01*
X13493779Y-13502769D01*
X13502800Y-13485063D01*
X13508941Y-13466164D01*
X13512050Y-13446536D01*
X13512050Y-13426664D01*
X13508941Y-13407036D01*
X13502800Y-13388137D01*
X13502800Y-13388137D01*
X13493779Y-13370430D01*
X13492776Y-13369051D01*
X13482098Y-13354354D01*
X13468046Y-13340302D01*
X13467235Y-13339712D01*
X13460094Y-13334524D01*
X13459417Y-13333996D01*
X13459000Y-13333646D01*
X13448995Y-13323641D01*
X13442426Y-13319756D01*
X13441648Y-13319104D01*
X13440251Y-13317007D01*
X13438532Y-13315166D01*
X13438347Y-13314149D01*
X13437774Y-13313289D01*
X13437732Y-13310770D01*
X13437282Y-13308292D01*
X13437676Y-13307337D01*
X13437659Y-13306303D01*
X13438986Y-13304162D01*
X13439946Y-13301833D01*
X13440987Y-13300931D01*
X13441339Y-13300364D01*
X13442013Y-13300042D01*
X13443300Y-13298927D01*
X13448995Y-13295559D01*
X13458615Y-13285939D01*
X13460094Y-13284676D01*
X13468046Y-13278898D01*
X13482098Y-13264846D01*
X13493779Y-13248769D01*
X13502800Y-13231063D01*
X13508941Y-13212164D01*
X13512050Y-13192536D01*
X13512050Y-13172664D01*
X13508941Y-13153036D01*
X13502800Y-13134137D01*
X13502800Y-13134137D01*
X13495894Y-13120581D01*
X13493779Y-13116431D01*
X13482098Y-13100354D01*
X13468046Y-13086302D01*
X13460094Y-13080524D01*
X13459417Y-13079996D01*
X13459000Y-13079646D01*
X13448995Y-13069641D01*
X13442426Y-13065756D01*
X13441648Y-13065104D01*
X13440251Y-13063007D01*
X13438532Y-13061166D01*
X13438347Y-13060149D01*
X13437774Y-13059289D01*
X13437732Y-13056770D01*
X13437282Y-13054292D01*
X13437676Y-13053337D01*
X13437659Y-13052303D01*
X13438986Y-13050162D01*
X13439946Y-13047833D01*
X13440987Y-13046931D01*
X13441339Y-13046364D01*
X13442013Y-13046042D01*
X13443300Y-13044927D01*
X13448995Y-13041559D01*
X13458615Y-13031939D01*
X13460094Y-13030676D01*
X13468046Y-13024898D01*
X13482098Y-13010846D01*
X13493779Y-12994769D01*
X13502800Y-12977063D01*
X13508941Y-12958164D01*
X13512050Y-12938536D01*
X13512050Y-12918664D01*
X13508941Y-12899036D01*
X13505248Y-12887670D01*
X13502801Y-12880137D01*
X13502800Y-12880137D01*
X13495894Y-12866581D01*
X13493779Y-12862431D01*
X13482098Y-12846354D01*
X13468046Y-12832302D01*
X13460094Y-12826524D01*
X13459417Y-12825996D01*
X13459000Y-12825646D01*
X13448995Y-12815641D01*
X13442426Y-12811756D01*
X13441648Y-12811104D01*
X13440251Y-12809007D01*
X13438532Y-12807166D01*
X13438347Y-12806149D01*
X13437774Y-12805289D01*
X13437732Y-12802770D01*
X13437282Y-12800292D01*
X13437676Y-12799337D01*
X13437659Y-12798303D01*
X13438986Y-12796162D01*
X13439946Y-12793833D01*
X13440987Y-12792931D01*
X13441339Y-12792364D01*
X13442013Y-12792042D01*
X13443300Y-12790927D01*
X13448995Y-12787559D01*
X13458615Y-12777939D01*
X13460094Y-12776676D01*
X13468046Y-12770898D01*
X13482098Y-12756846D01*
X13493779Y-12740769D01*
X13493779Y-12740769D01*
X13493900Y-12740571D01*
X13493966Y-12740512D01*
X13494065Y-12740375D01*
X13494094Y-12740396D01*
X13499081Y-12735884D01*
X13504473Y-12734650D01*
X13529533Y-12734650D01*
X13529535Y-12734650D01*
X13530294Y-12734650D01*
X13546105Y-12734650D01*
X13546106Y-12734650D01*
X13561378Y-12730558D01*
X13567318Y-12727128D01*
X13575072Y-12722652D01*
X13586252Y-12711472D01*
X13586252Y-12711471D01*
X13587272Y-12710451D01*
X13587273Y-12710451D01*
X13676671Y-12621052D01*
X13676672Y-12621052D01*
X13687852Y-12609872D01*
X13692864Y-12601190D01*
X13695758Y-12596178D01*
X13699850Y-12580906D01*
X13699850Y-12565094D01*
X13699850Y-12564335D01*
X13699850Y-12564333D01*
X13699850Y-12156664D01*
X14783550Y-12156664D01*
X14783550Y-12176536D01*
X14786659Y-12196164D01*
X14792799Y-12215063D01*
X14792799Y-12215063D01*
X14799416Y-12228050D01*
X14801821Y-12232769D01*
X14813502Y-12248846D01*
X14813502Y-12248847D01*
X14827554Y-12262898D01*
X14835506Y-12268676D01*
X14836182Y-12269204D01*
X14836600Y-12269554D01*
X14846605Y-12279559D01*
X14853174Y-12283444D01*
X14853952Y-12284096D01*
X14855349Y-12286193D01*
X14857068Y-12288034D01*
X14857253Y-12289051D01*
X14857826Y-12289911D01*
X14857867Y-12292430D01*
X14858318Y-12294908D01*
X14857924Y-12295863D01*
X14857941Y-12296897D01*
X14856614Y-12299038D01*
X14855654Y-12301367D01*
X14854612Y-12302269D01*
X14854261Y-12302836D01*
X14853587Y-12303157D01*
X14852300Y-12304273D01*
X14849180Y-12306118D01*
X14846605Y-12307641D01*
X14846605Y-12307641D01*
X14836985Y-12317260D01*
X14835506Y-12318524D01*
X14827554Y-12324302D01*
X14813502Y-12338353D01*
X14801821Y-12354430D01*
X14792799Y-12372137D01*
X14792799Y-12372137D01*
X14786659Y-12391036D01*
X14783550Y-12410664D01*
X14783550Y-12430536D01*
X14786659Y-12450164D01*
X14792799Y-12469063D01*
X14792799Y-12469063D01*
X14799992Y-12483179D01*
X14801821Y-12486769D01*
X14813502Y-12502846D01*
X14813502Y-12502847D01*
X14827554Y-12516898D01*
X14835506Y-12522676D01*
X14836182Y-12523204D01*
X14836600Y-12523554D01*
X14846605Y-12533559D01*
X14853174Y-12537444D01*
X14853952Y-12538096D01*
X14855349Y-12540193D01*
X14857068Y-12542034D01*
X14857253Y-12543051D01*
X14857826Y-12543911D01*
X14857867Y-12546430D01*
X14858318Y-12548908D01*
X14857924Y-12549863D01*
X14857941Y-12550897D01*
X14856614Y-12553038D01*
X14855654Y-12555367D01*
X14854612Y-12556269D01*
X14854261Y-12556836D01*
X14853587Y-12557157D01*
X14852300Y-12558273D01*
X14846605Y-12561641D01*
X14846605Y-12561641D01*
X14836985Y-12571260D01*
X14835506Y-12572524D01*
X14827554Y-12578302D01*
X14813502Y-12592353D01*
X14801821Y-12608430D01*
X14792799Y-12626137D01*
X14792799Y-12626137D01*
X14786659Y-12645036D01*
X14783550Y-12664664D01*
X14783550Y-12684536D01*
X14786659Y-12704164D01*
X14792799Y-12723063D01*
X14792799Y-12723063D01*
X14801557Y-12740250D01*
X14801821Y-12740769D01*
X14813502Y-12756846D01*
X14813502Y-12756847D01*
X14827554Y-12770898D01*
X14835506Y-12776676D01*
X14836182Y-12777204D01*
X14836600Y-12777554D01*
X14846605Y-12787559D01*
X14853174Y-12791444D01*
X14853952Y-12792096D01*
X14855349Y-12794193D01*
X14857068Y-12796034D01*
X14857253Y-12797051D01*
X14857826Y-12797911D01*
X14857867Y-12800430D01*
X14858318Y-12802908D01*
X14857924Y-12803863D01*
X14857941Y-12804897D01*
X14856614Y-12807038D01*
X14855654Y-12809367D01*
X14854612Y-12810269D01*
X14854261Y-12810836D01*
X14853587Y-12811157D01*
X14852300Y-12812273D01*
X14846605Y-12815641D01*
X14846605Y-12815641D01*
X14836985Y-12825260D01*
X14835506Y-12826524D01*
X14827554Y-12832302D01*
X14813502Y-12846353D01*
X14801821Y-12862430D01*
X14792799Y-12880137D01*
X14792799Y-12880137D01*
X14786659Y-12899036D01*
X14786659Y-12899036D01*
X14783550Y-12918664D01*
X14783550Y-12938536D01*
X14784621Y-12945300D01*
X14786659Y-12958164D01*
X14792799Y-12977063D01*
X14792799Y-12977063D01*
X14801199Y-12993549D01*
X14801821Y-12994769D01*
X14813502Y-13010846D01*
X14813502Y-13010847D01*
X14827554Y-13024898D01*
X14835506Y-13030676D01*
X14836182Y-13031204D01*
X14836600Y-13031554D01*
X14846605Y-13041559D01*
X14853174Y-13045444D01*
X14853952Y-13046096D01*
X14855349Y-13048193D01*
X14857068Y-13050034D01*
X14857253Y-13051051D01*
X14857826Y-13051911D01*
X14857867Y-13054430D01*
X14858318Y-13056908D01*
X14857924Y-13057863D01*
X14857941Y-13058897D01*
X14856614Y-13061038D01*
X14855654Y-13063367D01*
X14854612Y-13064269D01*
X14854261Y-13064836D01*
X14853587Y-13065157D01*
X14852300Y-13066273D01*
X14846605Y-13069641D01*
X14846605Y-13069641D01*
X14836985Y-13079260D01*
X14835506Y-13080524D01*
X14827554Y-13086302D01*
X14813502Y-13100353D01*
X14801821Y-13116430D01*
X14792799Y-13134137D01*
X14792799Y-13134137D01*
X14786659Y-13153036D01*
X14783550Y-13172664D01*
X14783550Y-13192536D01*
X14786659Y-13212164D01*
X14792799Y-13231063D01*
X14792799Y-13231063D01*
X14798105Y-13241476D01*
X14801821Y-13248769D01*
X14813502Y-13264846D01*
X14813502Y-13264847D01*
X14827554Y-13278898D01*
X14835506Y-13284676D01*
X14836179Y-13285201D01*
X14836598Y-13285552D01*
X14846605Y-13295559D01*
X14853221Y-13299472D01*
X14853997Y-13300122D01*
X14855396Y-13302220D01*
X14857117Y-13304063D01*
X14857301Y-13305077D01*
X14857874Y-13305935D01*
X14857916Y-13308456D01*
X14858367Y-13310937D01*
X14857974Y-13311890D01*
X14857991Y-13312921D01*
X14856664Y-13315065D01*
X14855703Y-13317396D01*
X14854664Y-13318296D01*
X14854314Y-13318862D01*
X14853639Y-13319184D01*
X14852349Y-13320302D01*
X14846637Y-13323680D01*
X14846636Y-13323681D01*
X14839436Y-13330881D01*
X14839436Y-13330881D01*
X14901390Y-13392835D01*
X14892643Y-13395179D01*
X14882507Y-13401031D01*
X14874231Y-13409307D01*
X14868379Y-13419443D01*
X14866035Y-13428190D01*
X14804573Y-13366728D01*
X14804573Y-13366728D01*
X14801864Y-13370456D01*
X14792846Y-13388156D01*
X14786707Y-13407048D01*
X14786707Y-13407048D01*
X14783600Y-13426668D01*
X14783600Y-13446532D01*
X14786707Y-13466152D01*
X14786707Y-13466152D01*
X14792846Y-13485044D01*
X14801864Y-13502743D01*
X14804573Y-13506471D01*
X14804573Y-13506472D01*
X14866035Y-13445009D01*
X14868379Y-13453757D01*
X14874231Y-13463893D01*
X14882507Y-13472169D01*
X14892643Y-13478021D01*
X14901390Y-13480365D01*
X14839436Y-13542319D01*
X14846636Y-13549519D01*
X14846636Y-13549519D01*
X14852349Y-13552898D01*
X14857117Y-13558005D01*
X14858367Y-13564879D01*
X14855703Y-13571338D01*
X14853997Y-13573078D01*
X14853220Y-13573728D01*
X14846605Y-13577641D01*
X14836599Y-13587647D01*
X14836178Y-13587999D01*
X14836060Y-13588051D01*
X14835506Y-13588524D01*
X14827554Y-13594302D01*
X14813502Y-13608353D01*
X14801821Y-13624430D01*
X14792799Y-13642137D01*
X14792799Y-13642137D01*
X14786659Y-13661036D01*
X14783550Y-13680664D01*
X14783550Y-13700536D01*
X14786659Y-13720164D01*
X14792799Y-13739063D01*
X14792799Y-13739063D01*
X14800583Y-13754340D01*
X14801821Y-13756769D01*
X14813502Y-13772846D01*
X14813502Y-13772847D01*
X14827554Y-13786898D01*
X14835506Y-13792676D01*
X14836985Y-13793939D01*
X14846605Y-13803559D01*
X14860804Y-13811956D01*
X14864982Y-13813170D01*
X14876645Y-13816559D01*
X14876645Y-13816559D01*
X14876645Y-13816559D01*
X14880347Y-13816850D01*
X14880347Y-13816850D01*
X15106253Y-13816850D01*
X15106253Y-13816850D01*
X15109955Y-13816559D01*
X15109955Y-13816559D01*
X15109955Y-13816559D01*
X15114132Y-13815345D01*
X15125796Y-13811956D01*
X15139995Y-13803559D01*
X15151659Y-13791895D01*
X15160056Y-13777696D01*
X15164659Y-13761855D01*
X15164950Y-13758153D01*
X15164950Y-13623047D01*
X15164659Y-13619345D01*
X15160056Y-13603504D01*
X15151659Y-13589305D01*
X15151659Y-13589305D01*
X15151659Y-13589305D01*
X15139995Y-13577641D01*
X15139995Y-13577641D01*
X15139995Y-13577641D01*
X15134251Y-13574244D01*
X15129483Y-13569137D01*
X15128233Y-13562263D01*
X15130897Y-13555804D01*
X15134251Y-13552898D01*
X15139964Y-13549519D01*
X15139964Y-13549519D01*
X15151619Y-13537864D01*
X15151620Y-13537863D01*
X15160010Y-13523676D01*
X15160010Y-13523675D01*
X15164609Y-13507847D01*
X15164609Y-13507847D01*
X15164900Y-13504149D01*
X15164900Y-13369053D01*
X15164900Y-13369051D01*
X15164609Y-13365353D01*
X15160010Y-13349524D01*
X15151620Y-13335336D01*
X15151619Y-13335336D01*
X15139964Y-13323681D01*
X15139963Y-13323680D01*
X15134251Y-13320302D01*
X15129483Y-13315195D01*
X15128233Y-13308321D01*
X15130897Y-13301862D01*
X15134251Y-13298956D01*
X15139994Y-13295560D01*
X15139994Y-13295559D01*
X15139995Y-13295559D01*
X15151659Y-13283895D01*
X15160056Y-13269696D01*
X15164659Y-13253855D01*
X15164950Y-13250153D01*
X15164950Y-13115047D01*
X15164659Y-13111345D01*
X15160056Y-13095504D01*
X15151659Y-13081305D01*
X15151659Y-13081305D01*
X15151659Y-13081305D01*
X15139995Y-13069641D01*
X15139994Y-13069641D01*
X15134300Y-13066273D01*
X15129532Y-13061166D01*
X15128282Y-13054292D01*
X15130946Y-13047833D01*
X15134300Y-13044927D01*
X15139995Y-13041559D01*
X15151659Y-13029895D01*
X15160056Y-13015696D01*
X15163445Y-13004032D01*
X15164659Y-12999855D01*
X15164773Y-12999231D01*
X15164951Y-12999264D01*
X15167129Y-12993549D01*
X15172752Y-12989401D01*
X15177003Y-12988650D01*
X15332933Y-12988650D01*
X15332935Y-12988650D01*
X15333694Y-12988650D01*
X15349505Y-12988650D01*
X15349506Y-12988650D01*
X15364778Y-12984558D01*
X15373960Y-12979257D01*
X15378472Y-12976652D01*
X15389652Y-12965472D01*
X15389652Y-12965471D01*
X15390672Y-12964451D01*
X15390673Y-12964451D01*
X15479051Y-12876073D01*
X15479051Y-12876072D01*
X15480071Y-12875052D01*
X15480072Y-12875052D01*
X15491252Y-12863872D01*
X15496592Y-12854621D01*
X15499158Y-12850178D01*
X15503250Y-12834906D01*
X15503250Y-12819094D01*
X15503250Y-12818335D01*
X15503250Y-12818333D01*
X15503250Y-11256810D01*
X15505218Y-11250106D01*
X15506882Y-11248042D01*
X15566042Y-11188882D01*
X15572174Y-11185533D01*
X15574810Y-11185250D01*
X15949628Y-11185250D01*
X15956332Y-11187218D01*
X15960676Y-11192020D01*
X15962695Y-11195981D01*
X15962695Y-11195981D01*
X15975189Y-11213179D01*
X15990221Y-11228211D01*
X16007418Y-11240705D01*
X16008295Y-11241152D01*
X16013374Y-11245949D01*
X16015054Y-11252731D01*
X16012800Y-11259345D01*
X16008295Y-11263248D01*
X16007418Y-11263695D01*
X15990221Y-11276189D01*
X15975189Y-11291221D01*
X15962695Y-11308418D01*
X15953044Y-11327358D01*
X15946475Y-11347576D01*
X15943150Y-11368571D01*
X15943150Y-11389829D01*
X15945239Y-11403020D01*
X15946475Y-11410824D01*
X15952024Y-11427901D01*
X15953044Y-11431041D01*
X15962695Y-11449982D01*
X15975189Y-11467179D01*
X15990221Y-11482211D01*
X16007418Y-11494705D01*
X16008295Y-11495152D01*
X16013374Y-11499949D01*
X16015054Y-11506731D01*
X16012800Y-11513345D01*
X16008295Y-11517248D01*
X16007418Y-11517695D01*
X15990221Y-11530189D01*
X15975189Y-11545221D01*
X15962695Y-11562418D01*
X15953044Y-11581358D01*
X15946475Y-11601576D01*
X15944859Y-11611781D01*
X15943150Y-11622571D01*
X15943150Y-11643829D01*
X15946475Y-11664824D01*
X15948115Y-11669871D01*
X15953044Y-11685041D01*
X15962695Y-11703982D01*
X15975189Y-11721179D01*
X15990221Y-11736211D01*
X16007418Y-11748705D01*
X16007418Y-11748705D01*
X16007418Y-11748705D01*
X16008349Y-11749179D01*
X16013429Y-11753977D01*
X16015109Y-11760759D01*
X16012855Y-11767372D01*
X16008350Y-11771276D01*
X16007445Y-11771738D01*
X16007444Y-11771738D01*
X16002028Y-11775673D01*
X16002028Y-11775673D01*
X16065259Y-11838904D01*
X16058901Y-11840607D01*
X16047499Y-11847190D01*
X16038190Y-11856499D01*
X16031607Y-11867901D01*
X16029904Y-11874259D01*
X15966673Y-11811028D01*
X15966673Y-11811028D01*
X15962738Y-11816444D01*
X15953090Y-11835378D01*
X15946524Y-11855587D01*
X15946524Y-11855587D01*
X15943200Y-11876575D01*
X15943200Y-11897825D01*
X15946524Y-11918813D01*
X15946524Y-11918813D01*
X15953090Y-11939022D01*
X15962737Y-11957955D01*
X15966673Y-11963372D01*
X16029904Y-11900141D01*
X16031607Y-11906499D01*
X16038190Y-11917901D01*
X16047499Y-11927210D01*
X16058901Y-11933792D01*
X16065259Y-11935496D01*
X16002028Y-11998727D01*
X16002028Y-11998727D01*
X16007445Y-12002663D01*
X16007445Y-12002663D01*
X16008349Y-12003123D01*
X16013429Y-12007921D01*
X16015109Y-12014703D01*
X16012855Y-12021316D01*
X16008350Y-12025220D01*
X16007418Y-12025695D01*
X15990221Y-12038189D01*
X15975189Y-12053221D01*
X15962695Y-12070418D01*
X15953044Y-12089358D01*
X15946475Y-12109576D01*
X15943659Y-12127360D01*
X15943150Y-12130571D01*
X15943150Y-12151829D01*
X15946475Y-12172824D01*
X15951749Y-12189054D01*
X15953044Y-12193041D01*
X15962695Y-12211982D01*
X15975189Y-12229179D01*
X15990221Y-12244211D01*
X16007418Y-12256705D01*
X16008295Y-12257152D01*
X16013374Y-12261949D01*
X16015054Y-12268731D01*
X16012800Y-12275345D01*
X16008295Y-12279248D01*
X16007418Y-12279695D01*
X15990221Y-12292189D01*
X15975189Y-12307221D01*
X15962695Y-12324418D01*
X15953044Y-12343358D01*
X15946475Y-12363576D01*
X15943150Y-12384571D01*
X15943150Y-12405829D01*
X15946179Y-12424955D01*
X15946475Y-12426824D01*
X15952358Y-12444928D01*
X15953044Y-12447041D01*
X15962695Y-12465982D01*
X15975189Y-12483179D01*
X15990221Y-12498211D01*
X16007418Y-12510705D01*
X16007418Y-12510705D01*
X16007418Y-12510705D01*
X16026359Y-12520356D01*
X16046576Y-12526925D01*
X16067571Y-12530250D01*
X16067571Y-12530250D01*
X16088829Y-12530250D01*
X16088829Y-12530250D01*
X16109824Y-12526925D01*
X16130041Y-12520356D01*
X16148982Y-12510705D01*
X16155678Y-12505840D01*
X16166179Y-12498211D01*
X16166179Y-12498211D01*
X16166179Y-12498210D01*
X16181210Y-12483179D01*
X16181211Y-12483179D01*
X16181211Y-12483179D01*
X16193705Y-12465982D01*
X16193705Y-12465982D01*
X16193705Y-12465982D01*
X16203356Y-12447041D01*
X16209925Y-12426824D01*
X16213250Y-12405829D01*
X16213250Y-12384571D01*
X16209925Y-12363576D01*
X16203356Y-12343359D01*
X16193705Y-12324418D01*
X16193705Y-12324418D01*
X16193705Y-12324418D01*
X16181211Y-12307221D01*
X16166179Y-12292189D01*
X16148982Y-12279695D01*
X16148911Y-12279659D01*
X16148105Y-12279248D01*
X16143026Y-12274451D01*
X16141346Y-12267669D01*
X16143600Y-12261056D01*
X16148105Y-12257151D01*
X16148982Y-12256705D01*
X16153124Y-12253695D01*
X16166179Y-12244211D01*
X16166179Y-12244211D01*
X16166179Y-12244210D01*
X16181210Y-12229179D01*
X16181211Y-12229179D01*
X16181211Y-12229179D01*
X16193705Y-12211982D01*
X16193705Y-12211982D01*
X16193705Y-12211982D01*
X16203356Y-12193041D01*
X16209925Y-12172824D01*
X16213250Y-12151829D01*
X16213250Y-12130571D01*
X16209925Y-12109576D01*
X16203356Y-12089359D01*
X16193705Y-12070418D01*
X16193705Y-12070418D01*
X16193705Y-12070418D01*
X16181211Y-12053221D01*
X16166179Y-12038189D01*
X16148982Y-12025695D01*
X16148050Y-12025220D01*
X16142971Y-12020423D01*
X16141291Y-12013641D01*
X16143545Y-12007027D01*
X16148051Y-12003123D01*
X16148955Y-12002662D01*
X16154372Y-11998727D01*
X16154372Y-11998727D01*
X16091141Y-11935496D01*
X16097499Y-11933792D01*
X16108901Y-11927210D01*
X16118210Y-11917901D01*
X16124792Y-11906499D01*
X16126496Y-11900141D01*
X16189727Y-11963372D01*
X16189727Y-11963372D01*
X16193662Y-11957955D01*
X16203309Y-11939022D01*
X16209876Y-11918813D01*
X16209876Y-11918813D01*
X16213200Y-11897825D01*
X16213200Y-11876575D01*
X16209876Y-11855587D01*
X16209876Y-11855587D01*
X16203309Y-11835378D01*
X16193662Y-11816445D01*
X16189727Y-11811028D01*
X16189727Y-11811028D01*
X16126496Y-11874259D01*
X16124792Y-11867901D01*
X16118210Y-11856499D01*
X16108901Y-11847190D01*
X16097499Y-11840607D01*
X16091141Y-11838904D01*
X16154372Y-11775673D01*
X16148955Y-11771737D01*
X16148955Y-11771737D01*
X16148050Y-11771276D01*
X16142971Y-11766479D01*
X16141291Y-11759697D01*
X16143545Y-11753083D01*
X16148051Y-11749179D01*
X16148982Y-11748705D01*
X16156901Y-11742951D01*
X16166179Y-11736211D01*
X16166179Y-11736211D01*
X16166179Y-11736210D01*
X16181210Y-11721179D01*
X16181211Y-11721179D01*
X16181211Y-11721179D01*
X16193705Y-11703982D01*
X16193705Y-11703982D01*
X16193705Y-11703982D01*
X16203356Y-11685041D01*
X16209925Y-11664824D01*
X16213250Y-11643829D01*
X16213250Y-11622571D01*
X16209925Y-11601576D01*
X16203356Y-11581359D01*
X16193705Y-11562418D01*
X16193705Y-11562418D01*
X16193705Y-11562418D01*
X16181211Y-11545221D01*
X16166179Y-11530189D01*
X16148982Y-11517695D01*
X16148911Y-11517659D01*
X16148105Y-11517248D01*
X16143026Y-11512451D01*
X16141346Y-11505669D01*
X16143600Y-11499056D01*
X16148105Y-11495151D01*
X16148982Y-11494705D01*
X16153619Y-11491336D01*
X16166179Y-11482211D01*
X16166179Y-11482211D01*
X16166179Y-11482210D01*
X16181210Y-11467179D01*
X16181211Y-11467179D01*
X16181211Y-11467179D01*
X16193705Y-11449982D01*
X16193705Y-11449982D01*
X16193705Y-11449982D01*
X16203356Y-11431041D01*
X16209925Y-11410824D01*
X16213250Y-11389829D01*
X16213250Y-11368571D01*
X16209925Y-11347576D01*
X16208551Y-11343347D01*
X16208507Y-11341826D01*
X16207975Y-11340400D01*
X16208409Y-11338405D01*
X16208351Y-11336363D01*
X16209160Y-11334955D01*
X16209461Y-11333573D01*
X16211575Y-11330748D01*
X16229151Y-11313173D01*
X16229151Y-11313172D01*
X16230171Y-11312152D01*
X16230172Y-11312152D01*
X16241352Y-11300972D01*
X16243989Y-11296404D01*
X16247376Y-11290537D01*
X16247377Y-11290537D01*
X16249258Y-11287279D01*
X16250977Y-11280863D01*
X16253350Y-11272006D01*
X16253350Y-11256194D01*
X16253350Y-11255435D01*
X16253350Y-11255433D01*
X16253350Y-11069619D01*
X16253350Y-11069618D01*
X16249258Y-11054346D01*
X16247227Y-11050828D01*
X16241352Y-11040653D01*
X16241352Y-11040653D01*
X16241352Y-11040652D01*
X16230172Y-11029472D01*
X16230171Y-11029472D01*
X16229738Y-11029039D01*
X16229737Y-11029038D01*
X16179313Y-10978613D01*
X16175964Y-10972481D01*
X16176462Y-10965512D01*
X16179313Y-10961077D01*
X16181210Y-10959179D01*
X16181211Y-10959179D01*
X16181211Y-10959179D01*
X16193705Y-10941982D01*
X16193705Y-10941982D01*
X16193705Y-10941982D01*
X16203356Y-10923041D01*
X16209925Y-10902824D01*
X16213250Y-10881829D01*
X16213250Y-10860571D01*
X16209925Y-10839576D01*
X16203356Y-10819359D01*
X16193705Y-10800418D01*
X16193705Y-10800418D01*
X16193705Y-10800418D01*
X16181211Y-10783221D01*
X16169857Y-10771867D01*
X16166508Y-10765735D01*
X16167007Y-10758766D01*
X16171194Y-10753173D01*
X16174291Y-10751481D01*
X16187433Y-10746580D01*
X16198955Y-10737955D01*
X16207580Y-10726433D01*
X16212609Y-10712948D01*
X16213250Y-10706987D01*
X16213250Y-10527413D01*
X16212609Y-10521452D01*
X16207580Y-10507967D01*
X16207579Y-10507967D01*
X16207579Y-10507966D01*
X16198955Y-10496446D01*
X16198954Y-10496445D01*
X16187433Y-10487821D01*
X16187433Y-10487820D01*
X16173948Y-10482791D01*
X16173948Y-10482791D01*
X16167988Y-10482150D01*
X16167988Y-10482150D01*
X16167987Y-10482150D01*
X16167986Y-10482150D01*
X15988413Y-10482150D01*
X15988412Y-10482150D01*
X15982452Y-10482791D01*
X15968967Y-10487820D01*
X15968966Y-10487821D01*
X15957445Y-10496445D01*
X15957445Y-10496446D01*
X15948821Y-10507966D01*
X15948820Y-10507967D01*
X15943791Y-10521452D01*
X15943150Y-10527412D01*
X15943150Y-10527412D01*
X15943150Y-10527414D01*
X15943150Y-10611390D01*
X15941181Y-10618094D01*
X15939518Y-10620158D01*
X15903148Y-10656528D01*
X15903148Y-10656528D01*
X15899503Y-10662842D01*
X15896325Y-10668347D01*
X15895770Y-10669308D01*
X15895242Y-10670222D01*
X15891150Y-10685494D01*
X15891150Y-10685495D01*
X15891150Y-10702305D01*
X15891150Y-10702306D01*
X15891150Y-10891990D01*
X15890285Y-10894934D01*
X15889633Y-10897933D01*
X15889258Y-10898435D01*
X15889181Y-10898694D01*
X15887518Y-10900758D01*
X15879158Y-10909118D01*
X15873026Y-10912467D01*
X15870390Y-10912750D01*
X15401067Y-10912750D01*
X15401065Y-10912750D01*
X15400306Y-10912750D01*
X15384494Y-10912750D01*
X15376858Y-10914796D01*
X15369221Y-10916842D01*
X15369221Y-10916843D01*
X15355529Y-10924748D01*
X15355528Y-10924748D01*
X15166548Y-11113728D01*
X15166548Y-11113729D01*
X15165044Y-11116334D01*
X15162903Y-11120042D01*
X15161536Y-11122409D01*
X15161536Y-11122410D01*
X15158642Y-11127421D01*
X15158642Y-11127421D01*
X15158642Y-11127422D01*
X15154550Y-11142694D01*
X15154550Y-11142695D01*
X15154550Y-11159505D01*
X15154550Y-11159506D01*
X15154550Y-12040509D01*
X15152581Y-12047213D01*
X15147301Y-12051789D01*
X15140385Y-12052783D01*
X15135838Y-12051182D01*
X15125796Y-12045243D01*
X15125795Y-12045243D01*
X15109955Y-12040641D01*
X15109955Y-12040641D01*
X15106254Y-12040350D01*
X15106253Y-12040350D01*
X14880347Y-12040350D01*
X14880346Y-12040350D01*
X14876645Y-12040641D01*
X14876645Y-12040641D01*
X14860804Y-12045243D01*
X14860804Y-12045243D01*
X14846606Y-12053640D01*
X14846605Y-12053641D01*
X14836985Y-12063260D01*
X14835506Y-12064524D01*
X14827554Y-12070302D01*
X14813502Y-12084353D01*
X14801821Y-12100430D01*
X14792799Y-12118137D01*
X14792799Y-12118137D01*
X14786659Y-12137036D01*
X14783550Y-12156664D01*
X13699850Y-12156664D01*
X13699850Y-10829306D01*
X13699850Y-10829305D01*
X13699850Y-10812495D01*
X13699850Y-10812494D01*
X13695758Y-10797222D01*
X13692864Y-10792210D01*
X13687852Y-10783528D01*
X13676672Y-10772348D01*
X13676671Y-10772348D01*
X13676238Y-10771915D01*
X13676237Y-10771914D01*
X13670681Y-10766358D01*
X13667333Y-10760226D01*
X13667202Y-10755651D01*
X13668250Y-10749035D01*
X13668250Y-10688565D01*
X13665119Y-10668800D01*
X13665048Y-10668347D01*
X13661208Y-10656528D01*
X13658722Y-10648878D01*
X13658722Y-10648878D01*
X13658722Y-10648878D01*
X13649442Y-10630665D01*
X13649429Y-10630639D01*
X13646095Y-10626050D01*
X13637397Y-10614079D01*
X13622921Y-10599603D01*
X13606361Y-10587572D01*
X13606361Y-10587571D01*
X13606361Y-10587571D01*
X13600665Y-10584669D01*
X13588122Y-10578278D01*
X13568653Y-10571952D01*
X13551199Y-10569188D01*
X13548435Y-10568750D01*
X13527965Y-10568750D01*
X13525533Y-10569135D01*
X13507746Y-10571952D01*
X13488278Y-10578278D01*
X13470039Y-10587572D01*
X13453479Y-10599603D01*
X13439003Y-10614079D01*
X13426971Y-10630639D01*
X13422248Y-10639908D01*
X13417451Y-10644988D01*
X13410669Y-10646667D01*
X13404055Y-10644413D01*
X13400151Y-10639908D01*
X13395442Y-10630665D01*
X13395429Y-10630639D01*
X13392095Y-10626050D01*
X13383397Y-10614079D01*
X13368921Y-10599603D01*
X13352361Y-10587572D01*
X13352361Y-10587571D01*
X13352361Y-10587571D01*
X13346665Y-10584669D01*
X13334122Y-10578278D01*
X13314653Y-10571952D01*
X13297199Y-10569188D01*
X13294435Y-10568750D01*
X13273965Y-10568750D01*
X13271533Y-10569135D01*
X13253746Y-10571952D01*
X13234278Y-10578278D01*
X13216039Y-10587572D01*
X13199479Y-10599603D01*
X13185003Y-10614079D01*
X13172971Y-10630639D01*
X13168248Y-10639908D01*
X13163451Y-10644988D01*
X13156669Y-10646667D01*
X13150055Y-10644413D01*
X13146151Y-10639908D01*
X13141442Y-10630665D01*
X13141429Y-10630639D01*
X13138095Y-10626050D01*
X13129397Y-10614079D01*
X13114921Y-10599603D01*
X13098361Y-10587572D01*
X13098361Y-10587571D01*
X13098361Y-10587571D01*
X13092665Y-10584669D01*
X13080122Y-10578278D01*
X13060653Y-10571952D01*
X13043199Y-10569188D01*
X13040435Y-10568750D01*
X13019965Y-10568750D01*
X13017533Y-10569135D01*
X12999746Y-10571952D01*
X12980278Y-10578278D01*
X12962039Y-10587572D01*
X12945479Y-10599603D01*
X12931003Y-10614079D01*
X12918971Y-10630639D01*
X12914220Y-10639963D01*
X12909423Y-10645043D01*
X12902641Y-10646722D01*
X12896027Y-10644468D01*
X12892123Y-10639963D01*
X12887386Y-10630665D01*
X12875358Y-10614111D01*
X12875358Y-10614110D01*
X12860889Y-10599642D01*
X12844335Y-10587614D01*
X12826103Y-10578324D01*
X12806641Y-10572001D01*
X12801200Y-10571139D01*
X12801200Y-10675499D01*
X12795499Y-10672208D01*
X12782783Y-10668800D01*
X12769617Y-10668800D01*
X12756901Y-10672208D01*
X12751200Y-10675499D01*
X12751200Y-10571139D01*
X12745759Y-10572001D01*
X12726297Y-10578324D01*
X12708065Y-10587614D01*
X12691510Y-10599642D01*
X12691510Y-10599642D01*
X12677042Y-10614110D01*
X12677042Y-10614111D01*
X12665014Y-10630665D01*
X12655724Y-10648897D01*
X12649401Y-10668358D01*
X12646200Y-10688568D01*
X12646200Y-10693800D01*
X12732899Y-10693800D01*
X12729607Y-10699501D01*
X12726200Y-10712217D01*
X12726200Y-10725383D01*
X12729607Y-10738099D01*
X12732899Y-10743800D01*
X12646200Y-10743800D01*
X12646200Y-10749032D01*
X12649401Y-10769242D01*
X12655724Y-10788703D01*
X12665014Y-10806935D01*
X12677042Y-10823489D01*
X12677042Y-10823490D01*
X12691510Y-10837958D01*
X12708065Y-10849986D01*
X12726297Y-10859275D01*
X12745758Y-10865599D01*
X12751200Y-10866461D01*
X12751200Y-10762101D01*
X12756901Y-10765393D01*
X12769617Y-10768800D01*
X12782783Y-10768800D01*
X12795499Y-10765393D01*
X12801200Y-10762101D01*
X12801200Y-10866461D01*
X12806642Y-10865599D01*
X12826103Y-10859275D01*
X12844335Y-10849986D01*
X12860889Y-10837958D01*
X12860889Y-10837958D01*
X12875358Y-10823490D01*
X12875358Y-10823489D01*
X12887386Y-10806935D01*
X12892123Y-10797637D01*
X12896921Y-10792558D01*
X12903703Y-10790878D01*
X12910316Y-10793132D01*
X12914220Y-10797637D01*
X12918971Y-10806961D01*
X12931003Y-10823521D01*
X12945479Y-10837997D01*
X12957771Y-10846928D01*
X12962039Y-10850029D01*
X12980278Y-10859322D01*
X12980278Y-10859322D01*
X12989582Y-10862345D01*
X12995349Y-10866289D01*
X12998069Y-10872724D01*
X12998150Y-10874138D01*
X12998150Y-10955927D01*
X12996181Y-10962631D01*
X12990901Y-10967206D01*
X12989651Y-10967697D01*
X12986267Y-10968818D01*
X12986266Y-10968819D01*
X12971334Y-10978029D01*
X12958929Y-10990434D01*
X12949719Y-11005366D01*
X12949718Y-11005367D01*
X12948432Y-11009249D01*
X12944200Y-11022020D01*
X12944200Y-11022020D01*
X12944200Y-11022020D01*
X12943150Y-11032298D01*
X12943150Y-11167300D01*
X12943150Y-11167302D01*
X12944200Y-11177580D01*
X12944200Y-11177580D01*
X12947394Y-11187218D01*
X12949719Y-11194233D01*
X12958929Y-11209166D01*
X12971334Y-11221571D01*
X12986267Y-11230781D01*
X12989650Y-11231902D01*
X12995395Y-11235880D01*
X12998077Y-11242331D01*
X12998150Y-11243673D01*
X12998150Y-11336927D01*
X12996181Y-11343631D01*
X12990901Y-11348206D01*
X12989651Y-11348697D01*
X12986267Y-11349818D01*
X12986266Y-11349819D01*
X12971334Y-11359029D01*
X12958929Y-11371434D01*
X12949719Y-11386366D01*
X12949718Y-11386367D01*
X12948299Y-11390650D01*
X12944200Y-11403020D01*
X12944200Y-11403020D01*
X12944200Y-11403020D01*
X12943150Y-11413298D01*
X12943150Y-11548300D01*
X12943150Y-11548302D01*
X12944200Y-11558580D01*
X12944200Y-11558580D01*
X12945472Y-11562418D01*
X12949719Y-11575233D01*
X12958929Y-11590166D01*
X12971334Y-11602571D01*
X12986267Y-11611781D01*
X12989650Y-11612902D01*
X12995395Y-11616880D01*
X12998077Y-11623331D01*
X12998150Y-11624673D01*
X12998150Y-11717927D01*
X12996181Y-11724631D01*
X12990901Y-11729206D01*
X12989651Y-11729697D01*
X12986267Y-11730818D01*
X12986266Y-11730819D01*
X12971334Y-11740029D01*
X12958929Y-11752434D01*
X12949719Y-11767366D01*
X12949718Y-11767367D01*
X12946966Y-11775673D01*
X12944200Y-11784020D01*
X12944200Y-11784020D01*
X12944200Y-11784020D01*
X12943150Y-11794298D01*
X12943150Y-11929300D01*
X12943150Y-11929302D01*
X12944200Y-11939580D01*
X12944200Y-11939580D01*
X12949718Y-11956233D01*
X12949719Y-11956233D01*
X12958929Y-11971166D01*
X12971334Y-11983571D01*
X12986267Y-11992781D01*
X13002920Y-11998300D01*
X13013199Y-11999350D01*
X13103201Y-11999350D01*
X13103202Y-11999350D01*
X13103202Y-11999350D01*
X13109300Y-11998727D01*
X13113480Y-11998300D01*
X13130133Y-11992781D01*
X13145066Y-11983571D01*
X13157471Y-11971166D01*
X13166681Y-11956233D01*
X13172200Y-11939580D01*
X13173250Y-11929301D01*
X13173250Y-11794299D01*
X13172200Y-11784020D01*
X13166681Y-11767367D01*
X13157471Y-11752434D01*
X13145066Y-11740029D01*
X13130133Y-11730819D01*
X13130133Y-11730818D01*
X13126749Y-11729697D01*
X13121005Y-11725720D01*
X13118323Y-11719268D01*
X13118250Y-11717927D01*
X13118250Y-11624673D01*
X13120218Y-11617969D01*
X13125499Y-11613394D01*
X13126749Y-11612903D01*
X13130133Y-11611781D01*
X13145066Y-11602571D01*
X13157471Y-11590166D01*
X13166681Y-11575233D01*
X13172200Y-11558580D01*
X13173250Y-11548301D01*
X13173250Y-11413299D01*
X13172997Y-11410824D01*
X13172200Y-11403020D01*
X13172200Y-11403020D01*
X13171417Y-11400658D01*
X13166681Y-11386367D01*
X13157471Y-11371434D01*
X13145066Y-11359029D01*
X13130133Y-11349819D01*
X13130133Y-11349818D01*
X13126749Y-11348697D01*
X13121005Y-11344720D01*
X13118323Y-11338268D01*
X13118250Y-11336927D01*
X13118250Y-11243673D01*
X13120218Y-11236969D01*
X13125499Y-11232394D01*
X13126749Y-11231903D01*
X13130133Y-11230781D01*
X13145066Y-11221571D01*
X13157471Y-11209166D01*
X13166681Y-11194233D01*
X13172200Y-11177580D01*
X13173250Y-11167301D01*
X13173250Y-11032299D01*
X13173196Y-11031769D01*
X13172200Y-11022020D01*
X13172200Y-11022020D01*
X13169335Y-11013376D01*
X13166681Y-11005367D01*
X13157471Y-10990434D01*
X13145066Y-10978029D01*
X13130133Y-10968819D01*
X13130133Y-10968818D01*
X13126749Y-10967697D01*
X13121005Y-10963720D01*
X13118323Y-10957268D01*
X13118250Y-10955927D01*
X13118250Y-10839805D01*
X13120218Y-10833101D01*
X13121882Y-10831037D01*
X13124613Y-10828306D01*
X13129397Y-10823522D01*
X13129397Y-10823522D01*
X13129397Y-10823521D01*
X13141428Y-10806961D01*
X13141429Y-10806961D01*
X13141429Y-10806961D01*
X13146152Y-10797692D01*
X13150949Y-10792612D01*
X13157731Y-10790933D01*
X13164344Y-10793187D01*
X13168248Y-10797692D01*
X13172635Y-10806301D01*
X13172971Y-10806961D01*
X13185003Y-10823521D01*
X13199479Y-10837997D01*
X13211771Y-10846928D01*
X13216039Y-10850029D01*
X13227661Y-10855950D01*
X13234278Y-10859322D01*
X13234278Y-10859322D01*
X13234278Y-10859322D01*
X13241147Y-10861554D01*
X13253746Y-10865648D01*
X13262642Y-10867057D01*
X13273965Y-10868850D01*
X13273965Y-10868850D01*
X13293390Y-10868850D01*
X13300094Y-10870819D01*
X13302158Y-10872482D01*
X13499918Y-11070242D01*
X13503267Y-11076374D01*
X13503550Y-11079010D01*
X13503550Y-12075869D01*
X13501581Y-12082573D01*
X13496301Y-12087149D01*
X13489385Y-12088143D01*
X13483030Y-12085241D01*
X13482382Y-12084637D01*
X13468047Y-12070302D01*
X13468046Y-12070302D01*
X13460094Y-12064524D01*
X13458615Y-12063261D01*
X13448995Y-12053641D01*
X13448995Y-12053641D01*
X13448994Y-12053640D01*
X13434796Y-12045243D01*
X13434795Y-12045243D01*
X13418955Y-12040641D01*
X13418955Y-12040641D01*
X13415254Y-12040350D01*
X13415253Y-12040350D01*
X13189347Y-12040350D01*
X13189346Y-12040350D01*
X13185645Y-12040641D01*
X13185645Y-12040641D01*
X13169804Y-12045243D01*
X13169804Y-12045243D01*
X13155606Y-12053640D01*
X13155605Y-12053641D01*
X13143941Y-12065305D01*
X13143940Y-12065306D01*
X13135543Y-12079504D01*
X13135543Y-12079504D01*
X13130941Y-12095345D01*
X13130941Y-12095345D01*
X13130650Y-12099046D01*
X13130650Y-12234154D01*
X13130941Y-12237855D01*
X13130941Y-12237855D01*
X13135543Y-12253695D01*
X13135543Y-12253696D01*
X13143940Y-12267894D01*
X13143941Y-12267895D01*
X13155605Y-12279559D01*
X13155605Y-12279559D01*
X13155605Y-12279559D01*
X13161300Y-12282927D01*
X13166068Y-12288034D01*
X13167318Y-12294908D01*
X13164654Y-12301367D01*
X13161300Y-12304273D01*
X13158180Y-12306118D01*
X13155605Y-12307641D01*
X13155605Y-12307641D01*
X13143941Y-12319305D01*
X13143940Y-12319306D01*
X13135543Y-12333504D01*
X13135543Y-12333504D01*
X13130941Y-12349345D01*
X13130941Y-12349345D01*
X13130650Y-12353046D01*
X13130650Y-12488154D01*
X13130941Y-12491855D01*
X13130941Y-12491855D01*
X13135543Y-12507695D01*
X13135543Y-12507696D01*
X13143940Y-12521894D01*
X13143941Y-12521895D01*
X13155605Y-12533559D01*
X13155605Y-12533559D01*
X13155605Y-12533559D01*
X13161300Y-12536927D01*
X13166068Y-12542034D01*
X13167318Y-12548908D01*
X13164654Y-12555367D01*
X13161300Y-12558273D01*
X13155605Y-12561641D01*
X13155605Y-12561641D01*
X13143941Y-12573305D01*
X13143940Y-12573306D01*
X13135543Y-12587504D01*
X13135543Y-12587504D01*
X13130941Y-12603345D01*
X13130941Y-12603345D01*
X13130650Y-12607046D01*
X13130650Y-12742154D01*
X13130941Y-12745854D01*
X13130941Y-12745855D01*
X13135543Y-12761695D01*
X13135543Y-12761696D01*
X13143940Y-12775894D01*
X13143941Y-12775895D01*
X13155605Y-12787559D01*
X13155605Y-12787559D01*
X13155605Y-12787559D01*
X13161300Y-12790927D01*
X13166068Y-12796034D01*
X13167318Y-12802908D01*
X13164654Y-12809367D01*
X13161300Y-12812273D01*
X13155605Y-12815641D01*
X13155605Y-12815641D01*
X13143941Y-12827305D01*
X13143940Y-12827306D01*
X13135543Y-12841504D01*
X13134343Y-12845636D01*
X13130582Y-12851524D01*
X13124235Y-12854445D01*
X13117316Y-12853470D01*
X13113667Y-12850944D01*
X13068482Y-12805758D01*
X13065133Y-12799626D01*
X13064850Y-12796990D01*
X13064850Y-12480306D01*
X13064850Y-12480305D01*
X13064850Y-12463494D01*
X13064637Y-12462701D01*
X13060758Y-12448222D01*
X13054911Y-12438094D01*
X13052852Y-12434529D01*
X13052852Y-12434528D01*
X12977359Y-12359035D01*
X12977359Y-12359035D01*
X12965472Y-12347148D01*
X12965472Y-12347148D01*
X12955876Y-12341608D01*
X12955876Y-12341608D01*
X12951778Y-12339242D01*
X12946188Y-12337744D01*
X12936506Y-12335150D01*
X12920694Y-12335150D01*
X12919935Y-12335150D01*
X12919933Y-12335150D01*
X12804209Y-12335150D01*
X12797505Y-12333181D01*
X12792929Y-12327901D01*
X12791873Y-12324010D01*
X12791575Y-12321094D01*
X12791200Y-12317420D01*
X12785681Y-12300767D01*
X12776471Y-12285834D01*
X12764066Y-12273429D01*
X12749133Y-12264219D01*
X12732480Y-12258700D01*
X12732479Y-12258700D01*
X12722201Y-12257650D01*
X12632200Y-12257650D01*
X12632198Y-12257650D01*
X12621920Y-12258700D01*
X12621920Y-12258700D01*
X12605267Y-12264218D01*
X12605266Y-12264219D01*
X12590334Y-12273429D01*
X12577929Y-12285834D01*
X12568719Y-12300766D01*
X12568718Y-12300767D01*
X12566945Y-12306118D01*
X12563200Y-12317420D01*
X12563200Y-12317420D01*
X12563200Y-12317420D01*
X12562150Y-12327698D01*
X12562150Y-12462700D01*
X12562150Y-12462702D01*
X12563200Y-12472980D01*
X12563200Y-12472980D01*
X12568718Y-12489633D01*
X12568719Y-12489634D01*
X12570089Y-12491855D01*
X12577929Y-12504566D01*
X12590334Y-12516971D01*
X12605267Y-12526181D01*
X12621920Y-12531700D01*
X12632199Y-12532750D01*
X12722201Y-12532750D01*
X12722202Y-12532750D01*
X12722202Y-12532750D01*
X12727830Y-12532175D01*
X12732480Y-12531700D01*
X12749133Y-12526181D01*
X12764066Y-12516971D01*
X12776471Y-12504566D01*
X12785681Y-12489633D01*
X12791200Y-12472980D01*
X12791600Y-12469063D01*
X12791873Y-12466390D01*
X12794513Y-12459920D01*
X12800231Y-12455905D01*
X12804209Y-12455250D01*
X12898590Y-12455250D01*
X12905294Y-12457218D01*
X12907358Y-12458882D01*
X12941118Y-12492642D01*
X12944467Y-12498774D01*
X12944750Y-12501410D01*
X12944750Y-12818333D01*
X12944750Y-12818335D01*
X12944750Y-12834905D01*
X12944750Y-12834905D01*
X12948842Y-12850178D01*
X12951305Y-12854445D01*
X12951407Y-12854621D01*
X12956748Y-12863871D01*
X12956748Y-12863871D01*
X12956748Y-12863872D01*
X12968635Y-12875758D01*
X12968635Y-12875759D01*
X13058348Y-12965471D01*
X13058348Y-12965472D01*
X13069528Y-12976652D01*
X13074040Y-12979257D01*
X13075064Y-12979848D01*
X13083221Y-12984557D01*
X13083221Y-12984557D01*
X13083221Y-12984557D01*
X13083221Y-12984558D01*
X13098494Y-12988650D01*
X13098495Y-12988650D01*
X13115065Y-12988650D01*
X13115067Y-12988650D01*
X13118597Y-12988650D01*
X13125301Y-12990618D01*
X13129876Y-12995899D01*
X13130743Y-12999246D01*
X13130827Y-12999231D01*
X13130941Y-12999855D01*
X13135543Y-13015695D01*
X13135543Y-13015696D01*
X13143940Y-13029894D01*
X13143941Y-13029895D01*
X13155605Y-13041559D01*
X13155605Y-13041559D01*
X13155605Y-13041559D01*
X13161300Y-13044927D01*
X13166068Y-13050034D01*
X13167318Y-13056908D01*
X13164654Y-13063367D01*
X13161300Y-13066273D01*
X13155605Y-13069641D01*
X13155605Y-13069641D01*
X13143941Y-13081305D01*
X13143940Y-13081306D01*
X13135543Y-13095504D01*
X13135543Y-13095504D01*
X13130941Y-13111345D01*
X13130827Y-13111969D01*
X13130649Y-13111936D01*
X13128471Y-13117651D01*
X13122848Y-13121799D01*
X13118597Y-13122550D01*
X12831610Y-13122550D01*
X12824906Y-13120581D01*
X12822842Y-13118918D01*
X12738282Y-13034358D01*
X12736811Y-13031666D01*
X12735152Y-13029084D01*
X12735063Y-13028464D01*
X12734933Y-13028226D01*
X12734650Y-13025590D01*
X12734650Y-13021673D01*
X12736618Y-13014969D01*
X12741899Y-13010394D01*
X12743149Y-13009903D01*
X12746533Y-13008781D01*
X12761466Y-12999571D01*
X12773871Y-12987166D01*
X12783081Y-12972233D01*
X12788600Y-12955580D01*
X12789650Y-12945301D01*
X12789650Y-12810299D01*
X12789113Y-12805040D01*
X12788600Y-12800020D01*
X12788600Y-12800020D01*
X12787616Y-12797051D01*
X12783081Y-12783367D01*
X12773871Y-12768434D01*
X12761466Y-12756029D01*
X12749678Y-12748758D01*
X12746534Y-12746819D01*
X12746533Y-12746818D01*
X12746386Y-12746770D01*
X12729880Y-12741300D01*
X12729879Y-12741300D01*
X12719601Y-12740250D01*
X12629600Y-12740250D01*
X12629598Y-12740250D01*
X12619320Y-12741300D01*
X12619320Y-12741300D01*
X12602667Y-12746818D01*
X12602666Y-12746819D01*
X12587734Y-12756029D01*
X12575329Y-12768434D01*
X12566119Y-12783366D01*
X12566118Y-12783367D01*
X12565388Y-12785570D01*
X12560600Y-12800020D01*
X12560600Y-12800020D01*
X12560600Y-12800020D01*
X12559550Y-12810298D01*
X12479650Y-12810298D01*
X12479647Y-12810269D01*
X12478600Y-12800020D01*
X12478600Y-12800020D01*
X12477616Y-12797051D01*
X12473081Y-12783367D01*
X12463871Y-12768434D01*
X12451466Y-12756029D01*
X12439678Y-12748758D01*
X12436534Y-12746819D01*
X12436533Y-12746818D01*
X12436386Y-12746770D01*
X12419880Y-12741300D01*
X12419879Y-12741300D01*
X12409601Y-12740250D01*
X12319600Y-12740250D01*
X12319598Y-12740250D01*
X12309320Y-12741300D01*
X12309320Y-12741300D01*
X12292667Y-12746818D01*
X12292666Y-12746819D01*
X12277734Y-12756029D01*
X12265329Y-12768434D01*
X12256119Y-12783366D01*
X12256118Y-12783367D01*
X12255388Y-12785570D01*
X12250731Y-12799626D01*
X12250600Y-12800020D01*
X12250600Y-12800020D01*
X12249927Y-12806610D01*
X12247287Y-12813079D01*
X12241569Y-12817095D01*
X12237591Y-12817750D01*
X12149867Y-12817750D01*
X12149865Y-12817750D01*
X12149106Y-12817750D01*
X12133294Y-12817750D01*
X12125658Y-12819796D01*
X12118021Y-12821842D01*
X12118021Y-12821843D01*
X12104329Y-12829747D01*
X12104328Y-12829748D01*
X12043758Y-12890318D01*
X12041066Y-12891788D01*
X12038484Y-12893448D01*
X12037864Y-12893537D01*
X12037626Y-12893667D01*
X12034990Y-12893950D01*
X12014531Y-12893950D01*
X12007827Y-12891981D01*
X12005763Y-12890318D01*
X12002637Y-12887192D01*
X12002636Y-12887192D01*
X11994818Y-12882568D01*
X11988490Y-12878826D01*
X11988490Y-12878825D01*
X11988490Y-12878825D01*
X11988489Y-12878825D01*
X11972707Y-12874240D01*
X11972707Y-12874240D01*
X11969020Y-12873950D01*
X11969019Y-12873950D01*
X11853381Y-12873950D01*
X11853380Y-12873950D01*
X11849693Y-12874240D01*
X11849693Y-12874240D01*
X11833911Y-12878825D01*
X11833910Y-12878825D01*
X11819764Y-12887192D01*
X11819147Y-12887670D01*
X11819016Y-12887502D01*
X11813845Y-12890325D01*
X11806876Y-12889825D01*
X11802106Y-12886625D01*
X11799680Y-12884000D01*
X11708700Y-12884000D01*
X11658700Y-12884000D01*
X11567720Y-12884000D01*
X11567720Y-12884000D01*
X10751800Y-12884000D01*
X10751800Y-12834000D01*
X11567720Y-12834000D01*
X11567720Y-12834000D01*
X11658700Y-12834000D01*
X11658700Y-12779000D01*
X11625885Y-12779000D01*
X11622201Y-12779290D01*
X11622200Y-12779290D01*
X11606431Y-12783872D01*
X11606430Y-12783872D01*
X11592295Y-12792231D01*
X11592294Y-12792232D01*
X11580682Y-12803844D01*
X11580681Y-12803845D01*
X11572322Y-12817980D01*
X11567740Y-12833751D01*
X11567720Y-12834000D01*
X10751800Y-12834000D01*
X10751800Y-12760763D01*
X10751159Y-12754802D01*
X10748905Y-12748759D01*
X10746130Y-12741317D01*
X10746129Y-12741316D01*
X10737505Y-12729795D01*
X10737504Y-12729795D01*
X10725984Y-12721171D01*
X10725983Y-12721170D01*
X10712498Y-12716141D01*
X10712498Y-12716141D01*
X10706538Y-12715500D01*
X10706538Y-12715500D01*
X10706537Y-12715500D01*
X10706537Y-12715500D01*
X10544100Y-12715500D01*
X10537396Y-12713531D01*
X10532821Y-12708251D01*
X10531700Y-12703100D01*
X10531700Y-12526082D01*
X10532329Y-12523940D01*
X10532495Y-12521714D01*
X10533294Y-12520653D01*
X10533669Y-12519378D01*
X10535356Y-12517917D01*
X10536699Y-12516133D01*
X10537945Y-12515673D01*
X10538949Y-12514803D01*
X10541159Y-12514485D01*
X10543253Y-12513711D01*
X10544550Y-12513998D01*
X10545865Y-12513809D01*
X10547896Y-12514736D01*
X10550076Y-12515217D01*
X10551355Y-12516316D01*
X10552220Y-12516711D01*
X10552895Y-12517341D01*
X10553598Y-12518048D01*
X10553698Y-12518222D01*
X10564878Y-12529402D01*
X10564879Y-12529402D01*
X10656528Y-12621052D01*
X10656529Y-12621052D01*
X10656529Y-12621052D01*
X10670221Y-12628957D01*
X10670222Y-12628958D01*
X10685494Y-12633050D01*
X10685495Y-12633050D01*
X10702065Y-12633050D01*
X10702067Y-12633050D01*
X11713150Y-12633050D01*
X11719854Y-12635018D01*
X11724429Y-12640299D01*
X11725550Y-12645450D01*
X11725550Y-12691333D01*
X11725550Y-12691335D01*
X11725550Y-12707905D01*
X11725550Y-12707905D01*
X11729642Y-12723179D01*
X11729642Y-12723179D01*
X11731703Y-12726748D01*
X11736978Y-12735884D01*
X11737548Y-12736872D01*
X11749435Y-12748758D01*
X11749435Y-12748759D01*
X11760054Y-12759377D01*
X11763402Y-12765510D01*
X11762904Y-12772479D01*
X11758717Y-12778072D01*
X11752170Y-12780514D01*
X11747827Y-12780053D01*
X11745199Y-12779290D01*
X11745199Y-12779290D01*
X11741515Y-12779000D01*
X11708700Y-12779000D01*
X11708700Y-12834000D01*
X11799679Y-12834000D01*
X11802106Y-12831375D01*
X11808102Y-12827788D01*
X11815085Y-12828013D01*
X11819051Y-12830453D01*
X11819147Y-12830330D01*
X11819763Y-12830808D01*
X11819763Y-12830808D01*
X11833910Y-12839174D01*
X11838072Y-12840384D01*
X11849693Y-12843760D01*
X11849693Y-12843760D01*
X11849693Y-12843760D01*
X11853381Y-12844050D01*
X11853381Y-12844050D01*
X11969019Y-12844050D01*
X11969019Y-12844050D01*
X11972707Y-12843760D01*
X11972707Y-12843760D01*
X11972707Y-12843760D01*
X11980470Y-12841504D01*
X11988490Y-12839174D01*
X12002636Y-12830808D01*
X12014258Y-12819186D01*
X12022624Y-12805040D01*
X12026400Y-12792042D01*
X12027210Y-12789257D01*
X12027210Y-12789257D01*
X12027500Y-12785570D01*
X12027500Y-12785569D01*
X12027500Y-12742431D01*
X12027210Y-12738743D01*
X12026021Y-12734650D01*
X12022688Y-12723179D01*
X12022624Y-12722960D01*
X12014258Y-12708813D01*
X12014258Y-12708813D01*
X12014258Y-12708813D01*
X12002637Y-12697192D01*
X12002636Y-12697192D01*
X11992730Y-12691333D01*
X11988490Y-12688826D01*
X11988490Y-12688825D01*
X11988490Y-12688825D01*
X11988489Y-12688825D01*
X11972707Y-12684240D01*
X11972707Y-12684240D01*
X11969020Y-12683950D01*
X11969019Y-12683950D01*
X11859610Y-12683950D01*
X11856665Y-12683085D01*
X11853667Y-12682433D01*
X11853165Y-12682058D01*
X11852906Y-12681981D01*
X11850841Y-12680318D01*
X11849282Y-12678758D01*
X11845933Y-12672625D01*
X11845650Y-12669990D01*
X11845650Y-12557250D01*
X11847618Y-12550546D01*
X11852899Y-12545971D01*
X11858050Y-12544850D01*
X11970419Y-12544850D01*
X11970419Y-12544850D01*
X11974107Y-12544560D01*
X11974107Y-12544560D01*
X11974107Y-12544560D01*
X11978269Y-12543350D01*
X11989890Y-12539974D01*
X12004036Y-12531608D01*
X12007163Y-12528482D01*
X12013295Y-12525133D01*
X12015931Y-12524850D01*
X12088333Y-12524850D01*
X12088335Y-12524850D01*
X12089094Y-12524850D01*
X12104905Y-12524850D01*
X12104906Y-12524850D01*
X12120178Y-12520758D01*
X12126614Y-12517042D01*
X12133872Y-12512852D01*
X12145052Y-12501672D01*
X12145052Y-12501671D01*
X12146072Y-12500651D01*
X12146072Y-12500651D01*
X12187842Y-12458882D01*
X12193974Y-12455533D01*
X12196610Y-12455250D01*
X12240191Y-12455250D01*
X12246895Y-12457218D01*
X12251470Y-12462499D01*
X12252527Y-12466390D01*
X12253200Y-12472980D01*
X12253200Y-12472980D01*
X12258718Y-12489633D01*
X12258719Y-12489634D01*
X12260089Y-12491855D01*
X12267929Y-12504566D01*
X12280334Y-12516971D01*
X12295267Y-12526181D01*
X12311920Y-12531700D01*
X12322199Y-12532750D01*
X12412201Y-12532750D01*
X12412202Y-12532750D01*
X12412202Y-12532750D01*
X12417830Y-12532175D01*
X12422480Y-12531700D01*
X12439133Y-12526181D01*
X12454066Y-12516971D01*
X12466471Y-12504566D01*
X12475681Y-12489633D01*
X12481200Y-12472980D01*
X12482250Y-12462701D01*
X12482250Y-12327699D01*
X12481200Y-12317420D01*
X12475681Y-12300767D01*
X12466471Y-12285834D01*
X12454066Y-12273429D01*
X12439133Y-12264219D01*
X12422480Y-12258700D01*
X12422479Y-12258700D01*
X12412201Y-12257650D01*
X12322200Y-12257650D01*
X12322198Y-12257650D01*
X12311920Y-12258700D01*
X12311920Y-12258700D01*
X12295267Y-12264218D01*
X12295266Y-12264219D01*
X12280334Y-12273429D01*
X12267929Y-12285834D01*
X12267928Y-12285835D01*
X12259409Y-12299647D01*
X12259296Y-12299749D01*
X12259252Y-12299895D01*
X12256706Y-12302078D01*
X12254214Y-12304319D01*
X12254063Y-12304344D01*
X12253947Y-12304443D01*
X12250627Y-12304903D01*
X12247318Y-12305441D01*
X12247178Y-12305380D01*
X12247027Y-12305401D01*
X12243984Y-12303993D01*
X12240910Y-12302657D01*
X12240825Y-12302530D01*
X12240686Y-12302466D01*
X12238889Y-12299636D01*
X12237024Y-12296850D01*
X12236995Y-12296656D01*
X12236940Y-12296568D01*
X12236898Y-12296009D01*
X12236456Y-12293072D01*
X12236461Y-12291936D01*
X12236550Y-12291606D01*
X12236550Y-12275794D01*
X12236550Y-12275794D01*
X12236550Y-12007744D01*
X12238518Y-12001040D01*
X12243799Y-11996465D01*
X12245049Y-11995974D01*
X12254683Y-11992781D01*
X12269615Y-11983571D01*
X12282021Y-11971165D01*
X12291231Y-11956233D01*
X12296750Y-11939580D01*
X12297800Y-11929301D01*
X12297800Y-11794299D01*
X12297800Y-11794298D01*
X12352700Y-11794298D01*
X12352700Y-11929301D01*
X12353750Y-11939579D01*
X12353750Y-11939580D01*
X12359269Y-11956233D01*
X12359269Y-11956234D01*
X12368479Y-11971165D01*
X12368479Y-11971165D01*
X12380884Y-11983571D01*
X12380885Y-11983571D01*
X12395816Y-11992781D01*
X12395816Y-11992781D01*
X12395817Y-11992781D01*
X12412470Y-11998300D01*
X12422749Y-11999350D01*
X12422750Y-11999350D01*
X12525250Y-11999350D01*
X12525251Y-11999350D01*
X12535530Y-11998300D01*
X12552183Y-11992781D01*
X12567115Y-11983571D01*
X12579521Y-11971165D01*
X12588731Y-11956233D01*
X12594250Y-11939580D01*
X12594923Y-11932990D01*
X12595022Y-11932746D01*
X12594985Y-11932485D01*
X12596335Y-11929529D01*
X12597563Y-11926521D01*
X12597778Y-11926369D01*
X12597888Y-11926130D01*
X12600622Y-11924373D01*
X12603281Y-11922505D01*
X12603612Y-11922451D01*
X12603765Y-11922352D01*
X12607259Y-11921850D01*
X12621191Y-11921850D01*
X12627895Y-11923818D01*
X12632470Y-11929099D01*
X12633527Y-11932990D01*
X12634200Y-11939580D01*
X12634200Y-11939580D01*
X12639718Y-11956233D01*
X12639719Y-11956233D01*
X12648929Y-11971166D01*
X12661334Y-11983571D01*
X12676267Y-11992781D01*
X12692920Y-11998300D01*
X12703199Y-11999350D01*
X12793201Y-11999350D01*
X12793202Y-11999350D01*
X12793202Y-11999350D01*
X12799300Y-11998727D01*
X12803480Y-11998300D01*
X12820133Y-11992781D01*
X12835066Y-11983571D01*
X12847471Y-11971166D01*
X12856681Y-11956233D01*
X12862200Y-11939580D01*
X12863250Y-11929301D01*
X12863250Y-11794299D01*
X12862200Y-11784020D01*
X12856681Y-11767367D01*
X12847471Y-11752434D01*
X12835066Y-11740029D01*
X12820133Y-11730819D01*
X12803480Y-11725300D01*
X12803479Y-11725300D01*
X12793201Y-11724250D01*
X12703200Y-11724250D01*
X12703198Y-11724250D01*
X12692920Y-11725300D01*
X12692920Y-11725300D01*
X12676267Y-11730818D01*
X12676266Y-11730819D01*
X12661334Y-11740029D01*
X12648929Y-11752434D01*
X12639719Y-11767366D01*
X12639718Y-11767367D01*
X12634200Y-11784020D01*
X12634200Y-11784020D01*
X12633527Y-11790610D01*
X12633427Y-11790854D01*
X12633465Y-11791115D01*
X12632114Y-11794071D01*
X12630887Y-11797079D01*
X12630672Y-11797231D01*
X12630562Y-11797470D01*
X12627828Y-11799227D01*
X12625169Y-11801095D01*
X12624838Y-11801149D01*
X12624684Y-11801248D01*
X12621191Y-11801750D01*
X12607259Y-11801750D01*
X12600555Y-11799781D01*
X12595979Y-11794501D01*
X12594923Y-11790610D01*
X12594250Y-11784020D01*
X12594250Y-11784020D01*
X12594250Y-11784020D01*
X12588731Y-11767367D01*
X12588731Y-11767366D01*
X12588731Y-11767366D01*
X12579521Y-11752435D01*
X12579521Y-11752434D01*
X12567115Y-11740029D01*
X12567115Y-11740029D01*
X12552184Y-11730819D01*
X12552183Y-11730819D01*
X12540300Y-11726881D01*
X12535530Y-11725300D01*
X12535529Y-11725300D01*
X12525251Y-11724250D01*
X12525251Y-11724250D01*
X12422749Y-11724250D01*
X12422748Y-11724250D01*
X12412470Y-11725300D01*
X12412470Y-11725300D01*
X12395816Y-11730819D01*
X12395816Y-11730819D01*
X12380885Y-11740029D01*
X12380884Y-11740029D01*
X12368479Y-11752434D01*
X12368479Y-11752435D01*
X12359269Y-11767366D01*
X12359269Y-11767366D01*
X12353750Y-11784020D01*
X12353750Y-11784020D01*
X12352700Y-11794298D01*
X12297800Y-11794298D01*
X12296750Y-11784020D01*
X12291231Y-11767367D01*
X12291231Y-11767366D01*
X12291231Y-11767366D01*
X12282021Y-11752435D01*
X12282021Y-11752434D01*
X12269615Y-11740029D01*
X12269615Y-11740029D01*
X12254684Y-11730819D01*
X12254683Y-11730819D01*
X12242800Y-11726881D01*
X12238030Y-11725300D01*
X12238029Y-11725300D01*
X12227751Y-11724250D01*
X12227751Y-11724250D01*
X12125249Y-11724250D01*
X12125248Y-11724250D01*
X12114970Y-11725300D01*
X12114970Y-11725300D01*
X12098316Y-11730819D01*
X12098316Y-11730819D01*
X12083385Y-11740029D01*
X12083384Y-11740029D01*
X12070979Y-11752434D01*
X12070979Y-11752435D01*
X12061769Y-11767366D01*
X12061769Y-11767366D01*
X12056250Y-11784020D01*
X12056250Y-11784020D01*
X12055200Y-11794298D01*
X12055200Y-11929301D01*
X12056250Y-11939579D01*
X12056250Y-11939580D01*
X12061769Y-11956233D01*
X12061769Y-11956234D01*
X12070979Y-11971165D01*
X12070979Y-11971165D01*
X12083384Y-11983571D01*
X12083385Y-11983571D01*
X12098316Y-11992781D01*
X12098316Y-11992781D01*
X12098317Y-11992781D01*
X12107950Y-11995974D01*
X12113695Y-11999951D01*
X12116377Y-12006402D01*
X12116450Y-12007744D01*
X12116450Y-12253690D01*
X12114481Y-12260394D01*
X12112818Y-12262458D01*
X12069158Y-12306118D01*
X12066466Y-12307588D01*
X12063884Y-12309248D01*
X12063264Y-12309337D01*
X12063026Y-12309467D01*
X12060390Y-12309750D01*
X12041261Y-12309750D01*
X12034557Y-12307781D01*
X12029982Y-12302501D01*
X12028941Y-12296615D01*
X12028890Y-12296613D01*
X12028899Y-12296379D01*
X12028899Y-12296378D01*
X12028900Y-12296372D01*
X12028900Y-12296369D01*
X12028900Y-12253231D01*
X12028610Y-12249543D01*
X12028610Y-12249543D01*
X12023942Y-12233478D01*
X12023450Y-12230018D01*
X12023450Y-11553250D01*
X12023705Y-11552381D01*
X12023576Y-11551485D01*
X12024674Y-11549081D01*
X12025418Y-11546546D01*
X12026102Y-11545953D01*
X12026479Y-11545130D01*
X12028702Y-11543701D01*
X12030699Y-11541971D01*
X12031750Y-11541742D01*
X12032356Y-11541352D01*
X12035850Y-11540850D01*
X12043241Y-11540850D01*
X12049945Y-11542818D01*
X12054520Y-11548099D01*
X12055577Y-11551990D01*
X12056250Y-11558579D01*
X12056250Y-11558580D01*
X12061769Y-11575233D01*
X12061769Y-11575234D01*
X12070979Y-11590165D01*
X12070979Y-11590165D01*
X12083384Y-11602571D01*
X12083385Y-11602571D01*
X12098316Y-11611781D01*
X12098316Y-11611781D01*
X12098317Y-11611781D01*
X12114970Y-11617300D01*
X12125249Y-11618350D01*
X12125250Y-11618350D01*
X12227750Y-11618350D01*
X12227751Y-11618350D01*
X12238030Y-11617300D01*
X12254683Y-11611781D01*
X12269615Y-11602571D01*
X12282021Y-11590165D01*
X12291231Y-11575233D01*
X12296750Y-11558580D01*
X12297800Y-11548301D01*
X12297800Y-11413299D01*
X12297800Y-11413298D01*
X12352700Y-11413298D01*
X12352700Y-11548301D01*
X12353750Y-11558579D01*
X12353750Y-11558580D01*
X12359269Y-11575233D01*
X12359269Y-11575234D01*
X12368479Y-11590165D01*
X12368479Y-11590165D01*
X12380884Y-11602571D01*
X12380885Y-11602571D01*
X12395816Y-11611781D01*
X12395816Y-11611781D01*
X12395817Y-11611781D01*
X12412470Y-11617300D01*
X12422749Y-11618350D01*
X12422750Y-11618350D01*
X12525250Y-11618350D01*
X12525251Y-11618350D01*
X12535530Y-11617300D01*
X12552183Y-11611781D01*
X12567115Y-11602571D01*
X12579521Y-11590165D01*
X12588731Y-11575233D01*
X12594250Y-11558580D01*
X12594923Y-11551990D01*
X12595022Y-11551746D01*
X12594985Y-11551485D01*
X12596335Y-11548529D01*
X12597563Y-11545521D01*
X12597778Y-11545369D01*
X12597888Y-11545130D01*
X12600622Y-11543373D01*
X12603281Y-11541505D01*
X12603612Y-11541451D01*
X12603765Y-11541352D01*
X12607259Y-11540850D01*
X12621191Y-11540850D01*
X12627895Y-11542818D01*
X12632470Y-11548099D01*
X12633527Y-11551990D01*
X12634200Y-11558580D01*
X12634200Y-11558580D01*
X12635472Y-11562418D01*
X12639719Y-11575233D01*
X12648929Y-11590166D01*
X12661334Y-11602571D01*
X12676267Y-11611781D01*
X12692920Y-11617300D01*
X12703199Y-11618350D01*
X12793201Y-11618350D01*
X12793202Y-11618350D01*
X12793202Y-11618350D01*
X12798830Y-11617775D01*
X12803480Y-11617300D01*
X12820133Y-11611781D01*
X12835066Y-11602571D01*
X12847471Y-11590166D01*
X12856681Y-11575233D01*
X12862200Y-11558580D01*
X12863250Y-11548301D01*
X12863250Y-11413299D01*
X12862997Y-11410824D01*
X12862200Y-11403020D01*
X12862200Y-11403020D01*
X12861417Y-11400658D01*
X12856681Y-11386367D01*
X12847471Y-11371434D01*
X12835066Y-11359029D01*
X12820133Y-11349819D01*
X12803480Y-11344300D01*
X12803479Y-11344300D01*
X12793201Y-11343250D01*
X12703200Y-11343250D01*
X12703198Y-11343250D01*
X12692920Y-11344300D01*
X12692920Y-11344300D01*
X12676267Y-11349818D01*
X12676266Y-11349819D01*
X12661334Y-11359029D01*
X12648929Y-11371434D01*
X12639719Y-11386366D01*
X12639718Y-11386367D01*
X12634200Y-11403020D01*
X12634200Y-11403020D01*
X12633527Y-11409610D01*
X12633427Y-11409854D01*
X12633465Y-11410115D01*
X12632114Y-11413071D01*
X12630887Y-11416079D01*
X12630672Y-11416231D01*
X12630562Y-11416470D01*
X12627828Y-11418227D01*
X12625169Y-11420095D01*
X12624838Y-11420149D01*
X12624684Y-11420248D01*
X12621191Y-11420750D01*
X12607259Y-11420750D01*
X12600555Y-11418781D01*
X12595979Y-11413501D01*
X12594923Y-11409610D01*
X12594250Y-11403020D01*
X12594250Y-11403020D01*
X12594250Y-11403020D01*
X12588731Y-11386367D01*
X12588731Y-11386366D01*
X12588731Y-11386366D01*
X12579521Y-11371435D01*
X12579521Y-11371434D01*
X12567115Y-11359029D01*
X12567115Y-11359029D01*
X12552184Y-11349819D01*
X12552183Y-11349819D01*
X12540300Y-11345881D01*
X12535530Y-11344300D01*
X12535529Y-11344300D01*
X12525251Y-11343250D01*
X12525251Y-11343250D01*
X12422749Y-11343250D01*
X12422748Y-11343250D01*
X12412470Y-11344300D01*
X12412470Y-11344300D01*
X12395816Y-11349819D01*
X12395816Y-11349819D01*
X12380885Y-11359029D01*
X12380884Y-11359029D01*
X12368479Y-11371434D01*
X12368479Y-11371435D01*
X12359269Y-11386366D01*
X12359269Y-11386366D01*
X12353750Y-11403020D01*
X12353750Y-11403020D01*
X12352700Y-11413298D01*
X12297800Y-11413298D01*
X12296750Y-11403020D01*
X12291231Y-11386367D01*
X12291231Y-11386366D01*
X12291231Y-11386366D01*
X12282021Y-11371435D01*
X12282021Y-11371434D01*
X12269615Y-11359029D01*
X12269615Y-11359029D01*
X12254684Y-11349819D01*
X12254683Y-11349819D01*
X12242800Y-11345881D01*
X12238030Y-11344300D01*
X12238029Y-11344300D01*
X12227751Y-11343250D01*
X12227751Y-11343250D01*
X12125249Y-11343250D01*
X12125248Y-11343250D01*
X12114970Y-11344300D01*
X12114970Y-11344300D01*
X12098316Y-11349819D01*
X12098316Y-11349819D01*
X12083385Y-11359029D01*
X12083384Y-11359029D01*
X12070979Y-11371434D01*
X12070979Y-11371435D01*
X12061769Y-11386366D01*
X12061769Y-11386366D01*
X12056250Y-11403020D01*
X12056250Y-11403020D01*
X12055577Y-11409610D01*
X12055477Y-11409854D01*
X12055515Y-11410115D01*
X12054165Y-11413071D01*
X12052937Y-11416079D01*
X12052722Y-11416231D01*
X12052612Y-11416470D01*
X12049878Y-11418227D01*
X12047219Y-11420094D01*
X12046888Y-11420149D01*
X12046735Y-11420248D01*
X12043241Y-11420750D01*
X12035850Y-11420750D01*
X12029146Y-11418781D01*
X12024571Y-11413501D01*
X12023450Y-11408350D01*
X12023450Y-11147710D01*
X12025418Y-11141006D01*
X12030699Y-11136430D01*
X12037615Y-11135436D01*
X12043970Y-11138338D01*
X12044617Y-11138941D01*
X12051568Y-11145892D01*
X12054917Y-11152024D01*
X12055200Y-11154660D01*
X12055200Y-11167302D01*
X12056250Y-11177580D01*
X12056250Y-11177580D01*
X12061769Y-11194233D01*
X12061769Y-11194234D01*
X12070979Y-11209165D01*
X12070979Y-11209165D01*
X12083384Y-11221571D01*
X12083385Y-11221571D01*
X12098316Y-11230781D01*
X12098316Y-11230781D01*
X12098317Y-11230781D01*
X12114970Y-11236300D01*
X12125249Y-11237350D01*
X12125250Y-11237350D01*
X12227750Y-11237350D01*
X12227751Y-11237350D01*
X12238030Y-11236300D01*
X12254683Y-11230781D01*
X12269615Y-11221571D01*
X12282021Y-11209165D01*
X12291231Y-11194233D01*
X12296750Y-11177580D01*
X12297800Y-11167301D01*
X12297800Y-11032299D01*
X12297800Y-11032298D01*
X12352700Y-11032298D01*
X12352700Y-11167302D01*
X12353750Y-11177580D01*
X12353750Y-11177580D01*
X12359269Y-11194233D01*
X12359269Y-11194234D01*
X12368479Y-11209165D01*
X12368479Y-11209165D01*
X12380884Y-11221571D01*
X12380885Y-11221571D01*
X12395816Y-11230781D01*
X12395816Y-11230781D01*
X12395817Y-11230781D01*
X12412470Y-11236300D01*
X12422749Y-11237350D01*
X12422750Y-11237350D01*
X12525250Y-11237350D01*
X12525251Y-11237350D01*
X12535530Y-11236300D01*
X12552183Y-11230781D01*
X12567115Y-11221571D01*
X12579521Y-11209165D01*
X12588731Y-11194233D01*
X12594250Y-11177580D01*
X12594923Y-11170990D01*
X12595022Y-11170746D01*
X12594985Y-11170485D01*
X12596335Y-11167529D01*
X12597563Y-11164521D01*
X12597778Y-11164369D01*
X12597888Y-11164130D01*
X12600622Y-11162373D01*
X12603281Y-11160506D01*
X12603612Y-11160451D01*
X12603765Y-11160352D01*
X12607259Y-11159850D01*
X12621191Y-11159850D01*
X12627895Y-11161819D01*
X12632470Y-11167099D01*
X12633527Y-11170990D01*
X12634200Y-11177580D01*
X12634200Y-11177580D01*
X12637394Y-11187218D01*
X12639719Y-11194233D01*
X12648929Y-11209166D01*
X12661334Y-11221571D01*
X12676267Y-11230781D01*
X12692920Y-11236300D01*
X12703199Y-11237350D01*
X12793201Y-11237350D01*
X12793202Y-11237350D01*
X12793202Y-11237350D01*
X12798830Y-11236775D01*
X12803480Y-11236300D01*
X12820133Y-11230781D01*
X12835066Y-11221571D01*
X12847471Y-11209166D01*
X12856681Y-11194233D01*
X12862200Y-11177580D01*
X12863250Y-11167301D01*
X12863250Y-11032299D01*
X12863196Y-11031769D01*
X12862200Y-11022020D01*
X12862200Y-11022020D01*
X12859335Y-11013376D01*
X12856681Y-11005367D01*
X12847471Y-10990434D01*
X12835066Y-10978029D01*
X12820133Y-10968819D01*
X12803480Y-10963300D01*
X12803479Y-10963300D01*
X12793201Y-10962250D01*
X12703200Y-10962250D01*
X12703198Y-10962250D01*
X12692920Y-10963300D01*
X12692920Y-10963300D01*
X12676267Y-10968819D01*
X12676266Y-10968819D01*
X12661334Y-10978029D01*
X12648929Y-10990434D01*
X12639719Y-11005366D01*
X12639718Y-11005367D01*
X12638432Y-11009249D01*
X12634372Y-11021501D01*
X12634200Y-11022020D01*
X12634200Y-11022021D01*
X12633527Y-11028610D01*
X12633427Y-11028854D01*
X12633465Y-11029115D01*
X12632114Y-11032071D01*
X12630887Y-11035080D01*
X12630672Y-11035231D01*
X12630562Y-11035470D01*
X12627828Y-11037227D01*
X12625169Y-11039095D01*
X12624838Y-11039149D01*
X12624684Y-11039248D01*
X12621191Y-11039750D01*
X12607259Y-11039750D01*
X12600555Y-11037782D01*
X12595979Y-11032501D01*
X12594923Y-11028610D01*
X12594650Y-11025935D01*
X12594250Y-11022020D01*
X12588731Y-11005367D01*
X12588731Y-11005366D01*
X12588731Y-11005366D01*
X12579521Y-10990435D01*
X12579521Y-10990434D01*
X12567115Y-10978029D01*
X12567115Y-10978029D01*
X12552184Y-10968819D01*
X12552183Y-10968819D01*
X12542808Y-10965712D01*
X12535530Y-10963300D01*
X12535529Y-10963300D01*
X12525251Y-10962250D01*
X12525251Y-10962250D01*
X12422749Y-10962250D01*
X12422748Y-10962250D01*
X12412470Y-10963300D01*
X12412470Y-10963300D01*
X12395816Y-10968819D01*
X12395816Y-10968819D01*
X12380885Y-10978029D01*
X12380884Y-10978029D01*
X12368479Y-10990434D01*
X12368479Y-10990435D01*
X12359269Y-11005366D01*
X12359269Y-11005366D01*
X12353750Y-11022020D01*
X12353750Y-11022020D01*
X12352700Y-11032298D01*
X12297800Y-11032298D01*
X12296750Y-11022020D01*
X12291231Y-11005367D01*
X12291231Y-11005366D01*
X12291231Y-11005366D01*
X12282021Y-10990435D01*
X12282021Y-10990434D01*
X12269615Y-10978029D01*
X12269615Y-10978029D01*
X12254684Y-10968819D01*
X12254683Y-10968819D01*
X12245308Y-10965712D01*
X12238030Y-10963300D01*
X12238029Y-10963300D01*
X12227751Y-10962250D01*
X12227751Y-10962250D01*
X12125249Y-10962250D01*
X12125248Y-10962250D01*
X12114970Y-10963300D01*
X12114970Y-10963300D01*
X12098316Y-10968819D01*
X12093160Y-10971999D01*
X12086420Y-10973843D01*
X12079754Y-10971751D01*
X12075277Y-10966387D01*
X12074250Y-10961446D01*
X12074250Y-10063010D01*
X12076218Y-10056306D01*
X12077882Y-10054242D01*
X12264042Y-9868082D01*
X12270174Y-9864733D01*
X12272810Y-9864450D01*
X13910533Y-9864450D01*
X13910535Y-9864450D01*
X13911294Y-9864450D01*
X13927105Y-9864450D01*
X13927106Y-9864450D01*
X13942378Y-9860358D01*
X13947390Y-9857464D01*
X13956072Y-9852452D01*
X13967252Y-9841272D01*
X13967252Y-9841271D01*
X13968273Y-9840251D01*
X13968273Y-9840250D01*
X14043452Y-9765072D01*
X14051358Y-9751378D01*
X14055450Y-9736106D01*
X14055450Y-9720294D01*
X14055450Y-9719535D01*
X14055450Y-9719533D01*
X14055450Y-9677897D01*
X14057418Y-9671193D01*
X14062699Y-9666617D01*
X14063105Y-9666440D01*
X14075204Y-9661429D01*
X14075204Y-9661429D01*
X14075205Y-9661428D01*
X14095645Y-9649627D01*
X14114370Y-9635259D01*
X14116463Y-9633166D01*
X14119865Y-9629764D01*
X14131059Y-9618570D01*
X14131059Y-9618570D01*
X14145427Y-9599845D01*
X14157228Y-9579405D01*
X14166261Y-9557599D01*
X14172369Y-9534801D01*
X14175450Y-9511401D01*
X14175450Y-9487801D01*
X14323400Y-9487801D01*
X14323400Y-9511399D01*
X14326480Y-9534791D01*
X14332587Y-9557584D01*
X14341616Y-9579382D01*
X14341616Y-9579383D01*
X14353414Y-9599817D01*
X14353414Y-9599817D01*
X14359672Y-9607972D01*
X14443296Y-9524349D01*
X14445798Y-9530389D01*
X14452911Y-9541035D01*
X14461965Y-9550089D01*
X14472611Y-9557202D01*
X14478651Y-9559704D01*
X14395027Y-9643328D01*
X14403183Y-9649585D01*
X14403183Y-9649586D01*
X14423617Y-9661383D01*
X14423618Y-9661384D01*
X14445416Y-9670413D01*
X14445416Y-9670413D01*
X14468208Y-9676520D01*
X14491601Y-9679600D01*
X14491603Y-9679600D01*
X14515197Y-9679600D01*
X14515198Y-9679600D01*
X14538591Y-9676520D01*
X14561384Y-9670413D01*
X14583182Y-9661384D01*
X14583183Y-9661383D01*
X14603618Y-9649585D01*
X14611772Y-9643328D01*
X14611772Y-9643328D01*
X14528149Y-9559704D01*
X14534189Y-9557202D01*
X14544835Y-9550089D01*
X14553889Y-9541035D01*
X14561002Y-9530389D01*
X14563504Y-9524349D01*
X14647128Y-9607972D01*
X14647128Y-9607972D01*
X14653385Y-9599818D01*
X14665183Y-9579383D01*
X14665184Y-9579382D01*
X14674213Y-9557584D01*
X14680320Y-9534791D01*
X14683400Y-9511399D01*
X14683400Y-9511397D01*
X14683400Y-9487803D01*
X14683400Y-9487801D01*
X14831400Y-9487801D01*
X14831400Y-9511399D01*
X14834480Y-9534791D01*
X14840587Y-9557584D01*
X14849616Y-9579382D01*
X14849616Y-9579383D01*
X14861414Y-9599817D01*
X14861414Y-9599817D01*
X14867672Y-9607972D01*
X14951296Y-9524349D01*
X14953798Y-9530389D01*
X14960911Y-9541035D01*
X14969965Y-9550089D01*
X14980611Y-9557202D01*
X14986651Y-9559704D01*
X14903027Y-9643328D01*
X14911183Y-9649585D01*
X14911183Y-9649586D01*
X14931617Y-9661383D01*
X14931618Y-9661384D01*
X14953416Y-9670413D01*
X14953416Y-9670413D01*
X14976208Y-9676520D01*
X14999601Y-9679600D01*
X14999603Y-9679600D01*
X15023197Y-9679600D01*
X15023198Y-9679600D01*
X15046591Y-9676520D01*
X15069384Y-9670413D01*
X15091182Y-9661384D01*
X15091183Y-9661383D01*
X15111618Y-9649585D01*
X15119772Y-9643328D01*
X15119772Y-9643328D01*
X15036149Y-9559704D01*
X15042189Y-9557202D01*
X15052835Y-9550089D01*
X15061889Y-9541035D01*
X15069002Y-9530389D01*
X15071504Y-9524349D01*
X15155128Y-9607972D01*
X15155128Y-9607972D01*
X15161385Y-9599818D01*
X15173183Y-9579383D01*
X15173184Y-9579382D01*
X15182213Y-9557584D01*
X15188320Y-9534791D01*
X15191400Y-9511399D01*
X15191400Y-9511397D01*
X15191400Y-9487803D01*
X15191400Y-9487801D01*
X15188320Y-9464409D01*
X15182213Y-9441616D01*
X15173184Y-9419818D01*
X15173183Y-9419817D01*
X15161385Y-9399383D01*
X15161385Y-9399383D01*
X15155128Y-9391228D01*
X15071504Y-9474851D01*
X15069002Y-9468811D01*
X15061889Y-9458165D01*
X15052835Y-9449111D01*
X15042189Y-9441998D01*
X15036149Y-9439496D01*
X15119772Y-9355872D01*
X15111617Y-9349615D01*
X15111617Y-9349614D01*
X15091183Y-9337817D01*
X15091182Y-9337816D01*
X15069384Y-9328787D01*
X15069384Y-9328787D01*
X15046591Y-9322680D01*
X15023198Y-9319600D01*
X14999601Y-9319600D01*
X14976208Y-9322680D01*
X14953416Y-9328787D01*
X14931618Y-9337816D01*
X14931617Y-9337817D01*
X14911183Y-9349614D01*
X14911182Y-9349615D01*
X14903027Y-9355872D01*
X14903027Y-9355872D01*
X14986651Y-9439496D01*
X14980611Y-9441998D01*
X14969965Y-9449111D01*
X14960911Y-9458165D01*
X14953798Y-9468811D01*
X14951296Y-9474851D01*
X14867672Y-9391228D01*
X14867672Y-9391228D01*
X14861415Y-9399382D01*
X14861414Y-9399383D01*
X14849616Y-9419817D01*
X14849616Y-9419818D01*
X14840587Y-9441616D01*
X14834480Y-9464409D01*
X14831400Y-9487801D01*
X14683400Y-9487801D01*
X14680320Y-9464409D01*
X14674213Y-9441616D01*
X14665184Y-9419818D01*
X14665183Y-9419817D01*
X14653385Y-9399383D01*
X14653385Y-9399383D01*
X14647128Y-9391228D01*
X14563504Y-9474851D01*
X14561002Y-9468811D01*
X14553889Y-9458165D01*
X14544835Y-9449111D01*
X14534189Y-9441998D01*
X14528149Y-9439496D01*
X14611772Y-9355872D01*
X14603617Y-9349615D01*
X14603617Y-9349614D01*
X14583183Y-9337817D01*
X14583182Y-9337816D01*
X14561384Y-9328787D01*
X14561384Y-9328787D01*
X14538591Y-9322680D01*
X14515198Y-9319600D01*
X14491601Y-9319600D01*
X14468208Y-9322680D01*
X14445416Y-9328787D01*
X14423618Y-9337816D01*
X14423617Y-9337817D01*
X14403183Y-9349614D01*
X14403182Y-9349615D01*
X14395027Y-9355872D01*
X14395027Y-9355872D01*
X14478651Y-9439496D01*
X14472611Y-9441998D01*
X14461965Y-9449111D01*
X14452911Y-9458165D01*
X14445798Y-9468811D01*
X14443296Y-9474851D01*
X14359672Y-9391228D01*
X14359672Y-9391228D01*
X14353415Y-9399382D01*
X14353414Y-9399383D01*
X14341616Y-9419817D01*
X14341616Y-9419818D01*
X14332587Y-9441616D01*
X14326480Y-9464409D01*
X14323400Y-9487801D01*
X14175450Y-9487801D01*
X14175450Y-9487799D01*
X14172369Y-9464399D01*
X14166261Y-9441601D01*
X14157228Y-9419795D01*
X14157228Y-9419795D01*
X14157228Y-9419794D01*
X14153012Y-9412492D01*
X14145427Y-9399355D01*
X14131059Y-9380630D01*
X14131059Y-9380630D01*
X14114370Y-9363941D01*
X14114370Y-9363941D01*
X14095645Y-9349573D01*
X14095645Y-9349573D01*
X14095645Y-9349573D01*
X14087496Y-9344868D01*
X14075206Y-9337772D01*
X14075204Y-9337771D01*
X14053399Y-9328739D01*
X14030601Y-9322631D01*
X14007202Y-9319550D01*
X14007202Y-9319550D01*
X14007201Y-9319550D01*
X13983599Y-9319550D01*
X13983598Y-9319550D01*
X13983598Y-9319550D01*
X13960199Y-9322631D01*
X13937401Y-9328739D01*
X13915595Y-9337771D01*
X13915594Y-9337772D01*
X13895154Y-9349573D01*
X13876430Y-9363941D01*
X13876429Y-9363941D01*
X13859741Y-9380630D01*
X13859741Y-9380630D01*
X13845373Y-9399355D01*
X13845373Y-9399355D01*
X13845373Y-9399355D01*
X13844601Y-9400691D01*
X13833572Y-9419794D01*
X13833571Y-9419795D01*
X13824539Y-9441601D01*
X13818431Y-9464399D01*
X13815350Y-9487798D01*
X13815350Y-9487800D01*
X13815350Y-9511400D01*
X13815350Y-9511402D01*
X13818429Y-9534791D01*
X13818431Y-9534801D01*
X13818586Y-9535382D01*
X13824539Y-9557599D01*
X13833571Y-9579405D01*
X13833572Y-9579406D01*
X13839481Y-9589640D01*
X13845373Y-9599845D01*
X13845373Y-9599845D01*
X13845373Y-9599845D01*
X13859741Y-9618570D01*
X13859741Y-9618570D01*
X13876429Y-9635259D01*
X13876430Y-9635259D01*
X13887431Y-9643700D01*
X13895155Y-9649627D01*
X13915595Y-9661428D01*
X13915596Y-9661429D01*
X13915596Y-9661429D01*
X13927695Y-9666440D01*
X13929252Y-9667695D01*
X13931070Y-9668525D01*
X13931917Y-9669842D01*
X13933136Y-9670824D01*
X13933767Y-9672721D01*
X13934848Y-9674403D01*
X13935244Y-9677159D01*
X13935342Y-9677454D01*
X13935350Y-9677897D01*
X13935350Y-9698190D01*
X13933381Y-9704894D01*
X13931718Y-9706958D01*
X13897958Y-9740718D01*
X13891826Y-9744067D01*
X13889190Y-9744350D01*
X13357510Y-9744350D01*
X13350806Y-9742382D01*
X13346230Y-9737101D01*
X13345236Y-9730185D01*
X13348138Y-9723830D01*
X13348742Y-9723182D01*
X13359422Y-9712502D01*
X13403787Y-9668136D01*
X13409919Y-9664788D01*
X13416888Y-9665286D01*
X13417300Y-9665448D01*
X13429401Y-9670461D01*
X13452199Y-9676569D01*
X13475599Y-9679650D01*
X13475600Y-9679650D01*
X13499200Y-9679650D01*
X13499201Y-9679650D01*
X13522601Y-9676569D01*
X13545399Y-9670461D01*
X13567205Y-9661428D01*
X13587645Y-9649627D01*
X13606370Y-9635259D01*
X13623059Y-9618570D01*
X13637427Y-9599845D01*
X13649228Y-9579405D01*
X13658261Y-9557599D01*
X13664369Y-9534801D01*
X13667450Y-9511401D01*
X13667450Y-9487799D01*
X13664369Y-9464399D01*
X13658261Y-9441601D01*
X13649228Y-9419795D01*
X13649228Y-9419795D01*
X13649228Y-9419794D01*
X13645012Y-9412492D01*
X13637427Y-9399355D01*
X13623059Y-9380630D01*
X13623059Y-9380630D01*
X13606370Y-9363941D01*
X13606370Y-9363941D01*
X13587645Y-9349573D01*
X13587645Y-9349573D01*
X13587645Y-9349573D01*
X13579496Y-9344868D01*
X13567206Y-9337772D01*
X13567204Y-9337771D01*
X13545399Y-9328739D01*
X13522601Y-9322631D01*
X13499202Y-9319550D01*
X13499202Y-9319550D01*
X13499201Y-9319550D01*
X13475599Y-9319550D01*
X13475598Y-9319550D01*
X13475598Y-9319550D01*
X13452199Y-9322631D01*
X13429401Y-9328739D01*
X13407595Y-9337771D01*
X13407594Y-9337772D01*
X13387154Y-9349573D01*
X13368430Y-9363941D01*
X13368429Y-9363941D01*
X13351741Y-9380630D01*
X13351741Y-9380630D01*
X13337373Y-9399355D01*
X13337373Y-9399355D01*
X13337373Y-9399355D01*
X13336601Y-9400691D01*
X13325572Y-9419794D01*
X13325571Y-9419795D01*
X13316539Y-9441601D01*
X13310431Y-9464399D01*
X13307350Y-9487798D01*
X13307350Y-9487800D01*
X13307350Y-9511400D01*
X13307350Y-9511402D01*
X13310429Y-9534791D01*
X13310431Y-9534801D01*
X13316539Y-9557599D01*
X13321198Y-9568846D01*
X13321551Y-9569699D01*
X13322298Y-9576646D01*
X13319171Y-9582894D01*
X13318863Y-9583213D01*
X13212158Y-9689918D01*
X13206026Y-9693267D01*
X13203390Y-9693550D01*
X13043995Y-9693550D01*
X13037292Y-9691582D01*
X13032716Y-9686301D01*
X13031722Y-9679385D01*
X13034624Y-9673030D01*
X13039250Y-9669694D01*
X13059205Y-9661428D01*
X13079645Y-9649627D01*
X13098370Y-9635259D01*
X13115059Y-9618570D01*
X13129427Y-9599845D01*
X13141228Y-9579405D01*
X13150261Y-9557599D01*
X13156369Y-9534801D01*
X13159450Y-9511401D01*
X13159450Y-9487799D01*
X13156369Y-9464399D01*
X13150261Y-9441601D01*
X13141228Y-9419795D01*
X13141228Y-9419795D01*
X13141228Y-9419794D01*
X13137012Y-9412492D01*
X13129427Y-9399355D01*
X13115059Y-9380630D01*
X13115059Y-9380630D01*
X13098370Y-9363941D01*
X13098370Y-9363941D01*
X13079645Y-9349573D01*
X13079645Y-9349573D01*
X13079645Y-9349573D01*
X13071496Y-9344868D01*
X13059206Y-9337772D01*
X13059204Y-9337771D01*
X13037399Y-9328739D01*
X13014601Y-9322631D01*
X12991202Y-9319550D01*
X12991202Y-9319550D01*
X12991201Y-9319550D01*
X12967599Y-9319550D01*
X12967598Y-9319550D01*
X12967598Y-9319550D01*
X12944199Y-9322631D01*
X12921401Y-9328739D01*
X12899595Y-9337771D01*
X12899594Y-9337772D01*
X12879154Y-9349573D01*
X12860430Y-9363941D01*
X12860429Y-9363941D01*
X12843741Y-9380630D01*
X12843741Y-9380630D01*
X12829373Y-9399355D01*
X12829373Y-9399355D01*
X12829373Y-9399355D01*
X12828601Y-9400691D01*
X12817572Y-9419794D01*
X12817571Y-9419795D01*
X12808539Y-9441601D01*
X12802431Y-9464399D01*
X12799350Y-9487798D01*
X12799350Y-9487800D01*
X12799350Y-9511400D01*
X12799350Y-9511402D01*
X12802429Y-9534791D01*
X12802431Y-9534801D01*
X12802586Y-9535382D01*
X12808539Y-9557599D01*
X12817571Y-9579405D01*
X12817572Y-9579406D01*
X12823481Y-9589640D01*
X12829373Y-9599845D01*
X12829373Y-9599845D01*
X12829373Y-9599845D01*
X12843741Y-9618570D01*
X12843741Y-9618570D01*
X12860429Y-9635259D01*
X12860430Y-9635259D01*
X12871431Y-9643700D01*
X12879155Y-9649627D01*
X12892292Y-9657212D01*
X12899594Y-9661428D01*
X12899595Y-9661428D01*
X12899595Y-9661428D01*
X12919550Y-9669694D01*
X12924990Y-9674078D01*
X12927197Y-9680707D01*
X12925469Y-9687477D01*
X12920355Y-9692238D01*
X12914804Y-9693550D01*
X12618872Y-9693550D01*
X12612168Y-9691582D01*
X12607593Y-9686301D01*
X12606599Y-9679385D01*
X12609501Y-9673030D01*
X12612363Y-9670596D01*
X12612582Y-9670461D01*
X12623266Y-9663871D01*
X12635671Y-9651466D01*
X12644881Y-9636533D01*
X12650400Y-9619880D01*
X12651450Y-9609601D01*
X12651450Y-9389599D01*
X12650400Y-9379320D01*
X12644881Y-9362667D01*
X12635671Y-9347734D01*
X12623266Y-9335329D01*
X12608333Y-9326119D01*
X12591680Y-9320600D01*
X12591679Y-9320600D01*
X12581401Y-9319550D01*
X12361400Y-9319550D01*
X12361398Y-9319550D01*
X12351120Y-9320600D01*
X12351120Y-9320600D01*
X12334467Y-9326119D01*
X12334466Y-9326119D01*
X12319534Y-9335329D01*
X12307129Y-9347734D01*
X12297919Y-9362666D01*
X12297918Y-9362667D01*
X12297496Y-9363941D01*
X12292400Y-9379320D01*
X12292400Y-9379320D01*
X12292400Y-9379320D01*
X12291350Y-9389598D01*
X12291350Y-9513390D01*
X12289381Y-9520094D01*
X12287718Y-9522158D01*
X11875729Y-9934148D01*
X11864548Y-9945328D01*
X11864548Y-9945329D01*
X11859750Y-9953638D01*
X11859750Y-9953638D01*
X11856642Y-9959021D01*
X11856642Y-9959022D01*
X11852550Y-9974294D01*
X11852550Y-9974295D01*
X11852550Y-9991105D01*
X11852550Y-9991106D01*
X11852550Y-10898150D01*
X11850581Y-10904854D01*
X11845301Y-10909429D01*
X11840150Y-10910550D01*
X11729797Y-10910550D01*
X11729796Y-10910550D01*
X11729796Y-10910550D01*
X11728632Y-10910654D01*
X11717858Y-10911611D01*
X11698295Y-10917209D01*
X11689277Y-10921920D01*
X11680259Y-10926630D01*
X11680259Y-10926630D01*
X11680259Y-10926630D01*
X11664489Y-10939489D01*
X11651630Y-10955259D01*
X11651630Y-10955259D01*
X11647780Y-10962631D01*
X11642209Y-10973295D01*
X11636611Y-10992858D01*
X11636611Y-10992859D01*
X11635550Y-11004797D01*
X11635550Y-11078150D01*
X11633581Y-11084854D01*
X11628301Y-11089429D01*
X11623150Y-11090550D01*
X11312292Y-11090550D01*
X11305588Y-11088582D01*
X11301012Y-11083301D01*
X11300842Y-11082889D01*
X11292303Y-11065671D01*
X11292303Y-11065670D01*
X11280372Y-11050828D01*
X11280372Y-11050828D01*
X11273451Y-11045265D01*
X11269459Y-11039530D01*
X11269201Y-11032548D01*
X11272759Y-11026535D01*
X11273451Y-11025935D01*
X11278322Y-11022020D01*
X11280372Y-11020372D01*
X11292303Y-11005530D01*
X11300764Y-10988469D01*
X11305360Y-10969989D01*
X11305650Y-10965712D01*
X11305650Y-10875488D01*
X11305360Y-10871211D01*
X11300764Y-10852731D01*
X11299403Y-10849986D01*
X11292303Y-10835671D01*
X11292303Y-10835670D01*
X11280372Y-10820828D01*
X11280372Y-10820828D01*
X11265529Y-10808897D01*
X11265529Y-10808897D01*
X11248470Y-10800436D01*
X11229989Y-10795840D01*
X11227423Y-10795666D01*
X11225712Y-10795550D01*
X11225712Y-10795550D01*
X11152700Y-10795550D01*
X11145996Y-10793582D01*
X11141421Y-10788301D01*
X11140300Y-10783150D01*
X11140300Y-10626050D01*
X11142269Y-10619346D01*
X11147549Y-10614771D01*
X11152700Y-10613650D01*
X11260037Y-10613650D01*
X11260037Y-10613650D01*
X11265998Y-10613009D01*
X11279483Y-10607980D01*
X11291005Y-10599355D01*
X11299630Y-10587833D01*
X11304659Y-10574348D01*
X11305300Y-10568387D01*
X11305300Y-10215802D01*
X11307268Y-10209099D01*
X11312549Y-10204523D01*
X11319465Y-10203529D01*
X11325820Y-10206431D01*
X11329598Y-10212309D01*
X11329874Y-10213448D01*
X11329925Y-10213712D01*
X11338192Y-10235619D01*
X11350043Y-10255813D01*
X11350043Y-10255814D01*
X11365136Y-10273714D01*
X11365136Y-10273714D01*
X11383036Y-10288807D01*
X11383037Y-10288807D01*
X11403231Y-10300657D01*
X11425137Y-10308925D01*
X11448126Y-10313371D01*
X11453388Y-10313650D01*
X11453389Y-10313650D01*
X11647111Y-10313650D01*
X11647112Y-10313650D01*
X11652374Y-10313371D01*
X11675363Y-10308925D01*
X11697269Y-10300657D01*
X11717463Y-10288807D01*
X11735364Y-10273714D01*
X11750457Y-10255813D01*
X11762307Y-10235619D01*
X11770574Y-10213713D01*
X11775020Y-10190724D01*
X11775300Y-10185462D01*
X11775300Y-9991738D01*
X11775020Y-9986476D01*
X11770574Y-9963487D01*
X11762307Y-9941581D01*
X11750457Y-9921387D01*
X11750456Y-9921386D01*
X11735364Y-9903486D01*
X11735364Y-9903486D01*
X11717464Y-9888393D01*
X11717463Y-9888393D01*
X11697269Y-9876543D01*
X11688233Y-9873133D01*
X11675363Y-9868276D01*
X11674362Y-9868082D01*
X11652374Y-9863830D01*
X11647115Y-9863550D01*
X11647113Y-9863550D01*
X11647112Y-9863550D01*
X11453388Y-9863550D01*
X11453387Y-9863550D01*
X11453385Y-9863550D01*
X11448126Y-9863830D01*
X11448125Y-9863830D01*
X11425138Y-9868275D01*
X11425138Y-9868275D01*
X11425137Y-9868276D01*
X11420516Y-9870020D01*
X11403231Y-9876543D01*
X11383037Y-9888393D01*
X11383036Y-9888393D01*
X11365136Y-9903486D01*
X11365136Y-9903486D01*
X11350043Y-9921386D01*
X11350043Y-9921387D01*
X11338192Y-9941581D01*
X11333642Y-9953638D01*
X11329925Y-9963487D01*
X11329925Y-9963488D01*
X11329925Y-9963488D01*
X11325479Y-9986476D01*
X11325479Y-9986476D01*
X11325200Y-9991735D01*
X11325200Y-9991739D01*
X11325200Y-10185461D01*
X11325200Y-10185466D01*
X11325393Y-10189103D01*
X11323783Y-10195902D01*
X11318753Y-10200751D01*
X11311900Y-10202111D01*
X11305399Y-10199549D01*
X11301393Y-10194094D01*
X11299630Y-10189367D01*
X11299629Y-10189366D01*
X11291005Y-10177846D01*
X11291004Y-10177845D01*
X11279483Y-10169221D01*
X11279483Y-10169220D01*
X11265998Y-10164191D01*
X11265998Y-10164191D01*
X11260038Y-10163550D01*
X11260038Y-10163550D01*
X11260037Y-10163550D01*
X11260036Y-10163550D01*
X10900463Y-10163550D01*
X10900462Y-10163550D01*
X10894502Y-10164191D01*
X10881017Y-10169220D01*
X10881016Y-10169221D01*
X10869496Y-10177845D01*
X10869495Y-10177846D01*
X10860871Y-10189366D01*
X10860870Y-10189367D01*
X10855841Y-10202852D01*
X10855200Y-10208812D01*
X10855200Y-10208814D01*
X10855200Y-10568387D01*
X10855200Y-10568388D01*
X10855841Y-10574348D01*
X10860870Y-10587833D01*
X10860871Y-10587834D01*
X10869495Y-10599354D01*
X10869496Y-10599355D01*
X10881016Y-10607979D01*
X10881017Y-10607980D01*
X10894502Y-10613009D01*
X10894502Y-10613009D01*
X10895194Y-10613084D01*
X10900463Y-10613650D01*
X11007800Y-10613650D01*
X11014504Y-10615618D01*
X11019079Y-10620899D01*
X11020200Y-10626050D01*
X11020200Y-10830137D01*
X11019909Y-10831378D01*
X11020011Y-10832294D01*
X11018909Y-10835647D01*
X11015859Y-10841797D01*
X11011117Y-10846928D01*
X11004353Y-10848681D01*
X10997716Y-10846499D01*
X10993311Y-10841075D01*
X10992350Y-10836287D01*
X10992350Y-10822500D01*
X10992350Y-10822498D01*
X10991300Y-10812220D01*
X10991300Y-10812220D01*
X10990199Y-10808897D01*
X10985781Y-10795567D01*
X10976571Y-10780634D01*
X10964166Y-10768229D01*
X10949233Y-10759019D01*
X10932580Y-10753500D01*
X10932580Y-10753500D01*
X10922301Y-10752450D01*
X10755300Y-10752450D01*
X10755298Y-10752450D01*
X10745020Y-10753500D01*
X10745020Y-10753500D01*
X10728367Y-10759019D01*
X10728366Y-10759019D01*
X10713434Y-10768229D01*
X10701029Y-10780634D01*
X10691819Y-10795566D01*
X10691819Y-10795567D01*
X10691133Y-10797637D01*
X10686300Y-10812220D01*
X10686300Y-10812220D01*
X10686300Y-10812220D01*
X10685250Y-10822498D01*
X10685250Y-11021500D01*
X10685250Y-11021502D01*
X10686300Y-11031780D01*
X10686300Y-11031780D01*
X10689072Y-11040146D01*
X10691819Y-11048433D01*
X10701029Y-11063366D01*
X10713434Y-11075771D01*
X10728367Y-11084981D01*
X10745020Y-11090500D01*
X10755299Y-11091550D01*
X10922301Y-11091550D01*
X10932580Y-11090500D01*
X10949233Y-11084981D01*
X10964166Y-11075771D01*
X10976571Y-11063366D01*
X10985781Y-11048433D01*
X10987603Y-11042936D01*
X10990606Y-11038068D01*
X10993602Y-11035072D01*
X11001508Y-11021378D01*
X11002713Y-11016879D01*
X11003053Y-11016322D01*
X11003104Y-11015672D01*
X11004849Y-11013376D01*
X11006350Y-11010913D01*
X11006936Y-11010628D01*
X11007331Y-11010109D01*
X11010040Y-11009120D01*
X11012634Y-11007860D01*
X11013282Y-11007938D01*
X11013895Y-11007714D01*
X11016709Y-11008348D01*
X11019572Y-11008690D01*
X11020233Y-11009141D01*
X11020712Y-11009249D01*
X11022071Y-11010395D01*
X11023522Y-11011384D01*
X11023962Y-11011830D01*
X11030828Y-11020372D01*
X11038308Y-11026385D01*
X11038811Y-11026895D01*
X11040138Y-11029367D01*
X11041741Y-11031670D01*
X11041768Y-11032404D01*
X11042115Y-11033052D01*
X11041895Y-11035848D01*
X11041999Y-11038652D01*
X11041624Y-11039284D01*
X11041567Y-11040017D01*
X11039869Y-11042251D01*
X11038441Y-11044665D01*
X11037749Y-11045265D01*
X11030828Y-11050828D01*
X11030828Y-11050828D01*
X11018897Y-11065670D01*
X11018897Y-11065671D01*
X11010436Y-11082730D01*
X11010436Y-11082731D01*
X11009741Y-11085525D01*
X11006213Y-11091556D01*
X11003197Y-11093651D01*
X11002099Y-11094193D01*
X11000422Y-11094642D01*
X10996248Y-11097052D01*
X10995900Y-11097253D01*
X10995898Y-11097254D01*
X10986729Y-11102548D01*
X10986728Y-11102548D01*
X10975548Y-11113728D01*
X10975548Y-11113729D01*
X10975548Y-11113729D01*
X10972942Y-11116334D01*
X10967384Y-11119543D01*
X10965522Y-11120042D01*
X10965521Y-11120042D01*
X10951829Y-11127948D01*
X10951828Y-11127948D01*
X10940648Y-11139128D01*
X10940648Y-11139128D01*
X10940648Y-11139129D01*
X10932067Y-11147710D01*
X10924558Y-11155218D01*
X10918426Y-11158567D01*
X10915790Y-11158850D01*
X10752800Y-11158850D01*
X10752798Y-11158850D01*
X10742520Y-11159900D01*
X10742520Y-11159900D01*
X10725867Y-11165419D01*
X10725866Y-11165419D01*
X10710934Y-11174629D01*
X10698529Y-11187034D01*
X10689319Y-11201966D01*
X10689319Y-11201967D01*
X10686535Y-11210367D01*
X10683800Y-11218620D01*
X10683800Y-11218620D01*
X10683800Y-11218620D01*
X10682750Y-11228898D01*
X10682750Y-11391890D01*
X10680782Y-11398594D01*
X10679118Y-11400658D01*
X10434779Y-11644998D01*
X10423598Y-11656178D01*
X10423598Y-11656178D01*
X10420016Y-11662383D01*
X10415692Y-11669871D01*
X10411600Y-11685144D01*
X10411600Y-11700956D01*
X10411600Y-11700956D01*
X10411600Y-11701955D01*
X10411600Y-12726783D01*
X10411600Y-12726785D01*
X10411600Y-12743355D01*
X10411600Y-12743355D01*
X10160000Y-12743355D01*
X10160000Y-11427899D01*
X10188800Y-11427899D01*
X10189849Y-11438170D01*
X10195364Y-11454812D01*
X10195364Y-11454812D01*
X10204568Y-11469734D01*
X10216965Y-11482131D01*
X10231888Y-11491336D01*
X10231888Y-11491336D01*
X10248530Y-11496850D01*
X10248531Y-11496851D01*
X10258802Y-11497900D01*
X10317300Y-11497900D01*
X10367300Y-11497900D01*
X10425797Y-11497900D01*
X10425799Y-11497900D01*
X10436070Y-11496850D01*
X10452712Y-11491336D01*
X10452712Y-11491336D01*
X10467635Y-11482131D01*
X10480032Y-11469734D01*
X10489236Y-11454812D01*
X10489236Y-11454812D01*
X10494751Y-11438170D01*
X10494751Y-11438169D01*
X10495800Y-11427899D01*
X10495800Y-11427897D01*
X10495800Y-11353400D01*
X10367300Y-11353400D01*
X10367300Y-11497900D01*
X10317300Y-11497900D01*
X10317300Y-11497900D01*
X10317300Y-11353400D01*
X10188800Y-11353400D01*
X10188800Y-11427899D01*
X10160000Y-11427899D01*
X10160000Y-11228901D01*
X10188800Y-11228901D01*
X10188800Y-11303400D01*
X10317300Y-11303400D01*
X10367300Y-11303400D01*
X10495800Y-11303400D01*
X10495800Y-11228903D01*
X10495800Y-11228901D01*
X10494751Y-11218630D01*
X10489236Y-11201988D01*
X10489236Y-11201987D01*
X10480032Y-11187065D01*
X10467635Y-11174668D01*
X10452712Y-11165464D01*
X10452712Y-11165464D01*
X10436070Y-11159949D01*
X10436069Y-11159949D01*
X10425799Y-11158900D01*
X10367300Y-11158900D01*
X10367300Y-11303400D01*
X10317300Y-11303400D01*
X10317300Y-11158900D01*
X10258803Y-11158900D01*
X10258801Y-11158900D01*
X10248530Y-11159949D01*
X10231888Y-11165464D01*
X10231888Y-11165464D01*
X10216965Y-11174668D01*
X10204568Y-11187065D01*
X10195364Y-11201987D01*
X10195364Y-11201988D01*
X10189849Y-11218630D01*
X10189849Y-11218631D01*
X10188800Y-11228901D01*
X10160000Y-11228901D01*
X10160000Y-11021499D01*
X10191300Y-11021499D01*
X10192349Y-11031770D01*
X10197864Y-11048412D01*
X10197864Y-11048412D01*
X10207068Y-11063335D01*
X10219465Y-11075732D01*
X10234388Y-11084936D01*
X10234388Y-11084936D01*
X10251030Y-11090451D01*
X10251031Y-11090451D01*
X10261302Y-11091500D01*
X10319800Y-11091500D01*
X10369800Y-11091500D01*
X10428297Y-11091500D01*
X10428299Y-11091500D01*
X10438570Y-11090451D01*
X10455212Y-11084936D01*
X10455212Y-11084936D01*
X10470135Y-11075732D01*
X10482532Y-11063335D01*
X10491736Y-11048412D01*
X10491736Y-11048412D01*
X10497251Y-11031770D01*
X10497251Y-11031769D01*
X10498300Y-11021499D01*
X10498300Y-11021497D01*
X10498300Y-10947000D01*
X10369800Y-10947000D01*
X10369800Y-11091500D01*
X10319800Y-11091500D01*
X10319800Y-11091500D01*
X10319800Y-10947000D01*
X10191300Y-10947000D01*
X10191300Y-11021499D01*
X10160000Y-11021499D01*
X10160000Y-10822501D01*
X10191300Y-10822501D01*
X10191300Y-10897000D01*
X10319800Y-10897000D01*
X10369800Y-10897000D01*
X10498300Y-10897000D01*
X10498300Y-10822503D01*
X10498300Y-10822501D01*
X10497251Y-10812230D01*
X10491736Y-10795588D01*
X10491736Y-10795588D01*
X10482532Y-10780665D01*
X10470135Y-10768268D01*
X10455212Y-10759064D01*
X10455212Y-10759064D01*
X10438570Y-10753549D01*
X10438569Y-10753549D01*
X10428299Y-10752500D01*
X10369800Y-10752500D01*
X10369800Y-10897000D01*
X10319800Y-10897000D01*
X10319800Y-10752500D01*
X10261303Y-10752500D01*
X10261301Y-10752500D01*
X10251030Y-10753549D01*
X10234388Y-10759064D01*
X10234388Y-10759064D01*
X10219465Y-10768268D01*
X10207068Y-10780665D01*
X10197864Y-10795588D01*
X10197864Y-10795588D01*
X10192349Y-10812230D01*
X10192349Y-10812231D01*
X10191300Y-10822501D01*
X10160000Y-10822501D01*
X10160000Y-9707180D01*
X10855250Y-9707180D01*
X10855250Y-9763600D01*
X10936949Y-9763600D01*
X10933658Y-9769301D01*
X10930250Y-9782017D01*
X10930250Y-9795183D01*
X10933658Y-9807899D01*
X10936949Y-9813600D01*
X10855250Y-9813600D01*
X10855250Y-9870020D01*
X10856290Y-9883233D01*
X10861788Y-9905052D01*
X10871093Y-9925537D01*
X10871093Y-9925538D01*
X10883906Y-9944032D01*
X10883907Y-9944034D01*
X10899816Y-9959943D01*
X10899818Y-9959944D01*
X10918312Y-9972757D01*
X10918313Y-9972757D01*
X10938798Y-9982062D01*
X10960617Y-9987560D01*
X10973831Y-9988600D01*
X11055250Y-9988600D01*
X11055250Y-9988600D01*
X11055250Y-9838600D01*
X11105250Y-9838600D01*
X11105250Y-9988600D01*
X11186668Y-9988600D01*
X11186670Y-9988600D01*
X11199883Y-9987560D01*
X11221702Y-9982062D01*
X11242187Y-9972757D01*
X11242188Y-9972757D01*
X11260682Y-9959944D01*
X11260683Y-9959943D01*
X11276593Y-9944034D01*
X11276594Y-9944032D01*
X11289407Y-9925538D01*
X11289407Y-9925537D01*
X11298712Y-9905052D01*
X11304210Y-9883233D01*
X11305250Y-9870020D01*
X11305250Y-9870018D01*
X11305250Y-9813600D01*
X11223551Y-9813600D01*
X11226842Y-9807899D01*
X11230250Y-9795183D01*
X11230250Y-9782017D01*
X11226842Y-9769301D01*
X11223551Y-9763600D01*
X11305250Y-9763600D01*
X11305250Y-9707182D01*
X11305250Y-9707180D01*
X11304210Y-9693967D01*
X11298712Y-9672148D01*
X11289407Y-9651663D01*
X11289407Y-9651662D01*
X11276594Y-9633168D01*
X11276593Y-9633166D01*
X11260683Y-9617257D01*
X11260682Y-9617256D01*
X11242188Y-9604443D01*
X11242187Y-9604443D01*
X11221702Y-9595138D01*
X11199883Y-9589640D01*
X11186670Y-9588600D01*
X11105250Y-9588600D01*
X11105250Y-9738600D01*
X11055250Y-9738600D01*
X11055250Y-9588600D01*
X10973832Y-9588600D01*
X10973830Y-9588600D01*
X10960617Y-9589640D01*
X10938798Y-9595138D01*
X10918313Y-9604443D01*
X10918312Y-9604443D01*
X10899818Y-9617256D01*
X10899816Y-9617257D01*
X10883907Y-9633166D01*
X10883906Y-9633168D01*
X10871093Y-9651662D01*
X10871093Y-9651663D01*
X10861788Y-9672148D01*
X10856290Y-9693967D01*
X10855250Y-9707180D01*
X10160000Y-9707180D01*
X10160000Y-9062450D01*
X10161969Y-9055746D01*
X10167249Y-9051171D01*
X10172400Y-9050050D01*
X22873000Y-9050050D01*
X22879704Y-9052019D01*
G37*
%TD.AperFunction*%
%TD*%
M02*
