%TF.GenerationSoftware,KiCad,Pcbnew,9.0.2*%
%TF.CreationDate,2025-08-24T11:37:44+02:00*%
%TF.ProjectId,esp32c6-charger,65737033-3263-4362-9d63-686172676572,rev?*%
%TF.SameCoordinates,Original*%
%TF.FileFunction,AssemblyDrawing,Bot*%
%FSLAX45Y45*%
G04 Gerber Fmt 4.5, Leading zero omitted, Abs format (unit mm)*
G04 Created by KiCad (PCBNEW 9.0.2) date 2025-08-24 11:37:44*
%MOMM*%
%LPD*%
G01*
G04 APERTURE LIST*
%ADD10C,0.060000*%
%ADD11C,0.150000*%
%ADD12C,0.100000*%
%ADD13C,0.504000*%
G04 APERTURE END LIST*
D10*
X11574059Y-10829702D02*
X11577869Y-10827798D01*
X11577869Y-10827798D02*
X11581678Y-10823988D01*
X11581678Y-10823988D02*
X11587393Y-10818274D01*
X11587393Y-10818274D02*
X11591202Y-10816369D01*
X11591202Y-10816369D02*
X11595012Y-10816369D01*
X11593107Y-10825893D02*
X11596917Y-10823988D01*
X11596917Y-10823988D02*
X11600726Y-10820178D01*
X11600726Y-10820178D02*
X11602631Y-10812559D01*
X11602631Y-10812559D02*
X11602631Y-10799226D01*
X11602631Y-10799226D02*
X11600726Y-10791607D01*
X11600726Y-10791607D02*
X11596917Y-10787798D01*
X11596917Y-10787798D02*
X11593107Y-10785893D01*
X11593107Y-10785893D02*
X11585488Y-10785893D01*
X11585488Y-10785893D02*
X11581678Y-10787798D01*
X11581678Y-10787798D02*
X11577869Y-10791607D01*
X11577869Y-10791607D02*
X11575964Y-10799226D01*
X11575964Y-10799226D02*
X11575964Y-10812559D01*
X11575964Y-10812559D02*
X11577869Y-10820178D01*
X11577869Y-10820178D02*
X11581678Y-10823988D01*
X11581678Y-10823988D02*
X11585488Y-10825893D01*
X11585488Y-10825893D02*
X11593107Y-10825893D01*
X11560726Y-10789702D02*
X11558821Y-10787798D01*
X11558821Y-10787798D02*
X11555012Y-10785893D01*
X11555012Y-10785893D02*
X11545488Y-10785893D01*
X11545488Y-10785893D02*
X11541678Y-10787798D01*
X11541678Y-10787798D02*
X11539774Y-10789702D01*
X11539774Y-10789702D02*
X11537869Y-10793512D01*
X11537869Y-10793512D02*
X11537869Y-10797321D01*
X11537869Y-10797321D02*
X11539774Y-10803036D01*
X11539774Y-10803036D02*
X11562631Y-10825893D01*
X11562631Y-10825893D02*
X11537869Y-10825893D01*
D11*
X11556124Y-7426858D02*
X11560886Y-7431620D01*
X11560886Y-7431620D02*
X11575171Y-7436382D01*
X11575171Y-7436382D02*
X11584695Y-7436382D01*
X11584695Y-7436382D02*
X11598981Y-7431620D01*
X11598981Y-7431620D02*
X11608505Y-7422096D01*
X11608505Y-7422096D02*
X11613267Y-7412572D01*
X11613267Y-7412572D02*
X11618029Y-7393525D01*
X11618029Y-7393525D02*
X11618029Y-7379239D01*
X11618029Y-7379239D02*
X11613267Y-7360191D01*
X11613267Y-7360191D02*
X11608505Y-7350668D01*
X11608505Y-7350668D02*
X11598981Y-7341144D01*
X11598981Y-7341144D02*
X11584695Y-7336382D01*
X11584695Y-7336382D02*
X11575171Y-7336382D01*
X11575171Y-7336382D02*
X11560886Y-7341144D01*
X11560886Y-7341144D02*
X11556124Y-7345906D01*
X11498981Y-7436382D02*
X11508505Y-7431620D01*
X11508505Y-7431620D02*
X11513267Y-7426858D01*
X11513267Y-7426858D02*
X11518029Y-7417334D01*
X11518029Y-7417334D02*
X11518029Y-7388763D01*
X11518029Y-7388763D02*
X11513267Y-7379239D01*
X11513267Y-7379239D02*
X11508505Y-7374477D01*
X11508505Y-7374477D02*
X11498981Y-7369715D01*
X11498981Y-7369715D02*
X11484695Y-7369715D01*
X11484695Y-7369715D02*
X11475171Y-7374477D01*
X11475171Y-7374477D02*
X11470410Y-7379239D01*
X11470410Y-7379239D02*
X11465648Y-7388763D01*
X11465648Y-7388763D02*
X11465648Y-7417334D01*
X11465648Y-7417334D02*
X11470410Y-7426858D01*
X11470410Y-7426858D02*
X11475171Y-7431620D01*
X11475171Y-7431620D02*
X11484695Y-7436382D01*
X11484695Y-7436382D02*
X11498981Y-7436382D01*
X11422790Y-7369715D02*
X11422790Y-7436382D01*
X11422790Y-7379239D02*
X11418029Y-7374477D01*
X11418029Y-7374477D02*
X11408505Y-7369715D01*
X11408505Y-7369715D02*
X11394219Y-7369715D01*
X11394219Y-7369715D02*
X11384695Y-7374477D01*
X11384695Y-7374477D02*
X11379933Y-7384001D01*
X11379933Y-7384001D02*
X11379933Y-7436382D01*
X11332314Y-7369715D02*
X11332314Y-7436382D01*
X11332314Y-7379239D02*
X11327552Y-7374477D01*
X11327552Y-7374477D02*
X11318029Y-7369715D01*
X11318029Y-7369715D02*
X11303743Y-7369715D01*
X11303743Y-7369715D02*
X11294219Y-7374477D01*
X11294219Y-7374477D02*
X11289457Y-7384001D01*
X11289457Y-7384001D02*
X11289457Y-7436382D01*
X11265648Y-7445906D02*
X11189457Y-7445906D01*
X11146600Y-7336382D02*
X11137076Y-7336382D01*
X11137076Y-7336382D02*
X11127552Y-7341144D01*
X11127552Y-7341144D02*
X11122791Y-7345906D01*
X11122791Y-7345906D02*
X11118029Y-7355429D01*
X11118029Y-7355429D02*
X11113267Y-7374477D01*
X11113267Y-7374477D02*
X11113267Y-7398287D01*
X11113267Y-7398287D02*
X11118029Y-7417334D01*
X11118029Y-7417334D02*
X11122791Y-7426858D01*
X11122791Y-7426858D02*
X11127552Y-7431620D01*
X11127552Y-7431620D02*
X11137076Y-7436382D01*
X11137076Y-7436382D02*
X11146600Y-7436382D01*
X11146600Y-7436382D02*
X11156124Y-7431620D01*
X11156124Y-7431620D02*
X11160886Y-7426858D01*
X11160886Y-7426858D02*
X11165648Y-7417334D01*
X11165648Y-7417334D02*
X11170410Y-7398287D01*
X11170410Y-7398287D02*
X11170410Y-7374477D01*
X11170410Y-7374477D02*
X11165648Y-7355429D01*
X11165648Y-7355429D02*
X11160886Y-7345906D01*
X11160886Y-7345906D02*
X11156124Y-7341144D01*
X11156124Y-7341144D02*
X11146600Y-7336382D01*
X11018029Y-7436382D02*
X11075171Y-7436382D01*
X11046600Y-7436382D02*
X11046600Y-7336382D01*
X11046600Y-7336382D02*
X11056124Y-7350668D01*
X11056124Y-7350668D02*
X11065648Y-7360191D01*
X11065648Y-7360191D02*
X11075171Y-7364953D01*
X10984695Y-7436382D02*
X10932314Y-7369715D01*
X10984695Y-7369715D02*
X10932314Y-7436382D01*
X10875171Y-7336382D02*
X10865648Y-7336382D01*
X10865648Y-7336382D02*
X10856124Y-7341144D01*
X10856124Y-7341144D02*
X10851362Y-7345906D01*
X10851362Y-7345906D02*
X10846600Y-7355429D01*
X10846600Y-7355429D02*
X10841838Y-7374477D01*
X10841838Y-7374477D02*
X10841838Y-7398287D01*
X10841838Y-7398287D02*
X10846600Y-7417334D01*
X10846600Y-7417334D02*
X10851362Y-7426858D01*
X10851362Y-7426858D02*
X10856124Y-7431620D01*
X10856124Y-7431620D02*
X10865648Y-7436382D01*
X10865648Y-7436382D02*
X10875171Y-7436382D01*
X10875171Y-7436382D02*
X10884695Y-7431620D01*
X10884695Y-7431620D02*
X10889457Y-7426858D01*
X10889457Y-7426858D02*
X10894219Y-7417334D01*
X10894219Y-7417334D02*
X10898981Y-7398287D01*
X10898981Y-7398287D02*
X10898981Y-7374477D01*
X10898981Y-7374477D02*
X10894219Y-7355429D01*
X10894219Y-7355429D02*
X10889457Y-7345906D01*
X10889457Y-7345906D02*
X10884695Y-7341144D01*
X10884695Y-7341144D02*
X10875171Y-7336382D01*
X10803743Y-7345906D02*
X10798981Y-7341144D01*
X10798981Y-7341144D02*
X10789457Y-7336382D01*
X10789457Y-7336382D02*
X10765648Y-7336382D01*
X10765648Y-7336382D02*
X10756124Y-7341144D01*
X10756124Y-7341144D02*
X10751362Y-7345906D01*
X10751362Y-7345906D02*
X10746600Y-7355429D01*
X10746600Y-7355429D02*
X10746600Y-7364953D01*
X10746600Y-7364953D02*
X10751362Y-7379239D01*
X10751362Y-7379239D02*
X10808505Y-7436382D01*
X10808505Y-7436382D02*
X10746600Y-7436382D01*
X10727552Y-7445906D02*
X10651362Y-7445906D01*
X10632314Y-7431620D02*
X10618029Y-7436382D01*
X10618029Y-7436382D02*
X10594219Y-7436382D01*
X10594219Y-7436382D02*
X10584695Y-7431620D01*
X10584695Y-7431620D02*
X10579933Y-7426858D01*
X10579933Y-7426858D02*
X10575171Y-7417334D01*
X10575171Y-7417334D02*
X10575171Y-7407810D01*
X10575171Y-7407810D02*
X10579933Y-7398287D01*
X10579933Y-7398287D02*
X10584695Y-7393525D01*
X10584695Y-7393525D02*
X10594219Y-7388763D01*
X10594219Y-7388763D02*
X10613267Y-7384001D01*
X10613267Y-7384001D02*
X10622790Y-7379239D01*
X10622790Y-7379239D02*
X10627552Y-7374477D01*
X10627552Y-7374477D02*
X10632314Y-7364953D01*
X10632314Y-7364953D02*
X10632314Y-7355429D01*
X10632314Y-7355429D02*
X10627552Y-7345906D01*
X10627552Y-7345906D02*
X10622790Y-7341144D01*
X10622790Y-7341144D02*
X10613267Y-7336382D01*
X10613267Y-7336382D02*
X10589457Y-7336382D01*
X10589457Y-7336382D02*
X10575171Y-7341144D01*
X10518029Y-7436382D02*
X10527552Y-7431620D01*
X10527552Y-7431620D02*
X10532314Y-7426858D01*
X10532314Y-7426858D02*
X10537076Y-7417334D01*
X10537076Y-7417334D02*
X10537076Y-7388763D01*
X10537076Y-7388763D02*
X10532314Y-7379239D01*
X10532314Y-7379239D02*
X10527552Y-7374477D01*
X10527552Y-7374477D02*
X10518029Y-7369715D01*
X10518029Y-7369715D02*
X10503743Y-7369715D01*
X10503743Y-7369715D02*
X10494219Y-7374477D01*
X10494219Y-7374477D02*
X10489457Y-7379239D01*
X10489457Y-7379239D02*
X10484695Y-7388763D01*
X10484695Y-7388763D02*
X10484695Y-7417334D01*
X10484695Y-7417334D02*
X10489457Y-7426858D01*
X10489457Y-7426858D02*
X10494219Y-7431620D01*
X10494219Y-7431620D02*
X10503743Y-7436382D01*
X10503743Y-7436382D02*
X10518029Y-7436382D01*
X10398981Y-7431620D02*
X10408505Y-7436382D01*
X10408505Y-7436382D02*
X10427552Y-7436382D01*
X10427552Y-7436382D02*
X10437076Y-7431620D01*
X10437076Y-7431620D02*
X10441838Y-7426858D01*
X10441838Y-7426858D02*
X10446600Y-7417334D01*
X10446600Y-7417334D02*
X10446600Y-7388763D01*
X10446600Y-7388763D02*
X10441838Y-7379239D01*
X10441838Y-7379239D02*
X10437076Y-7374477D01*
X10437076Y-7374477D02*
X10427552Y-7369715D01*
X10427552Y-7369715D02*
X10408505Y-7369715D01*
X10408505Y-7369715D02*
X10398981Y-7374477D01*
X10356124Y-7436382D02*
X10356124Y-7336382D01*
X10346600Y-7398287D02*
X10318029Y-7436382D01*
X10318029Y-7369715D02*
X10356124Y-7407810D01*
X10237076Y-7431620D02*
X10246600Y-7436382D01*
X10246600Y-7436382D02*
X10265648Y-7436382D01*
X10265648Y-7436382D02*
X10275171Y-7431620D01*
X10275171Y-7431620D02*
X10279933Y-7422096D01*
X10279933Y-7422096D02*
X10279933Y-7384001D01*
X10279933Y-7384001D02*
X10275171Y-7374477D01*
X10275171Y-7374477D02*
X10265648Y-7369715D01*
X10265648Y-7369715D02*
X10246600Y-7369715D01*
X10246600Y-7369715D02*
X10237076Y-7374477D01*
X10237076Y-7374477D02*
X10232314Y-7384001D01*
X10232314Y-7384001D02*
X10232314Y-7393525D01*
X10232314Y-7393525D02*
X10279933Y-7403048D01*
X10203743Y-7369715D02*
X10165648Y-7369715D01*
X10189457Y-7336382D02*
X10189457Y-7422096D01*
X10189457Y-7422096D02*
X10184695Y-7431620D01*
X10184695Y-7431620D02*
X10175171Y-7436382D01*
X10175171Y-7436382D02*
X10165648Y-7436382D01*
X10929933Y-7588382D02*
X10929933Y-7659810D01*
X10929933Y-7659810D02*
X10934695Y-7674096D01*
X10934695Y-7674096D02*
X10944219Y-7683620D01*
X10944219Y-7683620D02*
X10958505Y-7688382D01*
X10958505Y-7688382D02*
X10968029Y-7688382D01*
X10829933Y-7688382D02*
X10887076Y-7688382D01*
X10858505Y-7688382D02*
X10858505Y-7588382D01*
X10858505Y-7588382D02*
X10868029Y-7602668D01*
X10868029Y-7602668D02*
X10877552Y-7612191D01*
X10877552Y-7612191D02*
X10887076Y-7616953D01*
X9384579Y-11643694D02*
X9394102Y-11638932D01*
X9394102Y-11638932D02*
X9408388Y-11638932D01*
X9408388Y-11638932D02*
X9422674Y-11643694D01*
X9422674Y-11643694D02*
X9432198Y-11653218D01*
X9432198Y-11653218D02*
X9436959Y-11662741D01*
X9436959Y-11662741D02*
X9441721Y-11681789D01*
X9441721Y-11681789D02*
X9441721Y-11696075D01*
X9441721Y-11696075D02*
X9436959Y-11715122D01*
X9436959Y-11715122D02*
X9432198Y-11724646D01*
X9432198Y-11724646D02*
X9422674Y-11734170D01*
X9422674Y-11734170D02*
X9408388Y-11738932D01*
X9408388Y-11738932D02*
X9398864Y-11738932D01*
X9398864Y-11738932D02*
X9384579Y-11734170D01*
X9384579Y-11734170D02*
X9379817Y-11729408D01*
X9379817Y-11729408D02*
X9379817Y-11696075D01*
X9379817Y-11696075D02*
X9398864Y-11696075D01*
X9341721Y-11648456D02*
X9336959Y-11643694D01*
X9336959Y-11643694D02*
X9327436Y-11638932D01*
X9327436Y-11638932D02*
X9303626Y-11638932D01*
X9303626Y-11638932D02*
X9294102Y-11643694D01*
X9294102Y-11643694D02*
X9289340Y-11648456D01*
X9289340Y-11648456D02*
X9284579Y-11657979D01*
X9284579Y-11657979D02*
X9284579Y-11667503D01*
X9284579Y-11667503D02*
X9289340Y-11681789D01*
X9289340Y-11681789D02*
X9346483Y-11738932D01*
X9346483Y-11738932D02*
X9284579Y-11738932D01*
X9184579Y-11738932D02*
X9217912Y-11691313D01*
X9241721Y-11738932D02*
X9241721Y-11638932D01*
X9241721Y-11638932D02*
X9203626Y-11638932D01*
X9203626Y-11638932D02*
X9194102Y-11643694D01*
X9194102Y-11643694D02*
X9189340Y-11648456D01*
X9189340Y-11648456D02*
X9184579Y-11657979D01*
X9184579Y-11657979D02*
X9184579Y-11672265D01*
X9184579Y-11672265D02*
X9189340Y-11681789D01*
X9189340Y-11681789D02*
X9194102Y-11686551D01*
X9194102Y-11686551D02*
X9203626Y-11691313D01*
X9203626Y-11691313D02*
X9241721Y-11691313D01*
X9094102Y-11738932D02*
X9141721Y-11738932D01*
X9141721Y-11738932D02*
X9141721Y-11638932D01*
X9060769Y-11700837D02*
X8984579Y-11700837D01*
X8884579Y-11738932D02*
X8941721Y-11738932D01*
X8913150Y-11738932D02*
X8913150Y-11638932D01*
X8913150Y-11638932D02*
X8922674Y-11653218D01*
X8922674Y-11653218D02*
X8932198Y-11662741D01*
X8932198Y-11662741D02*
X8941721Y-11667503D01*
X9246959Y-10973932D02*
X9246959Y-10873932D01*
X9189817Y-10973932D02*
X9232674Y-10916789D01*
X9189817Y-10873932D02*
X9246959Y-10931075D01*
X9094579Y-10973932D02*
X9151721Y-10973932D01*
X9123150Y-10973932D02*
X9123150Y-10873932D01*
X9123150Y-10873932D02*
X9132674Y-10888218D01*
X9132674Y-10888218D02*
X9142198Y-10897741D01*
X9142198Y-10897741D02*
X9151721Y-10902503D01*
X13546133Y-7588382D02*
X13546133Y-7659810D01*
X13546133Y-7659810D02*
X13550895Y-7674096D01*
X13550895Y-7674096D02*
X13560419Y-7683620D01*
X13560419Y-7683620D02*
X13574705Y-7688382D01*
X13574705Y-7688382D02*
X13584228Y-7688382D01*
X13503276Y-7597906D02*
X13498514Y-7593144D01*
X13498514Y-7593144D02*
X13488990Y-7588382D01*
X13488990Y-7588382D02*
X13465181Y-7588382D01*
X13465181Y-7588382D02*
X13455657Y-7593144D01*
X13455657Y-7593144D02*
X13450895Y-7597906D01*
X13450895Y-7597906D02*
X13446133Y-7607429D01*
X13446133Y-7607429D02*
X13446133Y-7616953D01*
X13446133Y-7616953D02*
X13450895Y-7631239D01*
X13450895Y-7631239D02*
X13508038Y-7688382D01*
X13508038Y-7688382D02*
X13446133Y-7688382D01*
X8897933Y-7588382D02*
X8897933Y-7659810D01*
X8897933Y-7659810D02*
X8902695Y-7674096D01*
X8902695Y-7674096D02*
X8912219Y-7683620D01*
X8912219Y-7683620D02*
X8926505Y-7688382D01*
X8926505Y-7688382D02*
X8936029Y-7688382D01*
X8859838Y-7588382D02*
X8797933Y-7588382D01*
X8797933Y-7588382D02*
X8831267Y-7626477D01*
X8831267Y-7626477D02*
X8816981Y-7626477D01*
X8816981Y-7626477D02*
X8807457Y-7631239D01*
X8807457Y-7631239D02*
X8802695Y-7636001D01*
X8802695Y-7636001D02*
X8797933Y-7645525D01*
X8797933Y-7645525D02*
X8797933Y-7669334D01*
X8797933Y-7669334D02*
X8802695Y-7678858D01*
X8802695Y-7678858D02*
X8807457Y-7683620D01*
X8807457Y-7683620D02*
X8816981Y-7688382D01*
X8816981Y-7688382D02*
X8845552Y-7688382D01*
X8845552Y-7688382D02*
X8855076Y-7683620D01*
X8855076Y-7683620D02*
X8859838Y-7678858D01*
D10*
X11572659Y-11318902D02*
X11576469Y-11316997D01*
X11576469Y-11316997D02*
X11580278Y-11313188D01*
X11580278Y-11313188D02*
X11585993Y-11307474D01*
X11585993Y-11307474D02*
X11589802Y-11305569D01*
X11589802Y-11305569D02*
X11593612Y-11305569D01*
X11591707Y-11315093D02*
X11595517Y-11313188D01*
X11595517Y-11313188D02*
X11599326Y-11309378D01*
X11599326Y-11309378D02*
X11601231Y-11301759D01*
X11601231Y-11301759D02*
X11601231Y-11288426D01*
X11601231Y-11288426D02*
X11599326Y-11280807D01*
X11599326Y-11280807D02*
X11595517Y-11276997D01*
X11595517Y-11276997D02*
X11591707Y-11275093D01*
X11591707Y-11275093D02*
X11584088Y-11275093D01*
X11584088Y-11275093D02*
X11580278Y-11276997D01*
X11580278Y-11276997D02*
X11576469Y-11280807D01*
X11576469Y-11280807D02*
X11574564Y-11288426D01*
X11574564Y-11288426D02*
X11574564Y-11301759D01*
X11574564Y-11301759D02*
X11576469Y-11309378D01*
X11576469Y-11309378D02*
X11580278Y-11313188D01*
X11580278Y-11313188D02*
X11584088Y-11315093D01*
X11584088Y-11315093D02*
X11591707Y-11315093D01*
X11536469Y-11315093D02*
X11559326Y-11315093D01*
X11547897Y-11315093D02*
X11547897Y-11275093D01*
X11547897Y-11275093D02*
X11551707Y-11280807D01*
X11551707Y-11280807D02*
X11555517Y-11284616D01*
X11555517Y-11284616D02*
X11559326Y-11286521D01*
%TO.C,U2*%
D12*
X13029200Y-12421500D02*
X14809200Y-12421500D01*
X14809200Y-10324000D01*
X13029200Y-10324000D01*
X13029200Y-12421500D01*
D13*
X13164000Y-12309100D02*
G75*
G02*
X13113600Y-12309100I-25200J0D01*
G01*
X13113600Y-12309100D02*
G75*
G02*
X13164000Y-12309100I25200J0D01*
G01*
D12*
%TO.C,D4*%
X11936650Y-9457700D02*
X12256650Y-9457700D01*
X11936650Y-9577700D02*
X11936650Y-9457700D01*
X11976650Y-9617700D02*
X11936650Y-9577700D01*
X12256650Y-9457700D02*
X12256650Y-9617700D01*
X12256650Y-9617700D02*
X11976650Y-9617700D01*
%TO.C,D3*%
X11936650Y-9838700D02*
X12256650Y-9838700D01*
X11936650Y-9958700D02*
X11936650Y-9838700D01*
X11976650Y-9998700D02*
X11936650Y-9958700D01*
X12256650Y-9838700D02*
X12256650Y-9998700D01*
X12256650Y-9998700D02*
X11976650Y-9998700D01*
%TO.C,R3*%
X12514600Y-10219700D02*
X12514600Y-10379700D01*
X12514600Y-10379700D02*
X12834600Y-10379700D01*
X12834600Y-10219700D02*
X12514600Y-10219700D01*
X12834600Y-10379700D02*
X12834600Y-10219700D01*
%TO.C,D2*%
X11936650Y-10219700D02*
X12256650Y-10219700D01*
X11936650Y-10339700D02*
X11936650Y-10219700D01*
X11976650Y-10379700D02*
X11936650Y-10339700D01*
X12256650Y-10219700D02*
X12256650Y-10379700D01*
X12256650Y-10379700D02*
X11976650Y-10379700D01*
%TO.C,Q2*%
X11490250Y-10662700D02*
X11490250Y-10952700D01*
X11490250Y-10952700D02*
X11650250Y-10952700D01*
X11610250Y-10662700D02*
X11490250Y-10662700D01*
X11650250Y-10702700D02*
X11610250Y-10662700D01*
X11650250Y-10952700D02*
X11650250Y-10702700D01*
%TO.C,J1*%
X10388600Y-7552900D02*
X10388600Y-8482900D01*
X10388600Y-7552900D02*
X11404600Y-7552900D01*
X10388600Y-7702900D02*
X11404600Y-7702900D01*
X10388600Y-8192900D02*
X11404600Y-8192900D01*
X10388600Y-8482900D02*
X11404600Y-8482900D01*
X10438600Y-7502900D02*
X10388600Y-7552900D01*
X10738100Y-8076700D02*
X10528800Y-7867400D01*
X10756400Y-8058400D02*
X10547100Y-7849100D01*
X11246100Y-8076700D02*
X11036800Y-7867400D01*
X11264400Y-8058400D02*
X11055100Y-7849100D01*
X11404600Y-7502900D02*
X10438600Y-7502900D01*
X11404600Y-8482900D02*
X11404600Y-7502900D01*
X10792600Y-7962900D02*
G75*
G02*
X10492600Y-7962900I-150000J0D01*
G01*
X10492600Y-7962900D02*
G75*
G02*
X10792600Y-7962900I150000J0D01*
G01*
X11300600Y-7962900D02*
G75*
G02*
X11000600Y-7962900I-150000J0D01*
G01*
X11000600Y-7962900D02*
G75*
G02*
X11300600Y-7962900I150000J0D01*
G01*
%TO.C,C1*%
X10063200Y-9199900D02*
X10583200Y-9199900D01*
X10063200Y-9519900D02*
X10063200Y-9199900D01*
X10583200Y-9199900D02*
X10663200Y-9279900D01*
X10663200Y-9279900D02*
X10663200Y-9519900D01*
X10663200Y-9519900D02*
X10063200Y-9519900D01*
%TO.C,R1*%
X12131000Y-11235700D02*
X12131000Y-11395700D01*
X12131000Y-11395700D02*
X12451000Y-11395700D01*
X12451000Y-11235700D02*
X12131000Y-11235700D01*
X12451000Y-11395700D02*
X12451000Y-11235700D01*
%TO.C,R2*%
X12133600Y-10753100D02*
X12133600Y-10913100D01*
X12133600Y-10913100D02*
X12453600Y-10913100D01*
X12453600Y-10753100D02*
X12133600Y-10753100D01*
X12453600Y-10913100D02*
X12453600Y-10753100D01*
%TO.C,U1*%
X11057000Y-9253500D02*
X11427000Y-9253500D01*
X11057000Y-9823500D02*
X11057000Y-9253500D01*
X11057000Y-9823500D02*
X11157000Y-9923500D01*
X11157000Y-9923500D02*
X11427000Y-9923500D01*
X11427000Y-9923500D02*
X11427000Y-9253500D01*
%TO.C,R4*%
X12514600Y-9838700D02*
X12514600Y-9998700D01*
X12514600Y-9998700D02*
X12834600Y-9998700D01*
X12834600Y-9838700D02*
X12514600Y-9838700D01*
X12834600Y-9998700D02*
X12834600Y-9838700D01*
%TO.C,K1*%
X7723150Y-10303450D02*
X10603150Y-10303450D01*
X7723150Y-11553450D02*
X7723150Y-10303450D01*
X10373150Y-11153450D02*
X10373150Y-10703450D01*
X10503150Y-11553450D02*
X7723150Y-11553450D01*
X10603150Y-10303450D02*
X10603150Y-11453450D01*
X10603150Y-11453450D02*
X10503150Y-11553450D01*
%TO.C,R5*%
X12514600Y-9457700D02*
X12514600Y-9617700D01*
X12514600Y-9617700D02*
X12834600Y-9617700D01*
X12834600Y-9457700D02*
X12514600Y-9457700D01*
X12834600Y-9617700D02*
X12834600Y-9457700D01*
%TO.C,J2*%
X11988800Y-7552900D02*
X11988800Y-8482900D01*
X11988800Y-7552900D02*
X15036800Y-7552900D01*
X11988800Y-7702900D02*
X15036800Y-7702900D01*
X11988800Y-8192900D02*
X15036800Y-8192900D01*
X11988800Y-8482900D02*
X15036800Y-8482900D01*
X12038800Y-7502900D02*
X11988800Y-7552900D01*
X12338300Y-8076700D02*
X12129000Y-7867400D01*
X12356600Y-8058400D02*
X12147300Y-7849100D01*
X12846300Y-8076700D02*
X12637000Y-7867400D01*
X12864600Y-8058400D02*
X12655300Y-7849100D01*
X13354300Y-8076700D02*
X13145000Y-7867400D01*
X13372600Y-8058400D02*
X13163300Y-7849100D01*
X13862300Y-8076700D02*
X13653000Y-7867400D01*
X13880600Y-8058400D02*
X13671300Y-7849100D01*
X14370300Y-8076700D02*
X14161000Y-7867400D01*
X14388600Y-8058400D02*
X14179300Y-7849100D01*
X14878300Y-8076700D02*
X14669000Y-7867400D01*
X14896600Y-8058400D02*
X14687300Y-7849100D01*
X15036800Y-7502900D02*
X12038800Y-7502900D01*
X15036800Y-8482900D02*
X15036800Y-7502900D01*
X12392800Y-7962900D02*
G75*
G02*
X12092800Y-7962900I-150000J0D01*
G01*
X12092800Y-7962900D02*
G75*
G02*
X12392800Y-7962900I150000J0D01*
G01*
X12900800Y-7962900D02*
G75*
G02*
X12600800Y-7962900I-150000J0D01*
G01*
X12600800Y-7962900D02*
G75*
G02*
X12900800Y-7962900I150000J0D01*
G01*
X13408800Y-7962900D02*
G75*
G02*
X13108800Y-7962900I-150000J0D01*
G01*
X13108800Y-7962900D02*
G75*
G02*
X13408800Y-7962900I150000J0D01*
G01*
X13916800Y-7962900D02*
G75*
G02*
X13616800Y-7962900I-150000J0D01*
G01*
X13616800Y-7962900D02*
G75*
G02*
X13916800Y-7962900I150000J0D01*
G01*
X14424800Y-7962900D02*
G75*
G02*
X14124800Y-7962900I-150000J0D01*
G01*
X14124800Y-7962900D02*
G75*
G02*
X14424800Y-7962900I150000J0D01*
G01*
X14932800Y-7962900D02*
G75*
G02*
X14632800Y-7962900I-150000J0D01*
G01*
X14632800Y-7962900D02*
G75*
G02*
X14932800Y-7962900I150000J0D01*
G01*
%TO.C,J3*%
X8102600Y-7552900D02*
X8102600Y-8482900D01*
X8102600Y-7552900D02*
X9626600Y-7552900D01*
X8102600Y-7702900D02*
X9626600Y-7702900D01*
X8102600Y-8192900D02*
X9626600Y-8192900D01*
X8102600Y-8482900D02*
X9626600Y-8482900D01*
X8152600Y-7502900D02*
X8102600Y-7552900D01*
X8452100Y-8076700D02*
X8242800Y-7867400D01*
X8470400Y-8058400D02*
X8261100Y-7849100D01*
X8960100Y-8076700D02*
X8750800Y-7867400D01*
X8978400Y-8058400D02*
X8769100Y-7849100D01*
X9468100Y-8076700D02*
X9258800Y-7867400D01*
X9486400Y-8058400D02*
X9277100Y-7849100D01*
X9626600Y-7502900D02*
X8152600Y-7502900D01*
X9626600Y-8482900D02*
X9626600Y-7502900D01*
X8506600Y-7962900D02*
G75*
G02*
X8206600Y-7962900I-150000J0D01*
G01*
X8206600Y-7962900D02*
G75*
G02*
X8506600Y-7962900I150000J0D01*
G01*
X9014600Y-7962900D02*
G75*
G02*
X8714600Y-7962900I-150000J0D01*
G01*
X8714600Y-7962900D02*
G75*
G02*
X9014600Y-7962900I150000J0D01*
G01*
X9522600Y-7962900D02*
G75*
G02*
X9222600Y-7962900I-150000J0D01*
G01*
X9222600Y-7962900D02*
G75*
G02*
X9522600Y-7962900I150000J0D01*
G01*
%TO.C,C2*%
X10060700Y-9606300D02*
X10580700Y-9606300D01*
X10060700Y-9926300D02*
X10060700Y-9606300D01*
X10580700Y-9606300D02*
X10660700Y-9686300D01*
X10660700Y-9686300D02*
X10660700Y-9926300D01*
X10660700Y-9926300D02*
X10060700Y-9926300D01*
%TO.C,Q1*%
X11488850Y-11151900D02*
X11488850Y-11441900D01*
X11488850Y-11441900D02*
X11648850Y-11441900D01*
X11608850Y-11151900D02*
X11488850Y-11151900D01*
X11648850Y-11191900D02*
X11608850Y-11151900D01*
X11648850Y-11441900D02*
X11648850Y-11191900D01*
%TD*%
M02*
