M48
; DRILL file {KiCad 9.0.2} date 2025-08-20T17:26:38+0200
; FORMAT={-:-/ absolute / metric / decimal}
; #@! TF.CreationDate,2025-08-20T17:26:38+02:00
; #@! TF.GenerationSoftware,Kicad,Pcbnew,9.0.2
; #@! TF.FileFunction,MixedPlating,1,2
FMAT,2
METRIC
; #@! TA.AperFunction,Plated,PTH,ComponentDrill
T1C0.889
; #@! TA.AperFunction,Plated,PTH,ComponentDrill
T2C1.000
; #@! TA.AperFunction,Plated,PTH,ComponentDrill
T3C1.300
%
G90
G05
T1
X133.858Y-121.666
X133.858Y-124.206
X133.858Y-126.746
X133.858Y-129.286
X133.858Y-131.826
X133.858Y-134.366
X133.858Y-136.906
X149.098Y-121.666
X149.098Y-124.206
X149.098Y-126.746
X149.098Y-129.286
X149.098Y-131.826
X149.098Y-134.366
X149.098Y-136.906
T2
X127.762Y-107.188
X130.302Y-107.188
X132.842Y-107.188
X135.382Y-107.188
X160.782Y-106.172
X160.782Y-108.712
X160.782Y-111.252
X160.782Y-113.792
X160.782Y-116.332
X160.782Y-118.872
X160.782Y-121.412
X160.782Y-123.952
T3
X82.772Y-122.813
X85.852Y-95.25
X86.272Y-115.313
X89.771Y-122.813
X90.932Y-95.25
X96.012Y-95.25
X106.271Y-115.313
X106.271Y-122.813
X124.714Y-94.996
X129.794Y-94.996
X134.874Y-94.996
X139.954Y-94.996
X145.034Y-94.996
X150.114Y-94.996
M30
