%TF.GenerationSoftware,KiCad,Pcbnew,9.0.4*%
%TF.CreationDate,2025-09-19T15:57:40+02:00*%
%TF.ProjectId,esp32c6-charger,65737033-3263-4362-9d63-686172676572,rev?*%
%TF.SameCoordinates,Original*%
%TF.FileFunction,AssemblyDrawing,Top*%
%FSLAX45Y45*%
G04 Gerber Fmt 4.5, Leading zero omitted, Abs format (unit mm)*
G04 Created by KiCad (PCBNEW 9.0.4) date 2025-09-19 15:57:40*
%MOMM*%
%LPD*%
G01*
G04 APERTURE LIST*
%ADD10C,0.150000*%
%ADD11C,0.100000*%
G04 APERTURE END LIST*
D10*
X11818233Y-9495420D02*
X11832519Y-9500182D01*
X11832519Y-9500182D02*
X11856328Y-9500182D01*
X11856328Y-9500182D02*
X11865852Y-9495420D01*
X11865852Y-9495420D02*
X11870614Y-9490658D01*
X11870614Y-9490658D02*
X11875376Y-9481134D01*
X11875376Y-9481134D02*
X11875376Y-9471610D01*
X11875376Y-9471610D02*
X11870614Y-9462087D01*
X11870614Y-9462087D02*
X11865852Y-9457325D01*
X11865852Y-9457325D02*
X11856328Y-9452563D01*
X11856328Y-9452563D02*
X11837281Y-9447801D01*
X11837281Y-9447801D02*
X11827757Y-9443039D01*
X11827757Y-9443039D02*
X11822995Y-9438277D01*
X11822995Y-9438277D02*
X11818233Y-9428753D01*
X11818233Y-9428753D02*
X11818233Y-9419230D01*
X11818233Y-9419230D02*
X11822995Y-9409706D01*
X11822995Y-9409706D02*
X11827757Y-9404944D01*
X11827757Y-9404944D02*
X11837281Y-9400182D01*
X11837281Y-9400182D02*
X11861090Y-9400182D01*
X11861090Y-9400182D02*
X11875376Y-9404944D01*
X11913471Y-9495420D02*
X11927757Y-9500182D01*
X11927757Y-9500182D02*
X11951567Y-9500182D01*
X11951567Y-9500182D02*
X11961090Y-9495420D01*
X11961090Y-9495420D02*
X11965852Y-9490658D01*
X11965852Y-9490658D02*
X11970614Y-9481134D01*
X11970614Y-9481134D02*
X11970614Y-9471610D01*
X11970614Y-9471610D02*
X11965852Y-9462087D01*
X11965852Y-9462087D02*
X11961090Y-9457325D01*
X11961090Y-9457325D02*
X11951567Y-9452563D01*
X11951567Y-9452563D02*
X11932519Y-9447801D01*
X11932519Y-9447801D02*
X11922995Y-9443039D01*
X11922995Y-9443039D02*
X11918233Y-9438277D01*
X11918233Y-9438277D02*
X11913471Y-9428753D01*
X11913471Y-9428753D02*
X11913471Y-9419230D01*
X11913471Y-9419230D02*
X11918233Y-9409706D01*
X11918233Y-9409706D02*
X11922995Y-9404944D01*
X11922995Y-9404944D02*
X11932519Y-9400182D01*
X11932519Y-9400182D02*
X11956328Y-9400182D01*
X11956328Y-9400182D02*
X11970614Y-9404944D01*
X12013471Y-9500182D02*
X12013471Y-9400182D01*
X12013471Y-9400182D02*
X12037281Y-9400182D01*
X12037281Y-9400182D02*
X12051567Y-9404944D01*
X12051567Y-9404944D02*
X12061090Y-9414468D01*
X12061090Y-9414468D02*
X12065852Y-9423991D01*
X12065852Y-9423991D02*
X12070614Y-9443039D01*
X12070614Y-9443039D02*
X12070614Y-9457325D01*
X12070614Y-9457325D02*
X12065852Y-9476372D01*
X12065852Y-9476372D02*
X12061090Y-9485896D01*
X12061090Y-9485896D02*
X12051567Y-9495420D01*
X12051567Y-9495420D02*
X12037281Y-9500182D01*
X12037281Y-9500182D02*
X12013471Y-9500182D01*
X12165852Y-9500182D02*
X12108709Y-9500182D01*
X12137281Y-9500182D02*
X12137281Y-9400182D01*
X12137281Y-9400182D02*
X12127757Y-9414468D01*
X12127757Y-9414468D02*
X12118233Y-9423991D01*
X12118233Y-9423991D02*
X12108709Y-9428753D01*
X12199186Y-9400182D02*
X12261090Y-9400182D01*
X12261090Y-9400182D02*
X12227757Y-9438277D01*
X12227757Y-9438277D02*
X12242043Y-9438277D01*
X12242043Y-9438277D02*
X12251567Y-9443039D01*
X12251567Y-9443039D02*
X12256328Y-9447801D01*
X12256328Y-9447801D02*
X12261090Y-9457325D01*
X12261090Y-9457325D02*
X12261090Y-9481134D01*
X12261090Y-9481134D02*
X12256328Y-9490658D01*
X12256328Y-9490658D02*
X12251567Y-9495420D01*
X12251567Y-9495420D02*
X12242043Y-9500182D01*
X12242043Y-9500182D02*
X12213471Y-9500182D01*
X12213471Y-9500182D02*
X12203948Y-9495420D01*
X12203948Y-9495420D02*
X12199186Y-9490658D01*
X12322995Y-9400182D02*
X12332519Y-9400182D01*
X12332519Y-9400182D02*
X12342043Y-9404944D01*
X12342043Y-9404944D02*
X12346805Y-9409706D01*
X12346805Y-9409706D02*
X12351567Y-9419230D01*
X12351567Y-9419230D02*
X12356328Y-9438277D01*
X12356328Y-9438277D02*
X12356328Y-9462087D01*
X12356328Y-9462087D02*
X12351567Y-9481134D01*
X12351567Y-9481134D02*
X12346805Y-9490658D01*
X12346805Y-9490658D02*
X12342043Y-9495420D01*
X12342043Y-9495420D02*
X12332519Y-9500182D01*
X12332519Y-9500182D02*
X12322995Y-9500182D01*
X12322995Y-9500182D02*
X12313471Y-9495420D01*
X12313471Y-9495420D02*
X12308709Y-9490658D01*
X12308709Y-9490658D02*
X12303948Y-9481134D01*
X12303948Y-9481134D02*
X12299186Y-9462087D01*
X12299186Y-9462087D02*
X12299186Y-9438277D01*
X12299186Y-9438277D02*
X12303948Y-9419230D01*
X12303948Y-9419230D02*
X12308709Y-9409706D01*
X12308709Y-9409706D02*
X12313471Y-9404944D01*
X12313471Y-9404944D02*
X12322995Y-9400182D01*
X12442043Y-9400182D02*
X12422995Y-9400182D01*
X12422995Y-9400182D02*
X12413471Y-9404944D01*
X12413471Y-9404944D02*
X12408709Y-9409706D01*
X12408709Y-9409706D02*
X12399186Y-9423991D01*
X12399186Y-9423991D02*
X12394424Y-9443039D01*
X12394424Y-9443039D02*
X12394424Y-9481134D01*
X12394424Y-9481134D02*
X12399186Y-9490658D01*
X12399186Y-9490658D02*
X12403948Y-9495420D01*
X12403948Y-9495420D02*
X12413471Y-9500182D01*
X12413471Y-9500182D02*
X12432519Y-9500182D01*
X12432519Y-9500182D02*
X12442043Y-9495420D01*
X12442043Y-9495420D02*
X12446805Y-9490658D01*
X12446805Y-9490658D02*
X12451567Y-9481134D01*
X12451567Y-9481134D02*
X12451567Y-9457325D01*
X12451567Y-9457325D02*
X12446805Y-9447801D01*
X12446805Y-9447801D02*
X12442043Y-9443039D01*
X12442043Y-9443039D02*
X12432519Y-9438277D01*
X12432519Y-9438277D02*
X12413471Y-9438277D01*
X12413471Y-9438277D02*
X12403948Y-9443039D01*
X12403948Y-9443039D02*
X12399186Y-9447801D01*
X12399186Y-9447801D02*
X12394424Y-9457325D01*
X15895082Y-10296481D02*
X15847463Y-10329814D01*
X15895082Y-10353624D02*
X15795082Y-10353624D01*
X15795082Y-10353624D02*
X15795082Y-10315529D01*
X15795082Y-10315529D02*
X15799844Y-10306005D01*
X15799844Y-10306005D02*
X15804606Y-10301243D01*
X15804606Y-10301243D02*
X15814129Y-10296481D01*
X15814129Y-10296481D02*
X15828415Y-10296481D01*
X15828415Y-10296481D02*
X15837939Y-10301243D01*
X15837939Y-10301243D02*
X15842701Y-10306005D01*
X15842701Y-10306005D02*
X15847463Y-10315529D01*
X15847463Y-10315529D02*
X15847463Y-10353624D01*
X15828415Y-10267910D02*
X15828415Y-10229814D01*
X15895082Y-10253624D02*
X15809368Y-10253624D01*
X15809368Y-10253624D02*
X15799844Y-10248862D01*
X15799844Y-10248862D02*
X15795082Y-10239338D01*
X15795082Y-10239338D02*
X15795082Y-10229814D01*
X15895082Y-10196481D02*
X15828415Y-10196481D01*
X15795082Y-10196481D02*
X15799844Y-10201243D01*
X15799844Y-10201243D02*
X15804606Y-10196481D01*
X15804606Y-10196481D02*
X15799844Y-10191719D01*
X15799844Y-10191719D02*
X15795082Y-10196481D01*
X15795082Y-10196481D02*
X15804606Y-10196481D01*
X15895082Y-10106005D02*
X15795082Y-10106005D01*
X15890320Y-10106005D02*
X15895082Y-10115529D01*
X15895082Y-10115529D02*
X15895082Y-10134576D01*
X15895082Y-10134576D02*
X15890320Y-10144100D01*
X15890320Y-10144100D02*
X15885558Y-10148862D01*
X15885558Y-10148862D02*
X15876034Y-10153624D01*
X15876034Y-10153624D02*
X15847463Y-10153624D01*
X15847463Y-10153624D02*
X15837939Y-10148862D01*
X15837939Y-10148862D02*
X15833177Y-10144100D01*
X15833177Y-10144100D02*
X15828415Y-10134576D01*
X15828415Y-10134576D02*
X15828415Y-10115529D01*
X15828415Y-10115529D02*
X15833177Y-10106005D01*
X15895082Y-10058386D02*
X15828415Y-10058386D01*
X15847463Y-10058386D02*
X15837939Y-10053624D01*
X15837939Y-10053624D02*
X15833177Y-10048862D01*
X15833177Y-10048862D02*
X15828415Y-10039338D01*
X15828415Y-10039338D02*
X15828415Y-10029814D01*
X15890320Y-9958386D02*
X15895082Y-9967910D01*
X15895082Y-9967910D02*
X15895082Y-9986957D01*
X15895082Y-9986957D02*
X15890320Y-9996481D01*
X15890320Y-9996481D02*
X15880796Y-10001243D01*
X15880796Y-10001243D02*
X15842701Y-10001243D01*
X15842701Y-10001243D02*
X15833177Y-9996481D01*
X15833177Y-9996481D02*
X15828415Y-9986957D01*
X15828415Y-9986957D02*
X15828415Y-9967910D01*
X15828415Y-9967910D02*
X15833177Y-9958386D01*
X15833177Y-9958386D02*
X15842701Y-9953624D01*
X15842701Y-9953624D02*
X15852225Y-9953624D01*
X15852225Y-9953624D02*
X15861748Y-10001243D01*
X15895082Y-9867910D02*
X15842701Y-9867910D01*
X15842701Y-9867910D02*
X15833177Y-9872671D01*
X15833177Y-9872671D02*
X15828415Y-9882195D01*
X15828415Y-9882195D02*
X15828415Y-9901243D01*
X15828415Y-9901243D02*
X15833177Y-9910767D01*
X15890320Y-9867910D02*
X15895082Y-9877433D01*
X15895082Y-9877433D02*
X15895082Y-9901243D01*
X15895082Y-9901243D02*
X15890320Y-9910767D01*
X15890320Y-9910767D02*
X15880796Y-9915529D01*
X15880796Y-9915529D02*
X15871272Y-9915529D01*
X15871272Y-9915529D02*
X15861748Y-9910767D01*
X15861748Y-9910767D02*
X15856987Y-9901243D01*
X15856987Y-9901243D02*
X15856987Y-9877433D01*
X15856987Y-9877433D02*
X15852225Y-9867910D01*
X15895082Y-9777433D02*
X15795082Y-9777433D01*
X15890320Y-9777433D02*
X15895082Y-9786957D01*
X15895082Y-9786957D02*
X15895082Y-9806005D01*
X15895082Y-9806005D02*
X15890320Y-9815529D01*
X15890320Y-9815529D02*
X15885558Y-9820290D01*
X15885558Y-9820290D02*
X15876034Y-9825052D01*
X15876034Y-9825052D02*
X15847463Y-9825052D01*
X15847463Y-9825052D02*
X15837939Y-9820290D01*
X15837939Y-9820290D02*
X15833177Y-9815529D01*
X15833177Y-9815529D02*
X15828415Y-9806005D01*
X15828415Y-9806005D02*
X15828415Y-9786957D01*
X15828415Y-9786957D02*
X15833177Y-9777433D01*
X15890320Y-9691719D02*
X15895082Y-9701243D01*
X15895082Y-9701243D02*
X15895082Y-9720290D01*
X15895082Y-9720290D02*
X15890320Y-9729814D01*
X15890320Y-9729814D02*
X15880796Y-9734576D01*
X15880796Y-9734576D02*
X15842701Y-9734576D01*
X15842701Y-9734576D02*
X15833177Y-9729814D01*
X15833177Y-9729814D02*
X15828415Y-9720290D01*
X15828415Y-9720290D02*
X15828415Y-9701243D01*
X15828415Y-9701243D02*
X15833177Y-9691719D01*
X15833177Y-9691719D02*
X15842701Y-9686957D01*
X15842701Y-9686957D02*
X15852225Y-9686957D01*
X15852225Y-9686957D02*
X15861748Y-9734576D01*
X15895082Y-9644100D02*
X15828415Y-9644100D01*
X15847463Y-9644100D02*
X15837939Y-9639338D01*
X15837939Y-9639338D02*
X15833177Y-9634576D01*
X15833177Y-9634576D02*
X15828415Y-9625052D01*
X15828415Y-9625052D02*
X15828415Y-9615529D01*
X15895082Y-9529814D02*
X15895082Y-9586957D01*
X15895082Y-9558386D02*
X15795082Y-9558386D01*
X15795082Y-9558386D02*
X15809368Y-9567909D01*
X15809368Y-9567909D02*
X15818891Y-9577433D01*
X15818891Y-9577433D02*
X15823653Y-9586957D01*
X14961352Y-9307330D02*
X14961352Y-9227330D01*
X14961352Y-9227330D02*
X14980400Y-9227330D01*
X14980400Y-9227330D02*
X14991829Y-9231139D01*
X14991829Y-9231139D02*
X14999448Y-9238758D01*
X14999448Y-9238758D02*
X15003257Y-9246377D01*
X15003257Y-9246377D02*
X15007067Y-9261615D01*
X15007067Y-9261615D02*
X15007067Y-9273044D01*
X15007067Y-9273044D02*
X15003257Y-9288282D01*
X15003257Y-9288282D02*
X14999448Y-9295901D01*
X14999448Y-9295901D02*
X14991829Y-9303520D01*
X14991829Y-9303520D02*
X14980400Y-9307330D01*
X14980400Y-9307330D02*
X14961352Y-9307330D01*
X15083257Y-9307330D02*
X15037543Y-9307330D01*
X15060400Y-9307330D02*
X15060400Y-9227330D01*
X15060400Y-9227330D02*
X15052781Y-9238758D01*
X15052781Y-9238758D02*
X15045162Y-9246377D01*
X15045162Y-9246377D02*
X15037543Y-9250187D01*
D11*
%TO.C,Rfidreader1*%
X15722600Y-8991600D02*
X15786100Y-8928100D01*
X15722600Y-10960100D02*
X15722600Y-8991600D01*
X15786100Y-8928100D02*
X15976600Y-8928100D01*
X15976600Y-8928100D02*
X15976600Y-10960100D01*
X15976600Y-10960100D02*
X15722600Y-10960100D01*
%TO.C,D1*%
X14770400Y-9021100D02*
X14770400Y-9521100D01*
X14770400Y-9521100D02*
X15270400Y-9521100D01*
X15270400Y-9021100D02*
X14770400Y-9021100D01*
X15270400Y-9421100D02*
X15170400Y-9521100D01*
X15270400Y-9521100D02*
X15270400Y-9021100D01*
X15220400Y-9271100D02*
G75*
G02*
X14820400Y-9271100I-200000J0D01*
G01*
X14820400Y-9271100D02*
G75*
G02*
X15220400Y-9271100I200000J0D01*
G01*
%TD*%
M02*
