%TF.GenerationSoftware,KiCad,Pcbnew,9.0.4*%
%TF.CreationDate,2025-09-04T11:13:05+02:00*%
%TF.ProjectId,esp32c6-charger,65737033-3263-4362-9d63-686172676572,rev?*%
%TF.SameCoordinates,Original*%
%TF.FileFunction,Legend,Top*%
%TF.FilePolarity,Positive*%
%FSLAX45Y45*%
G04 Gerber Fmt 4.5, Leading zero omitted, Abs format (unit mm)*
G04 Created by KiCad (PCBNEW 9.0.4) date 2025-09-04 11:13:05*
%MOMM*%
%LPD*%
G01*
G04 APERTURE LIST*
%ADD10C,0.150000*%
%ADD11C,0.120000*%
G04 APERTURE END LIST*
D10*
X12661143Y-8986282D02*
X12661143Y-8886282D01*
X12661143Y-8886282D02*
X12684952Y-8886282D01*
X12684952Y-8886282D02*
X12699238Y-8891044D01*
X12699238Y-8891044D02*
X12708762Y-8900568D01*
X12708762Y-8900568D02*
X12713524Y-8910091D01*
X12713524Y-8910091D02*
X12718286Y-8929139D01*
X12718286Y-8929139D02*
X12718286Y-8943425D01*
X12718286Y-8943425D02*
X12713524Y-8962472D01*
X12713524Y-8962472D02*
X12708762Y-8971996D01*
X12708762Y-8971996D02*
X12699238Y-8981520D01*
X12699238Y-8981520D02*
X12684952Y-8986282D01*
X12684952Y-8986282D02*
X12661143Y-8986282D01*
X12761143Y-8986282D02*
X12761143Y-8919615D01*
X12761143Y-8886282D02*
X12756381Y-8891044D01*
X12756381Y-8891044D02*
X12761143Y-8895806D01*
X12761143Y-8895806D02*
X12765905Y-8891044D01*
X12765905Y-8891044D02*
X12761143Y-8886282D01*
X12761143Y-8886282D02*
X12761143Y-8895806D01*
X12804000Y-8981520D02*
X12813524Y-8986282D01*
X12813524Y-8986282D02*
X12832571Y-8986282D01*
X12832571Y-8986282D02*
X12842095Y-8981520D01*
X12842095Y-8981520D02*
X12846857Y-8971996D01*
X12846857Y-8971996D02*
X12846857Y-8967234D01*
X12846857Y-8967234D02*
X12842095Y-8957710D01*
X12842095Y-8957710D02*
X12832571Y-8952949D01*
X12832571Y-8952949D02*
X12818286Y-8952949D01*
X12818286Y-8952949D02*
X12808762Y-8948187D01*
X12808762Y-8948187D02*
X12804000Y-8938663D01*
X12804000Y-8938663D02*
X12804000Y-8933901D01*
X12804000Y-8933901D02*
X12808762Y-8924377D01*
X12808762Y-8924377D02*
X12818286Y-8919615D01*
X12818286Y-8919615D02*
X12832571Y-8919615D01*
X12832571Y-8919615D02*
X12842095Y-8924377D01*
X12889714Y-8919615D02*
X12889714Y-9019615D01*
X12889714Y-8924377D02*
X12899238Y-8919615D01*
X12899238Y-8919615D02*
X12918286Y-8919615D01*
X12918286Y-8919615D02*
X12927809Y-8924377D01*
X12927809Y-8924377D02*
X12932571Y-8929139D01*
X12932571Y-8929139D02*
X12937333Y-8938663D01*
X12937333Y-8938663D02*
X12937333Y-8967234D01*
X12937333Y-8967234D02*
X12932571Y-8976758D01*
X12932571Y-8976758D02*
X12927809Y-8981520D01*
X12927809Y-8981520D02*
X12918286Y-8986282D01*
X12918286Y-8986282D02*
X12899238Y-8986282D01*
X12899238Y-8986282D02*
X12889714Y-8981520D01*
X12994476Y-8986282D02*
X12984952Y-8981520D01*
X12984952Y-8981520D02*
X12980190Y-8971996D01*
X12980190Y-8971996D02*
X12980190Y-8886282D01*
X13075428Y-8986282D02*
X13075428Y-8933901D01*
X13075428Y-8933901D02*
X13070667Y-8924377D01*
X13070667Y-8924377D02*
X13061143Y-8919615D01*
X13061143Y-8919615D02*
X13042095Y-8919615D01*
X13042095Y-8919615D02*
X13032571Y-8924377D01*
X13075428Y-8981520D02*
X13065905Y-8986282D01*
X13065905Y-8986282D02*
X13042095Y-8986282D01*
X13042095Y-8986282D02*
X13032571Y-8981520D01*
X13032571Y-8981520D02*
X13027809Y-8971996D01*
X13027809Y-8971996D02*
X13027809Y-8962472D01*
X13027809Y-8962472D02*
X13032571Y-8952949D01*
X13032571Y-8952949D02*
X13042095Y-8948187D01*
X13042095Y-8948187D02*
X13065905Y-8948187D01*
X13065905Y-8948187D02*
X13075428Y-8943425D01*
X13113524Y-8919615D02*
X13137333Y-8986282D01*
X13161143Y-8919615D02*
X13137333Y-8986282D01*
X13137333Y-8986282D02*
X13127809Y-9010091D01*
X13127809Y-9010091D02*
X13123048Y-9014853D01*
X13123048Y-9014853D02*
X13113524Y-9019615D01*
X13251619Y-8986282D02*
X13194476Y-8986282D01*
X13223048Y-8986282D02*
X13223048Y-8886282D01*
X13223048Y-8886282D02*
X13213524Y-8900568D01*
X13213524Y-8900568D02*
X13204000Y-8910091D01*
X13204000Y-8910091D02*
X13194476Y-8914853D01*
X15497219Y-8862582D02*
X15463886Y-8814963D01*
X15440076Y-8862582D02*
X15440076Y-8762582D01*
X15440076Y-8762582D02*
X15478171Y-8762582D01*
X15478171Y-8762582D02*
X15487695Y-8767344D01*
X15487695Y-8767344D02*
X15492457Y-8772106D01*
X15492457Y-8772106D02*
X15497219Y-8781630D01*
X15497219Y-8781630D02*
X15497219Y-8795915D01*
X15497219Y-8795915D02*
X15492457Y-8805439D01*
X15492457Y-8805439D02*
X15487695Y-8810201D01*
X15487695Y-8810201D02*
X15478171Y-8814963D01*
X15478171Y-8814963D02*
X15440076Y-8814963D01*
X15525790Y-8795915D02*
X15563886Y-8795915D01*
X15540076Y-8862582D02*
X15540076Y-8776868D01*
X15540076Y-8776868D02*
X15544838Y-8767344D01*
X15544838Y-8767344D02*
X15554362Y-8762582D01*
X15554362Y-8762582D02*
X15563886Y-8762582D01*
X15597219Y-8862582D02*
X15597219Y-8795915D01*
X15597219Y-8762582D02*
X15592457Y-8767344D01*
X15592457Y-8767344D02*
X15597219Y-8772106D01*
X15597219Y-8772106D02*
X15601981Y-8767344D01*
X15601981Y-8767344D02*
X15597219Y-8762582D01*
X15597219Y-8762582D02*
X15597219Y-8772106D01*
X15687695Y-8862582D02*
X15687695Y-8762582D01*
X15687695Y-8857820D02*
X15678171Y-8862582D01*
X15678171Y-8862582D02*
X15659124Y-8862582D01*
X15659124Y-8862582D02*
X15649600Y-8857820D01*
X15649600Y-8857820D02*
X15644838Y-8853058D01*
X15644838Y-8853058D02*
X15640076Y-8843534D01*
X15640076Y-8843534D02*
X15640076Y-8814963D01*
X15640076Y-8814963D02*
X15644838Y-8805439D01*
X15644838Y-8805439D02*
X15649600Y-8800677D01*
X15649600Y-8800677D02*
X15659124Y-8795915D01*
X15659124Y-8795915D02*
X15678171Y-8795915D01*
X15678171Y-8795915D02*
X15687695Y-8800677D01*
X15735314Y-8862582D02*
X15735314Y-8795915D01*
X15735314Y-8814963D02*
X15740076Y-8805439D01*
X15740076Y-8805439D02*
X15744838Y-8800677D01*
X15744838Y-8800677D02*
X15754362Y-8795915D01*
X15754362Y-8795915D02*
X15763886Y-8795915D01*
X15835314Y-8857820D02*
X15825790Y-8862582D01*
X15825790Y-8862582D02*
X15806743Y-8862582D01*
X15806743Y-8862582D02*
X15797219Y-8857820D01*
X15797219Y-8857820D02*
X15792457Y-8848296D01*
X15792457Y-8848296D02*
X15792457Y-8810201D01*
X15792457Y-8810201D02*
X15797219Y-8800677D01*
X15797219Y-8800677D02*
X15806743Y-8795915D01*
X15806743Y-8795915D02*
X15825790Y-8795915D01*
X15825790Y-8795915D02*
X15835314Y-8800677D01*
X15835314Y-8800677D02*
X15840076Y-8810201D01*
X15840076Y-8810201D02*
X15840076Y-8819725D01*
X15840076Y-8819725D02*
X15792457Y-8829249D01*
X15925790Y-8862582D02*
X15925790Y-8810201D01*
X15925790Y-8810201D02*
X15921028Y-8800677D01*
X15921028Y-8800677D02*
X15911505Y-8795915D01*
X15911505Y-8795915D02*
X15892457Y-8795915D01*
X15892457Y-8795915D02*
X15882933Y-8800677D01*
X15925790Y-8857820D02*
X15916267Y-8862582D01*
X15916267Y-8862582D02*
X15892457Y-8862582D01*
X15892457Y-8862582D02*
X15882933Y-8857820D01*
X15882933Y-8857820D02*
X15878171Y-8848296D01*
X15878171Y-8848296D02*
X15878171Y-8838772D01*
X15878171Y-8838772D02*
X15882933Y-8829249D01*
X15882933Y-8829249D02*
X15892457Y-8824487D01*
X15892457Y-8824487D02*
X15916267Y-8824487D01*
X15916267Y-8824487D02*
X15925790Y-8819725D01*
X16016267Y-8862582D02*
X16016267Y-8762582D01*
X16016267Y-8857820D02*
X16006743Y-8862582D01*
X16006743Y-8862582D02*
X15987695Y-8862582D01*
X15987695Y-8862582D02*
X15978171Y-8857820D01*
X15978171Y-8857820D02*
X15973409Y-8853058D01*
X15973409Y-8853058D02*
X15968648Y-8843534D01*
X15968648Y-8843534D02*
X15968648Y-8814963D01*
X15968648Y-8814963D02*
X15973409Y-8805439D01*
X15973409Y-8805439D02*
X15978171Y-8800677D01*
X15978171Y-8800677D02*
X15987695Y-8795915D01*
X15987695Y-8795915D02*
X16006743Y-8795915D01*
X16006743Y-8795915D02*
X16016267Y-8800677D01*
X16101981Y-8857820D02*
X16092457Y-8862582D01*
X16092457Y-8862582D02*
X16073409Y-8862582D01*
X16073409Y-8862582D02*
X16063886Y-8857820D01*
X16063886Y-8857820D02*
X16059124Y-8848296D01*
X16059124Y-8848296D02*
X16059124Y-8810201D01*
X16059124Y-8810201D02*
X16063886Y-8800677D01*
X16063886Y-8800677D02*
X16073409Y-8795915D01*
X16073409Y-8795915D02*
X16092457Y-8795915D01*
X16092457Y-8795915D02*
X16101981Y-8800677D01*
X16101981Y-8800677D02*
X16106743Y-8810201D01*
X16106743Y-8810201D02*
X16106743Y-8819725D01*
X16106743Y-8819725D02*
X16059124Y-8829249D01*
X16149600Y-8862582D02*
X16149600Y-8795915D01*
X16149600Y-8814963D02*
X16154362Y-8805439D01*
X16154362Y-8805439D02*
X16159124Y-8800677D01*
X16159124Y-8800677D02*
X16168648Y-8795915D01*
X16168648Y-8795915D02*
X16178171Y-8795915D01*
X16263886Y-8862582D02*
X16206743Y-8862582D01*
X16235314Y-8862582D02*
X16235314Y-8762582D01*
X16235314Y-8762582D02*
X16225790Y-8776868D01*
X16225790Y-8776868D02*
X16216267Y-8786391D01*
X16216267Y-8786391D02*
X16206743Y-8791153D01*
X14946590Y-8966582D02*
X14946590Y-8866582D01*
X14946590Y-8866582D02*
X14970400Y-8866582D01*
X14970400Y-8866582D02*
X14984686Y-8871344D01*
X14984686Y-8871344D02*
X14994209Y-8880868D01*
X14994209Y-8880868D02*
X14998971Y-8890391D01*
X14998971Y-8890391D02*
X15003733Y-8909439D01*
X15003733Y-8909439D02*
X15003733Y-8923725D01*
X15003733Y-8923725D02*
X14998971Y-8942772D01*
X14998971Y-8942772D02*
X14994209Y-8952296D01*
X14994209Y-8952296D02*
X14984686Y-8961820D01*
X14984686Y-8961820D02*
X14970400Y-8966582D01*
X14970400Y-8966582D02*
X14946590Y-8966582D01*
X15098971Y-8966582D02*
X15041829Y-8966582D01*
X15070400Y-8966582D02*
X15070400Y-8866582D01*
X15070400Y-8866582D02*
X15060876Y-8880868D01*
X15060876Y-8880868D02*
X15051352Y-8890391D01*
X15051352Y-8890391D02*
X15041829Y-8895153D01*
X14643257Y-9147330D02*
X14597543Y-9147330D01*
X14620400Y-9147330D02*
X14620400Y-9067330D01*
X14620400Y-9067330D02*
X14612781Y-9078758D01*
X14612781Y-9078758D02*
X14605162Y-9086377D01*
X14605162Y-9086377D02*
X14597543Y-9090187D01*
D11*
%TO.C,Display1*%
X11569600Y-8986700D02*
X14309600Y-8986700D01*
X11569600Y-11716700D02*
X11569600Y-8986700D01*
X11611800Y-9316200D02*
X13921800Y-9316200D01*
X11611800Y-10976200D02*
X11611800Y-9316200D01*
X12439700Y-9035600D02*
X12439700Y-9276900D01*
X12439700Y-9035600D02*
X13417600Y-9035600D01*
X13417600Y-9035600D02*
X13417600Y-9276900D01*
X13417600Y-9276900D02*
X12439700Y-9276900D01*
X13921800Y-9316200D02*
X14230400Y-9316200D01*
X13921800Y-10976200D02*
X11611800Y-10976200D01*
X13921800Y-10976200D02*
X14255800Y-10978700D01*
X14255800Y-9315000D02*
X14230400Y-9316200D01*
X14255800Y-10978700D02*
X14255800Y-9315000D01*
X14309600Y-8986700D02*
X14309600Y-11716700D01*
X14309600Y-11716700D02*
X11569600Y-11716700D01*
%TO.C,Rfidreader1*%
X15711600Y-8917100D02*
X15849600Y-8917100D01*
X15711600Y-9055100D02*
X15711600Y-8917100D01*
X15711600Y-9182100D02*
X15711600Y-10971100D01*
X15711600Y-9182100D02*
X15987600Y-9182100D01*
X15711600Y-10971100D02*
X15987600Y-10971100D01*
X15987600Y-9182100D02*
X15987600Y-10971100D01*
%TO.C,D1*%
X14670400Y-8996100D02*
X14670400Y-9546100D01*
X14670400Y-8996100D02*
X15370400Y-8996100D01*
X14670400Y-9546100D02*
X15325400Y-9546100D01*
X14750400Y-9361100D02*
X14750400Y-9181100D01*
X15290400Y-9361100D02*
X15290400Y-9181100D01*
X15325400Y-9546100D02*
X15370400Y-9501100D01*
X15370400Y-9501100D02*
X15370400Y-8996100D01*
%TD*%
M02*
