%TF.GenerationSoftware,KiCad,Pcbnew,9.0.2*%
%TF.CreationDate,2025-08-21T21:33:00+02:00*%
%TF.ProjectId,esp32c6-charger,65737033-3263-4362-9d63-686172676572,rev?*%
%TF.SameCoordinates,Original*%
%TF.FileFunction,AssemblyDrawing,Top*%
%FSLAX45Y45*%
G04 Gerber Fmt 4.5, Leading zero omitted, Abs format (unit mm)*
G04 Created by KiCad (PCBNEW 9.0.2) date 2025-08-21 21:33:00*
%MOMM*%
%LPD*%
G01*
G04 APERTURE LIST*
%ADD10C,0.150000*%
%ADD11C,0.100000*%
G04 APERTURE END LIST*
D10*
X12046833Y-11057520D02*
X12061119Y-11062282D01*
X12061119Y-11062282D02*
X12084928Y-11062282D01*
X12084928Y-11062282D02*
X12094452Y-11057520D01*
X12094452Y-11057520D02*
X12099214Y-11052758D01*
X12099214Y-11052758D02*
X12103976Y-11043234D01*
X12103976Y-11043234D02*
X12103976Y-11033710D01*
X12103976Y-11033710D02*
X12099214Y-11024187D01*
X12099214Y-11024187D02*
X12094452Y-11019425D01*
X12094452Y-11019425D02*
X12084928Y-11014663D01*
X12084928Y-11014663D02*
X12065881Y-11009901D01*
X12065881Y-11009901D02*
X12056357Y-11005139D01*
X12056357Y-11005139D02*
X12051595Y-11000377D01*
X12051595Y-11000377D02*
X12046833Y-10990853D01*
X12046833Y-10990853D02*
X12046833Y-10981330D01*
X12046833Y-10981330D02*
X12051595Y-10971806D01*
X12051595Y-10971806D02*
X12056357Y-10967044D01*
X12056357Y-10967044D02*
X12065881Y-10962282D01*
X12065881Y-10962282D02*
X12089690Y-10962282D01*
X12089690Y-10962282D02*
X12103976Y-10967044D01*
X12142071Y-11057520D02*
X12156357Y-11062282D01*
X12156357Y-11062282D02*
X12180167Y-11062282D01*
X12180167Y-11062282D02*
X12189690Y-11057520D01*
X12189690Y-11057520D02*
X12194452Y-11052758D01*
X12194452Y-11052758D02*
X12199214Y-11043234D01*
X12199214Y-11043234D02*
X12199214Y-11033710D01*
X12199214Y-11033710D02*
X12194452Y-11024187D01*
X12194452Y-11024187D02*
X12189690Y-11019425D01*
X12189690Y-11019425D02*
X12180167Y-11014663D01*
X12180167Y-11014663D02*
X12161119Y-11009901D01*
X12161119Y-11009901D02*
X12151595Y-11005139D01*
X12151595Y-11005139D02*
X12146833Y-11000377D01*
X12146833Y-11000377D02*
X12142071Y-10990853D01*
X12142071Y-10990853D02*
X12142071Y-10981330D01*
X12142071Y-10981330D02*
X12146833Y-10971806D01*
X12146833Y-10971806D02*
X12151595Y-10967044D01*
X12151595Y-10967044D02*
X12161119Y-10962282D01*
X12161119Y-10962282D02*
X12184928Y-10962282D01*
X12184928Y-10962282D02*
X12199214Y-10967044D01*
X12242071Y-11062282D02*
X12242071Y-10962282D01*
X12242071Y-10962282D02*
X12265881Y-10962282D01*
X12265881Y-10962282D02*
X12280167Y-10967044D01*
X12280167Y-10967044D02*
X12289690Y-10976568D01*
X12289690Y-10976568D02*
X12294452Y-10986091D01*
X12294452Y-10986091D02*
X12299214Y-11005139D01*
X12299214Y-11005139D02*
X12299214Y-11019425D01*
X12299214Y-11019425D02*
X12294452Y-11038472D01*
X12294452Y-11038472D02*
X12289690Y-11047996D01*
X12289690Y-11047996D02*
X12280167Y-11057520D01*
X12280167Y-11057520D02*
X12265881Y-11062282D01*
X12265881Y-11062282D02*
X12242071Y-11062282D01*
X12394452Y-11062282D02*
X12337309Y-11062282D01*
X12365881Y-11062282D02*
X12365881Y-10962282D01*
X12365881Y-10962282D02*
X12356357Y-10976568D01*
X12356357Y-10976568D02*
X12346833Y-10986091D01*
X12346833Y-10986091D02*
X12337309Y-10990853D01*
X12427786Y-10962282D02*
X12489690Y-10962282D01*
X12489690Y-10962282D02*
X12456357Y-11000377D01*
X12456357Y-11000377D02*
X12470643Y-11000377D01*
X12470643Y-11000377D02*
X12480167Y-11005139D01*
X12480167Y-11005139D02*
X12484928Y-11009901D01*
X12484928Y-11009901D02*
X12489690Y-11019425D01*
X12489690Y-11019425D02*
X12489690Y-11043234D01*
X12489690Y-11043234D02*
X12484928Y-11052758D01*
X12484928Y-11052758D02*
X12480167Y-11057520D01*
X12480167Y-11057520D02*
X12470643Y-11062282D01*
X12470643Y-11062282D02*
X12442071Y-11062282D01*
X12442071Y-11062282D02*
X12432548Y-11057520D01*
X12432548Y-11057520D02*
X12427786Y-11052758D01*
X12551595Y-10962282D02*
X12561119Y-10962282D01*
X12561119Y-10962282D02*
X12570643Y-10967044D01*
X12570643Y-10967044D02*
X12575405Y-10971806D01*
X12575405Y-10971806D02*
X12580167Y-10981330D01*
X12580167Y-10981330D02*
X12584928Y-11000377D01*
X12584928Y-11000377D02*
X12584928Y-11024187D01*
X12584928Y-11024187D02*
X12580167Y-11043234D01*
X12580167Y-11043234D02*
X12575405Y-11052758D01*
X12575405Y-11052758D02*
X12570643Y-11057520D01*
X12570643Y-11057520D02*
X12561119Y-11062282D01*
X12561119Y-11062282D02*
X12551595Y-11062282D01*
X12551595Y-11062282D02*
X12542071Y-11057520D01*
X12542071Y-11057520D02*
X12537309Y-11052758D01*
X12537309Y-11052758D02*
X12532548Y-11043234D01*
X12532548Y-11043234D02*
X12527786Y-11024187D01*
X12527786Y-11024187D02*
X12527786Y-11000377D01*
X12527786Y-11000377D02*
X12532548Y-10981330D01*
X12532548Y-10981330D02*
X12537309Y-10971806D01*
X12537309Y-10971806D02*
X12542071Y-10967044D01*
X12542071Y-10967044D02*
X12551595Y-10962282D01*
X12670643Y-10962282D02*
X12651595Y-10962282D01*
X12651595Y-10962282D02*
X12642071Y-10967044D01*
X12642071Y-10967044D02*
X12637309Y-10971806D01*
X12637309Y-10971806D02*
X12627786Y-10986091D01*
X12627786Y-10986091D02*
X12623024Y-11005139D01*
X12623024Y-11005139D02*
X12623024Y-11043234D01*
X12623024Y-11043234D02*
X12627786Y-11052758D01*
X12627786Y-11052758D02*
X12632548Y-11057520D01*
X12632548Y-11057520D02*
X12642071Y-11062282D01*
X12642071Y-11062282D02*
X12661119Y-11062282D01*
X12661119Y-11062282D02*
X12670643Y-11057520D01*
X12670643Y-11057520D02*
X12675405Y-11052758D01*
X12675405Y-11052758D02*
X12680167Y-11043234D01*
X12680167Y-11043234D02*
X12680167Y-11019425D01*
X12680167Y-11019425D02*
X12675405Y-11009901D01*
X12675405Y-11009901D02*
X12670643Y-11005139D01*
X12670643Y-11005139D02*
X12661119Y-11000377D01*
X12661119Y-11000377D02*
X12642071Y-11000377D01*
X12642071Y-11000377D02*
X12632548Y-11005139D01*
X12632548Y-11005139D02*
X12627786Y-11009901D01*
X12627786Y-11009901D02*
X12623024Y-11019425D01*
X15916295Y-12678682D02*
X15882962Y-12631063D01*
X15859152Y-12678682D02*
X15859152Y-12578682D01*
X15859152Y-12578682D02*
X15897248Y-12578682D01*
X15897248Y-12578682D02*
X15906771Y-12583444D01*
X15906771Y-12583444D02*
X15911533Y-12588206D01*
X15911533Y-12588206D02*
X15916295Y-12597729D01*
X15916295Y-12597729D02*
X15916295Y-12612015D01*
X15916295Y-12612015D02*
X15911533Y-12621539D01*
X15911533Y-12621539D02*
X15906771Y-12626301D01*
X15906771Y-12626301D02*
X15897248Y-12631063D01*
X15897248Y-12631063D02*
X15859152Y-12631063D01*
X16016295Y-12669158D02*
X16011533Y-12673920D01*
X16011533Y-12673920D02*
X15997248Y-12678682D01*
X15997248Y-12678682D02*
X15987724Y-12678682D01*
X15987724Y-12678682D02*
X15973438Y-12673920D01*
X15973438Y-12673920D02*
X15963914Y-12664396D01*
X15963914Y-12664396D02*
X15959152Y-12654872D01*
X15959152Y-12654872D02*
X15954390Y-12635825D01*
X15954390Y-12635825D02*
X15954390Y-12621539D01*
X15954390Y-12621539D02*
X15959152Y-12602491D01*
X15959152Y-12602491D02*
X15963914Y-12592968D01*
X15963914Y-12592968D02*
X15973438Y-12583444D01*
X15973438Y-12583444D02*
X15987724Y-12578682D01*
X15987724Y-12578682D02*
X15997248Y-12578682D01*
X15997248Y-12578682D02*
X16011533Y-12583444D01*
X16011533Y-12583444D02*
X16016295Y-12588206D01*
X16106771Y-12578682D02*
X16059152Y-12578682D01*
X16059152Y-12578682D02*
X16054390Y-12626301D01*
X16054390Y-12626301D02*
X16059152Y-12621539D01*
X16059152Y-12621539D02*
X16068676Y-12616777D01*
X16068676Y-12616777D02*
X16092486Y-12616777D01*
X16092486Y-12616777D02*
X16102009Y-12621539D01*
X16102009Y-12621539D02*
X16106771Y-12626301D01*
X16106771Y-12626301D02*
X16111533Y-12635825D01*
X16111533Y-12635825D02*
X16111533Y-12659634D01*
X16111533Y-12659634D02*
X16106771Y-12669158D01*
X16106771Y-12669158D02*
X16102009Y-12673920D01*
X16102009Y-12673920D02*
X16092486Y-12678682D01*
X16092486Y-12678682D02*
X16068676Y-12678682D01*
X16068676Y-12678682D02*
X16059152Y-12673920D01*
X16059152Y-12673920D02*
X16054390Y-12669158D01*
X16149629Y-12588206D02*
X16154390Y-12583444D01*
X16154390Y-12583444D02*
X16163914Y-12578682D01*
X16163914Y-12578682D02*
X16187724Y-12578682D01*
X16187724Y-12578682D02*
X16197248Y-12583444D01*
X16197248Y-12583444D02*
X16202009Y-12588206D01*
X16202009Y-12588206D02*
X16206771Y-12597729D01*
X16206771Y-12597729D02*
X16206771Y-12607253D01*
X16206771Y-12607253D02*
X16202009Y-12621539D01*
X16202009Y-12621539D02*
X16144867Y-12678682D01*
X16144867Y-12678682D02*
X16206771Y-12678682D01*
X16244867Y-12588206D02*
X16249629Y-12583444D01*
X16249629Y-12583444D02*
X16259152Y-12578682D01*
X16259152Y-12578682D02*
X16282962Y-12578682D01*
X16282962Y-12578682D02*
X16292486Y-12583444D01*
X16292486Y-12583444D02*
X16297248Y-12588206D01*
X16297248Y-12588206D02*
X16302009Y-12597729D01*
X16302009Y-12597729D02*
X16302009Y-12607253D01*
X16302009Y-12607253D02*
X16297248Y-12621539D01*
X16297248Y-12621539D02*
X16240105Y-12678682D01*
X16240105Y-12678682D02*
X16302009Y-12678682D01*
X16123682Y-11639533D02*
X16076063Y-11672867D01*
X16123682Y-11696676D02*
X16023682Y-11696676D01*
X16023682Y-11696676D02*
X16023682Y-11658581D01*
X16023682Y-11658581D02*
X16028444Y-11649057D01*
X16028444Y-11649057D02*
X16033206Y-11644295D01*
X16033206Y-11644295D02*
X16042729Y-11639533D01*
X16042729Y-11639533D02*
X16057015Y-11639533D01*
X16057015Y-11639533D02*
X16066539Y-11644295D01*
X16066539Y-11644295D02*
X16071301Y-11649057D01*
X16071301Y-11649057D02*
X16076063Y-11658581D01*
X16076063Y-11658581D02*
X16076063Y-11696676D01*
X16071301Y-11563343D02*
X16071301Y-11596676D01*
X16123682Y-11596676D02*
X16023682Y-11596676D01*
X16023682Y-11596676D02*
X16023682Y-11549057D01*
X16123682Y-11510962D02*
X16023682Y-11510962D01*
X16123682Y-11463343D02*
X16023682Y-11463343D01*
X16023682Y-11463343D02*
X16023682Y-11439533D01*
X16023682Y-11439533D02*
X16028444Y-11425248D01*
X16028444Y-11425248D02*
X16037968Y-11415724D01*
X16037968Y-11415724D02*
X16047491Y-11410962D01*
X16047491Y-11410962D02*
X16066539Y-11406200D01*
X16066539Y-11406200D02*
X16080825Y-11406200D01*
X16080825Y-11406200D02*
X16099872Y-11410962D01*
X16099872Y-11410962D02*
X16109396Y-11415724D01*
X16109396Y-11415724D02*
X16118920Y-11425248D01*
X16118920Y-11425248D02*
X16123682Y-11439533D01*
X16123682Y-11439533D02*
X16123682Y-11463343D01*
X16123682Y-11310962D02*
X16123682Y-11368105D01*
X16123682Y-11339533D02*
X16023682Y-11339533D01*
X16023682Y-11339533D02*
X16037968Y-11349057D01*
X16037968Y-11349057D02*
X16047491Y-11358581D01*
X16047491Y-11358581D02*
X16052253Y-11368105D01*
X14918048Y-11178682D02*
X14941857Y-11278682D01*
X14941857Y-11278682D02*
X14960905Y-11207253D01*
X14960905Y-11207253D02*
X14979952Y-11278682D01*
X14979952Y-11278682D02*
X15003762Y-11178682D01*
X15037095Y-11273920D02*
X15051381Y-11278682D01*
X15051381Y-11278682D02*
X15075190Y-11278682D01*
X15075190Y-11278682D02*
X15084714Y-11273920D01*
X15084714Y-11273920D02*
X15089476Y-11269158D01*
X15089476Y-11269158D02*
X15094238Y-11259634D01*
X15094238Y-11259634D02*
X15094238Y-11250110D01*
X15094238Y-11250110D02*
X15089476Y-11240587D01*
X15089476Y-11240587D02*
X15084714Y-11235825D01*
X15084714Y-11235825D02*
X15075190Y-11231063D01*
X15075190Y-11231063D02*
X15056143Y-11226301D01*
X15056143Y-11226301D02*
X15046619Y-11221539D01*
X15046619Y-11221539D02*
X15041857Y-11216777D01*
X15041857Y-11216777D02*
X15037095Y-11207253D01*
X15037095Y-11207253D02*
X15037095Y-11197729D01*
X15037095Y-11197729D02*
X15041857Y-11188206D01*
X15041857Y-11188206D02*
X15046619Y-11183444D01*
X15046619Y-11183444D02*
X15056143Y-11178682D01*
X15056143Y-11178682D02*
X15079952Y-11178682D01*
X15079952Y-11178682D02*
X15094238Y-11183444D01*
X15132333Y-11188206D02*
X15137095Y-11183444D01*
X15137095Y-11183444D02*
X15146619Y-11178682D01*
X15146619Y-11178682D02*
X15170428Y-11178682D01*
X15170428Y-11178682D02*
X15179952Y-11183444D01*
X15179952Y-11183444D02*
X15184714Y-11188206D01*
X15184714Y-11188206D02*
X15189476Y-11197729D01*
X15189476Y-11197729D02*
X15189476Y-11207253D01*
X15189476Y-11207253D02*
X15184714Y-11221539D01*
X15184714Y-11221539D02*
X15127571Y-11278682D01*
X15127571Y-11278682D02*
X15189476Y-11278682D01*
X15246619Y-11221539D02*
X15237095Y-11216777D01*
X15237095Y-11216777D02*
X15232333Y-11212015D01*
X15232333Y-11212015D02*
X15227571Y-11202491D01*
X15227571Y-11202491D02*
X15227571Y-11197729D01*
X15227571Y-11197729D02*
X15232333Y-11188206D01*
X15232333Y-11188206D02*
X15237095Y-11183444D01*
X15237095Y-11183444D02*
X15246619Y-11178682D01*
X15246619Y-11178682D02*
X15265667Y-11178682D01*
X15265667Y-11178682D02*
X15275190Y-11183444D01*
X15275190Y-11183444D02*
X15279952Y-11188206D01*
X15279952Y-11188206D02*
X15284714Y-11197729D01*
X15284714Y-11197729D02*
X15284714Y-11202491D01*
X15284714Y-11202491D02*
X15279952Y-11212015D01*
X15279952Y-11212015D02*
X15275190Y-11216777D01*
X15275190Y-11216777D02*
X15265667Y-11221539D01*
X15265667Y-11221539D02*
X15246619Y-11221539D01*
X15246619Y-11221539D02*
X15237095Y-11226301D01*
X15237095Y-11226301D02*
X15232333Y-11231063D01*
X15232333Y-11231063D02*
X15227571Y-11240587D01*
X15227571Y-11240587D02*
X15227571Y-11259634D01*
X15227571Y-11259634D02*
X15232333Y-11269158D01*
X15232333Y-11269158D02*
X15237095Y-11273920D01*
X15237095Y-11273920D02*
X15246619Y-11278682D01*
X15246619Y-11278682D02*
X15265667Y-11278682D01*
X15265667Y-11278682D02*
X15275190Y-11273920D01*
X15275190Y-11273920D02*
X15279952Y-11269158D01*
X15279952Y-11269158D02*
X15284714Y-11259634D01*
X15284714Y-11259634D02*
X15284714Y-11240587D01*
X15284714Y-11240587D02*
X15279952Y-11231063D01*
X15279952Y-11231063D02*
X15275190Y-11226301D01*
X15275190Y-11226301D02*
X15265667Y-11221539D01*
X15379952Y-11278682D02*
X15322809Y-11278682D01*
X15351381Y-11278682D02*
X15351381Y-11178682D01*
X15351381Y-11178682D02*
X15341857Y-11192968D01*
X15341857Y-11192968D02*
X15332333Y-11202491D01*
X15332333Y-11202491D02*
X15322809Y-11207253D01*
X15418048Y-11188206D02*
X15422809Y-11183444D01*
X15422809Y-11183444D02*
X15432333Y-11178682D01*
X15432333Y-11178682D02*
X15456143Y-11178682D01*
X15456143Y-11178682D02*
X15465667Y-11183444D01*
X15465667Y-11183444D02*
X15470428Y-11188206D01*
X15470428Y-11188206D02*
X15475190Y-11197729D01*
X15475190Y-11197729D02*
X15475190Y-11207253D01*
X15475190Y-11207253D02*
X15470428Y-11221539D01*
X15470428Y-11221539D02*
X15413286Y-11278682D01*
X15413286Y-11278682D02*
X15475190Y-11278682D01*
X15551381Y-11226301D02*
X15565667Y-11231063D01*
X15565667Y-11231063D02*
X15570428Y-11235825D01*
X15570428Y-11235825D02*
X15575190Y-11245348D01*
X15575190Y-11245348D02*
X15575190Y-11259634D01*
X15575190Y-11259634D02*
X15570428Y-11269158D01*
X15570428Y-11269158D02*
X15565667Y-11273920D01*
X15565667Y-11273920D02*
X15556143Y-11278682D01*
X15556143Y-11278682D02*
X15518048Y-11278682D01*
X15518048Y-11278682D02*
X15518048Y-11178682D01*
X15518048Y-11178682D02*
X15551381Y-11178682D01*
X15551381Y-11178682D02*
X15560905Y-11183444D01*
X15560905Y-11183444D02*
X15565667Y-11188206D01*
X15565667Y-11188206D02*
X15570428Y-11197729D01*
X15570428Y-11197729D02*
X15570428Y-11207253D01*
X15570428Y-11207253D02*
X15565667Y-11216777D01*
X15565667Y-11216777D02*
X15560905Y-11221539D01*
X15560905Y-11221539D02*
X15551381Y-11226301D01*
X15551381Y-11226301D02*
X15518048Y-11226301D01*
X15189952Y-10869430D02*
X15189952Y-10789430D01*
X15189952Y-10789430D02*
X15209000Y-10789430D01*
X15209000Y-10789430D02*
X15220429Y-10793239D01*
X15220429Y-10793239D02*
X15228048Y-10800858D01*
X15228048Y-10800858D02*
X15231857Y-10808477D01*
X15231857Y-10808477D02*
X15235667Y-10823715D01*
X15235667Y-10823715D02*
X15235667Y-10835144D01*
X15235667Y-10835144D02*
X15231857Y-10850382D01*
X15231857Y-10850382D02*
X15228048Y-10858001D01*
X15228048Y-10858001D02*
X15220429Y-10865620D01*
X15220429Y-10865620D02*
X15209000Y-10869430D01*
X15209000Y-10869430D02*
X15189952Y-10869430D01*
X15311857Y-10869430D02*
X15266143Y-10869430D01*
X15289000Y-10869430D02*
X15289000Y-10789430D01*
X15289000Y-10789430D02*
X15281381Y-10800858D01*
X15281381Y-10800858D02*
X15273762Y-10808477D01*
X15273762Y-10808477D02*
X15266143Y-10812287D01*
D11*
%TO.C,RFID1*%
X15951200Y-10553700D02*
X16014700Y-10490200D01*
X15951200Y-12522200D02*
X15951200Y-10553700D01*
X16014700Y-10490200D02*
X16205200Y-10490200D01*
X16205200Y-10490200D02*
X16205200Y-12522200D01*
X16205200Y-12522200D02*
X15951200Y-12522200D01*
%TO.C,D1*%
X14999000Y-10583200D02*
X14999000Y-11083200D01*
X14999000Y-11083200D02*
X15499000Y-11083200D01*
X15499000Y-10583200D02*
X14999000Y-10583200D01*
X15499000Y-10983200D02*
X15399000Y-11083200D01*
X15499000Y-11083200D02*
X15499000Y-10583200D01*
X15449000Y-10833200D02*
G75*
G02*
X15049000Y-10833200I-200000J0D01*
G01*
X15049000Y-10833200D02*
G75*
G02*
X15449000Y-10833200I200000J0D01*
G01*
%TD*%
M02*
