%TF.GenerationSoftware,KiCad,Pcbnew,9.0.2*%
%TF.CreationDate,2025-08-21T21:33:00+02:00*%
%TF.ProjectId,esp32c6-charger,65737033-3263-4362-9d63-686172676572,rev?*%
%TF.SameCoordinates,Original*%
%TF.FileFunction,Copper,L1,Top*%
%TF.FilePolarity,Positive*%
%FSLAX45Y45*%
G04 Gerber Fmt 4.5, Leading zero omitted, Abs format (unit mm)*
G04 Created by KiCad (PCBNEW 9.0.2) date 2025-08-21 21:33:00*
%MOMM*%
%LPD*%
G01*
G04 APERTURE LIST*
G04 Aperture macros list*
%AMRoundRect*
0 Rectangle with rounded corners*
0 $1 Rounding radius*
0 $2 $3 $4 $5 $6 $7 $8 $9 X,Y pos of 4 corners*
0 Add a 4 corners polygon primitive as box body*
4,1,4,$2,$3,$4,$5,$6,$7,$8,$9,$2,$3,0*
0 Add four circle primitives for the rounded corners*
1,1,$1+$1,$2,$3*
1,1,$1+$1,$4,$5*
1,1,$1+$1,$6,$7*
1,1,$1+$1,$8,$9*
0 Add four rect primitives between the rounded corners*
20,1,$1+$1,$2,$3,$4,$5,0*
20,1,$1+$1,$4,$5,$6,$7,0*
20,1,$1+$1,$6,$7,$8,$9,0*
20,1,$1+$1,$8,$9,$2,$3,0*%
G04 Aperture macros list end*
%TA.AperFunction,ComponentPad*%
%ADD10O,1.600000X2.000000*%
%TD*%
%TA.AperFunction,ComponentPad*%
%ADD11R,1.700000X1.700000*%
%TD*%
%TA.AperFunction,ComponentPad*%
%ADD12C,1.700000*%
%TD*%
%TA.AperFunction,SMDPad,CuDef*%
%ADD13RoundRect,0.090000X-0.660000X-0.360000X0.660000X-0.360000X0.660000X0.360000X-0.660000X0.360000X0*%
%TD*%
%TA.AperFunction,ComponentPad*%
%ADD14C,1.524000*%
%TD*%
%TA.AperFunction,ComponentPad*%
%ADD15C,2.000000*%
%TD*%
%TA.AperFunction,ComponentPad*%
%ADD16R,2.000000X2.000000*%
%TD*%
%TA.AperFunction,ComponentPad*%
%ADD17RoundRect,0.250000X-1.050000X-1.050000X1.050000X-1.050000X1.050000X1.050000X-1.050000X1.050000X0*%
%TD*%
%TA.AperFunction,ComponentPad*%
%ADD18C,2.600000*%
%TD*%
%TA.AperFunction,ComponentPad*%
%ADD19R,3.500000X3.500000*%
%TD*%
%TA.AperFunction,ComponentPad*%
%ADD20RoundRect,0.750000X-1.000000X0.750000X-1.000000X-0.750000X1.000000X-0.750000X1.000000X0.750000X0*%
%TD*%
%TA.AperFunction,ComponentPad*%
%ADD21RoundRect,0.875000X-0.875000X0.875000X-0.875000X-0.875000X0.875000X-0.875000X0.875000X0.875000X0*%
%TD*%
%TA.AperFunction,Conductor*%
%ADD22C,0.200000*%
%TD*%
G04 APERTURE END LIST*
D10*
%TO.P,Brd1,1,GND*%
%TO.N,GND*%
X12776200Y-10718800D03*
%TO.P,Brd1,2,VCC*%
%TO.N,VCC*%
X13030200Y-10718800D03*
%TO.P,Brd1,3,SCL*%
%TO.N,/SCL*%
X13284200Y-10718800D03*
%TO.P,Brd1,4,SDA*%
%TO.N,/SDA*%
X13538200Y-10718800D03*
%TD*%
D11*
%TO.P,RFID1,1,SDA*%
%TO.N,/CS*%
X16078200Y-10617200D03*
D12*
%TO.P,RFID1,2,SCK*%
%TO.N,/SCK*%
X16078200Y-10871200D03*
%TO.P,RFID1,3,MOSI*%
%TO.N,/MOSI*%
X16078200Y-11125200D03*
%TO.P,RFID1,4,MISO*%
%TO.N,/MISO*%
X16078200Y-11379200D03*
%TO.P,RFID1,5,IRQ*%
%TO.N,unconnected-(RFID1-IRQ-Pad5)*%
X16078200Y-11633200D03*
%TO.P,RFID1,6,GND*%
%TO.N,GND*%
X16078200Y-11887200D03*
%TO.P,RFID1,7,RST*%
%TO.N,unconnected-(RFID1-RST-Pad7)*%
X16078200Y-12141200D03*
%TO.P,RFID1,8,3\u002C3V*%
%TO.N,VCC*%
X16078200Y-12395200D03*
%TD*%
D13*
%TO.P,D1,1,VDD*%
%TO.N,VDD*%
X15004000Y-10668200D03*
%TO.P,D1,2,DOUT*%
%TO.N,unconnected-(D1-DOUT-Pad2)*%
X15004000Y-10998200D03*
%TO.P,D1,3,VSS*%
%TO.N,GND*%
X15494000Y-10998200D03*
%TO.P,D1,4,DIN*%
%TO.N,/LED*%
X15494000Y-10668200D03*
%TD*%
D14*
%TO.P,U1,1,GPIO0/A0/D0*%
%TO.N,/LED*%
X13385800Y-13690600D03*
%TO.P,U1,2,GPIO1/A1/D1*%
%TO.N,Net-(D4-K)*%
X13385800Y-13436600D03*
%TO.P,U1,3,GPIO2/A2/D2*%
%TO.N,Net-(U1-GPIO2{slash}A2{slash}D2)*%
X13385800Y-13182600D03*
%TO.P,U1,4,GPIO21/D3*%
%TO.N,Net-(U1-GPIO21{slash}D3)*%
X13385800Y-12928600D03*
%TO.P,U1,5,GPIO22/D4/SDA*%
%TO.N,/SDA*%
X13385800Y-12674600D03*
%TO.P,U1,6,GPIO23/D5/SCL*%
%TO.N,/SCL*%
X13385800Y-12420600D03*
%TO.P,U1,7,GPIO16/D6/TX*%
%TO.N,unconnected-(U1-GPIO16{slash}D6{slash}TX-Pad7)*%
X13385800Y-12166600D03*
%TO.P,U1,8,GPIO17/D7/RX*%
%TO.N,/CS*%
X14909800Y-12166600D03*
%TO.P,U1,9,GPIO19/D8/SCK*%
%TO.N,/SCK*%
X14909800Y-12420600D03*
%TO.P,U1,10,GPIO20/D9/MISO*%
%TO.N,/MISO*%
X14909800Y-12674600D03*
%TO.P,U1,11,GPIO18/D10/MOSI*%
%TO.N,/MOSI*%
X14909800Y-12928600D03*
%TO.P,U1,12,3V3*%
%TO.N,VCC*%
X14909800Y-13182600D03*
%TO.P,U1,13,GND*%
%TO.N,GND*%
X14909800Y-13436600D03*
%TO.P,U1,14,VBUS*%
%TO.N,VDD*%
X14909800Y-13690600D03*
%TD*%
D15*
%TO.P,K1,11*%
%TO.N,Net-(J2-Pin_1)*%
X8601750Y-12115550D03*
%TO.P,K1,12*%
%TO.N,Net-(J2-Pin_3)*%
X8951750Y-12865550D03*
%TO.P,K1,14*%
%TO.N,Net-(J2-Pin_2)*%
X8251750Y-12865550D03*
D16*
%TO.P,K1,A1*%
%TO.N,VDD*%
X10601750Y-12865550D03*
D15*
%TO.P,K1,A2*%
%TO.N,Net-(D3-K)*%
X10601750Y-12115550D03*
%TD*%
D17*
%TO.P,J1,1,Pin_1*%
%TO.N,VDD*%
X12471400Y-9499600D03*
D18*
%TO.P,J1,2,Pin_2*%
%TO.N,VCC*%
X12979400Y-9499600D03*
%TO.P,J1,3,Pin_3*%
%TO.N,Net-(D2-K)*%
X13487400Y-9499600D03*
%TO.P,J1,4,Pin_4*%
%TO.N,Net-(D4-K)*%
X13995400Y-9499600D03*
%TO.P,J1,5,Pin_5*%
%TO.N,GND*%
X14503400Y-9499600D03*
%TO.P,J1,6,Pin_6*%
X15011400Y-9499600D03*
%TD*%
D17*
%TO.P,J2,1,Pin_1*%
%TO.N,Net-(J2-Pin_1)*%
X8585200Y-9525000D03*
D18*
%TO.P,J2,2,Pin_2*%
%TO.N,Net-(J2-Pin_2)*%
X9093200Y-9525000D03*
%TO.P,J2,3,Pin_3*%
%TO.N,Net-(J2-Pin_3)*%
X9601200Y-9525000D03*
%TD*%
D19*
%TO.P,J3,1,In*%
%TO.N,+12V*%
X11080250Y-10388600D03*
D20*
%TO.P,J3,2,Ext*%
%TO.N,GND*%
X11080250Y-9788600D03*
D21*
%TO.P,J3,3*%
X11550250Y-10088600D03*
%TD*%
D22*
%TO.N,VCC*%
X16078200Y-13055600D02*
X16078200Y-12395200D01*
X14655800Y-13843000D02*
X14782800Y-13716000D01*
X14782800Y-13284200D02*
X14884400Y-13182600D01*
X14782800Y-13716000D02*
X14782800Y-13284200D01*
X13030200Y-10718800D02*
X13030200Y-13716000D01*
X15951200Y-13182600D02*
X16078200Y-13055600D01*
X14884400Y-13182600D02*
X15036800Y-13182600D01*
X13157200Y-13843000D02*
X14655800Y-13843000D01*
X15036800Y-13182600D02*
X14909800Y-13182600D01*
X13030200Y-9550400D02*
X13030200Y-10718800D01*
X12979400Y-9499600D02*
X13030200Y-9550400D01*
X14909800Y-13182600D02*
X15951200Y-13182600D01*
X13030200Y-13716000D02*
X13157200Y-13843000D01*
%TO.N,VDD*%
X10601750Y-12865550D02*
X11619300Y-13883100D01*
X14071600Y-9296400D02*
X14249400Y-9474200D01*
X14249400Y-10566400D02*
X14351200Y-10668200D01*
X12471400Y-9499600D02*
X12674600Y-9296400D01*
X11619300Y-13883100D02*
X14717300Y-13883100D01*
X14717300Y-13883100D02*
X14909800Y-13690600D01*
X14351200Y-10668200D02*
X15004000Y-10668200D01*
X14249400Y-9474200D02*
X14249400Y-10566400D01*
X12674600Y-9296400D02*
X14071600Y-9296400D01*
%TO.N,/LED*%
X15494000Y-10668200D02*
X15367000Y-10795200D01*
X14782800Y-12090400D02*
X14782800Y-13208000D01*
X14732000Y-13258800D02*
X14732000Y-13665200D01*
X14732000Y-13665200D02*
X14605000Y-13792200D01*
X14782800Y-13208000D02*
X14732000Y-13258800D01*
X15367000Y-10795200D02*
X15367000Y-11785600D01*
X13487400Y-13792200D02*
X13385800Y-13690600D01*
X15367000Y-11785600D02*
X15163800Y-11988800D01*
X14605000Y-13792200D02*
X13487400Y-13792200D01*
X14884400Y-11988800D02*
X14782800Y-12090400D01*
X15163800Y-11988800D02*
X14884400Y-11988800D01*
%TD*%
%TA.AperFunction,Conductor*%
%TO.N,GND*%
G36*
X22944254Y-9052019D02*
G01*
X22948829Y-9057299D01*
X22949950Y-9062450D01*
X22949950Y-9360743D01*
X22947981Y-9367447D01*
X22942701Y-9372022D01*
X22935785Y-9373017D01*
X22929430Y-9370114D01*
X22925652Y-9364237D01*
X22925388Y-9363162D01*
X22925201Y-9362219D01*
X22925200Y-9362218D01*
X22925200Y-9362218D01*
X22925200Y-9362218D01*
X22915049Y-9328754D01*
X22901667Y-9296447D01*
X22885183Y-9265607D01*
X22865755Y-9236531D01*
X22843571Y-9209500D01*
X22843571Y-9209500D01*
X22843570Y-9209499D01*
X22818844Y-9184773D01*
X22791813Y-9162589D01*
X22791813Y-9162589D01*
X22791812Y-9162589D01*
X22762737Y-9143161D01*
X22762736Y-9143160D01*
X22762735Y-9143160D01*
X22731897Y-9126677D01*
X22731897Y-9126676D01*
X22699589Y-9113294D01*
X22666125Y-9103143D01*
X22666124Y-9103143D01*
X22631829Y-9096321D01*
X22631828Y-9096321D01*
X22605511Y-9093729D01*
X22597028Y-9092894D01*
X22562059Y-9092894D01*
X22554213Y-9093666D01*
X22527259Y-9096321D01*
X22527257Y-9096321D01*
X22492963Y-9103143D01*
X22492962Y-9103143D01*
X22459497Y-9113294D01*
X22427190Y-9126676D01*
X22427190Y-9126677D01*
X22396351Y-9143160D01*
X22396350Y-9143161D01*
X22367275Y-9162588D01*
X22367274Y-9162589D01*
X22340243Y-9184773D01*
X22315517Y-9209499D01*
X22293332Y-9236531D01*
X22293331Y-9236532D01*
X22273905Y-9265606D01*
X22273904Y-9265608D01*
X22257420Y-9296446D01*
X22257420Y-9296447D01*
X22244038Y-9328754D01*
X22233886Y-9362218D01*
X22233886Y-9362220D01*
X22227065Y-9396514D01*
X22227064Y-9396516D01*
X22224772Y-9419795D01*
X22223637Y-9431315D01*
X22223637Y-9434457D01*
X22223637Y-9466285D01*
X22224667Y-9476746D01*
X22227064Y-9501084D01*
X22227065Y-9501086D01*
X22233886Y-9535380D01*
X22233886Y-9535382D01*
X22244038Y-9568846D01*
X22248402Y-9579383D01*
X22255628Y-9596828D01*
X22257420Y-9601153D01*
X22257420Y-9601154D01*
X22273904Y-9631992D01*
X22273905Y-9631994D01*
X22293331Y-9661068D01*
X22293332Y-9661069D01*
X22315517Y-9688101D01*
X22340243Y-9712827D01*
X22340243Y-9712827D01*
X22340243Y-9712827D01*
X22367275Y-9735012D01*
X22396350Y-9754439D01*
X22396351Y-9754440D01*
X22396351Y-9754440D01*
X22427190Y-9770923D01*
X22427190Y-9770923D01*
X22427190Y-9770924D01*
X22459498Y-9784306D01*
X22492961Y-9794457D01*
X22492962Y-9794457D01*
X22492962Y-9794457D01*
X22492963Y-9794457D01*
X22514469Y-9798735D01*
X22527258Y-9801279D01*
X22562059Y-9804707D01*
X22562059Y-9804707D01*
X22597028Y-9804707D01*
X22597028Y-9804707D01*
X22631829Y-9801279D01*
X22648805Y-9797902D01*
X22666124Y-9794457D01*
X22666125Y-9794457D01*
X22666125Y-9794457D01*
X22666126Y-9794457D01*
X22699589Y-9784306D01*
X22731897Y-9770924D01*
X22762737Y-9754439D01*
X22791812Y-9735012D01*
X22818844Y-9712827D01*
X22843571Y-9688100D01*
X22865755Y-9661069D01*
X22885183Y-9631993D01*
X22901667Y-9601153D01*
X22915049Y-9568846D01*
X22925200Y-9535383D01*
X22925388Y-9534438D01*
X22928627Y-9528247D01*
X22934698Y-9524789D01*
X22941675Y-9525163D01*
X22947342Y-9529250D01*
X22949901Y-9535752D01*
X22949950Y-9536857D01*
X22949950Y-13475543D01*
X22947981Y-13482247D01*
X22942701Y-13486822D01*
X22935785Y-13487817D01*
X22929430Y-13484914D01*
X22925652Y-13479036D01*
X22925388Y-13477962D01*
X22925201Y-13477019D01*
X22925200Y-13477018D01*
X22925200Y-13477018D01*
X22925200Y-13477017D01*
X22915049Y-13443554D01*
X22901667Y-13411247D01*
X22901083Y-13410154D01*
X22885183Y-13380408D01*
X22885183Y-13380408D01*
X22885183Y-13380407D01*
X22865755Y-13351331D01*
X22843571Y-13324300D01*
X22843571Y-13324299D01*
X22843570Y-13324299D01*
X22818844Y-13299573D01*
X22791813Y-13277389D01*
X22791813Y-13277389D01*
X22791812Y-13277388D01*
X22762737Y-13257961D01*
X22762736Y-13257960D01*
X22762735Y-13257960D01*
X22731897Y-13241477D01*
X22731897Y-13241476D01*
X22699589Y-13228094D01*
X22666125Y-13217943D01*
X22666124Y-13217943D01*
X22631829Y-13211121D01*
X22631828Y-13211121D01*
X22605511Y-13208529D01*
X22597028Y-13207693D01*
X22562059Y-13207693D01*
X22554213Y-13208466D01*
X22527259Y-13211121D01*
X22527257Y-13211121D01*
X22492963Y-13217943D01*
X22492962Y-13217943D01*
X22459497Y-13228094D01*
X22427190Y-13241476D01*
X22427190Y-13241477D01*
X22396351Y-13257960D01*
X22396350Y-13257961D01*
X22367275Y-13277388D01*
X22367274Y-13277389D01*
X22340243Y-13299573D01*
X22315517Y-13324299D01*
X22293332Y-13351330D01*
X22293331Y-13351332D01*
X22273905Y-13380406D01*
X22273904Y-13380408D01*
X22257420Y-13411246D01*
X22257420Y-13411247D01*
X22244038Y-13443554D01*
X22233886Y-13477018D01*
X22233886Y-13477019D01*
X22227065Y-13511314D01*
X22227064Y-13511316D01*
X22223637Y-13546116D01*
X22223637Y-13581084D01*
X22227064Y-13615884D01*
X22227065Y-13615886D01*
X22233886Y-13650180D01*
X22233886Y-13650181D01*
X22244038Y-13683646D01*
X22253500Y-13706491D01*
X22255628Y-13711628D01*
X22257420Y-13715953D01*
X22257420Y-13715954D01*
X22273904Y-13746792D01*
X22273905Y-13746794D01*
X22293331Y-13775868D01*
X22293332Y-13775869D01*
X22315517Y-13802901D01*
X22340243Y-13827627D01*
X22340243Y-13827627D01*
X22340243Y-13827627D01*
X22367275Y-13849811D01*
X22396350Y-13869239D01*
X22396351Y-13869240D01*
X22396351Y-13869240D01*
X22427190Y-13885723D01*
X22427190Y-13885723D01*
X22427190Y-13885724D01*
X22459498Y-13899106D01*
X22492961Y-13909257D01*
X22492962Y-13909257D01*
X22492962Y-13909257D01*
X22492963Y-13909257D01*
X22514469Y-13913535D01*
X22527258Y-13916079D01*
X22562059Y-13919506D01*
X22562059Y-13919506D01*
X22597028Y-13919506D01*
X22597028Y-13919506D01*
X22631829Y-13916079D01*
X22648805Y-13912702D01*
X22666124Y-13909257D01*
X22666125Y-13909257D01*
X22666125Y-13909257D01*
X22666126Y-13909257D01*
X22699589Y-13899106D01*
X22731897Y-13885724D01*
X22762737Y-13869239D01*
X22791812Y-13849811D01*
X22818844Y-13827627D01*
X22843571Y-13802900D01*
X22865755Y-13775869D01*
X22885183Y-13746793D01*
X22901667Y-13715953D01*
X22915049Y-13683646D01*
X22925200Y-13650182D01*
X22925388Y-13649238D01*
X22928627Y-13643047D01*
X22934698Y-13639589D01*
X22941675Y-13639963D01*
X22947342Y-13644050D01*
X22949901Y-13650552D01*
X22949950Y-13651657D01*
X22949950Y-13937550D01*
X22947981Y-13944254D01*
X22942701Y-13948829D01*
X22937550Y-13949950D01*
X14765310Y-13949950D01*
X14763185Y-13949326D01*
X14760977Y-13949168D01*
X14759898Y-13948361D01*
X14758606Y-13947981D01*
X14757156Y-13946308D01*
X14755383Y-13944981D01*
X14754912Y-13943719D01*
X14754030Y-13942701D01*
X14753715Y-13940510D01*
X14752941Y-13938435D01*
X14753228Y-13937119D01*
X14753036Y-13935785D01*
X14753956Y-13933771D01*
X14754427Y-13931607D01*
X14755754Y-13929835D01*
X14755939Y-13929430D01*
X14756542Y-13928782D01*
X14756542Y-13928782D01*
X14756542Y-13928782D01*
X14765352Y-13919972D01*
X14765352Y-13919971D01*
X14868347Y-13816976D01*
X14874479Y-13813628D01*
X14879752Y-13813684D01*
X14879755Y-13813665D01*
X14879884Y-13813685D01*
X14880010Y-13813687D01*
X14880235Y-13813741D01*
X14880236Y-13813741D01*
X14899864Y-13816850D01*
X14899864Y-13816850D01*
X14919736Y-13816850D01*
X14919736Y-13816850D01*
X14939364Y-13813741D01*
X14958263Y-13807600D01*
X14975969Y-13798579D01*
X14992046Y-13786898D01*
X15006098Y-13772846D01*
X15017779Y-13756769D01*
X15026800Y-13739063D01*
X15032941Y-13720164D01*
X15036050Y-13700536D01*
X15036050Y-13680664D01*
X15032941Y-13661036D01*
X15027392Y-13643958D01*
X15026801Y-13642137D01*
X15026800Y-13642137D01*
X15017779Y-13624430D01*
X15011571Y-13615886D01*
X15006098Y-13608354D01*
X14992046Y-13594302D01*
X14975969Y-13582621D01*
X14960267Y-13574620D01*
X14955187Y-13569823D01*
X14953508Y-13563041D01*
X14955761Y-13556427D01*
X14960267Y-13552523D01*
X14975942Y-13544536D01*
X14979671Y-13541827D01*
X14918209Y-13480365D01*
X14926957Y-13478021D01*
X14937093Y-13472169D01*
X14945369Y-13463893D01*
X14951221Y-13453757D01*
X14953565Y-13445009D01*
X15015027Y-13506471D01*
X15017736Y-13502742D01*
X15026754Y-13485044D01*
X15032892Y-13466152D01*
X15032892Y-13466152D01*
X15036000Y-13446532D01*
X15036000Y-13426668D01*
X15032892Y-13407048D01*
X15032892Y-13407048D01*
X15026754Y-13388156D01*
X15017736Y-13370457D01*
X15015027Y-13366728D01*
X14953565Y-13428190D01*
X14951221Y-13419443D01*
X14945369Y-13409307D01*
X14937093Y-13401031D01*
X14926957Y-13395179D01*
X14918209Y-13392835D01*
X14979671Y-13331373D01*
X14975943Y-13328664D01*
X14960267Y-13320676D01*
X14955187Y-13315879D01*
X14953508Y-13309097D01*
X14955761Y-13302483D01*
X14960267Y-13298580D01*
X14975969Y-13290579D01*
X14992046Y-13278898D01*
X15006098Y-13264846D01*
X15017779Y-13248769D01*
X15017779Y-13248769D01*
X15017900Y-13248571D01*
X15017966Y-13248512D01*
X15018065Y-13248375D01*
X15018094Y-13248396D01*
X15023081Y-13243884D01*
X15028473Y-13242650D01*
X15942533Y-13242650D01*
X15942535Y-13242650D01*
X15943294Y-13242650D01*
X15959105Y-13242650D01*
X15959106Y-13242650D01*
X15974378Y-13238558D01*
X15974379Y-13238557D01*
X15974379Y-13238557D01*
X15974379Y-13238557D01*
X15979464Y-13235622D01*
X15979464Y-13235621D01*
X15988072Y-13230652D01*
X15999252Y-13219472D01*
X15999252Y-13219471D01*
X16000272Y-13218451D01*
X16000273Y-13218451D01*
X16115071Y-13103652D01*
X16115072Y-13103652D01*
X16126252Y-13092472D01*
X16131264Y-13083790D01*
X16134158Y-13078778D01*
X16138250Y-13063506D01*
X16138250Y-13047694D01*
X16138250Y-12523772D01*
X16140218Y-12517068D01*
X16145021Y-12512723D01*
X16148981Y-12510705D01*
X16148981Y-12510705D01*
X16148982Y-12510705D01*
X16159798Y-12502847D01*
X16166179Y-12498211D01*
X16166179Y-12498211D01*
X16166179Y-12498210D01*
X16181210Y-12483179D01*
X16181211Y-12483179D01*
X16181211Y-12483179D01*
X16193705Y-12465982D01*
X16193705Y-12465982D01*
X16193705Y-12465982D01*
X16203356Y-12447041D01*
X16209925Y-12426824D01*
X16213250Y-12405829D01*
X16213250Y-12384571D01*
X16209925Y-12363576D01*
X16203356Y-12343359D01*
X16193705Y-12324418D01*
X16193705Y-12324418D01*
X16193705Y-12324418D01*
X16181211Y-12307221D01*
X16166179Y-12292189D01*
X16148982Y-12279695D01*
X16148911Y-12279659D01*
X16148105Y-12279248D01*
X16143026Y-12274451D01*
X16141346Y-12267669D01*
X16143600Y-12261056D01*
X16148105Y-12257151D01*
X16148982Y-12256705D01*
X16159798Y-12248847D01*
X16166179Y-12244211D01*
X16166179Y-12244211D01*
X16166179Y-12244210D01*
X16181210Y-12229179D01*
X16181211Y-12229179D01*
X16181211Y-12229179D01*
X16193705Y-12211982D01*
X16193705Y-12211982D01*
X16193705Y-12211982D01*
X16203356Y-12193041D01*
X16209925Y-12172824D01*
X16213250Y-12151829D01*
X16213250Y-12130571D01*
X16209925Y-12109576D01*
X16203356Y-12089359D01*
X16193705Y-12070418D01*
X16193705Y-12070418D01*
X16193705Y-12070418D01*
X16181211Y-12053221D01*
X16166179Y-12038189D01*
X16148982Y-12025695D01*
X16148050Y-12025220D01*
X16142971Y-12020423D01*
X16141291Y-12013641D01*
X16143545Y-12007027D01*
X16148051Y-12003123D01*
X16148955Y-12002662D01*
X16154372Y-11998727D01*
X16154372Y-11998727D01*
X16091141Y-11935496D01*
X16097499Y-11933792D01*
X16108901Y-11927210D01*
X16118210Y-11917901D01*
X16124792Y-11906499D01*
X16126496Y-11900141D01*
X16189727Y-11963372D01*
X16189727Y-11963372D01*
X16193662Y-11957955D01*
X16203309Y-11939022D01*
X16209876Y-11918813D01*
X16209876Y-11918813D01*
X16213200Y-11897825D01*
X16213200Y-11876575D01*
X16209876Y-11855587D01*
X16209876Y-11855587D01*
X16203309Y-11835378D01*
X16193662Y-11816445D01*
X16189727Y-11811028D01*
X16189727Y-11811028D01*
X16126496Y-11874259D01*
X16124792Y-11867901D01*
X16118210Y-11856499D01*
X16108901Y-11847190D01*
X16097499Y-11840607D01*
X16091141Y-11838904D01*
X16154372Y-11775673D01*
X16148955Y-11771737D01*
X16148955Y-11771737D01*
X16148050Y-11771276D01*
X16142971Y-11766479D01*
X16141291Y-11759697D01*
X16143545Y-11753083D01*
X16148051Y-11749179D01*
X16148982Y-11748705D01*
X16156901Y-11742951D01*
X16166179Y-11736211D01*
X16166179Y-11736211D01*
X16166179Y-11736210D01*
X16181210Y-11721179D01*
X16181211Y-11721179D01*
X16181211Y-11721179D01*
X16193705Y-11703982D01*
X16193705Y-11703982D01*
X16193705Y-11703982D01*
X16203356Y-11685041D01*
X16209925Y-11664824D01*
X16213250Y-11643829D01*
X16213250Y-11622571D01*
X16209925Y-11601576D01*
X16203356Y-11581359D01*
X16193705Y-11562418D01*
X16193705Y-11562418D01*
X16193705Y-11562418D01*
X16181211Y-11545221D01*
X16166179Y-11530189D01*
X16148982Y-11517695D01*
X16148911Y-11517659D01*
X16148105Y-11517248D01*
X16143026Y-11512451D01*
X16141346Y-11505669D01*
X16143600Y-11499056D01*
X16148105Y-11495151D01*
X16148982Y-11494705D01*
X16151179Y-11493109D01*
X16166179Y-11482211D01*
X16166179Y-11482211D01*
X16166179Y-11482210D01*
X16181210Y-11467179D01*
X16181211Y-11467179D01*
X16181211Y-11467179D01*
X16193705Y-11449982D01*
X16193705Y-11449982D01*
X16193705Y-11449982D01*
X16203356Y-11431041D01*
X16209925Y-11410824D01*
X16213250Y-11389829D01*
X16213250Y-11368571D01*
X16209925Y-11347576D01*
X16203356Y-11327359D01*
X16193705Y-11308418D01*
X16193705Y-11308418D01*
X16193705Y-11308418D01*
X16181211Y-11291221D01*
X16166179Y-11276189D01*
X16148982Y-11263695D01*
X16148911Y-11263659D01*
X16148105Y-11263248D01*
X16143026Y-11258451D01*
X16141346Y-11251669D01*
X16143600Y-11245056D01*
X16148105Y-11241151D01*
X16148982Y-11240705D01*
X16151179Y-11239109D01*
X16166179Y-11228211D01*
X16166179Y-11228211D01*
X16166179Y-11228210D01*
X16181210Y-11213179D01*
X16181211Y-11213179D01*
X16181211Y-11213179D01*
X16193705Y-11195982D01*
X16193705Y-11195982D01*
X16193705Y-11195982D01*
X16203356Y-11177041D01*
X16209925Y-11156824D01*
X16213250Y-11135829D01*
X16213250Y-11114571D01*
X16209925Y-11093576D01*
X16203356Y-11073359D01*
X16193705Y-11054418D01*
X16193705Y-11054418D01*
X16193705Y-11054418D01*
X16181211Y-11037221D01*
X16166179Y-11022189D01*
X16148982Y-11009695D01*
X16148911Y-11009659D01*
X16148105Y-11009249D01*
X16143026Y-11004451D01*
X16141346Y-10997669D01*
X16143600Y-10991056D01*
X16148105Y-10987152D01*
X16148982Y-10986705D01*
X16151179Y-10985109D01*
X16166179Y-10974211D01*
X16166179Y-10974211D01*
X16166179Y-10974210D01*
X16181210Y-10959179D01*
X16181211Y-10959179D01*
X16181211Y-10959179D01*
X16193705Y-10941982D01*
X16193705Y-10941982D01*
X16193705Y-10941982D01*
X16203356Y-10923041D01*
X16209925Y-10902824D01*
X16213250Y-10881829D01*
X16213250Y-10860571D01*
X16209925Y-10839576D01*
X16203356Y-10819359D01*
X16193705Y-10800418D01*
X16193705Y-10800418D01*
X16193705Y-10800418D01*
X16181211Y-10783221D01*
X16169857Y-10771867D01*
X16166508Y-10765735D01*
X16167007Y-10758766D01*
X16171194Y-10753173D01*
X16174291Y-10751481D01*
X16187433Y-10746580D01*
X16198955Y-10737955D01*
X16207580Y-10726433D01*
X16212609Y-10712948D01*
X16213250Y-10706987D01*
X16213250Y-10527413D01*
X16212609Y-10521452D01*
X16207580Y-10507967D01*
X16207579Y-10507967D01*
X16207579Y-10507966D01*
X16198955Y-10496446D01*
X16198954Y-10496445D01*
X16187433Y-10487821D01*
X16187433Y-10487820D01*
X16173948Y-10482791D01*
X16173948Y-10482791D01*
X16167988Y-10482150D01*
X16167988Y-10482150D01*
X16167987Y-10482150D01*
X16167986Y-10482150D01*
X15988413Y-10482150D01*
X15988412Y-10482150D01*
X15982452Y-10482791D01*
X15968967Y-10487820D01*
X15968966Y-10487821D01*
X15957445Y-10496445D01*
X15957445Y-10496446D01*
X15948821Y-10507966D01*
X15948820Y-10507967D01*
X15943791Y-10521452D01*
X15943150Y-10527412D01*
X15943150Y-10527412D01*
X15943150Y-10527414D01*
X15943150Y-10706987D01*
X15943150Y-10706988D01*
X15943791Y-10712948D01*
X15948820Y-10726433D01*
X15948821Y-10726434D01*
X15957445Y-10737954D01*
X15957445Y-10737955D01*
X15968966Y-10746579D01*
X15968967Y-10746580D01*
X15982108Y-10751481D01*
X15987702Y-10755668D01*
X15990143Y-10762215D01*
X15988658Y-10769042D01*
X15986543Y-10771867D01*
X15975189Y-10783222D01*
X15962695Y-10800418D01*
X15953044Y-10819359D01*
X15946475Y-10839576D01*
X15943348Y-10859322D01*
X15943150Y-10860571D01*
X15943150Y-10881829D01*
X15946475Y-10902824D01*
X15949008Y-10910620D01*
X15953044Y-10923041D01*
X15962695Y-10941982D01*
X15975189Y-10959179D01*
X15990221Y-10974211D01*
X16007418Y-10986705D01*
X16008295Y-10987152D01*
X16013374Y-10991949D01*
X16015054Y-10998731D01*
X16012800Y-11005345D01*
X16008295Y-11009248D01*
X16007418Y-11009695D01*
X15990221Y-11022189D01*
X15975189Y-11037221D01*
X15962695Y-11054418D01*
X15953044Y-11073359D01*
X15946475Y-11093576D01*
X15943150Y-11114571D01*
X15943150Y-11135829D01*
X15946475Y-11156824D01*
X15953044Y-11177041D01*
X15962695Y-11195982D01*
X15975189Y-11213179D01*
X15990221Y-11228211D01*
X16007418Y-11240705D01*
X16008295Y-11241152D01*
X16013374Y-11245949D01*
X16015054Y-11252731D01*
X16012800Y-11259345D01*
X16008295Y-11263248D01*
X16007418Y-11263695D01*
X15990221Y-11276189D01*
X15975189Y-11291221D01*
X15962695Y-11308418D01*
X15953044Y-11327358D01*
X15946475Y-11347576D01*
X15943150Y-11368571D01*
X15943150Y-11389829D01*
X15946475Y-11410824D01*
X15953044Y-11431041D01*
X15962695Y-11449982D01*
X15975189Y-11467179D01*
X15990221Y-11482211D01*
X16007418Y-11494705D01*
X16008295Y-11495152D01*
X16013374Y-11499949D01*
X16015054Y-11506731D01*
X16012800Y-11513345D01*
X16008295Y-11517248D01*
X16007418Y-11517695D01*
X15990221Y-11530189D01*
X15975189Y-11545221D01*
X15962695Y-11562418D01*
X15953044Y-11581358D01*
X15946475Y-11601576D01*
X15943150Y-11622571D01*
X15943150Y-11643829D01*
X15946475Y-11664824D01*
X15953044Y-11685041D01*
X15962695Y-11703982D01*
X15975189Y-11721179D01*
X15990221Y-11736211D01*
X16007418Y-11748705D01*
X16007418Y-11748705D01*
X16007418Y-11748705D01*
X16008349Y-11749179D01*
X16013429Y-11753977D01*
X16015109Y-11760759D01*
X16012855Y-11767372D01*
X16008350Y-11771276D01*
X16007445Y-11771738D01*
X16007444Y-11771738D01*
X16002028Y-11775673D01*
X16002028Y-11775673D01*
X16065259Y-11838904D01*
X16058901Y-11840607D01*
X16047499Y-11847190D01*
X16038190Y-11856499D01*
X16031607Y-11867901D01*
X16029904Y-11874259D01*
X15966673Y-11811028D01*
X15966673Y-11811028D01*
X15962738Y-11816444D01*
X15953090Y-11835378D01*
X15946524Y-11855587D01*
X15946524Y-11855587D01*
X15943200Y-11876575D01*
X15943200Y-11897825D01*
X15946524Y-11918813D01*
X15946524Y-11918813D01*
X15953090Y-11939022D01*
X15962737Y-11957955D01*
X15966673Y-11963372D01*
X16029904Y-11900141D01*
X16031607Y-11906499D01*
X16038190Y-11917901D01*
X16047499Y-11927210D01*
X16058901Y-11933792D01*
X16065259Y-11935496D01*
X16002028Y-11998727D01*
X16002028Y-11998727D01*
X16007445Y-12002663D01*
X16007445Y-12002663D01*
X16008349Y-12003123D01*
X16013429Y-12007921D01*
X16015109Y-12014703D01*
X16012855Y-12021316D01*
X16008350Y-12025220D01*
X16007418Y-12025695D01*
X15990221Y-12038189D01*
X15975189Y-12053221D01*
X15962695Y-12070418D01*
X15953044Y-12089358D01*
X15946475Y-12109576D01*
X15943659Y-12127360D01*
X15943150Y-12130571D01*
X15943150Y-12151829D01*
X15946475Y-12172824D01*
X15947681Y-12176536D01*
X15953044Y-12193041D01*
X15962695Y-12211982D01*
X15975189Y-12229179D01*
X15990221Y-12244211D01*
X16007418Y-12256705D01*
X16008295Y-12257152D01*
X16013374Y-12261949D01*
X16015054Y-12268731D01*
X16012800Y-12275345D01*
X16008295Y-12279248D01*
X16007418Y-12279695D01*
X15990221Y-12292189D01*
X15975189Y-12307221D01*
X15962695Y-12324418D01*
X15953044Y-12343358D01*
X15946475Y-12363576D01*
X15945119Y-12372137D01*
X15943150Y-12384571D01*
X15943150Y-12405829D01*
X15946475Y-12426824D01*
X15947681Y-12430536D01*
X15953044Y-12447041D01*
X15962695Y-12465982D01*
X15975189Y-12483179D01*
X15990221Y-12498211D01*
X16007418Y-12510705D01*
X16007418Y-12510705D01*
X16011379Y-12512723D01*
X16016459Y-12517521D01*
X16018150Y-12523772D01*
X16018150Y-13025590D01*
X16016181Y-13032294D01*
X16014518Y-13034358D01*
X15929958Y-13118918D01*
X15923826Y-13122267D01*
X15921190Y-13122550D01*
X15028473Y-13122550D01*
X15021769Y-13120581D01*
X15018081Y-13116813D01*
X15018065Y-13116825D01*
X15017987Y-13116718D01*
X15017900Y-13116628D01*
X15017779Y-13116431D01*
X15017779Y-13116430D01*
X15006098Y-13100354D01*
X14992046Y-13086302D01*
X14975969Y-13074621D01*
X14960322Y-13066648D01*
X14955242Y-13061851D01*
X14953563Y-13055069D01*
X14955816Y-13048455D01*
X14960322Y-13044551D01*
X14975969Y-13036579D01*
X14992046Y-13024898D01*
X15006098Y-13010846D01*
X15017779Y-12994769D01*
X15026800Y-12977063D01*
X15032941Y-12958164D01*
X15036050Y-12938536D01*
X15036050Y-12918664D01*
X15032941Y-12899036D01*
X15026800Y-12880137D01*
X15026800Y-12880137D01*
X15017779Y-12862430D01*
X15006098Y-12846354D01*
X14992046Y-12832302D01*
X14975969Y-12820621D01*
X14960322Y-12812648D01*
X14955242Y-12807851D01*
X14953563Y-12801069D01*
X14955816Y-12794455D01*
X14960322Y-12790551D01*
X14975969Y-12782579D01*
X14992046Y-12770898D01*
X15006098Y-12756846D01*
X15017779Y-12740769D01*
X15026800Y-12723063D01*
X15032941Y-12704164D01*
X15036050Y-12684536D01*
X15036050Y-12664664D01*
X15032941Y-12645036D01*
X15026800Y-12626137D01*
X15026800Y-12626137D01*
X15017779Y-12608430D01*
X15006098Y-12592354D01*
X14992046Y-12578302D01*
X14975969Y-12566621D01*
X14960322Y-12558648D01*
X14955242Y-12553851D01*
X14953563Y-12547069D01*
X14955816Y-12540455D01*
X14960322Y-12536551D01*
X14975969Y-12528579D01*
X14992046Y-12516898D01*
X15006098Y-12502846D01*
X15017779Y-12486769D01*
X15026800Y-12469063D01*
X15032941Y-12450164D01*
X15036050Y-12430536D01*
X15036050Y-12410664D01*
X15032941Y-12391036D01*
X15026800Y-12372137D01*
X15026800Y-12372137D01*
X15017779Y-12354430D01*
X15006098Y-12338354D01*
X14992046Y-12324302D01*
X14975969Y-12312621D01*
X14960322Y-12304648D01*
X14955242Y-12299851D01*
X14953563Y-12293069D01*
X14955816Y-12286455D01*
X14960322Y-12282551D01*
X14975969Y-12274579D01*
X14992046Y-12262898D01*
X15006098Y-12248846D01*
X15017779Y-12232769D01*
X15026800Y-12215063D01*
X15032941Y-12196164D01*
X15036050Y-12176536D01*
X15036050Y-12156664D01*
X15032941Y-12137036D01*
X15026800Y-12118137D01*
X15026800Y-12118137D01*
X15017779Y-12100430D01*
X15006098Y-12084354D01*
X14992046Y-12070302D01*
X14991763Y-12070018D01*
X14988414Y-12063886D01*
X14988912Y-12056917D01*
X14993100Y-12051323D01*
X14999646Y-12048882D01*
X15000531Y-12048850D01*
X15155133Y-12048850D01*
X15155135Y-12048850D01*
X15155894Y-12048850D01*
X15171705Y-12048850D01*
X15171706Y-12048850D01*
X15186978Y-12044758D01*
X15193227Y-12041150D01*
X15200672Y-12036852D01*
X15211852Y-12025672D01*
X15211852Y-12025671D01*
X15212872Y-12024651D01*
X15212873Y-12024651D01*
X15403871Y-11833652D01*
X15403872Y-11833652D01*
X15415052Y-11822472D01*
X15420064Y-11813790D01*
X15422958Y-11808778D01*
X15427050Y-11793506D01*
X15427050Y-11777694D01*
X15427050Y-11776935D01*
X15427050Y-11776933D01*
X15427050Y-11105600D01*
X15429018Y-11098896D01*
X15434299Y-11094321D01*
X15439450Y-11093200D01*
X15469000Y-11093200D01*
X15519000Y-11093200D01*
X15563867Y-11093200D01*
X15575402Y-11091681D01*
X15575402Y-11091681D01*
X15589754Y-11085737D01*
X15589754Y-11085737D01*
X15602079Y-11076279D01*
X15611537Y-11063954D01*
X15611537Y-11063954D01*
X15617481Y-11049602D01*
X15617481Y-11049602D01*
X15619000Y-11038067D01*
X15619000Y-11023200D01*
X15519000Y-11023200D01*
X15519000Y-11093200D01*
X15469000Y-11093200D01*
X15469000Y-10973200D01*
X15519000Y-10973200D01*
X15619000Y-10973200D01*
X15619000Y-10958333D01*
X15617481Y-10946798D01*
X15617481Y-10946798D01*
X15611537Y-10932446D01*
X15611537Y-10932446D01*
X15602079Y-10920121D01*
X15589754Y-10910663D01*
X15575402Y-10904719D01*
X15575402Y-10904719D01*
X15563867Y-10903200D01*
X15519000Y-10903200D01*
X15519000Y-10973200D01*
X15469000Y-10973200D01*
X15469000Y-10903200D01*
X15439450Y-10903200D01*
X15432746Y-10901232D01*
X15428171Y-10895951D01*
X15427050Y-10890800D01*
X15427050Y-10825210D01*
X15429018Y-10818506D01*
X15430681Y-10816442D01*
X15480242Y-10766882D01*
X15486374Y-10763533D01*
X15489010Y-10763250D01*
X15563870Y-10763250D01*
X15575414Y-10761730D01*
X15575415Y-10761730D01*
X15575415Y-10761730D01*
X15589780Y-10755780D01*
X15602115Y-10746315D01*
X15611580Y-10733980D01*
X15617530Y-10719615D01*
X15619050Y-10708070D01*
X15619050Y-10628330D01*
X15619050Y-10628330D01*
X15619050Y-10628330D01*
X15617530Y-10616786D01*
X15617530Y-10616785D01*
X15617530Y-10616785D01*
X15611580Y-10602420D01*
X15602115Y-10590085D01*
X15589780Y-10580620D01*
X15589779Y-10580620D01*
X15575415Y-10574670D01*
X15575415Y-10574670D01*
X15563870Y-10573150D01*
X15424130Y-10573150D01*
X15412586Y-10574670D01*
X15412585Y-10574670D01*
X15398220Y-10580620D01*
X15398220Y-10580620D01*
X15398220Y-10580620D01*
X15385885Y-10590085D01*
X15378552Y-10599642D01*
X15376420Y-10602421D01*
X15370470Y-10616785D01*
X15370470Y-10616785D01*
X15368950Y-10628330D01*
X15368950Y-10703190D01*
X15366981Y-10709894D01*
X15365318Y-10711958D01*
X15330129Y-10747148D01*
X15318948Y-10758328D01*
X15318948Y-10758328D01*
X15318948Y-10758328D01*
X15314408Y-10766191D01*
X15314408Y-10766191D01*
X15311042Y-10772021D01*
X15311042Y-10772021D01*
X15308996Y-10779658D01*
X15306950Y-10787294D01*
X15306950Y-10787295D01*
X15306950Y-10804105D01*
X15306950Y-10804106D01*
X15306950Y-11755590D01*
X15304981Y-11762294D01*
X15303318Y-11764358D01*
X15142558Y-11925118D01*
X15136426Y-11928467D01*
X15133790Y-11928750D01*
X14893067Y-11928750D01*
X14893065Y-11928750D01*
X14892306Y-11928750D01*
X14876494Y-11928750D01*
X14865759Y-11931626D01*
X14861221Y-11932842D01*
X14861221Y-11932842D01*
X14856210Y-11935736D01*
X14856209Y-11935736D01*
X14853674Y-11937200D01*
X14847528Y-11940748D01*
X14847528Y-11940748D01*
X14734748Y-12053528D01*
X14734748Y-12053528D01*
X14729736Y-12062209D01*
X14729736Y-12062210D01*
X14726842Y-12067221D01*
X14726842Y-12067221D01*
X14726842Y-12067221D01*
X14722750Y-12082494D01*
X14722750Y-12082494D01*
X14722750Y-12099305D01*
X14722750Y-12099306D01*
X14722750Y-13177990D01*
X14720781Y-13184694D01*
X14719118Y-13186758D01*
X14683948Y-13221928D01*
X14683948Y-13221928D01*
X14680388Y-13228094D01*
X14676042Y-13235621D01*
X14671950Y-13250894D01*
X14671950Y-13250894D01*
X14671950Y-13267705D01*
X14671950Y-13267706D01*
X14671950Y-13635190D01*
X14669981Y-13641894D01*
X14668318Y-13643958D01*
X14583758Y-13728518D01*
X14577626Y-13731867D01*
X14574990Y-13732150D01*
X13521561Y-13732150D01*
X13514857Y-13730181D01*
X13510282Y-13724901D01*
X13509288Y-13717985D01*
X13509314Y-13717810D01*
X13512050Y-13700536D01*
X13512050Y-13680664D01*
X13508941Y-13661036D01*
X13503392Y-13643958D01*
X13502801Y-13642137D01*
X13502800Y-13642137D01*
X13493779Y-13624430D01*
X13487571Y-13615886D01*
X13482098Y-13608354D01*
X13468046Y-13594302D01*
X13451969Y-13582621D01*
X13436322Y-13574648D01*
X13431242Y-13569851D01*
X13429563Y-13563069D01*
X13431816Y-13556455D01*
X13436322Y-13552551D01*
X13451969Y-13544579D01*
X13468046Y-13532898D01*
X13482098Y-13518846D01*
X13493779Y-13502769D01*
X13502800Y-13485063D01*
X13508941Y-13466164D01*
X13512050Y-13446536D01*
X13512050Y-13426664D01*
X13508941Y-13407036D01*
X13502800Y-13388137D01*
X13502800Y-13388137D01*
X13495016Y-13372860D01*
X13493779Y-13370431D01*
X13482098Y-13354354D01*
X13468046Y-13340302D01*
X13451969Y-13328621D01*
X13436322Y-13320648D01*
X13431242Y-13315851D01*
X13429563Y-13309069D01*
X13431816Y-13302455D01*
X13436322Y-13298551D01*
X13451969Y-13290579D01*
X13468046Y-13278898D01*
X13482098Y-13264846D01*
X13493779Y-13248769D01*
X13502800Y-13231063D01*
X13508941Y-13212164D01*
X13512050Y-13192536D01*
X13512050Y-13172664D01*
X13508941Y-13153036D01*
X13502800Y-13134137D01*
X13502800Y-13134137D01*
X13495894Y-13120581D01*
X13493779Y-13116431D01*
X13482098Y-13100354D01*
X13468046Y-13086302D01*
X13451969Y-13074621D01*
X13436322Y-13066648D01*
X13431242Y-13061851D01*
X13429563Y-13055069D01*
X13431816Y-13048455D01*
X13436322Y-13044551D01*
X13451969Y-13036579D01*
X13468046Y-13024898D01*
X13482098Y-13010846D01*
X13493779Y-12994769D01*
X13502800Y-12977063D01*
X13508941Y-12958164D01*
X13512050Y-12938536D01*
X13512050Y-12918664D01*
X13508941Y-12899036D01*
X13502800Y-12880137D01*
X13502800Y-12880137D01*
X13493779Y-12862430D01*
X13482098Y-12846354D01*
X13468046Y-12832302D01*
X13451969Y-12820621D01*
X13436322Y-12812648D01*
X13431242Y-12807851D01*
X13429563Y-12801069D01*
X13431816Y-12794455D01*
X13436322Y-12790551D01*
X13451969Y-12782579D01*
X13468046Y-12770898D01*
X13482098Y-12756846D01*
X13493779Y-12740769D01*
X13502800Y-12723063D01*
X13508941Y-12704164D01*
X13512050Y-12684536D01*
X13512050Y-12664664D01*
X13508941Y-12645036D01*
X13502800Y-12626137D01*
X13502800Y-12626137D01*
X13493779Y-12608430D01*
X13482098Y-12592354D01*
X13468046Y-12578302D01*
X13451969Y-12566621D01*
X13436322Y-12558648D01*
X13431242Y-12553851D01*
X13429563Y-12547069D01*
X13431816Y-12540455D01*
X13436322Y-12536551D01*
X13451969Y-12528579D01*
X13468046Y-12516898D01*
X13482098Y-12502846D01*
X13493779Y-12486769D01*
X13502800Y-12469063D01*
X13508941Y-12450164D01*
X13512050Y-12430536D01*
X13512050Y-12410664D01*
X13508941Y-12391036D01*
X13502800Y-12372137D01*
X13502800Y-12372137D01*
X13493779Y-12354430D01*
X13482098Y-12338354D01*
X13468046Y-12324302D01*
X13451969Y-12312621D01*
X13436322Y-12304648D01*
X13431242Y-12299851D01*
X13429563Y-12293069D01*
X13431816Y-12286455D01*
X13436322Y-12282551D01*
X13451969Y-12274579D01*
X13468046Y-12262898D01*
X13482098Y-12248846D01*
X13493779Y-12232769D01*
X13502800Y-12215063D01*
X13508941Y-12196164D01*
X13512050Y-12176536D01*
X13512050Y-12156664D01*
X13508941Y-12137036D01*
X13502800Y-12118137D01*
X13502800Y-12118137D01*
X13493779Y-12100430D01*
X13482098Y-12084354D01*
X13468046Y-12070302D01*
X13451969Y-12058621D01*
X13448624Y-12056917D01*
X13434263Y-12049599D01*
X13434263Y-12049599D01*
X13415364Y-12043459D01*
X13405550Y-12041904D01*
X13395736Y-12040350D01*
X13375864Y-12040350D01*
X13370813Y-12041150D01*
X13356236Y-12043459D01*
X13337337Y-12049599D01*
X13337337Y-12049599D01*
X13319630Y-12058621D01*
X13303553Y-12070302D01*
X13289502Y-12084353D01*
X13277821Y-12100430D01*
X13268799Y-12118137D01*
X13268799Y-12118137D01*
X13262659Y-12137036D01*
X13259550Y-12156664D01*
X13259550Y-12176536D01*
X13262659Y-12196164D01*
X13268799Y-12215063D01*
X13268799Y-12215063D01*
X13275992Y-12229179D01*
X13277821Y-12232769D01*
X13289502Y-12248846D01*
X13303554Y-12262898D01*
X13319631Y-12274579D01*
X13321134Y-12275345D01*
X13335278Y-12282551D01*
X13340358Y-12287349D01*
X13342037Y-12294131D01*
X13339783Y-12300745D01*
X13335278Y-12304648D01*
X13319630Y-12312621D01*
X13303553Y-12324302D01*
X13289502Y-12338353D01*
X13277821Y-12354430D01*
X13268799Y-12372137D01*
X13268799Y-12372137D01*
X13262659Y-12391036D01*
X13259550Y-12410664D01*
X13259550Y-12430536D01*
X13262659Y-12450164D01*
X13268799Y-12469063D01*
X13268799Y-12469063D01*
X13275992Y-12483179D01*
X13277821Y-12486769D01*
X13289502Y-12502846D01*
X13303554Y-12516898D01*
X13319631Y-12528579D01*
X13331483Y-12534618D01*
X13335278Y-12536551D01*
X13340358Y-12541349D01*
X13342037Y-12548131D01*
X13339783Y-12554745D01*
X13335278Y-12558648D01*
X13319630Y-12566621D01*
X13303553Y-12578302D01*
X13289502Y-12592353D01*
X13277821Y-12608430D01*
X13268799Y-12626137D01*
X13268799Y-12626137D01*
X13262659Y-12645036D01*
X13259550Y-12664664D01*
X13259550Y-12684536D01*
X13262659Y-12704164D01*
X13268799Y-12723063D01*
X13268799Y-12723063D01*
X13277821Y-12740769D01*
X13289502Y-12756846D01*
X13303554Y-12770898D01*
X13319631Y-12782579D01*
X13331483Y-12788618D01*
X13335278Y-12790551D01*
X13340358Y-12795349D01*
X13342037Y-12802131D01*
X13339783Y-12808745D01*
X13335278Y-12812648D01*
X13319630Y-12820621D01*
X13303553Y-12832302D01*
X13289502Y-12846353D01*
X13277821Y-12862430D01*
X13268799Y-12880137D01*
X13268799Y-12880137D01*
X13262659Y-12899036D01*
X13259550Y-12918664D01*
X13259550Y-12938536D01*
X13262659Y-12958164D01*
X13268799Y-12977063D01*
X13268799Y-12977063D01*
X13275280Y-12989783D01*
X13277821Y-12994769D01*
X13289502Y-13010846D01*
X13303554Y-13024898D01*
X13319631Y-13036579D01*
X13331483Y-13042618D01*
X13335278Y-13044551D01*
X13340358Y-13049349D01*
X13342037Y-13056131D01*
X13339783Y-13062745D01*
X13335278Y-13066648D01*
X13319630Y-13074621D01*
X13303553Y-13086302D01*
X13289502Y-13100353D01*
X13277821Y-13116430D01*
X13268799Y-13134137D01*
X13268799Y-13134137D01*
X13262659Y-13153036D01*
X13259550Y-13172664D01*
X13259550Y-13192536D01*
X13262659Y-13212164D01*
X13268799Y-13231063D01*
X13268799Y-13231063D01*
X13274105Y-13241476D01*
X13277821Y-13248769D01*
X13289502Y-13264846D01*
X13303554Y-13278898D01*
X13319631Y-13290579D01*
X13331365Y-13296558D01*
X13335278Y-13298551D01*
X13340358Y-13303349D01*
X13342037Y-13310131D01*
X13339783Y-13316745D01*
X13335278Y-13320648D01*
X13319630Y-13328621D01*
X13303553Y-13340302D01*
X13289502Y-13354353D01*
X13277821Y-13370430D01*
X13268799Y-13388137D01*
X13268799Y-13388137D01*
X13262659Y-13407036D01*
X13259550Y-13426664D01*
X13259550Y-13446536D01*
X13262659Y-13466164D01*
X13268799Y-13485063D01*
X13268799Y-13485063D01*
X13270202Y-13487817D01*
X13277821Y-13502769D01*
X13289502Y-13518846D01*
X13303554Y-13532898D01*
X13319631Y-13544579D01*
X13331483Y-13550618D01*
X13335278Y-13552551D01*
X13340358Y-13557349D01*
X13342037Y-13564131D01*
X13339783Y-13570745D01*
X13335278Y-13574648D01*
X13319630Y-13582621D01*
X13303553Y-13594302D01*
X13289502Y-13608353D01*
X13277821Y-13624430D01*
X13268799Y-13642137D01*
X13268799Y-13642137D01*
X13262659Y-13661036D01*
X13259550Y-13680664D01*
X13259550Y-13700536D01*
X13262659Y-13720164D01*
X13268799Y-13739063D01*
X13268799Y-13739063D01*
X13277821Y-13756770D01*
X13282538Y-13763261D01*
X13284886Y-13769842D01*
X13283303Y-13776647D01*
X13278293Y-13781517D01*
X13272506Y-13782950D01*
X13187210Y-13782950D01*
X13180506Y-13780981D01*
X13178442Y-13779318D01*
X13093882Y-13694758D01*
X13090533Y-13688626D01*
X13090250Y-13685990D01*
X13090250Y-10958330D01*
X14878950Y-10958330D01*
X14878950Y-11038070D01*
X14880470Y-11049614D01*
X14880470Y-11049615D01*
X14886409Y-11063954D01*
X14886420Y-11063980D01*
X14895885Y-11076315D01*
X14908220Y-11085780D01*
X14922585Y-11091730D01*
X14934130Y-11093250D01*
X15073870Y-11093250D01*
X15073870Y-11093250D01*
X15085414Y-11091730D01*
X15085415Y-11091730D01*
X15085415Y-11091730D01*
X15099780Y-11085780D01*
X15112115Y-11076315D01*
X15121580Y-11063980D01*
X15127530Y-11049615D01*
X15129050Y-11038070D01*
X15129050Y-10958330D01*
X15129050Y-10958330D01*
X15129050Y-10958330D01*
X15127530Y-10946786D01*
X15127530Y-10946785D01*
X15127530Y-10946785D01*
X15121580Y-10932420D01*
X15112115Y-10920085D01*
X15099780Y-10910620D01*
X15099779Y-10910620D01*
X15085415Y-10904670D01*
X15085415Y-10904670D01*
X15073870Y-10903150D01*
X14934130Y-10903150D01*
X14922586Y-10904670D01*
X14922585Y-10904670D01*
X14908220Y-10910620D01*
X14895885Y-10920085D01*
X14886420Y-10932421D01*
X14880470Y-10946785D01*
X14880470Y-10946785D01*
X14878950Y-10958330D01*
X13090250Y-10958330D01*
X13090250Y-10861760D01*
X13092218Y-10855056D01*
X13097021Y-10850712D01*
X13098361Y-10850029D01*
X13114922Y-10837997D01*
X13129397Y-10823522D01*
X13129397Y-10823522D01*
X13129397Y-10823521D01*
X13141428Y-10806961D01*
X13141429Y-10806961D01*
X13141429Y-10806961D01*
X13146152Y-10797692D01*
X13150949Y-10792612D01*
X13157731Y-10790933D01*
X13164344Y-10793187D01*
X13168248Y-10797692D01*
X13169638Y-10800418D01*
X13172971Y-10806961D01*
X13185003Y-10823521D01*
X13199479Y-10837997D01*
X13214975Y-10849256D01*
X13216039Y-10850029D01*
X13224150Y-10854161D01*
X13234278Y-10859322D01*
X13234278Y-10859322D01*
X13234278Y-10859322D01*
X13241782Y-10861760D01*
X13253746Y-10865648D01*
X13263856Y-10867249D01*
X13273965Y-10868850D01*
X13273965Y-10868850D01*
X13294435Y-10868850D01*
X13294435Y-10868850D01*
X13314653Y-10865648D01*
X13334122Y-10859322D01*
X13352361Y-10850029D01*
X13361659Y-10843273D01*
X13368921Y-10837997D01*
X13368921Y-10837997D01*
X13368922Y-10837997D01*
X13383397Y-10823522D01*
X13383397Y-10823522D01*
X13383397Y-10823521D01*
X13395428Y-10806961D01*
X13395429Y-10806961D01*
X13395429Y-10806961D01*
X13400152Y-10797692D01*
X13404949Y-10792612D01*
X13411731Y-10790933D01*
X13418344Y-10793187D01*
X13422248Y-10797692D01*
X13423638Y-10800418D01*
X13426971Y-10806961D01*
X13439003Y-10823521D01*
X13453479Y-10837997D01*
X13468975Y-10849256D01*
X13470039Y-10850029D01*
X13478150Y-10854161D01*
X13488278Y-10859322D01*
X13488278Y-10859322D01*
X13488278Y-10859322D01*
X13495782Y-10861760D01*
X13507746Y-10865648D01*
X13517856Y-10867249D01*
X13527965Y-10868850D01*
X13527965Y-10868850D01*
X13548435Y-10868850D01*
X13548435Y-10868850D01*
X13568653Y-10865648D01*
X13588122Y-10859322D01*
X13606361Y-10850029D01*
X13615659Y-10843273D01*
X13622921Y-10837997D01*
X13622921Y-10837997D01*
X13622922Y-10837997D01*
X13637397Y-10823522D01*
X13637397Y-10823522D01*
X13637397Y-10823521D01*
X13642673Y-10816259D01*
X13649429Y-10806961D01*
X13658722Y-10788722D01*
X13665048Y-10769253D01*
X13668250Y-10749035D01*
X13668250Y-10688565D01*
X13665119Y-10668800D01*
X13665048Y-10668347D01*
X13662113Y-10659314D01*
X13658722Y-10648878D01*
X13658722Y-10648878D01*
X13658722Y-10648878D01*
X13649442Y-10630665D01*
X13649429Y-10630639D01*
X13647751Y-10628330D01*
X13637397Y-10614079D01*
X13622921Y-10599603D01*
X13606361Y-10587572D01*
X13606361Y-10587571D01*
X13606361Y-10587571D01*
X13600665Y-10584669D01*
X13588122Y-10578278D01*
X13568653Y-10571952D01*
X13551199Y-10569188D01*
X13548435Y-10568750D01*
X13527965Y-10568750D01*
X13525533Y-10569135D01*
X13507746Y-10571952D01*
X13488278Y-10578278D01*
X13470039Y-10587572D01*
X13453479Y-10599603D01*
X13439003Y-10614079D01*
X13426971Y-10630639D01*
X13422248Y-10639908D01*
X13417451Y-10644988D01*
X13410669Y-10646667D01*
X13404055Y-10644413D01*
X13400151Y-10639908D01*
X13395442Y-10630665D01*
X13395429Y-10630639D01*
X13393751Y-10628330D01*
X13383397Y-10614079D01*
X13368921Y-10599603D01*
X13352361Y-10587572D01*
X13352361Y-10587571D01*
X13352361Y-10587571D01*
X13346665Y-10584669D01*
X13334122Y-10578278D01*
X13314653Y-10571952D01*
X13297199Y-10569188D01*
X13294435Y-10568750D01*
X13273965Y-10568750D01*
X13271533Y-10569135D01*
X13253746Y-10571952D01*
X13234278Y-10578278D01*
X13216039Y-10587572D01*
X13199479Y-10599603D01*
X13185003Y-10614079D01*
X13172971Y-10630639D01*
X13168248Y-10639908D01*
X13163451Y-10644988D01*
X13156669Y-10646667D01*
X13150055Y-10644413D01*
X13146151Y-10639908D01*
X13141442Y-10630665D01*
X13141429Y-10630639D01*
X13139751Y-10628330D01*
X13129397Y-10614079D01*
X13114921Y-10599603D01*
X13098361Y-10587571D01*
X13097020Y-10586888D01*
X13091941Y-10582090D01*
X13090250Y-10575840D01*
X13090250Y-9647605D01*
X13092218Y-9640901D01*
X13095101Y-9637767D01*
X13098370Y-9635259D01*
X13115059Y-9618570D01*
X13129427Y-9599845D01*
X13141228Y-9579405D01*
X13150261Y-9557599D01*
X13156369Y-9534801D01*
X13159450Y-9511401D01*
X13159450Y-9487799D01*
X13156369Y-9464399D01*
X13150261Y-9441601D01*
X13141228Y-9419795D01*
X13141228Y-9419795D01*
X13141228Y-9419794D01*
X13137012Y-9412492D01*
X13129427Y-9399355D01*
X13115059Y-9380630D01*
X13115059Y-9380630D01*
X13112047Y-9377618D01*
X13108699Y-9371486D01*
X13109197Y-9364517D01*
X13113384Y-9358923D01*
X13119931Y-9356482D01*
X13120815Y-9356450D01*
X13345985Y-9356450D01*
X13352688Y-9358419D01*
X13357264Y-9363699D01*
X13358258Y-9370615D01*
X13355356Y-9376970D01*
X13354753Y-9377618D01*
X13351741Y-9380630D01*
X13351741Y-9380630D01*
X13337373Y-9399355D01*
X13337373Y-9399355D01*
X13337373Y-9399355D01*
X13336601Y-9400691D01*
X13325572Y-9419794D01*
X13325571Y-9419795D01*
X13316539Y-9441601D01*
X13310431Y-9464399D01*
X13307350Y-9487798D01*
X13307350Y-9487800D01*
X13307350Y-9511400D01*
X13307350Y-9511402D01*
X13310429Y-9534791D01*
X13310431Y-9534801D01*
X13310586Y-9535382D01*
X13316539Y-9557599D01*
X13325571Y-9579405D01*
X13325572Y-9579406D01*
X13331481Y-9589640D01*
X13337373Y-9599845D01*
X13337373Y-9599845D01*
X13337373Y-9599845D01*
X13351741Y-9618570D01*
X13351741Y-9618570D01*
X13368429Y-9635259D01*
X13368430Y-9635259D01*
X13379431Y-9643700D01*
X13387155Y-9649627D01*
X13400292Y-9657212D01*
X13407594Y-9661428D01*
X13407595Y-9661428D01*
X13407595Y-9661428D01*
X13429401Y-9670461D01*
X13452199Y-9676569D01*
X13475599Y-9679650D01*
X13475600Y-9679650D01*
X13499200Y-9679650D01*
X13499201Y-9679650D01*
X13522601Y-9676569D01*
X13545399Y-9670461D01*
X13567205Y-9661428D01*
X13587645Y-9649627D01*
X13606370Y-9635259D01*
X13623059Y-9618570D01*
X13637427Y-9599845D01*
X13649228Y-9579405D01*
X13658261Y-9557599D01*
X13664369Y-9534801D01*
X13667450Y-9511401D01*
X13667450Y-9487799D01*
X13664369Y-9464399D01*
X13658261Y-9441601D01*
X13649228Y-9419795D01*
X13649228Y-9419795D01*
X13649228Y-9419794D01*
X13645012Y-9412492D01*
X13637427Y-9399355D01*
X13623059Y-9380630D01*
X13623059Y-9380630D01*
X13620047Y-9377618D01*
X13616699Y-9371486D01*
X13617197Y-9364517D01*
X13621384Y-9358923D01*
X13627931Y-9356482D01*
X13628815Y-9356450D01*
X13853985Y-9356450D01*
X13860688Y-9358419D01*
X13865264Y-9363699D01*
X13866258Y-9370615D01*
X13863356Y-9376970D01*
X13862753Y-9377618D01*
X13859741Y-9380630D01*
X13859741Y-9380630D01*
X13845373Y-9399355D01*
X13845373Y-9399355D01*
X13845373Y-9399355D01*
X13844601Y-9400691D01*
X13833572Y-9419794D01*
X13833571Y-9419795D01*
X13824539Y-9441601D01*
X13818431Y-9464399D01*
X13815350Y-9487798D01*
X13815350Y-9487800D01*
X13815350Y-9511400D01*
X13815350Y-9511402D01*
X13818429Y-9534791D01*
X13818431Y-9534801D01*
X13818586Y-9535382D01*
X13824539Y-9557599D01*
X13833571Y-9579405D01*
X13833572Y-9579406D01*
X13839481Y-9589640D01*
X13845373Y-9599845D01*
X13845373Y-9599845D01*
X13845373Y-9599845D01*
X13859741Y-9618570D01*
X13859741Y-9618570D01*
X13876429Y-9635259D01*
X13876430Y-9635259D01*
X13887431Y-9643700D01*
X13895155Y-9649627D01*
X13908292Y-9657212D01*
X13915594Y-9661428D01*
X13915595Y-9661428D01*
X13915595Y-9661428D01*
X13937401Y-9670461D01*
X13960199Y-9676569D01*
X13983599Y-9679650D01*
X13983600Y-9679650D01*
X14007200Y-9679650D01*
X14007201Y-9679650D01*
X14030601Y-9676569D01*
X14053399Y-9670461D01*
X14075205Y-9661428D01*
X14095645Y-9649627D01*
X14114370Y-9635259D01*
X14131059Y-9618570D01*
X14145427Y-9599845D01*
X14157228Y-9579405D01*
X14165494Y-9559450D01*
X14169878Y-9554010D01*
X14176507Y-9551803D01*
X14183277Y-9553531D01*
X14188038Y-9558645D01*
X14189350Y-9564196D01*
X14189350Y-10557733D01*
X14189350Y-10557735D01*
X14189350Y-10574305D01*
X14189350Y-10574305D01*
X14189447Y-10574670D01*
X14193442Y-10589579D01*
X14193442Y-10589579D01*
X14193442Y-10589579D01*
X14193735Y-10590085D01*
X14193735Y-10590085D01*
X14201348Y-10603271D01*
X14201348Y-10603272D01*
X14213235Y-10615159D01*
X14213235Y-10615159D01*
X14302714Y-10704637D01*
X14302715Y-10704639D01*
X14303148Y-10705072D01*
X14303148Y-10705072D01*
X14314328Y-10716252D01*
X14314329Y-10716252D01*
X14314329Y-10716252D01*
X14320153Y-10719615D01*
X14328022Y-10724158D01*
X14337531Y-10726706D01*
X14343294Y-10728250D01*
X14343294Y-10728250D01*
X14875953Y-10728250D01*
X14882657Y-10730219D01*
X14885754Y-10733467D01*
X14885925Y-10733335D01*
X14886420Y-10733979D01*
X14886420Y-10733980D01*
X14895885Y-10746315D01*
X14908220Y-10755780D01*
X14922585Y-10761730D01*
X14934130Y-10763250D01*
X15073870Y-10763250D01*
X15073870Y-10763250D01*
X15085414Y-10761730D01*
X15085415Y-10761730D01*
X15085415Y-10761730D01*
X15099780Y-10755780D01*
X15112115Y-10746315D01*
X15121580Y-10733980D01*
X15127530Y-10719615D01*
X15129050Y-10708070D01*
X15129050Y-10628330D01*
X15129050Y-10628330D01*
X15129050Y-10628330D01*
X15127530Y-10616786D01*
X15127530Y-10616785D01*
X15127530Y-10616785D01*
X15121580Y-10602420D01*
X15112115Y-10590085D01*
X15099780Y-10580620D01*
X15099779Y-10580620D01*
X15085415Y-10574670D01*
X15085415Y-10574670D01*
X15073870Y-10573150D01*
X14934130Y-10573150D01*
X14922586Y-10574670D01*
X14922585Y-10574670D01*
X14908220Y-10580620D01*
X14908220Y-10580620D01*
X14908220Y-10580620D01*
X14895885Y-10590085D01*
X14886420Y-10602420D01*
X14886420Y-10602420D01*
X14885925Y-10603065D01*
X14885702Y-10602893D01*
X14881636Y-10606771D01*
X14875953Y-10608150D01*
X14381210Y-10608150D01*
X14374506Y-10606182D01*
X14372442Y-10604518D01*
X14313082Y-10545158D01*
X14311611Y-10542466D01*
X14309952Y-10539884D01*
X14309863Y-10539264D01*
X14309733Y-10539026D01*
X14309450Y-10536390D01*
X14309450Y-9564065D01*
X14311418Y-9557361D01*
X14316699Y-9552785D01*
X14323615Y-9551791D01*
X14329970Y-9554694D01*
X14333306Y-9559320D01*
X14341616Y-9579382D01*
X14341616Y-9579383D01*
X14353414Y-9599817D01*
X14353414Y-9599817D01*
X14359672Y-9607972D01*
X14443296Y-9524349D01*
X14445798Y-9530389D01*
X14452911Y-9541035D01*
X14461965Y-9550089D01*
X14472611Y-9557202D01*
X14478651Y-9559704D01*
X14395027Y-9643328D01*
X14403183Y-9649585D01*
X14403183Y-9649586D01*
X14423617Y-9661383D01*
X14423618Y-9661384D01*
X14445416Y-9670413D01*
X14445416Y-9670413D01*
X14468208Y-9676520D01*
X14491601Y-9679600D01*
X14491603Y-9679600D01*
X14515197Y-9679600D01*
X14515198Y-9679600D01*
X14538591Y-9676520D01*
X14561384Y-9670413D01*
X14583182Y-9661384D01*
X14583183Y-9661383D01*
X14603618Y-9649585D01*
X14611772Y-9643328D01*
X14611772Y-9643328D01*
X14528149Y-9559704D01*
X14534189Y-9557202D01*
X14544835Y-9550089D01*
X14553889Y-9541035D01*
X14561002Y-9530389D01*
X14563504Y-9524349D01*
X14647128Y-9607972D01*
X14647128Y-9607972D01*
X14653385Y-9599818D01*
X14665183Y-9579383D01*
X14665184Y-9579382D01*
X14674213Y-9557584D01*
X14680320Y-9534791D01*
X14683400Y-9511399D01*
X14683400Y-9511397D01*
X14683400Y-9487803D01*
X14683400Y-9487801D01*
X14831400Y-9487801D01*
X14831400Y-9511399D01*
X14834480Y-9534791D01*
X14840587Y-9557584D01*
X14849616Y-9579382D01*
X14849616Y-9579383D01*
X14861414Y-9599817D01*
X14861414Y-9599817D01*
X14867672Y-9607972D01*
X14951296Y-9524349D01*
X14953798Y-9530389D01*
X14960911Y-9541035D01*
X14969965Y-9550089D01*
X14980611Y-9557202D01*
X14986651Y-9559704D01*
X14903027Y-9643328D01*
X14911183Y-9649585D01*
X14911183Y-9649586D01*
X14931617Y-9661383D01*
X14931618Y-9661384D01*
X14953416Y-9670413D01*
X14953416Y-9670413D01*
X14976208Y-9676520D01*
X14999601Y-9679600D01*
X14999603Y-9679600D01*
X15023197Y-9679600D01*
X15023198Y-9679600D01*
X15046591Y-9676520D01*
X15069384Y-9670413D01*
X15091182Y-9661384D01*
X15091183Y-9661383D01*
X15111618Y-9649585D01*
X15119772Y-9643328D01*
X15119772Y-9643328D01*
X15036149Y-9559704D01*
X15042189Y-9557202D01*
X15052835Y-9550089D01*
X15061889Y-9541035D01*
X15069002Y-9530389D01*
X15071504Y-9524349D01*
X15155128Y-9607972D01*
X15155128Y-9607972D01*
X15161385Y-9599818D01*
X15173183Y-9579383D01*
X15173184Y-9579382D01*
X15182213Y-9557584D01*
X15188320Y-9534791D01*
X15191400Y-9511399D01*
X15191400Y-9511397D01*
X15191400Y-9487803D01*
X15191400Y-9487801D01*
X15188320Y-9464409D01*
X15182213Y-9441616D01*
X15173184Y-9419818D01*
X15173183Y-9419817D01*
X15161385Y-9399383D01*
X15161385Y-9399383D01*
X15155128Y-9391228D01*
X15071504Y-9474851D01*
X15069002Y-9468811D01*
X15061889Y-9458165D01*
X15052835Y-9449111D01*
X15042189Y-9441998D01*
X15036149Y-9439496D01*
X15119772Y-9355872D01*
X15111617Y-9349615D01*
X15111617Y-9349614D01*
X15091183Y-9337817D01*
X15091182Y-9337816D01*
X15069384Y-9328787D01*
X15069384Y-9328787D01*
X15046591Y-9322680D01*
X15023198Y-9319600D01*
X14999601Y-9319600D01*
X14976208Y-9322680D01*
X14953416Y-9328787D01*
X14931618Y-9337816D01*
X14931617Y-9337817D01*
X14911183Y-9349614D01*
X14911182Y-9349615D01*
X14903027Y-9355872D01*
X14903027Y-9355872D01*
X14986651Y-9439496D01*
X14980611Y-9441998D01*
X14969965Y-9449111D01*
X14960911Y-9458165D01*
X14953798Y-9468811D01*
X14951296Y-9474851D01*
X14867672Y-9391228D01*
X14867672Y-9391228D01*
X14861415Y-9399382D01*
X14861414Y-9399383D01*
X14849616Y-9419817D01*
X14849616Y-9419818D01*
X14840587Y-9441616D01*
X14834480Y-9464409D01*
X14831400Y-9487801D01*
X14683400Y-9487801D01*
X14680320Y-9464409D01*
X14674213Y-9441616D01*
X14665184Y-9419818D01*
X14665183Y-9419817D01*
X14653385Y-9399383D01*
X14653385Y-9399383D01*
X14647128Y-9391228D01*
X14563504Y-9474851D01*
X14561002Y-9468811D01*
X14553889Y-9458165D01*
X14544835Y-9449111D01*
X14534189Y-9441998D01*
X14528149Y-9439496D01*
X14611772Y-9355872D01*
X14603617Y-9349615D01*
X14603617Y-9349614D01*
X14583183Y-9337817D01*
X14583182Y-9337816D01*
X14561384Y-9328787D01*
X14561384Y-9328787D01*
X14538591Y-9322680D01*
X14515198Y-9319600D01*
X14491601Y-9319600D01*
X14468208Y-9322680D01*
X14445416Y-9328787D01*
X14423618Y-9337816D01*
X14423617Y-9337817D01*
X14403183Y-9349614D01*
X14403182Y-9349615D01*
X14395027Y-9355872D01*
X14395027Y-9355872D01*
X14478651Y-9439496D01*
X14472611Y-9441998D01*
X14461965Y-9449111D01*
X14452911Y-9458165D01*
X14445798Y-9468811D01*
X14443296Y-9474851D01*
X14359672Y-9391228D01*
X14359672Y-9391228D01*
X14353415Y-9399382D01*
X14353414Y-9399383D01*
X14341616Y-9419817D01*
X14341616Y-9419818D01*
X14332587Y-9441616D01*
X14329690Y-9452429D01*
X14326053Y-9458395D01*
X14319768Y-9461448D01*
X14312831Y-9460619D01*
X14307443Y-9456170D01*
X14305735Y-9452429D01*
X14305358Y-9451022D01*
X14305357Y-9451021D01*
X14297452Y-9437329D01*
X14297452Y-9437328D01*
X14229559Y-9369436D01*
X14120359Y-9260236D01*
X14120359Y-9260235D01*
X14108472Y-9248348D01*
X14108472Y-9248348D01*
X14099790Y-9243336D01*
X14099790Y-9243336D01*
X14099790Y-9243336D01*
X14094778Y-9240442D01*
X14079506Y-9236350D01*
X14063694Y-9236350D01*
X14062935Y-9236350D01*
X14062933Y-9236350D01*
X12683267Y-9236350D01*
X12683265Y-9236350D01*
X12682506Y-9236350D01*
X12666694Y-9236350D01*
X12655959Y-9239227D01*
X12651421Y-9240442D01*
X12651421Y-9240443D01*
X12646410Y-9243336D01*
X12646409Y-9243336D01*
X12642069Y-9245842D01*
X12637728Y-9248348D01*
X12637728Y-9248348D01*
X12626548Y-9259529D01*
X12570158Y-9315918D01*
X12564026Y-9319267D01*
X12561390Y-9319550D01*
X12361400Y-9319550D01*
X12361398Y-9319550D01*
X12351120Y-9320600D01*
X12351120Y-9320600D01*
X12334467Y-9326119D01*
X12334466Y-9326119D01*
X12319534Y-9335329D01*
X12307129Y-9347734D01*
X12297919Y-9362666D01*
X12297918Y-9362667D01*
X12295676Y-9369436D01*
X12292400Y-9379320D01*
X12292400Y-9379320D01*
X12292400Y-9379320D01*
X12291350Y-9389598D01*
X12291350Y-9609600D01*
X12291350Y-9609602D01*
X12292400Y-9619880D01*
X12292400Y-9619880D01*
X12296414Y-9631992D01*
X12297919Y-9636533D01*
X12307129Y-9651466D01*
X12319534Y-9663871D01*
X12334467Y-9673081D01*
X12351120Y-9678600D01*
X12361399Y-9679650D01*
X12581401Y-9679650D01*
X12591680Y-9678600D01*
X12608333Y-9673081D01*
X12623266Y-9663871D01*
X12635671Y-9651466D01*
X12644881Y-9636533D01*
X12650400Y-9619880D01*
X12651450Y-9609601D01*
X12651450Y-9409610D01*
X12653418Y-9402906D01*
X12655082Y-9400842D01*
X12695842Y-9360082D01*
X12701974Y-9356733D01*
X12704610Y-9356450D01*
X12837985Y-9356450D01*
X12844688Y-9358419D01*
X12849264Y-9363699D01*
X12850258Y-9370615D01*
X12847356Y-9376970D01*
X12846753Y-9377618D01*
X12843741Y-9380630D01*
X12843741Y-9380630D01*
X12829373Y-9399355D01*
X12829373Y-9399355D01*
X12829373Y-9399355D01*
X12828601Y-9400691D01*
X12817572Y-9419794D01*
X12817571Y-9419795D01*
X12808539Y-9441601D01*
X12802431Y-9464399D01*
X12799350Y-9487798D01*
X12799350Y-9487800D01*
X12799350Y-9511400D01*
X12799350Y-9511402D01*
X12802429Y-9534791D01*
X12802431Y-9534801D01*
X12802586Y-9535382D01*
X12808539Y-9557599D01*
X12817571Y-9579405D01*
X12817572Y-9579406D01*
X12823481Y-9589640D01*
X12829373Y-9599845D01*
X12829373Y-9599845D01*
X12829373Y-9599845D01*
X12843741Y-9618570D01*
X12843741Y-9618570D01*
X12860429Y-9635259D01*
X12860430Y-9635259D01*
X12871431Y-9643700D01*
X12879155Y-9649627D01*
X12892292Y-9657212D01*
X12899594Y-9661428D01*
X12899595Y-9661428D01*
X12899595Y-9661428D01*
X12921401Y-9670461D01*
X12944199Y-9676569D01*
X12959369Y-9678566D01*
X12965758Y-9681393D01*
X12969605Y-9687226D01*
X12970150Y-9690860D01*
X12970150Y-10575840D01*
X12968181Y-10582544D01*
X12963380Y-10586888D01*
X12962039Y-10587571D01*
X12945479Y-10599603D01*
X12931003Y-10614079D01*
X12918971Y-10630639D01*
X12914220Y-10639963D01*
X12909423Y-10645043D01*
X12902641Y-10646722D01*
X12896027Y-10644468D01*
X12892123Y-10639963D01*
X12887386Y-10630665D01*
X12875358Y-10614111D01*
X12875358Y-10614110D01*
X12860889Y-10599642D01*
X12844335Y-10587614D01*
X12826103Y-10578324D01*
X12806641Y-10572001D01*
X12801200Y-10571139D01*
X12801200Y-10675499D01*
X12795499Y-10672208D01*
X12782783Y-10668800D01*
X12769617Y-10668800D01*
X12756901Y-10672208D01*
X12751200Y-10675499D01*
X12751200Y-10571139D01*
X12745759Y-10572001D01*
X12726297Y-10578324D01*
X12708065Y-10587614D01*
X12691510Y-10599642D01*
X12691510Y-10599642D01*
X12677042Y-10614110D01*
X12677042Y-10614111D01*
X12665014Y-10630665D01*
X12655724Y-10648897D01*
X12649401Y-10668358D01*
X12646200Y-10688568D01*
X12646200Y-10693800D01*
X12732899Y-10693800D01*
X12729607Y-10699501D01*
X12726200Y-10712217D01*
X12726200Y-10725383D01*
X12729607Y-10738099D01*
X12732899Y-10743800D01*
X12646200Y-10743800D01*
X12646200Y-10749032D01*
X12649401Y-10769242D01*
X12655724Y-10788703D01*
X12665014Y-10806935D01*
X12677042Y-10823489D01*
X12677042Y-10823490D01*
X12691510Y-10837958D01*
X12708065Y-10849986D01*
X12726297Y-10859275D01*
X12745758Y-10865599D01*
X12751200Y-10866461D01*
X12751200Y-10762101D01*
X12756901Y-10765393D01*
X12769617Y-10768800D01*
X12782783Y-10768800D01*
X12795499Y-10765393D01*
X12801200Y-10762101D01*
X12801200Y-10866461D01*
X12806642Y-10865599D01*
X12826103Y-10859275D01*
X12844335Y-10849986D01*
X12860889Y-10837958D01*
X12860889Y-10837958D01*
X12875358Y-10823490D01*
X12875358Y-10823489D01*
X12887386Y-10806935D01*
X12892123Y-10797637D01*
X12896921Y-10792558D01*
X12903703Y-10790878D01*
X12910316Y-10793132D01*
X12914220Y-10797637D01*
X12918971Y-10806961D01*
X12931003Y-10823521D01*
X12931003Y-10823522D01*
X12945478Y-10837997D01*
X12962039Y-10850029D01*
X12963379Y-10850712D01*
X12968459Y-10855509D01*
X12970150Y-10861760D01*
X12970150Y-13707333D01*
X12970150Y-13707335D01*
X12970150Y-13723905D01*
X12970150Y-13723905D01*
X12970150Y-13723906D01*
X12974211Y-13739063D01*
X12974242Y-13739178D01*
X12974242Y-13739179D01*
X12977111Y-13744148D01*
X12977111Y-13744148D01*
X12982148Y-13752871D01*
X12982148Y-13752872D01*
X12994035Y-13764758D01*
X12994035Y-13764759D01*
X13031158Y-13801882D01*
X13034507Y-13808014D01*
X13034008Y-13814983D01*
X13029821Y-13820577D01*
X13023275Y-13823018D01*
X13022390Y-13823050D01*
X11649310Y-13823050D01*
X11642606Y-13821081D01*
X11640542Y-13819418D01*
X10755432Y-12934308D01*
X10752083Y-12928176D01*
X10751800Y-12925540D01*
X10751800Y-12760763D01*
X10751800Y-12760762D01*
X10751800Y-12760762D01*
X10751159Y-12754802D01*
X10746130Y-12741317D01*
X10746130Y-12741317D01*
X10746129Y-12741316D01*
X10737505Y-12729795D01*
X10737504Y-12729795D01*
X10725984Y-12721171D01*
X10725983Y-12721170D01*
X10712498Y-12716141D01*
X10712498Y-12716141D01*
X10706538Y-12715500D01*
X10706538Y-12715500D01*
X10706537Y-12715500D01*
X10706536Y-12715500D01*
X10496963Y-12715500D01*
X10496962Y-12715500D01*
X10491002Y-12716141D01*
X10477517Y-12721170D01*
X10477516Y-12721171D01*
X10465996Y-12729795D01*
X10465995Y-12729795D01*
X10457371Y-12741316D01*
X10457370Y-12741317D01*
X10452341Y-12754802D01*
X10452121Y-12756847D01*
X10451700Y-12760762D01*
X10451700Y-12760763D01*
X10451700Y-12970337D01*
X10451700Y-12970338D01*
X10452341Y-12976298D01*
X10457370Y-12989783D01*
X10457371Y-12989783D01*
X10465995Y-13001304D01*
X10465996Y-13001305D01*
X10477516Y-13009929D01*
X10477517Y-13009930D01*
X10491002Y-13014959D01*
X10491002Y-13014959D01*
X10491694Y-13015033D01*
X10496963Y-13015600D01*
X10661740Y-13015600D01*
X10668444Y-13017568D01*
X10670508Y-13019232D01*
X11571248Y-13919971D01*
X11571248Y-13919972D01*
X11580058Y-13928782D01*
X11583407Y-13934914D01*
X11583407Y-13934914D01*
X11583407Y-13934914D01*
X11582908Y-13941883D01*
X11580589Y-13944981D01*
X11579589Y-13946318D01*
X11578721Y-13947477D01*
X11575731Y-13948592D01*
X11572175Y-13949918D01*
X11571290Y-13949950D01*
X10274000Y-13949950D01*
X10267296Y-13947981D01*
X10262721Y-13942701D01*
X10261600Y-13937550D01*
X10261600Y-12103740D01*
X10451700Y-12103740D01*
X10451700Y-12127360D01*
X10455395Y-12150687D01*
X10462693Y-12173150D01*
X10472829Y-12193041D01*
X10473416Y-12194193D01*
X10487298Y-12213301D01*
X10503999Y-12230002D01*
X10523107Y-12243884D01*
X10532845Y-12248846D01*
X10544150Y-12254607D01*
X10544151Y-12254607D01*
X10544151Y-12254607D01*
X10551983Y-12257152D01*
X10566613Y-12261905D01*
X10589940Y-12265600D01*
X10589941Y-12265600D01*
X10613560Y-12265600D01*
X10636887Y-12261905D01*
X10639502Y-12261056D01*
X10659349Y-12254607D01*
X10680393Y-12243884D01*
X10699501Y-12230002D01*
X10716202Y-12213301D01*
X10730084Y-12194193D01*
X10740807Y-12173149D01*
X10748105Y-12150687D01*
X10750267Y-12137036D01*
X10751800Y-12127360D01*
X10751800Y-12103740D01*
X10748105Y-12080413D01*
X10742735Y-12063886D01*
X10740807Y-12057951D01*
X10740807Y-12057950D01*
X10740807Y-12057950D01*
X10732857Y-12042348D01*
X10730084Y-12036907D01*
X10716202Y-12017799D01*
X10699501Y-12001098D01*
X10680393Y-11987216D01*
X10659350Y-11976493D01*
X10636887Y-11969195D01*
X10613560Y-11965500D01*
X10613559Y-11965500D01*
X10589941Y-11965500D01*
X10589940Y-11965500D01*
X10566613Y-11969195D01*
X10544150Y-11976493D01*
X10523107Y-11987216D01*
X10512205Y-11995136D01*
X10503999Y-12001098D01*
X10503999Y-12001098D01*
X10503999Y-12001098D01*
X10487299Y-12017799D01*
X10487299Y-12017799D01*
X10487298Y-12017799D01*
X10481907Y-12025220D01*
X10473416Y-12036907D01*
X10462693Y-12057950D01*
X10455395Y-12080413D01*
X10451700Y-12103740D01*
X10261600Y-12103740D01*
X10261600Y-10208814D01*
X10855200Y-10208814D01*
X10855200Y-10568387D01*
X10855200Y-10568388D01*
X10855841Y-10574348D01*
X10860870Y-10587833D01*
X10860871Y-10587834D01*
X10869495Y-10599354D01*
X10869496Y-10599355D01*
X10881016Y-10607979D01*
X10881017Y-10607980D01*
X10894502Y-10613009D01*
X10894502Y-10613009D01*
X10895194Y-10613084D01*
X10900463Y-10613650D01*
X11260037Y-10613650D01*
X11265998Y-10613009D01*
X11279483Y-10607980D01*
X11291005Y-10599355D01*
X11299630Y-10587833D01*
X11304659Y-10574348D01*
X11305300Y-10568387D01*
X11305300Y-10215539D01*
X11307268Y-10208835D01*
X11312549Y-10204260D01*
X11319465Y-10203265D01*
X11325820Y-10206168D01*
X11329598Y-10212046D01*
X11329874Y-10213185D01*
X11329974Y-10213699D01*
X11338238Y-10235598D01*
X11350084Y-10255784D01*
X11350084Y-10255785D01*
X11365171Y-10273679D01*
X11365171Y-10273679D01*
X11383065Y-10288766D01*
X11383066Y-10288766D01*
X11403252Y-10300612D01*
X11425151Y-10308876D01*
X11448131Y-10313321D01*
X11453388Y-10313600D01*
X11453392Y-10313600D01*
X11525250Y-10313600D01*
X11525250Y-10313600D01*
X11525250Y-10231901D01*
X11530951Y-10235193D01*
X11543667Y-10238600D01*
X11556833Y-10238600D01*
X11569549Y-10235193D01*
X11575250Y-10231901D01*
X11575250Y-10313600D01*
X11647108Y-10313600D01*
X11647109Y-10313600D01*
X11652369Y-10313321D01*
X11675349Y-10308876D01*
X11697247Y-10300612D01*
X11717434Y-10288766D01*
X11717435Y-10288766D01*
X11735329Y-10273679D01*
X11735329Y-10273679D01*
X11750415Y-10255785D01*
X11750416Y-10255784D01*
X11762262Y-10235598D01*
X11770526Y-10213699D01*
X11774970Y-10190719D01*
X11774970Y-10190719D01*
X11775250Y-10185462D01*
X11775250Y-10185458D01*
X11775250Y-10113600D01*
X11600250Y-10113600D01*
X11600250Y-10063600D01*
X11775250Y-10063600D01*
X11775250Y-9991742D01*
X11775250Y-9991741D01*
X11774970Y-9986481D01*
X11770526Y-9963501D01*
X11762262Y-9941602D01*
X11750416Y-9921416D01*
X11750415Y-9921415D01*
X11735329Y-9903521D01*
X11735329Y-9903521D01*
X11717435Y-9888434D01*
X11717434Y-9888434D01*
X11697247Y-9876588D01*
X11675349Y-9868324D01*
X11652369Y-9863879D01*
X11647112Y-9863600D01*
X11647108Y-9863600D01*
X11575250Y-9863600D01*
X11575250Y-9945299D01*
X11569549Y-9942008D01*
X11556833Y-9938600D01*
X11543667Y-9938600D01*
X11530951Y-9942008D01*
X11525250Y-9945299D01*
X11525250Y-9863600D01*
X11453392Y-9863600D01*
X11453391Y-9863600D01*
X11448131Y-9863879D01*
X11425151Y-9868324D01*
X11403252Y-9876588D01*
X11383066Y-9888434D01*
X11383065Y-9888434D01*
X11365171Y-9903521D01*
X11365171Y-9903521D01*
X11350084Y-9921415D01*
X11350084Y-9921416D01*
X11338238Y-9941602D01*
X11329974Y-9963501D01*
X11325529Y-9986481D01*
X11325529Y-9986481D01*
X11325250Y-9991738D01*
X11325250Y-9991742D01*
X11325250Y-10063600D01*
X11500250Y-10063600D01*
X11500250Y-10113600D01*
X11325250Y-10113600D01*
X11325250Y-10185459D01*
X11325452Y-10189260D01*
X11323842Y-10196059D01*
X11318811Y-10200908D01*
X11311958Y-10202267D01*
X11305457Y-10199706D01*
X11301451Y-10194251D01*
X11299630Y-10189367D01*
X11299629Y-10189366D01*
X11291005Y-10177846D01*
X11291004Y-10177845D01*
X11279483Y-10169221D01*
X11279483Y-10169220D01*
X11265998Y-10164191D01*
X11265998Y-10164191D01*
X11260038Y-10163550D01*
X11260038Y-10163550D01*
X11260037Y-10163550D01*
X11260036Y-10163550D01*
X10900463Y-10163550D01*
X10900462Y-10163550D01*
X10894502Y-10164191D01*
X10881017Y-10169220D01*
X10881016Y-10169221D01*
X10869496Y-10177845D01*
X10869495Y-10177846D01*
X10860871Y-10189366D01*
X10860870Y-10189367D01*
X10855841Y-10202852D01*
X10855200Y-10208812D01*
X10855200Y-10208814D01*
X10261600Y-10208814D01*
X10261600Y-9707180D01*
X10855250Y-9707180D01*
X10855250Y-9763600D01*
X10936949Y-9763600D01*
X10933658Y-9769301D01*
X10930250Y-9782017D01*
X10930250Y-9795183D01*
X10933658Y-9807899D01*
X10936949Y-9813600D01*
X10855250Y-9813600D01*
X10855250Y-9870020D01*
X10856290Y-9883233D01*
X10861788Y-9905052D01*
X10871093Y-9925537D01*
X10871093Y-9925538D01*
X10883906Y-9944032D01*
X10883907Y-9944034D01*
X10899816Y-9959943D01*
X10899818Y-9959944D01*
X10918312Y-9972757D01*
X10918313Y-9972757D01*
X10938798Y-9982062D01*
X10960617Y-9987560D01*
X10973831Y-9988600D01*
X11055250Y-9988600D01*
X11055250Y-9988600D01*
X11055250Y-9838600D01*
X11105250Y-9838600D01*
X11105250Y-9988600D01*
X11186668Y-9988600D01*
X11186670Y-9988600D01*
X11199883Y-9987560D01*
X11221702Y-9982062D01*
X11225610Y-9980287D01*
X11225610Y-9980287D01*
X11242188Y-9972757D01*
X11242188Y-9972757D01*
X11260682Y-9959944D01*
X11260683Y-9959943D01*
X11276593Y-9944034D01*
X11276594Y-9944032D01*
X11289407Y-9925538D01*
X11289407Y-9925537D01*
X11298712Y-9905052D01*
X11304210Y-9883233D01*
X11305250Y-9870020D01*
X11305250Y-9870018D01*
X11305250Y-9813600D01*
X11223551Y-9813600D01*
X11226842Y-9807899D01*
X11230250Y-9795183D01*
X11230250Y-9782017D01*
X11226842Y-9769301D01*
X11223551Y-9763600D01*
X11305250Y-9763600D01*
X11305250Y-9707182D01*
X11305250Y-9707180D01*
X11304210Y-9693967D01*
X11298712Y-9672148D01*
X11289407Y-9651663D01*
X11289407Y-9651662D01*
X11276594Y-9633168D01*
X11276593Y-9633166D01*
X11260683Y-9617257D01*
X11260682Y-9617256D01*
X11242188Y-9604443D01*
X11242187Y-9604443D01*
X11221702Y-9595138D01*
X11199883Y-9589640D01*
X11186670Y-9588600D01*
X11105250Y-9588600D01*
X11105250Y-9738600D01*
X11055250Y-9738600D01*
X11055250Y-9588600D01*
X10973832Y-9588600D01*
X10973830Y-9588600D01*
X10960617Y-9589640D01*
X10938798Y-9595138D01*
X10918313Y-9604443D01*
X10918312Y-9604443D01*
X10899818Y-9617256D01*
X10899816Y-9617257D01*
X10883907Y-9633166D01*
X10883906Y-9633168D01*
X10871093Y-9651662D01*
X10871093Y-9651663D01*
X10861788Y-9672148D01*
X10856290Y-9693967D01*
X10855250Y-9707180D01*
X10261600Y-9707180D01*
X10261600Y-9062450D01*
X10263569Y-9055746D01*
X10268849Y-9051171D01*
X10274000Y-9050050D01*
X22937550Y-9050050D01*
X22944254Y-9052019D01*
G37*
%TD.AperFunction*%
%TD*%
M02*
