%TF.GenerationSoftware,KiCad,Pcbnew,9.0.2*%
%TF.CreationDate,2025-08-21T21:33:00+02:00*%
%TF.ProjectId,esp32c6-charger,65737033-3263-4362-9d63-686172676572,rev?*%
%TF.SameCoordinates,Original*%
%TF.FileFunction,Legend,Top*%
%TF.FilePolarity,Positive*%
%FSLAX45Y45*%
G04 Gerber Fmt 4.5, Leading zero omitted, Abs format (unit mm)*
G04 Created by KiCad (PCBNEW 9.0.2) date 2025-08-21 21:33:00*
%MOMM*%
%LPD*%
G01*
G04 APERTURE LIST*
%ADD10C,0.150000*%
%ADD11C,0.120000*%
G04 APERTURE END LIST*
D10*
X13021533Y-11797301D02*
X13035819Y-11802063D01*
X13035819Y-11802063D02*
X13040581Y-11806825D01*
X13040581Y-11806825D02*
X13045343Y-11816348D01*
X13045343Y-11816348D02*
X13045343Y-11830634D01*
X13045343Y-11830634D02*
X13040581Y-11840158D01*
X13040581Y-11840158D02*
X13035819Y-11844920D01*
X13035819Y-11844920D02*
X13026295Y-11849682D01*
X13026295Y-11849682D02*
X12988200Y-11849682D01*
X12988200Y-11849682D02*
X12988200Y-11749682D01*
X12988200Y-11749682D02*
X13021533Y-11749682D01*
X13021533Y-11749682D02*
X13031057Y-11754444D01*
X13031057Y-11754444D02*
X13035819Y-11759206D01*
X13035819Y-11759206D02*
X13040581Y-11768729D01*
X13040581Y-11768729D02*
X13040581Y-11778253D01*
X13040581Y-11778253D02*
X13035819Y-11787777D01*
X13035819Y-11787777D02*
X13031057Y-11792539D01*
X13031057Y-11792539D02*
X13021533Y-11797301D01*
X13021533Y-11797301D02*
X12988200Y-11797301D01*
X13088200Y-11849682D02*
X13088200Y-11783015D01*
X13088200Y-11802063D02*
X13092962Y-11792539D01*
X13092962Y-11792539D02*
X13097724Y-11787777D01*
X13097724Y-11787777D02*
X13107248Y-11783015D01*
X13107248Y-11783015D02*
X13116771Y-11783015D01*
X13192962Y-11849682D02*
X13192962Y-11749682D01*
X13192962Y-11844920D02*
X13183438Y-11849682D01*
X13183438Y-11849682D02*
X13164390Y-11849682D01*
X13164390Y-11849682D02*
X13154867Y-11844920D01*
X13154867Y-11844920D02*
X13150105Y-11840158D01*
X13150105Y-11840158D02*
X13145343Y-11830634D01*
X13145343Y-11830634D02*
X13145343Y-11802063D01*
X13145343Y-11802063D02*
X13150105Y-11792539D01*
X13150105Y-11792539D02*
X13154867Y-11787777D01*
X13154867Y-11787777D02*
X13164390Y-11783015D01*
X13164390Y-11783015D02*
X13183438Y-11783015D01*
X13183438Y-11783015D02*
X13192962Y-11787777D01*
X13292962Y-11849682D02*
X13235819Y-11849682D01*
X13264390Y-11849682D02*
X13264390Y-11749682D01*
X13264390Y-11749682D02*
X13254867Y-11763968D01*
X13254867Y-11763968D02*
X13245343Y-11773491D01*
X13245343Y-11773491D02*
X13235819Y-11778253D01*
X15944867Y-10424682D02*
X15911533Y-10377063D01*
X15887724Y-10424682D02*
X15887724Y-10324682D01*
X15887724Y-10324682D02*
X15925819Y-10324682D01*
X15925819Y-10324682D02*
X15935343Y-10329444D01*
X15935343Y-10329444D02*
X15940105Y-10334206D01*
X15940105Y-10334206D02*
X15944867Y-10343730D01*
X15944867Y-10343730D02*
X15944867Y-10358015D01*
X15944867Y-10358015D02*
X15940105Y-10367539D01*
X15940105Y-10367539D02*
X15935343Y-10372301D01*
X15935343Y-10372301D02*
X15925819Y-10377063D01*
X15925819Y-10377063D02*
X15887724Y-10377063D01*
X16021057Y-10372301D02*
X15987724Y-10372301D01*
X15987724Y-10424682D02*
X15987724Y-10324682D01*
X15987724Y-10324682D02*
X16035343Y-10324682D01*
X16073438Y-10424682D02*
X16073438Y-10324682D01*
X16121057Y-10424682D02*
X16121057Y-10324682D01*
X16121057Y-10324682D02*
X16144867Y-10324682D01*
X16144867Y-10324682D02*
X16159152Y-10329444D01*
X16159152Y-10329444D02*
X16168676Y-10338968D01*
X16168676Y-10338968D02*
X16173438Y-10348491D01*
X16173438Y-10348491D02*
X16178200Y-10367539D01*
X16178200Y-10367539D02*
X16178200Y-10381825D01*
X16178200Y-10381825D02*
X16173438Y-10400872D01*
X16173438Y-10400872D02*
X16168676Y-10410396D01*
X16168676Y-10410396D02*
X16159152Y-10419920D01*
X16159152Y-10419920D02*
X16144867Y-10424682D01*
X16144867Y-10424682D02*
X16121057Y-10424682D01*
X16273438Y-10424682D02*
X16216295Y-10424682D01*
X16244867Y-10424682D02*
X16244867Y-10324682D01*
X16244867Y-10324682D02*
X16235343Y-10338968D01*
X16235343Y-10338968D02*
X16225819Y-10348491D01*
X16225819Y-10348491D02*
X16216295Y-10353253D01*
X15175190Y-10528682D02*
X15175190Y-10428682D01*
X15175190Y-10428682D02*
X15199000Y-10428682D01*
X15199000Y-10428682D02*
X15213286Y-10433444D01*
X15213286Y-10433444D02*
X15222809Y-10442968D01*
X15222809Y-10442968D02*
X15227571Y-10452491D01*
X15227571Y-10452491D02*
X15232333Y-10471539D01*
X15232333Y-10471539D02*
X15232333Y-10485825D01*
X15232333Y-10485825D02*
X15227571Y-10504872D01*
X15227571Y-10504872D02*
X15222809Y-10514396D01*
X15222809Y-10514396D02*
X15213286Y-10523920D01*
X15213286Y-10523920D02*
X15199000Y-10528682D01*
X15199000Y-10528682D02*
X15175190Y-10528682D01*
X15327571Y-10528682D02*
X15270429Y-10528682D01*
X15299000Y-10528682D02*
X15299000Y-10428682D01*
X15299000Y-10428682D02*
X15289476Y-10442968D01*
X15289476Y-10442968D02*
X15279952Y-10452491D01*
X15279952Y-10452491D02*
X15270429Y-10457253D01*
X14871857Y-10709430D02*
X14826143Y-10709430D01*
X14849000Y-10709430D02*
X14849000Y-10629430D01*
X14849000Y-10629430D02*
X14841381Y-10640858D01*
X14841381Y-10640858D02*
X14833762Y-10648477D01*
X14833762Y-10648477D02*
X14826143Y-10652287D01*
D11*
%TO.C,Brd1*%
X11798200Y-10548800D02*
X14538200Y-10548800D01*
X11798200Y-13278800D02*
X11798200Y-10548800D01*
X11840400Y-10878300D02*
X14150400Y-10878300D01*
X11840400Y-12538300D02*
X11840400Y-10878300D01*
X12668300Y-10597700D02*
X12668300Y-10839000D01*
X12668300Y-10597700D02*
X13646200Y-10597700D01*
X13646200Y-10597700D02*
X13646200Y-10839000D01*
X13646200Y-10839000D02*
X12668300Y-10839000D01*
X14150400Y-10878300D02*
X14459000Y-10878300D01*
X14150400Y-12538300D02*
X11840400Y-12538300D01*
X14150400Y-12538300D02*
X14484400Y-12540800D01*
X14484400Y-10877100D02*
X14459000Y-10878300D01*
X14484400Y-12540800D02*
X14484400Y-10877100D01*
X14538200Y-10548800D02*
X14538200Y-13278800D01*
X14538200Y-13278800D02*
X11798200Y-13278800D01*
%TO.C,RFID1*%
X15940200Y-10479200D02*
X16078200Y-10479200D01*
X15940200Y-10617200D02*
X15940200Y-10479200D01*
X15940200Y-10744200D02*
X15940200Y-12533200D01*
X15940200Y-10744200D02*
X16216200Y-10744200D01*
X15940200Y-12533200D02*
X16216200Y-12533200D01*
X16216200Y-10744200D02*
X16216200Y-12533200D01*
%TO.C,D1*%
X14899000Y-10558200D02*
X14899000Y-11108200D01*
X14899000Y-10558200D02*
X15599000Y-10558200D01*
X14899000Y-11108200D02*
X15554000Y-11108200D01*
X14979000Y-10923200D02*
X14979000Y-10743200D01*
X15519000Y-10923200D02*
X15519000Y-10743200D01*
X15554000Y-11108200D02*
X15599000Y-11063200D01*
X15599000Y-11063200D02*
X15599000Y-10558200D01*
%TD*%
M02*
