%TF.GenerationSoftware,KiCad,Pcbnew,9.0.4*%
%TF.CreationDate,2025-09-04T11:13:05+02:00*%
%TF.ProjectId,esp32c6-charger,65737033-3263-4362-9d63-686172676572,rev?*%
%TF.SameCoordinates,Original*%
%TF.FileFunction,Legend,Bot*%
%TF.FilePolarity,Positive*%
%FSLAX45Y45*%
G04 Gerber Fmt 4.5, Leading zero omitted, Abs format (unit mm)*
G04 Created by KiCad (PCBNEW 9.0.4) date 2025-09-04 11:13:05*
%MOMM*%
%LPD*%
G01*
G04 APERTURE LIST*
%ADD10C,0.100000*%
%ADD11C,0.200000*%
%ADD12C,0.080000*%
%ADD13C,0.150000*%
%ADD14C,0.127000*%
%ADD15C,0.504000*%
%ADD16C,0.120000*%
G04 APERTURE END LIST*
D10*
X21132800Y-9652000D02*
X21132800Y-10083800D01*
D11*
X21590000Y-9677400D02*
G75*
G02*
X20624800Y-9677400I-482600J0D01*
G01*
X20624800Y-9677400D02*
G75*
G02*
X21590000Y-9677400I482600J0D01*
G01*
D10*
X21082000Y-9271000D02*
X21082000Y-10083800D01*
X13411200Y-8750300D02*
X13411200Y-8547100D01*
X21082000Y-9652000D02*
X20701000Y-9652000D01*
X14452600Y-8750300D02*
X13538200Y-8750300D01*
X14452600Y-8750300D02*
X14452600Y-8547100D01*
X21132800Y-9652000D02*
X21361400Y-9652000D01*
X13411200Y-8750300D02*
X12928600Y-8750300D01*
X12065000Y-8750300D02*
X12928600Y-8750300D01*
X12065000Y-8750300D02*
X12065000Y-8547100D01*
X13538200Y-8750300D02*
X13538200Y-8547100D01*
X14344431Y-8515304D02*
X14353954Y-8510542D01*
X14353954Y-8510542D02*
X14368240Y-8510542D01*
X14368240Y-8510542D02*
X14382526Y-8515304D01*
X14382526Y-8515304D02*
X14392050Y-8524828D01*
X14392050Y-8524828D02*
X14396811Y-8534351D01*
X14396811Y-8534351D02*
X14401573Y-8553399D01*
X14401573Y-8553399D02*
X14401573Y-8567685D01*
X14401573Y-8567685D02*
X14396811Y-8586732D01*
X14396811Y-8586732D02*
X14392050Y-8596256D01*
X14392050Y-8596256D02*
X14382526Y-8605780D01*
X14382526Y-8605780D02*
X14368240Y-8610542D01*
X14368240Y-8610542D02*
X14358716Y-8610542D01*
X14358716Y-8610542D02*
X14344431Y-8605780D01*
X14344431Y-8605780D02*
X14339669Y-8601018D01*
X14339669Y-8601018D02*
X14339669Y-8567685D01*
X14339669Y-8567685D02*
X14358716Y-8567685D01*
X14296811Y-8610542D02*
X14296811Y-8510542D01*
X14296811Y-8510542D02*
X14239669Y-8610542D01*
X14239669Y-8610542D02*
X14239669Y-8510542D01*
X14192050Y-8610542D02*
X14192050Y-8510542D01*
X14192050Y-8510542D02*
X14168240Y-8510542D01*
X14168240Y-8510542D02*
X14153954Y-8515304D01*
X14153954Y-8515304D02*
X14144431Y-8524828D01*
X14144431Y-8524828D02*
X14139669Y-8534351D01*
X14139669Y-8534351D02*
X14134907Y-8553399D01*
X14134907Y-8553399D02*
X14134907Y-8567685D01*
X14134907Y-8567685D02*
X14139669Y-8586732D01*
X14139669Y-8586732D02*
X14144431Y-8596256D01*
X14144431Y-8596256D02*
X14153954Y-8605780D01*
X14153954Y-8605780D02*
X14168240Y-8610542D01*
X14168240Y-8610542D02*
X14192050Y-8610542D01*
X14015811Y-8610542D02*
X14015811Y-8510542D01*
X14015811Y-8510542D02*
X13992002Y-8510542D01*
X13992002Y-8510542D02*
X13977716Y-8515304D01*
X13977716Y-8515304D02*
X13968192Y-8524828D01*
X13968192Y-8524828D02*
X13963431Y-8534351D01*
X13963431Y-8534351D02*
X13958669Y-8553399D01*
X13958669Y-8553399D02*
X13958669Y-8567685D01*
X13958669Y-8567685D02*
X13963431Y-8586732D01*
X13963431Y-8586732D02*
X13968192Y-8596256D01*
X13968192Y-8596256D02*
X13977716Y-8605780D01*
X13977716Y-8605780D02*
X13992002Y-8610542D01*
X13992002Y-8610542D02*
X14015811Y-8610542D01*
X13877716Y-8605780D02*
X13887240Y-8610542D01*
X13887240Y-8610542D02*
X13906288Y-8610542D01*
X13906288Y-8610542D02*
X13915811Y-8605780D01*
X13915811Y-8605780D02*
X13920573Y-8596256D01*
X13920573Y-8596256D02*
X13920573Y-8558161D01*
X13920573Y-8558161D02*
X13915811Y-8548637D01*
X13915811Y-8548637D02*
X13906288Y-8543875D01*
X13906288Y-8543875D02*
X13887240Y-8543875D01*
X13887240Y-8543875D02*
X13877716Y-8548637D01*
X13877716Y-8548637D02*
X13872954Y-8558161D01*
X13872954Y-8558161D02*
X13872954Y-8567685D01*
X13872954Y-8567685D02*
X13920573Y-8577209D01*
X13844383Y-8543875D02*
X13806288Y-8543875D01*
X13830097Y-8510542D02*
X13830097Y-8596256D01*
X13830097Y-8596256D02*
X13825335Y-8605780D01*
X13825335Y-8605780D02*
X13815811Y-8610542D01*
X13815811Y-8610542D02*
X13806288Y-8610542D01*
X13734859Y-8605780D02*
X13744383Y-8610542D01*
X13744383Y-8610542D02*
X13763430Y-8610542D01*
X13763430Y-8610542D02*
X13772954Y-8605780D01*
X13772954Y-8605780D02*
X13777716Y-8596256D01*
X13777716Y-8596256D02*
X13777716Y-8558161D01*
X13777716Y-8558161D02*
X13772954Y-8548637D01*
X13772954Y-8548637D02*
X13763430Y-8543875D01*
X13763430Y-8543875D02*
X13744383Y-8543875D01*
X13744383Y-8543875D02*
X13734859Y-8548637D01*
X13734859Y-8548637D02*
X13730097Y-8558161D01*
X13730097Y-8558161D02*
X13730097Y-8567685D01*
X13730097Y-8567685D02*
X13777716Y-8577209D01*
X13644383Y-8605780D02*
X13653907Y-8610542D01*
X13653907Y-8610542D02*
X13672954Y-8610542D01*
X13672954Y-8610542D02*
X13682478Y-8605780D01*
X13682478Y-8605780D02*
X13687240Y-8601018D01*
X13687240Y-8601018D02*
X13692002Y-8591494D01*
X13692002Y-8591494D02*
X13692002Y-8562923D01*
X13692002Y-8562923D02*
X13687240Y-8553399D01*
X13687240Y-8553399D02*
X13682478Y-8548637D01*
X13682478Y-8548637D02*
X13672954Y-8543875D01*
X13672954Y-8543875D02*
X13653907Y-8543875D01*
X13653907Y-8543875D02*
X13644383Y-8548637D01*
X13615811Y-8543875D02*
X13577716Y-8543875D01*
X13601526Y-8510542D02*
X13601526Y-8596256D01*
X13601526Y-8596256D02*
X13596764Y-8605780D01*
X13596764Y-8605780D02*
X13587240Y-8610542D01*
X13587240Y-8610542D02*
X13577716Y-8610542D01*
X11220231Y-8566104D02*
X11229754Y-8561342D01*
X11229754Y-8561342D02*
X11244040Y-8561342D01*
X11244040Y-8561342D02*
X11258326Y-8566104D01*
X11258326Y-8566104D02*
X11267850Y-8575628D01*
X11267850Y-8575628D02*
X11272611Y-8585151D01*
X11272611Y-8585151D02*
X11277373Y-8604199D01*
X11277373Y-8604199D02*
X11277373Y-8618485D01*
X11277373Y-8618485D02*
X11272611Y-8637532D01*
X11272611Y-8637532D02*
X11267850Y-8647056D01*
X11267850Y-8647056D02*
X11258326Y-8656580D01*
X11258326Y-8656580D02*
X11244040Y-8661342D01*
X11244040Y-8661342D02*
X11234516Y-8661342D01*
X11234516Y-8661342D02*
X11220231Y-8656580D01*
X11220231Y-8656580D02*
X11215469Y-8651818D01*
X11215469Y-8651818D02*
X11215469Y-8618485D01*
X11215469Y-8618485D02*
X11234516Y-8618485D01*
X11172612Y-8661342D02*
X11172612Y-8561342D01*
X11172612Y-8561342D02*
X11115469Y-8661342D01*
X11115469Y-8661342D02*
X11115469Y-8561342D01*
X11067850Y-8661342D02*
X11067850Y-8561342D01*
X11067850Y-8561342D02*
X11044040Y-8561342D01*
X11044040Y-8561342D02*
X11029754Y-8566104D01*
X11029754Y-8566104D02*
X11020231Y-8575628D01*
X11020231Y-8575628D02*
X11015469Y-8585151D01*
X11015469Y-8585151D02*
X11010707Y-8604199D01*
X11010707Y-8604199D02*
X11010707Y-8618485D01*
X11010707Y-8618485D02*
X11015469Y-8637532D01*
X11015469Y-8637532D02*
X11020231Y-8647056D01*
X11020231Y-8647056D02*
X11029754Y-8656580D01*
X11029754Y-8656580D02*
X11044040Y-8661342D01*
X11044040Y-8661342D02*
X11067850Y-8661342D01*
X10804297Y-8623247D02*
X10799535Y-8618485D01*
X10799535Y-8618485D02*
X10790012Y-8613723D01*
X10790012Y-8613723D02*
X10770964Y-8623247D01*
X10770964Y-8623247D02*
X10761440Y-8618485D01*
X10761440Y-8618485D02*
X10756678Y-8613723D01*
X10666202Y-8661342D02*
X10723345Y-8661342D01*
X10694773Y-8661342D02*
X10694773Y-8561342D01*
X10694773Y-8561342D02*
X10704297Y-8575628D01*
X10704297Y-8575628D02*
X10713821Y-8585151D01*
X10713821Y-8585151D02*
X10723345Y-8589913D01*
X10628107Y-8570866D02*
X10623345Y-8566104D01*
X10623345Y-8566104D02*
X10613821Y-8561342D01*
X10613821Y-8561342D02*
X10590012Y-8561342D01*
X10590012Y-8561342D02*
X10580488Y-8566104D01*
X10580488Y-8566104D02*
X10575726Y-8570866D01*
X10575726Y-8570866D02*
X10570964Y-8580390D01*
X10570964Y-8580390D02*
X10570964Y-8589913D01*
X10570964Y-8589913D02*
X10575726Y-8604199D01*
X10575726Y-8604199D02*
X10632869Y-8661342D01*
X10632869Y-8661342D02*
X10570964Y-8661342D01*
X10542392Y-8561342D02*
X10509059Y-8661342D01*
X10509059Y-8661342D02*
X10475726Y-8561342D01*
X12266392Y-8535942D02*
X12314011Y-8535942D01*
X12314011Y-8535942D02*
X12318773Y-8583561D01*
X12318773Y-8583561D02*
X12314011Y-8578799D01*
X12314011Y-8578799D02*
X12304488Y-8574037D01*
X12304488Y-8574037D02*
X12280678Y-8574037D01*
X12280678Y-8574037D02*
X12271154Y-8578799D01*
X12271154Y-8578799D02*
X12266392Y-8583561D01*
X12266392Y-8583561D02*
X12261631Y-8593085D01*
X12261631Y-8593085D02*
X12261631Y-8616894D01*
X12261631Y-8616894D02*
X12266392Y-8626418D01*
X12266392Y-8626418D02*
X12271154Y-8631180D01*
X12271154Y-8631180D02*
X12280678Y-8635942D01*
X12280678Y-8635942D02*
X12304488Y-8635942D01*
X12304488Y-8635942D02*
X12314011Y-8631180D01*
X12314011Y-8631180D02*
X12318773Y-8626418D01*
X12233059Y-8535942D02*
X12199726Y-8635942D01*
X12199726Y-8635942D02*
X12166392Y-8535942D01*
D11*
X20589423Y-10134484D02*
X20589423Y-9934484D01*
X20589423Y-9934484D02*
X20522756Y-10077341D01*
X20522756Y-10077341D02*
X20456090Y-9934484D01*
X20456090Y-9934484D02*
X20456090Y-10134484D01*
X20275137Y-10134484D02*
X20275137Y-10029722D01*
X20275137Y-10029722D02*
X20284661Y-10010674D01*
X20284661Y-10010674D02*
X20303709Y-10001150D01*
X20303709Y-10001150D02*
X20341804Y-10001150D01*
X20341804Y-10001150D02*
X20360852Y-10010674D01*
X20275137Y-10124960D02*
X20294185Y-10134484D01*
X20294185Y-10134484D02*
X20341804Y-10134484D01*
X20341804Y-10134484D02*
X20360852Y-10124960D01*
X20360852Y-10124960D02*
X20370376Y-10105912D01*
X20370376Y-10105912D02*
X20370376Y-10086865D01*
X20370376Y-10086865D02*
X20360852Y-10067817D01*
X20360852Y-10067817D02*
X20341804Y-10058293D01*
X20341804Y-10058293D02*
X20294185Y-10058293D01*
X20294185Y-10058293D02*
X20275137Y-10048770D01*
X20179899Y-10134484D02*
X20179899Y-9934484D01*
X20160852Y-10058293D02*
X20103709Y-10134484D01*
X20103709Y-10001150D02*
X20179899Y-10077341D01*
X19941804Y-10124960D02*
X19960852Y-10134484D01*
X19960852Y-10134484D02*
X19998947Y-10134484D01*
X19998947Y-10134484D02*
X20017995Y-10124960D01*
X20017995Y-10124960D02*
X20027518Y-10105912D01*
X20027518Y-10105912D02*
X20027518Y-10029722D01*
X20027518Y-10029722D02*
X20017995Y-10010674D01*
X20017995Y-10010674D02*
X19998947Y-10001150D01*
X19998947Y-10001150D02*
X19960852Y-10001150D01*
X19960852Y-10001150D02*
X19941804Y-10010674D01*
X19941804Y-10010674D02*
X19932280Y-10029722D01*
X19932280Y-10029722D02*
X19932280Y-10048770D01*
X19932280Y-10048770D02*
X20027518Y-10067817D01*
D10*
X13307792Y-8610542D02*
X13355411Y-8610542D01*
X13355411Y-8610542D02*
X13355411Y-8510542D01*
X13260173Y-8610542D02*
X13269697Y-8605780D01*
X13269697Y-8605780D02*
X13274459Y-8601018D01*
X13274459Y-8601018D02*
X13279221Y-8591494D01*
X13279221Y-8591494D02*
X13279221Y-8562923D01*
X13279221Y-8562923D02*
X13274459Y-8553399D01*
X13274459Y-8553399D02*
X13269697Y-8548637D01*
X13269697Y-8548637D02*
X13260173Y-8543875D01*
X13260173Y-8543875D02*
X13245888Y-8543875D01*
X13245888Y-8543875D02*
X13236364Y-8548637D01*
X13236364Y-8548637D02*
X13231602Y-8553399D01*
X13231602Y-8553399D02*
X13226840Y-8562923D01*
X13226840Y-8562923D02*
X13226840Y-8591494D01*
X13226840Y-8591494D02*
X13231602Y-8601018D01*
X13231602Y-8601018D02*
X13236364Y-8605780D01*
X13236364Y-8605780D02*
X13245888Y-8610542D01*
X13245888Y-8610542D02*
X13260173Y-8610542D01*
X13141126Y-8605780D02*
X13150650Y-8610542D01*
X13150650Y-8610542D02*
X13169697Y-8610542D01*
X13169697Y-8610542D02*
X13179221Y-8605780D01*
X13179221Y-8605780D02*
X13183983Y-8601018D01*
X13183983Y-8601018D02*
X13188745Y-8591494D01*
X13188745Y-8591494D02*
X13188745Y-8562923D01*
X13188745Y-8562923D02*
X13183983Y-8553399D01*
X13183983Y-8553399D02*
X13179221Y-8548637D01*
X13179221Y-8548637D02*
X13169697Y-8543875D01*
X13169697Y-8543875D02*
X13150650Y-8543875D01*
X13150650Y-8543875D02*
X13141126Y-8548637D01*
X13098269Y-8610542D02*
X13098269Y-8510542D01*
X13088745Y-8572447D02*
X13060173Y-8610542D01*
X13060173Y-8543875D02*
X13098269Y-8581970D01*
X21585012Y-10350442D02*
X21585012Y-10250442D01*
X21542154Y-10350442D02*
X21542154Y-10298061D01*
X21542154Y-10298061D02*
X21546916Y-10288537D01*
X21546916Y-10288537D02*
X21556440Y-10283775D01*
X21556440Y-10283775D02*
X21570726Y-10283775D01*
X21570726Y-10283775D02*
X21580250Y-10288537D01*
X21580250Y-10288537D02*
X21585012Y-10293299D01*
X21508821Y-10283775D02*
X21470726Y-10283775D01*
X21494535Y-10250442D02*
X21494535Y-10336156D01*
X21494535Y-10336156D02*
X21489773Y-10345680D01*
X21489773Y-10345680D02*
X21480250Y-10350442D01*
X21480250Y-10350442D02*
X21470726Y-10350442D01*
X21451678Y-10283775D02*
X21413583Y-10283775D01*
X21437392Y-10250442D02*
X21437392Y-10336156D01*
X21437392Y-10336156D02*
X21432631Y-10345680D01*
X21432631Y-10345680D02*
X21423107Y-10350442D01*
X21423107Y-10350442D02*
X21413583Y-10350442D01*
X21380250Y-10283775D02*
X21380250Y-10383775D01*
X21380250Y-10288537D02*
X21370726Y-10283775D01*
X21370726Y-10283775D02*
X21351678Y-10283775D01*
X21351678Y-10283775D02*
X21342154Y-10288537D01*
X21342154Y-10288537D02*
X21337392Y-10293299D01*
X21337392Y-10293299D02*
X21332631Y-10302823D01*
X21332631Y-10302823D02*
X21332631Y-10331394D01*
X21332631Y-10331394D02*
X21337392Y-10340918D01*
X21337392Y-10340918D02*
X21342154Y-10345680D01*
X21342154Y-10345680D02*
X21351678Y-10350442D01*
X21351678Y-10350442D02*
X21370726Y-10350442D01*
X21370726Y-10350442D02*
X21380250Y-10345680D01*
X21294535Y-10345680D02*
X21285011Y-10350442D01*
X21285011Y-10350442D02*
X21265964Y-10350442D01*
X21265964Y-10350442D02*
X21256440Y-10345680D01*
X21256440Y-10345680D02*
X21251678Y-10336156D01*
X21251678Y-10336156D02*
X21251678Y-10331394D01*
X21251678Y-10331394D02*
X21256440Y-10321870D01*
X21256440Y-10321870D02*
X21265964Y-10317109D01*
X21265964Y-10317109D02*
X21280250Y-10317109D01*
X21280250Y-10317109D02*
X21289773Y-10312347D01*
X21289773Y-10312347D02*
X21294535Y-10302823D01*
X21294535Y-10302823D02*
X21294535Y-10298061D01*
X21294535Y-10298061D02*
X21289773Y-10288537D01*
X21289773Y-10288537D02*
X21280250Y-10283775D01*
X21280250Y-10283775D02*
X21265964Y-10283775D01*
X21265964Y-10283775D02*
X21256440Y-10288537D01*
X21208821Y-10340918D02*
X21204059Y-10345680D01*
X21204059Y-10345680D02*
X21208821Y-10350442D01*
X21208821Y-10350442D02*
X21213583Y-10345680D01*
X21213583Y-10345680D02*
X21208821Y-10340918D01*
X21208821Y-10340918D02*
X21208821Y-10350442D01*
X21208821Y-10288537D02*
X21204059Y-10293299D01*
X21204059Y-10293299D02*
X21208821Y-10298061D01*
X21208821Y-10298061D02*
X21213583Y-10293299D01*
X21213583Y-10293299D02*
X21208821Y-10288537D01*
X21208821Y-10288537D02*
X21208821Y-10298061D01*
X21089773Y-10245680D02*
X21175488Y-10374251D01*
X20985012Y-10245680D02*
X21070726Y-10374251D01*
X20908821Y-10283775D02*
X20908821Y-10364728D01*
X20908821Y-10364728D02*
X20913583Y-10374251D01*
X20913583Y-10374251D02*
X20918345Y-10379013D01*
X20918345Y-10379013D02*
X20927869Y-10383775D01*
X20927869Y-10383775D02*
X20942154Y-10383775D01*
X20942154Y-10383775D02*
X20951678Y-10379013D01*
X20908821Y-10345680D02*
X20918345Y-10350442D01*
X20918345Y-10350442D02*
X20937392Y-10350442D01*
X20937392Y-10350442D02*
X20946916Y-10345680D01*
X20946916Y-10345680D02*
X20951678Y-10340918D01*
X20951678Y-10340918D02*
X20956440Y-10331394D01*
X20956440Y-10331394D02*
X20956440Y-10302823D01*
X20956440Y-10302823D02*
X20951678Y-10293299D01*
X20951678Y-10293299D02*
X20946916Y-10288537D01*
X20946916Y-10288537D02*
X20937392Y-10283775D01*
X20937392Y-10283775D02*
X20918345Y-10283775D01*
X20918345Y-10283775D02*
X20908821Y-10288537D01*
X20823107Y-10345680D02*
X20832631Y-10350442D01*
X20832631Y-10350442D02*
X20851678Y-10350442D01*
X20851678Y-10350442D02*
X20861202Y-10345680D01*
X20861202Y-10345680D02*
X20865964Y-10336156D01*
X20865964Y-10336156D02*
X20865964Y-10298061D01*
X20865964Y-10298061D02*
X20861202Y-10288537D01*
X20861202Y-10288537D02*
X20851678Y-10283775D01*
X20851678Y-10283775D02*
X20832631Y-10283775D01*
X20832631Y-10283775D02*
X20823107Y-10288537D01*
X20823107Y-10288537D02*
X20818345Y-10298061D01*
X20818345Y-10298061D02*
X20818345Y-10307585D01*
X20818345Y-10307585D02*
X20865964Y-10317109D01*
X20775488Y-10350442D02*
X20775488Y-10283775D01*
X20775488Y-10302823D02*
X20770726Y-10293299D01*
X20770726Y-10293299D02*
X20765964Y-10288537D01*
X20765964Y-10288537D02*
X20756440Y-10283775D01*
X20756440Y-10283775D02*
X20746916Y-10283775D01*
X20727869Y-10283775D02*
X20689773Y-10283775D01*
X20713583Y-10250442D02*
X20713583Y-10336156D01*
X20713583Y-10336156D02*
X20708821Y-10345680D01*
X20708821Y-10345680D02*
X20699297Y-10350442D01*
X20699297Y-10350442D02*
X20689773Y-10350442D01*
X20656440Y-10283775D02*
X20656440Y-10369490D01*
X20656440Y-10369490D02*
X20661202Y-10379013D01*
X20661202Y-10379013D02*
X20670726Y-10383775D01*
X20670726Y-10383775D02*
X20675488Y-10383775D01*
X20656440Y-10250442D02*
X20661202Y-10255204D01*
X20661202Y-10255204D02*
X20656440Y-10259966D01*
X20656440Y-10259966D02*
X20651678Y-10255204D01*
X20651678Y-10255204D02*
X20656440Y-10250442D01*
X20656440Y-10250442D02*
X20656440Y-10259966D01*
X20565964Y-10350442D02*
X20565964Y-10298061D01*
X20565964Y-10298061D02*
X20570726Y-10288537D01*
X20570726Y-10288537D02*
X20580250Y-10283775D01*
X20580250Y-10283775D02*
X20599297Y-10283775D01*
X20599297Y-10283775D02*
X20608821Y-10288537D01*
X20565964Y-10345680D02*
X20575488Y-10350442D01*
X20575488Y-10350442D02*
X20599297Y-10350442D01*
X20599297Y-10350442D02*
X20608821Y-10345680D01*
X20608821Y-10345680D02*
X20613583Y-10336156D01*
X20613583Y-10336156D02*
X20613583Y-10326632D01*
X20613583Y-10326632D02*
X20608821Y-10317109D01*
X20608821Y-10317109D02*
X20599297Y-10312347D01*
X20599297Y-10312347D02*
X20575488Y-10312347D01*
X20575488Y-10312347D02*
X20565964Y-10307585D01*
X20518345Y-10283775D02*
X20518345Y-10350442D01*
X20518345Y-10293299D02*
X20513583Y-10288537D01*
X20513583Y-10288537D02*
X20504059Y-10283775D01*
X20504059Y-10283775D02*
X20489773Y-10283775D01*
X20489773Y-10283775D02*
X20480250Y-10288537D01*
X20480250Y-10288537D02*
X20475488Y-10298061D01*
X20475488Y-10298061D02*
X20475488Y-10350442D01*
X20385011Y-10350442D02*
X20385011Y-10298061D01*
X20385011Y-10298061D02*
X20389773Y-10288537D01*
X20389773Y-10288537D02*
X20399297Y-10283775D01*
X20399297Y-10283775D02*
X20418345Y-10283775D01*
X20418345Y-10283775D02*
X20427869Y-10288537D01*
X20385011Y-10345680D02*
X20394535Y-10350442D01*
X20394535Y-10350442D02*
X20418345Y-10350442D01*
X20418345Y-10350442D02*
X20427869Y-10345680D01*
X20427869Y-10345680D02*
X20432630Y-10336156D01*
X20432630Y-10336156D02*
X20432630Y-10326632D01*
X20432630Y-10326632D02*
X20427869Y-10317109D01*
X20427869Y-10317109D02*
X20418345Y-10312347D01*
X20418345Y-10312347D02*
X20394535Y-10312347D01*
X20394535Y-10312347D02*
X20385011Y-10307585D01*
X20342154Y-10345680D02*
X20332630Y-10350442D01*
X20332630Y-10350442D02*
X20313583Y-10350442D01*
X20313583Y-10350442D02*
X20304059Y-10345680D01*
X20304059Y-10345680D02*
X20299297Y-10336156D01*
X20299297Y-10336156D02*
X20299297Y-10331394D01*
X20299297Y-10331394D02*
X20304059Y-10321870D01*
X20304059Y-10321870D02*
X20313583Y-10317109D01*
X20313583Y-10317109D02*
X20327869Y-10317109D01*
X20327869Y-10317109D02*
X20337392Y-10312347D01*
X20337392Y-10312347D02*
X20342154Y-10302823D01*
X20342154Y-10302823D02*
X20342154Y-10298061D01*
X20342154Y-10298061D02*
X20337392Y-10288537D01*
X20337392Y-10288537D02*
X20327869Y-10283775D01*
X20327869Y-10283775D02*
X20313583Y-10283775D01*
X20313583Y-10283775D02*
X20304059Y-10288537D01*
X20261202Y-10345680D02*
X20251678Y-10350442D01*
X20251678Y-10350442D02*
X20232630Y-10350442D01*
X20232630Y-10350442D02*
X20223107Y-10345680D01*
X20223107Y-10345680D02*
X20218345Y-10336156D01*
X20218345Y-10336156D02*
X20218345Y-10331394D01*
X20218345Y-10331394D02*
X20223107Y-10321870D01*
X20223107Y-10321870D02*
X20232630Y-10317109D01*
X20232630Y-10317109D02*
X20246916Y-10317109D01*
X20246916Y-10317109D02*
X20256440Y-10312347D01*
X20256440Y-10312347D02*
X20261202Y-10302823D01*
X20261202Y-10302823D02*
X20261202Y-10298061D01*
X20261202Y-10298061D02*
X20256440Y-10288537D01*
X20256440Y-10288537D02*
X20246916Y-10283775D01*
X20246916Y-10283775D02*
X20232630Y-10283775D01*
X20232630Y-10283775D02*
X20223107Y-10288537D01*
X20175488Y-10350442D02*
X20175488Y-10283775D01*
X20175488Y-10250442D02*
X20180249Y-10255204D01*
X20180249Y-10255204D02*
X20175488Y-10259966D01*
X20175488Y-10259966D02*
X20170726Y-10255204D01*
X20170726Y-10255204D02*
X20175488Y-10250442D01*
X20175488Y-10250442D02*
X20175488Y-10259966D01*
X20089773Y-10345680D02*
X20099297Y-10350442D01*
X20099297Y-10350442D02*
X20118345Y-10350442D01*
X20118345Y-10350442D02*
X20127869Y-10345680D01*
X20127869Y-10345680D02*
X20132630Y-10336156D01*
X20132630Y-10336156D02*
X20132630Y-10298061D01*
X20132630Y-10298061D02*
X20127869Y-10288537D01*
X20127869Y-10288537D02*
X20118345Y-10283775D01*
X20118345Y-10283775D02*
X20099297Y-10283775D01*
X20099297Y-10283775D02*
X20089773Y-10288537D01*
X20089773Y-10288537D02*
X20085011Y-10298061D01*
X20085011Y-10298061D02*
X20085011Y-10307585D01*
X20085011Y-10307585D02*
X20132630Y-10317109D01*
X20046916Y-10345680D02*
X20037392Y-10350442D01*
X20037392Y-10350442D02*
X20018345Y-10350442D01*
X20018345Y-10350442D02*
X20008821Y-10345680D01*
X20008821Y-10345680D02*
X20004059Y-10336156D01*
X20004059Y-10336156D02*
X20004059Y-10331394D01*
X20004059Y-10331394D02*
X20008821Y-10321870D01*
X20008821Y-10321870D02*
X20018345Y-10317109D01*
X20018345Y-10317109D02*
X20032630Y-10317109D01*
X20032630Y-10317109D02*
X20042154Y-10312347D01*
X20042154Y-10312347D02*
X20046916Y-10302823D01*
X20046916Y-10302823D02*
X20046916Y-10298061D01*
X20046916Y-10298061D02*
X20042154Y-10288537D01*
X20042154Y-10288537D02*
X20032630Y-10283775D01*
X20032630Y-10283775D02*
X20018345Y-10283775D01*
X20018345Y-10283775D02*
X20008821Y-10288537D01*
X19961202Y-10340918D02*
X19956440Y-10345680D01*
X19956440Y-10345680D02*
X19961202Y-10350442D01*
X19961202Y-10350442D02*
X19965964Y-10345680D01*
X19965964Y-10345680D02*
X19961202Y-10340918D01*
X19961202Y-10340918D02*
X19961202Y-10350442D01*
X19870726Y-10350442D02*
X19870726Y-10250442D01*
X19870726Y-10345680D02*
X19880250Y-10350442D01*
X19880250Y-10350442D02*
X19899297Y-10350442D01*
X19899297Y-10350442D02*
X19908821Y-10345680D01*
X19908821Y-10345680D02*
X19913583Y-10340918D01*
X19913583Y-10340918D02*
X19918345Y-10331394D01*
X19918345Y-10331394D02*
X19918345Y-10302823D01*
X19918345Y-10302823D02*
X19913583Y-10293299D01*
X19913583Y-10293299D02*
X19908821Y-10288537D01*
X19908821Y-10288537D02*
X19899297Y-10283775D01*
X19899297Y-10283775D02*
X19880250Y-10283775D01*
X19880250Y-10283775D02*
X19870726Y-10288537D01*
X19785011Y-10345680D02*
X19794535Y-10350442D01*
X19794535Y-10350442D02*
X19813583Y-10350442D01*
X19813583Y-10350442D02*
X19823107Y-10345680D01*
X19823107Y-10345680D02*
X19827869Y-10336156D01*
X19827869Y-10336156D02*
X19827869Y-10298061D01*
X19827869Y-10298061D02*
X19823107Y-10288537D01*
X19823107Y-10288537D02*
X19813583Y-10283775D01*
X19813583Y-10283775D02*
X19794535Y-10283775D01*
X19794535Y-10283775D02*
X19785011Y-10288537D01*
X19785011Y-10288537D02*
X19780250Y-10298061D01*
X19780250Y-10298061D02*
X19780250Y-10307585D01*
X19780250Y-10307585D02*
X19827869Y-10317109D01*
X19746916Y-10283775D02*
X19723107Y-10350442D01*
X19723107Y-10350442D02*
X19699297Y-10283775D01*
X19589773Y-10245680D02*
X19675488Y-10374251D01*
X19556440Y-10350442D02*
X19556440Y-10250442D01*
X19556440Y-10288537D02*
X19546916Y-10283775D01*
X19546916Y-10283775D02*
X19527869Y-10283775D01*
X19527869Y-10283775D02*
X19518345Y-10288537D01*
X19518345Y-10288537D02*
X19513583Y-10293299D01*
X19513583Y-10293299D02*
X19508821Y-10302823D01*
X19508821Y-10302823D02*
X19508821Y-10331394D01*
X19508821Y-10331394D02*
X19513583Y-10340918D01*
X19513583Y-10340918D02*
X19518345Y-10345680D01*
X19518345Y-10345680D02*
X19527869Y-10350442D01*
X19527869Y-10350442D02*
X19546916Y-10350442D01*
X19546916Y-10350442D02*
X19556440Y-10345680D01*
X19451678Y-10350442D02*
X19461202Y-10345680D01*
X19461202Y-10345680D02*
X19465964Y-10336156D01*
X19465964Y-10336156D02*
X19465964Y-10250442D01*
X19399297Y-10350442D02*
X19408821Y-10345680D01*
X19408821Y-10345680D02*
X19413583Y-10340918D01*
X19413583Y-10340918D02*
X19418345Y-10331394D01*
X19418345Y-10331394D02*
X19418345Y-10302823D01*
X19418345Y-10302823D02*
X19413583Y-10293299D01*
X19413583Y-10293299D02*
X19408821Y-10288537D01*
X19408821Y-10288537D02*
X19399297Y-10283775D01*
X19399297Y-10283775D02*
X19385011Y-10283775D01*
X19385011Y-10283775D02*
X19375488Y-10288537D01*
X19375488Y-10288537D02*
X19370726Y-10293299D01*
X19370726Y-10293299D02*
X19365964Y-10302823D01*
X19365964Y-10302823D02*
X19365964Y-10331394D01*
X19365964Y-10331394D02*
X19370726Y-10340918D01*
X19370726Y-10340918D02*
X19375488Y-10345680D01*
X19375488Y-10345680D02*
X19385011Y-10350442D01*
X19385011Y-10350442D02*
X19399297Y-10350442D01*
X19280249Y-10283775D02*
X19280249Y-10364728D01*
X19280249Y-10364728D02*
X19285011Y-10374251D01*
X19285011Y-10374251D02*
X19289773Y-10379013D01*
X19289773Y-10379013D02*
X19299297Y-10383775D01*
X19299297Y-10383775D02*
X19313583Y-10383775D01*
X19313583Y-10383775D02*
X19323107Y-10379013D01*
X19280249Y-10345680D02*
X19289773Y-10350442D01*
X19289773Y-10350442D02*
X19308821Y-10350442D01*
X19308821Y-10350442D02*
X19318345Y-10345680D01*
X19318345Y-10345680D02*
X19323107Y-10340918D01*
X19323107Y-10340918D02*
X19327868Y-10331394D01*
X19327868Y-10331394D02*
X19327868Y-10302823D01*
X19327868Y-10302823D02*
X19323107Y-10293299D01*
X19323107Y-10293299D02*
X19318345Y-10288537D01*
X19318345Y-10288537D02*
X19308821Y-10283775D01*
X19308821Y-10283775D02*
X19289773Y-10283775D01*
X19289773Y-10283775D02*
X19280249Y-10288537D01*
X19218345Y-10340918D02*
X19213583Y-10345680D01*
X19213583Y-10345680D02*
X19218345Y-10350442D01*
X19218345Y-10350442D02*
X19223107Y-10345680D01*
X19223107Y-10345680D02*
X19218345Y-10340918D01*
X19218345Y-10340918D02*
X19218345Y-10350442D01*
X19237392Y-10255204D02*
X19227868Y-10250442D01*
X19227868Y-10250442D02*
X19204059Y-10250442D01*
X19204059Y-10250442D02*
X19194535Y-10255204D01*
X19194535Y-10255204D02*
X19189773Y-10264728D01*
X19189773Y-10264728D02*
X19189773Y-10274251D01*
X19189773Y-10274251D02*
X19194535Y-10283775D01*
X19194535Y-10283775D02*
X19199297Y-10288537D01*
X19199297Y-10288537D02*
X19208821Y-10293299D01*
X19208821Y-10293299D02*
X19213583Y-10298061D01*
X19213583Y-10298061D02*
X19218345Y-10307585D01*
X19218345Y-10307585D02*
X19218345Y-10312347D01*
X19104059Y-10345680D02*
X19113583Y-10350442D01*
X19113583Y-10350442D02*
X19132630Y-10350442D01*
X19132630Y-10350442D02*
X19142154Y-10345680D01*
X19142154Y-10345680D02*
X19146916Y-10340918D01*
X19146916Y-10340918D02*
X19151678Y-10331394D01*
X19151678Y-10331394D02*
X19151678Y-10302823D01*
X19151678Y-10302823D02*
X19146916Y-10293299D01*
X19146916Y-10293299D02*
X19142154Y-10288537D01*
X19142154Y-10288537D02*
X19132630Y-10283775D01*
X19132630Y-10283775D02*
X19113583Y-10283775D01*
X19113583Y-10283775D02*
X19104059Y-10288537D01*
X19018345Y-10350442D02*
X19018345Y-10298061D01*
X19018345Y-10298061D02*
X19023107Y-10288537D01*
X19023107Y-10288537D02*
X19032630Y-10283775D01*
X19032630Y-10283775D02*
X19051678Y-10283775D01*
X19051678Y-10283775D02*
X19061202Y-10288537D01*
X19018345Y-10345680D02*
X19027868Y-10350442D01*
X19027868Y-10350442D02*
X19051678Y-10350442D01*
X19051678Y-10350442D02*
X19061202Y-10345680D01*
X19061202Y-10345680D02*
X19065964Y-10336156D01*
X19065964Y-10336156D02*
X19065964Y-10326632D01*
X19065964Y-10326632D02*
X19061202Y-10317109D01*
X19061202Y-10317109D02*
X19051678Y-10312347D01*
X19051678Y-10312347D02*
X19027868Y-10312347D01*
X19027868Y-10312347D02*
X19018345Y-10307585D01*
X18985011Y-10283775D02*
X18946916Y-10283775D01*
X18970726Y-10250442D02*
X18970726Y-10336156D01*
X18970726Y-10336156D02*
X18965964Y-10345680D01*
X18965964Y-10345680D02*
X18956440Y-10350442D01*
X18956440Y-10350442D02*
X18946916Y-10350442D01*
X18875487Y-10345680D02*
X18885011Y-10350442D01*
X18885011Y-10350442D02*
X18904059Y-10350442D01*
X18904059Y-10350442D02*
X18913583Y-10345680D01*
X18913583Y-10345680D02*
X18918345Y-10336156D01*
X18918345Y-10336156D02*
X18918345Y-10298061D01*
X18918345Y-10298061D02*
X18913583Y-10288537D01*
X18913583Y-10288537D02*
X18904059Y-10283775D01*
X18904059Y-10283775D02*
X18885011Y-10283775D01*
X18885011Y-10283775D02*
X18875487Y-10288537D01*
X18875487Y-10288537D02*
X18870726Y-10298061D01*
X18870726Y-10298061D02*
X18870726Y-10307585D01*
X18870726Y-10307585D02*
X18918345Y-10317109D01*
X18785011Y-10283775D02*
X18785011Y-10364728D01*
X18785011Y-10364728D02*
X18789773Y-10374251D01*
X18789773Y-10374251D02*
X18794535Y-10379013D01*
X18794535Y-10379013D02*
X18804059Y-10383775D01*
X18804059Y-10383775D02*
X18818345Y-10383775D01*
X18818345Y-10383775D02*
X18827868Y-10379013D01*
X18785011Y-10345680D02*
X18794535Y-10350442D01*
X18794535Y-10350442D02*
X18813583Y-10350442D01*
X18813583Y-10350442D02*
X18823106Y-10345680D01*
X18823106Y-10345680D02*
X18827868Y-10340918D01*
X18827868Y-10340918D02*
X18832630Y-10331394D01*
X18832630Y-10331394D02*
X18832630Y-10302823D01*
X18832630Y-10302823D02*
X18827868Y-10293299D01*
X18827868Y-10293299D02*
X18823106Y-10288537D01*
X18823106Y-10288537D02*
X18813583Y-10283775D01*
X18813583Y-10283775D02*
X18794535Y-10283775D01*
X18794535Y-10283775D02*
X18785011Y-10288537D01*
X18723106Y-10350442D02*
X18732630Y-10345680D01*
X18732630Y-10345680D02*
X18737392Y-10340918D01*
X18737392Y-10340918D02*
X18742154Y-10331394D01*
X18742154Y-10331394D02*
X18742154Y-10302823D01*
X18742154Y-10302823D02*
X18737392Y-10293299D01*
X18737392Y-10293299D02*
X18732630Y-10288537D01*
X18732630Y-10288537D02*
X18723106Y-10283775D01*
X18723106Y-10283775D02*
X18708821Y-10283775D01*
X18708821Y-10283775D02*
X18699297Y-10288537D01*
X18699297Y-10288537D02*
X18694535Y-10293299D01*
X18694535Y-10293299D02*
X18689773Y-10302823D01*
X18689773Y-10302823D02*
X18689773Y-10331394D01*
X18689773Y-10331394D02*
X18694535Y-10340918D01*
X18694535Y-10340918D02*
X18699297Y-10345680D01*
X18699297Y-10345680D02*
X18708821Y-10350442D01*
X18708821Y-10350442D02*
X18723106Y-10350442D01*
X18646916Y-10350442D02*
X18646916Y-10283775D01*
X18646916Y-10302823D02*
X18642154Y-10293299D01*
X18642154Y-10293299D02*
X18637392Y-10288537D01*
X18637392Y-10288537D02*
X18627868Y-10283775D01*
X18627868Y-10283775D02*
X18618345Y-10283775D01*
X18594535Y-10283775D02*
X18570725Y-10350442D01*
X18546916Y-10283775D02*
X18570725Y-10350442D01*
X18570725Y-10350442D02*
X18580249Y-10374251D01*
X18580249Y-10374251D02*
X18585011Y-10379013D01*
X18585011Y-10379013D02*
X18594535Y-10383775D01*
X18508821Y-10298061D02*
X18432630Y-10298061D01*
X18432630Y-10326632D02*
X18508821Y-10326632D01*
X18385011Y-10350442D02*
X18385011Y-10283775D01*
X18385011Y-10293299D02*
X18380249Y-10288537D01*
X18380249Y-10288537D02*
X18370725Y-10283775D01*
X18370725Y-10283775D02*
X18356440Y-10283775D01*
X18356440Y-10283775D02*
X18346916Y-10288537D01*
X18346916Y-10288537D02*
X18342154Y-10298061D01*
X18342154Y-10298061D02*
X18342154Y-10350442D01*
X18342154Y-10298061D02*
X18337392Y-10288537D01*
X18337392Y-10288537D02*
X18327868Y-10283775D01*
X18327868Y-10283775D02*
X18313583Y-10283775D01*
X18313583Y-10283775D02*
X18304059Y-10288537D01*
X18304059Y-10288537D02*
X18299297Y-10298061D01*
X18299297Y-10298061D02*
X18299297Y-10350442D01*
X18208821Y-10350442D02*
X18208821Y-10298061D01*
X18208821Y-10298061D02*
X18213583Y-10288537D01*
X18213583Y-10288537D02*
X18223106Y-10283775D01*
X18223106Y-10283775D02*
X18242154Y-10283775D01*
X18242154Y-10283775D02*
X18251678Y-10288537D01*
X18208821Y-10345680D02*
X18218345Y-10350442D01*
X18218345Y-10350442D02*
X18242154Y-10350442D01*
X18242154Y-10350442D02*
X18251678Y-10345680D01*
X18251678Y-10345680D02*
X18256440Y-10336156D01*
X18256440Y-10336156D02*
X18256440Y-10326632D01*
X18256440Y-10326632D02*
X18251678Y-10317109D01*
X18251678Y-10317109D02*
X18242154Y-10312347D01*
X18242154Y-10312347D02*
X18218345Y-10312347D01*
X18218345Y-10312347D02*
X18208821Y-10307585D01*
X18161202Y-10350442D02*
X18161202Y-10250442D01*
X18151678Y-10312347D02*
X18123106Y-10350442D01*
X18123106Y-10283775D02*
X18161202Y-10321870D01*
X18042154Y-10345680D02*
X18051678Y-10350442D01*
X18051678Y-10350442D02*
X18070725Y-10350442D01*
X18070725Y-10350442D02*
X18080249Y-10345680D01*
X18080249Y-10345680D02*
X18085011Y-10336156D01*
X18085011Y-10336156D02*
X18085011Y-10298061D01*
X18085011Y-10298061D02*
X18080249Y-10288537D01*
X18080249Y-10288537D02*
X18070725Y-10283775D01*
X18070725Y-10283775D02*
X18051678Y-10283775D01*
X18051678Y-10283775D02*
X18042154Y-10288537D01*
X18042154Y-10288537D02*
X18037392Y-10298061D01*
X18037392Y-10298061D02*
X18037392Y-10307585D01*
X18037392Y-10307585D02*
X18085011Y-10317109D01*
X12856935Y-8535942D02*
X12795031Y-8535942D01*
X12795031Y-8535942D02*
X12828364Y-8574037D01*
X12828364Y-8574037D02*
X12814078Y-8574037D01*
X12814078Y-8574037D02*
X12804554Y-8578799D01*
X12804554Y-8578799D02*
X12799792Y-8583561D01*
X12799792Y-8583561D02*
X12795031Y-8593085D01*
X12795031Y-8593085D02*
X12795031Y-8616894D01*
X12795031Y-8616894D02*
X12799792Y-8626418D01*
X12799792Y-8626418D02*
X12804554Y-8631180D01*
X12804554Y-8631180D02*
X12814078Y-8635942D01*
X12814078Y-8635942D02*
X12842650Y-8635942D01*
X12842650Y-8635942D02*
X12852173Y-8631180D01*
X12852173Y-8631180D02*
X12856935Y-8626418D01*
X12766459Y-8535942D02*
X12733126Y-8635942D01*
X12733126Y-8635942D02*
X12699792Y-8535942D01*
X12675983Y-8535942D02*
X12614078Y-8535942D01*
X12614078Y-8535942D02*
X12647411Y-8574037D01*
X12647411Y-8574037D02*
X12633126Y-8574037D01*
X12633126Y-8574037D02*
X12623602Y-8578799D01*
X12623602Y-8578799D02*
X12618840Y-8583561D01*
X12618840Y-8583561D02*
X12614078Y-8593085D01*
X12614078Y-8593085D02*
X12614078Y-8616894D01*
X12614078Y-8616894D02*
X12618840Y-8626418D01*
X12618840Y-8626418D02*
X12623602Y-8631180D01*
X12623602Y-8631180D02*
X12633126Y-8635942D01*
X12633126Y-8635942D02*
X12661697Y-8635942D01*
X12661697Y-8635942D02*
X12671221Y-8631180D01*
X12671221Y-8631180D02*
X12675983Y-8626418D01*
X14877831Y-8515304D02*
X14887354Y-8510542D01*
X14887354Y-8510542D02*
X14901640Y-8510542D01*
X14901640Y-8510542D02*
X14915926Y-8515304D01*
X14915926Y-8515304D02*
X14925450Y-8524828D01*
X14925450Y-8524828D02*
X14930211Y-8534351D01*
X14930211Y-8534351D02*
X14934973Y-8553399D01*
X14934973Y-8553399D02*
X14934973Y-8567685D01*
X14934973Y-8567685D02*
X14930211Y-8586732D01*
X14930211Y-8586732D02*
X14925450Y-8596256D01*
X14925450Y-8596256D02*
X14915926Y-8605780D01*
X14915926Y-8605780D02*
X14901640Y-8610542D01*
X14901640Y-8610542D02*
X14892116Y-8610542D01*
X14892116Y-8610542D02*
X14877831Y-8605780D01*
X14877831Y-8605780D02*
X14873069Y-8601018D01*
X14873069Y-8601018D02*
X14873069Y-8567685D01*
X14873069Y-8567685D02*
X14892116Y-8567685D01*
X14830211Y-8610542D02*
X14830211Y-8510542D01*
X14830211Y-8510542D02*
X14773069Y-8610542D01*
X14773069Y-8610542D02*
X14773069Y-8510542D01*
X14725450Y-8610542D02*
X14725450Y-8510542D01*
X14725450Y-8510542D02*
X14701640Y-8510542D01*
X14701640Y-8510542D02*
X14687354Y-8515304D01*
X14687354Y-8515304D02*
X14677831Y-8524828D01*
X14677831Y-8524828D02*
X14673069Y-8534351D01*
X14673069Y-8534351D02*
X14668307Y-8553399D01*
X14668307Y-8553399D02*
X14668307Y-8567685D01*
X14668307Y-8567685D02*
X14673069Y-8586732D01*
X14673069Y-8586732D02*
X14677831Y-8596256D01*
X14677831Y-8596256D02*
X14687354Y-8605780D01*
X14687354Y-8605780D02*
X14701640Y-8610542D01*
X14701640Y-8610542D02*
X14725450Y-8610542D01*
D12*
X14792952Y-10103894D02*
X14792952Y-10168655D01*
X14792952Y-10168655D02*
X14789143Y-10176274D01*
X14789143Y-10176274D02*
X14785333Y-10180084D01*
X14785333Y-10180084D02*
X14777714Y-10183894D01*
X14777714Y-10183894D02*
X14762476Y-10183894D01*
X14762476Y-10183894D02*
X14754857Y-10180084D01*
X14754857Y-10180084D02*
X14751048Y-10176274D01*
X14751048Y-10176274D02*
X14747238Y-10168655D01*
X14747238Y-10168655D02*
X14747238Y-10103894D01*
X14712952Y-10111513D02*
X14709143Y-10107703D01*
X14709143Y-10107703D02*
X14701524Y-10103894D01*
X14701524Y-10103894D02*
X14682476Y-10103894D01*
X14682476Y-10103894D02*
X14674857Y-10107703D01*
X14674857Y-10107703D02*
X14671048Y-10111513D01*
X14671048Y-10111513D02*
X14667238Y-10119132D01*
X14667238Y-10119132D02*
X14667238Y-10126751D01*
X14667238Y-10126751D02*
X14671048Y-10138179D01*
X14671048Y-10138179D02*
X14716762Y-10183894D01*
X14716762Y-10183894D02*
X14667238Y-10183894D01*
X14789724Y-10218194D02*
X14736390Y-10298194D01*
X14736390Y-10218194D02*
X14789724Y-10298194D01*
X14705914Y-10298194D02*
X14705914Y-10218194D01*
X14671629Y-10275336D02*
X14633533Y-10275336D01*
X14679248Y-10298194D02*
X14652581Y-10218194D01*
X14652581Y-10218194D02*
X14625914Y-10298194D01*
X14584009Y-10218194D02*
X14568771Y-10218194D01*
X14568771Y-10218194D02*
X14561152Y-10222003D01*
X14561152Y-10222003D02*
X14553533Y-10229622D01*
X14553533Y-10229622D02*
X14549724Y-10244860D01*
X14549724Y-10244860D02*
X14549724Y-10271527D01*
X14549724Y-10271527D02*
X14553533Y-10286765D01*
X14553533Y-10286765D02*
X14561152Y-10294384D01*
X14561152Y-10294384D02*
X14568771Y-10298194D01*
X14568771Y-10298194D02*
X14584009Y-10298194D01*
X14584009Y-10298194D02*
X14591629Y-10294384D01*
X14591629Y-10294384D02*
X14599248Y-10286765D01*
X14599248Y-10286765D02*
X14603057Y-10271527D01*
X14603057Y-10271527D02*
X14603057Y-10244860D01*
X14603057Y-10244860D02*
X14599248Y-10229622D01*
X14599248Y-10229622D02*
X14591629Y-10222003D01*
X14591629Y-10222003D02*
X14584009Y-10218194D01*
X14515438Y-10267717D02*
X14454486Y-10267717D01*
X14416390Y-10256289D02*
X14389724Y-10256289D01*
X14378295Y-10298194D02*
X14416390Y-10298194D01*
X14416390Y-10298194D02*
X14416390Y-10218194D01*
X14416390Y-10218194D02*
X14378295Y-10218194D01*
X14347819Y-10294384D02*
X14336390Y-10298194D01*
X14336390Y-10298194D02*
X14317343Y-10298194D01*
X14317343Y-10298194D02*
X14309724Y-10294384D01*
X14309724Y-10294384D02*
X14305914Y-10290574D01*
X14305914Y-10290574D02*
X14302105Y-10282955D01*
X14302105Y-10282955D02*
X14302105Y-10275336D01*
X14302105Y-10275336D02*
X14305914Y-10267717D01*
X14305914Y-10267717D02*
X14309724Y-10263908D01*
X14309724Y-10263908D02*
X14317343Y-10260098D01*
X14317343Y-10260098D02*
X14332581Y-10256289D01*
X14332581Y-10256289D02*
X14340200Y-10252479D01*
X14340200Y-10252479D02*
X14344009Y-10248670D01*
X14344009Y-10248670D02*
X14347819Y-10241051D01*
X14347819Y-10241051D02*
X14347819Y-10233432D01*
X14347819Y-10233432D02*
X14344009Y-10225813D01*
X14344009Y-10225813D02*
X14340200Y-10222003D01*
X14340200Y-10222003D02*
X14332581Y-10218194D01*
X14332581Y-10218194D02*
X14313533Y-10218194D01*
X14313533Y-10218194D02*
X14302105Y-10222003D01*
X14267819Y-10298194D02*
X14267819Y-10218194D01*
X14267819Y-10218194D02*
X14237343Y-10218194D01*
X14237343Y-10218194D02*
X14229724Y-10222003D01*
X14229724Y-10222003D02*
X14225914Y-10225813D01*
X14225914Y-10225813D02*
X14222105Y-10233432D01*
X14222105Y-10233432D02*
X14222105Y-10244860D01*
X14222105Y-10244860D02*
X14225914Y-10252479D01*
X14225914Y-10252479D02*
X14229724Y-10256289D01*
X14229724Y-10256289D02*
X14237343Y-10260098D01*
X14237343Y-10260098D02*
X14267819Y-10260098D01*
X14195438Y-10218194D02*
X14145914Y-10218194D01*
X14145914Y-10218194D02*
X14172581Y-10248670D01*
X14172581Y-10248670D02*
X14161152Y-10248670D01*
X14161152Y-10248670D02*
X14153533Y-10252479D01*
X14153533Y-10252479D02*
X14149724Y-10256289D01*
X14149724Y-10256289D02*
X14145914Y-10263908D01*
X14145914Y-10263908D02*
X14145914Y-10282955D01*
X14145914Y-10282955D02*
X14149724Y-10290574D01*
X14149724Y-10290574D02*
X14153533Y-10294384D01*
X14153533Y-10294384D02*
X14161152Y-10298194D01*
X14161152Y-10298194D02*
X14184009Y-10298194D01*
X14184009Y-10298194D02*
X14191629Y-10294384D01*
X14191629Y-10294384D02*
X14195438Y-10290574D01*
X14115438Y-10225813D02*
X14111628Y-10222003D01*
X14111628Y-10222003D02*
X14104009Y-10218194D01*
X14104009Y-10218194D02*
X14084962Y-10218194D01*
X14084962Y-10218194D02*
X14077343Y-10222003D01*
X14077343Y-10222003D02*
X14073533Y-10225813D01*
X14073533Y-10225813D02*
X14069724Y-10233432D01*
X14069724Y-10233432D02*
X14069724Y-10241051D01*
X14069724Y-10241051D02*
X14073533Y-10252479D01*
X14073533Y-10252479D02*
X14119248Y-10298194D01*
X14119248Y-10298194D02*
X14069724Y-10298194D01*
X14035438Y-10267717D02*
X13974486Y-10267717D01*
X13890676Y-10290574D02*
X13894486Y-10294384D01*
X13894486Y-10294384D02*
X13905914Y-10298194D01*
X13905914Y-10298194D02*
X13913533Y-10298194D01*
X13913533Y-10298194D02*
X13924962Y-10294384D01*
X13924962Y-10294384D02*
X13932581Y-10286765D01*
X13932581Y-10286765D02*
X13936390Y-10279146D01*
X13936390Y-10279146D02*
X13940200Y-10263908D01*
X13940200Y-10263908D02*
X13940200Y-10252479D01*
X13940200Y-10252479D02*
X13936390Y-10237241D01*
X13936390Y-10237241D02*
X13932581Y-10229622D01*
X13932581Y-10229622D02*
X13924962Y-10222003D01*
X13924962Y-10222003D02*
X13913533Y-10218194D01*
X13913533Y-10218194D02*
X13905914Y-10218194D01*
X13905914Y-10218194D02*
X13894486Y-10222003D01*
X13894486Y-10222003D02*
X13890676Y-10225813D01*
X13822105Y-10218194D02*
X13837343Y-10218194D01*
X13837343Y-10218194D02*
X13844962Y-10222003D01*
X13844962Y-10222003D02*
X13848771Y-10225813D01*
X13848771Y-10225813D02*
X13856390Y-10237241D01*
X13856390Y-10237241D02*
X13860200Y-10252479D01*
X13860200Y-10252479D02*
X13860200Y-10282955D01*
X13860200Y-10282955D02*
X13856390Y-10290574D01*
X13856390Y-10290574D02*
X13852581Y-10294384D01*
X13852581Y-10294384D02*
X13844962Y-10298194D01*
X13844962Y-10298194D02*
X13829724Y-10298194D01*
X13829724Y-10298194D02*
X13822105Y-10294384D01*
X13822105Y-10294384D02*
X13818295Y-10290574D01*
X13818295Y-10290574D02*
X13814486Y-10282955D01*
X13814486Y-10282955D02*
X13814486Y-10263908D01*
X13814486Y-10263908D02*
X13818295Y-10256289D01*
X13818295Y-10256289D02*
X13822105Y-10252479D01*
X13822105Y-10252479D02*
X13829724Y-10248670D01*
X13829724Y-10248670D02*
X13844962Y-10248670D01*
X13844962Y-10248670D02*
X13852581Y-10252479D01*
X13852581Y-10252479D02*
X13856390Y-10256289D01*
X13856390Y-10256289D02*
X13860200Y-10263908D01*
D13*
X11811209Y-9583182D02*
X11811209Y-9483182D01*
X11811209Y-9483182D02*
X11787400Y-9483182D01*
X11787400Y-9483182D02*
X11773114Y-9487944D01*
X11773114Y-9487944D02*
X11763590Y-9497468D01*
X11763590Y-9497468D02*
X11758828Y-9506991D01*
X11758828Y-9506991D02*
X11754067Y-9526039D01*
X11754067Y-9526039D02*
X11754067Y-9540325D01*
X11754067Y-9540325D02*
X11758828Y-9559372D01*
X11758828Y-9559372D02*
X11763590Y-9568896D01*
X11763590Y-9568896D02*
X11773114Y-9578420D01*
X11773114Y-9578420D02*
X11787400Y-9583182D01*
X11787400Y-9583182D02*
X11811209Y-9583182D01*
X11668352Y-9516515D02*
X11668352Y-9583182D01*
X11692162Y-9478420D02*
X11715971Y-9549849D01*
X11715971Y-9549849D02*
X11654067Y-9549849D01*
X12308555Y-9400182D02*
X12308555Y-9300182D01*
X12308555Y-9300182D02*
X12284745Y-9300182D01*
X12284745Y-9300182D02*
X12270459Y-9304944D01*
X12270459Y-9304944D02*
X12260936Y-9314468D01*
X12260936Y-9314468D02*
X12256174Y-9323991D01*
X12256174Y-9323991D02*
X12251412Y-9343039D01*
X12251412Y-9343039D02*
X12251412Y-9357325D01*
X12251412Y-9357325D02*
X12256174Y-9376372D01*
X12256174Y-9376372D02*
X12260936Y-9385896D01*
X12260936Y-9385896D02*
X12270459Y-9395420D01*
X12270459Y-9395420D02*
X12284745Y-9400182D01*
X12284745Y-9400182D02*
X12308555Y-9400182D01*
X12170459Y-9395420D02*
X12179983Y-9400182D01*
X12179983Y-9400182D02*
X12199031Y-9400182D01*
X12199031Y-9400182D02*
X12208555Y-9395420D01*
X12208555Y-9395420D02*
X12213317Y-9385896D01*
X12213317Y-9385896D02*
X12213317Y-9347801D01*
X12213317Y-9347801D02*
X12208555Y-9338277D01*
X12208555Y-9338277D02*
X12199031Y-9333515D01*
X12199031Y-9333515D02*
X12179983Y-9333515D01*
X12179983Y-9333515D02*
X12170459Y-9338277D01*
X12170459Y-9338277D02*
X12165698Y-9347801D01*
X12165698Y-9347801D02*
X12165698Y-9357325D01*
X12165698Y-9357325D02*
X12213317Y-9366849D01*
X12137126Y-9333515D02*
X12099031Y-9333515D01*
X12122840Y-9300182D02*
X12122840Y-9385896D01*
X12122840Y-9385896D02*
X12118078Y-9395420D01*
X12118078Y-9395420D02*
X12108555Y-9400182D01*
X12108555Y-9400182D02*
X12099031Y-9400182D01*
X12027602Y-9395420D02*
X12037126Y-9400182D01*
X12037126Y-9400182D02*
X12056174Y-9400182D01*
X12056174Y-9400182D02*
X12065697Y-9395420D01*
X12065697Y-9395420D02*
X12070459Y-9385896D01*
X12070459Y-9385896D02*
X12070459Y-9347801D01*
X12070459Y-9347801D02*
X12065697Y-9338277D01*
X12065697Y-9338277D02*
X12056174Y-9333515D01*
X12056174Y-9333515D02*
X12037126Y-9333515D01*
X12037126Y-9333515D02*
X12027602Y-9338277D01*
X12027602Y-9338277D02*
X12022840Y-9347801D01*
X12022840Y-9347801D02*
X12022840Y-9357325D01*
X12022840Y-9357325D02*
X12070459Y-9366849D01*
X11937126Y-9395420D02*
X11946650Y-9400182D01*
X11946650Y-9400182D02*
X11965697Y-9400182D01*
X11965697Y-9400182D02*
X11975221Y-9395420D01*
X11975221Y-9395420D02*
X11979983Y-9390658D01*
X11979983Y-9390658D02*
X11984745Y-9381134D01*
X11984745Y-9381134D02*
X11984745Y-9352563D01*
X11984745Y-9352563D02*
X11979983Y-9343039D01*
X11979983Y-9343039D02*
X11975221Y-9338277D01*
X11975221Y-9338277D02*
X11965697Y-9333515D01*
X11965697Y-9333515D02*
X11946650Y-9333515D01*
X11946650Y-9333515D02*
X11937126Y-9338277D01*
X11908555Y-9333515D02*
X11870459Y-9333515D01*
X11894269Y-9300182D02*
X11894269Y-9385896D01*
X11894269Y-9385896D02*
X11889507Y-9395420D01*
X11889507Y-9395420D02*
X11879983Y-9400182D01*
X11879983Y-9400182D02*
X11870459Y-9400182D01*
X11815503Y-9964182D02*
X11815503Y-9864182D01*
X11815503Y-9864182D02*
X11791693Y-9864182D01*
X11791693Y-9864182D02*
X11777408Y-9868944D01*
X11777408Y-9868944D02*
X11767884Y-9878468D01*
X11767884Y-9878468D02*
X11763122Y-9887991D01*
X11763122Y-9887991D02*
X11758360Y-9907039D01*
X11758360Y-9907039D02*
X11758360Y-9921325D01*
X11758360Y-9921325D02*
X11763122Y-9940372D01*
X11763122Y-9940372D02*
X11767884Y-9949896D01*
X11767884Y-9949896D02*
X11777408Y-9959420D01*
X11777408Y-9959420D02*
X11791693Y-9964182D01*
X11791693Y-9964182D02*
X11815503Y-9964182D01*
X11725027Y-9864182D02*
X11663122Y-9864182D01*
X11663122Y-9864182D02*
X11696455Y-9902277D01*
X11696455Y-9902277D02*
X11682170Y-9902277D01*
X11682170Y-9902277D02*
X11672646Y-9907039D01*
X11672646Y-9907039D02*
X11667884Y-9911801D01*
X11667884Y-9911801D02*
X11663122Y-9921325D01*
X11663122Y-9921325D02*
X11663122Y-9945134D01*
X11663122Y-9945134D02*
X11667884Y-9954658D01*
X11667884Y-9954658D02*
X11672646Y-9959420D01*
X11672646Y-9959420D02*
X11682170Y-9964182D01*
X11682170Y-9964182D02*
X11710741Y-9964182D01*
X11710741Y-9964182D02*
X11720265Y-9959420D01*
X11720265Y-9959420D02*
X11725027Y-9954658D01*
X12198562Y-9781182D02*
X12246181Y-9781182D01*
X12246181Y-9781182D02*
X12246181Y-9681182D01*
X12150943Y-9781182D02*
X12160467Y-9776420D01*
X12160467Y-9776420D02*
X12165229Y-9771658D01*
X12165229Y-9771658D02*
X12169991Y-9762134D01*
X12169991Y-9762134D02*
X12169991Y-9733563D01*
X12169991Y-9733563D02*
X12165229Y-9724039D01*
X12165229Y-9724039D02*
X12160467Y-9719277D01*
X12160467Y-9719277D02*
X12150943Y-9714515D01*
X12150943Y-9714515D02*
X12136658Y-9714515D01*
X12136658Y-9714515D02*
X12127134Y-9719277D01*
X12127134Y-9719277D02*
X12122372Y-9724039D01*
X12122372Y-9724039D02*
X12117610Y-9733563D01*
X12117610Y-9733563D02*
X12117610Y-9762134D01*
X12117610Y-9762134D02*
X12122372Y-9771658D01*
X12122372Y-9771658D02*
X12127134Y-9776420D01*
X12127134Y-9776420D02*
X12136658Y-9781182D01*
X12136658Y-9781182D02*
X12150943Y-9781182D01*
X12031896Y-9776420D02*
X12041420Y-9781182D01*
X12041420Y-9781182D02*
X12060467Y-9781182D01*
X12060467Y-9781182D02*
X12069991Y-9776420D01*
X12069991Y-9776420D02*
X12074753Y-9771658D01*
X12074753Y-9771658D02*
X12079515Y-9762134D01*
X12079515Y-9762134D02*
X12079515Y-9733563D01*
X12079515Y-9733563D02*
X12074753Y-9724039D01*
X12074753Y-9724039D02*
X12069991Y-9719277D01*
X12069991Y-9719277D02*
X12060467Y-9714515D01*
X12060467Y-9714515D02*
X12041420Y-9714515D01*
X12041420Y-9714515D02*
X12031896Y-9719277D01*
X11989039Y-9781182D02*
X11989039Y-9681182D01*
X11979515Y-9743087D02*
X11950943Y-9781182D01*
X11950943Y-9714515D02*
X11989039Y-9752610D01*
X13049467Y-10345182D02*
X13082800Y-10297563D01*
X13106609Y-10345182D02*
X13106609Y-10245182D01*
X13106609Y-10245182D02*
X13068514Y-10245182D01*
X13068514Y-10245182D02*
X13058990Y-10249944D01*
X13058990Y-10249944D02*
X13054228Y-10254706D01*
X13054228Y-10254706D02*
X13049467Y-10264230D01*
X13049467Y-10264230D02*
X13049467Y-10278515D01*
X13049467Y-10278515D02*
X13054228Y-10288039D01*
X13054228Y-10288039D02*
X13058990Y-10292801D01*
X13058990Y-10292801D02*
X13068514Y-10297563D01*
X13068514Y-10297563D02*
X13106609Y-10297563D01*
X13016133Y-10245182D02*
X12954228Y-10245182D01*
X12954228Y-10245182D02*
X12987562Y-10283277D01*
X12987562Y-10283277D02*
X12973276Y-10283277D01*
X12973276Y-10283277D02*
X12963752Y-10288039D01*
X12963752Y-10288039D02*
X12958990Y-10292801D01*
X12958990Y-10292801D02*
X12954228Y-10302325D01*
X12954228Y-10302325D02*
X12954228Y-10326134D01*
X12954228Y-10326134D02*
X12958990Y-10335658D01*
X12958990Y-10335658D02*
X12963752Y-10340420D01*
X12963752Y-10340420D02*
X12973276Y-10345182D01*
X12973276Y-10345182D02*
X13001847Y-10345182D01*
X13001847Y-10345182D02*
X13011371Y-10340420D01*
X13011371Y-10340420D02*
X13016133Y-10335658D01*
X11811209Y-10345182D02*
X11811209Y-10245182D01*
X11811209Y-10245182D02*
X11787400Y-10245182D01*
X11787400Y-10245182D02*
X11773114Y-10249944D01*
X11773114Y-10249944D02*
X11763590Y-10259468D01*
X11763590Y-10259468D02*
X11758828Y-10268991D01*
X11758828Y-10268991D02*
X11754067Y-10288039D01*
X11754067Y-10288039D02*
X11754067Y-10302325D01*
X11754067Y-10302325D02*
X11758828Y-10321372D01*
X11758828Y-10321372D02*
X11763590Y-10330896D01*
X11763590Y-10330896D02*
X11773114Y-10340420D01*
X11773114Y-10340420D02*
X11787400Y-10345182D01*
X11787400Y-10345182D02*
X11811209Y-10345182D01*
X11715971Y-10254706D02*
X11711209Y-10249944D01*
X11711209Y-10249944D02*
X11701686Y-10245182D01*
X11701686Y-10245182D02*
X11677876Y-10245182D01*
X11677876Y-10245182D02*
X11668352Y-10249944D01*
X11668352Y-10249944D02*
X11663590Y-10254706D01*
X11663590Y-10254706D02*
X11658828Y-10264230D01*
X11658828Y-10264230D02*
X11658828Y-10273753D01*
X11658828Y-10273753D02*
X11663590Y-10288039D01*
X11663590Y-10288039D02*
X11720733Y-10345182D01*
X11720733Y-10345182D02*
X11658828Y-10345182D01*
X12218079Y-10162182D02*
X12251412Y-10114563D01*
X12275221Y-10162182D02*
X12275221Y-10062182D01*
X12275221Y-10062182D02*
X12237126Y-10062182D01*
X12237126Y-10062182D02*
X12227602Y-10066944D01*
X12227602Y-10066944D02*
X12222840Y-10071706D01*
X12222840Y-10071706D02*
X12218079Y-10081230D01*
X12218079Y-10081230D02*
X12218079Y-10095515D01*
X12218079Y-10095515D02*
X12222840Y-10105039D01*
X12222840Y-10105039D02*
X12227602Y-10109801D01*
X12227602Y-10109801D02*
X12237126Y-10114563D01*
X12237126Y-10114563D02*
X12275221Y-10114563D01*
X12137126Y-10157420D02*
X12146650Y-10162182D01*
X12146650Y-10162182D02*
X12165698Y-10162182D01*
X12165698Y-10162182D02*
X12175221Y-10157420D01*
X12175221Y-10157420D02*
X12179983Y-10147896D01*
X12179983Y-10147896D02*
X12179983Y-10109801D01*
X12179983Y-10109801D02*
X12175221Y-10100277D01*
X12175221Y-10100277D02*
X12165698Y-10095515D01*
X12165698Y-10095515D02*
X12146650Y-10095515D01*
X12146650Y-10095515D02*
X12137126Y-10100277D01*
X12137126Y-10100277D02*
X12132364Y-10109801D01*
X12132364Y-10109801D02*
X12132364Y-10119325D01*
X12132364Y-10119325D02*
X12179983Y-10128849D01*
X12075221Y-10162182D02*
X12084745Y-10157420D01*
X12084745Y-10157420D02*
X12089507Y-10147896D01*
X12089507Y-10147896D02*
X12089507Y-10062182D01*
X11994269Y-10162182D02*
X11994269Y-10109801D01*
X11994269Y-10109801D02*
X11999031Y-10100277D01*
X11999031Y-10100277D02*
X12008555Y-10095515D01*
X12008555Y-10095515D02*
X12027602Y-10095515D01*
X12027602Y-10095515D02*
X12037126Y-10100277D01*
X11994269Y-10157420D02*
X12003793Y-10162182D01*
X12003793Y-10162182D02*
X12027602Y-10162182D01*
X12027602Y-10162182D02*
X12037126Y-10157420D01*
X12037126Y-10157420D02*
X12041888Y-10147896D01*
X12041888Y-10147896D02*
X12041888Y-10138372D01*
X12041888Y-10138372D02*
X12037126Y-10128849D01*
X12037126Y-10128849D02*
X12027602Y-10124087D01*
X12027602Y-10124087D02*
X12003793Y-10124087D01*
X12003793Y-10124087D02*
X11994269Y-10119325D01*
X11956174Y-10095515D02*
X11932364Y-10162182D01*
X11908555Y-10095515D02*
X11932364Y-10162182D01*
X11932364Y-10162182D02*
X11941888Y-10185991D01*
X11941888Y-10185991D02*
X11946650Y-10190753D01*
X11946650Y-10190753D02*
X11956174Y-10195515D01*
X11579774Y-10622706D02*
X11589298Y-10617944D01*
X11589298Y-10617944D02*
X11598821Y-10608420D01*
X11598821Y-10608420D02*
X11613107Y-10594134D01*
X11613107Y-10594134D02*
X11622631Y-10589372D01*
X11622631Y-10589372D02*
X11632155Y-10589372D01*
X11627393Y-10613182D02*
X11636917Y-10608420D01*
X11636917Y-10608420D02*
X11646440Y-10598896D01*
X11646440Y-10598896D02*
X11651202Y-10579849D01*
X11651202Y-10579849D02*
X11651202Y-10546515D01*
X11651202Y-10546515D02*
X11646440Y-10527468D01*
X11646440Y-10527468D02*
X11636917Y-10517944D01*
X11636917Y-10517944D02*
X11627393Y-10513182D01*
X11627393Y-10513182D02*
X11608345Y-10513182D01*
X11608345Y-10513182D02*
X11598821Y-10517944D01*
X11598821Y-10517944D02*
X11589298Y-10527468D01*
X11589298Y-10527468D02*
X11584536Y-10546515D01*
X11584536Y-10546515D02*
X11584536Y-10579849D01*
X11584536Y-10579849D02*
X11589298Y-10598896D01*
X11589298Y-10598896D02*
X11598821Y-10608420D01*
X11598821Y-10608420D02*
X11608345Y-10613182D01*
X11608345Y-10613182D02*
X11627393Y-10613182D01*
X11546440Y-10522706D02*
X11541678Y-10517944D01*
X11541678Y-10517944D02*
X11532155Y-10513182D01*
X11532155Y-10513182D02*
X11508345Y-10513182D01*
X11508345Y-10513182D02*
X11498821Y-10517944D01*
X11498821Y-10517944D02*
X11494059Y-10522706D01*
X11494059Y-10522706D02*
X11489298Y-10532230D01*
X11489298Y-10532230D02*
X11489298Y-10541753D01*
X11489298Y-10541753D02*
X11494059Y-10556039D01*
X11494059Y-10556039D02*
X11551202Y-10613182D01*
X11551202Y-10613182D02*
X11489298Y-10613182D01*
X11615733Y-7578182D02*
X11615733Y-7649610D01*
X11615733Y-7649610D02*
X11620495Y-7663896D01*
X11620495Y-7663896D02*
X11630019Y-7673420D01*
X11630019Y-7673420D02*
X11644305Y-7678182D01*
X11644305Y-7678182D02*
X11653828Y-7678182D01*
X11515733Y-7678182D02*
X11572876Y-7678182D01*
X11544305Y-7678182D02*
X11544305Y-7578182D01*
X11544305Y-7578182D02*
X11553828Y-7592468D01*
X11553828Y-7592468D02*
X11563352Y-7601991D01*
X11563352Y-7601991D02*
X11572876Y-7606753D01*
X10379867Y-9129158D02*
X10384629Y-9133920D01*
X10384629Y-9133920D02*
X10398914Y-9138682D01*
X10398914Y-9138682D02*
X10408438Y-9138682D01*
X10408438Y-9138682D02*
X10422724Y-9133920D01*
X10422724Y-9133920D02*
X10432248Y-9124396D01*
X10432248Y-9124396D02*
X10437009Y-9114872D01*
X10437009Y-9114872D02*
X10441771Y-9095825D01*
X10441771Y-9095825D02*
X10441771Y-9081539D01*
X10441771Y-9081539D02*
X10437009Y-9062491D01*
X10437009Y-9062491D02*
X10432248Y-9052968D01*
X10432248Y-9052968D02*
X10422724Y-9043444D01*
X10422724Y-9043444D02*
X10408438Y-9038682D01*
X10408438Y-9038682D02*
X10398914Y-9038682D01*
X10398914Y-9038682D02*
X10384629Y-9043444D01*
X10384629Y-9043444D02*
X10379867Y-9048206D01*
X10284629Y-9138682D02*
X10341771Y-9138682D01*
X10313200Y-9138682D02*
X10313200Y-9038682D01*
X10313200Y-9038682D02*
X10322724Y-9052968D01*
X10322724Y-9052968D02*
X10332248Y-9062491D01*
X10332248Y-9062491D02*
X10341771Y-9067253D01*
X12665867Y-11361182D02*
X12699200Y-11313563D01*
X12723009Y-11361182D02*
X12723009Y-11261182D01*
X12723009Y-11261182D02*
X12684914Y-11261182D01*
X12684914Y-11261182D02*
X12675390Y-11265944D01*
X12675390Y-11265944D02*
X12670628Y-11270706D01*
X12670628Y-11270706D02*
X12665867Y-11280229D01*
X12665867Y-11280229D02*
X12665867Y-11294515D01*
X12665867Y-11294515D02*
X12670628Y-11304039D01*
X12670628Y-11304039D02*
X12675390Y-11308801D01*
X12675390Y-11308801D02*
X12684914Y-11313563D01*
X12684914Y-11313563D02*
X12723009Y-11313563D01*
X12570628Y-11361182D02*
X12627771Y-11361182D01*
X12599200Y-11361182D02*
X12599200Y-11261182D01*
X12599200Y-11261182D02*
X12608724Y-11275468D01*
X12608724Y-11275468D02*
X12618247Y-11284991D01*
X12618247Y-11284991D02*
X12627771Y-11289753D01*
X12669867Y-10871982D02*
X12703200Y-10824363D01*
X12727009Y-10871982D02*
X12727009Y-10771982D01*
X12727009Y-10771982D02*
X12688914Y-10771982D01*
X12688914Y-10771982D02*
X12679390Y-10776744D01*
X12679390Y-10776744D02*
X12674628Y-10781506D01*
X12674628Y-10781506D02*
X12669867Y-10791030D01*
X12669867Y-10791030D02*
X12669867Y-10805315D01*
X12669867Y-10805315D02*
X12674628Y-10814839D01*
X12674628Y-10814839D02*
X12679390Y-10819601D01*
X12679390Y-10819601D02*
X12688914Y-10824363D01*
X12688914Y-10824363D02*
X12727009Y-10824363D01*
X12631771Y-10781506D02*
X12627009Y-10776744D01*
X12627009Y-10776744D02*
X12617486Y-10771982D01*
X12617486Y-10771982D02*
X12593676Y-10771982D01*
X12593676Y-10771982D02*
X12584152Y-10776744D01*
X12584152Y-10776744D02*
X12579390Y-10781506D01*
X12579390Y-10781506D02*
X12574628Y-10791030D01*
X12574628Y-10791030D02*
X12574628Y-10800553D01*
X12574628Y-10800553D02*
X12579390Y-10814839D01*
X12579390Y-10814839D02*
X12636533Y-10871982D01*
X12636533Y-10871982D02*
X12574628Y-10871982D01*
X11318190Y-9983982D02*
X11318190Y-10064934D01*
X11318190Y-10064934D02*
X11313428Y-10074458D01*
X11313428Y-10074458D02*
X11308667Y-10079220D01*
X11308667Y-10079220D02*
X11299143Y-10083982D01*
X11299143Y-10083982D02*
X11280095Y-10083982D01*
X11280095Y-10083982D02*
X11270571Y-10079220D01*
X11270571Y-10079220D02*
X11265809Y-10074458D01*
X11265809Y-10074458D02*
X11261048Y-10064934D01*
X11261048Y-10064934D02*
X11261048Y-9983982D01*
X11161048Y-10083982D02*
X11218190Y-10083982D01*
X11189619Y-10083982D02*
X11189619Y-9983982D01*
X11189619Y-9983982D02*
X11199143Y-9998268D01*
X11199143Y-9998268D02*
X11208667Y-10007791D01*
X11208667Y-10007791D02*
X11218190Y-10012553D01*
X13049467Y-9964182D02*
X13082800Y-9916563D01*
X13106609Y-9964182D02*
X13106609Y-9864182D01*
X13106609Y-9864182D02*
X13068514Y-9864182D01*
X13068514Y-9864182D02*
X13058990Y-9868944D01*
X13058990Y-9868944D02*
X13054228Y-9873706D01*
X13054228Y-9873706D02*
X13049467Y-9883230D01*
X13049467Y-9883230D02*
X13049467Y-9897515D01*
X13049467Y-9897515D02*
X13054228Y-9907039D01*
X13054228Y-9907039D02*
X13058990Y-9911801D01*
X13058990Y-9911801D02*
X13068514Y-9916563D01*
X13068514Y-9916563D02*
X13106609Y-9916563D01*
X12963752Y-9897515D02*
X12963752Y-9964182D01*
X12987562Y-9859420D02*
X13011371Y-9930849D01*
X13011371Y-9930849D02*
X12949467Y-9930849D01*
X9236959Y-10198932D02*
X9236959Y-10098932D01*
X9179817Y-10198932D02*
X9222674Y-10141789D01*
X9179817Y-10098932D02*
X9236959Y-10156075D01*
X9084579Y-10198932D02*
X9141721Y-10198932D01*
X9113150Y-10198932D02*
X9113150Y-10098932D01*
X9113150Y-10098932D02*
X9122674Y-10113218D01*
X9122674Y-10113218D02*
X9132198Y-10122741D01*
X9132198Y-10122741D02*
X9141721Y-10127503D01*
X13049467Y-9583182D02*
X13082800Y-9535563D01*
X13106609Y-9583182D02*
X13106609Y-9483182D01*
X13106609Y-9483182D02*
X13068514Y-9483182D01*
X13068514Y-9483182D02*
X13058990Y-9487944D01*
X13058990Y-9487944D02*
X13054228Y-9492706D01*
X13054228Y-9492706D02*
X13049467Y-9502230D01*
X13049467Y-9502230D02*
X13049467Y-9516515D01*
X13049467Y-9516515D02*
X13054228Y-9526039D01*
X13054228Y-9526039D02*
X13058990Y-9530801D01*
X13058990Y-9530801D02*
X13068514Y-9535563D01*
X13068514Y-9535563D02*
X13106609Y-9535563D01*
X12958990Y-9483182D02*
X13006609Y-9483182D01*
X13006609Y-9483182D02*
X13011371Y-9530801D01*
X13011371Y-9530801D02*
X13006609Y-9526039D01*
X13006609Y-9526039D02*
X12997086Y-9521277D01*
X12997086Y-9521277D02*
X12973276Y-9521277D01*
X12973276Y-9521277D02*
X12963752Y-9526039D01*
X12963752Y-9526039D02*
X12958990Y-9530801D01*
X12958990Y-9530801D02*
X12954228Y-9540325D01*
X12954228Y-9540325D02*
X12954228Y-9564134D01*
X12954228Y-9564134D02*
X12958990Y-9573658D01*
X12958990Y-9573658D02*
X12963752Y-9578420D01*
X12963752Y-9578420D02*
X12973276Y-9583182D01*
X12973276Y-9583182D02*
X12997086Y-9583182D01*
X12997086Y-9583182D02*
X13006609Y-9578420D01*
X13006609Y-9578420D02*
X13011371Y-9573658D01*
X15247933Y-7603582D02*
X15247933Y-7675010D01*
X15247933Y-7675010D02*
X15252695Y-7689296D01*
X15252695Y-7689296D02*
X15262219Y-7698820D01*
X15262219Y-7698820D02*
X15276505Y-7703582D01*
X15276505Y-7703582D02*
X15286028Y-7703582D01*
X15205076Y-7613106D02*
X15200314Y-7608344D01*
X15200314Y-7608344D02*
X15190790Y-7603582D01*
X15190790Y-7603582D02*
X15166981Y-7603582D01*
X15166981Y-7603582D02*
X15157457Y-7608344D01*
X15157457Y-7608344D02*
X15152695Y-7613106D01*
X15152695Y-7613106D02*
X15147933Y-7622629D01*
X15147933Y-7622629D02*
X15147933Y-7632153D01*
X15147933Y-7632153D02*
X15152695Y-7646439D01*
X15152695Y-7646439D02*
X15209838Y-7703582D01*
X15209838Y-7703582D02*
X15147933Y-7703582D01*
X9812333Y-7578182D02*
X9812333Y-7649610D01*
X9812333Y-7649610D02*
X9817095Y-7663896D01*
X9817095Y-7663896D02*
X9826619Y-7673420D01*
X9826619Y-7673420D02*
X9840905Y-7678182D01*
X9840905Y-7678182D02*
X9850429Y-7678182D01*
X9774238Y-7578182D02*
X9712333Y-7578182D01*
X9712333Y-7578182D02*
X9745667Y-7616277D01*
X9745667Y-7616277D02*
X9731381Y-7616277D01*
X9731381Y-7616277D02*
X9721857Y-7621039D01*
X9721857Y-7621039D02*
X9717095Y-7625801D01*
X9717095Y-7625801D02*
X9712333Y-7635325D01*
X9712333Y-7635325D02*
X9712333Y-7659134D01*
X9712333Y-7659134D02*
X9717095Y-7668658D01*
X9717095Y-7668658D02*
X9721857Y-7673420D01*
X9721857Y-7673420D02*
X9731381Y-7678182D01*
X9731381Y-7678182D02*
X9759952Y-7678182D01*
X9759952Y-7678182D02*
X9769476Y-7673420D01*
X9769476Y-7673420D02*
X9774238Y-7668658D01*
X11097409Y-11348482D02*
X11097409Y-11248482D01*
X11097409Y-11248482D02*
X11073600Y-11248482D01*
X11073600Y-11248482D02*
X11059314Y-11253244D01*
X11059314Y-11253244D02*
X11049790Y-11262768D01*
X11049790Y-11262768D02*
X11045029Y-11272291D01*
X11045029Y-11272291D02*
X11040267Y-11291339D01*
X11040267Y-11291339D02*
X11040267Y-11305625D01*
X11040267Y-11305625D02*
X11045029Y-11324672D01*
X11045029Y-11324672D02*
X11049790Y-11334196D01*
X11049790Y-11334196D02*
X11059314Y-11343720D01*
X11059314Y-11343720D02*
X11073600Y-11348482D01*
X11073600Y-11348482D02*
X11097409Y-11348482D01*
X10949790Y-11248482D02*
X10997409Y-11248482D01*
X10997409Y-11248482D02*
X11002171Y-11296101D01*
X11002171Y-11296101D02*
X10997409Y-11291339D01*
X10997409Y-11291339D02*
X10987886Y-11286577D01*
X10987886Y-11286577D02*
X10964076Y-11286577D01*
X10964076Y-11286577D02*
X10954552Y-11291339D01*
X10954552Y-11291339D02*
X10949790Y-11296101D01*
X10949790Y-11296101D02*
X10945029Y-11305625D01*
X10945029Y-11305625D02*
X10945029Y-11329434D01*
X10945029Y-11329434D02*
X10949790Y-11338958D01*
X10949790Y-11338958D02*
X10954552Y-11343720D01*
X10954552Y-11343720D02*
X10964076Y-11348482D01*
X10964076Y-11348482D02*
X10987886Y-11348482D01*
X10987886Y-11348482D02*
X10997409Y-11343720D01*
X10997409Y-11343720D02*
X11002171Y-11338958D01*
X10379867Y-10094358D02*
X10384629Y-10099120D01*
X10384629Y-10099120D02*
X10398914Y-10103882D01*
X10398914Y-10103882D02*
X10408438Y-10103882D01*
X10408438Y-10103882D02*
X10422724Y-10099120D01*
X10422724Y-10099120D02*
X10432248Y-10089596D01*
X10432248Y-10089596D02*
X10437009Y-10080072D01*
X10437009Y-10080072D02*
X10441771Y-10061025D01*
X10441771Y-10061025D02*
X10441771Y-10046739D01*
X10441771Y-10046739D02*
X10437009Y-10027691D01*
X10437009Y-10027691D02*
X10432248Y-10018168D01*
X10432248Y-10018168D02*
X10422724Y-10008644D01*
X10422724Y-10008644D02*
X10408438Y-10003882D01*
X10408438Y-10003882D02*
X10398914Y-10003882D01*
X10398914Y-10003882D02*
X10384629Y-10008644D01*
X10384629Y-10008644D02*
X10379867Y-10013406D01*
X10341771Y-10013406D02*
X10337009Y-10008644D01*
X10337009Y-10008644D02*
X10327486Y-10003882D01*
X10327486Y-10003882D02*
X10303676Y-10003882D01*
X10303676Y-10003882D02*
X10294152Y-10008644D01*
X10294152Y-10008644D02*
X10289390Y-10013406D01*
X10289390Y-10013406D02*
X10284629Y-10022930D01*
X10284629Y-10022930D02*
X10284629Y-10032453D01*
X10284629Y-10032453D02*
X10289390Y-10046739D01*
X10289390Y-10046739D02*
X10346533Y-10103882D01*
X10346533Y-10103882D02*
X10284629Y-10103882D01*
X11578374Y-11111906D02*
X11587898Y-11107144D01*
X11587898Y-11107144D02*
X11597421Y-11097620D01*
X11597421Y-11097620D02*
X11611707Y-11083334D01*
X11611707Y-11083334D02*
X11621231Y-11078572D01*
X11621231Y-11078572D02*
X11630755Y-11078572D01*
X11625993Y-11102382D02*
X11635517Y-11097620D01*
X11635517Y-11097620D02*
X11645040Y-11088096D01*
X11645040Y-11088096D02*
X11649802Y-11069049D01*
X11649802Y-11069049D02*
X11649802Y-11035715D01*
X11649802Y-11035715D02*
X11645040Y-11016668D01*
X11645040Y-11016668D02*
X11635517Y-11007144D01*
X11635517Y-11007144D02*
X11625993Y-11002382D01*
X11625993Y-11002382D02*
X11606945Y-11002382D01*
X11606945Y-11002382D02*
X11597421Y-11007144D01*
X11597421Y-11007144D02*
X11587898Y-11016668D01*
X11587898Y-11016668D02*
X11583136Y-11035715D01*
X11583136Y-11035715D02*
X11583136Y-11069049D01*
X11583136Y-11069049D02*
X11587898Y-11088096D01*
X11587898Y-11088096D02*
X11597421Y-11097620D01*
X11597421Y-11097620D02*
X11606945Y-11102382D01*
X11606945Y-11102382D02*
X11625993Y-11102382D01*
X11487898Y-11102382D02*
X11545040Y-11102382D01*
X11516469Y-11102382D02*
X11516469Y-11002382D01*
X11516469Y-11002382D02*
X11525993Y-11016668D01*
X11525993Y-11016668D02*
X11535517Y-11026191D01*
X11535517Y-11026191D02*
X11545040Y-11030953D01*
D14*
%TO.C,U2*%
X13030200Y-10515600D02*
X13030200Y-12230100D01*
X13220700Y-10325100D02*
X14617700Y-10325100D01*
X13469700Y-12420600D02*
X13470073Y-12521627D01*
X13520073Y-12571600D02*
X14319600Y-12571600D01*
X14369600Y-12521600D02*
X14369600Y-12420600D01*
D10*
X14617700Y-12420600D02*
X13220700Y-12420600D01*
D14*
X14617700Y-12420600D02*
X13220700Y-12420600D01*
X14808200Y-10515600D02*
X14808200Y-12230100D01*
X13030200Y-10515600D02*
G75*
G02*
X13220700Y-10325100I190500J0D01*
G01*
X13220700Y-12420600D02*
G75*
G02*
X13030200Y-12230100I0J190500D01*
G01*
X13520073Y-12571600D02*
G75*
G02*
X13470073Y-12521627I2J50002D01*
G01*
X14369600Y-12521600D02*
G75*
G02*
X14319600Y-12571600I-50000J0D01*
G01*
X14617700Y-10325100D02*
G75*
G02*
X14808200Y-10515600I0J-190500D01*
G01*
X14808200Y-12230100D02*
G75*
G02*
X14617700Y-12420600I-190500J0D01*
G01*
D15*
X13049400Y-12396500D02*
G75*
G02*
X12999000Y-12396500I-25200J0D01*
G01*
X12999000Y-12396500D02*
G75*
G02*
X13049400Y-12396500I25200J0D01*
G01*
X13163700Y-12308500D02*
G75*
G02*
X13113300Y-12308500I-25200J0D01*
G01*
X13113300Y-12308500D02*
G75*
G02*
X13163700Y-12308500I25200J0D01*
G01*
D16*
%TO.C,D4*%
X11850650Y-9424200D02*
X12256650Y-9424200D01*
X11850650Y-9651200D02*
X11850650Y-9424200D01*
X12256650Y-9651200D02*
X11850650Y-9651200D01*
%TO.C,D3*%
X11854943Y-9805200D02*
X12260943Y-9805200D01*
X11854943Y-10032200D02*
X11854943Y-9805200D01*
X12260943Y-10032200D02*
X11854943Y-10032200D01*
%TO.C,R3*%
X12601894Y-10208700D02*
X12747306Y-10208700D01*
X12601894Y-10390700D02*
X12747306Y-10390700D01*
%TO.C,D2*%
X11850650Y-10186200D02*
X12256650Y-10186200D01*
X11850650Y-10413200D02*
X11850650Y-10186200D01*
X12256650Y-10413200D02*
X11850650Y-10413200D01*
%TO.C,Q2*%
X11570250Y-10651700D02*
X11505250Y-10651700D01*
X11570250Y-10651700D02*
X11635250Y-10651700D01*
X11570250Y-10963700D02*
X11505250Y-10963700D01*
X11570250Y-10963700D02*
X11635250Y-10963700D01*
X11686500Y-10656700D02*
X11662500Y-10623700D01*
X11710500Y-10623700D01*
X11686500Y-10656700D01*
G36*
X11686500Y-10656700D02*
G01*
X11662500Y-10623700D01*
X11710500Y-10623700D01*
X11686500Y-10656700D01*
G37*
%TO.C,J1*%
X10376600Y-7490900D02*
X10376600Y-8494900D01*
X10376600Y-7552900D02*
X11416600Y-7552900D01*
X10376600Y-7702900D02*
X11416600Y-7702900D01*
X10376600Y-8192900D02*
X11416600Y-8192900D01*
X10376600Y-8494900D02*
X11416600Y-8494900D01*
X10612600Y-7490900D02*
X10376600Y-7490900D01*
X11416600Y-7490900D02*
X10672600Y-7490900D01*
X11416600Y-8494900D02*
X11416600Y-7490900D01*
X10642600Y-7490900D02*
X10598600Y-7429900D01*
X10686600Y-7429900D01*
X10642600Y-7490900D01*
G36*
X10642600Y-7490900D02*
G01*
X10598600Y-7429900D01*
X10686600Y-7429900D01*
X10642600Y-7490900D01*
G37*
%TO.C,C1*%
X10063200Y-9188900D02*
X10739700Y-9188900D01*
X10739700Y-9188900D02*
X10739700Y-9530900D01*
X10739700Y-9530900D02*
X10063200Y-9530900D01*
%TO.C,R1*%
X12363706Y-11224700D02*
X12218294Y-11224700D01*
X12363706Y-11406700D02*
X12218294Y-11406700D01*
%TO.C,R2*%
X12366306Y-10742100D02*
X12220894Y-10742100D01*
X12366306Y-10924100D02*
X12220894Y-10924100D01*
%TO.C,U1*%
X11057000Y-9247500D02*
X11433000Y-9247500D01*
X11057000Y-9929500D02*
X11433000Y-9929500D01*
X11433000Y-9247500D02*
X11433000Y-9373500D01*
X11433000Y-9929500D02*
X11433000Y-9803500D01*
X10953000Y-9952500D02*
X10905000Y-9952500D01*
X10929000Y-9919500D01*
X10953000Y-9952500D01*
G36*
X10953000Y-9952500D02*
G01*
X10905000Y-9952500D01*
X10929000Y-9919500D01*
X10953000Y-9952500D01*
G37*
%TO.C,R4*%
X12601894Y-9827700D02*
X12747306Y-9827700D01*
X12601894Y-10009700D02*
X12747306Y-10009700D01*
%TO.C,K1*%
X7713150Y-10293450D02*
X10613150Y-10293450D01*
X7713150Y-11563450D02*
X7713150Y-10293450D01*
X10313150Y-10893450D02*
X10433150Y-10893450D01*
X10313150Y-10963450D02*
X10313150Y-10893450D01*
X10353150Y-10963450D02*
X10393150Y-10893450D01*
X10403150Y-11587450D02*
X10637150Y-11587450D01*
X10433150Y-10893450D02*
X10433150Y-10963450D01*
X10433150Y-10963450D02*
X10313150Y-10963450D01*
X10613150Y-10293450D02*
X10613150Y-11563450D01*
X10613150Y-11563450D02*
X7713150Y-11563450D01*
X10637150Y-11587450D02*
X10637150Y-11368450D01*
%TO.C,R5*%
X12601894Y-9446700D02*
X12747306Y-9446700D01*
X12601894Y-9628700D02*
X12747306Y-9628700D01*
%TO.C,J2*%
X11976800Y-7490900D02*
X11976800Y-8494900D01*
X11976800Y-7552900D02*
X15048800Y-7552900D01*
X11976800Y-7702900D02*
X15048800Y-7702900D01*
X11976800Y-8192900D02*
X15048800Y-8192900D01*
X11976800Y-8494900D02*
X15048800Y-8494900D01*
X12212800Y-7490900D02*
X11976800Y-7490900D01*
X15048800Y-7490900D02*
X12272800Y-7490900D01*
X15048800Y-8494900D02*
X15048800Y-7490900D01*
X12242800Y-7490900D02*
X12198800Y-7429900D01*
X12286800Y-7429900D01*
X12242800Y-7490900D01*
G36*
X12242800Y-7490900D02*
G01*
X12198800Y-7429900D01*
X12286800Y-7429900D01*
X12242800Y-7490900D01*
G37*
%TO.C,J3*%
X8090600Y-7490900D02*
X8090600Y-8494900D01*
X8090600Y-7552900D02*
X9638600Y-7552900D01*
X8090600Y-7702900D02*
X9638600Y-7702900D01*
X8090600Y-8192900D02*
X9638600Y-8192900D01*
X8090600Y-8494900D02*
X9638600Y-8494900D01*
X8326600Y-7490900D02*
X8090600Y-7490900D01*
X9638600Y-7490900D02*
X8386600Y-7490900D01*
X9638600Y-8494900D02*
X9638600Y-7490900D01*
X8356600Y-7490900D02*
X8312600Y-7429900D01*
X8400600Y-7429900D01*
X8356600Y-7490900D01*
G36*
X8356600Y-7490900D02*
G01*
X8312600Y-7429900D01*
X8400600Y-7429900D01*
X8356600Y-7490900D01*
G37*
%TO.C,D5*%
X10735400Y-11362400D02*
X10735400Y-11096400D01*
X10905400Y-11362400D02*
X10735400Y-11362400D01*
X10905400Y-11362400D02*
X10905400Y-11096400D01*
%TO.C,C2*%
X10060700Y-9595300D02*
X10737200Y-9595300D01*
X10737200Y-9595300D02*
X10737200Y-9937300D01*
X10737200Y-9937300D02*
X10060700Y-9937300D01*
%TO.C,Q1*%
X11568850Y-11140900D02*
X11503850Y-11140900D01*
X11568850Y-11140900D02*
X11633850Y-11140900D01*
X11568850Y-11452900D02*
X11503850Y-11452900D01*
X11568850Y-11452900D02*
X11633850Y-11452900D01*
X11685100Y-11145900D02*
X11661100Y-11112900D01*
X11709100Y-11112900D01*
X11685100Y-11145900D01*
G36*
X11685100Y-11145900D02*
G01*
X11661100Y-11112900D01*
X11709100Y-11112900D01*
X11685100Y-11145900D01*
G37*
%TD*%
M02*
