%TF.GenerationSoftware,KiCad,Pcbnew,9.0.2*%
%TF.CreationDate,2025-08-21T21:33:00+02:00*%
%TF.ProjectId,esp32c6-charger,65737033-3263-4362-9d63-686172676572,rev?*%
%TF.SameCoordinates,Original*%
%TF.FileFunction,Copper,L2,Bot*%
%TF.FilePolarity,Positive*%
%FSLAX45Y45*%
G04 Gerber Fmt 4.5, Leading zero omitted, Abs format (unit mm)*
G04 Created by KiCad (PCBNEW 9.0.2) date 2025-08-21 21:33:00*
%MOMM*%
%LPD*%
G01*
G04 APERTURE LIST*
G04 Aperture macros list*
%AMRoundRect*
0 Rectangle with rounded corners*
0 $1 Rounding radius*
0 $2 $3 $4 $5 $6 $7 $8 $9 X,Y pos of 4 corners*
0 Add a 4 corners polygon primitive as box body*
4,1,4,$2,$3,$4,$5,$6,$7,$8,$9,$2,$3,0*
0 Add four circle primitives for the rounded corners*
1,1,$1+$1,$2,$3*
1,1,$1+$1,$4,$5*
1,1,$1+$1,$6,$7*
1,1,$1+$1,$8,$9*
0 Add four rect primitives between the rounded corners*
20,1,$1+$1,$2,$3,$4,$5,0*
20,1,$1+$1,$4,$5,$6,$7,0*
20,1,$1+$1,$6,$7,$8,$9,0*
20,1,$1+$1,$8,$9,$2,$3,0*%
G04 Aperture macros list end*
%TA.AperFunction,ComponentPad*%
%ADD10O,1.600000X2.000000*%
%TD*%
%TA.AperFunction,ComponentPad*%
%ADD11R,1.700000X1.700000*%
%TD*%
%TA.AperFunction,ComponentPad*%
%ADD12C,1.700000*%
%TD*%
%TA.AperFunction,SMDPad,CuDef*%
%ADD13RoundRect,0.152400X1.063600X0.609600X-1.063600X0.609600X-1.063600X-0.609600X1.063600X-0.609600X0*%
%TD*%
%TA.AperFunction,ComponentPad*%
%ADD14C,1.524000*%
%TD*%
%TA.AperFunction,SMDPad,CuDef*%
%ADD15RoundRect,0.152400X-1.063600X-0.609600X1.063600X-0.609600X1.063600X0.609600X-1.063600X0.609600X0*%
%TD*%
%TA.AperFunction,SMDPad,CuDef*%
%ADD16RoundRect,0.250001X-0.462499X-0.624999X0.462499X-0.624999X0.462499X0.624999X-0.462499X0.624999X0*%
%TD*%
%TA.AperFunction,SMDPad,CuDef*%
%ADD17RoundRect,0.250000X-0.400000X-0.625000X0.400000X-0.625000X0.400000X0.625000X-0.400000X0.625000X0*%
%TD*%
%TA.AperFunction,SMDPad,CuDef*%
%ADD18RoundRect,0.150000X0.512500X0.150000X-0.512500X0.150000X-0.512500X-0.150000X0.512500X-0.150000X0*%
%TD*%
%TA.AperFunction,SMDPad,CuDef*%
%ADD19RoundRect,0.250000X0.337500X0.475000X-0.337500X0.475000X-0.337500X-0.475000X0.337500X-0.475000X0*%
%TD*%
%TA.AperFunction,SMDPad,CuDef*%
%ADD20RoundRect,0.250000X0.400000X0.625000X-0.400000X0.625000X-0.400000X-0.625000X0.400000X-0.625000X0*%
%TD*%
%TA.AperFunction,SMDPad,CuDef*%
%ADD21RoundRect,0.375000X-0.625000X-0.375000X0.625000X-0.375000X0.625000X0.375000X-0.625000X0.375000X0*%
%TD*%
%TA.AperFunction,SMDPad,CuDef*%
%ADD22RoundRect,0.500000X-0.500000X-1.400000X0.500000X-1.400000X0.500000X1.400000X-0.500000X1.400000X0*%
%TD*%
%TA.AperFunction,ComponentPad*%
%ADD23C,2.000000*%
%TD*%
%TA.AperFunction,ComponentPad*%
%ADD24R,2.000000X2.000000*%
%TD*%
%TA.AperFunction,ComponentPad*%
%ADD25RoundRect,0.250000X-1.050000X-1.050000X1.050000X-1.050000X1.050000X1.050000X-1.050000X1.050000X0*%
%TD*%
%TA.AperFunction,ComponentPad*%
%ADD26C,2.600000*%
%TD*%
%TA.AperFunction,ComponentPad*%
%ADD27R,3.500000X3.500000*%
%TD*%
%TA.AperFunction,ComponentPad*%
%ADD28RoundRect,0.750000X-1.000000X0.750000X-1.000000X-0.750000X1.000000X-0.750000X1.000000X0.750000X0*%
%TD*%
%TA.AperFunction,ComponentPad*%
%ADD29RoundRect,0.875000X-0.875000X0.875000X-0.875000X-0.875000X0.875000X-0.875000X0.875000X0.875000X0*%
%TD*%
%TA.AperFunction,Conductor*%
%ADD30C,0.200000*%
%TD*%
%TA.AperFunction,Conductor*%
%ADD31C,2.000000*%
%TD*%
G04 APERTURE END LIST*
D10*
%TO.P,Brd1,1,GND*%
%TO.N,GND*%
X12776200Y-10718800D03*
%TO.P,Brd1,2,VCC*%
%TO.N,VCC*%
X13030200Y-10718800D03*
%TO.P,Brd1,3,SCL*%
%TO.N,/SCL*%
X13284200Y-10718800D03*
%TO.P,Brd1,4,SDA*%
%TO.N,/SDA*%
X13538200Y-10718800D03*
%TD*%
D11*
%TO.P,RFID1,1,SDA*%
%TO.N,/CS*%
X16078200Y-10617200D03*
D12*
%TO.P,RFID1,2,SCK*%
%TO.N,/SCK*%
X16078200Y-10871200D03*
%TO.P,RFID1,3,MOSI*%
%TO.N,/MOSI*%
X16078200Y-11125200D03*
%TO.P,RFID1,4,MISO*%
%TO.N,/MISO*%
X16078200Y-11379200D03*
%TO.P,RFID1,5,IRQ*%
%TO.N,unconnected-(RFID1-IRQ-Pad5)*%
X16078200Y-11633200D03*
%TO.P,RFID1,6,GND*%
%TO.N,GND*%
X16078200Y-11887200D03*
%TO.P,RFID1,7,RST*%
%TO.N,unconnected-(RFID1-RST-Pad7)*%
X16078200Y-12141200D03*
%TO.P,RFID1,8,3\u002C3V*%
%TO.N,VCC*%
X16078200Y-12395200D03*
%TD*%
D13*
%TO.P,U1,1,GPIO0/A0/D0*%
%TO.N,/LED*%
X13302300Y-13690600D03*
D14*
X13385800Y-13690600D03*
D13*
%TO.P,U1,2,GPIO1/A1/D1*%
%TO.N,Net-(D4-K)*%
X13302300Y-13436600D03*
D14*
X13385800Y-13436600D03*
D13*
%TO.P,U1,3,GPIO2/A2/D2*%
%TO.N,Net-(U1-GPIO2{slash}A2{slash}D2)*%
X13302300Y-13182600D03*
D14*
X13385800Y-13182600D03*
D13*
%TO.P,U1,4,GPIO21/D3*%
%TO.N,Net-(U1-GPIO21{slash}D3)*%
X13302300Y-12928600D03*
D14*
X13385800Y-12928600D03*
D13*
%TO.P,U1,5,GPIO22/D4/SDA*%
%TO.N,/SDA*%
X13302300Y-12674600D03*
D14*
X13385800Y-12674600D03*
D13*
%TO.P,U1,6,GPIO23/D5/SCL*%
%TO.N,/SCL*%
X13302300Y-12420600D03*
D14*
X13385800Y-12420600D03*
D13*
%TO.P,U1,7,GPIO16/D6/TX*%
%TO.N,unconnected-(U1-GPIO16{slash}D6{slash}TX-Pad7)*%
X13302300Y-12166600D03*
D14*
X13385800Y-12166600D03*
%TO.P,U1,8,GPIO17/D7/RX*%
%TO.N,/CS*%
X14909800Y-12166600D03*
D15*
X14993300Y-12166600D03*
D14*
%TO.P,U1,9,GPIO19/D8/SCK*%
%TO.N,/SCK*%
X14909800Y-12420600D03*
D15*
X14993300Y-12420600D03*
D14*
%TO.P,U1,10,GPIO20/D9/MISO*%
%TO.N,/MISO*%
X14909800Y-12674600D03*
D15*
X14993300Y-12674600D03*
D14*
%TO.P,U1,11,GPIO18/D10/MOSI*%
%TO.N,/MOSI*%
X14909800Y-12928600D03*
D15*
X14993300Y-12928600D03*
D14*
%TO.P,U1,12,3V3*%
%TO.N,VCC*%
X14909800Y-13182600D03*
D15*
X14993300Y-13182600D03*
D14*
%TO.P,U1,13,GND*%
%TO.N,GND*%
X14909800Y-13436600D03*
D15*
X14993300Y-13436600D03*
D14*
%TO.P,U1,14,VBUS*%
%TO.N,VDD*%
X14909800Y-13690600D03*
D15*
X14993300Y-13690600D03*
%TD*%
D16*
%TO.P,D4,1,K*%
%TO.N,Net-(D4-K)*%
X12021500Y-11125200D03*
%TO.P,D4,2,A*%
%TO.N,Net-(D4-A)*%
X12319000Y-11125200D03*
%TD*%
%TO.P,D2,1,K*%
%TO.N,Net-(D2-K)*%
X12021500Y-11506200D03*
%TO.P,D2,2,A*%
%TO.N,Net-(D2-A)*%
X12319000Y-11506200D03*
%TD*%
D17*
%TO.P,R3,1*%
%TO.N,Net-(D3-A)*%
X12593200Y-11887200D03*
%TO.P,R3,2*%
%TO.N,VCC*%
X12903200Y-11887200D03*
%TD*%
D16*
%TO.P,D3,1,K*%
%TO.N,Net-(D3-K)*%
X12021500Y-11887200D03*
%TO.P,D3,2,A*%
%TO.N,Net-(D3-A)*%
X12319000Y-11887200D03*
%TD*%
D18*
%TO.P,Q1,1,C*%
%TO.N,Net-(D2-K)*%
X11912600Y-12274800D03*
%TO.P,Q1,2,B*%
%TO.N,Net-(Q1-B)*%
X11912600Y-12464800D03*
%TO.P,Q1,3,E*%
%TO.N,GND*%
X11685100Y-12369800D03*
%TD*%
D19*
%TO.P,C1,1*%
%TO.N,+12V*%
X10672300Y-10845800D03*
%TO.P,C1,2*%
%TO.N,GND*%
X10464800Y-10845800D03*
%TD*%
D20*
%TO.P,R2,1*%
%TO.N,Net-(U1-GPIO2{slash}A2{slash}D2)*%
X12750800Y-12623800D03*
%TO.P,R2,2*%
%TO.N,Net-(Q2-B)*%
X12440800Y-12623800D03*
%TD*%
%TO.P,R1,1*%
%TO.N,Net-(U1-GPIO21{slash}D3)*%
X12749400Y-12249400D03*
%TO.P,R1,2*%
%TO.N,Net-(Q1-B)*%
X12439400Y-12249400D03*
%TD*%
D21*
%TO.P,U2,1,GND*%
%TO.N,GND*%
X10977800Y-11329800D03*
%TO.P,U2,2,VO*%
%TO.N,VDD*%
X10977800Y-11099800D03*
D22*
X11607800Y-11099800D03*
D21*
%TO.P,U2,3,VI*%
%TO.N,+12V*%
X10977800Y-10869800D03*
%TD*%
D17*
%TO.P,R4,1*%
%TO.N,Net-(D2-A)*%
X12593200Y-11506200D03*
%TO.P,R4,2*%
%TO.N,VCC*%
X12903200Y-11506200D03*
%TD*%
D23*
%TO.P,K1,11*%
%TO.N,Net-(J2-Pin_1)*%
X8601750Y-12115550D03*
%TO.P,K1,12*%
%TO.N,Net-(J2-Pin_3)*%
X8951750Y-12865550D03*
%TO.P,K1,14*%
%TO.N,Net-(J2-Pin_2)*%
X8251750Y-12865550D03*
D24*
%TO.P,K1,A1*%
%TO.N,VDD*%
X10601750Y-12865550D03*
D23*
%TO.P,K1,A2*%
%TO.N,Net-(D3-K)*%
X10601750Y-12115550D03*
%TD*%
D17*
%TO.P,R5,1*%
%TO.N,Net-(D4-A)*%
X12593200Y-11125200D03*
%TO.P,R5,2*%
%TO.N,VCC*%
X12903200Y-11125200D03*
%TD*%
D25*
%TO.P,J1,1,Pin_1*%
%TO.N,VDD*%
X12471400Y-9499600D03*
D26*
%TO.P,J1,2,Pin_2*%
%TO.N,VCC*%
X12979400Y-9499600D03*
%TO.P,J1,3,Pin_3*%
%TO.N,Net-(D2-K)*%
X13487400Y-9499600D03*
%TO.P,J1,4,Pin_4*%
%TO.N,Net-(D4-K)*%
X13995400Y-9499600D03*
%TO.P,J1,5,Pin_5*%
%TO.N,GND*%
X14503400Y-9499600D03*
%TO.P,J1,6,Pin_6*%
X15011400Y-9499600D03*
%TD*%
D25*
%TO.P,J2,1,Pin_1*%
%TO.N,Net-(J2-Pin_1)*%
X8585200Y-9525000D03*
D26*
%TO.P,J2,2,Pin_2*%
%TO.N,Net-(J2-Pin_2)*%
X9093200Y-9525000D03*
%TO.P,J2,3,Pin_3*%
%TO.N,Net-(J2-Pin_3)*%
X9601200Y-9525000D03*
%TD*%
D19*
%TO.P,C2,1*%
%TO.N,VDD*%
X10672300Y-11099800D03*
%TO.P,C2,2*%
%TO.N,GND*%
X10464800Y-11099800D03*
%TD*%
D27*
%TO.P,J3,1,In*%
%TO.N,+12V*%
X11080250Y-10388600D03*
D28*
%TO.P,J3,2,Ext*%
%TO.N,GND*%
X11080250Y-9788600D03*
D29*
%TO.P,J3,3*%
X11550250Y-10088600D03*
%TD*%
D18*
%TO.P,Q2,1,C*%
%TO.N,Net-(D3-K)*%
X11911200Y-12764000D03*
%TO.P,Q2,2,B*%
%TO.N,Net-(Q2-B)*%
X11911200Y-12954000D03*
%TO.P,Q2,3,E*%
%TO.N,GND*%
X11683700Y-12859000D03*
%TD*%
D30*
%TO.N,VCC*%
X13030200Y-10947400D02*
X13030200Y-10718800D01*
X12903200Y-11074400D02*
X13030200Y-10947400D01*
X12979400Y-10668000D02*
X13030200Y-10718800D01*
X12903200Y-11125200D02*
X12903200Y-11074400D01*
X12903200Y-11125200D02*
X12903200Y-11887200D01*
%TO.N,/SCL*%
X13487400Y-12420600D02*
X13563600Y-12344400D01*
X13563600Y-12344400D02*
X13563600Y-11049000D01*
X13302300Y-12420600D02*
X13487400Y-12420600D01*
X13284200Y-10769600D02*
X13284200Y-10718800D01*
X13563600Y-11049000D02*
X13284200Y-10769600D01*
%TO.N,/SDA*%
X13639800Y-10820400D02*
X13639800Y-12573000D01*
X13538200Y-10718800D02*
X13639800Y-10820400D01*
X13538200Y-12674600D02*
X13385800Y-12674600D01*
X13639800Y-12573000D02*
X13538200Y-12674600D01*
%TO.N,Net-(D2-K)*%
X11963400Y-10001690D02*
X12211490Y-9753600D01*
X11861800Y-11346500D02*
X11861800Y-11023600D01*
X12211490Y-9753600D02*
X13233400Y-9753600D01*
X12122850Y-12064550D02*
X12122850Y-11607550D01*
X11861800Y-11023600D02*
X11963400Y-10922000D01*
X11963400Y-10922000D02*
X11963400Y-10001690D01*
X13233400Y-9753600D02*
X13487400Y-9499600D01*
X11912600Y-12274800D02*
X12122850Y-12064550D01*
X12122850Y-11607550D02*
X12021500Y-11506200D01*
X12021500Y-11506200D02*
X11861800Y-11346500D01*
%TO.N,Net-(Q1-B)*%
X12439400Y-12376400D02*
X12351000Y-12464800D01*
X12395200Y-12293600D02*
X12439400Y-12249400D01*
X12439400Y-12249400D02*
X12439400Y-12376400D01*
X12351000Y-12464800D02*
X11912600Y-12464800D01*
%TO.N,Net-(Q2-B)*%
X12440800Y-12623800D02*
X12440800Y-12832200D01*
X12440800Y-12832200D02*
X12319000Y-12954000D01*
X12319000Y-12954000D02*
X11911200Y-12954000D01*
%TO.N,Net-(U1-GPIO21{slash}D3)*%
X12884400Y-12249400D02*
X12749400Y-12249400D01*
X13004800Y-12369800D02*
X12884400Y-12249400D01*
X13302300Y-12928600D02*
X13106400Y-12928600D01*
X13004800Y-12827000D02*
X13004800Y-12369800D01*
X13106400Y-12928600D02*
X13004800Y-12827000D01*
%TO.N,Net-(U1-GPIO2{slash}A2{slash}D2)*%
X13258800Y-13182600D02*
X13233400Y-13208000D01*
X13302300Y-13182600D02*
X13258800Y-13182600D01*
X13302300Y-13182600D02*
X13302300Y-13175300D01*
X13233400Y-13208000D02*
X13208000Y-13182600D01*
X13208000Y-13182600D02*
X12827000Y-13182600D01*
X12750800Y-13106400D02*
X12750800Y-12623800D01*
X12827000Y-13182600D02*
X12750800Y-13106400D01*
D31*
%TO.N,Net-(J2-Pin_2)*%
X9093200Y-12192000D02*
X8419650Y-12865550D01*
X8419650Y-12865550D02*
X8251750Y-12865550D01*
X9093200Y-9601200D02*
X9093200Y-12192000D01*
%TO.N,Net-(J2-Pin_1)*%
X8585200Y-12099000D02*
X8601750Y-12115550D01*
X8585200Y-9601200D02*
X8585200Y-12099000D01*
%TO.N,Net-(J2-Pin_3)*%
X9601200Y-9601200D02*
X9601200Y-12216100D01*
X9601200Y-12216100D02*
X8951750Y-12865550D01*
D30*
%TO.N,+12V*%
X10795000Y-10845800D02*
X10672300Y-10845800D01*
X10977800Y-10869800D02*
X10948800Y-10869800D01*
X11080250Y-10388600D02*
X11080250Y-10767350D01*
X10948800Y-10869800D02*
X10924800Y-10845800D01*
X11080250Y-10767350D02*
X10977800Y-10869800D01*
X10924800Y-10845800D02*
X10795000Y-10845800D01*
%TO.N,Net-(D2-A)*%
X12319000Y-11506200D02*
X12593200Y-11506200D01*
%TO.N,Net-(D3-K)*%
X10830100Y-11887200D02*
X10601750Y-12115550D01*
X11911200Y-12774800D02*
X11912600Y-12776200D01*
X12021500Y-11887200D02*
X11811000Y-11887200D01*
X11811000Y-11887200D02*
X10830100Y-11887200D01*
X11911200Y-12764000D02*
X11811000Y-12663800D01*
X11811000Y-12663800D02*
X11811000Y-11887200D01*
%TO.N,/CS*%
X16027400Y-10617200D02*
X16078200Y-10617200D01*
X15951200Y-10693400D02*
X16027400Y-10617200D01*
X15214600Y-12115800D02*
X15214600Y-11150600D01*
X15392400Y-10972800D02*
X15900400Y-10972800D01*
X15951200Y-10922000D02*
X15951200Y-10693400D01*
X14993300Y-12166600D02*
X15163800Y-12166600D01*
X15163800Y-12166600D02*
X15214600Y-12115800D01*
X15900400Y-10972800D02*
X15951200Y-10922000D01*
X15214600Y-11150600D02*
X15392400Y-10972800D01*
%TO.N,/MOSI*%
X15443200Y-12827000D02*
X15341600Y-12928600D01*
X15341600Y-12928600D02*
X14993300Y-12928600D01*
X16078200Y-11125200D02*
X15544800Y-11125200D01*
X15544800Y-11125200D02*
X15443200Y-11226800D01*
X15443200Y-11226800D02*
X15443200Y-12827000D01*
%TO.N,/SCK*%
X15290800Y-12344400D02*
X15214600Y-12420600D01*
X16078200Y-10871200D02*
X15925800Y-11023600D01*
X15214600Y-12420600D02*
X14993300Y-12420600D01*
X15290800Y-11176000D02*
X15290800Y-12344400D01*
X15443200Y-11023600D02*
X15290800Y-11176000D01*
X15925800Y-11023600D02*
X15443200Y-11023600D01*
%TO.N,/MISO*%
X16193300Y-11264100D02*
X16193300Y-11077524D01*
X15290800Y-12674600D02*
X14993300Y-12674600D01*
X16030524Y-11010100D02*
X15966224Y-11074400D01*
X15494000Y-11074400D02*
X15367000Y-11201400D01*
X16078200Y-11379200D02*
X16193300Y-11264100D01*
X16125876Y-11010100D02*
X16030524Y-11010100D01*
X15966224Y-11074400D02*
X15494000Y-11074400D01*
X15367000Y-12598400D02*
X15290800Y-12674600D01*
X16193300Y-11077524D02*
X16125876Y-11010100D01*
X15367000Y-11201400D02*
X15367000Y-12598400D01*
%TO.N,VDD*%
X10672300Y-11099800D02*
X10471650Y-11300450D01*
X10471650Y-12735450D02*
X10475900Y-12739700D01*
X11912600Y-9982200D02*
X12395200Y-9499600D01*
X10471650Y-11300450D02*
X10471650Y-12735450D01*
X10475900Y-12739700D02*
X10601750Y-12865550D01*
X10977800Y-11099800D02*
X10672300Y-11099800D01*
X10977800Y-11099800D02*
X11607800Y-11099800D01*
X11912600Y-10795000D02*
X11912600Y-9982200D01*
X12395200Y-9499600D02*
X12471400Y-9499600D01*
X11607800Y-11099800D02*
X11912600Y-10795000D01*
%TO.N,Net-(D3-A)*%
X12319000Y-11887200D02*
X12593200Y-11887200D01*
%TO.N,Net-(D4-A)*%
X12319000Y-11125200D02*
X12593200Y-11125200D01*
%TO.N,Net-(D4-K)*%
X12021500Y-11125200D02*
X12021500Y-10025700D01*
X13919200Y-9804400D02*
X13995400Y-9728200D01*
X13995400Y-9728200D02*
X13995400Y-9499600D01*
X13385800Y-13436600D02*
X13302300Y-13436600D01*
X12242800Y-9804400D02*
X13919200Y-9804400D01*
X12021500Y-10025700D02*
X12242800Y-9804400D01*
%TD*%
%TA.AperFunction,Conductor*%
%TO.N,GND*%
G36*
X11793683Y-11009092D02*
G01*
X11799277Y-11013279D01*
X11801718Y-11019825D01*
X11801750Y-11020710D01*
X11801750Y-11032505D01*
X11801750Y-11032506D01*
X11801750Y-11337833D01*
X11801750Y-11337835D01*
X11801750Y-11354405D01*
X11801750Y-11354405D01*
X11803872Y-11362327D01*
X11805842Y-11369678D01*
X11805855Y-11369700D01*
X11805861Y-11369711D01*
X11813747Y-11383371D01*
X11813748Y-11383372D01*
X11825635Y-11395258D01*
X11825635Y-11395259D01*
X11896568Y-11466192D01*
X11899917Y-11472324D01*
X11900200Y-11474960D01*
X11900200Y-11573701D01*
X11901250Y-11583979D01*
X11901250Y-11583980D01*
X11906769Y-11600633D01*
X11906769Y-11600634D01*
X11915979Y-11615565D01*
X11915979Y-11615565D01*
X11928384Y-11627971D01*
X11928385Y-11627971D01*
X11943316Y-11637181D01*
X11943316Y-11637181D01*
X11943317Y-11637181D01*
X11959970Y-11642700D01*
X11970249Y-11643750D01*
X12050400Y-11643750D01*
X12057104Y-11645718D01*
X12061679Y-11650999D01*
X12062800Y-11656150D01*
X12062800Y-11737250D01*
X12060831Y-11743954D01*
X12055551Y-11748529D01*
X12050400Y-11749650D01*
X11970248Y-11749650D01*
X11959970Y-11750700D01*
X11959970Y-11750700D01*
X11943316Y-11756219D01*
X11943316Y-11756219D01*
X11928385Y-11765429D01*
X11928384Y-11765429D01*
X11915979Y-11777834D01*
X11915979Y-11777835D01*
X11906769Y-11792766D01*
X11906769Y-11792766D01*
X11901250Y-11809420D01*
X11901250Y-11809420D01*
X11900577Y-11816010D01*
X11897937Y-11822479D01*
X11892219Y-11826494D01*
X11888241Y-11827150D01*
X10838767Y-11827150D01*
X10838765Y-11827150D01*
X10838006Y-11827150D01*
X10822194Y-11827150D01*
X10814558Y-11829196D01*
X10806921Y-11831242D01*
X10806921Y-11831243D01*
X10793229Y-11839147D01*
X10793228Y-11839148D01*
X10662106Y-11970270D01*
X10655974Y-11973618D01*
X10649506Y-11973295D01*
X10636887Y-11969195D01*
X10613560Y-11965500D01*
X10613559Y-11965500D01*
X10589941Y-11965500D01*
X10589940Y-11965500D01*
X10566613Y-11969195D01*
X10566613Y-11969195D01*
X10547932Y-11975265D01*
X10540948Y-11975464D01*
X10534964Y-11971856D01*
X10531882Y-11965586D01*
X10531700Y-11963471D01*
X10531700Y-11374910D01*
X10827800Y-11374910D01*
X10828090Y-11379182D01*
X10832683Y-11397652D01*
X10841139Y-11414702D01*
X10841139Y-11414702D01*
X10853063Y-11429537D01*
X10853063Y-11429537D01*
X10867897Y-11441461D01*
X10867898Y-11441461D01*
X10884948Y-11449917D01*
X10903418Y-11454510D01*
X10907690Y-11454800D01*
X10952800Y-11454800D01*
X11002800Y-11454800D01*
X11047910Y-11454800D01*
X11052182Y-11454510D01*
X11070652Y-11449917D01*
X11087702Y-11441461D01*
X11087703Y-11441461D01*
X11102537Y-11429537D01*
X11102537Y-11429537D01*
X11114461Y-11414702D01*
X11114461Y-11414702D01*
X11122917Y-11397652D01*
X11127510Y-11379182D01*
X11127800Y-11374910D01*
X11127800Y-11354800D01*
X11002800Y-11354800D01*
X11002800Y-11454800D01*
X10952800Y-11454800D01*
X10952800Y-11354800D01*
X10827800Y-11354800D01*
X10827800Y-11374910D01*
X10531700Y-11374910D01*
X10531700Y-11330460D01*
X10533669Y-11323756D01*
X10535331Y-11321692D01*
X10631042Y-11225982D01*
X10637174Y-11222633D01*
X10639810Y-11222350D01*
X10711050Y-11222350D01*
X10711051Y-11222350D01*
X10721330Y-11221300D01*
X10737983Y-11215781D01*
X10752916Y-11206571D01*
X10765321Y-11194166D01*
X10774531Y-11179233D01*
X10778138Y-11168349D01*
X10782115Y-11162605D01*
X10788567Y-11159923D01*
X10789909Y-11159850D01*
X10821108Y-11159850D01*
X10827812Y-11161819D01*
X10832388Y-11167099D01*
X10832557Y-11167511D01*
X10841097Y-11184729D01*
X10841097Y-11184730D01*
X10853028Y-11199572D01*
X10853028Y-11199572D01*
X10859988Y-11205167D01*
X10863980Y-11210902D01*
X10864238Y-11217884D01*
X10860680Y-11223897D01*
X10859989Y-11224497D01*
X10853063Y-11230063D01*
X10841139Y-11244897D01*
X10841139Y-11244898D01*
X10832683Y-11261948D01*
X10828090Y-11280417D01*
X10827800Y-11284690D01*
X10827800Y-11304800D01*
X11127800Y-11304800D01*
X11127800Y-11284690D01*
X11127510Y-11280417D01*
X11122917Y-11261948D01*
X11114461Y-11244898D01*
X11114461Y-11244897D01*
X11102537Y-11230063D01*
X11102537Y-11230063D01*
X11095612Y-11224497D01*
X11091620Y-11218762D01*
X11091362Y-11211780D01*
X11094919Y-11205767D01*
X11095609Y-11205169D01*
X11102572Y-11199572D01*
X11114503Y-11184730D01*
X11122964Y-11167669D01*
X11123263Y-11167067D01*
X11123454Y-11167162D01*
X11127013Y-11162359D01*
X11133548Y-11159886D01*
X11134492Y-11159850D01*
X11445350Y-11159850D01*
X11452054Y-11161819D01*
X11456629Y-11167099D01*
X11457750Y-11172250D01*
X11457750Y-11245603D01*
X11458811Y-11257541D01*
X11464409Y-11277104D01*
X11464409Y-11277105D01*
X11464409Y-11277105D01*
X11473830Y-11295141D01*
X11473830Y-11295141D01*
X11486689Y-11310911D01*
X11493532Y-11316490D01*
X11502459Y-11323770D01*
X11520495Y-11333191D01*
X11540058Y-11338789D01*
X11551996Y-11339850D01*
X11663604Y-11339850D01*
X11675542Y-11338789D01*
X11695105Y-11333191D01*
X11713141Y-11323770D01*
X11728911Y-11310911D01*
X11741770Y-11295141D01*
X11751191Y-11277105D01*
X11756789Y-11257542D01*
X11757850Y-11245604D01*
X11757850Y-11039810D01*
X11759818Y-11033106D01*
X11761482Y-11031042D01*
X11780582Y-11011942D01*
X11786714Y-11008593D01*
X11793683Y-11009092D01*
G37*
%TD.AperFunction*%
%TA.AperFunction,Conductor*%
G36*
X22944254Y-9052019D02*
G01*
X22948829Y-9057299D01*
X22949950Y-9062450D01*
X22949950Y-9360743D01*
X22947981Y-9367447D01*
X22942701Y-9372022D01*
X22935785Y-9373017D01*
X22929430Y-9370114D01*
X22925652Y-9364237D01*
X22925388Y-9363162D01*
X22925201Y-9362219D01*
X22925200Y-9362218D01*
X22925200Y-9362218D01*
X22925200Y-9362218D01*
X22915049Y-9328754D01*
X22901667Y-9296447D01*
X22885183Y-9265607D01*
X22865755Y-9236531D01*
X22843571Y-9209500D01*
X22843571Y-9209500D01*
X22843570Y-9209499D01*
X22818844Y-9184773D01*
X22791813Y-9162589D01*
X22791813Y-9162589D01*
X22791812Y-9162589D01*
X22762737Y-9143161D01*
X22762736Y-9143160D01*
X22762735Y-9143160D01*
X22731897Y-9126677D01*
X22731897Y-9126676D01*
X22699589Y-9113294D01*
X22666125Y-9103143D01*
X22666124Y-9103143D01*
X22631829Y-9096321D01*
X22631828Y-9096321D01*
X22605511Y-9093729D01*
X22597028Y-9092894D01*
X22562059Y-9092894D01*
X22554213Y-9093666D01*
X22527259Y-9096321D01*
X22527257Y-9096321D01*
X22492963Y-9103143D01*
X22492962Y-9103143D01*
X22459497Y-9113294D01*
X22427190Y-9126676D01*
X22427190Y-9126677D01*
X22396351Y-9143160D01*
X22396350Y-9143161D01*
X22367275Y-9162588D01*
X22367274Y-9162589D01*
X22340243Y-9184773D01*
X22315517Y-9209499D01*
X22293332Y-9236531D01*
X22293331Y-9236532D01*
X22273905Y-9265606D01*
X22273904Y-9265608D01*
X22257420Y-9296446D01*
X22257420Y-9296447D01*
X22244038Y-9328754D01*
X22233886Y-9362218D01*
X22233886Y-9362220D01*
X22227065Y-9396514D01*
X22227064Y-9396516D01*
X22224772Y-9419795D01*
X22223637Y-9431315D01*
X22223637Y-9434457D01*
X22223637Y-9466285D01*
X22224667Y-9476746D01*
X22227064Y-9501084D01*
X22227065Y-9501086D01*
X22233886Y-9535380D01*
X22233886Y-9535382D01*
X22244038Y-9568846D01*
X22248402Y-9579383D01*
X22255628Y-9596828D01*
X22257420Y-9601153D01*
X22257420Y-9601154D01*
X22273904Y-9631992D01*
X22273905Y-9631994D01*
X22293331Y-9661068D01*
X22293332Y-9661069D01*
X22315517Y-9688101D01*
X22340243Y-9712827D01*
X22340243Y-9712827D01*
X22340243Y-9712827D01*
X22367275Y-9735012D01*
X22396350Y-9754439D01*
X22396351Y-9754440D01*
X22396351Y-9754440D01*
X22427190Y-9770923D01*
X22427190Y-9770923D01*
X22427190Y-9770924D01*
X22459498Y-9784306D01*
X22492961Y-9794457D01*
X22492962Y-9794457D01*
X22492962Y-9794457D01*
X22492963Y-9794457D01*
X22514469Y-9798735D01*
X22527258Y-9801279D01*
X22562059Y-9804707D01*
X22562059Y-9804707D01*
X22597028Y-9804707D01*
X22597028Y-9804707D01*
X22631829Y-9801279D01*
X22648805Y-9797902D01*
X22666124Y-9794457D01*
X22666125Y-9794457D01*
X22666125Y-9794457D01*
X22666126Y-9794457D01*
X22699589Y-9784306D01*
X22731897Y-9770924D01*
X22762737Y-9754439D01*
X22791812Y-9735012D01*
X22818844Y-9712827D01*
X22843571Y-9688100D01*
X22865755Y-9661069D01*
X22885183Y-9631993D01*
X22901667Y-9601153D01*
X22915049Y-9568846D01*
X22925200Y-9535383D01*
X22925388Y-9534438D01*
X22928627Y-9528247D01*
X22934698Y-9524789D01*
X22941675Y-9525163D01*
X22947342Y-9529250D01*
X22949901Y-9535752D01*
X22949950Y-9536857D01*
X22949950Y-13475543D01*
X22947981Y-13482247D01*
X22942701Y-13486822D01*
X22935785Y-13487817D01*
X22929430Y-13484914D01*
X22925652Y-13479036D01*
X22925388Y-13477962D01*
X22925201Y-13477019D01*
X22925200Y-13477018D01*
X22925200Y-13477018D01*
X22925200Y-13477017D01*
X22915049Y-13443554D01*
X22901667Y-13411247D01*
X22901083Y-13410154D01*
X22885183Y-13380408D01*
X22885183Y-13380408D01*
X22885183Y-13380407D01*
X22865755Y-13351331D01*
X22843571Y-13324300D01*
X22843571Y-13324299D01*
X22843570Y-13324299D01*
X22818844Y-13299573D01*
X22791813Y-13277389D01*
X22791813Y-13277389D01*
X22791812Y-13277388D01*
X22762737Y-13257961D01*
X22762736Y-13257960D01*
X22762735Y-13257960D01*
X22731897Y-13241477D01*
X22731897Y-13241476D01*
X22699589Y-13228094D01*
X22666125Y-13217943D01*
X22666124Y-13217943D01*
X22631829Y-13211121D01*
X22631828Y-13211121D01*
X22605511Y-13208529D01*
X22597028Y-13207693D01*
X22562059Y-13207693D01*
X22554213Y-13208466D01*
X22527259Y-13211121D01*
X22527257Y-13211121D01*
X22492963Y-13217943D01*
X22492962Y-13217943D01*
X22459497Y-13228094D01*
X22427190Y-13241476D01*
X22427190Y-13241477D01*
X22396351Y-13257960D01*
X22396350Y-13257961D01*
X22367275Y-13277388D01*
X22367274Y-13277389D01*
X22340243Y-13299573D01*
X22315517Y-13324299D01*
X22293332Y-13351330D01*
X22293331Y-13351332D01*
X22273905Y-13380406D01*
X22273904Y-13380408D01*
X22257420Y-13411246D01*
X22257420Y-13411247D01*
X22244038Y-13443554D01*
X22233886Y-13477018D01*
X22233886Y-13477019D01*
X22227065Y-13511314D01*
X22227064Y-13511316D01*
X22223637Y-13546116D01*
X22223637Y-13581084D01*
X22227064Y-13615884D01*
X22227065Y-13615886D01*
X22233886Y-13650180D01*
X22233886Y-13650181D01*
X22244038Y-13683646D01*
X22253500Y-13706491D01*
X22255628Y-13711628D01*
X22257420Y-13715953D01*
X22257420Y-13715954D01*
X22273904Y-13746792D01*
X22273905Y-13746794D01*
X22293331Y-13775868D01*
X22293332Y-13775869D01*
X22315517Y-13802901D01*
X22340243Y-13827627D01*
X22340243Y-13827627D01*
X22340243Y-13827627D01*
X22367275Y-13849811D01*
X22396350Y-13869239D01*
X22396351Y-13869240D01*
X22396351Y-13869240D01*
X22427190Y-13885723D01*
X22427190Y-13885723D01*
X22427190Y-13885724D01*
X22459498Y-13899106D01*
X22492961Y-13909257D01*
X22492962Y-13909257D01*
X22492962Y-13909257D01*
X22492963Y-13909257D01*
X22514469Y-13913535D01*
X22527258Y-13916079D01*
X22562059Y-13919506D01*
X22562059Y-13919506D01*
X22597028Y-13919506D01*
X22597028Y-13919506D01*
X22631829Y-13916079D01*
X22648805Y-13912702D01*
X22666124Y-13909257D01*
X22666125Y-13909257D01*
X22666125Y-13909257D01*
X22666126Y-13909257D01*
X22699589Y-13899106D01*
X22731897Y-13885724D01*
X22762737Y-13869239D01*
X22791812Y-13849811D01*
X22818844Y-13827627D01*
X22843571Y-13802900D01*
X22865755Y-13775869D01*
X22885183Y-13746793D01*
X22901667Y-13715953D01*
X22915049Y-13683646D01*
X22925200Y-13650182D01*
X22925388Y-13649238D01*
X22928627Y-13643047D01*
X22934698Y-13639589D01*
X22941675Y-13639963D01*
X22947342Y-13644050D01*
X22949901Y-13650552D01*
X22949950Y-13651657D01*
X22949950Y-13937550D01*
X22947981Y-13944254D01*
X22942701Y-13948829D01*
X22937550Y-13949950D01*
X10274000Y-13949950D01*
X10267296Y-13947981D01*
X10262721Y-13942701D01*
X10261600Y-13937550D01*
X10261600Y-11124800D01*
X10356050Y-11124800D01*
X10356050Y-11152299D01*
X10357099Y-11162570D01*
X10362614Y-11179212D01*
X10362614Y-11179212D01*
X10371818Y-11194134D01*
X10384215Y-11206531D01*
X10399138Y-11215736D01*
X10399138Y-11215736D01*
X10415780Y-11221250D01*
X10415781Y-11221251D01*
X10426052Y-11222300D01*
X10434940Y-11222300D01*
X10437065Y-11222924D01*
X10439273Y-11223082D01*
X10440352Y-11223889D01*
X10441644Y-11224268D01*
X10443094Y-11225942D01*
X10444867Y-11227269D01*
X10445337Y-11228531D01*
X10446220Y-11229549D01*
X10446535Y-11231740D01*
X10447309Y-11233815D01*
X10447022Y-11235131D01*
X10447214Y-11236464D01*
X10446294Y-11238479D01*
X10445823Y-11240642D01*
X10444496Y-11242415D01*
X10444312Y-11242820D01*
X10443708Y-11243468D01*
X10434779Y-11252398D01*
X10434779Y-11252398D01*
X10423598Y-11263578D01*
X10423598Y-11263578D01*
X10423598Y-11263578D01*
X10418733Y-11272006D01*
X10418732Y-11272006D01*
X10415692Y-11277271D01*
X10415692Y-11277271D01*
X10414849Y-11280417D01*
X10411600Y-11292544D01*
X10411600Y-11292544D01*
X10411600Y-11309355D01*
X10411600Y-11309356D01*
X10411600Y-12726783D01*
X10411600Y-12726785D01*
X10411600Y-12743355D01*
X10411600Y-12743355D01*
X10412270Y-12745855D01*
X10415692Y-12758628D01*
X10416084Y-12759307D01*
X10416657Y-12760300D01*
X10416657Y-12760300D01*
X10423598Y-12772321D01*
X10423598Y-12772322D01*
X10435485Y-12784208D01*
X10435486Y-12784209D01*
X10448068Y-12796792D01*
X10451417Y-12802924D01*
X10451700Y-12805560D01*
X10451700Y-12970337D01*
X10451700Y-12970338D01*
X10452341Y-12976298D01*
X10457370Y-12989783D01*
X10457371Y-12989783D01*
X10465995Y-13001304D01*
X10465996Y-13001305D01*
X10477516Y-13009929D01*
X10477517Y-13009930D01*
X10491002Y-13014959D01*
X10491002Y-13014959D01*
X10491694Y-13015033D01*
X10496963Y-13015600D01*
X10706537Y-13015600D01*
X10712498Y-13014959D01*
X10725983Y-13009930D01*
X10737505Y-13001305D01*
X10746130Y-12989783D01*
X10751159Y-12976298D01*
X10751800Y-12970337D01*
X10751800Y-12884000D01*
X11567720Y-12884000D01*
X11567740Y-12884249D01*
X11572322Y-12900020D01*
X11580681Y-12914155D01*
X11580682Y-12914156D01*
X11592294Y-12925768D01*
X11592295Y-12925768D01*
X11606430Y-12934128D01*
X11606431Y-12934128D01*
X11622200Y-12938710D01*
X11622201Y-12938710D01*
X11625885Y-12939000D01*
X11625887Y-12939000D01*
X11658700Y-12939000D01*
X11658700Y-12884000D01*
X11567720Y-12884000D01*
X11567720Y-12884000D01*
X10751800Y-12884000D01*
X10751800Y-12834000D01*
X11567720Y-12834000D01*
X11567720Y-12834000D01*
X11658700Y-12834000D01*
X11658700Y-12779000D01*
X11625885Y-12779000D01*
X11622201Y-12779290D01*
X11622200Y-12779290D01*
X11606431Y-12783872D01*
X11606430Y-12783872D01*
X11592295Y-12792231D01*
X11592294Y-12792232D01*
X11580682Y-12803844D01*
X11580681Y-12803845D01*
X11572322Y-12817980D01*
X11567740Y-12833751D01*
X11567720Y-12834000D01*
X10751800Y-12834000D01*
X10751800Y-12760763D01*
X10751159Y-12754802D01*
X10751152Y-12754781D01*
X10746130Y-12741317D01*
X10746129Y-12741316D01*
X10737505Y-12729795D01*
X10737504Y-12729795D01*
X10725984Y-12721171D01*
X10725983Y-12721170D01*
X10712498Y-12716141D01*
X10712498Y-12716141D01*
X10706538Y-12715500D01*
X10706538Y-12715500D01*
X10706537Y-12715500D01*
X10706537Y-12715500D01*
X10544100Y-12715500D01*
X10537396Y-12713531D01*
X10532821Y-12708251D01*
X10531700Y-12703100D01*
X10531700Y-12394800D01*
X11569120Y-12394800D01*
X11569140Y-12395049D01*
X11573722Y-12410820D01*
X11582081Y-12424955D01*
X11582082Y-12424956D01*
X11593694Y-12436568D01*
X11593695Y-12436568D01*
X11607830Y-12444928D01*
X11607831Y-12444928D01*
X11623600Y-12449510D01*
X11623601Y-12449510D01*
X11627285Y-12449800D01*
X11627287Y-12449800D01*
X11660100Y-12449800D01*
X11660100Y-12394800D01*
X11569120Y-12394800D01*
X11569120Y-12394800D01*
X10531700Y-12394800D01*
X10531700Y-12344800D01*
X11569120Y-12344800D01*
X11569120Y-12344800D01*
X11660100Y-12344800D01*
X11660100Y-12289800D01*
X11627285Y-12289800D01*
X11623601Y-12290090D01*
X11623600Y-12290090D01*
X11607831Y-12294672D01*
X11607830Y-12294672D01*
X11593695Y-12303031D01*
X11593694Y-12303032D01*
X11582082Y-12314644D01*
X11582081Y-12314645D01*
X11573722Y-12328780D01*
X11569140Y-12344551D01*
X11569120Y-12344800D01*
X10531700Y-12344800D01*
X10531700Y-12267628D01*
X10533669Y-12260924D01*
X10538949Y-12256349D01*
X10545865Y-12255355D01*
X10547931Y-12255835D01*
X10559896Y-12259723D01*
X10566613Y-12261905D01*
X10589940Y-12265600D01*
X10589941Y-12265600D01*
X10613560Y-12265600D01*
X10636887Y-12261905D01*
X10639905Y-12260924D01*
X10659349Y-12254607D01*
X10680393Y-12243884D01*
X10699501Y-12230002D01*
X10716202Y-12213301D01*
X10730084Y-12194193D01*
X10740807Y-12173149D01*
X10748105Y-12150687D01*
X10750267Y-12137036D01*
X10751800Y-12127360D01*
X10751800Y-12103740D01*
X10748105Y-12080413D01*
X10748105Y-12080413D01*
X10744005Y-12067793D01*
X10743805Y-12060809D01*
X10747030Y-12055194D01*
X10851342Y-11950882D01*
X10857474Y-11947533D01*
X10860110Y-11947250D01*
X11738550Y-11947250D01*
X11745254Y-11949218D01*
X11749829Y-11954499D01*
X11750950Y-11959650D01*
X11750950Y-12277400D01*
X11748981Y-12284104D01*
X11743701Y-12288679D01*
X11738550Y-12289800D01*
X11710100Y-12289800D01*
X11710100Y-12449800D01*
X11738550Y-12449800D01*
X11745254Y-12451768D01*
X11749829Y-12457049D01*
X11750950Y-12462200D01*
X11750950Y-12655133D01*
X11750950Y-12655135D01*
X11750950Y-12671705D01*
X11750950Y-12671705D01*
X11755042Y-12686979D01*
X11755042Y-12686979D01*
X11757538Y-12691301D01*
X11757538Y-12691301D01*
X11762947Y-12700671D01*
X11762948Y-12700672D01*
X11774835Y-12712558D01*
X11774835Y-12712559D01*
X11791573Y-12729297D01*
X11794922Y-12735429D01*
X11795167Y-12739038D01*
X11794900Y-12742430D01*
X11794900Y-12782274D01*
X11792931Y-12788978D01*
X11787651Y-12793554D01*
X11780735Y-12794548D01*
X11775864Y-12792481D01*
X11775777Y-12792629D01*
X11760970Y-12783872D01*
X11760969Y-12783872D01*
X11745199Y-12779290D01*
X11745199Y-12779290D01*
X11741515Y-12779000D01*
X11708700Y-12779000D01*
X11708700Y-12834000D01*
X11799679Y-12834000D01*
X11802106Y-12831375D01*
X11808102Y-12827788D01*
X11815085Y-12828013D01*
X11819051Y-12830453D01*
X11819147Y-12830330D01*
X11819763Y-12830808D01*
X11819763Y-12830808D01*
X11833910Y-12839174D01*
X11837115Y-12840105D01*
X11849693Y-12843760D01*
X11849693Y-12843760D01*
X11849693Y-12843760D01*
X11853381Y-12844050D01*
X11853381Y-12844050D01*
X11969019Y-12844050D01*
X11969019Y-12844050D01*
X11972707Y-12843760D01*
X11972707Y-12843760D01*
X11972707Y-12843760D01*
X11980470Y-12841504D01*
X11988490Y-12839174D01*
X12002636Y-12830808D01*
X12014258Y-12819186D01*
X12022624Y-12805040D01*
X12026400Y-12792042D01*
X12027210Y-12789257D01*
X12027210Y-12789257D01*
X12027500Y-12785570D01*
X12027500Y-12785569D01*
X12027500Y-12742431D01*
X12027210Y-12738743D01*
X12026021Y-12734650D01*
X12022624Y-12722961D01*
X12022624Y-12722960D01*
X12022624Y-12722960D01*
X12014258Y-12708813D01*
X12014258Y-12708813D01*
X12014258Y-12708813D01*
X12002637Y-12697192D01*
X12002636Y-12697192D01*
X11992675Y-12691301D01*
X11988490Y-12688826D01*
X11988490Y-12688825D01*
X11988490Y-12688825D01*
X11988489Y-12688825D01*
X11972707Y-12684240D01*
X11972707Y-12684240D01*
X11969020Y-12683950D01*
X11969019Y-12683950D01*
X11921210Y-12683950D01*
X11914506Y-12681981D01*
X11912442Y-12680318D01*
X11874682Y-12642558D01*
X11871333Y-12636426D01*
X11871050Y-12633790D01*
X11871050Y-12557250D01*
X11873018Y-12550546D01*
X11878299Y-12545971D01*
X11883450Y-12544850D01*
X11970419Y-12544850D01*
X11970419Y-12544850D01*
X11974107Y-12544560D01*
X11974107Y-12544560D01*
X11974107Y-12544560D01*
X11978269Y-12543350D01*
X11989890Y-12539974D01*
X12004036Y-12531608D01*
X12007163Y-12528482D01*
X12013295Y-12525133D01*
X12015931Y-12524850D01*
X12316643Y-12524850D01*
X12323347Y-12526818D01*
X12327923Y-12532099D01*
X12328917Y-12539015D01*
X12328414Y-12541149D01*
X12327188Y-12544850D01*
X12326800Y-12546021D01*
X12325750Y-12556298D01*
X12325750Y-12691300D01*
X12325750Y-12691301D01*
X12326800Y-12701580D01*
X12326800Y-12701580D01*
X12330204Y-12711852D01*
X12332319Y-12718233D01*
X12341529Y-12733166D01*
X12353934Y-12745571D01*
X12368867Y-12754781D01*
X12372250Y-12755902D01*
X12377995Y-12759880D01*
X12380677Y-12766331D01*
X12380750Y-12767673D01*
X12380750Y-12802190D01*
X12378781Y-12808894D01*
X12377118Y-12810958D01*
X12297758Y-12890318D01*
X12291626Y-12893667D01*
X12288990Y-12893950D01*
X12014531Y-12893950D01*
X12007827Y-12891981D01*
X12005763Y-12890318D01*
X12002637Y-12887192D01*
X12002636Y-12887192D01*
X11990902Y-12880252D01*
X11988490Y-12878826D01*
X11988490Y-12878825D01*
X11988490Y-12878825D01*
X11988489Y-12878825D01*
X11972707Y-12874240D01*
X11972707Y-12874240D01*
X11969020Y-12873950D01*
X11969019Y-12873950D01*
X11853381Y-12873950D01*
X11853380Y-12873950D01*
X11849693Y-12874240D01*
X11849693Y-12874240D01*
X11833911Y-12878825D01*
X11833910Y-12878825D01*
X11819764Y-12887192D01*
X11819147Y-12887670D01*
X11819016Y-12887502D01*
X11813845Y-12890325D01*
X11806876Y-12889825D01*
X11802106Y-12886625D01*
X11799680Y-12884000D01*
X11708700Y-12884000D01*
X11708700Y-12939000D01*
X11741513Y-12939000D01*
X11741515Y-12939000D01*
X11745199Y-12938710D01*
X11745199Y-12938710D01*
X11760969Y-12934128D01*
X11760970Y-12934128D01*
X11775777Y-12925371D01*
X11775879Y-12925543D01*
X11781403Y-12923374D01*
X11788254Y-12924742D01*
X11793279Y-12929597D01*
X11794900Y-12935726D01*
X11794900Y-12975570D01*
X11795190Y-12979257D01*
X11795190Y-12979257D01*
X11799775Y-12995039D01*
X11799775Y-12995040D01*
X11808142Y-13009186D01*
X11808142Y-13009187D01*
X11819763Y-13020808D01*
X11819763Y-13020808D01*
X11819763Y-13020808D01*
X11833910Y-13029174D01*
X11836388Y-13029894D01*
X11849693Y-13033760D01*
X11849693Y-13033760D01*
X11849693Y-13033760D01*
X11853381Y-13034050D01*
X11853381Y-13034050D01*
X11969019Y-13034050D01*
X11969019Y-13034050D01*
X11972707Y-13033760D01*
X11972707Y-13033760D01*
X11972707Y-13033760D01*
X11981347Y-13031249D01*
X11988490Y-13029174D01*
X12002636Y-13020808D01*
X12005763Y-13017682D01*
X12011895Y-13014333D01*
X12014531Y-13014050D01*
X12310333Y-13014050D01*
X12310335Y-13014050D01*
X12311094Y-13014050D01*
X12326905Y-13014050D01*
X12326906Y-13014050D01*
X12342178Y-13009958D01*
X12347190Y-13007064D01*
X12355872Y-13002052D01*
X12367052Y-12990872D01*
X12367052Y-12990871D01*
X12368073Y-12989851D01*
X12368073Y-12989850D01*
X12476651Y-12881273D01*
X12476651Y-12881272D01*
X12477671Y-12880252D01*
X12477672Y-12880252D01*
X12488852Y-12869072D01*
X12495622Y-12857345D01*
X12496758Y-12855378D01*
X12500850Y-12840106D01*
X12500850Y-12824294D01*
X12500850Y-12767673D01*
X12502818Y-12760969D01*
X12508099Y-12756394D01*
X12509349Y-12755903D01*
X12512733Y-12754781D01*
X12527666Y-12745571D01*
X12540071Y-12733166D01*
X12549281Y-12718233D01*
X12554800Y-12701580D01*
X12555850Y-12691301D01*
X12555850Y-12556299D01*
X12554800Y-12546020D01*
X12549281Y-12529367D01*
X12540071Y-12514434D01*
X12527666Y-12502029D01*
X12512733Y-12492819D01*
X12496080Y-12487300D01*
X12496079Y-12487300D01*
X12485802Y-12486250D01*
X12485801Y-12486250D01*
X12444410Y-12486250D01*
X12437706Y-12484281D01*
X12433130Y-12479001D01*
X12432136Y-12472085D01*
X12435038Y-12465730D01*
X12435642Y-12465082D01*
X12466382Y-12434341D01*
X12487452Y-12413272D01*
X12495358Y-12399578D01*
X12497716Y-12390778D01*
X12501352Y-12384812D01*
X12505793Y-12382217D01*
X12511333Y-12380381D01*
X12526266Y-12371171D01*
X12538671Y-12358766D01*
X12547881Y-12343833D01*
X12553400Y-12327180D01*
X12554450Y-12316901D01*
X12554450Y-12181899D01*
X12554450Y-12181898D01*
X12634350Y-12181898D01*
X12634350Y-12316900D01*
X12634350Y-12316902D01*
X12635400Y-12327180D01*
X12635400Y-12327180D01*
X12639606Y-12339874D01*
X12640919Y-12343833D01*
X12650129Y-12358766D01*
X12662534Y-12371171D01*
X12677467Y-12380381D01*
X12694120Y-12385900D01*
X12704399Y-12386950D01*
X12794401Y-12386950D01*
X12794402Y-12386950D01*
X12794402Y-12386950D01*
X12800030Y-12386375D01*
X12804680Y-12385900D01*
X12821333Y-12380381D01*
X12836266Y-12371171D01*
X12848671Y-12358766D01*
X12857881Y-12343833D01*
X12860525Y-12335855D01*
X12864502Y-12330110D01*
X12870954Y-12327428D01*
X12877831Y-12328660D01*
X12881064Y-12330987D01*
X12941118Y-12391042D01*
X12944467Y-12397174D01*
X12944750Y-12399810D01*
X12944750Y-12818333D01*
X12944750Y-12818335D01*
X12944750Y-12834905D01*
X12944750Y-12834905D01*
X12946518Y-12841504D01*
X12948842Y-12850178D01*
X12950743Y-12853470D01*
X12951736Y-12855190D01*
X12951736Y-12855190D01*
X12951736Y-12855190D01*
X12955264Y-12861301D01*
X12956748Y-12863871D01*
X12956748Y-12863872D01*
X12968635Y-12875758D01*
X12968635Y-12875759D01*
X13058348Y-12965471D01*
X13058348Y-12965472D01*
X13069528Y-12976652D01*
X13074040Y-12979257D01*
X13075064Y-12979848D01*
X13083221Y-12984557D01*
X13083221Y-12984557D01*
X13083221Y-12984557D01*
X13083221Y-12984558D01*
X13098494Y-12988650D01*
X13098495Y-12988650D01*
X13115065Y-12988650D01*
X13115067Y-12988650D01*
X13118597Y-12988650D01*
X13125301Y-12990618D01*
X13129876Y-12995899D01*
X13130743Y-12999246D01*
X13130827Y-12999231D01*
X13130941Y-12999855D01*
X13135543Y-13015695D01*
X13135543Y-13015696D01*
X13143940Y-13029894D01*
X13143941Y-13029895D01*
X13155605Y-13041559D01*
X13155605Y-13041559D01*
X13155605Y-13041559D01*
X13161300Y-13044927D01*
X13166068Y-13050034D01*
X13167318Y-13056908D01*
X13164654Y-13063367D01*
X13161300Y-13066273D01*
X13155605Y-13069641D01*
X13155605Y-13069641D01*
X13143941Y-13081305D01*
X13143940Y-13081306D01*
X13135543Y-13095504D01*
X13135543Y-13095504D01*
X13130941Y-13111345D01*
X13130827Y-13111969D01*
X13130649Y-13111936D01*
X13128471Y-13117651D01*
X13122848Y-13121799D01*
X13118597Y-13122550D01*
X12857010Y-13122550D01*
X12850306Y-13120581D01*
X12848242Y-13118918D01*
X12814482Y-13085158D01*
X12811133Y-13079026D01*
X12810850Y-13076390D01*
X12810850Y-12767673D01*
X12812818Y-12760969D01*
X12818099Y-12756394D01*
X12819349Y-12755903D01*
X12822733Y-12754781D01*
X12837666Y-12745571D01*
X12850071Y-12733166D01*
X12859281Y-12718233D01*
X12864800Y-12701580D01*
X12865850Y-12691301D01*
X12865850Y-12556299D01*
X12864800Y-12546020D01*
X12859281Y-12529367D01*
X12850071Y-12514434D01*
X12837666Y-12502029D01*
X12822733Y-12492819D01*
X12806080Y-12487300D01*
X12806079Y-12487300D01*
X12795801Y-12486250D01*
X12705800Y-12486250D01*
X12705798Y-12486250D01*
X12695520Y-12487300D01*
X12695520Y-12487300D01*
X12678867Y-12492818D01*
X12678866Y-12492819D01*
X12663934Y-12502029D01*
X12651529Y-12514434D01*
X12642319Y-12529366D01*
X12642318Y-12529367D01*
X12641576Y-12531608D01*
X12636800Y-12546020D01*
X12636800Y-12546020D01*
X12636800Y-12546020D01*
X12635750Y-12556298D01*
X12635750Y-12691300D01*
X12635750Y-12691301D01*
X12636800Y-12701580D01*
X12636800Y-12701580D01*
X12640204Y-12711852D01*
X12642319Y-12718233D01*
X12651529Y-12733166D01*
X12663934Y-12745571D01*
X12678867Y-12754781D01*
X12682250Y-12755902D01*
X12687995Y-12759880D01*
X12690677Y-12766331D01*
X12690750Y-12767673D01*
X12690750Y-13097733D01*
X12690750Y-13097735D01*
X12690750Y-13114305D01*
X12690750Y-13114305D01*
X12690750Y-13114306D01*
X12694842Y-13129578D01*
X12697474Y-13134137D01*
X12702748Y-13143271D01*
X12702748Y-13143272D01*
X12714635Y-13155158D01*
X12714635Y-13155159D01*
X12790128Y-13230652D01*
X12790129Y-13230652D01*
X12790129Y-13230652D01*
X12803821Y-13238557D01*
X12803822Y-13238558D01*
X12819094Y-13242650D01*
X12819094Y-13242650D01*
X12835665Y-13242650D01*
X12835667Y-13242650D01*
X13118597Y-13242650D01*
X13125301Y-13244618D01*
X13129876Y-13249899D01*
X13130743Y-13253246D01*
X13130827Y-13253231D01*
X13130941Y-13253855D01*
X13135543Y-13269695D01*
X13135543Y-13269696D01*
X13143940Y-13283894D01*
X13143941Y-13283895D01*
X13155605Y-13295559D01*
X13155605Y-13295559D01*
X13155605Y-13295559D01*
X13161300Y-13298927D01*
X13166068Y-13304034D01*
X13167318Y-13310908D01*
X13164654Y-13317367D01*
X13161300Y-13320273D01*
X13155605Y-13323641D01*
X13155605Y-13323641D01*
X13143941Y-13335305D01*
X13143940Y-13335306D01*
X13135543Y-13349504D01*
X13135543Y-13349504D01*
X13130941Y-13365345D01*
X13130941Y-13365345D01*
X13130650Y-13369046D01*
X13130650Y-13504154D01*
X13130941Y-13507855D01*
X13130941Y-13507855D01*
X13135543Y-13523695D01*
X13135543Y-13523696D01*
X13143940Y-13537894D01*
X13143941Y-13537895D01*
X13155605Y-13549559D01*
X13155605Y-13549559D01*
X13155605Y-13549559D01*
X13161250Y-13552898D01*
X13161300Y-13552927D01*
X13166068Y-13558034D01*
X13167318Y-13564908D01*
X13164654Y-13571367D01*
X13161300Y-13574273D01*
X13155605Y-13577641D01*
X13155605Y-13577641D01*
X13143941Y-13589305D01*
X13143940Y-13589306D01*
X13135543Y-13603504D01*
X13135543Y-13603504D01*
X13130941Y-13619345D01*
X13130941Y-13619345D01*
X13130650Y-13623046D01*
X13130650Y-13758154D01*
X13130941Y-13761855D01*
X13130941Y-13761855D01*
X13135543Y-13777695D01*
X13135543Y-13777696D01*
X13143940Y-13791894D01*
X13143941Y-13791895D01*
X13155605Y-13803559D01*
X13155605Y-13803559D01*
X13155605Y-13803559D01*
X13169804Y-13811956D01*
X13173982Y-13813170D01*
X13185645Y-13816559D01*
X13185645Y-13816559D01*
X13185645Y-13816559D01*
X13189347Y-13816850D01*
X13189347Y-13816850D01*
X13415253Y-13816850D01*
X13415253Y-13816850D01*
X13418955Y-13816559D01*
X13418955Y-13816559D01*
X13418955Y-13816559D01*
X13423132Y-13815345D01*
X13434796Y-13811956D01*
X13448995Y-13803559D01*
X13458615Y-13793939D01*
X13460094Y-13792676D01*
X13468046Y-13786898D01*
X13482098Y-13772846D01*
X13493779Y-13756769D01*
X13502800Y-13739063D01*
X13508941Y-13720164D01*
X13512050Y-13700536D01*
X13512050Y-13680664D01*
X13508941Y-13661036D01*
X13503422Y-13644050D01*
X13502801Y-13642137D01*
X13502800Y-13642137D01*
X13493779Y-13624430D01*
X13482098Y-13608354D01*
X13468046Y-13594302D01*
X13460094Y-13588524D01*
X13459417Y-13587996D01*
X13459000Y-13587646D01*
X13448995Y-13577641D01*
X13442426Y-13573756D01*
X13441648Y-13573104D01*
X13440251Y-13571007D01*
X13438532Y-13569166D01*
X13438347Y-13568149D01*
X13437774Y-13567289D01*
X13437732Y-13564770D01*
X13437282Y-13562292D01*
X13437676Y-13561337D01*
X13437659Y-13560303D01*
X13438986Y-13558162D01*
X13439946Y-13555833D01*
X13440987Y-13554931D01*
X13441339Y-13554364D01*
X13442013Y-13554042D01*
X13443300Y-13552927D01*
X13443350Y-13552898D01*
X13448995Y-13549559D01*
X13458615Y-13539939D01*
X13460094Y-13538676D01*
X13468046Y-13532898D01*
X13482098Y-13518846D01*
X13493779Y-13502769D01*
X13502800Y-13485063D01*
X13508941Y-13466164D01*
X13512050Y-13446536D01*
X13512050Y-13426664D01*
X13508941Y-13407036D01*
X13502800Y-13388137D01*
X13502800Y-13388137D01*
X13493779Y-13370430D01*
X13492776Y-13369051D01*
X13482098Y-13354354D01*
X13468046Y-13340302D01*
X13467235Y-13339712D01*
X13460094Y-13334524D01*
X13459417Y-13333996D01*
X13459000Y-13333646D01*
X13448995Y-13323641D01*
X13442426Y-13319756D01*
X13441648Y-13319104D01*
X13440251Y-13317007D01*
X13438532Y-13315166D01*
X13438347Y-13314149D01*
X13437774Y-13313289D01*
X13437732Y-13310770D01*
X13437282Y-13308292D01*
X13437676Y-13307337D01*
X13437659Y-13306303D01*
X13438986Y-13304162D01*
X13439946Y-13301833D01*
X13440987Y-13300931D01*
X13441339Y-13300364D01*
X13442013Y-13300042D01*
X13443300Y-13298927D01*
X13448995Y-13295559D01*
X13458615Y-13285939D01*
X13460094Y-13284676D01*
X13468046Y-13278898D01*
X13482098Y-13264846D01*
X13493779Y-13248769D01*
X13502800Y-13231063D01*
X13508941Y-13212164D01*
X13512050Y-13192536D01*
X13512050Y-13172664D01*
X13508941Y-13153036D01*
X13502800Y-13134137D01*
X13502800Y-13134137D01*
X13502800Y-13134136D01*
X13495894Y-13120581D01*
X13493779Y-13116431D01*
X13482098Y-13100354D01*
X13468046Y-13086302D01*
X13460094Y-13080524D01*
X13459417Y-13079996D01*
X13459000Y-13079646D01*
X13448995Y-13069641D01*
X13442426Y-13065756D01*
X13441648Y-13065104D01*
X13440251Y-13063007D01*
X13438532Y-13061166D01*
X13438347Y-13060149D01*
X13437774Y-13059289D01*
X13437732Y-13056770D01*
X13437282Y-13054292D01*
X13437676Y-13053337D01*
X13437659Y-13052303D01*
X13438986Y-13050162D01*
X13439946Y-13047833D01*
X13440987Y-13046931D01*
X13441339Y-13046364D01*
X13442013Y-13046042D01*
X13443300Y-13044927D01*
X13448995Y-13041559D01*
X13458615Y-13031939D01*
X13460094Y-13030676D01*
X13468046Y-13024898D01*
X13482098Y-13010846D01*
X13493779Y-12994769D01*
X13502800Y-12977063D01*
X13508941Y-12958164D01*
X13512050Y-12938536D01*
X13512050Y-12918664D01*
X13508941Y-12899036D01*
X13505248Y-12887670D01*
X13502801Y-12880137D01*
X13502800Y-12880137D01*
X13495894Y-12866581D01*
X13493779Y-12862431D01*
X13482098Y-12846354D01*
X13468046Y-12832302D01*
X13460094Y-12826524D01*
X13459417Y-12825996D01*
X13459000Y-12825646D01*
X13448995Y-12815641D01*
X13442426Y-12811756D01*
X13441648Y-12811104D01*
X13440251Y-12809007D01*
X13438532Y-12807166D01*
X13438347Y-12806149D01*
X13437774Y-12805289D01*
X13437732Y-12802770D01*
X13437282Y-12800292D01*
X13437676Y-12799337D01*
X13437659Y-12798303D01*
X13438986Y-12796162D01*
X13439946Y-12793833D01*
X13440987Y-12792931D01*
X13441339Y-12792364D01*
X13442013Y-12792042D01*
X13443300Y-12790927D01*
X13448995Y-12787559D01*
X13458615Y-12777939D01*
X13460094Y-12776676D01*
X13468046Y-12770898D01*
X13482098Y-12756846D01*
X13493779Y-12740769D01*
X13493779Y-12740769D01*
X13493900Y-12740571D01*
X13493966Y-12740512D01*
X13494065Y-12740375D01*
X13494094Y-12740396D01*
X13499081Y-12735884D01*
X13504473Y-12734650D01*
X13529533Y-12734650D01*
X13529535Y-12734650D01*
X13530294Y-12734650D01*
X13546105Y-12734650D01*
X13546106Y-12734650D01*
X13561378Y-12730558D01*
X13567318Y-12727128D01*
X13575072Y-12722652D01*
X13586252Y-12711472D01*
X13586252Y-12711471D01*
X13587272Y-12710451D01*
X13587273Y-12710451D01*
X13675651Y-12622073D01*
X13675651Y-12622072D01*
X13676671Y-12621052D01*
X13676672Y-12621052D01*
X13687852Y-12609872D01*
X13693192Y-12600622D01*
X13695758Y-12596178D01*
X13699850Y-12580906D01*
X13699850Y-12565094D01*
X13699850Y-12564335D01*
X13699850Y-12564333D01*
X13699850Y-12156664D01*
X14783550Y-12156664D01*
X14783550Y-12176536D01*
X14784431Y-12182101D01*
X14786659Y-12196164D01*
X14792799Y-12215063D01*
X14792799Y-12215063D01*
X14799416Y-12228050D01*
X14801821Y-12232769D01*
X14813502Y-12248846D01*
X14813502Y-12248847D01*
X14827554Y-12262898D01*
X14835506Y-12268676D01*
X14836182Y-12269204D01*
X14836600Y-12269554D01*
X14846605Y-12279559D01*
X14853174Y-12283444D01*
X14853952Y-12284096D01*
X14855349Y-12286193D01*
X14857068Y-12288034D01*
X14857253Y-12289051D01*
X14857826Y-12289911D01*
X14857867Y-12292430D01*
X14858318Y-12294908D01*
X14857924Y-12295863D01*
X14857941Y-12296897D01*
X14856614Y-12299038D01*
X14855654Y-12301367D01*
X14854612Y-12302269D01*
X14854261Y-12302836D01*
X14853587Y-12303157D01*
X14852300Y-12304273D01*
X14846605Y-12307641D01*
X14846605Y-12307641D01*
X14836985Y-12317260D01*
X14835506Y-12318524D01*
X14827554Y-12324302D01*
X14813502Y-12338353D01*
X14801821Y-12354430D01*
X14792799Y-12372137D01*
X14792799Y-12372137D01*
X14786659Y-12391036D01*
X14783550Y-12410664D01*
X14783550Y-12430536D01*
X14786659Y-12450164D01*
X14792799Y-12469063D01*
X14792799Y-12469063D01*
X14801557Y-12486250D01*
X14801821Y-12486769D01*
X14813502Y-12502846D01*
X14813502Y-12502847D01*
X14827554Y-12516898D01*
X14835506Y-12522676D01*
X14836182Y-12523204D01*
X14836600Y-12523554D01*
X14846605Y-12533559D01*
X14853174Y-12537444D01*
X14853952Y-12538096D01*
X14855349Y-12540193D01*
X14857068Y-12542034D01*
X14857253Y-12543051D01*
X14857826Y-12543911D01*
X14857867Y-12546430D01*
X14858318Y-12548908D01*
X14857924Y-12549863D01*
X14857941Y-12550897D01*
X14856614Y-12553038D01*
X14855654Y-12555367D01*
X14854612Y-12556269D01*
X14854261Y-12556836D01*
X14853587Y-12557157D01*
X14852300Y-12558273D01*
X14846605Y-12561641D01*
X14846605Y-12561641D01*
X14836985Y-12571260D01*
X14835506Y-12572524D01*
X14827554Y-12578302D01*
X14813502Y-12592353D01*
X14801821Y-12608430D01*
X14792799Y-12626137D01*
X14792799Y-12626137D01*
X14786659Y-12645036D01*
X14785059Y-12655135D01*
X14783550Y-12664664D01*
X14783550Y-12684536D01*
X14784621Y-12691301D01*
X14786659Y-12704164D01*
X14792799Y-12723063D01*
X14792799Y-12723063D01*
X14801199Y-12739549D01*
X14801821Y-12740769D01*
X14813502Y-12756846D01*
X14813502Y-12756847D01*
X14827554Y-12770898D01*
X14835506Y-12776676D01*
X14836182Y-12777204D01*
X14836600Y-12777554D01*
X14846605Y-12787559D01*
X14853174Y-12791444D01*
X14853952Y-12792096D01*
X14855349Y-12794193D01*
X14857068Y-12796034D01*
X14857253Y-12797051D01*
X14857826Y-12797911D01*
X14857867Y-12800430D01*
X14858318Y-12802908D01*
X14857924Y-12803863D01*
X14857941Y-12804897D01*
X14856614Y-12807038D01*
X14855654Y-12809367D01*
X14854612Y-12810269D01*
X14854261Y-12810836D01*
X14853587Y-12811157D01*
X14852300Y-12812273D01*
X14846605Y-12815641D01*
X14846605Y-12815641D01*
X14836985Y-12825260D01*
X14835506Y-12826524D01*
X14827554Y-12832302D01*
X14813502Y-12846353D01*
X14801821Y-12862430D01*
X14792799Y-12880137D01*
X14792799Y-12880137D01*
X14786659Y-12899036D01*
X14786659Y-12899036D01*
X14783550Y-12918664D01*
X14783550Y-12938536D01*
X14783623Y-12939000D01*
X14786659Y-12958164D01*
X14792799Y-12977063D01*
X14792799Y-12977063D01*
X14801199Y-12993549D01*
X14801821Y-12994769D01*
X14813502Y-13010846D01*
X14813502Y-13010847D01*
X14827554Y-13024898D01*
X14835506Y-13030676D01*
X14836182Y-13031204D01*
X14836600Y-13031554D01*
X14846605Y-13041559D01*
X14853174Y-13045444D01*
X14853952Y-13046096D01*
X14855349Y-13048193D01*
X14857068Y-13050034D01*
X14857253Y-13051051D01*
X14857826Y-13051911D01*
X14857867Y-13054430D01*
X14858318Y-13056908D01*
X14857924Y-13057863D01*
X14857941Y-13058897D01*
X14856614Y-13061038D01*
X14855654Y-13063367D01*
X14854612Y-13064269D01*
X14854261Y-13064836D01*
X14853587Y-13065157D01*
X14852300Y-13066273D01*
X14846605Y-13069641D01*
X14846605Y-13069641D01*
X14836985Y-13079260D01*
X14835506Y-13080524D01*
X14827554Y-13086302D01*
X14813502Y-13100353D01*
X14801821Y-13116430D01*
X14792800Y-13134136D01*
X14786659Y-13153036D01*
X14783550Y-13172664D01*
X14783550Y-13192536D01*
X14786659Y-13212164D01*
X14792799Y-13231063D01*
X14792799Y-13231063D01*
X14798105Y-13241476D01*
X14801821Y-13248769D01*
X14813502Y-13264846D01*
X14813502Y-13264847D01*
X14827554Y-13278898D01*
X14835506Y-13284676D01*
X14836179Y-13285201D01*
X14836598Y-13285552D01*
X14846605Y-13295559D01*
X14853221Y-13299472D01*
X14853997Y-13300122D01*
X14855396Y-13302220D01*
X14857117Y-13304063D01*
X14857301Y-13305077D01*
X14857874Y-13305935D01*
X14857916Y-13308456D01*
X14858367Y-13310937D01*
X14857974Y-13311890D01*
X14857991Y-13312921D01*
X14856664Y-13315065D01*
X14855703Y-13317396D01*
X14854664Y-13318296D01*
X14854314Y-13318862D01*
X14853639Y-13319184D01*
X14852349Y-13320302D01*
X14846637Y-13323680D01*
X14846636Y-13323681D01*
X14839436Y-13330881D01*
X14839436Y-13330881D01*
X14901390Y-13392835D01*
X14892643Y-13395179D01*
X14882507Y-13401031D01*
X14874231Y-13409307D01*
X14868379Y-13419443D01*
X14866035Y-13428190D01*
X14804573Y-13366728D01*
X14804573Y-13366728D01*
X14801864Y-13370456D01*
X14792846Y-13388156D01*
X14786707Y-13407048D01*
X14786707Y-13407048D01*
X14783600Y-13426668D01*
X14783600Y-13446532D01*
X14786707Y-13466152D01*
X14786707Y-13466152D01*
X14792846Y-13485044D01*
X14801864Y-13502743D01*
X14804573Y-13506471D01*
X14804573Y-13506472D01*
X14866035Y-13445009D01*
X14868379Y-13453757D01*
X14874231Y-13463893D01*
X14882507Y-13472169D01*
X14892643Y-13478021D01*
X14901390Y-13480365D01*
X14839436Y-13542319D01*
X14846636Y-13549519D01*
X14846636Y-13549519D01*
X14852349Y-13552898D01*
X14857117Y-13558005D01*
X14858367Y-13564879D01*
X14855703Y-13571338D01*
X14853997Y-13573078D01*
X14853220Y-13573728D01*
X14846605Y-13577641D01*
X14836599Y-13587647D01*
X14836178Y-13587999D01*
X14836060Y-13588051D01*
X14835506Y-13588524D01*
X14827554Y-13594302D01*
X14813502Y-13608353D01*
X14801821Y-13624430D01*
X14792799Y-13642137D01*
X14792799Y-13642137D01*
X14786659Y-13661036D01*
X14783550Y-13680664D01*
X14783550Y-13700536D01*
X14786659Y-13720164D01*
X14792799Y-13739063D01*
X14792799Y-13739063D01*
X14800583Y-13754340D01*
X14801821Y-13756769D01*
X14813502Y-13772846D01*
X14813502Y-13772847D01*
X14827554Y-13786898D01*
X14835506Y-13792676D01*
X14836985Y-13793939D01*
X14846605Y-13803559D01*
X14860804Y-13811956D01*
X14864982Y-13813170D01*
X14876645Y-13816559D01*
X14876645Y-13816559D01*
X14876645Y-13816559D01*
X14880347Y-13816850D01*
X14880347Y-13816850D01*
X15106253Y-13816850D01*
X15106253Y-13816850D01*
X15109955Y-13816559D01*
X15109955Y-13816559D01*
X15109955Y-13816559D01*
X15114132Y-13815345D01*
X15125796Y-13811956D01*
X15139995Y-13803559D01*
X15151659Y-13791895D01*
X15160056Y-13777696D01*
X15164659Y-13761855D01*
X15164950Y-13758153D01*
X15164950Y-13623047D01*
X15164659Y-13619345D01*
X15160056Y-13603504D01*
X15151659Y-13589305D01*
X15151659Y-13589305D01*
X15151659Y-13589305D01*
X15139995Y-13577641D01*
X15139995Y-13577641D01*
X15139995Y-13577641D01*
X15134251Y-13574244D01*
X15129483Y-13569137D01*
X15128233Y-13562263D01*
X15130897Y-13555804D01*
X15134251Y-13552898D01*
X15139964Y-13549519D01*
X15139964Y-13549519D01*
X15151619Y-13537864D01*
X15151620Y-13537863D01*
X15160010Y-13523676D01*
X15160010Y-13523675D01*
X15164609Y-13507847D01*
X15164609Y-13507847D01*
X15164900Y-13504149D01*
X15164900Y-13369053D01*
X15164900Y-13369051D01*
X15164609Y-13365353D01*
X15160010Y-13349524D01*
X15151620Y-13335336D01*
X15151619Y-13335336D01*
X15139964Y-13323681D01*
X15139963Y-13323680D01*
X15134251Y-13320302D01*
X15129483Y-13315195D01*
X15128233Y-13308321D01*
X15130897Y-13301862D01*
X15134251Y-13298956D01*
X15139994Y-13295560D01*
X15139994Y-13295559D01*
X15139995Y-13295559D01*
X15151659Y-13283895D01*
X15160056Y-13269696D01*
X15164659Y-13253855D01*
X15164950Y-13250153D01*
X15164950Y-13115047D01*
X15164659Y-13111345D01*
X15160056Y-13095504D01*
X15151659Y-13081305D01*
X15151659Y-13081305D01*
X15151659Y-13081305D01*
X15139995Y-13069641D01*
X15139994Y-13069641D01*
X15134300Y-13066273D01*
X15129532Y-13061166D01*
X15128282Y-13054292D01*
X15130946Y-13047833D01*
X15134300Y-13044927D01*
X15139995Y-13041559D01*
X15151659Y-13029895D01*
X15160056Y-13015696D01*
X15163445Y-13004032D01*
X15164659Y-12999855D01*
X15164773Y-12999231D01*
X15164951Y-12999264D01*
X15167129Y-12993549D01*
X15172752Y-12989401D01*
X15177003Y-12988650D01*
X15332933Y-12988650D01*
X15332935Y-12988650D01*
X15333694Y-12988650D01*
X15349505Y-12988650D01*
X15349506Y-12988650D01*
X15364778Y-12984558D01*
X15373960Y-12979257D01*
X15378472Y-12976652D01*
X15389652Y-12965472D01*
X15389652Y-12965471D01*
X15390672Y-12964451D01*
X15390673Y-12964451D01*
X15480071Y-12875052D01*
X15480072Y-12875052D01*
X15491252Y-12863872D01*
X15496264Y-12855190D01*
X15499158Y-12850178D01*
X15503250Y-12834906D01*
X15503250Y-12819094D01*
X15503250Y-12818335D01*
X15503250Y-12818333D01*
X15503250Y-11256810D01*
X15505218Y-11250106D01*
X15506882Y-11248042D01*
X15566042Y-11188882D01*
X15572174Y-11185533D01*
X15574810Y-11185250D01*
X15949628Y-11185250D01*
X15956332Y-11187218D01*
X15960676Y-11192020D01*
X15962695Y-11195981D01*
X15962695Y-11195981D01*
X15975189Y-11213179D01*
X15990221Y-11228211D01*
X16007418Y-11240705D01*
X16008295Y-11241152D01*
X16013374Y-11245949D01*
X16015054Y-11252731D01*
X16012800Y-11259345D01*
X16008295Y-11263248D01*
X16007418Y-11263695D01*
X15990221Y-11276189D01*
X15975189Y-11291221D01*
X15962695Y-11308418D01*
X15953044Y-11327358D01*
X15946475Y-11347576D01*
X15943927Y-11363668D01*
X15943150Y-11368571D01*
X15943150Y-11389829D01*
X15946475Y-11410824D01*
X15952555Y-11429537D01*
X15953044Y-11431041D01*
X15962695Y-11449982D01*
X15975189Y-11467179D01*
X15990221Y-11482211D01*
X16007418Y-11494705D01*
X16008295Y-11495152D01*
X16013374Y-11499949D01*
X16015054Y-11506731D01*
X16012800Y-11513345D01*
X16008295Y-11517248D01*
X16007418Y-11517695D01*
X15990221Y-11530189D01*
X15975189Y-11545221D01*
X15962695Y-11562418D01*
X15953044Y-11581358D01*
X15953044Y-11581359D01*
X15953044Y-11581359D01*
X15952065Y-11584372D01*
X15946475Y-11601576D01*
X15943150Y-11622571D01*
X15943150Y-11643829D01*
X15946475Y-11664824D01*
X15953044Y-11685041D01*
X15962695Y-11703982D01*
X15975189Y-11721179D01*
X15990221Y-11736211D01*
X16007418Y-11748705D01*
X16007418Y-11748705D01*
X16007418Y-11748705D01*
X16008349Y-11749179D01*
X16013429Y-11753977D01*
X16015109Y-11760759D01*
X16012855Y-11767372D01*
X16008350Y-11771276D01*
X16007445Y-11771738D01*
X16007444Y-11771738D01*
X16002028Y-11775673D01*
X16002028Y-11775673D01*
X16065259Y-11838904D01*
X16058901Y-11840607D01*
X16047499Y-11847190D01*
X16038190Y-11856499D01*
X16031607Y-11867901D01*
X16029904Y-11874259D01*
X15966673Y-11811028D01*
X15966673Y-11811028D01*
X15962738Y-11816444D01*
X15953090Y-11835378D01*
X15946524Y-11855587D01*
X15946524Y-11855587D01*
X15943200Y-11876575D01*
X15943200Y-11897825D01*
X15946524Y-11918813D01*
X15946524Y-11918813D01*
X15953090Y-11939022D01*
X15962737Y-11957955D01*
X15966673Y-11963372D01*
X16029904Y-11900141D01*
X16031607Y-11906499D01*
X16038190Y-11917901D01*
X16047499Y-11927210D01*
X16058901Y-11933792D01*
X16065259Y-11935496D01*
X16002028Y-11998727D01*
X16002028Y-11998727D01*
X16007445Y-12002663D01*
X16007445Y-12002663D01*
X16008349Y-12003123D01*
X16013429Y-12007921D01*
X16015109Y-12014703D01*
X16012855Y-12021316D01*
X16008350Y-12025220D01*
X16007418Y-12025695D01*
X15990221Y-12038189D01*
X15975189Y-12053221D01*
X15962695Y-12070418D01*
X15953044Y-12089358D01*
X15946475Y-12109576D01*
X15943150Y-12130571D01*
X15943150Y-12151829D01*
X15946285Y-12171620D01*
X15946475Y-12172824D01*
X15952960Y-12192781D01*
X15953044Y-12193041D01*
X15962695Y-12211982D01*
X15975189Y-12229179D01*
X15990221Y-12244211D01*
X16007418Y-12256705D01*
X16008295Y-12257152D01*
X16013374Y-12261949D01*
X16015054Y-12268731D01*
X16012800Y-12275345D01*
X16008295Y-12279248D01*
X16007418Y-12279695D01*
X15990221Y-12292189D01*
X15975189Y-12307221D01*
X15962695Y-12324418D01*
X15953044Y-12343358D01*
X15946475Y-12363576D01*
X15943150Y-12384571D01*
X15943150Y-12405829D01*
X15946179Y-12424955D01*
X15946475Y-12426824D01*
X15952358Y-12444928D01*
X15953044Y-12447041D01*
X15962695Y-12465982D01*
X15975189Y-12483179D01*
X15990221Y-12498211D01*
X16007418Y-12510705D01*
X16007418Y-12510705D01*
X16007418Y-12510705D01*
X16026359Y-12520356D01*
X16046576Y-12526925D01*
X16067571Y-12530250D01*
X16067571Y-12530250D01*
X16088829Y-12530250D01*
X16088829Y-12530250D01*
X16109824Y-12526925D01*
X16130041Y-12520356D01*
X16148982Y-12510705D01*
X16159798Y-12502847D01*
X16166179Y-12498211D01*
X16166179Y-12498211D01*
X16166179Y-12498210D01*
X16181210Y-12483179D01*
X16181211Y-12483179D01*
X16181211Y-12483179D01*
X16193705Y-12465982D01*
X16193705Y-12465982D01*
X16193705Y-12465982D01*
X16203356Y-12447041D01*
X16209925Y-12426824D01*
X16213250Y-12405829D01*
X16213250Y-12384571D01*
X16209925Y-12363576D01*
X16203356Y-12343359D01*
X16193705Y-12324418D01*
X16193705Y-12324418D01*
X16193705Y-12324418D01*
X16181211Y-12307221D01*
X16166179Y-12292189D01*
X16148982Y-12279695D01*
X16148911Y-12279659D01*
X16148105Y-12279248D01*
X16143026Y-12274451D01*
X16141346Y-12267669D01*
X16143600Y-12261056D01*
X16148105Y-12257151D01*
X16148982Y-12256705D01*
X16158434Y-12249838D01*
X16166179Y-12244211D01*
X16166179Y-12244211D01*
X16166179Y-12244210D01*
X16181210Y-12229179D01*
X16181211Y-12229179D01*
X16181211Y-12229179D01*
X16193705Y-12211982D01*
X16193705Y-12211982D01*
X16193705Y-12211982D01*
X16203356Y-12193041D01*
X16209925Y-12172824D01*
X16213250Y-12151829D01*
X16213250Y-12130571D01*
X16209925Y-12109576D01*
X16203356Y-12089359D01*
X16193705Y-12070418D01*
X16193705Y-12070418D01*
X16193705Y-12070418D01*
X16181211Y-12053221D01*
X16166179Y-12038189D01*
X16148982Y-12025695D01*
X16148050Y-12025220D01*
X16142971Y-12020423D01*
X16141291Y-12013641D01*
X16143545Y-12007027D01*
X16148051Y-12003123D01*
X16148955Y-12002662D01*
X16154372Y-11998727D01*
X16154372Y-11998727D01*
X16091141Y-11935496D01*
X16097499Y-11933792D01*
X16108901Y-11927210D01*
X16118210Y-11917901D01*
X16124792Y-11906499D01*
X16126496Y-11900141D01*
X16189727Y-11963372D01*
X16189727Y-11963372D01*
X16193662Y-11957955D01*
X16203309Y-11939022D01*
X16209876Y-11918813D01*
X16209876Y-11918813D01*
X16213200Y-11897825D01*
X16213200Y-11876575D01*
X16209876Y-11855587D01*
X16209876Y-11855587D01*
X16203309Y-11835378D01*
X16193662Y-11816445D01*
X16189727Y-11811028D01*
X16189727Y-11811028D01*
X16126496Y-11874259D01*
X16124792Y-11867901D01*
X16118210Y-11856499D01*
X16108901Y-11847190D01*
X16097499Y-11840607D01*
X16091141Y-11838904D01*
X16154372Y-11775673D01*
X16148955Y-11771737D01*
X16148955Y-11771737D01*
X16148050Y-11771276D01*
X16142971Y-11766479D01*
X16141291Y-11759697D01*
X16143545Y-11753083D01*
X16148051Y-11749179D01*
X16148982Y-11748705D01*
X16156901Y-11742951D01*
X16166179Y-11736211D01*
X16166179Y-11736211D01*
X16166179Y-11736210D01*
X16181210Y-11721179D01*
X16181211Y-11721179D01*
X16181211Y-11721179D01*
X16193705Y-11703982D01*
X16193705Y-11703982D01*
X16193705Y-11703982D01*
X16203356Y-11685041D01*
X16209925Y-11664824D01*
X16213250Y-11643829D01*
X16213250Y-11622571D01*
X16209925Y-11601576D01*
X16203356Y-11581359D01*
X16193705Y-11562418D01*
X16193705Y-11562418D01*
X16193705Y-11562418D01*
X16181211Y-11545221D01*
X16166179Y-11530189D01*
X16148982Y-11517695D01*
X16148911Y-11517659D01*
X16148105Y-11517248D01*
X16143026Y-11512451D01*
X16141346Y-11505669D01*
X16143600Y-11499056D01*
X16148105Y-11495151D01*
X16148982Y-11494705D01*
X16151179Y-11493109D01*
X16166179Y-11482211D01*
X16166179Y-11482211D01*
X16166179Y-11482210D01*
X16181210Y-11467179D01*
X16181211Y-11467179D01*
X16181211Y-11467179D01*
X16193705Y-11449982D01*
X16193705Y-11449982D01*
X16193705Y-11449982D01*
X16203356Y-11431041D01*
X16209925Y-11410824D01*
X16213250Y-11389829D01*
X16213250Y-11368571D01*
X16209925Y-11347576D01*
X16208551Y-11343347D01*
X16208507Y-11341826D01*
X16207975Y-11340400D01*
X16208409Y-11338405D01*
X16208351Y-11336363D01*
X16209160Y-11334955D01*
X16209461Y-11333573D01*
X16211575Y-11330748D01*
X16229151Y-11313173D01*
X16229151Y-11313172D01*
X16230171Y-11312152D01*
X16230172Y-11312152D01*
X16241352Y-11300972D01*
X16241756Y-11300272D01*
X16247376Y-11290537D01*
X16247377Y-11290537D01*
X16249258Y-11287279D01*
X16251096Y-11280417D01*
X16253350Y-11272006D01*
X16253350Y-11256194D01*
X16253350Y-11255435D01*
X16253350Y-11255433D01*
X16253350Y-11069619D01*
X16253350Y-11069618D01*
X16249258Y-11054346D01*
X16247545Y-11051380D01*
X16241352Y-11040653D01*
X16241352Y-11040653D01*
X16241352Y-11040652D01*
X16230172Y-11029472D01*
X16230171Y-11029472D01*
X16229738Y-11029039D01*
X16229737Y-11029038D01*
X16179313Y-10978613D01*
X16175964Y-10972481D01*
X16176462Y-10965512D01*
X16179313Y-10961077D01*
X16181210Y-10959179D01*
X16181211Y-10959179D01*
X16181211Y-10959179D01*
X16192109Y-10944179D01*
X16193705Y-10941982D01*
X16203356Y-10923041D01*
X16209925Y-10902824D01*
X16213250Y-10881829D01*
X16213250Y-10860571D01*
X16209925Y-10839576D01*
X16203356Y-10819359D01*
X16193705Y-10800418D01*
X16193705Y-10800418D01*
X16193705Y-10800418D01*
X16181211Y-10783221D01*
X16169857Y-10771867D01*
X16166508Y-10765735D01*
X16167007Y-10758766D01*
X16171194Y-10753173D01*
X16174291Y-10751481D01*
X16187433Y-10746580D01*
X16198955Y-10737955D01*
X16207580Y-10726433D01*
X16212609Y-10712948D01*
X16213250Y-10706987D01*
X16213250Y-10527413D01*
X16212609Y-10521452D01*
X16207580Y-10507967D01*
X16207579Y-10507967D01*
X16207579Y-10507966D01*
X16198955Y-10496446D01*
X16198954Y-10496445D01*
X16187433Y-10487821D01*
X16187433Y-10487820D01*
X16173948Y-10482791D01*
X16173948Y-10482791D01*
X16167988Y-10482150D01*
X16167988Y-10482150D01*
X16167987Y-10482150D01*
X16167986Y-10482150D01*
X15988413Y-10482150D01*
X15988412Y-10482150D01*
X15982452Y-10482791D01*
X15968967Y-10487820D01*
X15968966Y-10487821D01*
X15957445Y-10496445D01*
X15957445Y-10496446D01*
X15948821Y-10507966D01*
X15948820Y-10507967D01*
X15943791Y-10521452D01*
X15943150Y-10527412D01*
X15943150Y-10527412D01*
X15943150Y-10527414D01*
X15943150Y-10611390D01*
X15941181Y-10618094D01*
X15939518Y-10620158D01*
X15903148Y-10656528D01*
X15903148Y-10656528D01*
X15899503Y-10662842D01*
X15896325Y-10668347D01*
X15895770Y-10669308D01*
X15895242Y-10670222D01*
X15891150Y-10685494D01*
X15891150Y-10685495D01*
X15891150Y-10702305D01*
X15891150Y-10702306D01*
X15891150Y-10891990D01*
X15890285Y-10894934D01*
X15889633Y-10897933D01*
X15889258Y-10898435D01*
X15889181Y-10898694D01*
X15887518Y-10900758D01*
X15879158Y-10909118D01*
X15873026Y-10912467D01*
X15870390Y-10912750D01*
X15401067Y-10912750D01*
X15401065Y-10912750D01*
X15400306Y-10912750D01*
X15384494Y-10912750D01*
X15378524Y-10914350D01*
X15369221Y-10916842D01*
X15369221Y-10916843D01*
X15355529Y-10924748D01*
X15355528Y-10924748D01*
X15166548Y-11113728D01*
X15166548Y-11113728D01*
X15162903Y-11120042D01*
X15158642Y-11127422D01*
X15154550Y-11142694D01*
X15154550Y-11142695D01*
X15154550Y-11159505D01*
X15154550Y-11159506D01*
X15154550Y-12040509D01*
X15152581Y-12047213D01*
X15147301Y-12051789D01*
X15140385Y-12052783D01*
X15135838Y-12051182D01*
X15125796Y-12045243D01*
X15125795Y-12045243D01*
X15109955Y-12040641D01*
X15109955Y-12040641D01*
X15106254Y-12040350D01*
X15106253Y-12040350D01*
X14880347Y-12040350D01*
X14880346Y-12040350D01*
X14876645Y-12040641D01*
X14876645Y-12040641D01*
X14860804Y-12045243D01*
X14860804Y-12045243D01*
X14846606Y-12053640D01*
X14846605Y-12053641D01*
X14836985Y-12063260D01*
X14835506Y-12064524D01*
X14827554Y-12070302D01*
X14813502Y-12084353D01*
X14801821Y-12100430D01*
X14792799Y-12118137D01*
X14792799Y-12118137D01*
X14786659Y-12137036D01*
X14784497Y-12150687D01*
X14783550Y-12156664D01*
X13699850Y-12156664D01*
X13699850Y-10829306D01*
X13699850Y-10829305D01*
X13699850Y-10812495D01*
X13699850Y-10812494D01*
X13695758Y-10797222D01*
X13695758Y-10797221D01*
X13695758Y-10797221D01*
X13695757Y-10797221D01*
X13690850Y-10788722D01*
X13690850Y-10788722D01*
X13687852Y-10783529D01*
X13687852Y-10783528D01*
X13676672Y-10772348D01*
X13676671Y-10772348D01*
X13676238Y-10771915D01*
X13676237Y-10771914D01*
X13670681Y-10766358D01*
X13667333Y-10760226D01*
X13667202Y-10755651D01*
X13668250Y-10749035D01*
X13668250Y-10688565D01*
X13665119Y-10668800D01*
X13665048Y-10668347D01*
X13661208Y-10656528D01*
X13658722Y-10648878D01*
X13658722Y-10648878D01*
X13658722Y-10648878D01*
X13649442Y-10630665D01*
X13649429Y-10630639D01*
X13646095Y-10626050D01*
X13637397Y-10614079D01*
X13622921Y-10599603D01*
X13606361Y-10587572D01*
X13606361Y-10587571D01*
X13606361Y-10587571D01*
X13600665Y-10584669D01*
X13588122Y-10578278D01*
X13568653Y-10571952D01*
X13551199Y-10569188D01*
X13548435Y-10568750D01*
X13527965Y-10568750D01*
X13525533Y-10569135D01*
X13507746Y-10571952D01*
X13488278Y-10578278D01*
X13470039Y-10587572D01*
X13453479Y-10599603D01*
X13439003Y-10614079D01*
X13426971Y-10630639D01*
X13422248Y-10639908D01*
X13417451Y-10644988D01*
X13410669Y-10646667D01*
X13404055Y-10644413D01*
X13400151Y-10639908D01*
X13395442Y-10630665D01*
X13395429Y-10630639D01*
X13392095Y-10626050D01*
X13383397Y-10614079D01*
X13368921Y-10599603D01*
X13352361Y-10587572D01*
X13352361Y-10587571D01*
X13352361Y-10587571D01*
X13346665Y-10584669D01*
X13334122Y-10578278D01*
X13314653Y-10571952D01*
X13297199Y-10569188D01*
X13294435Y-10568750D01*
X13273965Y-10568750D01*
X13271533Y-10569135D01*
X13253746Y-10571952D01*
X13234278Y-10578278D01*
X13216039Y-10587572D01*
X13199479Y-10599603D01*
X13185003Y-10614079D01*
X13172971Y-10630639D01*
X13168248Y-10639908D01*
X13163451Y-10644988D01*
X13156669Y-10646667D01*
X13150055Y-10644413D01*
X13146151Y-10639908D01*
X13141442Y-10630665D01*
X13141429Y-10630639D01*
X13138095Y-10626050D01*
X13129397Y-10614079D01*
X13114921Y-10599603D01*
X13098361Y-10587572D01*
X13098361Y-10587571D01*
X13098361Y-10587571D01*
X13092665Y-10584669D01*
X13080122Y-10578278D01*
X13060653Y-10571952D01*
X13043199Y-10569188D01*
X13040435Y-10568750D01*
X13019965Y-10568750D01*
X13017533Y-10569135D01*
X12999746Y-10571952D01*
X12980278Y-10578278D01*
X12962039Y-10587572D01*
X12945479Y-10599603D01*
X12931003Y-10614079D01*
X12918971Y-10630639D01*
X12914220Y-10639963D01*
X12909423Y-10645043D01*
X12902641Y-10646722D01*
X12896027Y-10644468D01*
X12892123Y-10639963D01*
X12887386Y-10630665D01*
X12875358Y-10614111D01*
X12875358Y-10614110D01*
X12860889Y-10599642D01*
X12844335Y-10587614D01*
X12826103Y-10578324D01*
X12806641Y-10572001D01*
X12801200Y-10571139D01*
X12801200Y-10675499D01*
X12795499Y-10672208D01*
X12782783Y-10668800D01*
X12769617Y-10668800D01*
X12756901Y-10672208D01*
X12751200Y-10675499D01*
X12751200Y-10571139D01*
X12745759Y-10572001D01*
X12726297Y-10578324D01*
X12708065Y-10587614D01*
X12691510Y-10599642D01*
X12691510Y-10599642D01*
X12677042Y-10614110D01*
X12677042Y-10614111D01*
X12665014Y-10630665D01*
X12655724Y-10648897D01*
X12649401Y-10668358D01*
X12646200Y-10688568D01*
X12646200Y-10693800D01*
X12732899Y-10693800D01*
X12729607Y-10699501D01*
X12726200Y-10712217D01*
X12726200Y-10725383D01*
X12729607Y-10738099D01*
X12732899Y-10743800D01*
X12646200Y-10743800D01*
X12646200Y-10749032D01*
X12649401Y-10769242D01*
X12655724Y-10788703D01*
X12665014Y-10806935D01*
X12677042Y-10823489D01*
X12677042Y-10823490D01*
X12691510Y-10837958D01*
X12708065Y-10849986D01*
X12726297Y-10859275D01*
X12745758Y-10865599D01*
X12751200Y-10866461D01*
X12751200Y-10762101D01*
X12756901Y-10765393D01*
X12769617Y-10768800D01*
X12782783Y-10768800D01*
X12795499Y-10765393D01*
X12801200Y-10762101D01*
X12801200Y-10866461D01*
X12806642Y-10865599D01*
X12826103Y-10859275D01*
X12844335Y-10849986D01*
X12860889Y-10837958D01*
X12860889Y-10837958D01*
X12875358Y-10823490D01*
X12875358Y-10823489D01*
X12887386Y-10806935D01*
X12892123Y-10797637D01*
X12896921Y-10792558D01*
X12903703Y-10790878D01*
X12910316Y-10793132D01*
X12914220Y-10797637D01*
X12918971Y-10806961D01*
X12931003Y-10823521D01*
X12931003Y-10823522D01*
X12945478Y-10837997D01*
X12962039Y-10850029D01*
X12963379Y-10850712D01*
X12968459Y-10855509D01*
X12970150Y-10861760D01*
X12970150Y-10917390D01*
X12968181Y-10924094D01*
X12966518Y-10926158D01*
X12908658Y-10984018D01*
X12902526Y-10987367D01*
X12899890Y-10987650D01*
X12858200Y-10987650D01*
X12858198Y-10987650D01*
X12847920Y-10988700D01*
X12847920Y-10988700D01*
X12831267Y-10994219D01*
X12831266Y-10994219D01*
X12816334Y-11003429D01*
X12803929Y-11015834D01*
X12794719Y-11030766D01*
X12794718Y-11030767D01*
X12793629Y-11034054D01*
X12789200Y-11047420D01*
X12789200Y-11047420D01*
X12789200Y-11047420D01*
X12788150Y-11057698D01*
X12788150Y-11192700D01*
X12788150Y-11192702D01*
X12789200Y-11202980D01*
X12789200Y-11202980D01*
X12794718Y-11219633D01*
X12794719Y-11219634D01*
X12797577Y-11224268D01*
X12803929Y-11234566D01*
X12816334Y-11246971D01*
X12831267Y-11256181D01*
X12834650Y-11257302D01*
X12840395Y-11261280D01*
X12843077Y-11267731D01*
X12843150Y-11269073D01*
X12843150Y-11362327D01*
X12841181Y-11369031D01*
X12835901Y-11373606D01*
X12834651Y-11374097D01*
X12831267Y-11375218D01*
X12831266Y-11375219D01*
X12816334Y-11384429D01*
X12803929Y-11396834D01*
X12794719Y-11411766D01*
X12794719Y-11411766D01*
X12794719Y-11411767D01*
X12789200Y-11428420D01*
X12789200Y-11428420D01*
X12789200Y-11428420D01*
X12788150Y-11438698D01*
X12788150Y-11573700D01*
X12788150Y-11573702D01*
X12789200Y-11583980D01*
X12789200Y-11583980D01*
X12793660Y-11597439D01*
X12794719Y-11600633D01*
X12803929Y-11615566D01*
X12816334Y-11627971D01*
X12831267Y-11637181D01*
X12834650Y-11638302D01*
X12840395Y-11642280D01*
X12843077Y-11648731D01*
X12843150Y-11650073D01*
X12843150Y-11743327D01*
X12841181Y-11750031D01*
X12835901Y-11754606D01*
X12834651Y-11755097D01*
X12831267Y-11756218D01*
X12831266Y-11756219D01*
X12816334Y-11765429D01*
X12803929Y-11777834D01*
X12794719Y-11792766D01*
X12794719Y-11792766D01*
X12794719Y-11792767D01*
X12789200Y-11809420D01*
X12789200Y-11809420D01*
X12789200Y-11809420D01*
X12788150Y-11819698D01*
X12788150Y-11954700D01*
X12788150Y-11954702D01*
X12789200Y-11964980D01*
X12789200Y-11964980D01*
X12790597Y-11969195D01*
X12794719Y-11981633D01*
X12803929Y-11996566D01*
X12816334Y-12008971D01*
X12831267Y-12018181D01*
X12847920Y-12023700D01*
X12858199Y-12024750D01*
X12948201Y-12024750D01*
X12948202Y-12024750D01*
X12948202Y-12024750D01*
X12953830Y-12024175D01*
X12958480Y-12023700D01*
X12975133Y-12018181D01*
X12990066Y-12008971D01*
X13002471Y-11996566D01*
X13011681Y-11981633D01*
X13017200Y-11964980D01*
X13018250Y-11954701D01*
X13018250Y-11819699D01*
X13017364Y-11811028D01*
X13017200Y-11809420D01*
X13017200Y-11809420D01*
X13011681Y-11792767D01*
X13002471Y-11777834D01*
X12990066Y-11765429D01*
X12975133Y-11756219D01*
X12975133Y-11756218D01*
X12971749Y-11755097D01*
X12966005Y-11751120D01*
X12963323Y-11744668D01*
X12963250Y-11743327D01*
X12963250Y-11650073D01*
X12965218Y-11643369D01*
X12970499Y-11638794D01*
X12971749Y-11638303D01*
X12975133Y-11637181D01*
X12990066Y-11627971D01*
X13002471Y-11615566D01*
X13011681Y-11600633D01*
X13017200Y-11583980D01*
X13018250Y-11573701D01*
X13018250Y-11438699D01*
X13017468Y-11431041D01*
X13017200Y-11428420D01*
X13017200Y-11428420D01*
X13011681Y-11411767D01*
X13002471Y-11396834D01*
X12990066Y-11384429D01*
X12975133Y-11375219D01*
X12974201Y-11374910D01*
X12971749Y-11374097D01*
X12966005Y-11370120D01*
X12963323Y-11363668D01*
X12963250Y-11362327D01*
X12963250Y-11269073D01*
X12965218Y-11262369D01*
X12970499Y-11257794D01*
X12971749Y-11257303D01*
X12975133Y-11256181D01*
X12990066Y-11246971D01*
X13002471Y-11234566D01*
X13011681Y-11219633D01*
X13017200Y-11202980D01*
X13018250Y-11192701D01*
X13018250Y-11057699D01*
X13017604Y-11051379D01*
X13018881Y-11044510D01*
X13021172Y-11041352D01*
X13066051Y-10996473D01*
X13066051Y-10996472D01*
X13067071Y-10995452D01*
X13067072Y-10995452D01*
X13078252Y-10984272D01*
X13083749Y-10974750D01*
X13084628Y-10973229D01*
X13086157Y-10970579D01*
X13086157Y-10970579D01*
X13086158Y-10970579D01*
X13090250Y-10955306D01*
X13090250Y-10939494D01*
X13090250Y-10861760D01*
X13092218Y-10855056D01*
X13097021Y-10850712D01*
X13098361Y-10850029D01*
X13114922Y-10837997D01*
X13129397Y-10823522D01*
X13129397Y-10823522D01*
X13129397Y-10823521D01*
X13141428Y-10806961D01*
X13141429Y-10806961D01*
X13141429Y-10806961D01*
X13146152Y-10797692D01*
X13150949Y-10792612D01*
X13157731Y-10790933D01*
X13164344Y-10793187D01*
X13168248Y-10797692D01*
X13169638Y-10800418D01*
X13172971Y-10806961D01*
X13185003Y-10823521D01*
X13199479Y-10837997D01*
X13214975Y-10849256D01*
X13216039Y-10850029D01*
X13224150Y-10854161D01*
X13234278Y-10859322D01*
X13234278Y-10859322D01*
X13234278Y-10859322D01*
X13241147Y-10861554D01*
X13253746Y-10865648D01*
X13262642Y-10867057D01*
X13273965Y-10868850D01*
X13273965Y-10868850D01*
X13293390Y-10868850D01*
X13300094Y-10870819D01*
X13302158Y-10872482D01*
X13499918Y-11070242D01*
X13503267Y-11076374D01*
X13503550Y-11079010D01*
X13503550Y-12075869D01*
X13501581Y-12082573D01*
X13496301Y-12087149D01*
X13489385Y-12088143D01*
X13483030Y-12085241D01*
X13482382Y-12084637D01*
X13468047Y-12070302D01*
X13468046Y-12070302D01*
X13464594Y-12067793D01*
X13460094Y-12064524D01*
X13458615Y-12063261D01*
X13448995Y-12053641D01*
X13448995Y-12053641D01*
X13448994Y-12053640D01*
X13434796Y-12045243D01*
X13434795Y-12045243D01*
X13418955Y-12040641D01*
X13418955Y-12040641D01*
X13415254Y-12040350D01*
X13415253Y-12040350D01*
X13189347Y-12040350D01*
X13189346Y-12040350D01*
X13185645Y-12040641D01*
X13185645Y-12040641D01*
X13169804Y-12045243D01*
X13169804Y-12045243D01*
X13155606Y-12053640D01*
X13155605Y-12053641D01*
X13143941Y-12065305D01*
X13143940Y-12065306D01*
X13135543Y-12079504D01*
X13135543Y-12079504D01*
X13130941Y-12095345D01*
X13130941Y-12095345D01*
X13130650Y-12099046D01*
X13130650Y-12234154D01*
X13130941Y-12237855D01*
X13130941Y-12237855D01*
X13135543Y-12253695D01*
X13135543Y-12253696D01*
X13135544Y-12253696D01*
X13137170Y-12256446D01*
X13143940Y-12267894D01*
X13143941Y-12267895D01*
X13155605Y-12279559D01*
X13155605Y-12279559D01*
X13155605Y-12279559D01*
X13161300Y-12282927D01*
X13166068Y-12288034D01*
X13167318Y-12294908D01*
X13164654Y-12301367D01*
X13161300Y-12304273D01*
X13155605Y-12307641D01*
X13155605Y-12307641D01*
X13143941Y-12319305D01*
X13143940Y-12319306D01*
X13135543Y-12333504D01*
X13135543Y-12333504D01*
X13130941Y-12349345D01*
X13130941Y-12349345D01*
X13130650Y-12353046D01*
X13130650Y-12488154D01*
X13130941Y-12491854D01*
X13130941Y-12491855D01*
X13135543Y-12507695D01*
X13135543Y-12507696D01*
X13143940Y-12521894D01*
X13143941Y-12521895D01*
X13155605Y-12533559D01*
X13155605Y-12533559D01*
X13155605Y-12533559D01*
X13161300Y-12536927D01*
X13166068Y-12542034D01*
X13167318Y-12548908D01*
X13164654Y-12555367D01*
X13161300Y-12558273D01*
X13155605Y-12561641D01*
X13155605Y-12561641D01*
X13143941Y-12573305D01*
X13143940Y-12573306D01*
X13135543Y-12587504D01*
X13135543Y-12587504D01*
X13130941Y-12603345D01*
X13130941Y-12603345D01*
X13130650Y-12607046D01*
X13130650Y-12742154D01*
X13130941Y-12745855D01*
X13130941Y-12745855D01*
X13135543Y-12761695D01*
X13135543Y-12761696D01*
X13143940Y-12775894D01*
X13143941Y-12775895D01*
X13155605Y-12787559D01*
X13155605Y-12787559D01*
X13155605Y-12787559D01*
X13161300Y-12790927D01*
X13166068Y-12796034D01*
X13167318Y-12802908D01*
X13164654Y-12809367D01*
X13161300Y-12812273D01*
X13155605Y-12815641D01*
X13155605Y-12815641D01*
X13143941Y-12827305D01*
X13143940Y-12827306D01*
X13135543Y-12841504D01*
X13134343Y-12845636D01*
X13130582Y-12851524D01*
X13124235Y-12854445D01*
X13117316Y-12853470D01*
X13113667Y-12850944D01*
X13068482Y-12805758D01*
X13065133Y-12799626D01*
X13064850Y-12796990D01*
X13064850Y-12361894D01*
X13064850Y-12361894D01*
X13062479Y-12353047D01*
X13060758Y-12346621D01*
X13055119Y-12336855D01*
X13052852Y-12332928D01*
X13041672Y-12321748D01*
X13041671Y-12321748D01*
X12933159Y-12213235D01*
X12933159Y-12213235D01*
X12921272Y-12201348D01*
X12921271Y-12201347D01*
X12910346Y-12195040D01*
X12910346Y-12195040D01*
X12910346Y-12195040D01*
X12907578Y-12193442D01*
X12905112Y-12192781D01*
X12892306Y-12189350D01*
X12876494Y-12189350D01*
X12876409Y-12189350D01*
X12869705Y-12187381D01*
X12865129Y-12182101D01*
X12864073Y-12178210D01*
X12863556Y-12173150D01*
X12863400Y-12171620D01*
X12857881Y-12154967D01*
X12848671Y-12140034D01*
X12836266Y-12127629D01*
X12821333Y-12118419D01*
X12804680Y-12112900D01*
X12804679Y-12112900D01*
X12794401Y-12111850D01*
X12704400Y-12111850D01*
X12704398Y-12111850D01*
X12694120Y-12112900D01*
X12694120Y-12112900D01*
X12677467Y-12118418D01*
X12677466Y-12118419D01*
X12662534Y-12127629D01*
X12650129Y-12140034D01*
X12640919Y-12154966D01*
X12640918Y-12154967D01*
X12638135Y-12163367D01*
X12635400Y-12171620D01*
X12635400Y-12171620D01*
X12635400Y-12171620D01*
X12634350Y-12181898D01*
X12554450Y-12181898D01*
X12553902Y-12176536D01*
X12553400Y-12171620D01*
X12553400Y-12171620D01*
X12548444Y-12156664D01*
X12547881Y-12154967D01*
X12538671Y-12140034D01*
X12526266Y-12127629D01*
X12511333Y-12118419D01*
X12494680Y-12112900D01*
X12494679Y-12112900D01*
X12484401Y-12111850D01*
X12394400Y-12111850D01*
X12394398Y-12111850D01*
X12384120Y-12112900D01*
X12384120Y-12112900D01*
X12367467Y-12118418D01*
X12367466Y-12118419D01*
X12352534Y-12127629D01*
X12340129Y-12140034D01*
X12330919Y-12154966D01*
X12330918Y-12154967D01*
X12328135Y-12163367D01*
X12325400Y-12171620D01*
X12325400Y-12171620D01*
X12325400Y-12171620D01*
X12324350Y-12181898D01*
X12324350Y-12316900D01*
X12324350Y-12316902D01*
X12325400Y-12327180D01*
X12325400Y-12327180D01*
X12329606Y-12339874D01*
X12330919Y-12343833D01*
X12340015Y-12358581D01*
X12340129Y-12358766D01*
X12347352Y-12365988D01*
X12347785Y-12366783D01*
X12348510Y-12367325D01*
X12349434Y-12369802D01*
X12350700Y-12372121D01*
X12350636Y-12373024D01*
X12350952Y-12373872D01*
X12350390Y-12376454D01*
X12350202Y-12379090D01*
X12349620Y-12379995D01*
X12349467Y-12380699D01*
X12347352Y-12383525D01*
X12329758Y-12401118D01*
X12323626Y-12404467D01*
X12320990Y-12404750D01*
X12015931Y-12404750D01*
X12009227Y-12402781D01*
X12007163Y-12401118D01*
X12004037Y-12397992D01*
X12004036Y-12397992D01*
X11992275Y-12391036D01*
X11989890Y-12389626D01*
X11989890Y-12389625D01*
X11989890Y-12389625D01*
X11989889Y-12389625D01*
X11974107Y-12385040D01*
X11974107Y-12385040D01*
X11970420Y-12384750D01*
X11970419Y-12384750D01*
X11883450Y-12384750D01*
X11882581Y-12384495D01*
X11881685Y-12384624D01*
X11879281Y-12383526D01*
X11876746Y-12382781D01*
X11876153Y-12382097D01*
X11875330Y-12381721D01*
X11873901Y-12379498D01*
X11872171Y-12377501D01*
X11871942Y-12376450D01*
X11871552Y-12375843D01*
X11871050Y-12372350D01*
X11871050Y-12367250D01*
X11873018Y-12360546D01*
X11878299Y-12355971D01*
X11883450Y-12354850D01*
X11970419Y-12354850D01*
X11970419Y-12354850D01*
X11974107Y-12354560D01*
X11974107Y-12354560D01*
X11974107Y-12354560D01*
X11979318Y-12353046D01*
X11989890Y-12349974D01*
X12004036Y-12341608D01*
X12015658Y-12329986D01*
X12024024Y-12315840D01*
X12028610Y-12300057D01*
X12028900Y-12296369D01*
X12028900Y-12253231D01*
X12028633Y-12249837D01*
X12030069Y-12243000D01*
X12032226Y-12240097D01*
X12158701Y-12113623D01*
X12158701Y-12113622D01*
X12159721Y-12112602D01*
X12159722Y-12112602D01*
X12170902Y-12101422D01*
X12171275Y-12100775D01*
X12177866Y-12089359D01*
X12177866Y-12089359D01*
X12177867Y-12089358D01*
X12178808Y-12087728D01*
X12182900Y-12072456D01*
X12182900Y-12056644D01*
X12182900Y-12055885D01*
X12182900Y-12055883D01*
X12182900Y-11990713D01*
X12184868Y-11984009D01*
X12190149Y-11979434D01*
X12197065Y-11978439D01*
X12203420Y-11981342D01*
X12205853Y-11984203D01*
X12209869Y-11990713D01*
X12213479Y-11996566D01*
X12225884Y-12008971D01*
X12225885Y-12008971D01*
X12240816Y-12018181D01*
X12240816Y-12018181D01*
X12240817Y-12018181D01*
X12257470Y-12023700D01*
X12267749Y-12024750D01*
X12267750Y-12024750D01*
X12370250Y-12024750D01*
X12370251Y-12024750D01*
X12380530Y-12023700D01*
X12397183Y-12018181D01*
X12412115Y-12008971D01*
X12424521Y-11996565D01*
X12433731Y-11981633D01*
X12439250Y-11964980D01*
X12439923Y-11958390D01*
X12440022Y-11958146D01*
X12439985Y-11957885D01*
X12441335Y-11954929D01*
X12442563Y-11951921D01*
X12442778Y-11951769D01*
X12442888Y-11951530D01*
X12445622Y-11949773D01*
X12448281Y-11947905D01*
X12448612Y-11947851D01*
X12448765Y-11947752D01*
X12452259Y-11947250D01*
X12466191Y-11947250D01*
X12472895Y-11949218D01*
X12477470Y-11954499D01*
X12478527Y-11958390D01*
X12479200Y-11964980D01*
X12479200Y-11964980D01*
X12480597Y-11969195D01*
X12484719Y-11981633D01*
X12493929Y-11996566D01*
X12506334Y-12008971D01*
X12521267Y-12018181D01*
X12537920Y-12023700D01*
X12548199Y-12024750D01*
X12638201Y-12024750D01*
X12638202Y-12024750D01*
X12638202Y-12024750D01*
X12643830Y-12024175D01*
X12648480Y-12023700D01*
X12665133Y-12018181D01*
X12680066Y-12008971D01*
X12692471Y-11996566D01*
X12701681Y-11981633D01*
X12707200Y-11964980D01*
X12708250Y-11954701D01*
X12708250Y-11819699D01*
X12707364Y-11811028D01*
X12707200Y-11809420D01*
X12707200Y-11809420D01*
X12701681Y-11792767D01*
X12692471Y-11777834D01*
X12680066Y-11765429D01*
X12665133Y-11756219D01*
X12648480Y-11750700D01*
X12648479Y-11750700D01*
X12638201Y-11749650D01*
X12548200Y-11749650D01*
X12548198Y-11749650D01*
X12537920Y-11750700D01*
X12537920Y-11750700D01*
X12521267Y-11756218D01*
X12521266Y-11756219D01*
X12506334Y-11765429D01*
X12493929Y-11777834D01*
X12484719Y-11792766D01*
X12484718Y-11792767D01*
X12479200Y-11809420D01*
X12479200Y-11809420D01*
X12478527Y-11816010D01*
X12478427Y-11816254D01*
X12478465Y-11816515D01*
X12477114Y-11819471D01*
X12475887Y-11822479D01*
X12475672Y-11822631D01*
X12475562Y-11822870D01*
X12472828Y-11824627D01*
X12470169Y-11826495D01*
X12469838Y-11826549D01*
X12469684Y-11826648D01*
X12466191Y-11827150D01*
X12452259Y-11827150D01*
X12445555Y-11825181D01*
X12440979Y-11819901D01*
X12439923Y-11816010D01*
X12439414Y-11811028D01*
X12439250Y-11809420D01*
X12433731Y-11792767D01*
X12433731Y-11792766D01*
X12433731Y-11792766D01*
X12424521Y-11777835D01*
X12424521Y-11777834D01*
X12412115Y-11765429D01*
X12412115Y-11765429D01*
X12397184Y-11756219D01*
X12397183Y-11756219D01*
X12385300Y-11752281D01*
X12380530Y-11750700D01*
X12380529Y-11750700D01*
X12370251Y-11749650D01*
X12370251Y-11749650D01*
X12267749Y-11749650D01*
X12267748Y-11749650D01*
X12257470Y-11750700D01*
X12257470Y-11750700D01*
X12240816Y-11756219D01*
X12240816Y-11756219D01*
X12225885Y-11765429D01*
X12225884Y-11765429D01*
X12213479Y-11777834D01*
X12213479Y-11777835D01*
X12205854Y-11790196D01*
X12200659Y-11794869D01*
X12193763Y-11795991D01*
X12187355Y-11793207D01*
X12183469Y-11787400D01*
X12182900Y-11783687D01*
X12182900Y-11609713D01*
X12184868Y-11603009D01*
X12190149Y-11598434D01*
X12197065Y-11597439D01*
X12203420Y-11600342D01*
X12205853Y-11603203D01*
X12209869Y-11609713D01*
X12213479Y-11615566D01*
X12225884Y-11627971D01*
X12225885Y-11627971D01*
X12240816Y-11637181D01*
X12240816Y-11637181D01*
X12240817Y-11637181D01*
X12257470Y-11642700D01*
X12267749Y-11643750D01*
X12267750Y-11643750D01*
X12370250Y-11643750D01*
X12370251Y-11643750D01*
X12380530Y-11642700D01*
X12397183Y-11637181D01*
X12412115Y-11627971D01*
X12424521Y-11615565D01*
X12433731Y-11600633D01*
X12439250Y-11583980D01*
X12439923Y-11577390D01*
X12440022Y-11577146D01*
X12439985Y-11576885D01*
X12441335Y-11573929D01*
X12442563Y-11570921D01*
X12442778Y-11570769D01*
X12442888Y-11570530D01*
X12445622Y-11568773D01*
X12448281Y-11566905D01*
X12448612Y-11566851D01*
X12448765Y-11566752D01*
X12452259Y-11566250D01*
X12466191Y-11566250D01*
X12472895Y-11568218D01*
X12477470Y-11573499D01*
X12478527Y-11577390D01*
X12479200Y-11583980D01*
X12479200Y-11583980D01*
X12483660Y-11597439D01*
X12484719Y-11600633D01*
X12493929Y-11615566D01*
X12506334Y-11627971D01*
X12521267Y-11637181D01*
X12537920Y-11642700D01*
X12548199Y-11643750D01*
X12638201Y-11643750D01*
X12638202Y-11643750D01*
X12638202Y-11643750D01*
X12643830Y-11643175D01*
X12648480Y-11642700D01*
X12665133Y-11637181D01*
X12680066Y-11627971D01*
X12692471Y-11615566D01*
X12701681Y-11600633D01*
X12707200Y-11583980D01*
X12708250Y-11573701D01*
X12708250Y-11438699D01*
X12707468Y-11431041D01*
X12707200Y-11428420D01*
X12707200Y-11428420D01*
X12701681Y-11411767D01*
X12692471Y-11396834D01*
X12680066Y-11384429D01*
X12665133Y-11375219D01*
X12648480Y-11369700D01*
X12648479Y-11369700D01*
X12638201Y-11368650D01*
X12548200Y-11368650D01*
X12548198Y-11368650D01*
X12537920Y-11369700D01*
X12537920Y-11369700D01*
X12521267Y-11375218D01*
X12521266Y-11375219D01*
X12506334Y-11384429D01*
X12493929Y-11396834D01*
X12484719Y-11411766D01*
X12484718Y-11411767D01*
X12479200Y-11428420D01*
X12479200Y-11428420D01*
X12478527Y-11435010D01*
X12478427Y-11435254D01*
X12478465Y-11435515D01*
X12477114Y-11438471D01*
X12475887Y-11441479D01*
X12475672Y-11441631D01*
X12475562Y-11441870D01*
X12472828Y-11443627D01*
X12470169Y-11445495D01*
X12469838Y-11445549D01*
X12469684Y-11445648D01*
X12466191Y-11446150D01*
X12452259Y-11446150D01*
X12445555Y-11444181D01*
X12440979Y-11438901D01*
X12439923Y-11435010D01*
X12439518Y-11431041D01*
X12439250Y-11428420D01*
X12433731Y-11411767D01*
X12433731Y-11411766D01*
X12433731Y-11411766D01*
X12424521Y-11396835D01*
X12424521Y-11396834D01*
X12412115Y-11384429D01*
X12412115Y-11384429D01*
X12397184Y-11375219D01*
X12397183Y-11375219D01*
X12385300Y-11371281D01*
X12380530Y-11369700D01*
X12380529Y-11369700D01*
X12370251Y-11368650D01*
X12370251Y-11368650D01*
X12267749Y-11368650D01*
X12267748Y-11368650D01*
X12257470Y-11369700D01*
X12257470Y-11369700D01*
X12240816Y-11375219D01*
X12240816Y-11375219D01*
X12225885Y-11384429D01*
X12225884Y-11384429D01*
X12213479Y-11396834D01*
X12213479Y-11396835D01*
X12204269Y-11411766D01*
X12204269Y-11411766D01*
X12198750Y-11428420D01*
X12198750Y-11428420D01*
X12197700Y-11438698D01*
X12197700Y-11570816D01*
X12195731Y-11577520D01*
X12190451Y-11582096D01*
X12183535Y-11583090D01*
X12177180Y-11580188D01*
X12174561Y-11577016D01*
X12170902Y-11570679D01*
X12170902Y-11570679D01*
X12170902Y-11570678D01*
X12159722Y-11559498D01*
X12159721Y-11559498D01*
X12159288Y-11559065D01*
X12159287Y-11559064D01*
X12146432Y-11546208D01*
X12143083Y-11540076D01*
X12142800Y-11537440D01*
X12142800Y-11438700D01*
X12142800Y-11438698D01*
X12142018Y-11431041D01*
X12141750Y-11428420D01*
X12136231Y-11411767D01*
X12136231Y-11411766D01*
X12136231Y-11411766D01*
X12127021Y-11396835D01*
X12127021Y-11396834D01*
X12114615Y-11384429D01*
X12114615Y-11384429D01*
X12099684Y-11375219D01*
X12099683Y-11375219D01*
X12087800Y-11371281D01*
X12083030Y-11369700D01*
X12083029Y-11369700D01*
X12072751Y-11368650D01*
X12072751Y-11368650D01*
X11974010Y-11368650D01*
X11967306Y-11366681D01*
X11965242Y-11365018D01*
X11925482Y-11325258D01*
X11922133Y-11319126D01*
X11921850Y-11316490D01*
X11921850Y-11265158D01*
X11923818Y-11258454D01*
X11929099Y-11253879D01*
X11936015Y-11252884D01*
X11940760Y-11254604D01*
X11943317Y-11256181D01*
X11959970Y-11261700D01*
X11970249Y-11262750D01*
X11970250Y-11262750D01*
X12072750Y-11262750D01*
X12072751Y-11262750D01*
X12083030Y-11261700D01*
X12099683Y-11256181D01*
X12114615Y-11246971D01*
X12127021Y-11234565D01*
X12136231Y-11219633D01*
X12141750Y-11202980D01*
X12142800Y-11192701D01*
X12142800Y-11057699D01*
X12142800Y-11057698D01*
X12197700Y-11057698D01*
X12197700Y-11192701D01*
X12198750Y-11202979D01*
X12198750Y-11202980D01*
X12199940Y-11206571D01*
X12204269Y-11219633D01*
X12204269Y-11219634D01*
X12213479Y-11234565D01*
X12213479Y-11234565D01*
X12225884Y-11246971D01*
X12225885Y-11246971D01*
X12240816Y-11256181D01*
X12240816Y-11256181D01*
X12240817Y-11256181D01*
X12257470Y-11261700D01*
X12267749Y-11262750D01*
X12267750Y-11262750D01*
X12370250Y-11262750D01*
X12370251Y-11262750D01*
X12380530Y-11261700D01*
X12397183Y-11256181D01*
X12412115Y-11246971D01*
X12424521Y-11234565D01*
X12433731Y-11219633D01*
X12439250Y-11202980D01*
X12439923Y-11196390D01*
X12440022Y-11196146D01*
X12439985Y-11195885D01*
X12441335Y-11192929D01*
X12442563Y-11189921D01*
X12442778Y-11189769D01*
X12442888Y-11189530D01*
X12445622Y-11187773D01*
X12448281Y-11185905D01*
X12448612Y-11185851D01*
X12448765Y-11185752D01*
X12452259Y-11185250D01*
X12466191Y-11185250D01*
X12472895Y-11187218D01*
X12477470Y-11192499D01*
X12478527Y-11196390D01*
X12479200Y-11202980D01*
X12479200Y-11202980D01*
X12484718Y-11219633D01*
X12484719Y-11219634D01*
X12487577Y-11224268D01*
X12493929Y-11234566D01*
X12506334Y-11246971D01*
X12521267Y-11256181D01*
X12537920Y-11261700D01*
X12548199Y-11262750D01*
X12638201Y-11262750D01*
X12638202Y-11262750D01*
X12638202Y-11262750D01*
X12643830Y-11262175D01*
X12648480Y-11261700D01*
X12665133Y-11256181D01*
X12680066Y-11246971D01*
X12692471Y-11234566D01*
X12701681Y-11219633D01*
X12707200Y-11202980D01*
X12708250Y-11192701D01*
X12708250Y-11057699D01*
X12707604Y-11051380D01*
X12707200Y-11047420D01*
X12707200Y-11047420D01*
X12704658Y-11039750D01*
X12701681Y-11030767D01*
X12692471Y-11015834D01*
X12680066Y-11003429D01*
X12668787Y-10996472D01*
X12665134Y-10994219D01*
X12665133Y-10994219D01*
X12661543Y-10993029D01*
X12648480Y-10988700D01*
X12648479Y-10988700D01*
X12638201Y-10987650D01*
X12548200Y-10987650D01*
X12548198Y-10987650D01*
X12537920Y-10988700D01*
X12537920Y-10988700D01*
X12521267Y-10994219D01*
X12521266Y-10994219D01*
X12506334Y-11003429D01*
X12493929Y-11015834D01*
X12484719Y-11030766D01*
X12484718Y-11030767D01*
X12483629Y-11034054D01*
X12479240Y-11047301D01*
X12479200Y-11047420D01*
X12479200Y-11047421D01*
X12478527Y-11054010D01*
X12478427Y-11054254D01*
X12478465Y-11054515D01*
X12477114Y-11057471D01*
X12475887Y-11060480D01*
X12475672Y-11060631D01*
X12475562Y-11060870D01*
X12472828Y-11062627D01*
X12470169Y-11064495D01*
X12469838Y-11064549D01*
X12469684Y-11064648D01*
X12466191Y-11065150D01*
X12452259Y-11065150D01*
X12445555Y-11063182D01*
X12440979Y-11057901D01*
X12439923Y-11054010D01*
X12439250Y-11047421D01*
X12439250Y-11047420D01*
X12439250Y-11047420D01*
X12433731Y-11030767D01*
X12433731Y-11030766D01*
X12433731Y-11030766D01*
X12424521Y-11015835D01*
X12424521Y-11015834D01*
X12412115Y-11003429D01*
X12412115Y-11003429D01*
X12397184Y-10994219D01*
X12397183Y-10994219D01*
X12381284Y-10988950D01*
X12380530Y-10988700D01*
X12380529Y-10988700D01*
X12370251Y-10987650D01*
X12370251Y-10987650D01*
X12267749Y-10987650D01*
X12267748Y-10987650D01*
X12257470Y-10988700D01*
X12257470Y-10988700D01*
X12240816Y-10994219D01*
X12240816Y-10994219D01*
X12225885Y-11003429D01*
X12225884Y-11003429D01*
X12213479Y-11015834D01*
X12213479Y-11015835D01*
X12204269Y-11030766D01*
X12204269Y-11030766D01*
X12198750Y-11047420D01*
X12198750Y-11047420D01*
X12197700Y-11057698D01*
X12142800Y-11057698D01*
X12141750Y-11047420D01*
X12136231Y-11030767D01*
X12136231Y-11030766D01*
X12136231Y-11030766D01*
X12127021Y-11015835D01*
X12127021Y-11015834D01*
X12114615Y-11003429D01*
X12114615Y-11003429D01*
X12099684Y-10994219D01*
X12090049Y-10991026D01*
X12084305Y-10987049D01*
X12081623Y-10980597D01*
X12081550Y-10979256D01*
X12081550Y-10055710D01*
X12083518Y-10049006D01*
X12085182Y-10046942D01*
X12264042Y-9868082D01*
X12270174Y-9864733D01*
X12272810Y-9864450D01*
X13910533Y-9864450D01*
X13910535Y-9864450D01*
X13911294Y-9864450D01*
X13927105Y-9864450D01*
X13927106Y-9864450D01*
X13942378Y-9860358D01*
X13947390Y-9857464D01*
X13956072Y-9852452D01*
X13967252Y-9841272D01*
X13967252Y-9841271D01*
X13968273Y-9840251D01*
X13968273Y-9840250D01*
X14043452Y-9765072D01*
X14051358Y-9751378D01*
X14055450Y-9736106D01*
X14055450Y-9720294D01*
X14055450Y-9719535D01*
X14055450Y-9719533D01*
X14055450Y-9677897D01*
X14057418Y-9671193D01*
X14062699Y-9666617D01*
X14063105Y-9666440D01*
X14075204Y-9661429D01*
X14075204Y-9661429D01*
X14075205Y-9661428D01*
X14095645Y-9649627D01*
X14114370Y-9635259D01*
X14116463Y-9633166D01*
X14119865Y-9629764D01*
X14131059Y-9618570D01*
X14131059Y-9618570D01*
X14145427Y-9599845D01*
X14157228Y-9579405D01*
X14166261Y-9557599D01*
X14172369Y-9534801D01*
X14175450Y-9511401D01*
X14175450Y-9487801D01*
X14323400Y-9487801D01*
X14323400Y-9511399D01*
X14326480Y-9534791D01*
X14332587Y-9557584D01*
X14341616Y-9579382D01*
X14341616Y-9579383D01*
X14353414Y-9599817D01*
X14353414Y-9599817D01*
X14359672Y-9607972D01*
X14443296Y-9524349D01*
X14445798Y-9530389D01*
X14452911Y-9541035D01*
X14461965Y-9550089D01*
X14472611Y-9557202D01*
X14478651Y-9559704D01*
X14395027Y-9643328D01*
X14403183Y-9649585D01*
X14403183Y-9649586D01*
X14423617Y-9661383D01*
X14423618Y-9661384D01*
X14445416Y-9670413D01*
X14445416Y-9670413D01*
X14468208Y-9676520D01*
X14491601Y-9679600D01*
X14491603Y-9679600D01*
X14515197Y-9679600D01*
X14515198Y-9679600D01*
X14538591Y-9676520D01*
X14561384Y-9670413D01*
X14583182Y-9661384D01*
X14583183Y-9661383D01*
X14603618Y-9649585D01*
X14611772Y-9643328D01*
X14611772Y-9643328D01*
X14528149Y-9559704D01*
X14534189Y-9557202D01*
X14544835Y-9550089D01*
X14553889Y-9541035D01*
X14561002Y-9530389D01*
X14563504Y-9524349D01*
X14647128Y-9607972D01*
X14647128Y-9607972D01*
X14653385Y-9599818D01*
X14665183Y-9579383D01*
X14665184Y-9579382D01*
X14674213Y-9557584D01*
X14680320Y-9534791D01*
X14683400Y-9511399D01*
X14683400Y-9511397D01*
X14683400Y-9487803D01*
X14683400Y-9487801D01*
X14831400Y-9487801D01*
X14831400Y-9511399D01*
X14834480Y-9534791D01*
X14840587Y-9557584D01*
X14849616Y-9579382D01*
X14849616Y-9579383D01*
X14861414Y-9599817D01*
X14861414Y-9599817D01*
X14867672Y-9607972D01*
X14951296Y-9524349D01*
X14953798Y-9530389D01*
X14960911Y-9541035D01*
X14969965Y-9550089D01*
X14980611Y-9557202D01*
X14986651Y-9559704D01*
X14903027Y-9643328D01*
X14911183Y-9649585D01*
X14911183Y-9649586D01*
X14931617Y-9661383D01*
X14931618Y-9661384D01*
X14953416Y-9670413D01*
X14953416Y-9670413D01*
X14976208Y-9676520D01*
X14999601Y-9679600D01*
X14999603Y-9679600D01*
X15023197Y-9679600D01*
X15023198Y-9679600D01*
X15046591Y-9676520D01*
X15069384Y-9670413D01*
X15091182Y-9661384D01*
X15091183Y-9661383D01*
X15111618Y-9649585D01*
X15119772Y-9643328D01*
X15119772Y-9643328D01*
X15036149Y-9559704D01*
X15042189Y-9557202D01*
X15052835Y-9550089D01*
X15061889Y-9541035D01*
X15069002Y-9530389D01*
X15071504Y-9524349D01*
X15155128Y-9607972D01*
X15155128Y-9607972D01*
X15161385Y-9599818D01*
X15173183Y-9579383D01*
X15173184Y-9579382D01*
X15182213Y-9557584D01*
X15188320Y-9534791D01*
X15191400Y-9511399D01*
X15191400Y-9511397D01*
X15191400Y-9487803D01*
X15191400Y-9487801D01*
X15188320Y-9464409D01*
X15182213Y-9441616D01*
X15173184Y-9419818D01*
X15173183Y-9419817D01*
X15161385Y-9399383D01*
X15161385Y-9399383D01*
X15155128Y-9391228D01*
X15071504Y-9474851D01*
X15069002Y-9468811D01*
X15061889Y-9458165D01*
X15052835Y-9449111D01*
X15042189Y-9441998D01*
X15036149Y-9439496D01*
X15119772Y-9355872D01*
X15111617Y-9349615D01*
X15111617Y-9349614D01*
X15091183Y-9337817D01*
X15091182Y-9337816D01*
X15069384Y-9328787D01*
X15069384Y-9328787D01*
X15046591Y-9322680D01*
X15023198Y-9319600D01*
X14999601Y-9319600D01*
X14976208Y-9322680D01*
X14953416Y-9328787D01*
X14931618Y-9337816D01*
X14931617Y-9337817D01*
X14911183Y-9349614D01*
X14911182Y-9349615D01*
X14903027Y-9355872D01*
X14903027Y-9355872D01*
X14986651Y-9439496D01*
X14980611Y-9441998D01*
X14969965Y-9449111D01*
X14960911Y-9458165D01*
X14953798Y-9468811D01*
X14951296Y-9474851D01*
X14867672Y-9391228D01*
X14867672Y-9391228D01*
X14861415Y-9399382D01*
X14861414Y-9399383D01*
X14849616Y-9419817D01*
X14849616Y-9419818D01*
X14840587Y-9441616D01*
X14834480Y-9464409D01*
X14831400Y-9487801D01*
X14683400Y-9487801D01*
X14680320Y-9464409D01*
X14674213Y-9441616D01*
X14665184Y-9419818D01*
X14665183Y-9419817D01*
X14653385Y-9399383D01*
X14653385Y-9399383D01*
X14647128Y-9391228D01*
X14563504Y-9474851D01*
X14561002Y-9468811D01*
X14553889Y-9458165D01*
X14544835Y-9449111D01*
X14534189Y-9441998D01*
X14528149Y-9439496D01*
X14611772Y-9355872D01*
X14603617Y-9349615D01*
X14603617Y-9349614D01*
X14583183Y-9337817D01*
X14583182Y-9337816D01*
X14561384Y-9328787D01*
X14561384Y-9328787D01*
X14538591Y-9322680D01*
X14515198Y-9319600D01*
X14491601Y-9319600D01*
X14468208Y-9322680D01*
X14445416Y-9328787D01*
X14423618Y-9337816D01*
X14423617Y-9337817D01*
X14403183Y-9349614D01*
X14403182Y-9349615D01*
X14395027Y-9355872D01*
X14395027Y-9355872D01*
X14478651Y-9439496D01*
X14472611Y-9441998D01*
X14461965Y-9449111D01*
X14452911Y-9458165D01*
X14445798Y-9468811D01*
X14443296Y-9474851D01*
X14359672Y-9391228D01*
X14359672Y-9391228D01*
X14353415Y-9399382D01*
X14353414Y-9399383D01*
X14341616Y-9419817D01*
X14341616Y-9419818D01*
X14332587Y-9441616D01*
X14326480Y-9464409D01*
X14323400Y-9487801D01*
X14175450Y-9487801D01*
X14175450Y-9487799D01*
X14172369Y-9464399D01*
X14166261Y-9441601D01*
X14157228Y-9419795D01*
X14157228Y-9419795D01*
X14157228Y-9419794D01*
X14153012Y-9412492D01*
X14145427Y-9399355D01*
X14131059Y-9380630D01*
X14131059Y-9380630D01*
X14114370Y-9363941D01*
X14114370Y-9363941D01*
X14095645Y-9349573D01*
X14095645Y-9349573D01*
X14095645Y-9349573D01*
X14087496Y-9344868D01*
X14075206Y-9337772D01*
X14075204Y-9337771D01*
X14053399Y-9328739D01*
X14030601Y-9322631D01*
X14007202Y-9319550D01*
X14007202Y-9319550D01*
X14007201Y-9319550D01*
X13983599Y-9319550D01*
X13983598Y-9319550D01*
X13983598Y-9319550D01*
X13960199Y-9322631D01*
X13937401Y-9328739D01*
X13915595Y-9337771D01*
X13915594Y-9337772D01*
X13895154Y-9349573D01*
X13876430Y-9363941D01*
X13876429Y-9363941D01*
X13859741Y-9380630D01*
X13859741Y-9380630D01*
X13845373Y-9399355D01*
X13845373Y-9399355D01*
X13845373Y-9399355D01*
X13844601Y-9400691D01*
X13833572Y-9419794D01*
X13833571Y-9419795D01*
X13824539Y-9441601D01*
X13818431Y-9464399D01*
X13815350Y-9487798D01*
X13815350Y-9487800D01*
X13815350Y-9511400D01*
X13815350Y-9511402D01*
X13818429Y-9534791D01*
X13818431Y-9534801D01*
X13818586Y-9535382D01*
X13824539Y-9557599D01*
X13833571Y-9579405D01*
X13833572Y-9579406D01*
X13839481Y-9589640D01*
X13845373Y-9599845D01*
X13845373Y-9599845D01*
X13845373Y-9599845D01*
X13859741Y-9618570D01*
X13859741Y-9618570D01*
X13876429Y-9635259D01*
X13876430Y-9635259D01*
X13887431Y-9643700D01*
X13895155Y-9649627D01*
X13915595Y-9661428D01*
X13915596Y-9661429D01*
X13915596Y-9661429D01*
X13927695Y-9666440D01*
X13929252Y-9667695D01*
X13931070Y-9668525D01*
X13931917Y-9669842D01*
X13933136Y-9670824D01*
X13933767Y-9672721D01*
X13934848Y-9674403D01*
X13935244Y-9677159D01*
X13935342Y-9677454D01*
X13935350Y-9677897D01*
X13935350Y-9698190D01*
X13933381Y-9704894D01*
X13931718Y-9706958D01*
X13897958Y-9740718D01*
X13891826Y-9744067D01*
X13889190Y-9744350D01*
X13357510Y-9744350D01*
X13350806Y-9742382D01*
X13346230Y-9737101D01*
X13345236Y-9730185D01*
X13348138Y-9723830D01*
X13348742Y-9723182D01*
X13359422Y-9712502D01*
X13403787Y-9668136D01*
X13409919Y-9664788D01*
X13416888Y-9665286D01*
X13417300Y-9665448D01*
X13429401Y-9670461D01*
X13452199Y-9676569D01*
X13475599Y-9679650D01*
X13475600Y-9679650D01*
X13499200Y-9679650D01*
X13499201Y-9679650D01*
X13522601Y-9676569D01*
X13545399Y-9670461D01*
X13567205Y-9661428D01*
X13587645Y-9649627D01*
X13606370Y-9635259D01*
X13623059Y-9618570D01*
X13637427Y-9599845D01*
X13649228Y-9579405D01*
X13658261Y-9557599D01*
X13664369Y-9534801D01*
X13667450Y-9511401D01*
X13667450Y-9487799D01*
X13664369Y-9464399D01*
X13658261Y-9441601D01*
X13649228Y-9419795D01*
X13649228Y-9419795D01*
X13649228Y-9419794D01*
X13645012Y-9412492D01*
X13637427Y-9399355D01*
X13623059Y-9380630D01*
X13623059Y-9380630D01*
X13606370Y-9363941D01*
X13606370Y-9363941D01*
X13587645Y-9349573D01*
X13587645Y-9349573D01*
X13587645Y-9349573D01*
X13579496Y-9344868D01*
X13567206Y-9337772D01*
X13567204Y-9337771D01*
X13545399Y-9328739D01*
X13522601Y-9322631D01*
X13499202Y-9319550D01*
X13499202Y-9319550D01*
X13499201Y-9319550D01*
X13475599Y-9319550D01*
X13475598Y-9319550D01*
X13475598Y-9319550D01*
X13452199Y-9322631D01*
X13429401Y-9328739D01*
X13407595Y-9337771D01*
X13407594Y-9337772D01*
X13387154Y-9349573D01*
X13368430Y-9363941D01*
X13368429Y-9363941D01*
X13351741Y-9380630D01*
X13351741Y-9380630D01*
X13337373Y-9399355D01*
X13337373Y-9399355D01*
X13337373Y-9399355D01*
X13336601Y-9400691D01*
X13325572Y-9419794D01*
X13325571Y-9419795D01*
X13316539Y-9441601D01*
X13310431Y-9464399D01*
X13307350Y-9487798D01*
X13307350Y-9487800D01*
X13307350Y-9511400D01*
X13307350Y-9511402D01*
X13310429Y-9534791D01*
X13310431Y-9534801D01*
X13316539Y-9557599D01*
X13321198Y-9568846D01*
X13321551Y-9569699D01*
X13322298Y-9576646D01*
X13319171Y-9582894D01*
X13318863Y-9583213D01*
X13212158Y-9689918D01*
X13206026Y-9693267D01*
X13203390Y-9693550D01*
X13043995Y-9693550D01*
X13037292Y-9691582D01*
X13032716Y-9686301D01*
X13031722Y-9679385D01*
X13034624Y-9673030D01*
X13039250Y-9669694D01*
X13059205Y-9661428D01*
X13079645Y-9649627D01*
X13098370Y-9635259D01*
X13115059Y-9618570D01*
X13129427Y-9599845D01*
X13141228Y-9579405D01*
X13150261Y-9557599D01*
X13156369Y-9534801D01*
X13159450Y-9511401D01*
X13159450Y-9487799D01*
X13156369Y-9464399D01*
X13150261Y-9441601D01*
X13141228Y-9419795D01*
X13141228Y-9419795D01*
X13141228Y-9419794D01*
X13137012Y-9412492D01*
X13129427Y-9399355D01*
X13115059Y-9380630D01*
X13115059Y-9380630D01*
X13098370Y-9363941D01*
X13098370Y-9363941D01*
X13079645Y-9349573D01*
X13079645Y-9349573D01*
X13079645Y-9349573D01*
X13071496Y-9344868D01*
X13059206Y-9337772D01*
X13059204Y-9337771D01*
X13037399Y-9328739D01*
X13014601Y-9322631D01*
X12991202Y-9319550D01*
X12991202Y-9319550D01*
X12991201Y-9319550D01*
X12967599Y-9319550D01*
X12967598Y-9319550D01*
X12967598Y-9319550D01*
X12944199Y-9322631D01*
X12921401Y-9328739D01*
X12899595Y-9337771D01*
X12899594Y-9337772D01*
X12879154Y-9349573D01*
X12860430Y-9363941D01*
X12860429Y-9363941D01*
X12843741Y-9380630D01*
X12843741Y-9380630D01*
X12829373Y-9399355D01*
X12829373Y-9399355D01*
X12829373Y-9399355D01*
X12828601Y-9400691D01*
X12817572Y-9419794D01*
X12817571Y-9419795D01*
X12808539Y-9441601D01*
X12802431Y-9464399D01*
X12799350Y-9487798D01*
X12799350Y-9487800D01*
X12799350Y-9511400D01*
X12799350Y-9511402D01*
X12802429Y-9534791D01*
X12802431Y-9534801D01*
X12802586Y-9535382D01*
X12808539Y-9557599D01*
X12817571Y-9579405D01*
X12817572Y-9579406D01*
X12823481Y-9589640D01*
X12829373Y-9599845D01*
X12829373Y-9599845D01*
X12829373Y-9599845D01*
X12843741Y-9618570D01*
X12843741Y-9618570D01*
X12860429Y-9635259D01*
X12860430Y-9635259D01*
X12871431Y-9643700D01*
X12879155Y-9649627D01*
X12892292Y-9657212D01*
X12899594Y-9661428D01*
X12899595Y-9661428D01*
X12899595Y-9661428D01*
X12919550Y-9669694D01*
X12924990Y-9674078D01*
X12927197Y-9680707D01*
X12925469Y-9687477D01*
X12920355Y-9692238D01*
X12914804Y-9693550D01*
X12618872Y-9693550D01*
X12612168Y-9691582D01*
X12607593Y-9686301D01*
X12606599Y-9679385D01*
X12609501Y-9673030D01*
X12612363Y-9670596D01*
X12612582Y-9670461D01*
X12623266Y-9663871D01*
X12635671Y-9651466D01*
X12644881Y-9636533D01*
X12650400Y-9619880D01*
X12651450Y-9609601D01*
X12651450Y-9389599D01*
X12650400Y-9379320D01*
X12644881Y-9362667D01*
X12635671Y-9347734D01*
X12623266Y-9335329D01*
X12608333Y-9326119D01*
X12591680Y-9320600D01*
X12591679Y-9320600D01*
X12581401Y-9319550D01*
X12361400Y-9319550D01*
X12361398Y-9319550D01*
X12351120Y-9320600D01*
X12351120Y-9320600D01*
X12334467Y-9326119D01*
X12334466Y-9326119D01*
X12319534Y-9335329D01*
X12307129Y-9347734D01*
X12297919Y-9362666D01*
X12297918Y-9362667D01*
X12295451Y-9370114D01*
X12292400Y-9379320D01*
X12292400Y-9379320D01*
X12292400Y-9379320D01*
X12291350Y-9389598D01*
X12291350Y-9513390D01*
X12289381Y-9520094D01*
X12287718Y-9522158D01*
X11875729Y-9934148D01*
X11864548Y-9945328D01*
X11864548Y-9945329D01*
X11859750Y-9953638D01*
X11859750Y-9953638D01*
X11856642Y-9959021D01*
X11856642Y-9959022D01*
X11852550Y-9974294D01*
X11852550Y-9974295D01*
X11852550Y-9991105D01*
X11852550Y-9991106D01*
X11852550Y-10764990D01*
X11850581Y-10771694D01*
X11848918Y-10773758D01*
X11739629Y-10883047D01*
X11733497Y-10886396D01*
X11726527Y-10885898D01*
X11723025Y-10883890D01*
X11713141Y-10875831D01*
X11713141Y-10875830D01*
X11713141Y-10875830D01*
X11695105Y-10866409D01*
X11695105Y-10866409D01*
X11695104Y-10866409D01*
X11683131Y-10862983D01*
X11675542Y-10860811D01*
X11675541Y-10860811D01*
X11675541Y-10860811D01*
X11668910Y-10860222D01*
X11663604Y-10859750D01*
X11663603Y-10859750D01*
X11551997Y-10859750D01*
X11551996Y-10859750D01*
X11551996Y-10859750D01*
X11550832Y-10859854D01*
X11540058Y-10860811D01*
X11520495Y-10866409D01*
X11515822Y-10868850D01*
X11502459Y-10875830D01*
X11502459Y-10875830D01*
X11502459Y-10875830D01*
X11486689Y-10888689D01*
X11473830Y-10904459D01*
X11473830Y-10904459D01*
X11472075Y-10907819D01*
X11464409Y-10922495D01*
X11461106Y-10934040D01*
X11459353Y-10940166D01*
X11458811Y-10942058D01*
X11458811Y-10942059D01*
X11457750Y-10953997D01*
X11457750Y-11027350D01*
X11455781Y-11034054D01*
X11450501Y-11038629D01*
X11445350Y-11039750D01*
X11134492Y-11039750D01*
X11127788Y-11037782D01*
X11123212Y-11032501D01*
X11123043Y-11032089D01*
X11114503Y-11014871D01*
X11114503Y-11014870D01*
X11102572Y-11000028D01*
X11102572Y-11000028D01*
X11095651Y-10994465D01*
X11091660Y-10988730D01*
X11091402Y-10981748D01*
X11094959Y-10975735D01*
X11095651Y-10975135D01*
X11098024Y-10973228D01*
X11102572Y-10969572D01*
X11114503Y-10954730D01*
X11122964Y-10937669D01*
X11127560Y-10919189D01*
X11127850Y-10914912D01*
X11127850Y-10824688D01*
X11127560Y-10820411D01*
X11127560Y-10820411D01*
X11127560Y-10820410D01*
X11126143Y-10814714D01*
X11126436Y-10807734D01*
X11127927Y-10804944D01*
X11127896Y-10804926D01*
X11132072Y-10797692D01*
X11136208Y-10790529D01*
X11140300Y-10775256D01*
X11140300Y-10759444D01*
X11140300Y-10758685D01*
X11140300Y-10758683D01*
X11140300Y-10626050D01*
X11142269Y-10619346D01*
X11147549Y-10614771D01*
X11152700Y-10613650D01*
X11260037Y-10613650D01*
X11260037Y-10613650D01*
X11265998Y-10613009D01*
X11279483Y-10607980D01*
X11291005Y-10599355D01*
X11299630Y-10587833D01*
X11304659Y-10574348D01*
X11305300Y-10568387D01*
X11305300Y-10215539D01*
X11307268Y-10208835D01*
X11312549Y-10204260D01*
X11319465Y-10203265D01*
X11325820Y-10206168D01*
X11329598Y-10212046D01*
X11329874Y-10213185D01*
X11329974Y-10213699D01*
X11338238Y-10235598D01*
X11350084Y-10255784D01*
X11350084Y-10255785D01*
X11365171Y-10273679D01*
X11365171Y-10273679D01*
X11383065Y-10288766D01*
X11383066Y-10288766D01*
X11403252Y-10300612D01*
X11425151Y-10308876D01*
X11448131Y-10313321D01*
X11453388Y-10313600D01*
X11453392Y-10313600D01*
X11525250Y-10313600D01*
X11525250Y-10313600D01*
X11525250Y-10231901D01*
X11530951Y-10235193D01*
X11543667Y-10238600D01*
X11556833Y-10238600D01*
X11569549Y-10235193D01*
X11575250Y-10231901D01*
X11575250Y-10313600D01*
X11647108Y-10313600D01*
X11647109Y-10313600D01*
X11652369Y-10313321D01*
X11675349Y-10308876D01*
X11697247Y-10300612D01*
X11717434Y-10288766D01*
X11717435Y-10288766D01*
X11735329Y-10273679D01*
X11735329Y-10273679D01*
X11750415Y-10255785D01*
X11750416Y-10255784D01*
X11762262Y-10235598D01*
X11770526Y-10213699D01*
X11774970Y-10190719D01*
X11774970Y-10190719D01*
X11775250Y-10185462D01*
X11775250Y-10185458D01*
X11775250Y-10113600D01*
X11600250Y-10113600D01*
X11600250Y-10063600D01*
X11775250Y-10063600D01*
X11775250Y-9991742D01*
X11775250Y-9991741D01*
X11774970Y-9986481D01*
X11770526Y-9963501D01*
X11762262Y-9941602D01*
X11750416Y-9921416D01*
X11750415Y-9921415D01*
X11735329Y-9903521D01*
X11735329Y-9903521D01*
X11717435Y-9888434D01*
X11717434Y-9888434D01*
X11697247Y-9876588D01*
X11675349Y-9868324D01*
X11652369Y-9863879D01*
X11647112Y-9863600D01*
X11647108Y-9863600D01*
X11575250Y-9863600D01*
X11575250Y-9945299D01*
X11569549Y-9942008D01*
X11556833Y-9938600D01*
X11543667Y-9938600D01*
X11530951Y-9942008D01*
X11525250Y-9945299D01*
X11525250Y-9863600D01*
X11453392Y-9863600D01*
X11453391Y-9863600D01*
X11448131Y-9863879D01*
X11425151Y-9868324D01*
X11403252Y-9876588D01*
X11383066Y-9888434D01*
X11383065Y-9888434D01*
X11365171Y-9903521D01*
X11365171Y-9903521D01*
X11350084Y-9921415D01*
X11350084Y-9921416D01*
X11338238Y-9941602D01*
X11329974Y-9963501D01*
X11325529Y-9986481D01*
X11325529Y-9986481D01*
X11325250Y-9991738D01*
X11325250Y-9991742D01*
X11325250Y-10063600D01*
X11500250Y-10063600D01*
X11500250Y-10113600D01*
X11325250Y-10113600D01*
X11325250Y-10185459D01*
X11325452Y-10189260D01*
X11323842Y-10196059D01*
X11318811Y-10200908D01*
X11311958Y-10202267D01*
X11305457Y-10199706D01*
X11301451Y-10194251D01*
X11299630Y-10189367D01*
X11299629Y-10189366D01*
X11291005Y-10177846D01*
X11291004Y-10177845D01*
X11279483Y-10169221D01*
X11279483Y-10169220D01*
X11265998Y-10164191D01*
X11265998Y-10164191D01*
X11260038Y-10163550D01*
X11260038Y-10163550D01*
X11260037Y-10163550D01*
X11260036Y-10163550D01*
X10900463Y-10163550D01*
X10900462Y-10163550D01*
X10894502Y-10164191D01*
X10881017Y-10169220D01*
X10881016Y-10169221D01*
X10869496Y-10177845D01*
X10869495Y-10177846D01*
X10860871Y-10189366D01*
X10860870Y-10189367D01*
X10855841Y-10202852D01*
X10855200Y-10208812D01*
X10855200Y-10208814D01*
X10855200Y-10568387D01*
X10855200Y-10568388D01*
X10855841Y-10574348D01*
X10860870Y-10587833D01*
X10860871Y-10587834D01*
X10869495Y-10599354D01*
X10869496Y-10599355D01*
X10881016Y-10607979D01*
X10881017Y-10607980D01*
X10894502Y-10613009D01*
X10894502Y-10613009D01*
X10895194Y-10613084D01*
X10900463Y-10613650D01*
X11007800Y-10613650D01*
X11014504Y-10615618D01*
X11019079Y-10620899D01*
X11020200Y-10626050D01*
X11020200Y-10732350D01*
X11018232Y-10739054D01*
X11012951Y-10743629D01*
X11007800Y-10744750D01*
X10907688Y-10744750D01*
X10907687Y-10744750D01*
X10903411Y-10745040D01*
X10903411Y-10745040D01*
X10884930Y-10749636D01*
X10867871Y-10758097D01*
X10867870Y-10758097D01*
X10853028Y-10770028D01*
X10853028Y-10770028D01*
X10844113Y-10781119D01*
X10838378Y-10785111D01*
X10834448Y-10785750D01*
X10789909Y-10785750D01*
X10783205Y-10783782D01*
X10778629Y-10778501D01*
X10778138Y-10777250D01*
X10774531Y-10766367D01*
X10765321Y-10751434D01*
X10752916Y-10739029D01*
X10737983Y-10729819D01*
X10721330Y-10724300D01*
X10721330Y-10724300D01*
X10711051Y-10723250D01*
X10633550Y-10723250D01*
X10633548Y-10723250D01*
X10623270Y-10724300D01*
X10623270Y-10724300D01*
X10606617Y-10729819D01*
X10606616Y-10729819D01*
X10591684Y-10739029D01*
X10579279Y-10751434D01*
X10579278Y-10751435D01*
X10579074Y-10751766D01*
X10578875Y-10751945D01*
X10578831Y-10752001D01*
X10578821Y-10751994D01*
X10573879Y-10756438D01*
X10566983Y-10757560D01*
X10560575Y-10754776D01*
X10557967Y-10751766D01*
X10557782Y-10751466D01*
X10557782Y-10751466D01*
X10545385Y-10739068D01*
X10530462Y-10729864D01*
X10530462Y-10729864D01*
X10513820Y-10724349D01*
X10513819Y-10724349D01*
X10503549Y-10723300D01*
X10489800Y-10723300D01*
X10489800Y-11087400D01*
X10487832Y-11094104D01*
X10482551Y-11098679D01*
X10477400Y-11099800D01*
X10464800Y-11099800D01*
X10464800Y-11112400D01*
X10462832Y-11119104D01*
X10457551Y-11123679D01*
X10452400Y-11124800D01*
X10356050Y-11124800D01*
X10261600Y-11124800D01*
X10261600Y-11047301D01*
X10356050Y-11047301D01*
X10356050Y-11074800D01*
X10439800Y-11074800D01*
X10439800Y-10870800D01*
X10356050Y-10870800D01*
X10356050Y-10898299D01*
X10357099Y-10908570D01*
X10362614Y-10925212D01*
X10362614Y-10925212D01*
X10371818Y-10940135D01*
X10384215Y-10952532D01*
X10399753Y-10962115D01*
X10399626Y-10962320D01*
X10404009Y-10966180D01*
X10405924Y-10972899D01*
X10403902Y-10979587D01*
X10399631Y-10983288D01*
X10399753Y-10983485D01*
X10384215Y-10993068D01*
X10371818Y-11005465D01*
X10362614Y-11020388D01*
X10362614Y-11020388D01*
X10357099Y-11037030D01*
X10357099Y-11037031D01*
X10356050Y-11047301D01*
X10261600Y-11047301D01*
X10261600Y-10793301D01*
X10356050Y-10793301D01*
X10356050Y-10820800D01*
X10439800Y-10820800D01*
X10439800Y-10723300D01*
X10426053Y-10723300D01*
X10426051Y-10723300D01*
X10415780Y-10724349D01*
X10399138Y-10729864D01*
X10399138Y-10729864D01*
X10384215Y-10739068D01*
X10371818Y-10751465D01*
X10362614Y-10766388D01*
X10362614Y-10766388D01*
X10357099Y-10783030D01*
X10357099Y-10783031D01*
X10356050Y-10793301D01*
X10261600Y-10793301D01*
X10261600Y-9707180D01*
X10855250Y-9707180D01*
X10855250Y-9763600D01*
X10936949Y-9763600D01*
X10933658Y-9769301D01*
X10930250Y-9782017D01*
X10930250Y-9795183D01*
X10933658Y-9807899D01*
X10936949Y-9813600D01*
X10855250Y-9813600D01*
X10855250Y-9870020D01*
X10856290Y-9883233D01*
X10861788Y-9905052D01*
X10871093Y-9925537D01*
X10871093Y-9925538D01*
X10883906Y-9944032D01*
X10883907Y-9944034D01*
X10899816Y-9959943D01*
X10899818Y-9959944D01*
X10918312Y-9972757D01*
X10918313Y-9972757D01*
X10938798Y-9982062D01*
X10960617Y-9987560D01*
X10973831Y-9988600D01*
X11055250Y-9988600D01*
X11055250Y-9988600D01*
X11055250Y-9838600D01*
X11105250Y-9838600D01*
X11105250Y-9988600D01*
X11186668Y-9988600D01*
X11186670Y-9988600D01*
X11199883Y-9987560D01*
X11221702Y-9982062D01*
X11225610Y-9980287D01*
X11225610Y-9980287D01*
X11242188Y-9972757D01*
X11242188Y-9972757D01*
X11260682Y-9959944D01*
X11260683Y-9959943D01*
X11276593Y-9944034D01*
X11276594Y-9944032D01*
X11289407Y-9925538D01*
X11289407Y-9925537D01*
X11298712Y-9905052D01*
X11304210Y-9883233D01*
X11305250Y-9870020D01*
X11305250Y-9870018D01*
X11305250Y-9813600D01*
X11223551Y-9813600D01*
X11226842Y-9807899D01*
X11230250Y-9795183D01*
X11230250Y-9782017D01*
X11226842Y-9769301D01*
X11223551Y-9763600D01*
X11305250Y-9763600D01*
X11305250Y-9707182D01*
X11305250Y-9707180D01*
X11304210Y-9693967D01*
X11298712Y-9672148D01*
X11289407Y-9651663D01*
X11289407Y-9651662D01*
X11276594Y-9633168D01*
X11276593Y-9633166D01*
X11260683Y-9617257D01*
X11260682Y-9617256D01*
X11242188Y-9604443D01*
X11242187Y-9604443D01*
X11221702Y-9595138D01*
X11199883Y-9589640D01*
X11186670Y-9588600D01*
X11105250Y-9588600D01*
X11105250Y-9738600D01*
X11055250Y-9738600D01*
X11055250Y-9588600D01*
X10973832Y-9588600D01*
X10973830Y-9588600D01*
X10960617Y-9589640D01*
X10938798Y-9595138D01*
X10918313Y-9604443D01*
X10918312Y-9604443D01*
X10899818Y-9617256D01*
X10899816Y-9617257D01*
X10883907Y-9633166D01*
X10883906Y-9633168D01*
X10871093Y-9651662D01*
X10871093Y-9651663D01*
X10861788Y-9672148D01*
X10856290Y-9693967D01*
X10855250Y-9707180D01*
X10261600Y-9707180D01*
X10261600Y-9062450D01*
X10263569Y-9055746D01*
X10268849Y-9051171D01*
X10274000Y-9050050D01*
X22937550Y-9050050D01*
X22944254Y-9052019D01*
G37*
%TD.AperFunction*%
%TD*%
M02*
