%TF.GenerationSoftware,KiCad,Pcbnew,9.0.2*%
%TF.CreationDate,2025-08-21T21:33:00+02:00*%
%TF.ProjectId,esp32c6-charger,65737033-3263-4362-9d63-686172676572,rev?*%
%TF.SameCoordinates,Original*%
%TF.FileFunction,AssemblyDrawing,Bot*%
%FSLAX45Y45*%
G04 Gerber Fmt 4.5, Leading zero omitted, Abs format (unit mm)*
G04 Created by KiCad (PCBNEW 9.0.2) date 2025-08-21 21:33:00*
%MOMM*%
%LPD*%
G01*
G04 APERTURE LIST*
%ADD10C,0.120000*%
%ADD11C,0.150000*%
%ADD12C,0.060000*%
%ADD13C,0.080000*%
%ADD14C,0.100000*%
%ADD15C,0.504000*%
G04 APERTURE END LIST*
D10*
X12229297Y-11161586D02*
X12229297Y-11081586D01*
X12229297Y-11081586D02*
X12210250Y-11081586D01*
X12210250Y-11081586D02*
X12198821Y-11085395D01*
X12198821Y-11085395D02*
X12191202Y-11093014D01*
X12191202Y-11093014D02*
X12187393Y-11100633D01*
X12187393Y-11100633D02*
X12183583Y-11115871D01*
X12183583Y-11115871D02*
X12183583Y-11127300D01*
X12183583Y-11127300D02*
X12187393Y-11142538D01*
X12187393Y-11142538D02*
X12191202Y-11150157D01*
X12191202Y-11150157D02*
X12198821Y-11157776D01*
X12198821Y-11157776D02*
X12210250Y-11161586D01*
X12210250Y-11161586D02*
X12229297Y-11161586D01*
X12115012Y-11108252D02*
X12115012Y-11161586D01*
X12134059Y-11077776D02*
X12153107Y-11134919D01*
X12153107Y-11134919D02*
X12103583Y-11134919D01*
X12229297Y-11542585D02*
X12229297Y-11462585D01*
X12229297Y-11462585D02*
X12210250Y-11462585D01*
X12210250Y-11462585D02*
X12198821Y-11466395D01*
X12198821Y-11466395D02*
X12191202Y-11474014D01*
X12191202Y-11474014D02*
X12187393Y-11481633D01*
X12187393Y-11481633D02*
X12183583Y-11496871D01*
X12183583Y-11496871D02*
X12183583Y-11508300D01*
X12183583Y-11508300D02*
X12187393Y-11523538D01*
X12187393Y-11523538D02*
X12191202Y-11531157D01*
X12191202Y-11531157D02*
X12198821Y-11538776D01*
X12198821Y-11538776D02*
X12210250Y-11542585D01*
X12210250Y-11542585D02*
X12229297Y-11542585D01*
X12153107Y-11470204D02*
X12149297Y-11466395D01*
X12149297Y-11466395D02*
X12141678Y-11462585D01*
X12141678Y-11462585D02*
X12122631Y-11462585D01*
X12122631Y-11462585D02*
X12115012Y-11466395D01*
X12115012Y-11466395D02*
X12111202Y-11470204D01*
X12111202Y-11470204D02*
X12107393Y-11477824D01*
X12107393Y-11477824D02*
X12107393Y-11485443D01*
X12107393Y-11485443D02*
X12111202Y-11496871D01*
X12111202Y-11496871D02*
X12156917Y-11542585D01*
X12156917Y-11542585D02*
X12107393Y-11542585D01*
D11*
X12776771Y-11649682D02*
X12795819Y-11649682D01*
X12795819Y-11649682D02*
X12805343Y-11654444D01*
X12805343Y-11654444D02*
X12810105Y-11659206D01*
X12810105Y-11659206D02*
X12819628Y-11673491D01*
X12819628Y-11673491D02*
X12824390Y-11692539D01*
X12824390Y-11692539D02*
X12824390Y-11730634D01*
X12824390Y-11730634D02*
X12819628Y-11740158D01*
X12819628Y-11740158D02*
X12814867Y-11744920D01*
X12814867Y-11744920D02*
X12805343Y-11749682D01*
X12805343Y-11749682D02*
X12786295Y-11749682D01*
X12786295Y-11749682D02*
X12776771Y-11744920D01*
X12776771Y-11744920D02*
X12772009Y-11740158D01*
X12772009Y-11740158D02*
X12767248Y-11730634D01*
X12767248Y-11730634D02*
X12767248Y-11706825D01*
X12767248Y-11706825D02*
X12772009Y-11697301D01*
X12772009Y-11697301D02*
X12776771Y-11692539D01*
X12776771Y-11692539D02*
X12786295Y-11687777D01*
X12786295Y-11687777D02*
X12805343Y-11687777D01*
X12805343Y-11687777D02*
X12814867Y-11692539D01*
X12814867Y-11692539D02*
X12819628Y-11697301D01*
X12819628Y-11697301D02*
X12824390Y-11706825D01*
X12710105Y-11692539D02*
X12719628Y-11687777D01*
X12719628Y-11687777D02*
X12724390Y-11683015D01*
X12724390Y-11683015D02*
X12729152Y-11673491D01*
X12729152Y-11673491D02*
X12729152Y-11668729D01*
X12729152Y-11668729D02*
X12724390Y-11659206D01*
X12724390Y-11659206D02*
X12719628Y-11654444D01*
X12719628Y-11654444D02*
X12710105Y-11649682D01*
X12710105Y-11649682D02*
X12691057Y-11649682D01*
X12691057Y-11649682D02*
X12681533Y-11654444D01*
X12681533Y-11654444D02*
X12676771Y-11659206D01*
X12676771Y-11659206D02*
X12672009Y-11668729D01*
X12672009Y-11668729D02*
X12672009Y-11673491D01*
X12672009Y-11673491D02*
X12676771Y-11683015D01*
X12676771Y-11683015D02*
X12681533Y-11687777D01*
X12681533Y-11687777D02*
X12691057Y-11692539D01*
X12691057Y-11692539D02*
X12710105Y-11692539D01*
X12710105Y-11692539D02*
X12719628Y-11697301D01*
X12719628Y-11697301D02*
X12724390Y-11702063D01*
X12724390Y-11702063D02*
X12729152Y-11711587D01*
X12729152Y-11711587D02*
X12729152Y-11730634D01*
X12729152Y-11730634D02*
X12724390Y-11740158D01*
X12724390Y-11740158D02*
X12719628Y-11744920D01*
X12719628Y-11744920D02*
X12710105Y-11749682D01*
X12710105Y-11749682D02*
X12691057Y-11749682D01*
X12691057Y-11749682D02*
X12681533Y-11744920D01*
X12681533Y-11744920D02*
X12676771Y-11740158D01*
X12676771Y-11740158D02*
X12672009Y-11730634D01*
X12672009Y-11730634D02*
X12672009Y-11711587D01*
X12672009Y-11711587D02*
X12676771Y-11702063D01*
X12676771Y-11702063D02*
X12681533Y-11697301D01*
X12681533Y-11697301D02*
X12691057Y-11692539D01*
D10*
X12761533Y-11923585D02*
X12788200Y-11885490D01*
X12807247Y-11923585D02*
X12807247Y-11843585D01*
X12807247Y-11843585D02*
X12776771Y-11843585D01*
X12776771Y-11843585D02*
X12769152Y-11847395D01*
X12769152Y-11847395D02*
X12765343Y-11851204D01*
X12765343Y-11851204D02*
X12761533Y-11858824D01*
X12761533Y-11858824D02*
X12761533Y-11870252D01*
X12761533Y-11870252D02*
X12765343Y-11877871D01*
X12765343Y-11877871D02*
X12769152Y-11881681D01*
X12769152Y-11881681D02*
X12776771Y-11885490D01*
X12776771Y-11885490D02*
X12807247Y-11885490D01*
X12734867Y-11843585D02*
X12685343Y-11843585D01*
X12685343Y-11843585D02*
X12712009Y-11874062D01*
X12712009Y-11874062D02*
X12700581Y-11874062D01*
X12700581Y-11874062D02*
X12692962Y-11877871D01*
X12692962Y-11877871D02*
X12689152Y-11881681D01*
X12689152Y-11881681D02*
X12685343Y-11889300D01*
X12685343Y-11889300D02*
X12685343Y-11908347D01*
X12685343Y-11908347D02*
X12689152Y-11915966D01*
X12689152Y-11915966D02*
X12692962Y-11919776D01*
X12692962Y-11919776D02*
X12700581Y-11923585D01*
X12700581Y-11923585D02*
X12723438Y-11923585D01*
X12723438Y-11923585D02*
X12731057Y-11919776D01*
X12731057Y-11919776D02*
X12734867Y-11915966D01*
X12229297Y-11923585D02*
X12229297Y-11843585D01*
X12229297Y-11843585D02*
X12210250Y-11843585D01*
X12210250Y-11843585D02*
X12198821Y-11847395D01*
X12198821Y-11847395D02*
X12191202Y-11855014D01*
X12191202Y-11855014D02*
X12187393Y-11862633D01*
X12187393Y-11862633D02*
X12183583Y-11877871D01*
X12183583Y-11877871D02*
X12183583Y-11889300D01*
X12183583Y-11889300D02*
X12187393Y-11904538D01*
X12187393Y-11904538D02*
X12191202Y-11912157D01*
X12191202Y-11912157D02*
X12198821Y-11919776D01*
X12198821Y-11919776D02*
X12210250Y-11923585D01*
X12210250Y-11923585D02*
X12229297Y-11923585D01*
X12156917Y-11843585D02*
X12107393Y-11843585D01*
X12107393Y-11843585D02*
X12134059Y-11874062D01*
X12134059Y-11874062D02*
X12122631Y-11874062D01*
X12122631Y-11874062D02*
X12115012Y-11877871D01*
X12115012Y-11877871D02*
X12111202Y-11881681D01*
X12111202Y-11881681D02*
X12107393Y-11889300D01*
X12107393Y-11889300D02*
X12107393Y-11908347D01*
X12107393Y-11908347D02*
X12111202Y-11915966D01*
X12111202Y-11915966D02*
X12115012Y-11919776D01*
X12115012Y-11919776D02*
X12122631Y-11923585D01*
X12122631Y-11923585D02*
X12145488Y-11923585D01*
X12145488Y-11923585D02*
X12153107Y-11919776D01*
X12153107Y-11919776D02*
X12156917Y-11915966D01*
D11*
X11984564Y-12602901D02*
X11970278Y-12607663D01*
X11970278Y-12607663D02*
X11965517Y-12612425D01*
X11965517Y-12612425D02*
X11960755Y-12621948D01*
X11960755Y-12621948D02*
X11960755Y-12636234D01*
X11960755Y-12636234D02*
X11965517Y-12645758D01*
X11965517Y-12645758D02*
X11970278Y-12650520D01*
X11970278Y-12650520D02*
X11979802Y-12655282D01*
X11979802Y-12655282D02*
X12017897Y-12655282D01*
X12017897Y-12655282D02*
X12017897Y-12555282D01*
X12017897Y-12555282D02*
X11984564Y-12555282D01*
X11984564Y-12555282D02*
X11975040Y-12560044D01*
X11975040Y-12560044D02*
X11970278Y-12564806D01*
X11970278Y-12564806D02*
X11965517Y-12574329D01*
X11965517Y-12574329D02*
X11965517Y-12583853D01*
X11965517Y-12583853D02*
X11970278Y-12593377D01*
X11970278Y-12593377D02*
X11975040Y-12598139D01*
X11975040Y-12598139D02*
X11984564Y-12602901D01*
X11984564Y-12602901D02*
X12017897Y-12602901D01*
X11860755Y-12645758D02*
X11865517Y-12650520D01*
X11865517Y-12650520D02*
X11879802Y-12655282D01*
X11879802Y-12655282D02*
X11889326Y-12655282D01*
X11889326Y-12655282D02*
X11903612Y-12650520D01*
X11903612Y-12650520D02*
X11913136Y-12640996D01*
X11913136Y-12640996D02*
X11917897Y-12631472D01*
X11917897Y-12631472D02*
X11922659Y-12612425D01*
X11922659Y-12612425D02*
X11922659Y-12598139D01*
X11922659Y-12598139D02*
X11917897Y-12579091D01*
X11917897Y-12579091D02*
X11913136Y-12569568D01*
X11913136Y-12569568D02*
X11903612Y-12560044D01*
X11903612Y-12560044D02*
X11889326Y-12555282D01*
X11889326Y-12555282D02*
X11879802Y-12555282D01*
X11879802Y-12555282D02*
X11865517Y-12560044D01*
X11865517Y-12560044D02*
X11860755Y-12564806D01*
X11803612Y-12598139D02*
X11813136Y-12593377D01*
X11813136Y-12593377D02*
X11817897Y-12588615D01*
X11817897Y-12588615D02*
X11822659Y-12579091D01*
X11822659Y-12579091D02*
X11822659Y-12574329D01*
X11822659Y-12574329D02*
X11817897Y-12564806D01*
X11817897Y-12564806D02*
X11813136Y-12560044D01*
X11813136Y-12560044D02*
X11803612Y-12555282D01*
X11803612Y-12555282D02*
X11784564Y-12555282D01*
X11784564Y-12555282D02*
X11775040Y-12560044D01*
X11775040Y-12560044D02*
X11770278Y-12564806D01*
X11770278Y-12564806D02*
X11765517Y-12574329D01*
X11765517Y-12574329D02*
X11765517Y-12579091D01*
X11765517Y-12579091D02*
X11770278Y-12588615D01*
X11770278Y-12588615D02*
X11775040Y-12593377D01*
X11775040Y-12593377D02*
X11784564Y-12598139D01*
X11784564Y-12598139D02*
X11803612Y-12598139D01*
X11803612Y-12598139D02*
X11813136Y-12602901D01*
X11813136Y-12602901D02*
X11817897Y-12607663D01*
X11817897Y-12607663D02*
X11822659Y-12617187D01*
X11822659Y-12617187D02*
X11822659Y-12636234D01*
X11822659Y-12636234D02*
X11817897Y-12645758D01*
X11817897Y-12645758D02*
X11813136Y-12650520D01*
X11813136Y-12650520D02*
X11803612Y-12655282D01*
X11803612Y-12655282D02*
X11784564Y-12655282D01*
X11784564Y-12655282D02*
X11775040Y-12650520D01*
X11775040Y-12650520D02*
X11770278Y-12645758D01*
X11770278Y-12645758D02*
X11765517Y-12636234D01*
X11765517Y-12636234D02*
X11765517Y-12617187D01*
X11765517Y-12617187D02*
X11770278Y-12607663D01*
X11770278Y-12607663D02*
X11775040Y-12602901D01*
X11775040Y-12602901D02*
X11784564Y-12598139D01*
X11670278Y-12655282D02*
X11727421Y-12655282D01*
X11698850Y-12655282D02*
X11698850Y-12555282D01*
X11698850Y-12555282D02*
X11708374Y-12569568D01*
X11708374Y-12569568D02*
X11717897Y-12579091D01*
X11717897Y-12579091D02*
X11727421Y-12583853D01*
X11636945Y-12555282D02*
X11570278Y-12555282D01*
X11570278Y-12555282D02*
X11613136Y-12655282D01*
D12*
X11802659Y-12391802D02*
X11806469Y-12389897D01*
X11806469Y-12389897D02*
X11810278Y-12386088D01*
X11810278Y-12386088D02*
X11815993Y-12380374D01*
X11815993Y-12380374D02*
X11819802Y-12378469D01*
X11819802Y-12378469D02*
X11823612Y-12378469D01*
X11821707Y-12387993D02*
X11825517Y-12386088D01*
X11825517Y-12386088D02*
X11829326Y-12382278D01*
X11829326Y-12382278D02*
X11831231Y-12374659D01*
X11831231Y-12374659D02*
X11831231Y-12361326D01*
X11831231Y-12361326D02*
X11829326Y-12353707D01*
X11829326Y-12353707D02*
X11825517Y-12349897D01*
X11825517Y-12349897D02*
X11821707Y-12347993D01*
X11821707Y-12347993D02*
X11814088Y-12347993D01*
X11814088Y-12347993D02*
X11810278Y-12349897D01*
X11810278Y-12349897D02*
X11806469Y-12353707D01*
X11806469Y-12353707D02*
X11804564Y-12361326D01*
X11804564Y-12361326D02*
X11804564Y-12374659D01*
X11804564Y-12374659D02*
X11806469Y-12382278D01*
X11806469Y-12382278D02*
X11810278Y-12386088D01*
X11810278Y-12386088D02*
X11814088Y-12387993D01*
X11814088Y-12387993D02*
X11821707Y-12387993D01*
X11766469Y-12387993D02*
X11789326Y-12387993D01*
X11777897Y-12387993D02*
X11777897Y-12347993D01*
X11777897Y-12347993D02*
X11781707Y-12353707D01*
X11781707Y-12353707D02*
X11785517Y-12357516D01*
X11785517Y-12357516D02*
X11789326Y-12359421D01*
D13*
X10576883Y-10863753D02*
X10579264Y-10866134D01*
X10579264Y-10866134D02*
X10586407Y-10868515D01*
X10586407Y-10868515D02*
X10591169Y-10868515D01*
X10591169Y-10868515D02*
X10598312Y-10866134D01*
X10598312Y-10866134D02*
X10603074Y-10861372D01*
X10603074Y-10861372D02*
X10605455Y-10856610D01*
X10605455Y-10856610D02*
X10607836Y-10847086D01*
X10607836Y-10847086D02*
X10607836Y-10839944D01*
X10607836Y-10839944D02*
X10605455Y-10830420D01*
X10605455Y-10830420D02*
X10603074Y-10825658D01*
X10603074Y-10825658D02*
X10598312Y-10820896D01*
X10598312Y-10820896D02*
X10591169Y-10818515D01*
X10591169Y-10818515D02*
X10586407Y-10818515D01*
X10586407Y-10818515D02*
X10579264Y-10820896D01*
X10579264Y-10820896D02*
X10576883Y-10823277D01*
X10529264Y-10868515D02*
X10557836Y-10868515D01*
X10543550Y-10868515D02*
X10543550Y-10818515D01*
X10543550Y-10818515D02*
X10548312Y-10825658D01*
X10548312Y-10825658D02*
X10553074Y-10830420D01*
X10553074Y-10830420D02*
X10557836Y-10832801D01*
D11*
X12655324Y-12852282D02*
X12712467Y-12852282D01*
X12683895Y-12852282D02*
X12683895Y-12752282D01*
X12683895Y-12752282D02*
X12693419Y-12766568D01*
X12693419Y-12766568D02*
X12702943Y-12776091D01*
X12702943Y-12776091D02*
X12712467Y-12780853D01*
X12593419Y-12752282D02*
X12583895Y-12752282D01*
X12583895Y-12752282D02*
X12574371Y-12757044D01*
X12574371Y-12757044D02*
X12569609Y-12761806D01*
X12569609Y-12761806D02*
X12564848Y-12771329D01*
X12564848Y-12771329D02*
X12560086Y-12790377D01*
X12560086Y-12790377D02*
X12560086Y-12814187D01*
X12560086Y-12814187D02*
X12564848Y-12833234D01*
X12564848Y-12833234D02*
X12569609Y-12842758D01*
X12569609Y-12842758D02*
X12574371Y-12847520D01*
X12574371Y-12847520D02*
X12583895Y-12852282D01*
X12583895Y-12852282D02*
X12593419Y-12852282D01*
X12593419Y-12852282D02*
X12602943Y-12847520D01*
X12602943Y-12847520D02*
X12607705Y-12842758D01*
X12607705Y-12842758D02*
X12612467Y-12833234D01*
X12612467Y-12833234D02*
X12617228Y-12814187D01*
X12617228Y-12814187D02*
X12617228Y-12790377D01*
X12617228Y-12790377D02*
X12612467Y-12771329D01*
X12612467Y-12771329D02*
X12607705Y-12761806D01*
X12607705Y-12761806D02*
X12602943Y-12757044D01*
X12602943Y-12757044D02*
X12593419Y-12752282D01*
X12517228Y-12852282D02*
X12517228Y-12752282D01*
X12507705Y-12814187D02*
X12479133Y-12852282D01*
X12479133Y-12785615D02*
X12517228Y-12823710D01*
D10*
X12632185Y-12610467D02*
X12594090Y-12583800D01*
X12632185Y-12564752D02*
X12552185Y-12564752D01*
X12552185Y-12564752D02*
X12552185Y-12595229D01*
X12552185Y-12595229D02*
X12555995Y-12602848D01*
X12555995Y-12602848D02*
X12559804Y-12606657D01*
X12559804Y-12606657D02*
X12567424Y-12610467D01*
X12567424Y-12610467D02*
X12578852Y-12610467D01*
X12578852Y-12610467D02*
X12586471Y-12606657D01*
X12586471Y-12606657D02*
X12590281Y-12602848D01*
X12590281Y-12602848D02*
X12594090Y-12595229D01*
X12594090Y-12595229D02*
X12594090Y-12564752D01*
X12559804Y-12640943D02*
X12555995Y-12644752D01*
X12555995Y-12644752D02*
X12552185Y-12652371D01*
X12552185Y-12652371D02*
X12552185Y-12671419D01*
X12552185Y-12671419D02*
X12555995Y-12679038D01*
X12555995Y-12679038D02*
X12559804Y-12682848D01*
X12559804Y-12682848D02*
X12567424Y-12686657D01*
X12567424Y-12686657D02*
X12575043Y-12686657D01*
X12575043Y-12686657D02*
X12586471Y-12682848D01*
X12586471Y-12682848D02*
X12632185Y-12637133D01*
X12632185Y-12637133D02*
X12632185Y-12686657D01*
D11*
X12653924Y-12548882D02*
X12711067Y-12548882D01*
X12682495Y-12548882D02*
X12682495Y-12448882D01*
X12682495Y-12448882D02*
X12692019Y-12463168D01*
X12692019Y-12463168D02*
X12701543Y-12472691D01*
X12701543Y-12472691D02*
X12711067Y-12477453D01*
X12592019Y-12448882D02*
X12582495Y-12448882D01*
X12582495Y-12448882D02*
X12572971Y-12453644D01*
X12572971Y-12453644D02*
X12568209Y-12458406D01*
X12568209Y-12458406D02*
X12563448Y-12467929D01*
X12563448Y-12467929D02*
X12558686Y-12486977D01*
X12558686Y-12486977D02*
X12558686Y-12510787D01*
X12558686Y-12510787D02*
X12563448Y-12529834D01*
X12563448Y-12529834D02*
X12568209Y-12539358D01*
X12568209Y-12539358D02*
X12572971Y-12544120D01*
X12572971Y-12544120D02*
X12582495Y-12548882D01*
X12582495Y-12548882D02*
X12592019Y-12548882D01*
X12592019Y-12548882D02*
X12601543Y-12544120D01*
X12601543Y-12544120D02*
X12606305Y-12539358D01*
X12606305Y-12539358D02*
X12611067Y-12529834D01*
X12611067Y-12529834D02*
X12615828Y-12510787D01*
X12615828Y-12510787D02*
X12615828Y-12486977D01*
X12615828Y-12486977D02*
X12611067Y-12467929D01*
X12611067Y-12467929D02*
X12606305Y-12458406D01*
X12606305Y-12458406D02*
X12601543Y-12453644D01*
X12601543Y-12453644D02*
X12592019Y-12448882D01*
X12515828Y-12548882D02*
X12515828Y-12448882D01*
X12506305Y-12510787D02*
X12477733Y-12548882D01*
X12477733Y-12482215D02*
X12515828Y-12520310D01*
D10*
X12607733Y-12285785D02*
X12634400Y-12247690D01*
X12653447Y-12285785D02*
X12653447Y-12205785D01*
X12653447Y-12205785D02*
X12622971Y-12205785D01*
X12622971Y-12205785D02*
X12615352Y-12209595D01*
X12615352Y-12209595D02*
X12611543Y-12213404D01*
X12611543Y-12213404D02*
X12607733Y-12221024D01*
X12607733Y-12221024D02*
X12607733Y-12232452D01*
X12607733Y-12232452D02*
X12611543Y-12240071D01*
X12611543Y-12240071D02*
X12615352Y-12243881D01*
X12615352Y-12243881D02*
X12622971Y-12247690D01*
X12622971Y-12247690D02*
X12653447Y-12247690D01*
X12531543Y-12285785D02*
X12577257Y-12285785D01*
X12554400Y-12285785D02*
X12554400Y-12205785D01*
X12554400Y-12205785D02*
X12562019Y-12217214D01*
X12562019Y-12217214D02*
X12569638Y-12224833D01*
X12569638Y-12224833D02*
X12577257Y-12228643D01*
D11*
X11792800Y-10666710D02*
X11745181Y-10666710D01*
X11802324Y-10695282D02*
X11768990Y-10595282D01*
X11768990Y-10595282D02*
X11735657Y-10695282D01*
X11702324Y-10695282D02*
X11702324Y-10595282D01*
X11702324Y-10595282D02*
X11668990Y-10666710D01*
X11668990Y-10666710D02*
X11635657Y-10595282D01*
X11635657Y-10595282D02*
X11635657Y-10695282D01*
X11592800Y-10690520D02*
X11578514Y-10695282D01*
X11578514Y-10695282D02*
X11554705Y-10695282D01*
X11554705Y-10695282D02*
X11545181Y-10690520D01*
X11545181Y-10690520D02*
X11540419Y-10685758D01*
X11540419Y-10685758D02*
X11535657Y-10676234D01*
X11535657Y-10676234D02*
X11535657Y-10666710D01*
X11535657Y-10666710D02*
X11540419Y-10657187D01*
X11540419Y-10657187D02*
X11545181Y-10652425D01*
X11545181Y-10652425D02*
X11554705Y-10647663D01*
X11554705Y-10647663D02*
X11573752Y-10642901D01*
X11573752Y-10642901D02*
X11583276Y-10638139D01*
X11583276Y-10638139D02*
X11588038Y-10633377D01*
X11588038Y-10633377D02*
X11592800Y-10623853D01*
X11592800Y-10623853D02*
X11592800Y-10614330D01*
X11592800Y-10614330D02*
X11588038Y-10604806D01*
X11588038Y-10604806D02*
X11583276Y-10600044D01*
X11583276Y-10600044D02*
X11573752Y-10595282D01*
X11573752Y-10595282D02*
X11549943Y-10595282D01*
X11549943Y-10595282D02*
X11535657Y-10600044D01*
X11440419Y-10695282D02*
X11497562Y-10695282D01*
X11468990Y-10695282D02*
X11468990Y-10595282D01*
X11468990Y-10595282D02*
X11478514Y-10609568D01*
X11478514Y-10609568D02*
X11488038Y-10619091D01*
X11488038Y-10619091D02*
X11497562Y-10623853D01*
X11345181Y-10695282D02*
X11402324Y-10695282D01*
X11373752Y-10695282D02*
X11373752Y-10595282D01*
X11373752Y-10595282D02*
X11383276Y-10609568D01*
X11383276Y-10609568D02*
X11392800Y-10619091D01*
X11392800Y-10619091D02*
X11402324Y-10623853D01*
X11249943Y-10695282D02*
X11307086Y-10695282D01*
X11278514Y-10695282D02*
X11278514Y-10595282D01*
X11278514Y-10595282D02*
X11288038Y-10609568D01*
X11288038Y-10609568D02*
X11297562Y-10619091D01*
X11297562Y-10619091D02*
X11307086Y-10623853D01*
X11216609Y-10595282D02*
X11149943Y-10595282D01*
X11149943Y-10595282D02*
X11192800Y-10695282D01*
X11111848Y-10657187D02*
X11035657Y-10657187D01*
X10940419Y-10595282D02*
X10988038Y-10595282D01*
X10988038Y-10595282D02*
X10992800Y-10642901D01*
X10992800Y-10642901D02*
X10988038Y-10638139D01*
X10988038Y-10638139D02*
X10978514Y-10633377D01*
X10978514Y-10633377D02*
X10954705Y-10633377D01*
X10954705Y-10633377D02*
X10945181Y-10638139D01*
X10945181Y-10638139D02*
X10940419Y-10642901D01*
X10940419Y-10642901D02*
X10935657Y-10652425D01*
X10935657Y-10652425D02*
X10935657Y-10676234D01*
X10935657Y-10676234D02*
X10940419Y-10685758D01*
X10940419Y-10685758D02*
X10945181Y-10690520D01*
X10945181Y-10690520D02*
X10954705Y-10695282D01*
X10954705Y-10695282D02*
X10978514Y-10695282D01*
X10978514Y-10695282D02*
X10988038Y-10690520D01*
X10988038Y-10690520D02*
X10992800Y-10685758D01*
X10892800Y-10685758D02*
X10888038Y-10690520D01*
X10888038Y-10690520D02*
X10892800Y-10695282D01*
X10892800Y-10695282D02*
X10897562Y-10690520D01*
X10897562Y-10690520D02*
X10892800Y-10685758D01*
X10892800Y-10685758D02*
X10892800Y-10695282D01*
X10826133Y-10595282D02*
X10816610Y-10595282D01*
X10816610Y-10595282D02*
X10807086Y-10600044D01*
X10807086Y-10600044D02*
X10802324Y-10604806D01*
X10802324Y-10604806D02*
X10797562Y-10614330D01*
X10797562Y-10614330D02*
X10792800Y-10633377D01*
X10792800Y-10633377D02*
X10792800Y-10657187D01*
X10792800Y-10657187D02*
X10797562Y-10676234D01*
X10797562Y-10676234D02*
X10802324Y-10685758D01*
X10802324Y-10685758D02*
X10807086Y-10690520D01*
X10807086Y-10690520D02*
X10816610Y-10695282D01*
X10816610Y-10695282D02*
X10826133Y-10695282D01*
X10826133Y-10695282D02*
X10835657Y-10690520D01*
X10835657Y-10690520D02*
X10840419Y-10685758D01*
X10840419Y-10685758D02*
X10845181Y-10676234D01*
X10845181Y-10676234D02*
X10849943Y-10657187D01*
X10849943Y-10657187D02*
X10849943Y-10633377D01*
X10849943Y-10633377D02*
X10845181Y-10614330D01*
X10845181Y-10614330D02*
X10840419Y-10604806D01*
X10840419Y-10604806D02*
X10835657Y-10600044D01*
X10835657Y-10600044D02*
X10826133Y-10595282D01*
D10*
X11249185Y-11038848D02*
X11313947Y-11038848D01*
X11313947Y-11038848D02*
X11321566Y-11042657D01*
X11321566Y-11042657D02*
X11325376Y-11046467D01*
X11325376Y-11046467D02*
X11329185Y-11054086D01*
X11329185Y-11054086D02*
X11329185Y-11069324D01*
X11329185Y-11069324D02*
X11325376Y-11076943D01*
X11325376Y-11076943D02*
X11321566Y-11080752D01*
X11321566Y-11080752D02*
X11313947Y-11084562D01*
X11313947Y-11084562D02*
X11249185Y-11084562D01*
X11256804Y-11118848D02*
X11252995Y-11122657D01*
X11252995Y-11122657D02*
X11249185Y-11130276D01*
X11249185Y-11130276D02*
X11249185Y-11149324D01*
X11249185Y-11149324D02*
X11252995Y-11156943D01*
X11252995Y-11156943D02*
X11256804Y-11160752D01*
X11256804Y-11160752D02*
X11264424Y-11164562D01*
X11264424Y-11164562D02*
X11272043Y-11164562D01*
X11272043Y-11164562D02*
X11283471Y-11160752D01*
X11283471Y-11160752D02*
X11329185Y-11115038D01*
X11329185Y-11115038D02*
X11329185Y-11164562D01*
D11*
X12776771Y-11268682D02*
X12795819Y-11268682D01*
X12795819Y-11268682D02*
X12805343Y-11273444D01*
X12805343Y-11273444D02*
X12810105Y-11278206D01*
X12810105Y-11278206D02*
X12819628Y-11292491D01*
X12819628Y-11292491D02*
X12824390Y-11311539D01*
X12824390Y-11311539D02*
X12824390Y-11349634D01*
X12824390Y-11349634D02*
X12819628Y-11359158D01*
X12819628Y-11359158D02*
X12814867Y-11363920D01*
X12814867Y-11363920D02*
X12805343Y-11368682D01*
X12805343Y-11368682D02*
X12786295Y-11368682D01*
X12786295Y-11368682D02*
X12776771Y-11363920D01*
X12776771Y-11363920D02*
X12772009Y-11359158D01*
X12772009Y-11359158D02*
X12767248Y-11349634D01*
X12767248Y-11349634D02*
X12767248Y-11325825D01*
X12767248Y-11325825D02*
X12772009Y-11316301D01*
X12772009Y-11316301D02*
X12776771Y-11311539D01*
X12776771Y-11311539D02*
X12786295Y-11306777D01*
X12786295Y-11306777D02*
X12805343Y-11306777D01*
X12805343Y-11306777D02*
X12814867Y-11311539D01*
X12814867Y-11311539D02*
X12819628Y-11316301D01*
X12819628Y-11316301D02*
X12824390Y-11325825D01*
X12710105Y-11311539D02*
X12719628Y-11306777D01*
X12719628Y-11306777D02*
X12724390Y-11302015D01*
X12724390Y-11302015D02*
X12729152Y-11292491D01*
X12729152Y-11292491D02*
X12729152Y-11287729D01*
X12729152Y-11287729D02*
X12724390Y-11278206D01*
X12724390Y-11278206D02*
X12719628Y-11273444D01*
X12719628Y-11273444D02*
X12710105Y-11268682D01*
X12710105Y-11268682D02*
X12691057Y-11268682D01*
X12691057Y-11268682D02*
X12681533Y-11273444D01*
X12681533Y-11273444D02*
X12676771Y-11278206D01*
X12676771Y-11278206D02*
X12672009Y-11287729D01*
X12672009Y-11287729D02*
X12672009Y-11292491D01*
X12672009Y-11292491D02*
X12676771Y-11302015D01*
X12676771Y-11302015D02*
X12681533Y-11306777D01*
X12681533Y-11306777D02*
X12691057Y-11311539D01*
X12691057Y-11311539D02*
X12710105Y-11311539D01*
X12710105Y-11311539D02*
X12719628Y-11316301D01*
X12719628Y-11316301D02*
X12724390Y-11321063D01*
X12724390Y-11321063D02*
X12729152Y-11330587D01*
X12729152Y-11330587D02*
X12729152Y-11349634D01*
X12729152Y-11349634D02*
X12724390Y-11359158D01*
X12724390Y-11359158D02*
X12719628Y-11363920D01*
X12719628Y-11363920D02*
X12710105Y-11368682D01*
X12710105Y-11368682D02*
X12691057Y-11368682D01*
X12691057Y-11368682D02*
X12681533Y-11363920D01*
X12681533Y-11363920D02*
X12676771Y-11359158D01*
X12676771Y-11359158D02*
X12672009Y-11349634D01*
X12672009Y-11349634D02*
X12672009Y-11330587D01*
X12672009Y-11330587D02*
X12676771Y-11321063D01*
X12676771Y-11321063D02*
X12681533Y-11316301D01*
X12681533Y-11316301D02*
X12691057Y-11311539D01*
D10*
X12761533Y-11542585D02*
X12788200Y-11504490D01*
X12807247Y-11542585D02*
X12807247Y-11462585D01*
X12807247Y-11462585D02*
X12776771Y-11462585D01*
X12776771Y-11462585D02*
X12769152Y-11466395D01*
X12769152Y-11466395D02*
X12765343Y-11470204D01*
X12765343Y-11470204D02*
X12761533Y-11477824D01*
X12761533Y-11477824D02*
X12761533Y-11489252D01*
X12761533Y-11489252D02*
X12765343Y-11496871D01*
X12765343Y-11496871D02*
X12769152Y-11500681D01*
X12769152Y-11500681D02*
X12776771Y-11504490D01*
X12776771Y-11504490D02*
X12807247Y-11504490D01*
X12692962Y-11489252D02*
X12692962Y-11542585D01*
X12712009Y-11458776D02*
X12731057Y-11515919D01*
X12731057Y-11515919D02*
X12681533Y-11515919D01*
D11*
X9613179Y-13205794D02*
X9622702Y-13201032D01*
X9622702Y-13201032D02*
X9636988Y-13201032D01*
X9636988Y-13201032D02*
X9651274Y-13205794D01*
X9651274Y-13205794D02*
X9660798Y-13215318D01*
X9660798Y-13215318D02*
X9665559Y-13224841D01*
X9665559Y-13224841D02*
X9670321Y-13243889D01*
X9670321Y-13243889D02*
X9670321Y-13258175D01*
X9670321Y-13258175D02*
X9665559Y-13277222D01*
X9665559Y-13277222D02*
X9660798Y-13286746D01*
X9660798Y-13286746D02*
X9651274Y-13296270D01*
X9651274Y-13296270D02*
X9636988Y-13301032D01*
X9636988Y-13301032D02*
X9627464Y-13301032D01*
X9627464Y-13301032D02*
X9613179Y-13296270D01*
X9613179Y-13296270D02*
X9608417Y-13291508D01*
X9608417Y-13291508D02*
X9608417Y-13258175D01*
X9608417Y-13258175D02*
X9627464Y-13258175D01*
X9570321Y-13210556D02*
X9565559Y-13205794D01*
X9565559Y-13205794D02*
X9556036Y-13201032D01*
X9556036Y-13201032D02*
X9532226Y-13201032D01*
X9532226Y-13201032D02*
X9522702Y-13205794D01*
X9522702Y-13205794D02*
X9517940Y-13210556D01*
X9517940Y-13210556D02*
X9513179Y-13220079D01*
X9513179Y-13220079D02*
X9513179Y-13229603D01*
X9513179Y-13229603D02*
X9517940Y-13243889D01*
X9517940Y-13243889D02*
X9575083Y-13301032D01*
X9575083Y-13301032D02*
X9513179Y-13301032D01*
X9413179Y-13301032D02*
X9446512Y-13253413D01*
X9470321Y-13301032D02*
X9470321Y-13201032D01*
X9470321Y-13201032D02*
X9432226Y-13201032D01*
X9432226Y-13201032D02*
X9422702Y-13205794D01*
X9422702Y-13205794D02*
X9417940Y-13210556D01*
X9417940Y-13210556D02*
X9413179Y-13220079D01*
X9413179Y-13220079D02*
X9413179Y-13234365D01*
X9413179Y-13234365D02*
X9417940Y-13243889D01*
X9417940Y-13243889D02*
X9422702Y-13248651D01*
X9422702Y-13248651D02*
X9432226Y-13253413D01*
X9432226Y-13253413D02*
X9470321Y-13253413D01*
X9322702Y-13301032D02*
X9370321Y-13301032D01*
X9370321Y-13301032D02*
X9370321Y-13201032D01*
X9289369Y-13262937D02*
X9213179Y-13262937D01*
X9113179Y-13301032D02*
X9170321Y-13301032D01*
X9141750Y-13301032D02*
X9141750Y-13201032D01*
X9141750Y-13201032D02*
X9151274Y-13215318D01*
X9151274Y-13215318D02*
X9160798Y-13224841D01*
X9160798Y-13224841D02*
X9170321Y-13229603D01*
X9475559Y-12536032D02*
X9475559Y-12436032D01*
X9418417Y-12536032D02*
X9461274Y-12478889D01*
X9418417Y-12436032D02*
X9475559Y-12493175D01*
X9323179Y-12536032D02*
X9380321Y-12536032D01*
X9351750Y-12536032D02*
X9351750Y-12436032D01*
X9351750Y-12436032D02*
X9361274Y-12450318D01*
X9361274Y-12450318D02*
X9370798Y-12459841D01*
X9370798Y-12459841D02*
X9380321Y-12464603D01*
X12776771Y-10887682D02*
X12795819Y-10887682D01*
X12795819Y-10887682D02*
X12805343Y-10892444D01*
X12805343Y-10892444D02*
X12810105Y-10897206D01*
X12810105Y-10897206D02*
X12819628Y-10911491D01*
X12819628Y-10911491D02*
X12824390Y-10930539D01*
X12824390Y-10930539D02*
X12824390Y-10968634D01*
X12824390Y-10968634D02*
X12819628Y-10978158D01*
X12819628Y-10978158D02*
X12814867Y-10982920D01*
X12814867Y-10982920D02*
X12805343Y-10987682D01*
X12805343Y-10987682D02*
X12786295Y-10987682D01*
X12786295Y-10987682D02*
X12776771Y-10982920D01*
X12776771Y-10982920D02*
X12772009Y-10978158D01*
X12772009Y-10978158D02*
X12767248Y-10968634D01*
X12767248Y-10968634D02*
X12767248Y-10944825D01*
X12767248Y-10944825D02*
X12772009Y-10935301D01*
X12772009Y-10935301D02*
X12776771Y-10930539D01*
X12776771Y-10930539D02*
X12786295Y-10925777D01*
X12786295Y-10925777D02*
X12805343Y-10925777D01*
X12805343Y-10925777D02*
X12814867Y-10930539D01*
X12814867Y-10930539D02*
X12819628Y-10935301D01*
X12819628Y-10935301D02*
X12824390Y-10944825D01*
X12710105Y-10930539D02*
X12719628Y-10925777D01*
X12719628Y-10925777D02*
X12724390Y-10921015D01*
X12724390Y-10921015D02*
X12729152Y-10911491D01*
X12729152Y-10911491D02*
X12729152Y-10906730D01*
X12729152Y-10906730D02*
X12724390Y-10897206D01*
X12724390Y-10897206D02*
X12719628Y-10892444D01*
X12719628Y-10892444D02*
X12710105Y-10887682D01*
X12710105Y-10887682D02*
X12691057Y-10887682D01*
X12691057Y-10887682D02*
X12681533Y-10892444D01*
X12681533Y-10892444D02*
X12676771Y-10897206D01*
X12676771Y-10897206D02*
X12672009Y-10906730D01*
X12672009Y-10906730D02*
X12672009Y-10911491D01*
X12672009Y-10911491D02*
X12676771Y-10921015D01*
X12676771Y-10921015D02*
X12681533Y-10925777D01*
X12681533Y-10925777D02*
X12691057Y-10930539D01*
X12691057Y-10930539D02*
X12710105Y-10930539D01*
X12710105Y-10930539D02*
X12719628Y-10935301D01*
X12719628Y-10935301D02*
X12724390Y-10940063D01*
X12724390Y-10940063D02*
X12729152Y-10949587D01*
X12729152Y-10949587D02*
X12729152Y-10968634D01*
X12729152Y-10968634D02*
X12724390Y-10978158D01*
X12724390Y-10978158D02*
X12719628Y-10982920D01*
X12719628Y-10982920D02*
X12710105Y-10987682D01*
X12710105Y-10987682D02*
X12691057Y-10987682D01*
X12691057Y-10987682D02*
X12681533Y-10982920D01*
X12681533Y-10982920D02*
X12676771Y-10978158D01*
X12676771Y-10978158D02*
X12672009Y-10968634D01*
X12672009Y-10968634D02*
X12672009Y-10949587D01*
X12672009Y-10949587D02*
X12676771Y-10940063D01*
X12676771Y-10940063D02*
X12681533Y-10935301D01*
X12681533Y-10935301D02*
X12691057Y-10930539D01*
D10*
X12761533Y-11161586D02*
X12788200Y-11123490D01*
X12807247Y-11161586D02*
X12807247Y-11081586D01*
X12807247Y-11081586D02*
X12776771Y-11081586D01*
X12776771Y-11081586D02*
X12769152Y-11085395D01*
X12769152Y-11085395D02*
X12765343Y-11089205D01*
X12765343Y-11089205D02*
X12761533Y-11096824D01*
X12761533Y-11096824D02*
X12761533Y-11108252D01*
X12761533Y-11108252D02*
X12765343Y-11115871D01*
X12765343Y-11115871D02*
X12769152Y-11119681D01*
X12769152Y-11119681D02*
X12776771Y-11123490D01*
X12776771Y-11123490D02*
X12807247Y-11123490D01*
X12689152Y-11081586D02*
X12727247Y-11081586D01*
X12727247Y-11081586D02*
X12731057Y-11119681D01*
X12731057Y-11119681D02*
X12727247Y-11115871D01*
X12727247Y-11115871D02*
X12719628Y-11112062D01*
X12719628Y-11112062D02*
X12700581Y-11112062D01*
X12700581Y-11112062D02*
X12692962Y-11115871D01*
X12692962Y-11115871D02*
X12689152Y-11119681D01*
X12689152Y-11119681D02*
X12685343Y-11127300D01*
X12685343Y-11127300D02*
X12685343Y-11146347D01*
X12685343Y-11146347D02*
X12689152Y-11153966D01*
X12689152Y-11153966D02*
X12692962Y-11157776D01*
X12692962Y-11157776D02*
X12700581Y-11161586D01*
X12700581Y-11161586D02*
X12719628Y-11161586D01*
X12719628Y-11161586D02*
X12727247Y-11157776D01*
X12727247Y-11157776D02*
X12731057Y-11153966D01*
D11*
X13774733Y-9125082D02*
X13774733Y-9196510D01*
X13774733Y-9196510D02*
X13779495Y-9210796D01*
X13779495Y-9210796D02*
X13789019Y-9220320D01*
X13789019Y-9220320D02*
X13803305Y-9225082D01*
X13803305Y-9225082D02*
X13812828Y-9225082D01*
X13674733Y-9225082D02*
X13731876Y-9225082D01*
X13703305Y-9225082D02*
X13703305Y-9125082D01*
X13703305Y-9125082D02*
X13712828Y-9139368D01*
X13712828Y-9139368D02*
X13722352Y-9148891D01*
X13722352Y-9148891D02*
X13731876Y-9153653D01*
X9126533Y-9150482D02*
X9126533Y-9221910D01*
X9126533Y-9221910D02*
X9131295Y-9236196D01*
X9131295Y-9236196D02*
X9140819Y-9245720D01*
X9140819Y-9245720D02*
X9155105Y-9250482D01*
X9155105Y-9250482D02*
X9164629Y-9250482D01*
X9083676Y-9160006D02*
X9078914Y-9155244D01*
X9078914Y-9155244D02*
X9069390Y-9150482D01*
X9069390Y-9150482D02*
X9045581Y-9150482D01*
X9045581Y-9150482D02*
X9036057Y-9155244D01*
X9036057Y-9155244D02*
X9031295Y-9160006D01*
X9031295Y-9160006D02*
X9026533Y-9169530D01*
X9026533Y-9169530D02*
X9026533Y-9179053D01*
X9026533Y-9179053D02*
X9031295Y-9193339D01*
X9031295Y-9193339D02*
X9088438Y-9250482D01*
X9088438Y-9250482D02*
X9026533Y-9250482D01*
D13*
X10576883Y-11117753D02*
X10579264Y-11120134D01*
X10579264Y-11120134D02*
X10586407Y-11122515D01*
X10586407Y-11122515D02*
X10591169Y-11122515D01*
X10591169Y-11122515D02*
X10598312Y-11120134D01*
X10598312Y-11120134D02*
X10603074Y-11115372D01*
X10603074Y-11115372D02*
X10605455Y-11110610D01*
X10605455Y-11110610D02*
X10607836Y-11101086D01*
X10607836Y-11101086D02*
X10607836Y-11093944D01*
X10607836Y-11093944D02*
X10605455Y-11084420D01*
X10605455Y-11084420D02*
X10603074Y-11079658D01*
X10603074Y-11079658D02*
X10598312Y-11074896D01*
X10598312Y-11074896D02*
X10591169Y-11072515D01*
X10591169Y-11072515D02*
X10586407Y-11072515D01*
X10586407Y-11072515D02*
X10579264Y-11074896D01*
X10579264Y-11074896D02*
X10576883Y-11077277D01*
X10557836Y-11077277D02*
X10555455Y-11074896D01*
X10555455Y-11074896D02*
X10550693Y-11072515D01*
X10550693Y-11072515D02*
X10538788Y-11072515D01*
X10538788Y-11072515D02*
X10534026Y-11074896D01*
X10534026Y-11074896D02*
X10531645Y-11077277D01*
X10531645Y-11077277D02*
X10529264Y-11082039D01*
X10529264Y-11082039D02*
X10529264Y-11086801D01*
X10529264Y-11086801D02*
X10531645Y-11093944D01*
X10531645Y-11093944D02*
X10560217Y-11122515D01*
X10560217Y-11122515D02*
X10529264Y-11122515D01*
D11*
X10566208Y-9090028D02*
X10570970Y-9085267D01*
X10570970Y-9085267D02*
X10575732Y-9070981D01*
X10575732Y-9070981D02*
X10575732Y-9061457D01*
X10575732Y-9061457D02*
X10570970Y-9047171D01*
X10570970Y-9047171D02*
X10561446Y-9037648D01*
X10561446Y-9037648D02*
X10551922Y-9032886D01*
X10551922Y-9032886D02*
X10532875Y-9028124D01*
X10532875Y-9028124D02*
X10518589Y-9028124D01*
X10518589Y-9028124D02*
X10499541Y-9032886D01*
X10499541Y-9032886D02*
X10490018Y-9037648D01*
X10490018Y-9037648D02*
X10480494Y-9047171D01*
X10480494Y-9047171D02*
X10475732Y-9061457D01*
X10475732Y-9061457D02*
X10475732Y-9070981D01*
X10475732Y-9070981D02*
X10480494Y-9085267D01*
X10480494Y-9085267D02*
X10485256Y-9090028D01*
X10575732Y-9147171D02*
X10570970Y-9137648D01*
X10570970Y-9137648D02*
X10566208Y-9132886D01*
X10566208Y-9132886D02*
X10556684Y-9128124D01*
X10556684Y-9128124D02*
X10528113Y-9128124D01*
X10528113Y-9128124D02*
X10518589Y-9132886D01*
X10518589Y-9132886D02*
X10513827Y-9137648D01*
X10513827Y-9137648D02*
X10509065Y-9147171D01*
X10509065Y-9147171D02*
X10509065Y-9161457D01*
X10509065Y-9161457D02*
X10513827Y-9170981D01*
X10513827Y-9170981D02*
X10518589Y-9175743D01*
X10518589Y-9175743D02*
X10528113Y-9180505D01*
X10528113Y-9180505D02*
X10556684Y-9180505D01*
X10556684Y-9180505D02*
X10566208Y-9175743D01*
X10566208Y-9175743D02*
X10570970Y-9170981D01*
X10570970Y-9170981D02*
X10575732Y-9161457D01*
X10575732Y-9161457D02*
X10575732Y-9147171D01*
X10509065Y-9223362D02*
X10575732Y-9223362D01*
X10518589Y-9223362D02*
X10513827Y-9228124D01*
X10513827Y-9228124D02*
X10509065Y-9237648D01*
X10509065Y-9237648D02*
X10509065Y-9251933D01*
X10509065Y-9251933D02*
X10513827Y-9261457D01*
X10513827Y-9261457D02*
X10523351Y-9266219D01*
X10523351Y-9266219D02*
X10575732Y-9266219D01*
X10509065Y-9313838D02*
X10575732Y-9313838D01*
X10518589Y-9313838D02*
X10513827Y-9318600D01*
X10513827Y-9318600D02*
X10509065Y-9328124D01*
X10509065Y-9328124D02*
X10509065Y-9342409D01*
X10509065Y-9342409D02*
X10513827Y-9351933D01*
X10513827Y-9351933D02*
X10523351Y-9356695D01*
X10523351Y-9356695D02*
X10575732Y-9356695D01*
X10585256Y-9380505D02*
X10585256Y-9456695D01*
X10566208Y-9537648D02*
X10570970Y-9532886D01*
X10570970Y-9532886D02*
X10575732Y-9518600D01*
X10575732Y-9518600D02*
X10575732Y-9509076D01*
X10575732Y-9509076D02*
X10570970Y-9494790D01*
X10570970Y-9494790D02*
X10561446Y-9485267D01*
X10561446Y-9485267D02*
X10551922Y-9480505D01*
X10551922Y-9480505D02*
X10532875Y-9475743D01*
X10532875Y-9475743D02*
X10518589Y-9475743D01*
X10518589Y-9475743D02*
X10499541Y-9480505D01*
X10499541Y-9480505D02*
X10490018Y-9485267D01*
X10490018Y-9485267D02*
X10480494Y-9494790D01*
X10480494Y-9494790D02*
X10475732Y-9509076D01*
X10475732Y-9509076D02*
X10475732Y-9518600D01*
X10475732Y-9518600D02*
X10480494Y-9532886D01*
X10480494Y-9532886D02*
X10485256Y-9537648D01*
X10575732Y-9594790D02*
X10570970Y-9585267D01*
X10570970Y-9585267D02*
X10566208Y-9580505D01*
X10566208Y-9580505D02*
X10556684Y-9575743D01*
X10556684Y-9575743D02*
X10528113Y-9575743D01*
X10528113Y-9575743D02*
X10518589Y-9580505D01*
X10518589Y-9580505D02*
X10513827Y-9585267D01*
X10513827Y-9585267D02*
X10509065Y-9594790D01*
X10509065Y-9594790D02*
X10509065Y-9609076D01*
X10509065Y-9609076D02*
X10513827Y-9618600D01*
X10513827Y-9618600D02*
X10518589Y-9623362D01*
X10518589Y-9623362D02*
X10528113Y-9628124D01*
X10528113Y-9628124D02*
X10556684Y-9628124D01*
X10556684Y-9628124D02*
X10566208Y-9623362D01*
X10566208Y-9623362D02*
X10570970Y-9618600D01*
X10570970Y-9618600D02*
X10575732Y-9609076D01*
X10575732Y-9609076D02*
X10575732Y-9594790D01*
X10575732Y-9713838D02*
X10523351Y-9713838D01*
X10523351Y-9713838D02*
X10513827Y-9709076D01*
X10513827Y-9709076D02*
X10509065Y-9699552D01*
X10509065Y-9699552D02*
X10509065Y-9680505D01*
X10509065Y-9680505D02*
X10513827Y-9670981D01*
X10570970Y-9713838D02*
X10575732Y-9704314D01*
X10575732Y-9704314D02*
X10575732Y-9680505D01*
X10575732Y-9680505D02*
X10570970Y-9670981D01*
X10570970Y-9670981D02*
X10561446Y-9666219D01*
X10561446Y-9666219D02*
X10551922Y-9666219D01*
X10551922Y-9666219D02*
X10542399Y-9670981D01*
X10542399Y-9670981D02*
X10537637Y-9680505D01*
X10537637Y-9680505D02*
X10537637Y-9704314D01*
X10537637Y-9704314D02*
X10532875Y-9713838D01*
X10575732Y-9751933D02*
X10509065Y-9804314D01*
X10509065Y-9751933D02*
X10575732Y-9804314D01*
X10575732Y-9842410D02*
X10509065Y-9842410D01*
X10475732Y-9842410D02*
X10480494Y-9837648D01*
X10480494Y-9837648D02*
X10485256Y-9842410D01*
X10485256Y-9842410D02*
X10480494Y-9847171D01*
X10480494Y-9847171D02*
X10475732Y-9842410D01*
X10475732Y-9842410D02*
X10485256Y-9842410D01*
X10575732Y-9932886D02*
X10523351Y-9932886D01*
X10523351Y-9932886D02*
X10513827Y-9928124D01*
X10513827Y-9928124D02*
X10509065Y-9918600D01*
X10509065Y-9918600D02*
X10509065Y-9899552D01*
X10509065Y-9899552D02*
X10513827Y-9890029D01*
X10570970Y-9932886D02*
X10575732Y-9923362D01*
X10575732Y-9923362D02*
X10575732Y-9899552D01*
X10575732Y-9899552D02*
X10570970Y-9890029D01*
X10570970Y-9890029D02*
X10561446Y-9885267D01*
X10561446Y-9885267D02*
X10551922Y-9885267D01*
X10551922Y-9885267D02*
X10542399Y-9890029D01*
X10542399Y-9890029D02*
X10537637Y-9899552D01*
X10537637Y-9899552D02*
X10537637Y-9923362D01*
X10537637Y-9923362D02*
X10532875Y-9932886D01*
X10575732Y-9994790D02*
X10570970Y-9985267D01*
X10570970Y-9985267D02*
X10561446Y-9980505D01*
X10561446Y-9980505D02*
X10475732Y-9980505D01*
X10585256Y-10009076D02*
X10585256Y-10085267D01*
X10575732Y-10109076D02*
X10475732Y-10109076D01*
X10475732Y-10109076D02*
X10475732Y-10147171D01*
X10475732Y-10147171D02*
X10480494Y-10156695D01*
X10480494Y-10156695D02*
X10485256Y-10161457D01*
X10485256Y-10161457D02*
X10494780Y-10166219D01*
X10494780Y-10166219D02*
X10509065Y-10166219D01*
X10509065Y-10166219D02*
X10518589Y-10161457D01*
X10518589Y-10161457D02*
X10523351Y-10156695D01*
X10523351Y-10156695D02*
X10528113Y-10147171D01*
X10528113Y-10147171D02*
X10528113Y-10109076D01*
X10575732Y-10223362D02*
X10570970Y-10213838D01*
X10570970Y-10213838D02*
X10566208Y-10209076D01*
X10566208Y-10209076D02*
X10556684Y-10204314D01*
X10556684Y-10204314D02*
X10528113Y-10204314D01*
X10528113Y-10204314D02*
X10518589Y-10209076D01*
X10518589Y-10209076D02*
X10513827Y-10213838D01*
X10513827Y-10213838D02*
X10509065Y-10223362D01*
X10509065Y-10223362D02*
X10509065Y-10237648D01*
X10509065Y-10237648D02*
X10513827Y-10247171D01*
X10513827Y-10247171D02*
X10518589Y-10251933D01*
X10518589Y-10251933D02*
X10528113Y-10256695D01*
X10528113Y-10256695D02*
X10556684Y-10256695D01*
X10556684Y-10256695D02*
X10566208Y-10251933D01*
X10566208Y-10251933D02*
X10570970Y-10247171D01*
X10570970Y-10247171D02*
X10575732Y-10237648D01*
X10575732Y-10237648D02*
X10575732Y-10223362D01*
X10509065Y-10290029D02*
X10575732Y-10309076D01*
X10575732Y-10309076D02*
X10528113Y-10328124D01*
X10528113Y-10328124D02*
X10575732Y-10347171D01*
X10575732Y-10347171D02*
X10509065Y-10366219D01*
X10570970Y-10442410D02*
X10575732Y-10432886D01*
X10575732Y-10432886D02*
X10575732Y-10413838D01*
X10575732Y-10413838D02*
X10570970Y-10404314D01*
X10570970Y-10404314D02*
X10561446Y-10399552D01*
X10561446Y-10399552D02*
X10523351Y-10399552D01*
X10523351Y-10399552D02*
X10513827Y-10404314D01*
X10513827Y-10404314D02*
X10509065Y-10413838D01*
X10509065Y-10413838D02*
X10509065Y-10432886D01*
X10509065Y-10432886D02*
X10513827Y-10442410D01*
X10513827Y-10442410D02*
X10523351Y-10447171D01*
X10523351Y-10447171D02*
X10532875Y-10447171D01*
X10532875Y-10447171D02*
X10542399Y-10399552D01*
X10575732Y-10490029D02*
X10509065Y-10490029D01*
X10528113Y-10490029D02*
X10518589Y-10494791D01*
X10518589Y-10494791D02*
X10513827Y-10499552D01*
X10513827Y-10499552D02*
X10509065Y-10509076D01*
X10509065Y-10509076D02*
X10509065Y-10518600D01*
X10730732Y-10055267D02*
X10802160Y-10055267D01*
X10802160Y-10055267D02*
X10816446Y-10050505D01*
X10816446Y-10050505D02*
X10825970Y-10040981D01*
X10825970Y-10040981D02*
X10830732Y-10026695D01*
X10830732Y-10026695D02*
X10830732Y-10017171D01*
X10730732Y-10093362D02*
X10730732Y-10155267D01*
X10730732Y-10155267D02*
X10768827Y-10121933D01*
X10768827Y-10121933D02*
X10768827Y-10136219D01*
X10768827Y-10136219D02*
X10773589Y-10145743D01*
X10773589Y-10145743D02*
X10778351Y-10150505D01*
X10778351Y-10150505D02*
X10787875Y-10155267D01*
X10787875Y-10155267D02*
X10811684Y-10155267D01*
X10811684Y-10155267D02*
X10821208Y-10150505D01*
X10821208Y-10150505D02*
X10825970Y-10145743D01*
X10825970Y-10145743D02*
X10830732Y-10136219D01*
X10830732Y-10136219D02*
X10830732Y-10107648D01*
X10830732Y-10107648D02*
X10825970Y-10098124D01*
X10825970Y-10098124D02*
X10821208Y-10093362D01*
X11983164Y-13092101D02*
X11968878Y-13096863D01*
X11968878Y-13096863D02*
X11964117Y-13101625D01*
X11964117Y-13101625D02*
X11959355Y-13111148D01*
X11959355Y-13111148D02*
X11959355Y-13125434D01*
X11959355Y-13125434D02*
X11964117Y-13134958D01*
X11964117Y-13134958D02*
X11968878Y-13139720D01*
X11968878Y-13139720D02*
X11978402Y-13144482D01*
X11978402Y-13144482D02*
X12016497Y-13144482D01*
X12016497Y-13144482D02*
X12016497Y-13044482D01*
X12016497Y-13044482D02*
X11983164Y-13044482D01*
X11983164Y-13044482D02*
X11973640Y-13049244D01*
X11973640Y-13049244D02*
X11968878Y-13054006D01*
X11968878Y-13054006D02*
X11964117Y-13063529D01*
X11964117Y-13063529D02*
X11964117Y-13073053D01*
X11964117Y-13073053D02*
X11968878Y-13082577D01*
X11968878Y-13082577D02*
X11973640Y-13087339D01*
X11973640Y-13087339D02*
X11983164Y-13092101D01*
X11983164Y-13092101D02*
X12016497Y-13092101D01*
X11859355Y-13134958D02*
X11864117Y-13139720D01*
X11864117Y-13139720D02*
X11878402Y-13144482D01*
X11878402Y-13144482D02*
X11887926Y-13144482D01*
X11887926Y-13144482D02*
X11902212Y-13139720D01*
X11902212Y-13139720D02*
X11911736Y-13130196D01*
X11911736Y-13130196D02*
X11916497Y-13120672D01*
X11916497Y-13120672D02*
X11921259Y-13101625D01*
X11921259Y-13101625D02*
X11921259Y-13087339D01*
X11921259Y-13087339D02*
X11916497Y-13068291D01*
X11916497Y-13068291D02*
X11911736Y-13058768D01*
X11911736Y-13058768D02*
X11902212Y-13049244D01*
X11902212Y-13049244D02*
X11887926Y-13044482D01*
X11887926Y-13044482D02*
X11878402Y-13044482D01*
X11878402Y-13044482D02*
X11864117Y-13049244D01*
X11864117Y-13049244D02*
X11859355Y-13054006D01*
X11802212Y-13087339D02*
X11811736Y-13082577D01*
X11811736Y-13082577D02*
X11816497Y-13077815D01*
X11816497Y-13077815D02*
X11821259Y-13068291D01*
X11821259Y-13068291D02*
X11821259Y-13063529D01*
X11821259Y-13063529D02*
X11816497Y-13054006D01*
X11816497Y-13054006D02*
X11811736Y-13049244D01*
X11811736Y-13049244D02*
X11802212Y-13044482D01*
X11802212Y-13044482D02*
X11783164Y-13044482D01*
X11783164Y-13044482D02*
X11773640Y-13049244D01*
X11773640Y-13049244D02*
X11768878Y-13054006D01*
X11768878Y-13054006D02*
X11764117Y-13063529D01*
X11764117Y-13063529D02*
X11764117Y-13068291D01*
X11764117Y-13068291D02*
X11768878Y-13077815D01*
X11768878Y-13077815D02*
X11773640Y-13082577D01*
X11773640Y-13082577D02*
X11783164Y-13087339D01*
X11783164Y-13087339D02*
X11802212Y-13087339D01*
X11802212Y-13087339D02*
X11811736Y-13092101D01*
X11811736Y-13092101D02*
X11816497Y-13096863D01*
X11816497Y-13096863D02*
X11821259Y-13106387D01*
X11821259Y-13106387D02*
X11821259Y-13125434D01*
X11821259Y-13125434D02*
X11816497Y-13134958D01*
X11816497Y-13134958D02*
X11811736Y-13139720D01*
X11811736Y-13139720D02*
X11802212Y-13144482D01*
X11802212Y-13144482D02*
X11783164Y-13144482D01*
X11783164Y-13144482D02*
X11773640Y-13139720D01*
X11773640Y-13139720D02*
X11768878Y-13134958D01*
X11768878Y-13134958D02*
X11764117Y-13125434D01*
X11764117Y-13125434D02*
X11764117Y-13106387D01*
X11764117Y-13106387D02*
X11768878Y-13096863D01*
X11768878Y-13096863D02*
X11773640Y-13092101D01*
X11773640Y-13092101D02*
X11783164Y-13087339D01*
X11668878Y-13144482D02*
X11726021Y-13144482D01*
X11697450Y-13144482D02*
X11697450Y-13044482D01*
X11697450Y-13044482D02*
X11706974Y-13058768D01*
X11706974Y-13058768D02*
X11716497Y-13068291D01*
X11716497Y-13068291D02*
X11726021Y-13073053D01*
X11635545Y-13044482D02*
X11568878Y-13044482D01*
X11568878Y-13044482D02*
X11611736Y-13144482D01*
D12*
X11801259Y-12881002D02*
X11805069Y-12879097D01*
X11805069Y-12879097D02*
X11808878Y-12875288D01*
X11808878Y-12875288D02*
X11814593Y-12869574D01*
X11814593Y-12869574D02*
X11818402Y-12867669D01*
X11818402Y-12867669D02*
X11822212Y-12867669D01*
X11820307Y-12877193D02*
X11824117Y-12875288D01*
X11824117Y-12875288D02*
X11827926Y-12871478D01*
X11827926Y-12871478D02*
X11829831Y-12863859D01*
X11829831Y-12863859D02*
X11829831Y-12850526D01*
X11829831Y-12850526D02*
X11827926Y-12842907D01*
X11827926Y-12842907D02*
X11824117Y-12839097D01*
X11824117Y-12839097D02*
X11820307Y-12837193D01*
X11820307Y-12837193D02*
X11812688Y-12837193D01*
X11812688Y-12837193D02*
X11808878Y-12839097D01*
X11808878Y-12839097D02*
X11805069Y-12842907D01*
X11805069Y-12842907D02*
X11803164Y-12850526D01*
X11803164Y-12850526D02*
X11803164Y-12863859D01*
X11803164Y-12863859D02*
X11805069Y-12871478D01*
X11805069Y-12871478D02*
X11808878Y-12875288D01*
X11808878Y-12875288D02*
X11812688Y-12877193D01*
X11812688Y-12877193D02*
X11820307Y-12877193D01*
X11787926Y-12841002D02*
X11786021Y-12839097D01*
X11786021Y-12839097D02*
X11782212Y-12837193D01*
X11782212Y-12837193D02*
X11772688Y-12837193D01*
X11772688Y-12837193D02*
X11768878Y-12839097D01*
X11768878Y-12839097D02*
X11766974Y-12841002D01*
X11766974Y-12841002D02*
X11765069Y-12844812D01*
X11765069Y-12844812D02*
X11765069Y-12848621D01*
X11765069Y-12848621D02*
X11766974Y-12854336D01*
X11766974Y-12854336D02*
X11789831Y-12877193D01*
X11789831Y-12877193D02*
X11765069Y-12877193D01*
%TO.C,U1*%
D14*
X13257800Y-13983600D02*
X15037800Y-13983600D01*
X15037800Y-11886100D01*
X13257800Y-11886100D01*
X13257800Y-13983600D01*
D15*
X13392600Y-13871200D02*
G75*
G02*
X13342200Y-13871200I-25200J0D01*
G01*
X13342200Y-13871200D02*
G75*
G02*
X13392600Y-13871200I25200J0D01*
G01*
D14*
%TO.C,D4*%
X12010250Y-11045200D02*
X12330250Y-11045200D01*
X12010250Y-11165200D02*
X12010250Y-11045200D01*
X12050250Y-11205200D02*
X12010250Y-11165200D01*
X12330250Y-11045200D02*
X12330250Y-11205200D01*
X12330250Y-11205200D02*
X12050250Y-11205200D01*
%TO.C,D2*%
X12010250Y-11426200D02*
X12330250Y-11426200D01*
X12010250Y-11546200D02*
X12010250Y-11426200D01*
X12050250Y-11586200D02*
X12010250Y-11546200D01*
X12330250Y-11426200D02*
X12330250Y-11586200D01*
X12330250Y-11586200D02*
X12050250Y-11586200D01*
%TO.C,R3*%
X12588200Y-11807200D02*
X12588200Y-11967200D01*
X12588200Y-11967200D02*
X12908200Y-11967200D01*
X12908200Y-11807200D02*
X12588200Y-11807200D01*
X12908200Y-11967200D02*
X12908200Y-11807200D01*
%TO.C,D3*%
X12010250Y-11807200D02*
X12330250Y-11807200D01*
X12010250Y-11927200D02*
X12010250Y-11807200D01*
X12050250Y-11967200D02*
X12010250Y-11927200D01*
X12330250Y-11807200D02*
X12330250Y-11967200D01*
X12330250Y-11967200D02*
X12050250Y-11967200D01*
%TO.C,Q1*%
X11718850Y-12224800D02*
X11718850Y-12514800D01*
X11718850Y-12514800D02*
X11878850Y-12514800D01*
X11838850Y-12224800D02*
X11718850Y-12224800D01*
X11878850Y-12264800D02*
X11838850Y-12224800D01*
X11878850Y-12514800D02*
X11878850Y-12264800D01*
%TO.C,C1*%
X10468550Y-10783300D02*
X10468550Y-10908300D01*
X10468550Y-10908300D02*
X10668550Y-10908300D01*
X10668550Y-10783300D02*
X10468550Y-10783300D01*
X10668550Y-10908300D02*
X10668550Y-10783300D01*
%TO.C,R2*%
X12435800Y-12543800D02*
X12435800Y-12703800D01*
X12435800Y-12703800D02*
X12755800Y-12703800D01*
X12755800Y-12543800D02*
X12435800Y-12543800D01*
X12755800Y-12703800D02*
X12755800Y-12543800D01*
%TO.C,R1*%
X12434400Y-12169400D02*
X12434400Y-12329400D01*
X12434400Y-12329400D02*
X12754400Y-12329400D01*
X12754400Y-12169400D02*
X12434400Y-12169400D01*
X12754400Y-12329400D02*
X12754400Y-12169400D01*
%TO.C,U2*%
X11107800Y-10764800D02*
X11477800Y-10764800D01*
X11107800Y-11334800D02*
X11107800Y-10764800D01*
X11107800Y-11334800D02*
X11207800Y-11434800D01*
X11207800Y-11434800D02*
X11477800Y-11434800D01*
X11477800Y-11434800D02*
X11477800Y-10764800D01*
%TO.C,R4*%
X12588200Y-11426200D02*
X12588200Y-11586200D01*
X12588200Y-11586200D02*
X12908200Y-11586200D01*
X12908200Y-11426200D02*
X12588200Y-11426200D01*
X12908200Y-11586200D02*
X12908200Y-11426200D01*
%TO.C,K1*%
X7951750Y-11865550D02*
X10831750Y-11865550D01*
X7951750Y-13115550D02*
X7951750Y-11865550D01*
X10601750Y-12715550D02*
X10601750Y-12265550D01*
X10731750Y-13115550D02*
X7951750Y-13115550D01*
X10831750Y-11865550D02*
X10831750Y-13015550D01*
X10831750Y-13015550D02*
X10731750Y-13115550D01*
%TO.C,R5*%
X12588200Y-11045200D02*
X12588200Y-11205200D01*
X12588200Y-11205200D02*
X12908200Y-11205200D01*
X12908200Y-11045200D02*
X12588200Y-11045200D01*
X12908200Y-11205200D02*
X12908200Y-11045200D01*
%TO.C,J1*%
X12217400Y-9089600D02*
X12217400Y-10019600D01*
X12217400Y-9089600D02*
X15265400Y-9089600D01*
X12217400Y-9239600D02*
X15265400Y-9239600D01*
X12217400Y-9729600D02*
X15265400Y-9729600D01*
X12217400Y-10019600D02*
X15265400Y-10019600D01*
X12267400Y-9039600D02*
X12217400Y-9089600D01*
X12566900Y-9613400D02*
X12357600Y-9404100D01*
X12585200Y-9595100D02*
X12375900Y-9385800D01*
X13074900Y-9613400D02*
X12865600Y-9404100D01*
X13093200Y-9595100D02*
X12883900Y-9385800D01*
X13582900Y-9613400D02*
X13373600Y-9404100D01*
X13601200Y-9595100D02*
X13391900Y-9385800D01*
X14090900Y-9613400D02*
X13881600Y-9404100D01*
X14109200Y-9595100D02*
X13899900Y-9385800D01*
X14598900Y-9613400D02*
X14389600Y-9404100D01*
X14617200Y-9595100D02*
X14407900Y-9385800D01*
X15106900Y-9613400D02*
X14897600Y-9404100D01*
X15125200Y-9595100D02*
X14915900Y-9385800D01*
X15265400Y-9039600D02*
X12267400Y-9039600D01*
X15265400Y-10019600D02*
X15265400Y-9039600D01*
X12621400Y-9499600D02*
G75*
G02*
X12321400Y-9499600I-150000J0D01*
G01*
X12321400Y-9499600D02*
G75*
G02*
X12621400Y-9499600I150000J0D01*
G01*
X13129400Y-9499600D02*
G75*
G02*
X12829400Y-9499600I-150000J0D01*
G01*
X12829400Y-9499600D02*
G75*
G02*
X13129400Y-9499600I150000J0D01*
G01*
X13637400Y-9499600D02*
G75*
G02*
X13337400Y-9499600I-150000J0D01*
G01*
X13337400Y-9499600D02*
G75*
G02*
X13637400Y-9499600I150000J0D01*
G01*
X14145400Y-9499600D02*
G75*
G02*
X13845400Y-9499600I-150000J0D01*
G01*
X13845400Y-9499600D02*
G75*
G02*
X14145400Y-9499600I150000J0D01*
G01*
X14653400Y-9499600D02*
G75*
G02*
X14353400Y-9499600I-150000J0D01*
G01*
X14353400Y-9499600D02*
G75*
G02*
X14653400Y-9499600I150000J0D01*
G01*
X15161400Y-9499600D02*
G75*
G02*
X14861400Y-9499600I-150000J0D01*
G01*
X14861400Y-9499600D02*
G75*
G02*
X15161400Y-9499600I150000J0D01*
G01*
%TO.C,J2*%
X8331200Y-9115000D02*
X8331200Y-10045000D01*
X8331200Y-9115000D02*
X9855200Y-9115000D01*
X8331200Y-9265000D02*
X9855200Y-9265000D01*
X8331200Y-9755000D02*
X9855200Y-9755000D01*
X8331200Y-10045000D02*
X9855200Y-10045000D01*
X8381200Y-9065000D02*
X8331200Y-9115000D01*
X8680700Y-9638800D02*
X8471400Y-9429500D01*
X8699000Y-9620500D02*
X8489700Y-9411200D01*
X9188700Y-9638800D02*
X8979400Y-9429500D01*
X9207000Y-9620500D02*
X8997700Y-9411200D01*
X9696700Y-9638800D02*
X9487400Y-9429500D01*
X9715000Y-9620500D02*
X9505700Y-9411200D01*
X9855200Y-9065000D02*
X8381200Y-9065000D01*
X9855200Y-10045000D02*
X9855200Y-9065000D01*
X8735200Y-9525000D02*
G75*
G02*
X8435200Y-9525000I-150000J0D01*
G01*
X8435200Y-9525000D02*
G75*
G02*
X8735200Y-9525000I150000J0D01*
G01*
X9243200Y-9525000D02*
G75*
G02*
X8943200Y-9525000I-150000J0D01*
G01*
X8943200Y-9525000D02*
G75*
G02*
X9243200Y-9525000I150000J0D01*
G01*
X9751200Y-9525000D02*
G75*
G02*
X9451200Y-9525000I-150000J0D01*
G01*
X9451200Y-9525000D02*
G75*
G02*
X9751200Y-9525000I150000J0D01*
G01*
%TO.C,C2*%
X10468550Y-11037300D02*
X10468550Y-11162300D01*
X10468550Y-11162300D02*
X10668550Y-11162300D01*
X10668550Y-11037300D02*
X10468550Y-11037300D01*
X10668550Y-11162300D02*
X10668550Y-11037300D01*
%TO.C,J3*%
X10629708Y-10388279D02*
X10705250Y-10468600D01*
X10630250Y-9018600D02*
X11530250Y-9018600D01*
X10630250Y-9368600D02*
X11530250Y-9368600D01*
X10630250Y-10388600D02*
X10630250Y-9018600D01*
X11530250Y-9018600D02*
X11530250Y-10468600D01*
X11530250Y-10468600D02*
X10705250Y-10468600D01*
%TO.C,Q2*%
X11717450Y-12714000D02*
X11717450Y-13004000D01*
X11717450Y-13004000D02*
X11877450Y-13004000D01*
X11837450Y-12714000D02*
X11717450Y-12714000D01*
X11877450Y-12754000D02*
X11837450Y-12714000D01*
X11877450Y-13004000D02*
X11877450Y-12754000D01*
%TD*%
M02*
