%TF.GenerationSoftware,KiCad,Pcbnew,9.0.4*%
%TF.CreationDate,2025-09-13T16:38:24+02:00*%
%TF.ProjectId,esp32c6-charger,65737033-3263-4362-9d63-686172676572,rev?*%
%TF.SameCoordinates,Original*%
%TF.FileFunction,Copper,L2,Bot*%
%TF.FilePolarity,Positive*%
%FSLAX45Y45*%
G04 Gerber Fmt 4.5, Leading zero omitted, Abs format (unit mm)*
G04 Created by KiCad (PCBNEW 9.0.4) date 2025-09-13 16:38:24*
%MOMM*%
%LPD*%
G01*
G04 APERTURE LIST*
G04 Aperture macros list*
%AMRoundRect*
0 Rectangle with rounded corners*
0 $1 Rounding radius*
0 $2 $3 $4 $5 $6 $7 $8 $9 X,Y pos of 4 corners*
0 Add a 4 corners polygon primitive as box body*
4,1,4,$2,$3,$4,$5,$6,$7,$8,$9,$2,$3,0*
0 Add four circle primitives for the rounded corners*
1,1,$1+$1,$2,$3*
1,1,$1+$1,$4,$5*
1,1,$1+$1,$6,$7*
1,1,$1+$1,$8,$9*
0 Add four rect primitives between the rounded corners*
20,1,$1+$1,$2,$3,$4,$5,0*
20,1,$1+$1,$4,$5,$6,$7,0*
20,1,$1+$1,$6,$7,$8,$9,0*
20,1,$1+$1,$8,$9,$2,$3,0*%
G04 Aperture macros list end*
%TA.AperFunction,ComponentPad*%
%ADD10O,1.600000X2.000000*%
%TD*%
%TA.AperFunction,ComponentPad*%
%ADD11R,1.700000X1.700000*%
%TD*%
%TA.AperFunction,ComponentPad*%
%ADD12C,1.700000*%
%TD*%
%TA.AperFunction,SMDPad,CuDef*%
%ADD13RoundRect,0.152400X1.063600X0.609600X-1.063600X0.609600X-1.063600X-0.609600X1.063600X-0.609600X0*%
%TD*%
%TA.AperFunction,ComponentPad*%
%ADD14C,1.524000*%
%TD*%
%TA.AperFunction,SMDPad,CuDef*%
%ADD15RoundRect,0.152400X-1.063600X-0.609600X1.063600X-0.609600X1.063600X0.609600X-1.063600X0.609600X0*%
%TD*%
%TA.AperFunction,SMDPad,CuDef*%
%ADD16RoundRect,0.250001X-0.462499X-0.624999X0.462499X-0.624999X0.462499X0.624999X-0.462499X0.624999X0*%
%TD*%
%TA.AperFunction,SMDPad,CuDef*%
%ADD17RoundRect,0.250000X-0.400000X-0.625000X0.400000X-0.625000X0.400000X0.625000X-0.400000X0.625000X0*%
%TD*%
%TA.AperFunction,ComponentPad*%
%ADD18R,1.300000X1.300000*%
%TD*%
%TA.AperFunction,ComponentPad*%
%ADD19C,1.300000*%
%TD*%
%TA.AperFunction,ComponentPad*%
%ADD20RoundRect,0.250000X-1.050000X-1.050000X1.050000X-1.050000X1.050000X1.050000X-1.050000X1.050000X0*%
%TD*%
%TA.AperFunction,ComponentPad*%
%ADD21C,2.600000*%
%TD*%
%TA.AperFunction,SMDPad,CuDef*%
%ADD22RoundRect,0.250000X0.785000X0.945000X-0.785000X0.945000X-0.785000X-0.945000X0.785000X-0.945000X0*%
%TD*%
%TA.AperFunction,SMDPad,CuDef*%
%ADD23RoundRect,0.250000X0.400000X0.625000X-0.400000X0.625000X-0.400000X-0.625000X0.400000X-0.625000X0*%
%TD*%
%TA.AperFunction,SMDPad,CuDef*%
%ADD24RoundRect,0.375000X-0.625000X-0.375000X0.625000X-0.375000X0.625000X0.375000X-0.625000X0.375000X0*%
%TD*%
%TA.AperFunction,SMDPad,CuDef*%
%ADD25RoundRect,0.500000X-0.500000X-1.400000X0.500000X-1.400000X0.500000X1.400000X-0.500000X1.400000X0*%
%TD*%
%TA.AperFunction,ComponentPad*%
%ADD26C,2.000000*%
%TD*%
%TA.AperFunction,ComponentPad*%
%ADD27R,2.000000X2.000000*%
%TD*%
%TA.AperFunction,ComponentPad*%
%ADD28RoundRect,0.250000X0.550000X-0.550000X0.550000X0.550000X-0.550000X0.550000X-0.550000X-0.550000X0*%
%TD*%
%TA.AperFunction,ComponentPad*%
%ADD29C,1.600000*%
%TD*%
%TA.AperFunction,Conductor*%
%ADD30C,0.200000*%
%TD*%
%TA.AperFunction,Conductor*%
%ADD31C,2.000000*%
%TD*%
G04 APERTURE END LIST*
D10*
%TO.P,Display1,1,GND*%
%TO.N,GND*%
X12547600Y-9156700D03*
%TO.P,Display1,2,VCC*%
%TO.N,VCC*%
X12801600Y-9156700D03*
%TO.P,Display1,3,SCL*%
%TO.N,/SCL*%
X13055600Y-9156700D03*
%TO.P,Display1,4,SDA*%
%TO.N,/SDA*%
X13309600Y-9156700D03*
%TD*%
D11*
%TO.P,Rfidreader1,1,SDA*%
%TO.N,/CS*%
X15849600Y-9055100D03*
D12*
%TO.P,Rfidreader1,2,SCK*%
%TO.N,/SCK*%
X15849600Y-9309100D03*
%TO.P,Rfidreader1,3,MOSI*%
%TO.N,/MOSI*%
X15849600Y-9563100D03*
%TO.P,Rfidreader1,4,MISO*%
%TO.N,/MISO*%
X15849600Y-9817100D03*
%TO.P,Rfidreader1,5,IRQ*%
%TO.N,unconnected-(Rfidreader1-IRQ-Pad5)*%
X15849600Y-10071100D03*
%TO.P,Rfidreader1,6,GND*%
%TO.N,GND*%
X15849600Y-10325100D03*
%TO.P,Rfidreader1,7,RST*%
%TO.N,unconnected-(Rfidreader1-RST-Pad7)*%
X15849600Y-10579100D03*
%TO.P,Rfidreader1,8,3\u002C3V*%
%TO.N,VCC*%
X15849600Y-10833100D03*
%TD*%
D13*
%TO.P,U2,1,GPIO0/A0/D0*%
%TO.N,/LED*%
X13073700Y-12128500D03*
D14*
X13157200Y-12128500D03*
D13*
%TO.P,U2,2,GPIO1/A1/D1*%
%TO.N,/Detect*%
X13073700Y-11874500D03*
D14*
X13157200Y-11874500D03*
D13*
%TO.P,U2,3,GPIO2/A2/D2*%
%TO.N,Net-(U2-GPIO2{slash}A2{slash}D2)*%
X13073700Y-11620500D03*
D14*
X13157200Y-11620500D03*
D13*
%TO.P,U2,4,GPIO21/D3*%
%TO.N,Net-(U2-GPIO21{slash}D3)*%
X13073700Y-11366500D03*
D14*
X13157200Y-11366500D03*
D13*
%TO.P,U2,5,GPIO22/D4/SDA*%
%TO.N,/SDA*%
X13073700Y-11112500D03*
D14*
X13157200Y-11112500D03*
D13*
%TO.P,U2,6,GPIO23/D5/SCL*%
%TO.N,/SCL*%
X13073700Y-10858500D03*
D14*
X13157200Y-10858500D03*
D13*
%TO.P,U2,7,GPIO16/D6/TX*%
%TO.N,unconnected-(U2-GPIO16{slash}D6{slash}TX-Pad7)*%
X13073700Y-10604500D03*
D14*
X13157200Y-10604500D03*
%TO.P,U2,8,GPIO17/D7/RX*%
%TO.N,/CS*%
X14681200Y-10604500D03*
D15*
X14764700Y-10604500D03*
D14*
%TO.P,U2,9,GPIO19/D8/SCK*%
%TO.N,/SCK*%
X14681200Y-10858500D03*
D15*
X14764700Y-10858500D03*
D14*
%TO.P,U2,10,GPIO20/D9/MISO*%
%TO.N,/MISO*%
X14681200Y-11112500D03*
D15*
X14764700Y-11112500D03*
D14*
%TO.P,U2,11,GPIO18/D10/MOSI*%
%TO.N,/MOSI*%
X14681200Y-11366500D03*
D15*
X14764700Y-11366500D03*
D14*
%TO.P,U2,12,3V3*%
%TO.N,VCC*%
X14681200Y-11620500D03*
D15*
X14764700Y-11620500D03*
D14*
%TO.P,U2,13,GND*%
%TO.N,GND*%
X14681200Y-11874500D03*
D15*
X14764700Y-11874500D03*
D14*
%TO.P,U2,14,VBUS*%
%TO.N,VDD*%
X14681200Y-12128500D03*
D15*
X14764700Y-12128500D03*
%TD*%
D16*
%TO.P,D4,1,K*%
%TO.N,/Detect*%
X11947900Y-9537700D03*
%TO.P,D4,2,A*%
%TO.N,Net-(D4-A)*%
X12245400Y-9537700D03*
%TD*%
%TO.P,D3,1,K*%
%TO.N,/Lock*%
X11952193Y-9918700D03*
%TO.P,D3,2,A*%
%TO.N,Net-(D3-A)*%
X12249693Y-9918700D03*
%TD*%
D17*
%TO.P,R3,1*%
%TO.N,Net-(D2-A)*%
X12519600Y-10299700D03*
%TO.P,R3,2*%
%TO.N,VCC*%
X12829600Y-10299700D03*
%TD*%
D16*
%TO.P,D2,1,K*%
%TO.N,/Relay*%
X11947900Y-10299700D03*
%TO.P,D2,2,A*%
%TO.N,Net-(D2-A)*%
X12245400Y-10299700D03*
%TD*%
D18*
%TO.P,Q2,1,C*%
%TO.N,/Lock*%
X11607800Y-11125200D03*
D19*
%TO.P,Q2,2,B*%
%TO.N,Net-(Q2-B)*%
X11480800Y-11252200D03*
%TO.P,Q2,3,E*%
%TO.N,GND*%
X11607800Y-11379200D03*
%TD*%
D20*
%TO.P,J1,1,Pin_1*%
%TO.N,+12V*%
X10642600Y-7962900D03*
D21*
%TO.P,J1,2,Pin_2*%
%TO.N,GND*%
X11150600Y-7962900D03*
%TD*%
D22*
%TO.P,C1,1*%
%TO.N,+12V*%
X10610200Y-9359900D03*
%TO.P,C1,2*%
%TO.N,GND*%
X10116200Y-9359900D03*
%TD*%
D23*
%TO.P,R1,1*%
%TO.N,Net-(U2-GPIO2{slash}A2{slash}D2)*%
X12446000Y-11658600D03*
%TO.P,R1,2*%
%TO.N,Net-(Q1-B)*%
X12136000Y-11658600D03*
%TD*%
%TO.P,R2,1*%
%TO.N,Net-(U2-GPIO21{slash}D3)*%
X12448600Y-11353800D03*
%TO.P,R2,2*%
%TO.N,Net-(Q2-B)*%
X12138600Y-11353800D03*
%TD*%
D24*
%TO.P,U1,1,GND*%
%TO.N,GND*%
X10927000Y-9818500D03*
%TO.P,U1,2,VO*%
%TO.N,VDD*%
X10927000Y-9588500D03*
D25*
X11557000Y-9588500D03*
D24*
%TO.P,U1,3,VI*%
%TO.N,+12V*%
X10927000Y-9358500D03*
%TD*%
D17*
%TO.P,R4,1*%
%TO.N,Net-(D3-A)*%
X12519600Y-9918700D03*
%TO.P,R4,2*%
%TO.N,VCC*%
X12829600Y-9918700D03*
%TD*%
D26*
%TO.P,K1,11*%
%TO.N,Net-(J3-Pin_2)*%
X8373150Y-11303450D03*
X8373150Y-10553450D03*
%TO.P,K1,12*%
%TO.N,Net-(J3-Pin_3)*%
X8873150Y-11303450D03*
X8873150Y-10553450D03*
%TO.P,K1,14*%
%TO.N,Net-(J3-Pin_1)*%
X7873150Y-11303450D03*
X7873150Y-10553450D03*
D27*
%TO.P,K1,A1*%
%TO.N,VDD*%
X10373150Y-11303450D03*
D26*
%TO.P,K1,A2*%
%TO.N,/Relay*%
X10373150Y-10553450D03*
%TD*%
D17*
%TO.P,R5,1*%
%TO.N,Net-(D4-A)*%
X12519600Y-9537700D03*
%TO.P,R5,2*%
%TO.N,VCC*%
X12829600Y-9537700D03*
%TD*%
D20*
%TO.P,J2,1,Pin_1*%
%TO.N,VDD*%
X12242800Y-7962900D03*
D21*
%TO.P,J2,2,Pin_2*%
%TO.N,VCC*%
X12750800Y-7962900D03*
%TO.P,J2,3,Pin_3*%
%TO.N,/Lock*%
X13258800Y-7962900D03*
%TO.P,J2,4,Pin_4*%
%TO.N,/Detect*%
X13766800Y-7962900D03*
%TO.P,J2,5,Pin_5*%
%TO.N,GND*%
X14274800Y-7962900D03*
%TO.P,J2,6,Pin_6*%
X14782800Y-7962900D03*
%TD*%
D20*
%TO.P,J3,1,Pin_1*%
%TO.N,Net-(J3-Pin_1)*%
X8356600Y-7962900D03*
D21*
%TO.P,J3,2,Pin_2*%
%TO.N,Net-(J3-Pin_2)*%
X8864600Y-7962900D03*
%TO.P,J3,3,Pin_3*%
%TO.N,Net-(J3-Pin_3)*%
X9372600Y-7962900D03*
%TD*%
D28*
%TO.P,D5,1,K*%
%TO.N,VDD*%
X10795000Y-11303000D03*
D29*
%TO.P,D5,2,A*%
%TO.N,/Relay*%
X10795000Y-10541000D03*
%TD*%
D22*
%TO.P,C2,1*%
%TO.N,VDD*%
X10607700Y-9766300D03*
%TO.P,C2,2*%
%TO.N,GND*%
X10113700Y-9766300D03*
%TD*%
D18*
%TO.P,Q1,1,C*%
%TO.N,/Relay*%
X11607800Y-11760200D03*
D19*
%TO.P,Q1,2,B*%
%TO.N,Net-(Q1-B)*%
X11480800Y-11887200D03*
%TO.P,Q1,3,E*%
%TO.N,GND*%
X11607800Y-12014200D03*
%TD*%
D30*
%TO.N,VCC*%
X12750800Y-9105900D02*
X12801600Y-9156700D01*
X12829600Y-9184700D02*
X12801600Y-9156700D01*
X12829600Y-9537700D02*
X12829600Y-9184700D01*
X12829600Y-9537700D02*
X12829600Y-10299700D01*
%TO.N,/SCL*%
X13258800Y-10858500D02*
X13335000Y-10782300D01*
X13335000Y-10782300D02*
X13335000Y-9486900D01*
X13073700Y-10858500D02*
X13258800Y-10858500D01*
X13055600Y-9207500D02*
X13055600Y-9156700D01*
X13335000Y-9486900D02*
X13055600Y-9207500D01*
%TO.N,/SDA*%
X13411200Y-9258300D02*
X13411200Y-11010900D01*
X13309600Y-9156700D02*
X13411200Y-9258300D01*
X13309600Y-11112500D02*
X13157200Y-11112500D01*
X13411200Y-11010900D02*
X13309600Y-11112500D01*
%TO.N,/Lock*%
X11745500Y-8428890D02*
X11745500Y-9544189D01*
X13004800Y-8191500D02*
X11982890Y-8191500D01*
X11811000Y-10059894D02*
X11811000Y-11049000D01*
X11734800Y-11125200D02*
X11607800Y-11125200D01*
X11811000Y-11049000D02*
X11734800Y-11125200D01*
X11952193Y-9918700D02*
X11811000Y-10059894D01*
X11745500Y-9544189D02*
X11952193Y-9750883D01*
X11982890Y-8191500D02*
X11745500Y-8428890D01*
X13258800Y-7937500D02*
X13004800Y-8191500D01*
X11952193Y-9750883D02*
X11952193Y-9918700D01*
%TO.N,Net-(Q1-B)*%
X12090400Y-11887200D02*
X11480800Y-11887200D01*
X12136000Y-11658600D02*
X12136000Y-11841600D01*
X12136000Y-11658600D02*
X12136000Y-11653400D01*
X12136000Y-11841600D02*
X12090400Y-11887200D01*
X12110600Y-11633200D02*
X12136000Y-11658600D01*
%TO.N,Net-(Q2-B)*%
X12037000Y-11252200D02*
X11480800Y-11252200D01*
X12138600Y-11353800D02*
X12037000Y-11252200D01*
X12138600Y-11353800D02*
X12113200Y-11379200D01*
%TO.N,/Relay*%
X11074400Y-10541000D02*
X10795000Y-10541000D01*
X12217400Y-11506200D02*
X12065000Y-11506200D01*
X11226800Y-11760200D02*
X11176000Y-11709400D01*
X11947900Y-10922000D02*
X11947900Y-11160500D01*
X12014200Y-11709400D02*
X11963400Y-11760200D01*
X12268200Y-11252200D02*
X12268200Y-11455400D01*
X12217400Y-11201400D02*
X12268200Y-11252200D01*
X12268200Y-11455400D02*
X12217400Y-11506200D01*
X11176000Y-11404600D02*
X11176000Y-10642600D01*
X11947900Y-11160500D02*
X11988800Y-11201400D01*
X12014200Y-11557000D02*
X12014200Y-11709400D01*
X11176000Y-11709400D02*
X11176000Y-11404600D01*
X11176000Y-10642600D02*
X11074400Y-10541000D01*
X12065000Y-11506200D02*
X12014200Y-11557000D01*
X11947900Y-10299700D02*
X11947900Y-10922000D01*
X10795000Y-10541000D02*
X10385600Y-10541000D01*
X11607800Y-11760200D02*
X11226800Y-11760200D01*
X11988800Y-11201400D02*
X12217400Y-11201400D01*
X11963400Y-11760200D02*
X11607800Y-11760200D01*
X10385600Y-10541000D02*
X10373150Y-10553450D01*
D31*
%TO.N,Net-(J3-Pin_2)*%
X8373150Y-9610050D02*
X8373150Y-10553450D01*
X8864600Y-7962900D02*
X8864600Y-9118600D01*
X8864600Y-9118600D02*
X8373150Y-9610050D01*
X8373150Y-10553450D02*
X8373150Y-11303450D01*
%TO.N,Net-(J3-Pin_1)*%
X7874000Y-10552600D02*
X7873150Y-10553450D01*
X8356600Y-7962900D02*
X8356600Y-8915400D01*
X8356600Y-8915400D02*
X7874000Y-9398000D01*
X7874000Y-9398000D02*
X7874000Y-10552600D01*
X7873150Y-10553450D02*
X7873150Y-11303450D01*
%TO.N,Net-(J3-Pin_3)*%
X8873150Y-10553450D02*
X8873150Y-11303450D01*
X8873150Y-9795850D02*
X8873150Y-10553450D01*
X9372600Y-7996700D02*
X9372600Y-9296400D01*
X9372600Y-9296400D02*
X8873150Y-9795850D01*
D30*
%TO.N,Net-(U2-GPIO2{slash}A2{slash}D2)*%
X12484100Y-11620500D02*
X12446000Y-11658600D01*
X13073700Y-11620500D02*
X12484100Y-11620500D01*
%TO.N,Net-(U2-GPIO21{slash}D3)*%
X13073700Y-11366500D02*
X12461300Y-11366500D01*
X12461300Y-11366500D02*
X12448600Y-11353800D01*
%TO.N,+12V*%
X10642600Y-7937500D02*
X10610200Y-7969900D01*
X10611600Y-9358500D02*
X10610200Y-9359900D01*
X10610200Y-7969900D02*
X10610200Y-9359900D01*
X10927000Y-9358500D02*
X10611600Y-9358500D01*
%TO.N,Net-(D2-A)*%
X12245400Y-10299700D02*
X12519600Y-10299700D01*
%TO.N,/CS*%
X15798800Y-9055100D02*
X15849600Y-9055100D01*
X15722600Y-9131300D02*
X15798800Y-9055100D01*
X14986000Y-10553700D02*
X14986000Y-9588500D01*
X15163800Y-9410700D02*
X15671800Y-9410700D01*
X15722600Y-9359900D02*
X15722600Y-9131300D01*
X14764700Y-10604500D02*
X14935200Y-10604500D01*
X14935200Y-10604500D02*
X14986000Y-10553700D01*
X15671800Y-9410700D02*
X15722600Y-9359900D01*
X14986000Y-9588500D02*
X15163800Y-9410700D01*
%TO.N,/MOSI*%
X15214600Y-11264900D02*
X15113000Y-11366500D01*
X15113000Y-11366500D02*
X14764700Y-11366500D01*
X15849600Y-9563100D02*
X15316200Y-9563100D01*
X15316200Y-9563100D02*
X15214600Y-9664700D01*
X15214600Y-9664700D02*
X15214600Y-11264900D01*
%TO.N,/SCK*%
X15062200Y-10782300D02*
X14986000Y-10858500D01*
X15849600Y-9309100D02*
X15697200Y-9461500D01*
X14986000Y-10858500D02*
X14764700Y-10858500D01*
X15062200Y-9613900D02*
X15062200Y-10782300D01*
X15214600Y-9461500D02*
X15062200Y-9613900D01*
X15697200Y-9461500D02*
X15214600Y-9461500D01*
%TO.N,/MISO*%
X15964700Y-9702000D02*
X15964700Y-9515424D01*
X15062200Y-11112500D02*
X14764700Y-11112500D01*
X15801924Y-9448000D02*
X15737624Y-9512300D01*
X15265400Y-9512300D02*
X15138400Y-9639300D01*
X15849600Y-9817100D02*
X15964700Y-9702000D01*
X15897276Y-9448000D02*
X15801924Y-9448000D01*
X15737624Y-9512300D02*
X15265400Y-9512300D01*
X15138400Y-11036300D02*
X15062200Y-11112500D01*
X15964700Y-9515424D02*
X15897276Y-9448000D01*
X15138400Y-9639300D02*
X15138400Y-11036300D01*
%TO.N,VDD*%
X10901600Y-9613900D02*
X10927000Y-9588500D01*
X10373600Y-11303000D02*
X10373150Y-11303450D01*
X11557000Y-9563100D02*
X11684000Y-9436100D01*
X11557000Y-9588500D02*
X11557000Y-9563100D01*
X10243050Y-10130950D02*
X10607700Y-9766300D01*
X12166600Y-7937500D02*
X12242800Y-7937500D01*
X10607700Y-9766300D02*
X10760100Y-9613900D01*
X10376100Y-11306400D02*
X10373150Y-11303450D01*
X10760100Y-9613900D02*
X10901600Y-9613900D01*
X10795000Y-11303000D02*
X10373600Y-11303000D01*
X11684000Y-8420100D02*
X12166600Y-7937500D01*
X11684000Y-9436100D02*
X11684000Y-8420100D01*
X10373150Y-11303450D02*
X10243050Y-11173350D01*
X10243050Y-11173350D02*
X10243050Y-10130950D01*
X10927000Y-9588500D02*
X11557000Y-9588500D01*
%TO.N,Net-(D3-A)*%
X12245400Y-9918700D02*
X12519600Y-9918700D01*
%TO.N,Net-(D4-A)*%
X12245400Y-9537700D02*
X12519600Y-9537700D01*
%TO.N,/Detect*%
X12100943Y-11063857D02*
X12162287Y-11125200D01*
X12711379Y-11236700D02*
X12599879Y-11125200D01*
X13766800Y-7937500D02*
X13766800Y-8166100D01*
X13690600Y-8242300D02*
X12014200Y-8242300D01*
X12162287Y-11125200D02*
X12166600Y-11125200D01*
X12599879Y-11125200D02*
X12166600Y-11125200D01*
X13073700Y-11874500D02*
X13263143Y-11874500D01*
X11861800Y-9537700D02*
X11947900Y-9537700D01*
X12100943Y-11063857D02*
X12100943Y-9690744D01*
X11811000Y-9486900D02*
X11861800Y-9537700D01*
X12100943Y-9690744D02*
X11947900Y-9537700D01*
X13300943Y-11836700D02*
X13300943Y-11286700D01*
X11811000Y-8445500D02*
X11811000Y-9486900D01*
X13300943Y-11286700D02*
X13250943Y-11236700D01*
X13157200Y-11874500D02*
X13073700Y-11874500D01*
X13766800Y-8166100D02*
X13690600Y-8242300D01*
X12014200Y-8242300D02*
X11811000Y-8445500D01*
X13250943Y-11236700D02*
X12711379Y-11236700D01*
X13263143Y-11874500D02*
X13300943Y-11836700D01*
%TD*%
%TA.AperFunction,Conductor*%
%TO.N,GND*%
G36*
X11727570Y-9611228D02*
G01*
X11728218Y-9611831D01*
X11882400Y-9766013D01*
X11885748Y-9772145D01*
X11885250Y-9779114D01*
X11881063Y-9784708D01*
X11877532Y-9786552D01*
X11874010Y-9787719D01*
X11874010Y-9787719D01*
X11859078Y-9796929D01*
X11859078Y-9796929D01*
X11846672Y-9809334D01*
X11846672Y-9809335D01*
X11837462Y-9824266D01*
X11837462Y-9824266D01*
X11831944Y-9840920D01*
X11831943Y-9840920D01*
X11830893Y-9851198D01*
X11830893Y-9949940D01*
X11828925Y-9956644D01*
X11827262Y-9958708D01*
X11762948Y-10023022D01*
X11762948Y-10023022D01*
X11757936Y-10031703D01*
X11757936Y-10031703D01*
X11755042Y-10036714D01*
X11755042Y-10036715D01*
X11754302Y-10039476D01*
X11750950Y-10051988D01*
X11750950Y-10051988D01*
X11750950Y-10068798D01*
X11750950Y-10068799D01*
X11750950Y-11018990D01*
X11750085Y-11021934D01*
X11749433Y-11024933D01*
X11749058Y-11025434D01*
X11748981Y-11025694D01*
X11747318Y-11027758D01*
X11741230Y-11033847D01*
X11736638Y-11038439D01*
X11730505Y-11041787D01*
X11723536Y-11041289D01*
X11717943Y-11037101D01*
X11717421Y-11036289D01*
X11708555Y-11024446D01*
X11708554Y-11024445D01*
X11697033Y-11015821D01*
X11697033Y-11015820D01*
X11683548Y-11010791D01*
X11683548Y-11010791D01*
X11677588Y-11010150D01*
X11677588Y-11010150D01*
X11677587Y-11010150D01*
X11677586Y-11010150D01*
X11538013Y-11010150D01*
X11538012Y-11010150D01*
X11532052Y-11010791D01*
X11518567Y-11015820D01*
X11518566Y-11015821D01*
X11507045Y-11024445D01*
X11507045Y-11024446D01*
X11498421Y-11035966D01*
X11498420Y-11035967D01*
X11493391Y-11049452D01*
X11492750Y-11055412D01*
X11492750Y-11055414D01*
X11492750Y-11124750D01*
X11490781Y-11131454D01*
X11485501Y-11136029D01*
X11480350Y-11137150D01*
X11471745Y-11137150D01*
X11453859Y-11139983D01*
X11436636Y-11145579D01*
X11436636Y-11145579D01*
X11420500Y-11153801D01*
X11405850Y-11164444D01*
X11405850Y-11164445D01*
X11393044Y-11177250D01*
X11393044Y-11177251D01*
X11382401Y-11191900D01*
X11374179Y-11208036D01*
X11374179Y-11208036D01*
X11368583Y-11225259D01*
X11365750Y-11243145D01*
X11365750Y-11261255D01*
X11368583Y-11279141D01*
X11374179Y-11296364D01*
X11374179Y-11296364D01*
X11379766Y-11307330D01*
X11382273Y-11312250D01*
X11382401Y-11312500D01*
X11393044Y-11327149D01*
X11393044Y-11327150D01*
X11405850Y-11339955D01*
X11405850Y-11339956D01*
X11418564Y-11349192D01*
X11420501Y-11350600D01*
X11431048Y-11355974D01*
X11436636Y-11358821D01*
X11436636Y-11358821D01*
X11445248Y-11361619D01*
X11453859Y-11364417D01*
X11462143Y-11365729D01*
X11471745Y-11367250D01*
X11480400Y-11367250D01*
X11487104Y-11369218D01*
X11491679Y-11374499D01*
X11492800Y-11379650D01*
X11492800Y-11388251D01*
X11495632Y-11406129D01*
X11501225Y-11423344D01*
X11501225Y-11423345D01*
X11509443Y-11439473D01*
X11510591Y-11441053D01*
X11510591Y-11441053D01*
X11570300Y-11381345D01*
X11570300Y-11384137D01*
X11572856Y-11393674D01*
X11577792Y-11402225D01*
X11584774Y-11409207D01*
X11593325Y-11414144D01*
X11602863Y-11416700D01*
X11605655Y-11416700D01*
X11545947Y-11476408D01*
X11545947Y-11476409D01*
X11547527Y-11477557D01*
X11547527Y-11477557D01*
X11563655Y-11485775D01*
X11563655Y-11485775D01*
X11580871Y-11491368D01*
X11598749Y-11494200D01*
X11616851Y-11494200D01*
X11634729Y-11491368D01*
X11651944Y-11485775D01*
X11651945Y-11485774D01*
X11668073Y-11477557D01*
X11669653Y-11476408D01*
X11669653Y-11476408D01*
X11609945Y-11416700D01*
X11612737Y-11416700D01*
X11622274Y-11414144D01*
X11630825Y-11409207D01*
X11637807Y-11402225D01*
X11642744Y-11393674D01*
X11645300Y-11384137D01*
X11645300Y-11381345D01*
X11705008Y-11441053D01*
X11706157Y-11439473D01*
X11714374Y-11423345D01*
X11714375Y-11423344D01*
X11719968Y-11406129D01*
X11722800Y-11388251D01*
X11722800Y-11370149D01*
X11719968Y-11352271D01*
X11714375Y-11335055D01*
X11714375Y-11335055D01*
X11711941Y-11330279D01*
X11710652Y-11323413D01*
X11713279Y-11316939D01*
X11718990Y-11312913D01*
X11722990Y-11312250D01*
X12006990Y-11312250D01*
X12009934Y-11313114D01*
X12012933Y-11313767D01*
X12013434Y-11314142D01*
X12013694Y-11314218D01*
X12015758Y-11315882D01*
X12019918Y-11320042D01*
X12023267Y-11326174D01*
X12023550Y-11328810D01*
X12023550Y-11421300D01*
X12023550Y-11421302D01*
X12024600Y-11431580D01*
X12024600Y-11431580D01*
X12029685Y-11446925D01*
X12029739Y-11448482D01*
X12030283Y-11449941D01*
X12029856Y-11451902D01*
X12029925Y-11453908D01*
X12029108Y-11455340D01*
X12028798Y-11456768D01*
X12026683Y-11459593D01*
X12016948Y-11469328D01*
X12016948Y-11469328D01*
X11966148Y-11520128D01*
X11966148Y-11520128D01*
X11964495Y-11522992D01*
X11963796Y-11524202D01*
X11961824Y-11527618D01*
X11958483Y-11533404D01*
X11958242Y-11533821D01*
X11954150Y-11549094D01*
X11954150Y-11549094D01*
X11954150Y-11565905D01*
X11954150Y-11565906D01*
X11954150Y-11679390D01*
X11953285Y-11682334D01*
X11952633Y-11685333D01*
X11952258Y-11685834D01*
X11952181Y-11686094D01*
X11950518Y-11688158D01*
X11942158Y-11696518D01*
X11936026Y-11699867D01*
X11933390Y-11700150D01*
X11735035Y-11700150D01*
X11728331Y-11698181D01*
X11723756Y-11692901D01*
X11722706Y-11689075D01*
X11722209Y-11684452D01*
X11717180Y-11670967D01*
X11717179Y-11670966D01*
X11708555Y-11659445D01*
X11708554Y-11659445D01*
X11697033Y-11650821D01*
X11697033Y-11650820D01*
X11683548Y-11645791D01*
X11683548Y-11645791D01*
X11677588Y-11645150D01*
X11677588Y-11645150D01*
X11677587Y-11645150D01*
X11677586Y-11645150D01*
X11538013Y-11645150D01*
X11538012Y-11645150D01*
X11532052Y-11645791D01*
X11518567Y-11650820D01*
X11518566Y-11650821D01*
X11507045Y-11659445D01*
X11507045Y-11659445D01*
X11498421Y-11670966D01*
X11498420Y-11670967D01*
X11494181Y-11682334D01*
X11493391Y-11684452D01*
X11492894Y-11689076D01*
X11490220Y-11695531D01*
X11484481Y-11699515D01*
X11480565Y-11700150D01*
X11256810Y-11700150D01*
X11253866Y-11699285D01*
X11250867Y-11698633D01*
X11250365Y-11698258D01*
X11250106Y-11698181D01*
X11248042Y-11696518D01*
X11239682Y-11688158D01*
X11236333Y-11682026D01*
X11236050Y-11679390D01*
X11236050Y-10651506D01*
X11236050Y-10651505D01*
X11236050Y-10634695D01*
X11236050Y-10634694D01*
X11231958Y-10619422D01*
X11228683Y-10613749D01*
X11228683Y-10613749D01*
X11224052Y-10605729D01*
X11224052Y-10605729D01*
X11224052Y-10605728D01*
X11212872Y-10594548D01*
X11212871Y-10594548D01*
X11212438Y-10594115D01*
X11212437Y-10594114D01*
X11123159Y-10504836D01*
X11123159Y-10504835D01*
X11111272Y-10492948D01*
X11111272Y-10492948D01*
X11101834Y-10487500D01*
X11101834Y-10487499D01*
X11097578Y-10485042D01*
X11091988Y-10483544D01*
X11082306Y-10480950D01*
X11066494Y-10480950D01*
X11065735Y-10480950D01*
X11065733Y-10480950D01*
X10917960Y-10480950D01*
X10911256Y-10478982D01*
X10906912Y-10474180D01*
X10906228Y-10472839D01*
X10894197Y-10456279D01*
X10879721Y-10441803D01*
X10863161Y-10429772D01*
X10863161Y-10429771D01*
X10863161Y-10429771D01*
X10854024Y-10425116D01*
X10844922Y-10420478D01*
X10825453Y-10414152D01*
X10808000Y-10411388D01*
X10805235Y-10410950D01*
X10784765Y-10410950D01*
X10782333Y-10411335D01*
X10764547Y-10414152D01*
X10745078Y-10420478D01*
X10726839Y-10429772D01*
X10710279Y-10441803D01*
X10695803Y-10456279D01*
X10683772Y-10472839D01*
X10683088Y-10474180D01*
X10678291Y-10479259D01*
X10672040Y-10480950D01*
X10512193Y-10480950D01*
X10505489Y-10478982D01*
X10501781Y-10475193D01*
X10501771Y-10475201D01*
X10501719Y-10475129D01*
X10501621Y-10475029D01*
X10501485Y-10474807D01*
X10500054Y-10472839D01*
X10487602Y-10455699D01*
X10470901Y-10438998D01*
X10451793Y-10425116D01*
X10444640Y-10421471D01*
X10430750Y-10414393D01*
X10408287Y-10407095D01*
X10384960Y-10403400D01*
X10384959Y-10403400D01*
X10361341Y-10403400D01*
X10361340Y-10403400D01*
X10338013Y-10407095D01*
X10338013Y-10407095D01*
X10319332Y-10413165D01*
X10312348Y-10413364D01*
X10306364Y-10409756D01*
X10303282Y-10403486D01*
X10303100Y-10401372D01*
X10303100Y-10160960D01*
X10305069Y-10154256D01*
X10306731Y-10152192D01*
X10519442Y-9939482D01*
X10525574Y-9936133D01*
X10528209Y-9935850D01*
X10691201Y-9935850D01*
X10701480Y-9934800D01*
X10718133Y-9929281D01*
X10733066Y-9920071D01*
X10745471Y-9907666D01*
X10754681Y-9892733D01*
X10757658Y-9883751D01*
X10761635Y-9878007D01*
X10768087Y-9875324D01*
X10774964Y-9876556D01*
X10780084Y-9881310D01*
X10781462Y-9884659D01*
X10781883Y-9886352D01*
X10781883Y-9886352D01*
X10790339Y-9903402D01*
X10790339Y-9903403D01*
X10802263Y-9918237D01*
X10802263Y-9918237D01*
X10817097Y-9930161D01*
X10817098Y-9930161D01*
X10834148Y-9938617D01*
X10852618Y-9943210D01*
X10856890Y-9943500D01*
X10902000Y-9943500D01*
X10952000Y-9943500D01*
X10997110Y-9943500D01*
X11001382Y-9943210D01*
X11019852Y-9938617D01*
X11036902Y-9930161D01*
X11036903Y-9930161D01*
X11051737Y-9918237D01*
X11051737Y-9918237D01*
X11063661Y-9903403D01*
X11063661Y-9903402D01*
X11072117Y-9886352D01*
X11076710Y-9867882D01*
X11077000Y-9863610D01*
X11077000Y-9843500D01*
X10952000Y-9843500D01*
X10952000Y-9943500D01*
X10902000Y-9943500D01*
X10902000Y-9830900D01*
X10903969Y-9824196D01*
X10909249Y-9819621D01*
X10914400Y-9818500D01*
X10927000Y-9818500D01*
X10927000Y-9805900D01*
X10928969Y-9799196D01*
X10934249Y-9794621D01*
X10939400Y-9793500D01*
X11077000Y-9793500D01*
X11077000Y-9773390D01*
X11076710Y-9769118D01*
X11072117Y-9750648D01*
X11063661Y-9733598D01*
X11063661Y-9733597D01*
X11051737Y-9718763D01*
X11051737Y-9718763D01*
X11044812Y-9713197D01*
X11040820Y-9707462D01*
X11040562Y-9700480D01*
X11044119Y-9694467D01*
X11044809Y-9693869D01*
X11051772Y-9688272D01*
X11063703Y-9673430D01*
X11072164Y-9656369D01*
X11072463Y-9655767D01*
X11072654Y-9655862D01*
X11076213Y-9651059D01*
X11082748Y-9648586D01*
X11083692Y-9648550D01*
X11394550Y-9648550D01*
X11401254Y-9650519D01*
X11405829Y-9655799D01*
X11406950Y-9660950D01*
X11406950Y-9734303D01*
X11408011Y-9746242D01*
X11413609Y-9765805D01*
X11413609Y-9765805D01*
X11413609Y-9765805D01*
X11423030Y-9783841D01*
X11426192Y-9787719D01*
X11435889Y-9799611D01*
X11443602Y-9805900D01*
X11451659Y-9812470D01*
X11469695Y-9821891D01*
X11489258Y-9827489D01*
X11501196Y-9828550D01*
X11612804Y-9828550D01*
X11624742Y-9827489D01*
X11644305Y-9821891D01*
X11662341Y-9812470D01*
X11678111Y-9799611D01*
X11690970Y-9783841D01*
X11700391Y-9765805D01*
X11705989Y-9746242D01*
X11707050Y-9734304D01*
X11707050Y-9620599D01*
X11709018Y-9613895D01*
X11714299Y-9609320D01*
X11721215Y-9608325D01*
X11727570Y-9611228D01*
G37*
%TD.AperFunction*%
%TA.AperFunction,Conductor*%
G36*
X22715654Y-7489918D02*
G01*
X22720229Y-7495199D01*
X22721350Y-7500350D01*
X22721350Y-7798643D01*
X22719381Y-7805347D01*
X22714101Y-7809922D01*
X22707185Y-7810917D01*
X22700830Y-7808014D01*
X22697052Y-7802136D01*
X22696788Y-7801062D01*
X22696601Y-7800119D01*
X22696600Y-7800118D01*
X22696600Y-7800118D01*
X22696600Y-7800117D01*
X22686449Y-7766654D01*
X22673067Y-7734347D01*
X22656583Y-7703507D01*
X22637155Y-7674431D01*
X22614971Y-7647400D01*
X22614971Y-7647399D01*
X22614970Y-7647399D01*
X22590244Y-7622673D01*
X22563213Y-7600489D01*
X22563213Y-7600489D01*
X22563212Y-7600488D01*
X22534137Y-7581061D01*
X22534136Y-7581060D01*
X22534135Y-7581060D01*
X22503297Y-7564577D01*
X22503297Y-7564576D01*
X22470989Y-7551194D01*
X22437525Y-7541043D01*
X22437524Y-7541043D01*
X22403229Y-7534221D01*
X22403228Y-7534221D01*
X22376911Y-7531629D01*
X22368428Y-7530793D01*
X22333459Y-7530793D01*
X22325613Y-7531566D01*
X22298659Y-7534221D01*
X22298658Y-7534221D01*
X22264363Y-7541043D01*
X22264362Y-7541043D01*
X22230897Y-7551194D01*
X22198590Y-7564576D01*
X22198590Y-7564577D01*
X22167751Y-7581060D01*
X22167750Y-7581061D01*
X22138675Y-7600488D01*
X22138674Y-7600489D01*
X22111643Y-7622673D01*
X22086917Y-7647399D01*
X22064732Y-7674430D01*
X22064731Y-7674432D01*
X22045305Y-7703506D01*
X22045304Y-7703508D01*
X22028820Y-7734346D01*
X22028820Y-7734347D01*
X22015438Y-7766654D01*
X22005286Y-7800118D01*
X22005286Y-7800119D01*
X21998465Y-7834414D01*
X21998464Y-7834416D01*
X21996484Y-7854527D01*
X21995037Y-7869215D01*
X21995037Y-7872357D01*
X21995037Y-7904185D01*
X21995847Y-7912411D01*
X21998464Y-7938984D01*
X21998465Y-7938986D01*
X22005286Y-7973280D01*
X22005286Y-7973281D01*
X22015438Y-8006746D01*
X22021294Y-8020884D01*
X22027028Y-8034728D01*
X22028820Y-8039053D01*
X22028820Y-8039054D01*
X22045304Y-8069892D01*
X22045305Y-8069894D01*
X22064731Y-8098968D01*
X22064732Y-8098969D01*
X22086917Y-8126001D01*
X22111643Y-8150727D01*
X22111643Y-8150727D01*
X22111643Y-8150727D01*
X22138675Y-8172911D01*
X22167750Y-8192339D01*
X22167751Y-8192340D01*
X22167751Y-8192340D01*
X22198590Y-8208823D01*
X22198590Y-8208823D01*
X22198590Y-8208824D01*
X22230898Y-8222206D01*
X22264361Y-8232357D01*
X22264362Y-8232357D01*
X22264362Y-8232357D01*
X22264363Y-8232357D01*
X22285869Y-8236635D01*
X22298658Y-8239179D01*
X22333459Y-8242606D01*
X22333459Y-8242606D01*
X22368428Y-8242606D01*
X22368428Y-8242606D01*
X22403229Y-8239179D01*
X22420205Y-8235802D01*
X22437524Y-8232357D01*
X22437525Y-8232357D01*
X22437525Y-8232357D01*
X22437526Y-8232357D01*
X22470989Y-8222206D01*
X22503297Y-8208824D01*
X22534137Y-8192339D01*
X22563212Y-8172911D01*
X22590244Y-8150727D01*
X22614971Y-8126000D01*
X22637155Y-8098969D01*
X22656583Y-8069893D01*
X22673067Y-8039053D01*
X22686449Y-8006746D01*
X22696600Y-7973282D01*
X22696788Y-7972338D01*
X22700027Y-7966147D01*
X22706098Y-7962689D01*
X22713075Y-7963063D01*
X22718742Y-7967150D01*
X22721301Y-7973652D01*
X22721350Y-7974757D01*
X22721350Y-11913443D01*
X22719381Y-11920147D01*
X22714101Y-11924722D01*
X22707185Y-11925717D01*
X22700830Y-11922814D01*
X22697052Y-11916936D01*
X22696788Y-11915862D01*
X22696601Y-11914919D01*
X22696600Y-11914918D01*
X22696600Y-11914918D01*
X22696600Y-11914917D01*
X22686449Y-11881454D01*
X22673067Y-11849147D01*
X22672483Y-11848054D01*
X22656583Y-11818308D01*
X22656583Y-11818308D01*
X22656583Y-11818307D01*
X22637155Y-11789231D01*
X22614971Y-11762200D01*
X22614971Y-11762199D01*
X22614970Y-11762199D01*
X22590244Y-11737473D01*
X22563213Y-11715289D01*
X22563213Y-11715289D01*
X22563212Y-11715288D01*
X22534137Y-11695861D01*
X22534136Y-11695860D01*
X22534135Y-11695860D01*
X22503297Y-11679377D01*
X22503297Y-11679376D01*
X22470989Y-11665994D01*
X22437525Y-11655843D01*
X22437524Y-11655843D01*
X22403229Y-11649021D01*
X22403228Y-11649021D01*
X22376911Y-11646429D01*
X22368428Y-11645593D01*
X22333459Y-11645593D01*
X22325613Y-11646366D01*
X22298659Y-11649021D01*
X22298658Y-11649021D01*
X22264363Y-11655843D01*
X22264362Y-11655843D01*
X22230897Y-11665994D01*
X22198590Y-11679376D01*
X22198590Y-11679377D01*
X22167751Y-11695860D01*
X22167750Y-11695861D01*
X22138675Y-11715288D01*
X22138674Y-11715289D01*
X22111643Y-11737473D01*
X22086917Y-11762199D01*
X22064732Y-11789230D01*
X22064731Y-11789232D01*
X22045305Y-11818306D01*
X22045304Y-11818308D01*
X22028820Y-11849146D01*
X22028820Y-11849147D01*
X22015438Y-11881454D01*
X22005286Y-11914918D01*
X22005286Y-11914919D01*
X21998465Y-11949214D01*
X21998464Y-11949216D01*
X21995037Y-11984016D01*
X21995037Y-12018984D01*
X21998464Y-12053784D01*
X21998465Y-12053786D01*
X22005286Y-12088080D01*
X22005286Y-12088081D01*
X22015438Y-12121546D01*
X22024900Y-12144391D01*
X22027028Y-12149528D01*
X22028820Y-12153853D01*
X22028820Y-12153854D01*
X22045304Y-12184692D01*
X22045305Y-12184694D01*
X22064731Y-12213768D01*
X22064732Y-12213769D01*
X22086917Y-12240801D01*
X22111643Y-12265527D01*
X22111643Y-12265527D01*
X22111643Y-12265527D01*
X22138675Y-12287711D01*
X22167750Y-12307139D01*
X22167751Y-12307140D01*
X22167751Y-12307140D01*
X22198590Y-12323623D01*
X22198590Y-12323623D01*
X22198590Y-12323624D01*
X22230898Y-12337006D01*
X22264361Y-12347157D01*
X22264362Y-12347157D01*
X22264362Y-12347157D01*
X22264363Y-12347157D01*
X22285869Y-12351435D01*
X22298658Y-12353979D01*
X22333459Y-12357406D01*
X22333459Y-12357406D01*
X22368428Y-12357406D01*
X22368428Y-12357406D01*
X22403229Y-12353979D01*
X22420205Y-12350602D01*
X22437524Y-12347157D01*
X22437525Y-12347157D01*
X22437525Y-12347157D01*
X22437526Y-12347157D01*
X22470989Y-12337006D01*
X22503297Y-12323624D01*
X22534137Y-12307139D01*
X22563212Y-12287711D01*
X22590244Y-12265527D01*
X22614971Y-12240800D01*
X22637155Y-12213769D01*
X22656583Y-12184693D01*
X22673067Y-12153853D01*
X22686449Y-12121546D01*
X22696600Y-12088082D01*
X22696788Y-12087138D01*
X22700027Y-12080947D01*
X22706098Y-12077489D01*
X22713075Y-12077863D01*
X22718742Y-12081950D01*
X22721301Y-12088452D01*
X22721350Y-12089557D01*
X22721350Y-12375450D01*
X22719381Y-12382154D01*
X22714101Y-12386729D01*
X22708950Y-12387850D01*
X9943800Y-12387850D01*
X9937096Y-12385881D01*
X9932521Y-12380601D01*
X9931400Y-12375450D01*
X9931400Y-11181255D01*
X10183000Y-11181255D01*
X10184696Y-11187586D01*
X10187092Y-11196528D01*
X10188998Y-11199828D01*
X10189986Y-11201540D01*
X10189986Y-11201540D01*
X10189986Y-11201540D01*
X10193736Y-11208036D01*
X10194998Y-11210221D01*
X10194998Y-11210222D01*
X10206885Y-11222108D01*
X10206886Y-11222109D01*
X10219468Y-11234692D01*
X10222817Y-11240824D01*
X10223100Y-11243460D01*
X10223100Y-11408237D01*
X10223100Y-11408238D01*
X10223741Y-11414198D01*
X10228770Y-11427683D01*
X10228771Y-11427683D01*
X10237395Y-11439204D01*
X10237396Y-11439205D01*
X10248916Y-11447829D01*
X10248917Y-11447830D01*
X10262402Y-11452859D01*
X10262402Y-11452859D01*
X10263094Y-11452933D01*
X10268363Y-11453500D01*
X10477937Y-11453500D01*
X10483898Y-11452859D01*
X10497383Y-11447830D01*
X10508905Y-11439205D01*
X10517530Y-11427683D01*
X10522559Y-11414198D01*
X10523200Y-11408237D01*
X10523200Y-11375450D01*
X10525169Y-11368746D01*
X10530449Y-11364171D01*
X10535600Y-11363050D01*
X10653784Y-11363050D01*
X10660488Y-11365018D01*
X10665063Y-11370299D01*
X10665909Y-11372854D01*
X10666000Y-11373279D01*
X10670961Y-11388251D01*
X10671519Y-11389933D01*
X10680729Y-11404866D01*
X10693134Y-11417271D01*
X10708067Y-11426481D01*
X10724720Y-11432000D01*
X10734999Y-11433050D01*
X10855001Y-11433050D01*
X10865280Y-11432000D01*
X10881933Y-11426481D01*
X10896866Y-11417271D01*
X10909271Y-11404866D01*
X10918481Y-11389933D01*
X10924000Y-11373280D01*
X10925050Y-11363001D01*
X10925050Y-11242999D01*
X10925029Y-11242797D01*
X10924000Y-11232720D01*
X10924000Y-11232720D01*
X10920719Y-11222819D01*
X10918481Y-11216067D01*
X10909271Y-11201134D01*
X10896866Y-11188729D01*
X10884591Y-11181158D01*
X10881934Y-11179519D01*
X10881933Y-11179519D01*
X10877306Y-11177985D01*
X10865280Y-11174000D01*
X10865280Y-11174000D01*
X10855001Y-11172950D01*
X10735000Y-11172950D01*
X10734998Y-11172950D01*
X10724720Y-11174000D01*
X10724720Y-11174000D01*
X10708067Y-11179519D01*
X10708066Y-11179519D01*
X10693134Y-11188729D01*
X10680729Y-11201134D01*
X10671519Y-11216066D01*
X10671519Y-11216067D01*
X10666000Y-11232720D01*
X10665909Y-11233147D01*
X10662580Y-11239290D01*
X10656459Y-11242658D01*
X10653784Y-11242950D01*
X10535600Y-11242950D01*
X10528896Y-11240981D01*
X10524321Y-11235701D01*
X10523200Y-11230550D01*
X10523200Y-11198663D01*
X10523200Y-11198662D01*
X10522970Y-11196528D01*
X10522559Y-11192702D01*
X10522353Y-11192150D01*
X10517530Y-11179217D01*
X10517529Y-11179216D01*
X10508905Y-11167696D01*
X10508904Y-11167695D01*
X10497384Y-11159071D01*
X10497383Y-11159070D01*
X10483898Y-11154041D01*
X10483898Y-11154041D01*
X10477938Y-11153400D01*
X10477938Y-11153400D01*
X10477937Y-11153400D01*
X10477937Y-11153400D01*
X10315500Y-11153400D01*
X10308796Y-11151432D01*
X10304221Y-11146151D01*
X10303100Y-11141000D01*
X10303100Y-10705528D01*
X10305069Y-10698825D01*
X10310349Y-10694249D01*
X10317265Y-10693255D01*
X10319331Y-10693735D01*
X10331296Y-10697623D01*
X10338013Y-10699805D01*
X10361340Y-10703500D01*
X10361341Y-10703500D01*
X10384960Y-10703500D01*
X10408287Y-10699805D01*
X10411305Y-10698825D01*
X10430749Y-10692507D01*
X10451793Y-10681784D01*
X10470901Y-10667902D01*
X10487602Y-10651201D01*
X10501484Y-10632093D01*
X10512207Y-10611049D01*
X10512672Y-10609618D01*
X10516616Y-10603851D01*
X10523051Y-10601131D01*
X10524465Y-10601050D01*
X10672040Y-10601050D01*
X10678744Y-10603019D01*
X10683088Y-10607821D01*
X10683772Y-10609161D01*
X10695803Y-10625721D01*
X10710279Y-10640197D01*
X10723609Y-10649882D01*
X10726839Y-10652229D01*
X10738461Y-10658150D01*
X10745078Y-10661522D01*
X10745078Y-10661522D01*
X10745078Y-10661522D01*
X10752217Y-10663842D01*
X10764547Y-10667848D01*
X10768322Y-10668446D01*
X10784765Y-10671050D01*
X10784765Y-10671050D01*
X10805235Y-10671050D01*
X10805235Y-10671050D01*
X10825453Y-10667848D01*
X10844922Y-10661522D01*
X10863161Y-10652229D01*
X10874980Y-10643642D01*
X10879721Y-10640197D01*
X10879722Y-10640197D01*
X10879722Y-10640197D01*
X10894197Y-10625722D01*
X10894197Y-10625722D01*
X10894197Y-10625721D01*
X10906228Y-10609161D01*
X10906228Y-10609161D01*
X10906229Y-10609161D01*
X10906912Y-10607820D01*
X10911709Y-10602741D01*
X10917960Y-10601050D01*
X11044390Y-10601050D01*
X11051094Y-10603019D01*
X11053158Y-10604682D01*
X11112318Y-10663842D01*
X11115667Y-10669974D01*
X11115950Y-10672610D01*
X11115950Y-11700733D01*
X11115950Y-11700735D01*
X11115950Y-11717305D01*
X11115950Y-11717305D01*
X11120042Y-11732578D01*
X11122495Y-11736827D01*
X11122608Y-11737021D01*
X11127948Y-11746271D01*
X11127948Y-11746272D01*
X11139835Y-11758158D01*
X11139836Y-11758159D01*
X11178314Y-11796637D01*
X11178315Y-11796638D01*
X11178748Y-11797071D01*
X11178748Y-11797072D01*
X11189928Y-11808252D01*
X11189929Y-11808252D01*
X11189929Y-11808252D01*
X11198609Y-11813264D01*
X11203622Y-11816158D01*
X11212521Y-11818542D01*
X11218894Y-11820250D01*
X11218894Y-11820250D01*
X11365554Y-11820250D01*
X11372258Y-11822218D01*
X11376833Y-11827499D01*
X11377828Y-11834415D01*
X11376602Y-11838279D01*
X11374179Y-11843036D01*
X11374179Y-11843036D01*
X11368583Y-11860259D01*
X11365750Y-11878145D01*
X11365750Y-11896255D01*
X11368583Y-11914141D01*
X11374179Y-11931364D01*
X11374179Y-11931364D01*
X11378744Y-11940324D01*
X11382273Y-11947250D01*
X11382401Y-11947500D01*
X11393044Y-11962149D01*
X11393044Y-11962150D01*
X11405850Y-11974955D01*
X11405850Y-11974956D01*
X11413095Y-11980219D01*
X11420501Y-11985600D01*
X11430702Y-11990798D01*
X11436636Y-11993821D01*
X11436636Y-11993821D01*
X11445248Y-11996619D01*
X11453859Y-11999417D01*
X11462143Y-12000729D01*
X11471745Y-12002250D01*
X11480400Y-12002250D01*
X11487104Y-12004218D01*
X11491679Y-12009499D01*
X11492800Y-12014650D01*
X11492800Y-12023251D01*
X11495632Y-12041129D01*
X11501225Y-12058344D01*
X11501225Y-12058345D01*
X11509443Y-12074473D01*
X11510591Y-12076053D01*
X11510591Y-12076053D01*
X11570300Y-12016345D01*
X11570300Y-12019137D01*
X11572856Y-12028674D01*
X11577792Y-12037225D01*
X11584774Y-12044207D01*
X11593325Y-12049144D01*
X11602863Y-12051700D01*
X11605655Y-12051700D01*
X11545947Y-12111408D01*
X11545947Y-12111409D01*
X11547527Y-12112557D01*
X11547527Y-12112557D01*
X11563655Y-12120775D01*
X11563655Y-12120775D01*
X11580871Y-12126368D01*
X11598749Y-12129200D01*
X11616851Y-12129200D01*
X11634729Y-12126368D01*
X11651944Y-12120775D01*
X11651945Y-12120774D01*
X11668073Y-12112557D01*
X11669653Y-12111408D01*
X11669653Y-12111408D01*
X11609945Y-12051700D01*
X11612737Y-12051700D01*
X11622274Y-12049144D01*
X11630825Y-12044207D01*
X11637807Y-12037225D01*
X11642744Y-12028674D01*
X11645300Y-12019137D01*
X11645300Y-12016345D01*
X11705008Y-12076053D01*
X11706157Y-12074473D01*
X11714374Y-12058345D01*
X11714375Y-12058344D01*
X11719968Y-12041129D01*
X11722800Y-12023251D01*
X11722800Y-12005149D01*
X11719968Y-11987271D01*
X11714375Y-11970055D01*
X11714375Y-11970055D01*
X11711941Y-11965279D01*
X11710652Y-11958413D01*
X11713279Y-11951939D01*
X11718990Y-11947913D01*
X11722990Y-11947250D01*
X12081733Y-11947250D01*
X12081735Y-11947250D01*
X12082494Y-11947250D01*
X12098305Y-11947250D01*
X12098306Y-11947250D01*
X12113578Y-11943158D01*
X12118590Y-11940264D01*
X12127272Y-11935252D01*
X12138452Y-11924072D01*
X12138452Y-11924071D01*
X12139473Y-11923051D01*
X12139473Y-11923050D01*
X12171851Y-11890673D01*
X12171851Y-11890672D01*
X12172871Y-11889652D01*
X12172872Y-11889652D01*
X12184052Y-11878472D01*
X12191958Y-11864778D01*
X12196050Y-11849506D01*
X12196050Y-11802473D01*
X12198018Y-11795769D01*
X12203299Y-11791194D01*
X12204549Y-11790703D01*
X12207933Y-11789581D01*
X12222866Y-11780371D01*
X12235271Y-11767966D01*
X12244481Y-11753033D01*
X12250000Y-11736380D01*
X12251050Y-11726101D01*
X12251050Y-11591099D01*
X12251033Y-11590936D01*
X12250000Y-11580820D01*
X12250000Y-11580820D01*
X12246473Y-11570177D01*
X12246233Y-11563194D01*
X12249806Y-11557190D01*
X12249901Y-11557103D01*
X12250887Y-11556206D01*
X12254272Y-11554252D01*
X12265452Y-11543072D01*
X12265452Y-11543071D01*
X12304051Y-11504473D01*
X12304051Y-11504472D01*
X12305071Y-11503452D01*
X12305072Y-11503452D01*
X12316252Y-11492272D01*
X12324158Y-11478578D01*
X12327223Y-11467139D01*
X12330859Y-11461173D01*
X12337144Y-11458120D01*
X12344081Y-11458950D01*
X12348927Y-11462657D01*
X12349329Y-11463165D01*
X12349329Y-11463166D01*
X12361734Y-11475571D01*
X12376667Y-11484781D01*
X12393320Y-11490300D01*
X12403599Y-11491350D01*
X12493601Y-11491350D01*
X12493602Y-11491350D01*
X12493602Y-11491350D01*
X12499230Y-11490775D01*
X12503880Y-11490300D01*
X12520533Y-11484781D01*
X12535466Y-11475571D01*
X12547871Y-11463166D01*
X12557081Y-11448233D01*
X12561450Y-11435050D01*
X12565427Y-11429305D01*
X12571879Y-11426623D01*
X12573221Y-11426550D01*
X12889997Y-11426550D01*
X12896701Y-11428518D01*
X12901276Y-11433799D01*
X12902143Y-11437146D01*
X12902227Y-11437131D01*
X12902341Y-11437755D01*
X12906943Y-11453595D01*
X12906943Y-11453596D01*
X12915340Y-11467794D01*
X12915341Y-11467795D01*
X12927005Y-11479459D01*
X12927005Y-11479459D01*
X12927005Y-11479459D01*
X12932700Y-11482827D01*
X12937468Y-11487934D01*
X12938718Y-11494808D01*
X12936054Y-11501267D01*
X12932700Y-11504173D01*
X12932192Y-11504473D01*
X12927005Y-11507541D01*
X12927005Y-11507541D01*
X12915341Y-11519205D01*
X12915340Y-11519206D01*
X12906943Y-11533404D01*
X12906943Y-11533404D01*
X12902341Y-11549245D01*
X12902227Y-11549869D01*
X12902049Y-11549836D01*
X12899871Y-11555551D01*
X12894248Y-11559699D01*
X12889997Y-11560450D01*
X12559110Y-11560450D01*
X12552406Y-11558481D01*
X12548556Y-11554560D01*
X12547560Y-11552946D01*
X12545271Y-11549234D01*
X12532866Y-11536829D01*
X12517933Y-11527619D01*
X12501280Y-11522100D01*
X12501279Y-11522100D01*
X12491001Y-11521050D01*
X12401000Y-11521050D01*
X12400998Y-11521050D01*
X12390720Y-11522100D01*
X12390720Y-11522100D01*
X12374067Y-11527618D01*
X12374066Y-11527619D01*
X12359134Y-11536829D01*
X12346729Y-11549234D01*
X12337519Y-11564166D01*
X12337518Y-11564167D01*
X12335527Y-11570177D01*
X12332000Y-11580820D01*
X12332000Y-11580820D01*
X12332000Y-11580820D01*
X12330950Y-11591098D01*
X12330950Y-11726100D01*
X12330950Y-11726102D01*
X12332000Y-11736380D01*
X12332000Y-11736380D01*
X12337518Y-11753033D01*
X12337519Y-11753034D01*
X12339158Y-11755691D01*
X12346729Y-11767966D01*
X12359134Y-11780371D01*
X12374067Y-11789581D01*
X12390720Y-11795100D01*
X12400999Y-11796150D01*
X12491001Y-11796150D01*
X12491002Y-11796150D01*
X12491002Y-11796150D01*
X12496630Y-11795575D01*
X12501280Y-11795100D01*
X12517933Y-11789581D01*
X12532866Y-11780371D01*
X12545271Y-11767966D01*
X12554481Y-11753033D01*
X12560000Y-11736380D01*
X12561050Y-11726101D01*
X12561050Y-11692950D01*
X12563018Y-11686246D01*
X12568299Y-11681671D01*
X12573450Y-11680550D01*
X12889997Y-11680550D01*
X12896701Y-11682518D01*
X12901276Y-11687799D01*
X12902143Y-11691146D01*
X12902227Y-11691131D01*
X12902341Y-11691755D01*
X12906943Y-11707595D01*
X12906943Y-11707596D01*
X12915340Y-11721794D01*
X12915341Y-11721795D01*
X12927005Y-11733459D01*
X12927005Y-11733459D01*
X12927005Y-11733459D01*
X12932700Y-11736827D01*
X12937468Y-11741934D01*
X12938718Y-11748808D01*
X12936054Y-11755267D01*
X12932700Y-11758173D01*
X12927005Y-11761541D01*
X12927005Y-11761541D01*
X12915341Y-11773205D01*
X12915340Y-11773206D01*
X12906943Y-11787404D01*
X12906943Y-11787404D01*
X12902341Y-11803245D01*
X12902341Y-11803245D01*
X12902050Y-11806946D01*
X12902050Y-11942054D01*
X12902341Y-11945755D01*
X12902341Y-11945755D01*
X12906943Y-11961595D01*
X12906943Y-11961596D01*
X12906944Y-11961596D01*
X12907271Y-11962150D01*
X12915340Y-11975794D01*
X12915341Y-11975795D01*
X12927005Y-11987459D01*
X12927005Y-11987459D01*
X12927005Y-11987459D01*
X12932650Y-11990798D01*
X12932700Y-11990827D01*
X12937468Y-11995934D01*
X12938718Y-12002808D01*
X12936054Y-12009267D01*
X12932700Y-12012173D01*
X12927005Y-12015541D01*
X12927005Y-12015541D01*
X12915341Y-12027205D01*
X12915340Y-12027206D01*
X12906943Y-12041404D01*
X12906943Y-12041404D01*
X12902341Y-12057245D01*
X12902341Y-12057245D01*
X12902050Y-12060946D01*
X12902050Y-12196054D01*
X12902341Y-12199755D01*
X12902341Y-12199755D01*
X12906943Y-12215595D01*
X12906943Y-12215596D01*
X12915340Y-12229794D01*
X12915341Y-12229795D01*
X12927005Y-12241459D01*
X12927005Y-12241459D01*
X12927005Y-12241459D01*
X12941204Y-12249856D01*
X12945382Y-12251070D01*
X12957045Y-12254459D01*
X12957045Y-12254459D01*
X12957045Y-12254459D01*
X12960747Y-12254750D01*
X12960747Y-12254750D01*
X13186653Y-12254750D01*
X13186653Y-12254750D01*
X13190355Y-12254459D01*
X13190355Y-12254459D01*
X13190355Y-12254459D01*
X13194532Y-12253245D01*
X13206196Y-12249856D01*
X13220395Y-12241459D01*
X13230015Y-12231839D01*
X13231494Y-12230576D01*
X13239446Y-12224798D01*
X13253498Y-12210746D01*
X13265179Y-12194669D01*
X13274200Y-12176963D01*
X13280341Y-12158064D01*
X13283450Y-12138436D01*
X13283450Y-12118564D01*
X13280341Y-12098936D01*
X13274822Y-12081950D01*
X13274201Y-12080037D01*
X13274200Y-12080037D01*
X13265179Y-12062330D01*
X13253498Y-12046254D01*
X13239446Y-12032202D01*
X13234591Y-12028674D01*
X13231494Y-12026424D01*
X13230817Y-12025896D01*
X13230400Y-12025546D01*
X13220395Y-12015541D01*
X13213826Y-12011656D01*
X13213048Y-12011004D01*
X13211651Y-12008907D01*
X13209932Y-12007066D01*
X13209747Y-12006049D01*
X13209174Y-12005189D01*
X13209132Y-12002670D01*
X13208682Y-12000192D01*
X13209076Y-11999237D01*
X13209059Y-11998203D01*
X13210386Y-11996062D01*
X13211346Y-11993733D01*
X13212387Y-11992831D01*
X13212739Y-11992264D01*
X13213413Y-11991942D01*
X13214700Y-11990827D01*
X13214750Y-11990798D01*
X13220395Y-11987459D01*
X13230015Y-11977839D01*
X13231494Y-11976576D01*
X13239446Y-11970798D01*
X13253498Y-11956746D01*
X13265179Y-11940669D01*
X13265355Y-11940324D01*
X13267326Y-11938236D01*
X13269068Y-11935955D01*
X13269822Y-11935593D01*
X13270152Y-11935244D01*
X13272182Y-11934293D01*
X13272680Y-11934113D01*
X13286322Y-11930458D01*
X13291334Y-11927564D01*
X13300015Y-11922552D01*
X13311195Y-11911372D01*
X13311196Y-11911371D01*
X13348995Y-11873572D01*
X13356901Y-11859878D01*
X13360994Y-11844606D01*
X13360994Y-11828794D01*
X13360994Y-11828035D01*
X13360993Y-11828033D01*
X13360993Y-11295606D01*
X13360994Y-11295605D01*
X13360994Y-11278794D01*
X13360250Y-11276020D01*
X13356901Y-11263522D01*
X13356693Y-11263160D01*
X13348996Y-11249829D01*
X13348995Y-11249828D01*
X13292885Y-11193718D01*
X13289537Y-11187586D01*
X13290035Y-11180617D01*
X13294222Y-11175023D01*
X13300769Y-11172582D01*
X13301653Y-11172550D01*
X13317505Y-11172550D01*
X13317506Y-11172550D01*
X13332778Y-11168458D01*
X13339584Y-11164528D01*
X13346472Y-11160552D01*
X13357652Y-11149372D01*
X13357652Y-11149371D01*
X13358672Y-11148351D01*
X13358673Y-11148351D01*
X13447051Y-11059973D01*
X13447051Y-11059972D01*
X13448071Y-11058952D01*
X13448072Y-11058952D01*
X13459252Y-11047772D01*
X13466067Y-11035967D01*
X13467158Y-11034079D01*
X13471250Y-11018806D01*
X13471250Y-11002994D01*
X13471250Y-11002235D01*
X13471250Y-11002233D01*
X13471250Y-10594564D01*
X14554950Y-10594564D01*
X14554950Y-10614436D01*
X14558059Y-10634064D01*
X14564199Y-10652963D01*
X14564199Y-10652963D01*
X14571811Y-10667901D01*
X14573221Y-10670669D01*
X14584902Y-10686746D01*
X14584902Y-10686747D01*
X14598954Y-10700798D01*
X14606906Y-10706576D01*
X14607582Y-10707104D01*
X14608000Y-10707454D01*
X14618005Y-10717459D01*
X14624574Y-10721344D01*
X14625352Y-10721996D01*
X14626749Y-10724093D01*
X14628468Y-10725934D01*
X14628653Y-10726951D01*
X14629226Y-10727811D01*
X14629267Y-10730330D01*
X14629718Y-10732808D01*
X14629324Y-10733763D01*
X14629341Y-10734797D01*
X14628014Y-10736938D01*
X14627054Y-10739267D01*
X14626012Y-10740169D01*
X14625661Y-10740736D01*
X14624987Y-10741058D01*
X14623700Y-10742173D01*
X14618005Y-10745541D01*
X14618005Y-10745541D01*
X14608385Y-10755160D01*
X14606906Y-10756424D01*
X14598954Y-10762202D01*
X14584902Y-10776253D01*
X14573221Y-10792331D01*
X14564199Y-10810037D01*
X14564199Y-10810037D01*
X14558059Y-10828936D01*
X14554950Y-10848564D01*
X14554950Y-10868436D01*
X14558059Y-10888064D01*
X14564199Y-10906963D01*
X14564199Y-10906963D01*
X14570103Y-10918550D01*
X14573221Y-10924669D01*
X14584902Y-10940746D01*
X14584902Y-10940747D01*
X14598954Y-10954798D01*
X14606906Y-10960576D01*
X14607582Y-10961104D01*
X14608000Y-10961454D01*
X14618005Y-10971459D01*
X14624574Y-10975344D01*
X14625352Y-10975996D01*
X14626749Y-10978093D01*
X14628468Y-10979934D01*
X14628653Y-10980951D01*
X14629226Y-10981811D01*
X14629267Y-10984330D01*
X14629718Y-10986808D01*
X14629324Y-10987763D01*
X14629341Y-10988797D01*
X14628014Y-10990938D01*
X14627054Y-10993267D01*
X14626012Y-10994169D01*
X14625661Y-10994736D01*
X14624987Y-10995058D01*
X14623700Y-10996173D01*
X14618005Y-10999541D01*
X14618005Y-10999541D01*
X14608385Y-11009160D01*
X14606906Y-11010424D01*
X14598954Y-11016202D01*
X14584902Y-11030253D01*
X14573221Y-11046331D01*
X14564199Y-11064037D01*
X14564199Y-11064037D01*
X14558059Y-11082936D01*
X14554950Y-11102564D01*
X14554950Y-11122436D01*
X14558059Y-11142064D01*
X14564199Y-11160963D01*
X14564199Y-11160963D01*
X14572498Y-11177250D01*
X14573221Y-11178669D01*
X14584902Y-11194746D01*
X14584902Y-11194747D01*
X14598954Y-11208798D01*
X14606906Y-11214576D01*
X14607582Y-11215104D01*
X14608000Y-11215454D01*
X14618005Y-11225459D01*
X14624574Y-11229344D01*
X14625352Y-11229996D01*
X14626749Y-11232093D01*
X14628468Y-11233934D01*
X14628653Y-11234951D01*
X14629226Y-11235811D01*
X14629267Y-11238330D01*
X14629718Y-11240808D01*
X14629324Y-11241763D01*
X14629341Y-11242797D01*
X14628014Y-11244938D01*
X14627054Y-11247267D01*
X14626012Y-11248169D01*
X14625661Y-11248736D01*
X14624987Y-11249057D01*
X14623700Y-11250173D01*
X14618005Y-11253541D01*
X14618005Y-11253541D01*
X14608385Y-11263160D01*
X14606906Y-11264424D01*
X14598954Y-11270202D01*
X14584902Y-11284253D01*
X14573221Y-11300330D01*
X14564199Y-11318037D01*
X14564199Y-11318037D01*
X14558059Y-11336936D01*
X14555630Y-11352271D01*
X14554950Y-11356564D01*
X14554950Y-11376436D01*
X14555459Y-11379650D01*
X14558059Y-11396064D01*
X14564199Y-11414963D01*
X14564199Y-11414963D01*
X14570068Y-11426481D01*
X14573221Y-11432669D01*
X14584902Y-11448746D01*
X14584902Y-11448747D01*
X14598954Y-11462798D01*
X14606906Y-11468576D01*
X14607582Y-11469104D01*
X14608000Y-11469454D01*
X14618005Y-11479459D01*
X14624574Y-11483344D01*
X14625352Y-11483996D01*
X14626749Y-11486093D01*
X14628468Y-11487934D01*
X14628653Y-11488951D01*
X14629226Y-11489811D01*
X14629267Y-11492330D01*
X14629718Y-11494808D01*
X14629324Y-11495763D01*
X14629341Y-11496797D01*
X14628014Y-11498938D01*
X14627054Y-11501267D01*
X14626012Y-11502169D01*
X14625661Y-11502736D01*
X14624987Y-11503057D01*
X14623700Y-11504173D01*
X14623192Y-11504473D01*
X14618005Y-11507541D01*
X14618005Y-11507541D01*
X14608385Y-11517160D01*
X14606906Y-11518424D01*
X14598954Y-11524202D01*
X14598953Y-11524202D01*
X14584902Y-11538253D01*
X14573221Y-11554330D01*
X14564199Y-11572037D01*
X14564199Y-11572037D01*
X14558059Y-11590936D01*
X14554950Y-11610564D01*
X14554950Y-11630436D01*
X14558059Y-11650064D01*
X14564199Y-11668963D01*
X14564199Y-11668963D01*
X14570855Y-11682026D01*
X14573221Y-11686669D01*
X14584902Y-11702746D01*
X14584902Y-11702747D01*
X14598954Y-11716798D01*
X14606906Y-11722576D01*
X14607579Y-11723101D01*
X14607998Y-11723452D01*
X14618005Y-11733459D01*
X14624621Y-11737372D01*
X14625397Y-11738022D01*
X14626796Y-11740120D01*
X14628517Y-11741963D01*
X14628701Y-11742977D01*
X14629274Y-11743835D01*
X14629316Y-11746356D01*
X14629767Y-11748837D01*
X14629374Y-11749790D01*
X14629391Y-11750821D01*
X14628064Y-11752965D01*
X14627103Y-11755296D01*
X14626064Y-11756196D01*
X14625714Y-11756762D01*
X14625039Y-11757084D01*
X14623749Y-11758202D01*
X14618037Y-11761580D01*
X14618036Y-11761581D01*
X14610836Y-11768781D01*
X14610836Y-11768781D01*
X14672790Y-11830735D01*
X14664043Y-11833079D01*
X14653907Y-11838931D01*
X14645631Y-11847207D01*
X14639779Y-11857343D01*
X14637435Y-11866090D01*
X14575973Y-11804628D01*
X14575973Y-11804628D01*
X14573264Y-11808356D01*
X14564246Y-11826056D01*
X14558107Y-11844948D01*
X14558107Y-11844948D01*
X14555000Y-11864568D01*
X14555000Y-11884432D01*
X14558107Y-11904052D01*
X14558107Y-11904052D01*
X14564246Y-11922944D01*
X14573264Y-11940643D01*
X14575973Y-11944371D01*
X14575973Y-11944372D01*
X14637435Y-11882909D01*
X14639779Y-11891657D01*
X14645631Y-11901793D01*
X14653907Y-11910069D01*
X14664043Y-11915921D01*
X14672790Y-11918265D01*
X14610836Y-11980219D01*
X14618036Y-11987419D01*
X14618036Y-11987419D01*
X14623749Y-11990798D01*
X14628517Y-11995905D01*
X14629767Y-12002779D01*
X14627103Y-12009238D01*
X14625397Y-12010978D01*
X14624620Y-12011628D01*
X14618005Y-12015541D01*
X14607999Y-12025547D01*
X14607578Y-12025899D01*
X14607460Y-12025951D01*
X14606906Y-12026424D01*
X14598954Y-12032202D01*
X14584902Y-12046253D01*
X14573221Y-12062330D01*
X14564199Y-12080037D01*
X14564199Y-12080037D01*
X14558059Y-12098936D01*
X14554950Y-12118564D01*
X14554950Y-12138436D01*
X14558059Y-12158064D01*
X14564199Y-12176963D01*
X14564199Y-12176963D01*
X14571983Y-12192240D01*
X14573221Y-12194669D01*
X14584902Y-12210746D01*
X14584902Y-12210747D01*
X14598954Y-12224798D01*
X14606906Y-12230576D01*
X14608385Y-12231839D01*
X14618005Y-12241459D01*
X14632204Y-12249856D01*
X14636382Y-12251070D01*
X14648045Y-12254459D01*
X14648045Y-12254459D01*
X14648045Y-12254459D01*
X14651747Y-12254750D01*
X14651747Y-12254750D01*
X14877653Y-12254750D01*
X14877653Y-12254750D01*
X14881355Y-12254459D01*
X14881355Y-12254459D01*
X14881355Y-12254459D01*
X14885532Y-12253245D01*
X14897196Y-12249856D01*
X14911395Y-12241459D01*
X14923059Y-12229795D01*
X14931456Y-12215596D01*
X14936059Y-12199755D01*
X14936350Y-12196053D01*
X14936350Y-12060947D01*
X14936059Y-12057245D01*
X14931456Y-12041404D01*
X14923059Y-12027205D01*
X14923059Y-12027205D01*
X14923059Y-12027205D01*
X14911395Y-12015541D01*
X14911395Y-12015541D01*
X14911395Y-12015541D01*
X14905651Y-12012144D01*
X14900883Y-12007037D01*
X14899633Y-12000163D01*
X14902297Y-11993704D01*
X14905651Y-11990798D01*
X14911364Y-11987419D01*
X14911364Y-11987419D01*
X14923019Y-11975764D01*
X14923020Y-11975763D01*
X14931410Y-11961576D01*
X14931410Y-11961575D01*
X14936009Y-11945747D01*
X14936009Y-11945747D01*
X14936300Y-11942049D01*
X14936300Y-11806953D01*
X14936300Y-11806951D01*
X14936009Y-11803253D01*
X14931410Y-11787424D01*
X14923020Y-11773236D01*
X14923019Y-11773236D01*
X14911364Y-11761581D01*
X14911363Y-11761580D01*
X14905651Y-11758202D01*
X14900883Y-11753095D01*
X14899633Y-11746221D01*
X14902297Y-11739762D01*
X14905651Y-11736856D01*
X14911394Y-11733460D01*
X14911394Y-11733459D01*
X14911395Y-11733459D01*
X14923059Y-11721795D01*
X14931456Y-11707596D01*
X14936059Y-11691755D01*
X14936350Y-11688053D01*
X14936350Y-11552947D01*
X14936059Y-11549245D01*
X14936055Y-11549234D01*
X14931456Y-11533404D01*
X14931456Y-11533404D01*
X14931456Y-11533404D01*
X14923059Y-11519205D01*
X14923059Y-11519205D01*
X14923059Y-11519205D01*
X14911395Y-11507541D01*
X14911394Y-11507541D01*
X14906208Y-11504473D01*
X14905700Y-11504173D01*
X14900932Y-11499066D01*
X14899682Y-11492192D01*
X14902346Y-11485733D01*
X14905700Y-11482827D01*
X14911395Y-11479459D01*
X14923059Y-11467795D01*
X14931456Y-11453596D01*
X14935637Y-11439205D01*
X14936059Y-11437755D01*
X14936173Y-11437131D01*
X14936351Y-11437164D01*
X14938529Y-11431449D01*
X14944152Y-11427301D01*
X14948403Y-11426550D01*
X15104333Y-11426550D01*
X15104335Y-11426550D01*
X15105094Y-11426550D01*
X15120905Y-11426550D01*
X15120906Y-11426550D01*
X15136178Y-11422458D01*
X15143033Y-11418500D01*
X15149872Y-11414552D01*
X15161052Y-11403372D01*
X15161052Y-11403371D01*
X15162072Y-11402351D01*
X15162073Y-11402351D01*
X15250451Y-11313973D01*
X15250451Y-11313972D01*
X15251471Y-11312952D01*
X15251472Y-11312952D01*
X15262652Y-11301772D01*
X15269984Y-11289072D01*
X15270558Y-11288078D01*
X15274650Y-11272806D01*
X15274650Y-11256994D01*
X15274650Y-11256235D01*
X15274650Y-11256233D01*
X15274650Y-9694710D01*
X15276618Y-9688006D01*
X15278282Y-9685942D01*
X15337442Y-9626782D01*
X15343574Y-9623433D01*
X15346210Y-9623150D01*
X15721028Y-9623150D01*
X15727732Y-9625119D01*
X15732076Y-9629921D01*
X15734095Y-9633881D01*
X15734095Y-9633882D01*
X15746589Y-9651079D01*
X15761621Y-9666111D01*
X15778818Y-9678605D01*
X15779695Y-9679052D01*
X15784774Y-9683849D01*
X15786454Y-9690631D01*
X15784200Y-9697245D01*
X15779695Y-9701148D01*
X15778818Y-9701595D01*
X15761621Y-9714089D01*
X15746589Y-9729121D01*
X15734095Y-9746318D01*
X15724444Y-9765259D01*
X15717875Y-9785476D01*
X15714550Y-9806471D01*
X15714550Y-9827729D01*
X15716639Y-9840920D01*
X15717875Y-9848724D01*
X15723424Y-9865801D01*
X15724444Y-9868941D01*
X15734095Y-9887882D01*
X15746589Y-9905079D01*
X15761621Y-9920111D01*
X15778818Y-9932605D01*
X15779695Y-9933052D01*
X15784774Y-9937849D01*
X15786454Y-9944631D01*
X15784200Y-9951245D01*
X15779695Y-9955148D01*
X15778818Y-9955595D01*
X15761621Y-9968089D01*
X15746589Y-9983121D01*
X15734095Y-10000318D01*
X15724444Y-10019259D01*
X15717875Y-10039476D01*
X15715894Y-10051988D01*
X15714550Y-10060471D01*
X15714550Y-10081729D01*
X15717875Y-10102724D01*
X15719515Y-10107772D01*
X15724444Y-10122941D01*
X15734095Y-10141882D01*
X15746589Y-10159079D01*
X15761621Y-10174111D01*
X15778818Y-10186605D01*
X15778818Y-10186605D01*
X15778818Y-10186605D01*
X15779749Y-10187079D01*
X15784829Y-10191877D01*
X15786509Y-10198659D01*
X15784255Y-10205272D01*
X15779750Y-10209176D01*
X15778845Y-10209638D01*
X15778844Y-10209638D01*
X15773428Y-10213573D01*
X15773428Y-10213573D01*
X15836659Y-10276804D01*
X15830301Y-10278508D01*
X15818899Y-10285090D01*
X15809590Y-10294399D01*
X15803007Y-10305801D01*
X15801304Y-10312159D01*
X15738073Y-10248928D01*
X15738073Y-10248928D01*
X15734138Y-10254344D01*
X15724490Y-10273278D01*
X15717924Y-10293487D01*
X15717924Y-10293487D01*
X15714600Y-10314475D01*
X15714600Y-10335725D01*
X15717924Y-10356713D01*
X15717924Y-10356713D01*
X15724490Y-10376922D01*
X15734137Y-10395855D01*
X15738073Y-10401272D01*
X15801304Y-10338041D01*
X15803007Y-10344399D01*
X15809590Y-10355801D01*
X15818899Y-10365110D01*
X15830301Y-10371693D01*
X15836659Y-10373396D01*
X15773428Y-10436627D01*
X15773428Y-10436627D01*
X15778845Y-10440563D01*
X15778845Y-10440563D01*
X15779749Y-10441023D01*
X15784829Y-10445821D01*
X15786509Y-10452603D01*
X15784255Y-10459216D01*
X15779750Y-10463120D01*
X15778818Y-10463595D01*
X15761621Y-10476089D01*
X15746589Y-10491121D01*
X15734095Y-10508318D01*
X15724444Y-10527259D01*
X15717875Y-10547476D01*
X15714550Y-10568471D01*
X15714550Y-10589729D01*
X15717628Y-10609161D01*
X15717875Y-10610724D01*
X15722748Y-10625722D01*
X15724444Y-10630941D01*
X15734095Y-10649882D01*
X15746589Y-10667079D01*
X15761621Y-10682111D01*
X15778818Y-10694605D01*
X15779695Y-10695052D01*
X15784774Y-10699849D01*
X15786454Y-10706631D01*
X15784200Y-10713245D01*
X15779695Y-10717148D01*
X15778818Y-10717595D01*
X15761621Y-10730089D01*
X15746589Y-10745121D01*
X15734095Y-10762318D01*
X15724444Y-10781259D01*
X15717875Y-10801476D01*
X15716519Y-10810037D01*
X15714550Y-10822471D01*
X15714550Y-10843729D01*
X15717875Y-10864724D01*
X15723167Y-10881010D01*
X15724444Y-10884941D01*
X15734095Y-10903882D01*
X15746589Y-10921079D01*
X15761621Y-10936111D01*
X15778818Y-10948605D01*
X15778818Y-10948605D01*
X15778818Y-10948605D01*
X15797759Y-10958256D01*
X15817976Y-10964825D01*
X15838971Y-10968150D01*
X15838971Y-10968150D01*
X15860229Y-10968150D01*
X15860229Y-10968150D01*
X15881224Y-10964825D01*
X15901441Y-10958256D01*
X15920382Y-10948605D01*
X15931198Y-10940747D01*
X15937579Y-10936111D01*
X15937579Y-10936111D01*
X15937579Y-10936110D01*
X15952610Y-10921079D01*
X15952611Y-10921079D01*
X15952611Y-10921079D01*
X15965105Y-10903882D01*
X15965105Y-10903882D01*
X15965105Y-10903882D01*
X15974756Y-10884941D01*
X15981325Y-10864724D01*
X15984650Y-10843729D01*
X15984650Y-10822471D01*
X15981325Y-10801476D01*
X15974756Y-10781259D01*
X15965105Y-10762318D01*
X15965105Y-10762318D01*
X15965105Y-10762318D01*
X15952611Y-10745121D01*
X15937579Y-10730089D01*
X15920382Y-10717595D01*
X15920311Y-10717559D01*
X15919505Y-10717149D01*
X15914426Y-10712351D01*
X15912746Y-10705569D01*
X15915000Y-10698956D01*
X15919505Y-10695052D01*
X15920382Y-10694605D01*
X15931198Y-10686747D01*
X15937579Y-10682111D01*
X15937579Y-10682111D01*
X15937579Y-10682110D01*
X15952610Y-10667079D01*
X15952611Y-10667079D01*
X15952611Y-10667079D01*
X15964542Y-10650656D01*
X15965105Y-10649882D01*
X15974756Y-10630941D01*
X15981325Y-10610724D01*
X15984650Y-10589729D01*
X15984650Y-10568471D01*
X15981325Y-10547476D01*
X15974756Y-10527259D01*
X15965105Y-10508318D01*
X15965105Y-10508318D01*
X15965105Y-10508318D01*
X15952611Y-10491121D01*
X15937579Y-10476089D01*
X15920382Y-10463595D01*
X15919450Y-10463120D01*
X15914371Y-10458323D01*
X15912691Y-10451541D01*
X15914945Y-10444927D01*
X15919451Y-10441023D01*
X15920355Y-10440562D01*
X15925772Y-10436627D01*
X15925772Y-10436627D01*
X15862541Y-10373396D01*
X15868899Y-10371693D01*
X15880301Y-10365110D01*
X15889610Y-10355801D01*
X15896192Y-10344399D01*
X15897896Y-10338041D01*
X15961127Y-10401272D01*
X15961127Y-10401272D01*
X15965062Y-10395855D01*
X15974709Y-10376922D01*
X15981276Y-10356713D01*
X15981276Y-10356713D01*
X15984600Y-10335725D01*
X15984600Y-10314475D01*
X15981276Y-10293487D01*
X15981276Y-10293487D01*
X15974709Y-10273278D01*
X15965062Y-10254345D01*
X15961127Y-10248928D01*
X15961127Y-10248928D01*
X15897896Y-10312159D01*
X15896192Y-10305801D01*
X15889610Y-10294399D01*
X15880301Y-10285090D01*
X15868899Y-10278508D01*
X15862541Y-10276804D01*
X15925772Y-10213573D01*
X15920355Y-10209637D01*
X15920355Y-10209637D01*
X15919450Y-10209176D01*
X15914371Y-10204379D01*
X15912691Y-10197597D01*
X15914945Y-10190983D01*
X15919451Y-10187079D01*
X15920382Y-10186605D01*
X15928301Y-10180852D01*
X15937579Y-10174111D01*
X15937579Y-10174111D01*
X15937579Y-10174110D01*
X15952610Y-10159079D01*
X15952611Y-10159079D01*
X15952611Y-10159079D01*
X15965105Y-10141882D01*
X15965105Y-10141882D01*
X15965105Y-10141882D01*
X15974756Y-10122941D01*
X15981325Y-10102724D01*
X15984650Y-10081729D01*
X15984650Y-10060471D01*
X15981325Y-10039476D01*
X15974756Y-10019259D01*
X15965105Y-10000318D01*
X15965105Y-10000318D01*
X15965105Y-10000318D01*
X15952611Y-9983121D01*
X15937579Y-9968089D01*
X15920382Y-9955595D01*
X15920311Y-9955559D01*
X15919505Y-9955149D01*
X15914426Y-9950351D01*
X15912746Y-9943569D01*
X15915000Y-9936956D01*
X15919505Y-9933052D01*
X15920382Y-9932605D01*
X15925019Y-9929236D01*
X15937579Y-9920111D01*
X15937579Y-9920111D01*
X15937579Y-9920110D01*
X15952610Y-9905079D01*
X15952611Y-9905079D01*
X15952611Y-9905079D01*
X15965105Y-9887882D01*
X15965105Y-9887882D01*
X15965105Y-9887882D01*
X15974756Y-9868941D01*
X15981325Y-9848724D01*
X15984650Y-9827729D01*
X15984650Y-9806471D01*
X15981325Y-9785476D01*
X15979951Y-9781247D01*
X15979907Y-9779726D01*
X15979375Y-9778300D01*
X15979809Y-9776305D01*
X15979751Y-9774264D01*
X15980560Y-9772855D01*
X15980861Y-9771473D01*
X15982975Y-9768648D01*
X16000551Y-9751073D01*
X16000551Y-9751072D01*
X16001571Y-9750052D01*
X16001572Y-9750052D01*
X16012752Y-9738872D01*
X16019251Y-9727615D01*
X16020658Y-9725179D01*
X16024750Y-9709906D01*
X16024750Y-9694094D01*
X16024750Y-9693335D01*
X16024750Y-9693333D01*
X16024750Y-9507519D01*
X16024750Y-9507518D01*
X16020658Y-9492246D01*
X16018627Y-9488728D01*
X16012752Y-9478553D01*
X16012752Y-9478553D01*
X16012752Y-9478552D01*
X16001572Y-9467372D01*
X16001571Y-9467372D01*
X16001138Y-9466939D01*
X16001137Y-9466938D01*
X15950713Y-9416513D01*
X15947364Y-9410381D01*
X15947862Y-9403412D01*
X15950713Y-9398977D01*
X15952610Y-9397079D01*
X15952611Y-9397079D01*
X15952611Y-9397079D01*
X15965105Y-9379882D01*
X15965105Y-9379882D01*
X15965105Y-9379882D01*
X15974756Y-9360941D01*
X15981325Y-9340724D01*
X15984650Y-9319729D01*
X15984650Y-9298471D01*
X15981325Y-9277476D01*
X15974756Y-9257259D01*
X15965105Y-9238318D01*
X15965105Y-9238318D01*
X15965105Y-9238318D01*
X15952611Y-9221121D01*
X15941257Y-9209767D01*
X15937908Y-9203635D01*
X15938407Y-9196666D01*
X15942594Y-9191073D01*
X15945691Y-9189381D01*
X15958833Y-9184480D01*
X15970355Y-9175855D01*
X15978980Y-9164333D01*
X15984009Y-9150848D01*
X15984650Y-9144887D01*
X15984650Y-8965313D01*
X15984009Y-8959352D01*
X15978980Y-8945867D01*
X15978979Y-8945867D01*
X15978979Y-8945866D01*
X15970355Y-8934346D01*
X15970354Y-8934345D01*
X15958833Y-8925721D01*
X15958833Y-8925720D01*
X15945348Y-8920691D01*
X15945348Y-8920691D01*
X15939388Y-8920050D01*
X15939388Y-8920050D01*
X15939387Y-8920050D01*
X15939386Y-8920050D01*
X15759813Y-8920050D01*
X15759812Y-8920050D01*
X15753852Y-8920691D01*
X15740367Y-8925720D01*
X15740366Y-8925721D01*
X15728845Y-8934345D01*
X15728845Y-8934346D01*
X15720221Y-8945866D01*
X15720220Y-8945867D01*
X15715191Y-8959352D01*
X15714550Y-8965312D01*
X15714550Y-8965312D01*
X15714550Y-8965314D01*
X15714550Y-9049290D01*
X15712581Y-9055994D01*
X15710918Y-9058058D01*
X15674548Y-9094428D01*
X15674548Y-9094428D01*
X15670903Y-9100742D01*
X15667725Y-9106247D01*
X15667170Y-9107208D01*
X15666642Y-9108122D01*
X15662550Y-9123394D01*
X15662550Y-9123395D01*
X15662550Y-9140205D01*
X15662550Y-9140206D01*
X15662550Y-9329890D01*
X15661685Y-9332834D01*
X15661033Y-9335833D01*
X15660658Y-9336335D01*
X15660581Y-9336594D01*
X15658918Y-9338658D01*
X15650558Y-9347018D01*
X15644426Y-9350367D01*
X15641790Y-9350650D01*
X15172467Y-9350650D01*
X15172465Y-9350650D01*
X15171706Y-9350650D01*
X15155894Y-9350650D01*
X15148258Y-9352696D01*
X15140621Y-9354742D01*
X15140621Y-9354743D01*
X15126929Y-9362648D01*
X15126928Y-9362648D01*
X14937948Y-9551628D01*
X14937948Y-9551629D01*
X14932936Y-9560309D01*
X14932936Y-9560310D01*
X14930042Y-9565321D01*
X14930042Y-9565321D01*
X14929901Y-9565848D01*
X14925950Y-9580594D01*
X14925950Y-9580595D01*
X14925950Y-9597405D01*
X14925950Y-9597406D01*
X14925950Y-10478409D01*
X14923981Y-10485113D01*
X14918701Y-10489689D01*
X14911785Y-10490683D01*
X14907238Y-10489082D01*
X14897196Y-10483144D01*
X14897195Y-10483143D01*
X14881355Y-10478541D01*
X14881355Y-10478541D01*
X14877654Y-10478250D01*
X14877653Y-10478250D01*
X14651747Y-10478250D01*
X14651746Y-10478250D01*
X14648045Y-10478541D01*
X14648045Y-10478541D01*
X14632204Y-10483143D01*
X14632204Y-10483144D01*
X14618006Y-10491541D01*
X14618005Y-10491541D01*
X14608385Y-10501160D01*
X14606906Y-10502424D01*
X14598954Y-10508202D01*
X14584902Y-10522253D01*
X14573221Y-10538331D01*
X14564199Y-10556037D01*
X14564199Y-10556037D01*
X14558059Y-10574936D01*
X14554950Y-10594564D01*
X13471250Y-10594564D01*
X13471250Y-9267206D01*
X13471250Y-9267205D01*
X13471250Y-9250395D01*
X13471250Y-9250394D01*
X13467158Y-9235122D01*
X13467158Y-9235121D01*
X13467158Y-9235121D01*
X13467157Y-9235121D01*
X13462250Y-9226622D01*
X13462250Y-9226622D01*
X13459252Y-9221429D01*
X13459252Y-9221428D01*
X13448072Y-9210248D01*
X13448071Y-9210248D01*
X13447638Y-9209815D01*
X13447637Y-9209814D01*
X13442081Y-9204258D01*
X13438733Y-9198126D01*
X13438602Y-9193551D01*
X13439650Y-9186935D01*
X13439650Y-9126465D01*
X13436519Y-9106700D01*
X13436448Y-9106247D01*
X13432608Y-9094428D01*
X13430122Y-9086778D01*
X13430122Y-9086778D01*
X13430122Y-9086778D01*
X13420842Y-9068565D01*
X13420829Y-9068539D01*
X13420056Y-9067475D01*
X13408797Y-9051979D01*
X13394321Y-9037503D01*
X13377761Y-9025472D01*
X13377761Y-9025471D01*
X13377761Y-9025471D01*
X13372065Y-9022569D01*
X13359522Y-9016178D01*
X13340053Y-9009852D01*
X13322599Y-9007088D01*
X13319835Y-9006650D01*
X13299365Y-9006650D01*
X13296933Y-9007035D01*
X13279146Y-9009852D01*
X13259678Y-9016178D01*
X13241439Y-9025472D01*
X13224879Y-9037503D01*
X13210403Y-9051979D01*
X13198371Y-9068539D01*
X13193648Y-9077808D01*
X13188851Y-9082888D01*
X13182069Y-9084567D01*
X13175455Y-9082313D01*
X13171551Y-9077808D01*
X13166842Y-9068565D01*
X13166829Y-9068539D01*
X13166056Y-9067475D01*
X13154797Y-9051979D01*
X13140321Y-9037503D01*
X13123761Y-9025472D01*
X13123761Y-9025471D01*
X13123761Y-9025471D01*
X13118065Y-9022569D01*
X13105522Y-9016178D01*
X13086053Y-9009852D01*
X13068599Y-9007088D01*
X13065835Y-9006650D01*
X13045365Y-9006650D01*
X13042933Y-9007035D01*
X13025146Y-9009852D01*
X13005678Y-9016178D01*
X12987439Y-9025472D01*
X12970879Y-9037503D01*
X12956403Y-9051979D01*
X12944371Y-9068539D01*
X12939648Y-9077808D01*
X12934851Y-9082888D01*
X12928069Y-9084567D01*
X12921455Y-9082313D01*
X12917551Y-9077808D01*
X12912842Y-9068565D01*
X12912829Y-9068539D01*
X12912056Y-9067475D01*
X12900797Y-9051979D01*
X12886321Y-9037503D01*
X12869761Y-9025472D01*
X12869761Y-9025471D01*
X12869761Y-9025471D01*
X12864065Y-9022569D01*
X12851522Y-9016178D01*
X12832053Y-9009852D01*
X12814599Y-9007088D01*
X12811835Y-9006650D01*
X12791365Y-9006650D01*
X12788933Y-9007035D01*
X12771146Y-9009852D01*
X12751678Y-9016178D01*
X12733439Y-9025472D01*
X12716879Y-9037503D01*
X12702403Y-9051979D01*
X12690371Y-9068539D01*
X12685620Y-9077863D01*
X12680823Y-9082943D01*
X12674041Y-9084622D01*
X12667427Y-9082368D01*
X12663523Y-9077863D01*
X12658786Y-9068565D01*
X12646758Y-9052011D01*
X12646758Y-9052010D01*
X12632289Y-9037542D01*
X12615735Y-9025514D01*
X12597503Y-9016224D01*
X12578041Y-9009901D01*
X12572600Y-9009039D01*
X12572600Y-9113399D01*
X12566899Y-9110108D01*
X12554183Y-9106700D01*
X12541017Y-9106700D01*
X12528301Y-9110108D01*
X12522600Y-9113399D01*
X12522600Y-9009039D01*
X12517159Y-9009901D01*
X12497697Y-9016224D01*
X12479465Y-9025514D01*
X12462910Y-9037542D01*
X12462910Y-9037542D01*
X12448442Y-9052010D01*
X12448442Y-9052011D01*
X12436414Y-9068565D01*
X12427124Y-9086797D01*
X12420801Y-9106258D01*
X12417600Y-9126468D01*
X12417600Y-9131700D01*
X12504299Y-9131700D01*
X12501007Y-9137401D01*
X12497600Y-9150117D01*
X12497600Y-9163283D01*
X12501007Y-9175999D01*
X12504299Y-9181700D01*
X12417600Y-9181700D01*
X12417600Y-9186932D01*
X12420801Y-9207142D01*
X12427124Y-9226603D01*
X12436414Y-9244835D01*
X12448442Y-9261389D01*
X12448442Y-9261390D01*
X12462910Y-9275858D01*
X12479465Y-9287886D01*
X12497697Y-9297175D01*
X12517158Y-9303499D01*
X12522600Y-9304361D01*
X12522600Y-9200001D01*
X12528301Y-9203293D01*
X12541017Y-9206700D01*
X12554183Y-9206700D01*
X12566899Y-9203293D01*
X12572600Y-9200001D01*
X12572600Y-9304361D01*
X12578042Y-9303499D01*
X12597503Y-9297175D01*
X12615735Y-9287886D01*
X12632289Y-9275858D01*
X12632289Y-9275858D01*
X12646758Y-9261390D01*
X12646758Y-9261389D01*
X12658786Y-9244835D01*
X12663523Y-9235537D01*
X12668321Y-9230458D01*
X12675103Y-9228778D01*
X12681716Y-9231032D01*
X12685620Y-9235537D01*
X12690371Y-9244861D01*
X12702403Y-9261421D01*
X12716879Y-9275897D01*
X12729171Y-9284828D01*
X12733439Y-9287929D01*
X12751678Y-9297222D01*
X12751678Y-9297222D01*
X12760982Y-9300245D01*
X12766749Y-9304189D01*
X12769469Y-9310624D01*
X12769550Y-9312038D01*
X12769550Y-9393827D01*
X12767581Y-9400531D01*
X12762301Y-9405106D01*
X12761051Y-9405597D01*
X12757667Y-9406718D01*
X12757666Y-9406719D01*
X12742734Y-9415929D01*
X12730329Y-9428334D01*
X12721119Y-9443266D01*
X12721119Y-9443266D01*
X12721119Y-9443267D01*
X12715600Y-9459920D01*
X12715600Y-9459920D01*
X12715600Y-9459920D01*
X12714550Y-9470198D01*
X12714550Y-9605200D01*
X12714550Y-9605202D01*
X12715600Y-9615480D01*
X12715600Y-9615480D01*
X12718794Y-9625119D01*
X12721119Y-9632133D01*
X12730329Y-9647066D01*
X12742734Y-9659471D01*
X12757667Y-9668681D01*
X12761050Y-9669803D01*
X12766795Y-9673780D01*
X12769477Y-9680231D01*
X12769550Y-9681573D01*
X12769550Y-9774827D01*
X12767581Y-9781531D01*
X12762301Y-9786106D01*
X12761051Y-9786597D01*
X12757667Y-9787718D01*
X12757666Y-9787719D01*
X12742734Y-9796929D01*
X12730329Y-9809334D01*
X12721119Y-9824266D01*
X12721118Y-9824267D01*
X12719699Y-9828550D01*
X12715600Y-9840920D01*
X12715600Y-9840920D01*
X12715600Y-9840920D01*
X12714550Y-9851198D01*
X12714550Y-9986200D01*
X12714550Y-9986202D01*
X12715600Y-9996480D01*
X12715600Y-9996480D01*
X12716872Y-10000318D01*
X12721119Y-10013133D01*
X12730329Y-10028066D01*
X12742734Y-10040471D01*
X12757667Y-10049681D01*
X12761050Y-10050803D01*
X12766795Y-10054780D01*
X12769477Y-10061231D01*
X12769550Y-10062573D01*
X12769550Y-10155827D01*
X12767581Y-10162531D01*
X12762301Y-10167106D01*
X12761051Y-10167597D01*
X12757667Y-10168718D01*
X12757666Y-10168719D01*
X12742734Y-10177929D01*
X12730329Y-10190334D01*
X12721119Y-10205266D01*
X12721118Y-10205267D01*
X12718366Y-10213573D01*
X12715600Y-10221920D01*
X12715600Y-10221920D01*
X12715600Y-10221920D01*
X12714550Y-10232198D01*
X12714550Y-10367200D01*
X12714550Y-10367202D01*
X12715600Y-10377480D01*
X12715600Y-10377480D01*
X12721118Y-10394133D01*
X12721119Y-10394133D01*
X12730329Y-10409066D01*
X12742734Y-10421471D01*
X12757667Y-10430681D01*
X12774320Y-10436200D01*
X12784599Y-10437250D01*
X12874601Y-10437250D01*
X12874602Y-10437250D01*
X12874602Y-10437250D01*
X12880700Y-10436627D01*
X12884880Y-10436200D01*
X12901533Y-10430681D01*
X12916466Y-10421471D01*
X12928871Y-10409066D01*
X12938081Y-10394133D01*
X12943600Y-10377480D01*
X12944650Y-10367201D01*
X12944650Y-10232199D01*
X12943600Y-10221920D01*
X12938081Y-10205267D01*
X12928871Y-10190334D01*
X12916466Y-10177929D01*
X12907189Y-10172207D01*
X12901534Y-10168719D01*
X12901533Y-10168719D01*
X12901533Y-10168719D01*
X12901533Y-10168718D01*
X12898149Y-10167597D01*
X12892405Y-10163620D01*
X12889723Y-10157168D01*
X12889650Y-10155827D01*
X12889650Y-10062573D01*
X12891618Y-10055869D01*
X12896899Y-10051294D01*
X12898149Y-10050803D01*
X12901533Y-10049681D01*
X12916466Y-10040471D01*
X12928871Y-10028066D01*
X12938081Y-10013133D01*
X12943600Y-9996480D01*
X12944650Y-9986201D01*
X12944650Y-9851199D01*
X12944397Y-9848724D01*
X12943600Y-9840920D01*
X12943600Y-9840920D01*
X12942817Y-9838558D01*
X12938081Y-9824267D01*
X12928871Y-9809334D01*
X12916466Y-9796929D01*
X12901533Y-9787719D01*
X12901533Y-9787718D01*
X12898149Y-9786597D01*
X12892405Y-9782620D01*
X12889723Y-9776168D01*
X12889650Y-9774827D01*
X12889650Y-9681573D01*
X12891618Y-9674869D01*
X12896899Y-9670294D01*
X12898149Y-9669803D01*
X12901533Y-9668681D01*
X12916466Y-9659471D01*
X12928871Y-9647066D01*
X12938081Y-9632133D01*
X12943600Y-9615480D01*
X12944650Y-9605201D01*
X12944650Y-9470199D01*
X12944596Y-9469669D01*
X12943600Y-9459920D01*
X12943600Y-9459920D01*
X12943054Y-9458272D01*
X12938081Y-9443267D01*
X12928871Y-9428334D01*
X12916466Y-9415929D01*
X12901533Y-9406719D01*
X12901533Y-9406718D01*
X12898149Y-9405597D01*
X12892405Y-9401620D01*
X12889723Y-9395168D01*
X12889650Y-9393827D01*
X12889650Y-9277705D01*
X12891618Y-9271001D01*
X12893282Y-9268937D01*
X12896013Y-9266206D01*
X12900797Y-9261422D01*
X12900797Y-9261422D01*
X12900797Y-9261421D01*
X12912828Y-9244861D01*
X12912829Y-9244861D01*
X12912829Y-9244861D01*
X12917552Y-9235592D01*
X12922349Y-9230512D01*
X12929131Y-9228833D01*
X12935744Y-9231087D01*
X12939648Y-9235592D01*
X12944035Y-9244201D01*
X12944371Y-9244861D01*
X12956403Y-9261421D01*
X12970879Y-9275897D01*
X12983171Y-9284828D01*
X12987439Y-9287929D01*
X12999061Y-9293850D01*
X13005678Y-9297222D01*
X13005678Y-9297222D01*
X13005678Y-9297222D01*
X13014050Y-9299942D01*
X13025146Y-9303548D01*
X13034042Y-9304957D01*
X13045365Y-9306750D01*
X13045365Y-9306750D01*
X13064790Y-9306750D01*
X13071494Y-9308719D01*
X13073558Y-9310382D01*
X13271318Y-9508142D01*
X13274667Y-9514274D01*
X13274950Y-9516910D01*
X13274950Y-10513769D01*
X13272981Y-10520473D01*
X13267701Y-10525049D01*
X13260785Y-10526043D01*
X13254430Y-10523141D01*
X13253782Y-10522537D01*
X13239447Y-10508202D01*
X13239446Y-10508202D01*
X13234813Y-10504836D01*
X13231494Y-10502424D01*
X13230015Y-10501161D01*
X13220395Y-10491541D01*
X13220395Y-10491541D01*
X13220394Y-10491541D01*
X13206196Y-10483144D01*
X13206195Y-10483143D01*
X13190355Y-10478541D01*
X13190355Y-10478541D01*
X13186654Y-10478250D01*
X13186653Y-10478250D01*
X12960747Y-10478250D01*
X12960746Y-10478250D01*
X12957045Y-10478541D01*
X12957045Y-10478541D01*
X12941204Y-10483143D01*
X12941204Y-10483144D01*
X12927006Y-10491541D01*
X12927005Y-10491541D01*
X12915341Y-10503205D01*
X12915340Y-10503206D01*
X12906943Y-10517404D01*
X12906943Y-10517405D01*
X12902341Y-10533245D01*
X12902341Y-10533245D01*
X12902050Y-10536946D01*
X12902050Y-10672054D01*
X12902341Y-10675755D01*
X12902341Y-10675755D01*
X12906943Y-10691595D01*
X12906943Y-10691596D01*
X12906944Y-10691596D01*
X12908570Y-10694346D01*
X12915340Y-10705794D01*
X12915341Y-10705795D01*
X12927005Y-10717459D01*
X12927005Y-10717459D01*
X12927005Y-10717459D01*
X12932700Y-10720827D01*
X12937468Y-10725934D01*
X12938718Y-10732808D01*
X12936054Y-10739267D01*
X12932700Y-10742173D01*
X12927005Y-10745541D01*
X12927005Y-10745541D01*
X12915341Y-10757205D01*
X12915340Y-10757206D01*
X12906943Y-10771404D01*
X12906943Y-10771405D01*
X12902341Y-10787245D01*
X12902341Y-10787245D01*
X12902050Y-10790946D01*
X12902050Y-10926054D01*
X12902341Y-10929755D01*
X12902341Y-10929755D01*
X12906943Y-10945595D01*
X12906943Y-10945596D01*
X12915340Y-10959794D01*
X12915341Y-10959795D01*
X12927005Y-10971459D01*
X12927005Y-10971459D01*
X12927005Y-10971459D01*
X12932700Y-10974827D01*
X12937468Y-10979934D01*
X12938718Y-10986808D01*
X12936054Y-10993267D01*
X12932700Y-10996173D01*
X12927005Y-10999541D01*
X12927005Y-10999541D01*
X12915341Y-11011205D01*
X12915340Y-11011206D01*
X12906943Y-11025404D01*
X12906943Y-11025405D01*
X12902341Y-11041245D01*
X12902341Y-11041245D01*
X12902050Y-11044946D01*
X12902050Y-11164250D01*
X12900081Y-11170954D01*
X12894801Y-11175529D01*
X12889650Y-11176650D01*
X12741389Y-11176650D01*
X12734685Y-11174682D01*
X12732621Y-11173018D01*
X12648638Y-11089036D01*
X12648638Y-11089035D01*
X12636751Y-11077148D01*
X12636750Y-11077148D01*
X12626015Y-11070950D01*
X12626015Y-11070950D01*
X12623058Y-11069242D01*
X12623058Y-11069242D01*
X12623057Y-11069242D01*
X12607785Y-11065150D01*
X12591973Y-11065150D01*
X12591214Y-11065150D01*
X12591212Y-11065150D01*
X12192297Y-11065150D01*
X12185593Y-11063182D01*
X12183529Y-11061518D01*
X12164625Y-11042615D01*
X12161277Y-11036483D01*
X12160993Y-11033847D01*
X12160993Y-10445791D01*
X12162962Y-10439087D01*
X12168242Y-10434512D01*
X12175158Y-10433517D01*
X12177293Y-10434020D01*
X12183870Y-10436200D01*
X12194149Y-10437250D01*
X12194150Y-10437250D01*
X12296650Y-10437250D01*
X12296651Y-10437250D01*
X12306930Y-10436200D01*
X12323583Y-10430681D01*
X12338515Y-10421471D01*
X12350921Y-10409066D01*
X12360131Y-10394133D01*
X12365650Y-10377480D01*
X12366323Y-10370890D01*
X12366422Y-10370646D01*
X12366385Y-10370385D01*
X12367735Y-10367429D01*
X12368963Y-10364421D01*
X12369178Y-10364269D01*
X12369288Y-10364030D01*
X12372022Y-10362273D01*
X12374681Y-10360406D01*
X12375012Y-10360351D01*
X12375165Y-10360252D01*
X12378659Y-10359750D01*
X12392591Y-10359750D01*
X12399295Y-10361719D01*
X12403870Y-10366999D01*
X12404927Y-10370890D01*
X12405600Y-10377480D01*
X12405600Y-10377480D01*
X12411118Y-10394133D01*
X12411119Y-10394133D01*
X12420329Y-10409066D01*
X12432734Y-10421471D01*
X12447667Y-10430681D01*
X12464320Y-10436200D01*
X12474599Y-10437250D01*
X12564601Y-10437250D01*
X12564602Y-10437250D01*
X12564602Y-10437250D01*
X12570700Y-10436627D01*
X12574880Y-10436200D01*
X12591533Y-10430681D01*
X12606466Y-10421471D01*
X12618871Y-10409066D01*
X12628081Y-10394133D01*
X12633600Y-10377480D01*
X12634650Y-10367201D01*
X12634650Y-10232199D01*
X12633600Y-10221920D01*
X12628081Y-10205267D01*
X12618871Y-10190334D01*
X12606466Y-10177929D01*
X12597189Y-10172207D01*
X12591534Y-10168719D01*
X12591533Y-10168719D01*
X12590043Y-10168225D01*
X12574880Y-10163200D01*
X12574879Y-10163200D01*
X12564601Y-10162150D01*
X12474600Y-10162150D01*
X12474598Y-10162150D01*
X12464320Y-10163200D01*
X12464320Y-10163200D01*
X12447667Y-10168719D01*
X12447666Y-10168719D01*
X12432734Y-10177929D01*
X12420329Y-10190334D01*
X12411119Y-10205266D01*
X12411118Y-10205267D01*
X12405600Y-10221920D01*
X12405600Y-10221921D01*
X12404927Y-10228510D01*
X12404827Y-10228754D01*
X12404865Y-10229015D01*
X12403514Y-10231971D01*
X12402287Y-10234980D01*
X12402072Y-10235131D01*
X12401962Y-10235370D01*
X12399228Y-10237127D01*
X12396569Y-10238995D01*
X12396238Y-10239049D01*
X12396084Y-10239148D01*
X12392591Y-10239650D01*
X12378659Y-10239650D01*
X12371955Y-10237682D01*
X12367379Y-10232401D01*
X12366323Y-10228510D01*
X12365650Y-10221921D01*
X12365650Y-10221920D01*
X12365650Y-10221920D01*
X12360131Y-10205267D01*
X12360131Y-10205266D01*
X12360131Y-10205266D01*
X12350921Y-10190335D01*
X12350921Y-10190334D01*
X12338515Y-10177929D01*
X12338515Y-10177929D01*
X12323584Y-10168719D01*
X12323583Y-10168719D01*
X12315256Y-10165959D01*
X12306930Y-10163200D01*
X12306929Y-10163200D01*
X12296651Y-10162150D01*
X12296651Y-10162150D01*
X12194149Y-10162150D01*
X12194148Y-10162150D01*
X12183870Y-10163200D01*
X12183870Y-10163200D01*
X12177294Y-10165379D01*
X12170311Y-10165620D01*
X12164307Y-10162046D01*
X12161188Y-10155794D01*
X12160993Y-10153609D01*
X12160993Y-10063369D01*
X12162962Y-10056665D01*
X12168242Y-10052089D01*
X12175158Y-10051095D01*
X12177293Y-10051598D01*
X12188164Y-10055200D01*
X12198443Y-10056250D01*
X12198443Y-10056250D01*
X12300944Y-10056250D01*
X12300944Y-10056250D01*
X12311223Y-10055200D01*
X12327877Y-10049681D01*
X12342809Y-10040471D01*
X12355215Y-10028066D01*
X12364425Y-10013133D01*
X12369943Y-9996480D01*
X12370617Y-9989890D01*
X12370716Y-9989646D01*
X12370679Y-9989385D01*
X12372029Y-9986429D01*
X12373256Y-9983421D01*
X12373472Y-9983269D01*
X12373581Y-9983030D01*
X12376315Y-9981273D01*
X12378974Y-9979406D01*
X12379305Y-9979351D01*
X12379459Y-9979252D01*
X12382952Y-9978750D01*
X12392591Y-9978750D01*
X12399295Y-9980719D01*
X12403870Y-9985999D01*
X12404927Y-9989890D01*
X12405600Y-9996480D01*
X12405600Y-9996480D01*
X12406872Y-10000318D01*
X12411119Y-10013133D01*
X12420329Y-10028066D01*
X12432734Y-10040471D01*
X12447667Y-10049681D01*
X12464320Y-10055200D01*
X12474599Y-10056250D01*
X12564601Y-10056250D01*
X12564602Y-10056250D01*
X12564602Y-10056250D01*
X12570230Y-10055675D01*
X12574880Y-10055200D01*
X12591533Y-10049681D01*
X12606466Y-10040471D01*
X12618871Y-10028066D01*
X12628081Y-10013133D01*
X12633600Y-9996480D01*
X12634650Y-9986201D01*
X12634650Y-9851199D01*
X12634397Y-9848724D01*
X12633600Y-9840920D01*
X12633600Y-9840920D01*
X12632817Y-9838558D01*
X12628081Y-9824267D01*
X12618871Y-9809334D01*
X12606466Y-9796929D01*
X12591533Y-9787719D01*
X12574880Y-9782200D01*
X12574879Y-9782200D01*
X12564601Y-9781150D01*
X12474600Y-9781150D01*
X12474598Y-9781150D01*
X12464320Y-9782200D01*
X12464320Y-9782200D01*
X12447667Y-9787719D01*
X12447666Y-9787719D01*
X12432734Y-9796929D01*
X12420329Y-9809334D01*
X12411119Y-9824266D01*
X12411118Y-9824267D01*
X12405600Y-9840920D01*
X12405600Y-9840921D01*
X12404927Y-9847510D01*
X12404827Y-9847754D01*
X12404865Y-9848015D01*
X12403514Y-9850971D01*
X12402287Y-9853980D01*
X12402072Y-9854131D01*
X12401962Y-9854370D01*
X12399228Y-9856127D01*
X12396569Y-9857995D01*
X12396238Y-9858049D01*
X12396084Y-9858148D01*
X12392591Y-9858650D01*
X12382952Y-9858650D01*
X12376248Y-9856682D01*
X12371673Y-9851401D01*
X12370617Y-9847510D01*
X12369943Y-9840921D01*
X12369943Y-9840920D01*
X12369943Y-9840920D01*
X12364425Y-9824267D01*
X12364425Y-9824266D01*
X12364425Y-9824266D01*
X12355215Y-9809335D01*
X12355214Y-9809334D01*
X12342809Y-9796929D01*
X12342809Y-9796929D01*
X12327877Y-9787719D01*
X12327877Y-9787719D01*
X12318790Y-9784708D01*
X12311223Y-9782200D01*
X12311223Y-9782200D01*
X12300945Y-9781150D01*
X12300944Y-9781150D01*
X12198443Y-9781150D01*
X12198442Y-9781150D01*
X12188164Y-9782200D01*
X12188163Y-9782200D01*
X12177294Y-9785802D01*
X12170311Y-9786042D01*
X12164307Y-9782469D01*
X12161188Y-9776217D01*
X12160993Y-9774031D01*
X12160993Y-9699649D01*
X12160993Y-9698649D01*
X12160994Y-9698649D01*
X12160994Y-9683791D01*
X12162962Y-9677087D01*
X12168242Y-9672512D01*
X12174323Y-9671638D01*
X12175158Y-9671517D01*
X12175158Y-9671517D01*
X12177292Y-9672020D01*
X12183870Y-9674200D01*
X12194149Y-9675250D01*
X12194150Y-9675250D01*
X12296650Y-9675250D01*
X12296651Y-9675250D01*
X12306930Y-9674200D01*
X12323583Y-9668681D01*
X12338515Y-9659471D01*
X12350921Y-9647066D01*
X12360131Y-9632133D01*
X12365650Y-9615480D01*
X12366323Y-9608890D01*
X12366422Y-9608646D01*
X12366385Y-9608385D01*
X12367735Y-9605429D01*
X12368963Y-9602421D01*
X12369178Y-9602269D01*
X12369288Y-9602030D01*
X12372022Y-9600273D01*
X12374681Y-9598406D01*
X12375012Y-9598351D01*
X12375165Y-9598252D01*
X12378659Y-9597750D01*
X12392591Y-9597750D01*
X12399295Y-9599719D01*
X12403870Y-9604999D01*
X12404927Y-9608890D01*
X12405600Y-9615480D01*
X12405600Y-9615480D01*
X12408794Y-9625119D01*
X12411119Y-9632133D01*
X12420329Y-9647066D01*
X12432734Y-9659471D01*
X12447667Y-9668681D01*
X12464320Y-9674200D01*
X12474599Y-9675250D01*
X12564601Y-9675250D01*
X12564602Y-9675250D01*
X12564602Y-9675250D01*
X12570230Y-9674675D01*
X12574880Y-9674200D01*
X12591533Y-9668681D01*
X12606466Y-9659471D01*
X12618871Y-9647066D01*
X12628081Y-9632133D01*
X12633600Y-9615480D01*
X12634650Y-9605201D01*
X12634650Y-9470199D01*
X12634596Y-9469669D01*
X12633600Y-9459920D01*
X12633600Y-9459920D01*
X12633054Y-9458272D01*
X12628081Y-9443267D01*
X12618871Y-9428334D01*
X12606466Y-9415929D01*
X12591533Y-9406719D01*
X12574880Y-9401200D01*
X12574879Y-9401200D01*
X12564601Y-9400150D01*
X12474600Y-9400150D01*
X12474598Y-9400150D01*
X12464320Y-9401200D01*
X12464320Y-9401200D01*
X12447667Y-9406719D01*
X12447666Y-9406719D01*
X12432734Y-9415929D01*
X12420329Y-9428334D01*
X12411119Y-9443266D01*
X12411119Y-9443266D01*
X12411119Y-9443267D01*
X12405772Y-9459401D01*
X12405600Y-9459920D01*
X12405600Y-9459921D01*
X12404927Y-9466510D01*
X12404827Y-9466754D01*
X12404865Y-9467015D01*
X12403514Y-9469971D01*
X12402287Y-9472980D01*
X12402072Y-9473131D01*
X12401962Y-9473370D01*
X12399228Y-9475127D01*
X12396569Y-9476995D01*
X12396238Y-9477049D01*
X12396084Y-9477148D01*
X12392591Y-9477650D01*
X12378659Y-9477650D01*
X12371955Y-9475682D01*
X12367379Y-9470401D01*
X12366323Y-9466510D01*
X12366050Y-9463835D01*
X12365650Y-9459920D01*
X12360131Y-9443267D01*
X12360131Y-9443266D01*
X12360131Y-9443266D01*
X12350921Y-9428335D01*
X12350921Y-9428334D01*
X12338515Y-9415929D01*
X12338515Y-9415929D01*
X12323584Y-9406719D01*
X12323583Y-9406719D01*
X12314208Y-9403612D01*
X12306930Y-9401200D01*
X12306929Y-9401200D01*
X12296651Y-9400150D01*
X12296651Y-9400150D01*
X12194149Y-9400150D01*
X12194148Y-9400150D01*
X12183870Y-9401200D01*
X12183870Y-9401200D01*
X12167216Y-9406719D01*
X12167216Y-9406719D01*
X12152285Y-9415929D01*
X12152284Y-9415929D01*
X12139879Y-9428334D01*
X12139879Y-9428335D01*
X12130669Y-9443266D01*
X12130669Y-9443266D01*
X12125150Y-9459920D01*
X12125150Y-9459920D01*
X12124100Y-9470198D01*
X12124100Y-9599040D01*
X12122131Y-9605744D01*
X12116851Y-9610320D01*
X12109935Y-9611314D01*
X12103580Y-9608412D01*
X12102932Y-9607808D01*
X12072832Y-9577708D01*
X12069483Y-9571576D01*
X12069200Y-9568940D01*
X12069200Y-9470200D01*
X12069200Y-9470198D01*
X12068911Y-9467372D01*
X12068150Y-9459920D01*
X12062631Y-9443267D01*
X12062631Y-9443266D01*
X12062631Y-9443266D01*
X12053421Y-9428335D01*
X12053421Y-9428334D01*
X12041015Y-9415929D01*
X12041015Y-9415929D01*
X12026084Y-9406719D01*
X12026083Y-9406719D01*
X12016708Y-9403612D01*
X12009430Y-9401200D01*
X12009429Y-9401200D01*
X11999151Y-9400150D01*
X11999151Y-9400150D01*
X11896649Y-9400150D01*
X11896648Y-9400150D01*
X11886369Y-9401200D01*
X11886044Y-9401270D01*
X11885839Y-9401254D01*
X11885697Y-9401269D01*
X11885694Y-9401243D01*
X11879077Y-9400748D01*
X11873498Y-9396541D01*
X11871079Y-9389987D01*
X11871050Y-9389144D01*
X11871050Y-8475510D01*
X11873018Y-8468806D01*
X11874682Y-8466742D01*
X12035442Y-8305982D01*
X12041574Y-8302633D01*
X12044210Y-8302350D01*
X13681933Y-8302350D01*
X13681935Y-8302350D01*
X13682694Y-8302350D01*
X13698505Y-8302350D01*
X13698506Y-8302350D01*
X13713778Y-8298258D01*
X13718790Y-8295364D01*
X13727472Y-8290352D01*
X13738652Y-8279172D01*
X13738652Y-8279171D01*
X13739673Y-8278151D01*
X13739673Y-8278150D01*
X13814852Y-8202972D01*
X13822758Y-8189278D01*
X13826850Y-8174006D01*
X13826850Y-8158194D01*
X13826850Y-8157435D01*
X13826850Y-8157433D01*
X13826850Y-8141196D01*
X13828818Y-8134493D01*
X13834099Y-8129917D01*
X13834505Y-8129740D01*
X13846604Y-8124729D01*
X13846604Y-8124729D01*
X13846605Y-8124728D01*
X13867045Y-8112927D01*
X13885770Y-8098559D01*
X13886397Y-8097932D01*
X13891265Y-8093064D01*
X13902459Y-8081870D01*
X13902459Y-8081870D01*
X13916827Y-8063145D01*
X13928628Y-8042705D01*
X13937661Y-8020899D01*
X13943769Y-7998101D01*
X13946850Y-7974701D01*
X13946850Y-7951101D01*
X14094800Y-7951101D01*
X14094800Y-7974698D01*
X14097880Y-7998091D01*
X14103987Y-8020884D01*
X14113016Y-8042682D01*
X14113016Y-8042683D01*
X14124814Y-8063117D01*
X14124814Y-8063117D01*
X14131072Y-8071272D01*
X14214696Y-7987649D01*
X14217198Y-7993689D01*
X14224311Y-8004335D01*
X14233365Y-8013389D01*
X14244011Y-8020502D01*
X14250051Y-8023004D01*
X14166427Y-8106628D01*
X14174583Y-8112885D01*
X14174583Y-8112885D01*
X14195017Y-8124683D01*
X14195018Y-8124684D01*
X14216816Y-8133713D01*
X14216816Y-8133713D01*
X14239608Y-8139820D01*
X14263001Y-8142900D01*
X14263003Y-8142900D01*
X14286597Y-8142900D01*
X14286598Y-8142900D01*
X14309991Y-8139820D01*
X14332784Y-8133713D01*
X14354582Y-8124684D01*
X14354583Y-8124683D01*
X14375018Y-8112885D01*
X14383172Y-8106628D01*
X14383172Y-8106628D01*
X14299549Y-8023004D01*
X14305589Y-8020502D01*
X14316235Y-8013389D01*
X14325289Y-8004335D01*
X14332402Y-7993689D01*
X14334904Y-7987649D01*
X14418528Y-8071272D01*
X14418528Y-8071272D01*
X14424785Y-8063118D01*
X14436583Y-8042683D01*
X14436584Y-8042682D01*
X14445613Y-8020884D01*
X14451720Y-7998091D01*
X14454800Y-7974698D01*
X14454800Y-7974697D01*
X14454800Y-7951103D01*
X14454800Y-7951101D01*
X14602800Y-7951101D01*
X14602800Y-7974698D01*
X14605880Y-7998091D01*
X14611987Y-8020884D01*
X14621016Y-8042682D01*
X14621016Y-8042683D01*
X14632814Y-8063117D01*
X14632814Y-8063117D01*
X14639072Y-8071272D01*
X14722696Y-7987649D01*
X14725198Y-7993689D01*
X14732311Y-8004335D01*
X14741365Y-8013389D01*
X14752011Y-8020502D01*
X14758051Y-8023004D01*
X14674427Y-8106628D01*
X14682583Y-8112885D01*
X14682583Y-8112885D01*
X14703017Y-8124683D01*
X14703018Y-8124684D01*
X14724816Y-8133713D01*
X14724816Y-8133713D01*
X14747608Y-8139820D01*
X14771001Y-8142900D01*
X14771003Y-8142900D01*
X14794597Y-8142900D01*
X14794598Y-8142900D01*
X14817991Y-8139820D01*
X14840784Y-8133713D01*
X14862582Y-8124684D01*
X14862583Y-8124683D01*
X14883018Y-8112885D01*
X14891172Y-8106628D01*
X14891172Y-8106628D01*
X14807549Y-8023004D01*
X14813589Y-8020502D01*
X14824235Y-8013389D01*
X14833289Y-8004335D01*
X14840402Y-7993689D01*
X14842904Y-7987649D01*
X14926528Y-8071272D01*
X14926528Y-8071272D01*
X14932785Y-8063118D01*
X14944583Y-8042683D01*
X14944584Y-8042682D01*
X14953613Y-8020884D01*
X14959720Y-7998091D01*
X14962800Y-7974698D01*
X14962800Y-7974697D01*
X14962800Y-7951103D01*
X14962800Y-7951101D01*
X14959720Y-7927708D01*
X14953613Y-7904916D01*
X14944584Y-7883118D01*
X14944583Y-7883117D01*
X14932785Y-7862683D01*
X14932785Y-7862683D01*
X14926528Y-7854527D01*
X14842904Y-7938151D01*
X14840402Y-7932111D01*
X14833289Y-7921465D01*
X14824235Y-7912411D01*
X14813589Y-7905298D01*
X14807549Y-7902796D01*
X14891172Y-7819172D01*
X14883017Y-7812914D01*
X14883017Y-7812914D01*
X14862583Y-7801116D01*
X14862582Y-7801116D01*
X14840784Y-7792087D01*
X14840784Y-7792087D01*
X14817991Y-7785980D01*
X14794598Y-7782900D01*
X14771001Y-7782900D01*
X14747608Y-7785980D01*
X14724816Y-7792087D01*
X14703018Y-7801116D01*
X14703017Y-7801116D01*
X14682583Y-7812914D01*
X14682582Y-7812915D01*
X14674427Y-7819172D01*
X14674427Y-7819172D01*
X14758051Y-7902796D01*
X14752011Y-7905298D01*
X14741365Y-7912411D01*
X14732311Y-7921465D01*
X14725198Y-7932111D01*
X14722696Y-7938151D01*
X14639072Y-7854527D01*
X14639072Y-7854527D01*
X14632815Y-7862682D01*
X14632814Y-7862683D01*
X14621016Y-7883117D01*
X14621016Y-7883118D01*
X14611987Y-7904916D01*
X14605880Y-7927708D01*
X14602800Y-7951101D01*
X14454800Y-7951101D01*
X14451720Y-7927708D01*
X14445613Y-7904916D01*
X14436584Y-7883118D01*
X14436583Y-7883117D01*
X14424785Y-7862683D01*
X14424785Y-7862683D01*
X14418528Y-7854527D01*
X14334904Y-7938151D01*
X14332402Y-7932111D01*
X14325289Y-7921465D01*
X14316235Y-7912411D01*
X14305589Y-7905298D01*
X14299549Y-7902796D01*
X14383172Y-7819172D01*
X14375017Y-7812914D01*
X14375017Y-7812914D01*
X14354583Y-7801116D01*
X14354582Y-7801116D01*
X14332784Y-7792087D01*
X14332784Y-7792087D01*
X14309991Y-7785980D01*
X14286598Y-7782900D01*
X14263001Y-7782900D01*
X14239608Y-7785980D01*
X14216816Y-7792087D01*
X14195018Y-7801116D01*
X14195017Y-7801116D01*
X14174583Y-7812914D01*
X14174582Y-7812915D01*
X14166427Y-7819172D01*
X14166427Y-7819172D01*
X14250051Y-7902796D01*
X14244011Y-7905298D01*
X14233365Y-7912411D01*
X14224311Y-7921465D01*
X14217198Y-7932111D01*
X14214696Y-7938151D01*
X14131072Y-7854527D01*
X14131072Y-7854527D01*
X14124815Y-7862682D01*
X14124814Y-7862683D01*
X14113016Y-7883117D01*
X14113016Y-7883118D01*
X14103987Y-7904916D01*
X14097880Y-7927708D01*
X14094800Y-7951101D01*
X13946850Y-7951101D01*
X13946850Y-7951099D01*
X13943769Y-7927699D01*
X13937661Y-7904901D01*
X13928628Y-7883095D01*
X13928628Y-7883095D01*
X13928628Y-7883094D01*
X13920615Y-7869215D01*
X13916827Y-7862655D01*
X13902459Y-7843930D01*
X13902459Y-7843929D01*
X13885770Y-7827241D01*
X13885770Y-7827241D01*
X13867045Y-7812873D01*
X13867045Y-7812873D01*
X13867045Y-7812873D01*
X13858630Y-7808014D01*
X13846606Y-7801072D01*
X13846604Y-7801071D01*
X13824799Y-7792039D01*
X13802001Y-7785931D01*
X13778602Y-7782850D01*
X13778602Y-7782850D01*
X13778601Y-7782850D01*
X13754999Y-7782850D01*
X13754998Y-7782850D01*
X13754998Y-7782850D01*
X13731599Y-7785931D01*
X13708801Y-7792039D01*
X13686995Y-7801071D01*
X13686994Y-7801072D01*
X13666554Y-7812873D01*
X13647830Y-7827241D01*
X13647829Y-7827241D01*
X13631141Y-7843929D01*
X13631141Y-7843930D01*
X13616773Y-7862654D01*
X13616773Y-7862655D01*
X13616773Y-7862655D01*
X13616001Y-7863991D01*
X13604972Y-7883094D01*
X13604971Y-7883095D01*
X13595939Y-7904901D01*
X13589831Y-7927699D01*
X13586750Y-7951098D01*
X13586750Y-7951099D01*
X13586750Y-7974700D01*
X13586750Y-7974702D01*
X13589831Y-7998101D01*
X13595939Y-8020899D01*
X13604971Y-8042704D01*
X13604972Y-8042706D01*
X13612068Y-8054996D01*
X13616773Y-8063145D01*
X13616773Y-8063145D01*
X13616773Y-8063145D01*
X13631141Y-8081870D01*
X13631141Y-8081870D01*
X13647829Y-8098559D01*
X13647830Y-8098559D01*
X13658831Y-8107000D01*
X13666555Y-8112927D01*
X13686995Y-8124728D01*
X13686996Y-8124729D01*
X13686996Y-8124729D01*
X13695484Y-8128245D01*
X13700925Y-8132629D01*
X13703131Y-8139258D01*
X13701403Y-8146028D01*
X13699507Y-8148469D01*
X13669358Y-8178618D01*
X13663226Y-8181967D01*
X13660590Y-8182250D01*
X13128910Y-8182250D01*
X13122206Y-8180281D01*
X13117630Y-8175001D01*
X13116636Y-8168085D01*
X13119538Y-8161730D01*
X13120142Y-8161082D01*
X13128699Y-8152524D01*
X13158003Y-8123221D01*
X13164135Y-8119872D01*
X13171104Y-8120371D01*
X13172970Y-8121250D01*
X13178994Y-8124728D01*
X13178994Y-8124728D01*
X13178995Y-8124728D01*
X13200801Y-8133761D01*
X13223599Y-8139869D01*
X13246999Y-8142950D01*
X13247000Y-8142950D01*
X13270600Y-8142950D01*
X13270601Y-8142950D01*
X13294001Y-8139869D01*
X13316799Y-8133761D01*
X13338605Y-8124728D01*
X13359045Y-8112927D01*
X13377770Y-8098559D01*
X13394459Y-8081870D01*
X13408827Y-8063145D01*
X13420628Y-8042705D01*
X13429661Y-8020899D01*
X13435769Y-7998101D01*
X13438850Y-7974701D01*
X13438850Y-7951099D01*
X13435769Y-7927699D01*
X13429661Y-7904901D01*
X13420628Y-7883095D01*
X13420628Y-7883095D01*
X13420628Y-7883094D01*
X13412615Y-7869215D01*
X13408827Y-7862655D01*
X13394459Y-7843930D01*
X13394459Y-7843929D01*
X13377770Y-7827241D01*
X13377770Y-7827241D01*
X13359045Y-7812873D01*
X13359045Y-7812873D01*
X13359045Y-7812873D01*
X13350630Y-7808014D01*
X13338606Y-7801072D01*
X13338604Y-7801071D01*
X13316799Y-7792039D01*
X13294001Y-7785931D01*
X13270602Y-7782850D01*
X13270602Y-7782850D01*
X13270601Y-7782850D01*
X13246999Y-7782850D01*
X13246998Y-7782850D01*
X13246998Y-7782850D01*
X13223599Y-7785931D01*
X13200801Y-7792039D01*
X13178995Y-7801071D01*
X13178994Y-7801072D01*
X13158554Y-7812873D01*
X13139830Y-7827241D01*
X13139829Y-7827241D01*
X13123141Y-7843929D01*
X13123141Y-7843930D01*
X13108773Y-7862654D01*
X13108773Y-7862655D01*
X13108773Y-7862655D01*
X13108001Y-7863991D01*
X13096972Y-7883094D01*
X13096971Y-7883095D01*
X13087939Y-7904901D01*
X13081831Y-7927699D01*
X13078750Y-7951098D01*
X13078750Y-7951099D01*
X13078750Y-7974700D01*
X13078750Y-7974702D01*
X13081831Y-7998101D01*
X13086623Y-8015986D01*
X13086456Y-8022971D01*
X13083413Y-8027963D01*
X12983558Y-8127818D01*
X12977426Y-8131167D01*
X12974790Y-8131450D01*
X12863435Y-8131450D01*
X12856731Y-8129481D01*
X12852156Y-8124201D01*
X12851161Y-8117285D01*
X12854064Y-8110930D01*
X12855886Y-8109212D01*
X12861025Y-8105269D01*
X12869770Y-8098559D01*
X12886459Y-8081870D01*
X12900827Y-8063145D01*
X12912628Y-8042705D01*
X12921661Y-8020899D01*
X12927769Y-7998101D01*
X12930850Y-7974701D01*
X12930850Y-7951099D01*
X12927769Y-7927699D01*
X12921661Y-7904901D01*
X12912628Y-7883095D01*
X12912628Y-7883095D01*
X12912628Y-7883094D01*
X12904615Y-7869215D01*
X12900827Y-7862655D01*
X12886459Y-7843930D01*
X12886459Y-7843929D01*
X12869770Y-7827241D01*
X12869770Y-7827241D01*
X12851045Y-7812873D01*
X12851045Y-7812873D01*
X12851045Y-7812873D01*
X12842630Y-7808014D01*
X12830606Y-7801072D01*
X12830604Y-7801071D01*
X12808799Y-7792039D01*
X12786001Y-7785931D01*
X12762602Y-7782850D01*
X12762602Y-7782850D01*
X12762601Y-7782850D01*
X12738999Y-7782850D01*
X12738998Y-7782850D01*
X12738998Y-7782850D01*
X12715599Y-7785931D01*
X12692801Y-7792039D01*
X12670995Y-7801071D01*
X12670994Y-7801072D01*
X12650554Y-7812873D01*
X12631830Y-7827241D01*
X12631829Y-7827241D01*
X12615141Y-7843929D01*
X12615141Y-7843930D01*
X12600773Y-7862654D01*
X12600773Y-7862655D01*
X12600773Y-7862655D01*
X12600001Y-7863991D01*
X12588972Y-7883094D01*
X12588971Y-7883095D01*
X12579939Y-7904901D01*
X12573831Y-7927699D01*
X12570750Y-7951098D01*
X12570750Y-7951099D01*
X12570750Y-7974700D01*
X12570750Y-7974702D01*
X12573831Y-7998101D01*
X12579939Y-8020899D01*
X12588971Y-8042704D01*
X12588972Y-8042706D01*
X12596068Y-8054996D01*
X12600773Y-8063145D01*
X12600773Y-8063145D01*
X12600773Y-8063145D01*
X12615141Y-8081870D01*
X12615141Y-8081870D01*
X12631829Y-8098559D01*
X12631830Y-8098559D01*
X12645714Y-8109212D01*
X12649834Y-8114855D01*
X12650249Y-8121830D01*
X12646828Y-8127922D01*
X12640656Y-8131197D01*
X12638165Y-8131450D01*
X12418998Y-8131450D01*
X12412294Y-8129481D01*
X12407718Y-8124201D01*
X12406724Y-8117285D01*
X12408444Y-8112540D01*
X12416281Y-8099833D01*
X12421800Y-8083180D01*
X12422850Y-8072901D01*
X12422850Y-7852899D01*
X12421800Y-7842620D01*
X12416281Y-7825967D01*
X12407071Y-7811034D01*
X12394666Y-7798629D01*
X12379733Y-7789419D01*
X12363080Y-7783900D01*
X12363079Y-7783900D01*
X12352801Y-7782850D01*
X12132800Y-7782850D01*
X12132798Y-7782850D01*
X12122520Y-7783900D01*
X12122520Y-7783900D01*
X12105867Y-7789418D01*
X12105866Y-7789419D01*
X12090934Y-7798629D01*
X12078529Y-7811034D01*
X12069319Y-7825966D01*
X12069318Y-7825967D01*
X12068689Y-7827868D01*
X12063800Y-7842620D01*
X12063800Y-7842620D01*
X12063800Y-7842620D01*
X12062750Y-7852898D01*
X12062750Y-7951290D01*
X12060781Y-7957994D01*
X12059118Y-7960058D01*
X11647350Y-8371826D01*
X11647349Y-8371827D01*
X11647129Y-8372048D01*
X11647128Y-8372048D01*
X11635948Y-8383228D01*
X11634665Y-8385450D01*
X11628042Y-8396922D01*
X11623950Y-8412194D01*
X11623950Y-8412195D01*
X11623950Y-8429005D01*
X11623950Y-8429006D01*
X11623950Y-9336050D01*
X11621981Y-9342754D01*
X11616701Y-9347329D01*
X11611550Y-9348450D01*
X11501197Y-9348450D01*
X11501196Y-9348450D01*
X11501196Y-9348450D01*
X11500032Y-9348554D01*
X11489258Y-9349511D01*
X11469695Y-9355109D01*
X11460677Y-9359820D01*
X11451659Y-9364530D01*
X11451659Y-9364530D01*
X11451659Y-9364530D01*
X11435889Y-9377389D01*
X11423030Y-9393159D01*
X11423030Y-9393159D01*
X11419180Y-9400531D01*
X11413609Y-9411195D01*
X11409267Y-9426369D01*
X11408074Y-9430539D01*
X11408011Y-9430758D01*
X11408011Y-9430759D01*
X11406950Y-9442697D01*
X11406950Y-9516050D01*
X11404981Y-9522754D01*
X11399701Y-9527329D01*
X11394550Y-9528450D01*
X11083692Y-9528450D01*
X11076988Y-9526482D01*
X11072412Y-9521201D01*
X11072243Y-9520789D01*
X11063703Y-9503571D01*
X11063703Y-9503570D01*
X11051772Y-9488728D01*
X11051772Y-9488728D01*
X11044851Y-9483165D01*
X11040860Y-9477430D01*
X11040602Y-9470448D01*
X11044159Y-9464435D01*
X11044851Y-9463835D01*
X11049722Y-9459920D01*
X11051772Y-9458272D01*
X11063703Y-9443430D01*
X11072164Y-9426369D01*
X11076760Y-9407889D01*
X11077050Y-9403612D01*
X11077050Y-9313388D01*
X11076760Y-9309111D01*
X11072164Y-9290631D01*
X11070803Y-9287886D01*
X11063703Y-9273571D01*
X11063703Y-9273570D01*
X11051772Y-9258728D01*
X11051772Y-9258728D01*
X11036930Y-9246797D01*
X11036929Y-9246797D01*
X11019870Y-9238336D01*
X11001389Y-9233740D01*
X10999251Y-9233595D01*
X10997112Y-9233450D01*
X10997112Y-9233450D01*
X10856888Y-9233450D01*
X10856887Y-9233450D01*
X10852611Y-9233740D01*
X10852611Y-9233740D01*
X10834130Y-9238336D01*
X10817071Y-9246797D01*
X10817070Y-9246797D01*
X10802228Y-9258728D01*
X10802228Y-9258728D01*
X10790297Y-9273570D01*
X10787259Y-9279697D01*
X10782517Y-9284828D01*
X10775753Y-9286581D01*
X10769116Y-9284399D01*
X10764711Y-9278975D01*
X10763750Y-9274187D01*
X10763750Y-9260400D01*
X10763750Y-9260398D01*
X10762700Y-9250120D01*
X10762700Y-9250120D01*
X10761599Y-9246797D01*
X10757181Y-9233467D01*
X10747971Y-9218534D01*
X10735566Y-9206129D01*
X10720633Y-9196919D01*
X10703980Y-9191400D01*
X10703980Y-9191400D01*
X10693702Y-9190350D01*
X10693701Y-9190350D01*
X10682650Y-9190350D01*
X10675946Y-9188382D01*
X10671371Y-9183101D01*
X10670250Y-9177950D01*
X10670250Y-8155350D01*
X10672219Y-8148646D01*
X10677499Y-8144070D01*
X10682650Y-8142950D01*
X10752600Y-8142950D01*
X10752601Y-8142950D01*
X10762880Y-8141900D01*
X10779533Y-8136381D01*
X10794466Y-8127171D01*
X10806871Y-8114766D01*
X10816081Y-8099833D01*
X10821600Y-8083180D01*
X10822650Y-8072901D01*
X10822650Y-7951101D01*
X10970600Y-7951101D01*
X10970600Y-7974698D01*
X10973680Y-7998091D01*
X10979787Y-8020884D01*
X10988816Y-8042682D01*
X10988817Y-8042683D01*
X11000614Y-8063117D01*
X11000615Y-8063117D01*
X11006872Y-8071272D01*
X11090496Y-7987649D01*
X11092998Y-7993689D01*
X11100111Y-8004335D01*
X11109165Y-8013389D01*
X11119811Y-8020502D01*
X11125851Y-8023004D01*
X11042228Y-8106628D01*
X11050383Y-8112885D01*
X11050383Y-8112885D01*
X11070817Y-8124683D01*
X11070818Y-8124684D01*
X11092616Y-8133713D01*
X11092616Y-8133713D01*
X11115409Y-8139820D01*
X11138801Y-8142900D01*
X11138803Y-8142900D01*
X11162397Y-8142900D01*
X11162399Y-8142900D01*
X11185791Y-8139820D01*
X11208584Y-8133713D01*
X11230382Y-8124684D01*
X11230383Y-8124683D01*
X11250818Y-8112885D01*
X11258972Y-8106628D01*
X11258972Y-8106628D01*
X11175349Y-8023004D01*
X11181389Y-8020502D01*
X11192035Y-8013389D01*
X11201089Y-8004335D01*
X11208202Y-7993689D01*
X11210704Y-7987649D01*
X11294328Y-8071272D01*
X11294328Y-8071272D01*
X11300585Y-8063118D01*
X11312383Y-8042683D01*
X11312384Y-8042682D01*
X11321413Y-8020884D01*
X11327520Y-7998091D01*
X11330600Y-7974698D01*
X11330600Y-7974697D01*
X11330600Y-7951103D01*
X11330600Y-7951101D01*
X11327520Y-7927708D01*
X11321413Y-7904916D01*
X11312384Y-7883118D01*
X11312383Y-7883117D01*
X11300585Y-7862683D01*
X11300585Y-7862683D01*
X11294328Y-7854527D01*
X11210704Y-7938151D01*
X11208202Y-7932111D01*
X11201089Y-7921465D01*
X11192035Y-7912411D01*
X11181389Y-7905298D01*
X11175349Y-7902796D01*
X11258972Y-7819172D01*
X11250817Y-7812914D01*
X11250817Y-7812914D01*
X11230383Y-7801116D01*
X11230382Y-7801116D01*
X11208584Y-7792087D01*
X11208584Y-7792087D01*
X11185791Y-7785980D01*
X11162399Y-7782900D01*
X11138801Y-7782900D01*
X11115409Y-7785980D01*
X11092616Y-7792087D01*
X11070818Y-7801116D01*
X11070817Y-7801116D01*
X11050383Y-7812914D01*
X11050382Y-7812915D01*
X11042228Y-7819172D01*
X11042228Y-7819172D01*
X11125851Y-7902796D01*
X11119811Y-7905298D01*
X11109165Y-7912411D01*
X11100111Y-7921465D01*
X11092998Y-7932111D01*
X11090496Y-7938151D01*
X11006872Y-7854527D01*
X11006872Y-7854527D01*
X11000615Y-7862682D01*
X11000614Y-7862683D01*
X10988817Y-7883117D01*
X10988816Y-7883118D01*
X10979787Y-7904916D01*
X10973680Y-7927708D01*
X10970600Y-7951101D01*
X10822650Y-7951101D01*
X10822650Y-7852899D01*
X10821600Y-7842620D01*
X10816081Y-7825967D01*
X10806871Y-7811034D01*
X10794466Y-7798629D01*
X10779533Y-7789419D01*
X10762880Y-7783900D01*
X10762880Y-7783900D01*
X10752601Y-7782850D01*
X10532600Y-7782850D01*
X10532598Y-7782850D01*
X10522320Y-7783900D01*
X10522320Y-7783900D01*
X10505667Y-7789418D01*
X10505666Y-7789419D01*
X10490734Y-7798629D01*
X10478329Y-7811034D01*
X10469119Y-7825966D01*
X10469119Y-7825967D01*
X10468489Y-7827868D01*
X10463600Y-7842620D01*
X10463600Y-7842620D01*
X10463600Y-7842620D01*
X10462550Y-7852898D01*
X10462550Y-8072900D01*
X10462550Y-8072902D01*
X10463600Y-8083180D01*
X10463600Y-8083180D01*
X10467625Y-8095326D01*
X10469119Y-8099833D01*
X10478329Y-8114766D01*
X10490734Y-8127171D01*
X10505667Y-8136381D01*
X10522320Y-8141900D01*
X10532599Y-8142950D01*
X10537750Y-8142950D01*
X10544454Y-8144918D01*
X10549029Y-8150198D01*
X10550150Y-8155350D01*
X10550150Y-9177950D01*
X10548182Y-9184654D01*
X10542901Y-9189229D01*
X10537750Y-9190350D01*
X10526700Y-9190350D01*
X10526698Y-9190350D01*
X10516420Y-9191400D01*
X10516420Y-9191400D01*
X10499767Y-9196919D01*
X10499766Y-9196919D01*
X10484834Y-9206129D01*
X10472429Y-9218534D01*
X10463219Y-9233466D01*
X10463219Y-9233467D01*
X10462533Y-9235537D01*
X10457700Y-9250120D01*
X10457700Y-9250120D01*
X10457700Y-9250120D01*
X10456650Y-9260398D01*
X10456650Y-9459400D01*
X10456650Y-9459402D01*
X10457700Y-9469680D01*
X10457700Y-9469680D01*
X10460268Y-9477430D01*
X10463219Y-9486333D01*
X10472429Y-9501266D01*
X10484834Y-9513671D01*
X10499767Y-9522881D01*
X10516420Y-9528400D01*
X10526699Y-9529450D01*
X10693701Y-9529450D01*
X10703980Y-9528400D01*
X10720633Y-9522881D01*
X10735566Y-9513671D01*
X10747971Y-9501266D01*
X10757181Y-9486333D01*
X10762700Y-9469680D01*
X10763750Y-9459401D01*
X10763750Y-9442813D01*
X10765719Y-9436109D01*
X10770999Y-9431534D01*
X10777915Y-9430539D01*
X10784270Y-9433442D01*
X10787259Y-9437304D01*
X10790297Y-9443429D01*
X10790297Y-9443430D01*
X10802228Y-9458272D01*
X10802228Y-9458272D01*
X10809149Y-9463835D01*
X10813141Y-9469570D01*
X10813399Y-9476552D01*
X10809841Y-9482565D01*
X10809149Y-9483165D01*
X10802228Y-9488728D01*
X10802228Y-9488728D01*
X10790297Y-9503570D01*
X10790297Y-9503571D01*
X10781836Y-9520630D01*
X10777240Y-9539111D01*
X10777025Y-9542289D01*
X10774607Y-9548845D01*
X10769029Y-9553052D01*
X10764653Y-9553850D01*
X10752194Y-9553850D01*
X10748102Y-9554946D01*
X10748102Y-9554947D01*
X10744375Y-9555945D01*
X10736921Y-9557942D01*
X10736921Y-9557943D01*
X10723229Y-9565848D01*
X10723228Y-9565848D01*
X10712048Y-9577028D01*
X10712048Y-9577028D01*
X10712048Y-9577029D01*
X10698414Y-9590663D01*
X10695958Y-9593118D01*
X10689826Y-9596467D01*
X10687190Y-9596750D01*
X10524200Y-9596750D01*
X10524198Y-9596750D01*
X10513920Y-9597800D01*
X10513920Y-9597800D01*
X10497267Y-9603319D01*
X10497266Y-9603319D01*
X10482334Y-9612529D01*
X10469929Y-9624934D01*
X10460719Y-9639866D01*
X10460719Y-9639867D01*
X10457935Y-9648267D01*
X10455200Y-9656520D01*
X10455200Y-9656520D01*
X10455200Y-9656520D01*
X10454150Y-9666798D01*
X10454150Y-9829790D01*
X10452182Y-9836494D01*
X10450518Y-9838558D01*
X10206179Y-10082898D01*
X10194998Y-10094078D01*
X10194998Y-10094078D01*
X10191416Y-10100284D01*
X10187092Y-10107772D01*
X10183000Y-10123044D01*
X10183000Y-10138856D01*
X10183000Y-10138856D01*
X10183000Y-10139855D01*
X10183000Y-11164683D01*
X10183000Y-11164685D01*
X10183000Y-11181255D01*
X10183000Y-11181255D01*
X9931400Y-11181255D01*
X9931400Y-9865799D01*
X9960200Y-9865799D01*
X9961249Y-9876070D01*
X9966764Y-9892712D01*
X9966764Y-9892712D01*
X9975968Y-9907635D01*
X9988365Y-9920032D01*
X10003288Y-9929236D01*
X10003288Y-9929236D01*
X10019930Y-9934751D01*
X10019931Y-9934751D01*
X10030202Y-9935800D01*
X10088700Y-9935800D01*
X10138700Y-9935800D01*
X10197197Y-9935800D01*
X10197199Y-9935800D01*
X10207470Y-9934751D01*
X10224112Y-9929236D01*
X10224112Y-9929236D01*
X10239035Y-9920032D01*
X10251432Y-9907635D01*
X10260636Y-9892712D01*
X10260636Y-9892712D01*
X10266151Y-9876070D01*
X10266151Y-9876069D01*
X10267200Y-9865799D01*
X10267200Y-9865797D01*
X10267200Y-9791300D01*
X10138700Y-9791300D01*
X10138700Y-9935800D01*
X10088700Y-9935800D01*
X10088700Y-9935800D01*
X10088700Y-9791300D01*
X9960200Y-9791300D01*
X9960200Y-9865799D01*
X9931400Y-9865799D01*
X9931400Y-9666801D01*
X9960200Y-9666801D01*
X9960200Y-9741300D01*
X10088700Y-9741300D01*
X10138700Y-9741300D01*
X10267200Y-9741300D01*
X10267200Y-9666803D01*
X10267200Y-9666801D01*
X10266151Y-9656530D01*
X10260636Y-9639888D01*
X10260636Y-9639888D01*
X10251432Y-9624965D01*
X10239035Y-9612568D01*
X10224112Y-9603364D01*
X10224112Y-9603364D01*
X10207470Y-9597849D01*
X10207469Y-9597849D01*
X10197199Y-9596800D01*
X10138700Y-9596800D01*
X10138700Y-9741300D01*
X10088700Y-9741300D01*
X10088700Y-9596800D01*
X10030203Y-9596800D01*
X10030201Y-9596800D01*
X10019930Y-9597849D01*
X10003288Y-9603364D01*
X10003288Y-9603364D01*
X9988365Y-9612568D01*
X9975968Y-9624965D01*
X9966764Y-9639888D01*
X9966764Y-9639888D01*
X9961249Y-9656530D01*
X9961249Y-9656531D01*
X9960200Y-9666801D01*
X9931400Y-9666801D01*
X9931400Y-9459399D01*
X9962700Y-9459399D01*
X9963749Y-9469670D01*
X9969264Y-9486312D01*
X9969264Y-9486312D01*
X9978468Y-9501235D01*
X9990865Y-9513632D01*
X10005788Y-9522836D01*
X10005788Y-9522836D01*
X10022430Y-9528351D01*
X10022431Y-9528351D01*
X10032702Y-9529400D01*
X10091200Y-9529400D01*
X10141200Y-9529400D01*
X10199697Y-9529400D01*
X10199699Y-9529400D01*
X10209970Y-9528351D01*
X10226612Y-9522836D01*
X10226612Y-9522836D01*
X10241535Y-9513632D01*
X10253932Y-9501235D01*
X10263136Y-9486312D01*
X10263136Y-9486312D01*
X10268651Y-9469670D01*
X10268651Y-9469669D01*
X10269700Y-9459399D01*
X10269700Y-9459397D01*
X10269700Y-9384900D01*
X10141200Y-9384900D01*
X10141200Y-9529400D01*
X10091200Y-9529400D01*
X10091200Y-9529400D01*
X10091200Y-9384900D01*
X9962700Y-9384900D01*
X9962700Y-9459399D01*
X9931400Y-9459399D01*
X9931400Y-9260401D01*
X9962700Y-9260401D01*
X9962700Y-9334900D01*
X10091200Y-9334900D01*
X10141200Y-9334900D01*
X10269700Y-9334900D01*
X10269700Y-9260403D01*
X10269700Y-9260401D01*
X10268651Y-9250130D01*
X10263136Y-9233488D01*
X10263136Y-9233488D01*
X10253932Y-9218565D01*
X10241535Y-9206168D01*
X10226612Y-9196964D01*
X10226612Y-9196964D01*
X10209970Y-9191449D01*
X10209969Y-9191449D01*
X10199699Y-9190400D01*
X10141200Y-9190400D01*
X10141200Y-9334900D01*
X10091200Y-9334900D01*
X10091200Y-9190400D01*
X10032703Y-9190400D01*
X10032701Y-9190400D01*
X10022430Y-9191449D01*
X10005788Y-9196964D01*
X10005788Y-9196964D01*
X9990865Y-9206168D01*
X9978468Y-9218565D01*
X9969264Y-9233488D01*
X9969264Y-9233488D01*
X9963749Y-9250130D01*
X9963749Y-9250131D01*
X9962700Y-9260401D01*
X9931400Y-9260401D01*
X9931400Y-7500350D01*
X9933369Y-7493646D01*
X9938649Y-7489071D01*
X9943800Y-7487950D01*
X22708950Y-7487950D01*
X22715654Y-7489918D01*
G37*
%TD.AperFunction*%
%TD*%
M02*
