M48
; DRILL file {KiCad 9.0.2} date 2025-08-24T11:37:44+0200
; FORMAT={-:-/ absolute / metric / decimal}
; #@! TF.CreationDate,2025-08-24T11:37:44+02:00
; #@! TF.GenerationSoftware,Kicad,Pcbnew,9.0.2
; #@! TF.FileFunction,MixedPlating,1,2
FMAT,2
METRIC
; #@! TA.AperFunction,Plated,PTH,ComponentDrill
T1C0.889
; #@! TA.AperFunction,Plated,PTH,ComponentDrill
T2C1.000
; #@! TA.AperFunction,Plated,PTH,ComponentDrill
T3C1.300
%
G90
G05
T1
X131.572Y-106.045
X131.572Y-108.585
X131.572Y-111.125
X131.572Y-113.665
X131.572Y-116.205
X131.572Y-118.745
X131.572Y-121.285
X146.812Y-106.045
X146.812Y-108.585
X146.812Y-111.125
X146.812Y-113.665
X146.812Y-116.205
X146.812Y-118.745
X146.812Y-121.285
T2
X125.476Y-91.567
X128.016Y-91.567
X130.556Y-91.567
X133.096Y-91.567
X158.496Y-90.551
X158.496Y-93.091
X158.496Y-95.631
X158.496Y-98.171
X158.496Y-100.711
X158.496Y-103.251
X158.496Y-105.791
X158.496Y-108.331
T3
X80.231Y-113.034
X83.566Y-79.629
X83.731Y-105.534
X87.231Y-113.034
X88.646Y-79.629
X93.726Y-79.629
X103.731Y-105.534
X103.731Y-113.034
X106.426Y-79.629
X111.506Y-79.629
X122.428Y-79.629
X127.508Y-79.629
X132.588Y-79.629
X137.668Y-79.629
X142.748Y-79.629
X147.828Y-79.629
M30
