%TF.GenerationSoftware,KiCad,Pcbnew,9.0.2*%
%TF.CreationDate,2025-08-21T21:33:00+02:00*%
%TF.ProjectId,esp32c6-charger,65737033-3263-4362-9d63-686172676572,rev?*%
%TF.SameCoordinates,Original*%
%TF.FileFunction,Legend,Bot*%
%TF.FilePolarity,Positive*%
%FSLAX45Y45*%
G04 Gerber Fmt 4.5, Leading zero omitted, Abs format (unit mm)*
G04 Created by KiCad (PCBNEW 9.0.2) date 2025-08-21 21:33:00*
%MOMM*%
%LPD*%
G01*
G04 APERTURE LIST*
%ADD10C,0.100000*%
%ADD11C,0.200000*%
%ADD12C,0.101600*%
%ADD13C,0.150000*%
%ADD14C,0.127000*%
%ADD15C,0.504000*%
%ADD16C,0.120000*%
G04 APERTURE END LIST*
D10*
X21361400Y-11214100D02*
X21361400Y-11645900D01*
D11*
X21818600Y-11239500D02*
G75*
G02*
X20853400Y-11239500I-482600J0D01*
G01*
X20853400Y-11239500D02*
G75*
G02*
X21818600Y-11239500I482600J0D01*
G01*
D10*
X21310600Y-10833100D02*
X21310600Y-11645900D01*
X13639800Y-10312400D02*
X13639800Y-10109200D01*
X21310600Y-11214100D02*
X20929600Y-11214100D01*
X14681200Y-10312400D02*
X13766800Y-10312400D01*
X14681200Y-10312400D02*
X14681200Y-10109200D01*
X21361400Y-11214100D02*
X21590000Y-11214100D01*
X13639800Y-10312400D02*
X13157200Y-10312400D01*
X12293600Y-10312400D02*
X13157200Y-10312400D01*
X12293600Y-10312400D02*
X12293600Y-10109200D01*
X13766800Y-10312400D02*
X13766800Y-10109200D01*
X14573031Y-10077404D02*
X14582554Y-10072642D01*
X14582554Y-10072642D02*
X14596840Y-10072642D01*
X14596840Y-10072642D02*
X14611126Y-10077404D01*
X14611126Y-10077404D02*
X14620650Y-10086928D01*
X14620650Y-10086928D02*
X14625411Y-10096451D01*
X14625411Y-10096451D02*
X14630173Y-10115499D01*
X14630173Y-10115499D02*
X14630173Y-10129785D01*
X14630173Y-10129785D02*
X14625411Y-10148832D01*
X14625411Y-10148832D02*
X14620650Y-10158356D01*
X14620650Y-10158356D02*
X14611126Y-10167880D01*
X14611126Y-10167880D02*
X14596840Y-10172642D01*
X14596840Y-10172642D02*
X14587316Y-10172642D01*
X14587316Y-10172642D02*
X14573031Y-10167880D01*
X14573031Y-10167880D02*
X14568269Y-10163118D01*
X14568269Y-10163118D02*
X14568269Y-10129785D01*
X14568269Y-10129785D02*
X14587316Y-10129785D01*
X14525411Y-10172642D02*
X14525411Y-10072642D01*
X14525411Y-10072642D02*
X14468269Y-10172642D01*
X14468269Y-10172642D02*
X14468269Y-10072642D01*
X14420650Y-10172642D02*
X14420650Y-10072642D01*
X14420650Y-10072642D02*
X14396840Y-10072642D01*
X14396840Y-10072642D02*
X14382554Y-10077404D01*
X14382554Y-10077404D02*
X14373031Y-10086928D01*
X14373031Y-10086928D02*
X14368269Y-10096451D01*
X14368269Y-10096451D02*
X14363507Y-10115499D01*
X14363507Y-10115499D02*
X14363507Y-10129785D01*
X14363507Y-10129785D02*
X14368269Y-10148832D01*
X14368269Y-10148832D02*
X14373031Y-10158356D01*
X14373031Y-10158356D02*
X14382554Y-10167880D01*
X14382554Y-10167880D02*
X14396840Y-10172642D01*
X14396840Y-10172642D02*
X14420650Y-10172642D01*
X14244411Y-10172642D02*
X14244411Y-10072642D01*
X14244411Y-10072642D02*
X14220602Y-10072642D01*
X14220602Y-10072642D02*
X14206316Y-10077404D01*
X14206316Y-10077404D02*
X14196792Y-10086928D01*
X14196792Y-10086928D02*
X14192031Y-10096451D01*
X14192031Y-10096451D02*
X14187269Y-10115499D01*
X14187269Y-10115499D02*
X14187269Y-10129785D01*
X14187269Y-10129785D02*
X14192031Y-10148832D01*
X14192031Y-10148832D02*
X14196792Y-10158356D01*
X14196792Y-10158356D02*
X14206316Y-10167880D01*
X14206316Y-10167880D02*
X14220602Y-10172642D01*
X14220602Y-10172642D02*
X14244411Y-10172642D01*
X14106316Y-10167880D02*
X14115840Y-10172642D01*
X14115840Y-10172642D02*
X14134888Y-10172642D01*
X14134888Y-10172642D02*
X14144411Y-10167880D01*
X14144411Y-10167880D02*
X14149173Y-10158356D01*
X14149173Y-10158356D02*
X14149173Y-10120261D01*
X14149173Y-10120261D02*
X14144411Y-10110737D01*
X14144411Y-10110737D02*
X14134888Y-10105975D01*
X14134888Y-10105975D02*
X14115840Y-10105975D01*
X14115840Y-10105975D02*
X14106316Y-10110737D01*
X14106316Y-10110737D02*
X14101554Y-10120261D01*
X14101554Y-10120261D02*
X14101554Y-10129785D01*
X14101554Y-10129785D02*
X14149173Y-10139309D01*
X14072983Y-10105975D02*
X14034888Y-10105975D01*
X14058697Y-10072642D02*
X14058697Y-10158356D01*
X14058697Y-10158356D02*
X14053935Y-10167880D01*
X14053935Y-10167880D02*
X14044411Y-10172642D01*
X14044411Y-10172642D02*
X14034888Y-10172642D01*
X13963459Y-10167880D02*
X13972983Y-10172642D01*
X13972983Y-10172642D02*
X13992030Y-10172642D01*
X13992030Y-10172642D02*
X14001554Y-10167880D01*
X14001554Y-10167880D02*
X14006316Y-10158356D01*
X14006316Y-10158356D02*
X14006316Y-10120261D01*
X14006316Y-10120261D02*
X14001554Y-10110737D01*
X14001554Y-10110737D02*
X13992030Y-10105975D01*
X13992030Y-10105975D02*
X13972983Y-10105975D01*
X13972983Y-10105975D02*
X13963459Y-10110737D01*
X13963459Y-10110737D02*
X13958697Y-10120261D01*
X13958697Y-10120261D02*
X13958697Y-10129785D01*
X13958697Y-10129785D02*
X14006316Y-10139309D01*
X13872983Y-10167880D02*
X13882507Y-10172642D01*
X13882507Y-10172642D02*
X13901554Y-10172642D01*
X13901554Y-10172642D02*
X13911078Y-10167880D01*
X13911078Y-10167880D02*
X13915840Y-10163118D01*
X13915840Y-10163118D02*
X13920602Y-10153594D01*
X13920602Y-10153594D02*
X13920602Y-10125023D01*
X13920602Y-10125023D02*
X13915840Y-10115499D01*
X13915840Y-10115499D02*
X13911078Y-10110737D01*
X13911078Y-10110737D02*
X13901554Y-10105975D01*
X13901554Y-10105975D02*
X13882507Y-10105975D01*
X13882507Y-10105975D02*
X13872983Y-10110737D01*
X13844411Y-10105975D02*
X13806316Y-10105975D01*
X13830126Y-10072642D02*
X13830126Y-10158356D01*
X13830126Y-10158356D02*
X13825364Y-10167880D01*
X13825364Y-10167880D02*
X13815840Y-10172642D01*
X13815840Y-10172642D02*
X13806316Y-10172642D01*
X12494992Y-10098042D02*
X12542611Y-10098042D01*
X12542611Y-10098042D02*
X12547373Y-10145661D01*
X12547373Y-10145661D02*
X12542611Y-10140899D01*
X12542611Y-10140899D02*
X12533088Y-10136137D01*
X12533088Y-10136137D02*
X12509278Y-10136137D01*
X12509278Y-10136137D02*
X12499754Y-10140899D01*
X12499754Y-10140899D02*
X12494992Y-10145661D01*
X12494992Y-10145661D02*
X12490231Y-10155185D01*
X12490231Y-10155185D02*
X12490231Y-10178994D01*
X12490231Y-10178994D02*
X12494992Y-10188518D01*
X12494992Y-10188518D02*
X12499754Y-10193280D01*
X12499754Y-10193280D02*
X12509278Y-10198042D01*
X12509278Y-10198042D02*
X12533088Y-10198042D01*
X12533088Y-10198042D02*
X12542611Y-10193280D01*
X12542611Y-10193280D02*
X12547373Y-10188518D01*
X12461659Y-10098042D02*
X12428326Y-10198042D01*
X12428326Y-10198042D02*
X12394992Y-10098042D01*
D11*
X20818023Y-11696584D02*
X20818023Y-11496584D01*
X20818023Y-11496584D02*
X20751356Y-11639441D01*
X20751356Y-11639441D02*
X20684690Y-11496584D01*
X20684690Y-11496584D02*
X20684690Y-11696584D01*
X20503737Y-11696584D02*
X20503737Y-11591822D01*
X20503737Y-11591822D02*
X20513261Y-11572774D01*
X20513261Y-11572774D02*
X20532309Y-11563250D01*
X20532309Y-11563250D02*
X20570404Y-11563250D01*
X20570404Y-11563250D02*
X20589452Y-11572774D01*
X20503737Y-11687060D02*
X20522785Y-11696584D01*
X20522785Y-11696584D02*
X20570404Y-11696584D01*
X20570404Y-11696584D02*
X20589452Y-11687060D01*
X20589452Y-11687060D02*
X20598976Y-11668012D01*
X20598976Y-11668012D02*
X20598976Y-11648965D01*
X20598976Y-11648965D02*
X20589452Y-11629917D01*
X20589452Y-11629917D02*
X20570404Y-11620393D01*
X20570404Y-11620393D02*
X20522785Y-11620393D01*
X20522785Y-11620393D02*
X20503737Y-11610869D01*
X20408499Y-11696584D02*
X20408499Y-11496584D01*
X20389452Y-11620393D02*
X20332309Y-11696584D01*
X20332309Y-11563250D02*
X20408499Y-11639441D01*
X20170404Y-11687060D02*
X20189452Y-11696584D01*
X20189452Y-11696584D02*
X20227547Y-11696584D01*
X20227547Y-11696584D02*
X20246595Y-11687060D01*
X20246595Y-11687060D02*
X20256118Y-11668012D01*
X20256118Y-11668012D02*
X20256118Y-11591822D01*
X20256118Y-11591822D02*
X20246595Y-11572774D01*
X20246595Y-11572774D02*
X20227547Y-11563250D01*
X20227547Y-11563250D02*
X20189452Y-11563250D01*
X20189452Y-11563250D02*
X20170404Y-11572774D01*
X20170404Y-11572774D02*
X20160880Y-11591822D01*
X20160880Y-11591822D02*
X20160880Y-11610869D01*
X20160880Y-11610869D02*
X20256118Y-11629917D01*
D10*
X13536392Y-10172642D02*
X13584011Y-10172642D01*
X13584011Y-10172642D02*
X13584011Y-10072642D01*
X13488773Y-10172642D02*
X13498297Y-10167880D01*
X13498297Y-10167880D02*
X13503059Y-10163118D01*
X13503059Y-10163118D02*
X13507821Y-10153594D01*
X13507821Y-10153594D02*
X13507821Y-10125023D01*
X13507821Y-10125023D02*
X13503059Y-10115499D01*
X13503059Y-10115499D02*
X13498297Y-10110737D01*
X13498297Y-10110737D02*
X13488773Y-10105975D01*
X13488773Y-10105975D02*
X13474488Y-10105975D01*
X13474488Y-10105975D02*
X13464964Y-10110737D01*
X13464964Y-10110737D02*
X13460202Y-10115499D01*
X13460202Y-10115499D02*
X13455440Y-10125023D01*
X13455440Y-10125023D02*
X13455440Y-10153594D01*
X13455440Y-10153594D02*
X13460202Y-10163118D01*
X13460202Y-10163118D02*
X13464964Y-10167880D01*
X13464964Y-10167880D02*
X13474488Y-10172642D01*
X13474488Y-10172642D02*
X13488773Y-10172642D01*
X13369726Y-10167880D02*
X13379250Y-10172642D01*
X13379250Y-10172642D02*
X13398297Y-10172642D01*
X13398297Y-10172642D02*
X13407821Y-10167880D01*
X13407821Y-10167880D02*
X13412583Y-10163118D01*
X13412583Y-10163118D02*
X13417345Y-10153594D01*
X13417345Y-10153594D02*
X13417345Y-10125023D01*
X13417345Y-10125023D02*
X13412583Y-10115499D01*
X13412583Y-10115499D02*
X13407821Y-10110737D01*
X13407821Y-10110737D02*
X13398297Y-10105975D01*
X13398297Y-10105975D02*
X13379250Y-10105975D01*
X13379250Y-10105975D02*
X13369726Y-10110737D01*
X13326869Y-10172642D02*
X13326869Y-10072642D01*
X13317345Y-10134547D02*
X13288773Y-10172642D01*
X13288773Y-10105975D02*
X13326869Y-10144070D01*
X21813612Y-11912542D02*
X21813612Y-11812542D01*
X21770754Y-11912542D02*
X21770754Y-11860161D01*
X21770754Y-11860161D02*
X21775516Y-11850637D01*
X21775516Y-11850637D02*
X21785040Y-11845875D01*
X21785040Y-11845875D02*
X21799326Y-11845875D01*
X21799326Y-11845875D02*
X21808850Y-11850637D01*
X21808850Y-11850637D02*
X21813612Y-11855399D01*
X21737421Y-11845875D02*
X21699326Y-11845875D01*
X21723135Y-11812542D02*
X21723135Y-11898256D01*
X21723135Y-11898256D02*
X21718373Y-11907780D01*
X21718373Y-11907780D02*
X21708850Y-11912542D01*
X21708850Y-11912542D02*
X21699326Y-11912542D01*
X21680278Y-11845875D02*
X21642183Y-11845875D01*
X21665992Y-11812542D02*
X21665992Y-11898256D01*
X21665992Y-11898256D02*
X21661231Y-11907780D01*
X21661231Y-11907780D02*
X21651707Y-11912542D01*
X21651707Y-11912542D02*
X21642183Y-11912542D01*
X21608850Y-11845875D02*
X21608850Y-11945875D01*
X21608850Y-11850637D02*
X21599326Y-11845875D01*
X21599326Y-11845875D02*
X21580278Y-11845875D01*
X21580278Y-11845875D02*
X21570754Y-11850637D01*
X21570754Y-11850637D02*
X21565992Y-11855399D01*
X21565992Y-11855399D02*
X21561231Y-11864923D01*
X21561231Y-11864923D02*
X21561231Y-11893494D01*
X21561231Y-11893494D02*
X21565992Y-11903018D01*
X21565992Y-11903018D02*
X21570754Y-11907780D01*
X21570754Y-11907780D02*
X21580278Y-11912542D01*
X21580278Y-11912542D02*
X21599326Y-11912542D01*
X21599326Y-11912542D02*
X21608850Y-11907780D01*
X21523135Y-11907780D02*
X21513611Y-11912542D01*
X21513611Y-11912542D02*
X21494564Y-11912542D01*
X21494564Y-11912542D02*
X21485040Y-11907780D01*
X21485040Y-11907780D02*
X21480278Y-11898256D01*
X21480278Y-11898256D02*
X21480278Y-11893494D01*
X21480278Y-11893494D02*
X21485040Y-11883970D01*
X21485040Y-11883970D02*
X21494564Y-11879208D01*
X21494564Y-11879208D02*
X21508850Y-11879208D01*
X21508850Y-11879208D02*
X21518373Y-11874447D01*
X21518373Y-11874447D02*
X21523135Y-11864923D01*
X21523135Y-11864923D02*
X21523135Y-11860161D01*
X21523135Y-11860161D02*
X21518373Y-11850637D01*
X21518373Y-11850637D02*
X21508850Y-11845875D01*
X21508850Y-11845875D02*
X21494564Y-11845875D01*
X21494564Y-11845875D02*
X21485040Y-11850637D01*
X21437421Y-11903018D02*
X21432659Y-11907780D01*
X21432659Y-11907780D02*
X21437421Y-11912542D01*
X21437421Y-11912542D02*
X21442183Y-11907780D01*
X21442183Y-11907780D02*
X21437421Y-11903018D01*
X21437421Y-11903018D02*
X21437421Y-11912542D01*
X21437421Y-11850637D02*
X21432659Y-11855399D01*
X21432659Y-11855399D02*
X21437421Y-11860161D01*
X21437421Y-11860161D02*
X21442183Y-11855399D01*
X21442183Y-11855399D02*
X21437421Y-11850637D01*
X21437421Y-11850637D02*
X21437421Y-11860161D01*
X21318373Y-11807780D02*
X21404088Y-11936351D01*
X21213612Y-11807780D02*
X21299326Y-11936351D01*
X21137421Y-11845875D02*
X21137421Y-11926828D01*
X21137421Y-11926828D02*
X21142183Y-11936351D01*
X21142183Y-11936351D02*
X21146945Y-11941113D01*
X21146945Y-11941113D02*
X21156469Y-11945875D01*
X21156469Y-11945875D02*
X21170754Y-11945875D01*
X21170754Y-11945875D02*
X21180278Y-11941113D01*
X21137421Y-11907780D02*
X21146945Y-11912542D01*
X21146945Y-11912542D02*
X21165992Y-11912542D01*
X21165992Y-11912542D02*
X21175516Y-11907780D01*
X21175516Y-11907780D02*
X21180278Y-11903018D01*
X21180278Y-11903018D02*
X21185040Y-11893494D01*
X21185040Y-11893494D02*
X21185040Y-11864923D01*
X21185040Y-11864923D02*
X21180278Y-11855399D01*
X21180278Y-11855399D02*
X21175516Y-11850637D01*
X21175516Y-11850637D02*
X21165992Y-11845875D01*
X21165992Y-11845875D02*
X21146945Y-11845875D01*
X21146945Y-11845875D02*
X21137421Y-11850637D01*
X21051707Y-11907780D02*
X21061231Y-11912542D01*
X21061231Y-11912542D02*
X21080278Y-11912542D01*
X21080278Y-11912542D02*
X21089802Y-11907780D01*
X21089802Y-11907780D02*
X21094564Y-11898256D01*
X21094564Y-11898256D02*
X21094564Y-11860161D01*
X21094564Y-11860161D02*
X21089802Y-11850637D01*
X21089802Y-11850637D02*
X21080278Y-11845875D01*
X21080278Y-11845875D02*
X21061231Y-11845875D01*
X21061231Y-11845875D02*
X21051707Y-11850637D01*
X21051707Y-11850637D02*
X21046945Y-11860161D01*
X21046945Y-11860161D02*
X21046945Y-11869685D01*
X21046945Y-11869685D02*
X21094564Y-11879208D01*
X21004088Y-11912542D02*
X21004088Y-11845875D01*
X21004088Y-11864923D02*
X20999326Y-11855399D01*
X20999326Y-11855399D02*
X20994564Y-11850637D01*
X20994564Y-11850637D02*
X20985040Y-11845875D01*
X20985040Y-11845875D02*
X20975516Y-11845875D01*
X20956469Y-11845875D02*
X20918373Y-11845875D01*
X20942183Y-11812542D02*
X20942183Y-11898256D01*
X20942183Y-11898256D02*
X20937421Y-11907780D01*
X20937421Y-11907780D02*
X20927897Y-11912542D01*
X20927897Y-11912542D02*
X20918373Y-11912542D01*
X20885040Y-11845875D02*
X20885040Y-11931589D01*
X20885040Y-11931589D02*
X20889802Y-11941113D01*
X20889802Y-11941113D02*
X20899326Y-11945875D01*
X20899326Y-11945875D02*
X20904088Y-11945875D01*
X20885040Y-11812542D02*
X20889802Y-11817304D01*
X20889802Y-11817304D02*
X20885040Y-11822066D01*
X20885040Y-11822066D02*
X20880278Y-11817304D01*
X20880278Y-11817304D02*
X20885040Y-11812542D01*
X20885040Y-11812542D02*
X20885040Y-11822066D01*
X20794564Y-11912542D02*
X20794564Y-11860161D01*
X20794564Y-11860161D02*
X20799326Y-11850637D01*
X20799326Y-11850637D02*
X20808850Y-11845875D01*
X20808850Y-11845875D02*
X20827897Y-11845875D01*
X20827897Y-11845875D02*
X20837421Y-11850637D01*
X20794564Y-11907780D02*
X20804088Y-11912542D01*
X20804088Y-11912542D02*
X20827897Y-11912542D01*
X20827897Y-11912542D02*
X20837421Y-11907780D01*
X20837421Y-11907780D02*
X20842183Y-11898256D01*
X20842183Y-11898256D02*
X20842183Y-11888732D01*
X20842183Y-11888732D02*
X20837421Y-11879208D01*
X20837421Y-11879208D02*
X20827897Y-11874447D01*
X20827897Y-11874447D02*
X20804088Y-11874447D01*
X20804088Y-11874447D02*
X20794564Y-11869685D01*
X20746945Y-11845875D02*
X20746945Y-11912542D01*
X20746945Y-11855399D02*
X20742183Y-11850637D01*
X20742183Y-11850637D02*
X20732659Y-11845875D01*
X20732659Y-11845875D02*
X20718373Y-11845875D01*
X20718373Y-11845875D02*
X20708850Y-11850637D01*
X20708850Y-11850637D02*
X20704088Y-11860161D01*
X20704088Y-11860161D02*
X20704088Y-11912542D01*
X20613611Y-11912542D02*
X20613611Y-11860161D01*
X20613611Y-11860161D02*
X20618373Y-11850637D01*
X20618373Y-11850637D02*
X20627897Y-11845875D01*
X20627897Y-11845875D02*
X20646945Y-11845875D01*
X20646945Y-11845875D02*
X20656469Y-11850637D01*
X20613611Y-11907780D02*
X20623135Y-11912542D01*
X20623135Y-11912542D02*
X20646945Y-11912542D01*
X20646945Y-11912542D02*
X20656469Y-11907780D01*
X20656469Y-11907780D02*
X20661230Y-11898256D01*
X20661230Y-11898256D02*
X20661230Y-11888732D01*
X20661230Y-11888732D02*
X20656469Y-11879208D01*
X20656469Y-11879208D02*
X20646945Y-11874447D01*
X20646945Y-11874447D02*
X20623135Y-11874447D01*
X20623135Y-11874447D02*
X20613611Y-11869685D01*
X20570754Y-11907780D02*
X20561230Y-11912542D01*
X20561230Y-11912542D02*
X20542183Y-11912542D01*
X20542183Y-11912542D02*
X20532659Y-11907780D01*
X20532659Y-11907780D02*
X20527897Y-11898256D01*
X20527897Y-11898256D02*
X20527897Y-11893494D01*
X20527897Y-11893494D02*
X20532659Y-11883970D01*
X20532659Y-11883970D02*
X20542183Y-11879208D01*
X20542183Y-11879208D02*
X20556469Y-11879208D01*
X20556469Y-11879208D02*
X20565992Y-11874447D01*
X20565992Y-11874447D02*
X20570754Y-11864923D01*
X20570754Y-11864923D02*
X20570754Y-11860161D01*
X20570754Y-11860161D02*
X20565992Y-11850637D01*
X20565992Y-11850637D02*
X20556469Y-11845875D01*
X20556469Y-11845875D02*
X20542183Y-11845875D01*
X20542183Y-11845875D02*
X20532659Y-11850637D01*
X20489802Y-11907780D02*
X20480278Y-11912542D01*
X20480278Y-11912542D02*
X20461230Y-11912542D01*
X20461230Y-11912542D02*
X20451707Y-11907780D01*
X20451707Y-11907780D02*
X20446945Y-11898256D01*
X20446945Y-11898256D02*
X20446945Y-11893494D01*
X20446945Y-11893494D02*
X20451707Y-11883970D01*
X20451707Y-11883970D02*
X20461230Y-11879208D01*
X20461230Y-11879208D02*
X20475516Y-11879208D01*
X20475516Y-11879208D02*
X20485040Y-11874447D01*
X20485040Y-11874447D02*
X20489802Y-11864923D01*
X20489802Y-11864923D02*
X20489802Y-11860161D01*
X20489802Y-11860161D02*
X20485040Y-11850637D01*
X20485040Y-11850637D02*
X20475516Y-11845875D01*
X20475516Y-11845875D02*
X20461230Y-11845875D01*
X20461230Y-11845875D02*
X20451707Y-11850637D01*
X20404088Y-11912542D02*
X20404088Y-11845875D01*
X20404088Y-11812542D02*
X20408849Y-11817304D01*
X20408849Y-11817304D02*
X20404088Y-11822066D01*
X20404088Y-11822066D02*
X20399326Y-11817304D01*
X20399326Y-11817304D02*
X20404088Y-11812542D01*
X20404088Y-11812542D02*
X20404088Y-11822066D01*
X20318373Y-11907780D02*
X20327897Y-11912542D01*
X20327897Y-11912542D02*
X20346945Y-11912542D01*
X20346945Y-11912542D02*
X20356469Y-11907780D01*
X20356469Y-11907780D02*
X20361230Y-11898256D01*
X20361230Y-11898256D02*
X20361230Y-11860161D01*
X20361230Y-11860161D02*
X20356469Y-11850637D01*
X20356469Y-11850637D02*
X20346945Y-11845875D01*
X20346945Y-11845875D02*
X20327897Y-11845875D01*
X20327897Y-11845875D02*
X20318373Y-11850637D01*
X20318373Y-11850637D02*
X20313611Y-11860161D01*
X20313611Y-11860161D02*
X20313611Y-11869685D01*
X20313611Y-11869685D02*
X20361230Y-11879208D01*
X20275516Y-11907780D02*
X20265992Y-11912542D01*
X20265992Y-11912542D02*
X20246945Y-11912542D01*
X20246945Y-11912542D02*
X20237421Y-11907780D01*
X20237421Y-11907780D02*
X20232659Y-11898256D01*
X20232659Y-11898256D02*
X20232659Y-11893494D01*
X20232659Y-11893494D02*
X20237421Y-11883970D01*
X20237421Y-11883970D02*
X20246945Y-11879208D01*
X20246945Y-11879208D02*
X20261230Y-11879208D01*
X20261230Y-11879208D02*
X20270754Y-11874447D01*
X20270754Y-11874447D02*
X20275516Y-11864923D01*
X20275516Y-11864923D02*
X20275516Y-11860161D01*
X20275516Y-11860161D02*
X20270754Y-11850637D01*
X20270754Y-11850637D02*
X20261230Y-11845875D01*
X20261230Y-11845875D02*
X20246945Y-11845875D01*
X20246945Y-11845875D02*
X20237421Y-11850637D01*
X20189802Y-11903018D02*
X20185040Y-11907780D01*
X20185040Y-11907780D02*
X20189802Y-11912542D01*
X20189802Y-11912542D02*
X20194564Y-11907780D01*
X20194564Y-11907780D02*
X20189802Y-11903018D01*
X20189802Y-11903018D02*
X20189802Y-11912542D01*
X20099326Y-11912542D02*
X20099326Y-11812542D01*
X20099326Y-11907780D02*
X20108850Y-11912542D01*
X20108850Y-11912542D02*
X20127897Y-11912542D01*
X20127897Y-11912542D02*
X20137421Y-11907780D01*
X20137421Y-11907780D02*
X20142183Y-11903018D01*
X20142183Y-11903018D02*
X20146945Y-11893494D01*
X20146945Y-11893494D02*
X20146945Y-11864923D01*
X20146945Y-11864923D02*
X20142183Y-11855399D01*
X20142183Y-11855399D02*
X20137421Y-11850637D01*
X20137421Y-11850637D02*
X20127897Y-11845875D01*
X20127897Y-11845875D02*
X20108850Y-11845875D01*
X20108850Y-11845875D02*
X20099326Y-11850637D01*
X20013611Y-11907780D02*
X20023135Y-11912542D01*
X20023135Y-11912542D02*
X20042183Y-11912542D01*
X20042183Y-11912542D02*
X20051707Y-11907780D01*
X20051707Y-11907780D02*
X20056469Y-11898256D01*
X20056469Y-11898256D02*
X20056469Y-11860161D01*
X20056469Y-11860161D02*
X20051707Y-11850637D01*
X20051707Y-11850637D02*
X20042183Y-11845875D01*
X20042183Y-11845875D02*
X20023135Y-11845875D01*
X20023135Y-11845875D02*
X20013611Y-11850637D01*
X20013611Y-11850637D02*
X20008850Y-11860161D01*
X20008850Y-11860161D02*
X20008850Y-11869685D01*
X20008850Y-11869685D02*
X20056469Y-11879208D01*
X19975516Y-11845875D02*
X19951707Y-11912542D01*
X19951707Y-11912542D02*
X19927897Y-11845875D01*
X19818373Y-11807780D02*
X19904088Y-11936351D01*
X19785040Y-11912542D02*
X19785040Y-11812542D01*
X19785040Y-11850637D02*
X19775516Y-11845875D01*
X19775516Y-11845875D02*
X19756469Y-11845875D01*
X19756469Y-11845875D02*
X19746945Y-11850637D01*
X19746945Y-11850637D02*
X19742183Y-11855399D01*
X19742183Y-11855399D02*
X19737421Y-11864923D01*
X19737421Y-11864923D02*
X19737421Y-11893494D01*
X19737421Y-11893494D02*
X19742183Y-11903018D01*
X19742183Y-11903018D02*
X19746945Y-11907780D01*
X19746945Y-11907780D02*
X19756469Y-11912542D01*
X19756469Y-11912542D02*
X19775516Y-11912542D01*
X19775516Y-11912542D02*
X19785040Y-11907780D01*
X19680278Y-11912542D02*
X19689802Y-11907780D01*
X19689802Y-11907780D02*
X19694564Y-11898256D01*
X19694564Y-11898256D02*
X19694564Y-11812542D01*
X19627897Y-11912542D02*
X19637421Y-11907780D01*
X19637421Y-11907780D02*
X19642183Y-11903018D01*
X19642183Y-11903018D02*
X19646945Y-11893494D01*
X19646945Y-11893494D02*
X19646945Y-11864923D01*
X19646945Y-11864923D02*
X19642183Y-11855399D01*
X19642183Y-11855399D02*
X19637421Y-11850637D01*
X19637421Y-11850637D02*
X19627897Y-11845875D01*
X19627897Y-11845875D02*
X19613611Y-11845875D01*
X19613611Y-11845875D02*
X19604088Y-11850637D01*
X19604088Y-11850637D02*
X19599326Y-11855399D01*
X19599326Y-11855399D02*
X19594564Y-11864923D01*
X19594564Y-11864923D02*
X19594564Y-11893494D01*
X19594564Y-11893494D02*
X19599326Y-11903018D01*
X19599326Y-11903018D02*
X19604088Y-11907780D01*
X19604088Y-11907780D02*
X19613611Y-11912542D01*
X19613611Y-11912542D02*
X19627897Y-11912542D01*
X19508849Y-11845875D02*
X19508849Y-11926828D01*
X19508849Y-11926828D02*
X19513611Y-11936351D01*
X19513611Y-11936351D02*
X19518373Y-11941113D01*
X19518373Y-11941113D02*
X19527897Y-11945875D01*
X19527897Y-11945875D02*
X19542183Y-11945875D01*
X19542183Y-11945875D02*
X19551707Y-11941113D01*
X19508849Y-11907780D02*
X19518373Y-11912542D01*
X19518373Y-11912542D02*
X19537421Y-11912542D01*
X19537421Y-11912542D02*
X19546945Y-11907780D01*
X19546945Y-11907780D02*
X19551707Y-11903018D01*
X19551707Y-11903018D02*
X19556468Y-11893494D01*
X19556468Y-11893494D02*
X19556468Y-11864923D01*
X19556468Y-11864923D02*
X19551707Y-11855399D01*
X19551707Y-11855399D02*
X19546945Y-11850637D01*
X19546945Y-11850637D02*
X19537421Y-11845875D01*
X19537421Y-11845875D02*
X19518373Y-11845875D01*
X19518373Y-11845875D02*
X19508849Y-11850637D01*
X19446945Y-11903018D02*
X19442183Y-11907780D01*
X19442183Y-11907780D02*
X19446945Y-11912542D01*
X19446945Y-11912542D02*
X19451707Y-11907780D01*
X19451707Y-11907780D02*
X19446945Y-11903018D01*
X19446945Y-11903018D02*
X19446945Y-11912542D01*
X19465992Y-11817304D02*
X19456468Y-11812542D01*
X19456468Y-11812542D02*
X19432659Y-11812542D01*
X19432659Y-11812542D02*
X19423135Y-11817304D01*
X19423135Y-11817304D02*
X19418373Y-11826828D01*
X19418373Y-11826828D02*
X19418373Y-11836351D01*
X19418373Y-11836351D02*
X19423135Y-11845875D01*
X19423135Y-11845875D02*
X19427897Y-11850637D01*
X19427897Y-11850637D02*
X19437421Y-11855399D01*
X19437421Y-11855399D02*
X19442183Y-11860161D01*
X19442183Y-11860161D02*
X19446945Y-11869685D01*
X19446945Y-11869685D02*
X19446945Y-11874447D01*
X19332659Y-11907780D02*
X19342183Y-11912542D01*
X19342183Y-11912542D02*
X19361230Y-11912542D01*
X19361230Y-11912542D02*
X19370754Y-11907780D01*
X19370754Y-11907780D02*
X19375516Y-11903018D01*
X19375516Y-11903018D02*
X19380278Y-11893494D01*
X19380278Y-11893494D02*
X19380278Y-11864923D01*
X19380278Y-11864923D02*
X19375516Y-11855399D01*
X19375516Y-11855399D02*
X19370754Y-11850637D01*
X19370754Y-11850637D02*
X19361230Y-11845875D01*
X19361230Y-11845875D02*
X19342183Y-11845875D01*
X19342183Y-11845875D02*
X19332659Y-11850637D01*
X19246945Y-11912542D02*
X19246945Y-11860161D01*
X19246945Y-11860161D02*
X19251707Y-11850637D01*
X19251707Y-11850637D02*
X19261230Y-11845875D01*
X19261230Y-11845875D02*
X19280278Y-11845875D01*
X19280278Y-11845875D02*
X19289802Y-11850637D01*
X19246945Y-11907780D02*
X19256468Y-11912542D01*
X19256468Y-11912542D02*
X19280278Y-11912542D01*
X19280278Y-11912542D02*
X19289802Y-11907780D01*
X19289802Y-11907780D02*
X19294564Y-11898256D01*
X19294564Y-11898256D02*
X19294564Y-11888732D01*
X19294564Y-11888732D02*
X19289802Y-11879208D01*
X19289802Y-11879208D02*
X19280278Y-11874447D01*
X19280278Y-11874447D02*
X19256468Y-11874447D01*
X19256468Y-11874447D02*
X19246945Y-11869685D01*
X19213611Y-11845875D02*
X19175516Y-11845875D01*
X19199326Y-11812542D02*
X19199326Y-11898256D01*
X19199326Y-11898256D02*
X19194564Y-11907780D01*
X19194564Y-11907780D02*
X19185040Y-11912542D01*
X19185040Y-11912542D02*
X19175516Y-11912542D01*
X19104087Y-11907780D02*
X19113611Y-11912542D01*
X19113611Y-11912542D02*
X19132659Y-11912542D01*
X19132659Y-11912542D02*
X19142183Y-11907780D01*
X19142183Y-11907780D02*
X19146945Y-11898256D01*
X19146945Y-11898256D02*
X19146945Y-11860161D01*
X19146945Y-11860161D02*
X19142183Y-11850637D01*
X19142183Y-11850637D02*
X19132659Y-11845875D01*
X19132659Y-11845875D02*
X19113611Y-11845875D01*
X19113611Y-11845875D02*
X19104087Y-11850637D01*
X19104087Y-11850637D02*
X19099326Y-11860161D01*
X19099326Y-11860161D02*
X19099326Y-11869685D01*
X19099326Y-11869685D02*
X19146945Y-11879208D01*
X19013611Y-11845875D02*
X19013611Y-11926828D01*
X19013611Y-11926828D02*
X19018373Y-11936351D01*
X19018373Y-11936351D02*
X19023135Y-11941113D01*
X19023135Y-11941113D02*
X19032659Y-11945875D01*
X19032659Y-11945875D02*
X19046945Y-11945875D01*
X19046945Y-11945875D02*
X19056468Y-11941113D01*
X19013611Y-11907780D02*
X19023135Y-11912542D01*
X19023135Y-11912542D02*
X19042183Y-11912542D01*
X19042183Y-11912542D02*
X19051706Y-11907780D01*
X19051706Y-11907780D02*
X19056468Y-11903018D01*
X19056468Y-11903018D02*
X19061230Y-11893494D01*
X19061230Y-11893494D02*
X19061230Y-11864923D01*
X19061230Y-11864923D02*
X19056468Y-11855399D01*
X19056468Y-11855399D02*
X19051706Y-11850637D01*
X19051706Y-11850637D02*
X19042183Y-11845875D01*
X19042183Y-11845875D02*
X19023135Y-11845875D01*
X19023135Y-11845875D02*
X19013611Y-11850637D01*
X18951706Y-11912542D02*
X18961230Y-11907780D01*
X18961230Y-11907780D02*
X18965992Y-11903018D01*
X18965992Y-11903018D02*
X18970754Y-11893494D01*
X18970754Y-11893494D02*
X18970754Y-11864923D01*
X18970754Y-11864923D02*
X18965992Y-11855399D01*
X18965992Y-11855399D02*
X18961230Y-11850637D01*
X18961230Y-11850637D02*
X18951706Y-11845875D01*
X18951706Y-11845875D02*
X18937421Y-11845875D01*
X18937421Y-11845875D02*
X18927897Y-11850637D01*
X18927897Y-11850637D02*
X18923135Y-11855399D01*
X18923135Y-11855399D02*
X18918373Y-11864923D01*
X18918373Y-11864923D02*
X18918373Y-11893494D01*
X18918373Y-11893494D02*
X18923135Y-11903018D01*
X18923135Y-11903018D02*
X18927897Y-11907780D01*
X18927897Y-11907780D02*
X18937421Y-11912542D01*
X18937421Y-11912542D02*
X18951706Y-11912542D01*
X18875516Y-11912542D02*
X18875516Y-11845875D01*
X18875516Y-11864923D02*
X18870754Y-11855399D01*
X18870754Y-11855399D02*
X18865992Y-11850637D01*
X18865992Y-11850637D02*
X18856468Y-11845875D01*
X18856468Y-11845875D02*
X18846945Y-11845875D01*
X18823135Y-11845875D02*
X18799325Y-11912542D01*
X18775516Y-11845875D02*
X18799325Y-11912542D01*
X18799325Y-11912542D02*
X18808849Y-11936351D01*
X18808849Y-11936351D02*
X18813611Y-11941113D01*
X18813611Y-11941113D02*
X18823135Y-11945875D01*
X18737421Y-11860161D02*
X18661230Y-11860161D01*
X18661230Y-11888732D02*
X18737421Y-11888732D01*
X18613611Y-11912542D02*
X18613611Y-11845875D01*
X18613611Y-11855399D02*
X18608849Y-11850637D01*
X18608849Y-11850637D02*
X18599325Y-11845875D01*
X18599325Y-11845875D02*
X18585040Y-11845875D01*
X18585040Y-11845875D02*
X18575516Y-11850637D01*
X18575516Y-11850637D02*
X18570754Y-11860161D01*
X18570754Y-11860161D02*
X18570754Y-11912542D01*
X18570754Y-11860161D02*
X18565992Y-11850637D01*
X18565992Y-11850637D02*
X18556468Y-11845875D01*
X18556468Y-11845875D02*
X18542183Y-11845875D01*
X18542183Y-11845875D02*
X18532659Y-11850637D01*
X18532659Y-11850637D02*
X18527897Y-11860161D01*
X18527897Y-11860161D02*
X18527897Y-11912542D01*
X18437421Y-11912542D02*
X18437421Y-11860161D01*
X18437421Y-11860161D02*
X18442183Y-11850637D01*
X18442183Y-11850637D02*
X18451706Y-11845875D01*
X18451706Y-11845875D02*
X18470754Y-11845875D01*
X18470754Y-11845875D02*
X18480278Y-11850637D01*
X18437421Y-11907780D02*
X18446945Y-11912542D01*
X18446945Y-11912542D02*
X18470754Y-11912542D01*
X18470754Y-11912542D02*
X18480278Y-11907780D01*
X18480278Y-11907780D02*
X18485040Y-11898256D01*
X18485040Y-11898256D02*
X18485040Y-11888732D01*
X18485040Y-11888732D02*
X18480278Y-11879208D01*
X18480278Y-11879208D02*
X18470754Y-11874447D01*
X18470754Y-11874447D02*
X18446945Y-11874447D01*
X18446945Y-11874447D02*
X18437421Y-11869685D01*
X18389802Y-11912542D02*
X18389802Y-11812542D01*
X18380278Y-11874447D02*
X18351706Y-11912542D01*
X18351706Y-11845875D02*
X18389802Y-11883970D01*
X18270754Y-11907780D02*
X18280278Y-11912542D01*
X18280278Y-11912542D02*
X18299325Y-11912542D01*
X18299325Y-11912542D02*
X18308849Y-11907780D01*
X18308849Y-11907780D02*
X18313611Y-11898256D01*
X18313611Y-11898256D02*
X18313611Y-11860161D01*
X18313611Y-11860161D02*
X18308849Y-11850637D01*
X18308849Y-11850637D02*
X18299325Y-11845875D01*
X18299325Y-11845875D02*
X18280278Y-11845875D01*
X18280278Y-11845875D02*
X18270754Y-11850637D01*
X18270754Y-11850637D02*
X18265992Y-11860161D01*
X18265992Y-11860161D02*
X18265992Y-11869685D01*
X18265992Y-11869685D02*
X18313611Y-11879208D01*
X13085535Y-10098042D02*
X13023631Y-10098042D01*
X13023631Y-10098042D02*
X13056964Y-10136137D01*
X13056964Y-10136137D02*
X13042678Y-10136137D01*
X13042678Y-10136137D02*
X13033154Y-10140899D01*
X13033154Y-10140899D02*
X13028392Y-10145661D01*
X13028392Y-10145661D02*
X13023631Y-10155185D01*
X13023631Y-10155185D02*
X13023631Y-10178994D01*
X13023631Y-10178994D02*
X13028392Y-10188518D01*
X13028392Y-10188518D02*
X13033154Y-10193280D01*
X13033154Y-10193280D02*
X13042678Y-10198042D01*
X13042678Y-10198042D02*
X13071250Y-10198042D01*
X13071250Y-10198042D02*
X13080773Y-10193280D01*
X13080773Y-10193280D02*
X13085535Y-10188518D01*
X12995059Y-10098042D02*
X12961726Y-10198042D01*
X12961726Y-10198042D02*
X12928392Y-10098042D01*
X12904583Y-10098042D02*
X12842678Y-10098042D01*
X12842678Y-10098042D02*
X12876011Y-10136137D01*
X12876011Y-10136137D02*
X12861726Y-10136137D01*
X12861726Y-10136137D02*
X12852202Y-10140899D01*
X12852202Y-10140899D02*
X12847440Y-10145661D01*
X12847440Y-10145661D02*
X12842678Y-10155185D01*
X12842678Y-10155185D02*
X12842678Y-10178994D01*
X12842678Y-10178994D02*
X12847440Y-10188518D01*
X12847440Y-10188518D02*
X12852202Y-10193280D01*
X12852202Y-10193280D02*
X12861726Y-10198042D01*
X12861726Y-10198042D02*
X12890297Y-10198042D01*
X12890297Y-10198042D02*
X12899821Y-10193280D01*
X12899821Y-10193280D02*
X12904583Y-10188518D01*
X15106431Y-10077404D02*
X15115954Y-10072642D01*
X15115954Y-10072642D02*
X15130240Y-10072642D01*
X15130240Y-10072642D02*
X15144526Y-10077404D01*
X15144526Y-10077404D02*
X15154050Y-10086928D01*
X15154050Y-10086928D02*
X15158811Y-10096451D01*
X15158811Y-10096451D02*
X15163573Y-10115499D01*
X15163573Y-10115499D02*
X15163573Y-10129785D01*
X15163573Y-10129785D02*
X15158811Y-10148832D01*
X15158811Y-10148832D02*
X15154050Y-10158356D01*
X15154050Y-10158356D02*
X15144526Y-10167880D01*
X15144526Y-10167880D02*
X15130240Y-10172642D01*
X15130240Y-10172642D02*
X15120716Y-10172642D01*
X15120716Y-10172642D02*
X15106431Y-10167880D01*
X15106431Y-10167880D02*
X15101669Y-10163118D01*
X15101669Y-10163118D02*
X15101669Y-10129785D01*
X15101669Y-10129785D02*
X15120716Y-10129785D01*
X15058811Y-10172642D02*
X15058811Y-10072642D01*
X15058811Y-10072642D02*
X15001669Y-10172642D01*
X15001669Y-10172642D02*
X15001669Y-10072642D01*
X14954050Y-10172642D02*
X14954050Y-10072642D01*
X14954050Y-10072642D02*
X14930240Y-10072642D01*
X14930240Y-10072642D02*
X14915954Y-10077404D01*
X14915954Y-10077404D02*
X14906431Y-10086928D01*
X14906431Y-10086928D02*
X14901669Y-10096451D01*
X14901669Y-10096451D02*
X14896907Y-10115499D01*
X14896907Y-10115499D02*
X14896907Y-10129785D01*
X14896907Y-10129785D02*
X14901669Y-10148832D01*
X14901669Y-10148832D02*
X14906431Y-10158356D01*
X14906431Y-10158356D02*
X14915954Y-10167880D01*
X14915954Y-10167880D02*
X14930240Y-10172642D01*
X14930240Y-10172642D02*
X14954050Y-10172642D01*
D12*
X15008981Y-11674748D02*
X15008981Y-11726153D01*
X15008981Y-11726153D02*
X15005957Y-11732200D01*
X15005957Y-11732200D02*
X15002933Y-11735224D01*
X15002933Y-11735224D02*
X14996886Y-11738248D01*
X14996886Y-11738248D02*
X14984790Y-11738248D01*
X14984790Y-11738248D02*
X14978743Y-11735224D01*
X14978743Y-11735224D02*
X14975719Y-11732200D01*
X14975719Y-11732200D02*
X14972695Y-11726153D01*
X14972695Y-11726153D02*
X14972695Y-11674748D01*
X14909195Y-11738248D02*
X14945481Y-11738248D01*
X14927338Y-11738248D02*
X14927338Y-11674748D01*
X14927338Y-11674748D02*
X14933386Y-11683819D01*
X14933386Y-11683819D02*
X14939433Y-11689867D01*
X14939433Y-11689867D02*
X14945481Y-11692891D01*
X15018959Y-11776348D02*
X14976626Y-11839848D01*
X14976626Y-11776348D02*
X15018959Y-11839848D01*
X14952436Y-11839848D02*
X14952436Y-11776348D01*
X14925221Y-11821705D02*
X14894983Y-11821705D01*
X14931269Y-11839848D02*
X14910102Y-11776348D01*
X14910102Y-11776348D02*
X14888936Y-11839848D01*
X14855674Y-11776348D02*
X14843578Y-11776348D01*
X14843578Y-11776348D02*
X14837531Y-11779372D01*
X14837531Y-11779372D02*
X14831483Y-11785419D01*
X14831483Y-11785419D02*
X14828459Y-11797514D01*
X14828459Y-11797514D02*
X14828459Y-11818681D01*
X14828459Y-11818681D02*
X14831483Y-11830776D01*
X14831483Y-11830776D02*
X14837531Y-11836824D01*
X14837531Y-11836824D02*
X14843578Y-11839848D01*
X14843578Y-11839848D02*
X14855674Y-11839848D01*
X14855674Y-11839848D02*
X14861721Y-11836824D01*
X14861721Y-11836824D02*
X14867769Y-11830776D01*
X14867769Y-11830776D02*
X14870793Y-11818681D01*
X14870793Y-11818681D02*
X14870793Y-11797514D01*
X14870793Y-11797514D02*
X14867769Y-11785419D01*
X14867769Y-11785419D02*
X14861721Y-11779372D01*
X14861721Y-11779372D02*
X14855674Y-11776348D01*
X14801245Y-11815657D02*
X14752864Y-11815657D01*
X14722626Y-11806586D02*
X14701459Y-11806586D01*
X14692388Y-11839848D02*
X14722626Y-11839848D01*
X14722626Y-11839848D02*
X14722626Y-11776348D01*
X14722626Y-11776348D02*
X14692388Y-11776348D01*
X14668197Y-11836824D02*
X14659126Y-11839848D01*
X14659126Y-11839848D02*
X14644007Y-11839848D01*
X14644007Y-11839848D02*
X14637959Y-11836824D01*
X14637959Y-11836824D02*
X14634936Y-11833800D01*
X14634936Y-11833800D02*
X14631912Y-11827753D01*
X14631912Y-11827753D02*
X14631912Y-11821705D01*
X14631912Y-11821705D02*
X14634936Y-11815657D01*
X14634936Y-11815657D02*
X14637959Y-11812634D01*
X14637959Y-11812634D02*
X14644007Y-11809610D01*
X14644007Y-11809610D02*
X14656102Y-11806586D01*
X14656102Y-11806586D02*
X14662150Y-11803562D01*
X14662150Y-11803562D02*
X14665174Y-11800538D01*
X14665174Y-11800538D02*
X14668197Y-11794491D01*
X14668197Y-11794491D02*
X14668197Y-11788443D01*
X14668197Y-11788443D02*
X14665174Y-11782395D01*
X14665174Y-11782395D02*
X14662150Y-11779372D01*
X14662150Y-11779372D02*
X14656102Y-11776348D01*
X14656102Y-11776348D02*
X14640983Y-11776348D01*
X14640983Y-11776348D02*
X14631912Y-11779372D01*
X14604697Y-11839848D02*
X14604697Y-11776348D01*
X14604697Y-11776348D02*
X14580507Y-11776348D01*
X14580507Y-11776348D02*
X14574459Y-11779372D01*
X14574459Y-11779372D02*
X14571436Y-11782395D01*
X14571436Y-11782395D02*
X14568412Y-11788443D01*
X14568412Y-11788443D02*
X14568412Y-11797514D01*
X14568412Y-11797514D02*
X14571436Y-11803562D01*
X14571436Y-11803562D02*
X14574459Y-11806586D01*
X14574459Y-11806586D02*
X14580507Y-11809610D01*
X14580507Y-11809610D02*
X14604697Y-11809610D01*
X14547245Y-11776348D02*
X14507936Y-11776348D01*
X14507936Y-11776348D02*
X14529102Y-11800538D01*
X14529102Y-11800538D02*
X14520031Y-11800538D01*
X14520031Y-11800538D02*
X14513983Y-11803562D01*
X14513983Y-11803562D02*
X14510959Y-11806586D01*
X14510959Y-11806586D02*
X14507936Y-11812634D01*
X14507936Y-11812634D02*
X14507936Y-11827753D01*
X14507936Y-11827753D02*
X14510959Y-11833800D01*
X14510959Y-11833800D02*
X14513983Y-11836824D01*
X14513983Y-11836824D02*
X14520031Y-11839848D01*
X14520031Y-11839848D02*
X14538174Y-11839848D01*
X14538174Y-11839848D02*
X14544221Y-11836824D01*
X14544221Y-11836824D02*
X14547245Y-11833800D01*
X14483745Y-11782395D02*
X14480721Y-11779372D01*
X14480721Y-11779372D02*
X14474674Y-11776348D01*
X14474674Y-11776348D02*
X14459555Y-11776348D01*
X14459555Y-11776348D02*
X14453507Y-11779372D01*
X14453507Y-11779372D02*
X14450483Y-11782395D01*
X14450483Y-11782395D02*
X14447459Y-11788443D01*
X14447459Y-11788443D02*
X14447459Y-11794491D01*
X14447459Y-11794491D02*
X14450483Y-11803562D01*
X14450483Y-11803562D02*
X14486769Y-11839848D01*
X14486769Y-11839848D02*
X14447459Y-11839848D01*
X14420245Y-11815657D02*
X14371864Y-11815657D01*
X14305340Y-11833800D02*
X14308364Y-11836824D01*
X14308364Y-11836824D02*
X14317436Y-11839848D01*
X14317436Y-11839848D02*
X14323483Y-11839848D01*
X14323483Y-11839848D02*
X14332555Y-11836824D01*
X14332555Y-11836824D02*
X14338602Y-11830776D01*
X14338602Y-11830776D02*
X14341626Y-11824729D01*
X14341626Y-11824729D02*
X14344650Y-11812634D01*
X14344650Y-11812634D02*
X14344650Y-11803562D01*
X14344650Y-11803562D02*
X14341626Y-11791467D01*
X14341626Y-11791467D02*
X14338602Y-11785419D01*
X14338602Y-11785419D02*
X14332555Y-11779372D01*
X14332555Y-11779372D02*
X14323483Y-11776348D01*
X14323483Y-11776348D02*
X14317436Y-11776348D01*
X14317436Y-11776348D02*
X14308364Y-11779372D01*
X14308364Y-11779372D02*
X14305340Y-11782395D01*
X14250912Y-11776348D02*
X14263007Y-11776348D01*
X14263007Y-11776348D02*
X14269055Y-11779372D01*
X14269055Y-11779372D02*
X14272078Y-11782395D01*
X14272078Y-11782395D02*
X14278126Y-11791467D01*
X14278126Y-11791467D02*
X14281150Y-11803562D01*
X14281150Y-11803562D02*
X14281150Y-11827753D01*
X14281150Y-11827753D02*
X14278126Y-11833800D01*
X14278126Y-11833800D02*
X14275102Y-11836824D01*
X14275102Y-11836824D02*
X14269055Y-11839848D01*
X14269055Y-11839848D02*
X14256959Y-11839848D01*
X14256959Y-11839848D02*
X14250912Y-11836824D01*
X14250912Y-11836824D02*
X14247888Y-11833800D01*
X14247888Y-11833800D02*
X14244864Y-11827753D01*
X14244864Y-11827753D02*
X14244864Y-11812634D01*
X14244864Y-11812634D02*
X14247888Y-11806586D01*
X14247888Y-11806586D02*
X14250912Y-11803562D01*
X14250912Y-11803562D02*
X14256959Y-11800538D01*
X14256959Y-11800538D02*
X14269055Y-11800538D01*
X14269055Y-11800538D02*
X14275102Y-11803562D01*
X14275102Y-11803562D02*
X14278126Y-11806586D01*
X14278126Y-11806586D02*
X14281150Y-11812634D01*
D13*
X11884809Y-11170682D02*
X11884809Y-11070682D01*
X11884809Y-11070682D02*
X11861000Y-11070682D01*
X11861000Y-11070682D02*
X11846714Y-11075444D01*
X11846714Y-11075444D02*
X11837190Y-11084968D01*
X11837190Y-11084968D02*
X11832428Y-11094491D01*
X11832428Y-11094491D02*
X11827667Y-11113539D01*
X11827667Y-11113539D02*
X11827667Y-11127825D01*
X11827667Y-11127825D02*
X11832428Y-11146872D01*
X11832428Y-11146872D02*
X11837190Y-11156396D01*
X11837190Y-11156396D02*
X11846714Y-11165920D01*
X11846714Y-11165920D02*
X11861000Y-11170682D01*
X11861000Y-11170682D02*
X11884809Y-11170682D01*
X11741952Y-11104015D02*
X11741952Y-11170682D01*
X11765762Y-11065920D02*
X11789571Y-11137349D01*
X11789571Y-11137349D02*
X11727667Y-11137349D01*
X12382155Y-10987682D02*
X12382155Y-10887682D01*
X12382155Y-10887682D02*
X12358345Y-10887682D01*
X12358345Y-10887682D02*
X12344059Y-10892444D01*
X12344059Y-10892444D02*
X12334536Y-10901968D01*
X12334536Y-10901968D02*
X12329774Y-10911491D01*
X12329774Y-10911491D02*
X12325012Y-10930539D01*
X12325012Y-10930539D02*
X12325012Y-10944825D01*
X12325012Y-10944825D02*
X12329774Y-10963872D01*
X12329774Y-10963872D02*
X12334536Y-10973396D01*
X12334536Y-10973396D02*
X12344059Y-10982920D01*
X12344059Y-10982920D02*
X12358345Y-10987682D01*
X12358345Y-10987682D02*
X12382155Y-10987682D01*
X12244059Y-10982920D02*
X12253583Y-10987682D01*
X12253583Y-10987682D02*
X12272631Y-10987682D01*
X12272631Y-10987682D02*
X12282155Y-10982920D01*
X12282155Y-10982920D02*
X12286917Y-10973396D01*
X12286917Y-10973396D02*
X12286917Y-10935301D01*
X12286917Y-10935301D02*
X12282155Y-10925777D01*
X12282155Y-10925777D02*
X12272631Y-10921015D01*
X12272631Y-10921015D02*
X12253583Y-10921015D01*
X12253583Y-10921015D02*
X12244059Y-10925777D01*
X12244059Y-10925777D02*
X12239298Y-10935301D01*
X12239298Y-10935301D02*
X12239298Y-10944825D01*
X12239298Y-10944825D02*
X12286917Y-10954349D01*
X12210726Y-10921015D02*
X12172631Y-10921015D01*
X12196440Y-10887682D02*
X12196440Y-10973396D01*
X12196440Y-10973396D02*
X12191678Y-10982920D01*
X12191678Y-10982920D02*
X12182155Y-10987682D01*
X12182155Y-10987682D02*
X12172631Y-10987682D01*
X12101202Y-10982920D02*
X12110726Y-10987682D01*
X12110726Y-10987682D02*
X12129774Y-10987682D01*
X12129774Y-10987682D02*
X12139297Y-10982920D01*
X12139297Y-10982920D02*
X12144059Y-10973396D01*
X12144059Y-10973396D02*
X12144059Y-10935301D01*
X12144059Y-10935301D02*
X12139297Y-10925777D01*
X12139297Y-10925777D02*
X12129774Y-10921015D01*
X12129774Y-10921015D02*
X12110726Y-10921015D01*
X12110726Y-10921015D02*
X12101202Y-10925777D01*
X12101202Y-10925777D02*
X12096440Y-10935301D01*
X12096440Y-10935301D02*
X12096440Y-10944825D01*
X12096440Y-10944825D02*
X12144059Y-10954349D01*
X12010726Y-10982920D02*
X12020250Y-10987682D01*
X12020250Y-10987682D02*
X12039297Y-10987682D01*
X12039297Y-10987682D02*
X12048821Y-10982920D01*
X12048821Y-10982920D02*
X12053583Y-10978158D01*
X12053583Y-10978158D02*
X12058345Y-10968634D01*
X12058345Y-10968634D02*
X12058345Y-10940063D01*
X12058345Y-10940063D02*
X12053583Y-10930539D01*
X12053583Y-10930539D02*
X12048821Y-10925777D01*
X12048821Y-10925777D02*
X12039297Y-10921015D01*
X12039297Y-10921015D02*
X12020250Y-10921015D01*
X12020250Y-10921015D02*
X12010726Y-10925777D01*
X11982155Y-10921015D02*
X11944059Y-10921015D01*
X11967869Y-10887682D02*
X11967869Y-10973396D01*
X11967869Y-10973396D02*
X11963107Y-10982920D01*
X11963107Y-10982920D02*
X11953583Y-10987682D01*
X11953583Y-10987682D02*
X11944059Y-10987682D01*
X11884809Y-11551682D02*
X11884809Y-11451682D01*
X11884809Y-11451682D02*
X11861000Y-11451682D01*
X11861000Y-11451682D02*
X11846714Y-11456444D01*
X11846714Y-11456444D02*
X11837190Y-11465968D01*
X11837190Y-11465968D02*
X11832428Y-11475491D01*
X11832428Y-11475491D02*
X11827667Y-11494539D01*
X11827667Y-11494539D02*
X11827667Y-11508825D01*
X11827667Y-11508825D02*
X11832428Y-11527872D01*
X11832428Y-11527872D02*
X11837190Y-11537396D01*
X11837190Y-11537396D02*
X11846714Y-11546920D01*
X11846714Y-11546920D02*
X11861000Y-11551682D01*
X11861000Y-11551682D02*
X11884809Y-11551682D01*
X11789571Y-11461206D02*
X11784809Y-11456444D01*
X11784809Y-11456444D02*
X11775286Y-11451682D01*
X11775286Y-11451682D02*
X11751476Y-11451682D01*
X11751476Y-11451682D02*
X11741952Y-11456444D01*
X11741952Y-11456444D02*
X11737190Y-11461206D01*
X11737190Y-11461206D02*
X11732428Y-11470729D01*
X11732428Y-11470729D02*
X11732428Y-11480253D01*
X11732428Y-11480253D02*
X11737190Y-11494539D01*
X11737190Y-11494539D02*
X11794333Y-11551682D01*
X11794333Y-11551682D02*
X11732428Y-11551682D01*
X12267869Y-11368682D02*
X12315488Y-11368682D01*
X12315488Y-11368682D02*
X12315488Y-11268682D01*
X12220250Y-11368682D02*
X12229774Y-11363920D01*
X12229774Y-11363920D02*
X12234536Y-11359158D01*
X12234536Y-11359158D02*
X12239297Y-11349634D01*
X12239297Y-11349634D02*
X12239297Y-11321063D01*
X12239297Y-11321063D02*
X12234536Y-11311539D01*
X12234536Y-11311539D02*
X12229774Y-11306777D01*
X12229774Y-11306777D02*
X12220250Y-11302015D01*
X12220250Y-11302015D02*
X12205964Y-11302015D01*
X12205964Y-11302015D02*
X12196440Y-11306777D01*
X12196440Y-11306777D02*
X12191678Y-11311539D01*
X12191678Y-11311539D02*
X12186917Y-11321063D01*
X12186917Y-11321063D02*
X12186917Y-11349634D01*
X12186917Y-11349634D02*
X12191678Y-11359158D01*
X12191678Y-11359158D02*
X12196440Y-11363920D01*
X12196440Y-11363920D02*
X12205964Y-11368682D01*
X12205964Y-11368682D02*
X12220250Y-11368682D01*
X12101202Y-11363920D02*
X12110726Y-11368682D01*
X12110726Y-11368682D02*
X12129774Y-11368682D01*
X12129774Y-11368682D02*
X12139297Y-11363920D01*
X12139297Y-11363920D02*
X12144059Y-11359158D01*
X12144059Y-11359158D02*
X12148821Y-11349634D01*
X12148821Y-11349634D02*
X12148821Y-11321063D01*
X12148821Y-11321063D02*
X12144059Y-11311539D01*
X12144059Y-11311539D02*
X12139297Y-11306777D01*
X12139297Y-11306777D02*
X12129774Y-11302015D01*
X12129774Y-11302015D02*
X12110726Y-11302015D01*
X12110726Y-11302015D02*
X12101202Y-11306777D01*
X12058345Y-11368682D02*
X12058345Y-11268682D01*
X12048821Y-11330587D02*
X12020250Y-11368682D01*
X12020250Y-11302015D02*
X12058345Y-11340110D01*
X13123067Y-11932682D02*
X13156400Y-11885063D01*
X13180209Y-11932682D02*
X13180209Y-11832682D01*
X13180209Y-11832682D02*
X13142114Y-11832682D01*
X13142114Y-11832682D02*
X13132590Y-11837444D01*
X13132590Y-11837444D02*
X13127828Y-11842206D01*
X13127828Y-11842206D02*
X13123067Y-11851729D01*
X13123067Y-11851729D02*
X13123067Y-11866015D01*
X13123067Y-11866015D02*
X13127828Y-11875539D01*
X13127828Y-11875539D02*
X13132590Y-11880301D01*
X13132590Y-11880301D02*
X13142114Y-11885063D01*
X13142114Y-11885063D02*
X13180209Y-11885063D01*
X13089733Y-11832682D02*
X13027828Y-11832682D01*
X13027828Y-11832682D02*
X13061162Y-11870777D01*
X13061162Y-11870777D02*
X13046876Y-11870777D01*
X13046876Y-11870777D02*
X13037352Y-11875539D01*
X13037352Y-11875539D02*
X13032590Y-11880301D01*
X13032590Y-11880301D02*
X13027828Y-11889825D01*
X13027828Y-11889825D02*
X13027828Y-11913634D01*
X13027828Y-11913634D02*
X13032590Y-11923158D01*
X13032590Y-11923158D02*
X13037352Y-11927920D01*
X13037352Y-11927920D02*
X13046876Y-11932682D01*
X13046876Y-11932682D02*
X13075447Y-11932682D01*
X13075447Y-11932682D02*
X13084971Y-11927920D01*
X13084971Y-11927920D02*
X13089733Y-11923158D01*
X11884809Y-11932682D02*
X11884809Y-11832682D01*
X11884809Y-11832682D02*
X11861000Y-11832682D01*
X11861000Y-11832682D02*
X11846714Y-11837444D01*
X11846714Y-11837444D02*
X11837190Y-11846968D01*
X11837190Y-11846968D02*
X11832428Y-11856491D01*
X11832428Y-11856491D02*
X11827667Y-11875539D01*
X11827667Y-11875539D02*
X11827667Y-11889825D01*
X11827667Y-11889825D02*
X11832428Y-11908872D01*
X11832428Y-11908872D02*
X11837190Y-11918396D01*
X11837190Y-11918396D02*
X11846714Y-11927920D01*
X11846714Y-11927920D02*
X11861000Y-11932682D01*
X11861000Y-11932682D02*
X11884809Y-11932682D01*
X11794333Y-11832682D02*
X11732428Y-11832682D01*
X11732428Y-11832682D02*
X11765762Y-11870777D01*
X11765762Y-11870777D02*
X11751476Y-11870777D01*
X11751476Y-11870777D02*
X11741952Y-11875539D01*
X11741952Y-11875539D02*
X11737190Y-11880301D01*
X11737190Y-11880301D02*
X11732428Y-11889825D01*
X11732428Y-11889825D02*
X11732428Y-11913634D01*
X11732428Y-11913634D02*
X11737190Y-11923158D01*
X11737190Y-11923158D02*
X11741952Y-11927920D01*
X11741952Y-11927920D02*
X11751476Y-11932682D01*
X11751476Y-11932682D02*
X11780047Y-11932682D01*
X11780047Y-11932682D02*
X11789571Y-11927920D01*
X11789571Y-11927920D02*
X11794333Y-11923158D01*
X12291679Y-11749682D02*
X12325012Y-11702063D01*
X12348821Y-11749682D02*
X12348821Y-11649682D01*
X12348821Y-11649682D02*
X12310726Y-11649682D01*
X12310726Y-11649682D02*
X12301202Y-11654444D01*
X12301202Y-11654444D02*
X12296440Y-11659206D01*
X12296440Y-11659206D02*
X12291679Y-11668729D01*
X12291679Y-11668729D02*
X12291679Y-11683015D01*
X12291679Y-11683015D02*
X12296440Y-11692539D01*
X12296440Y-11692539D02*
X12301202Y-11697301D01*
X12301202Y-11697301D02*
X12310726Y-11702063D01*
X12310726Y-11702063D02*
X12348821Y-11702063D01*
X12210726Y-11744920D02*
X12220250Y-11749682D01*
X12220250Y-11749682D02*
X12239298Y-11749682D01*
X12239298Y-11749682D02*
X12248821Y-11744920D01*
X12248821Y-11744920D02*
X12253583Y-11735396D01*
X12253583Y-11735396D02*
X12253583Y-11697301D01*
X12253583Y-11697301D02*
X12248821Y-11687777D01*
X12248821Y-11687777D02*
X12239298Y-11683015D01*
X12239298Y-11683015D02*
X12220250Y-11683015D01*
X12220250Y-11683015D02*
X12210726Y-11687777D01*
X12210726Y-11687777D02*
X12205964Y-11697301D01*
X12205964Y-11697301D02*
X12205964Y-11706825D01*
X12205964Y-11706825D02*
X12253583Y-11716348D01*
X12148821Y-11749682D02*
X12158345Y-11744920D01*
X12158345Y-11744920D02*
X12163107Y-11735396D01*
X12163107Y-11735396D02*
X12163107Y-11649682D01*
X12067869Y-11749682D02*
X12067869Y-11697301D01*
X12067869Y-11697301D02*
X12072631Y-11687777D01*
X12072631Y-11687777D02*
X12082155Y-11683015D01*
X12082155Y-11683015D02*
X12101202Y-11683015D01*
X12101202Y-11683015D02*
X12110726Y-11687777D01*
X12067869Y-11744920D02*
X12077393Y-11749682D01*
X12077393Y-11749682D02*
X12101202Y-11749682D01*
X12101202Y-11749682D02*
X12110726Y-11744920D01*
X12110726Y-11744920D02*
X12115488Y-11735396D01*
X12115488Y-11735396D02*
X12115488Y-11725872D01*
X12115488Y-11725872D02*
X12110726Y-11716348D01*
X12110726Y-11716348D02*
X12101202Y-11711587D01*
X12101202Y-11711587D02*
X12077393Y-11711587D01*
X12077393Y-11711587D02*
X12067869Y-11706825D01*
X12029774Y-11683015D02*
X12005964Y-11749682D01*
X11982155Y-11683015D02*
X12005964Y-11749682D01*
X12005964Y-11749682D02*
X12015488Y-11773491D01*
X12015488Y-11773491D02*
X12020250Y-11778253D01*
X12020250Y-11778253D02*
X12029774Y-11783015D01*
X10585217Y-10713758D02*
X10589979Y-10718520D01*
X10589979Y-10718520D02*
X10604264Y-10723282D01*
X10604264Y-10723282D02*
X10613788Y-10723282D01*
X10613788Y-10723282D02*
X10628074Y-10718520D01*
X10628074Y-10718520D02*
X10637598Y-10708996D01*
X10637598Y-10708996D02*
X10642359Y-10699472D01*
X10642359Y-10699472D02*
X10647121Y-10680425D01*
X10647121Y-10680425D02*
X10647121Y-10666139D01*
X10647121Y-10666139D02*
X10642359Y-10647091D01*
X10642359Y-10647091D02*
X10637598Y-10637568D01*
X10637598Y-10637568D02*
X10628074Y-10628044D01*
X10628074Y-10628044D02*
X10613788Y-10623282D01*
X10613788Y-10623282D02*
X10604264Y-10623282D01*
X10604264Y-10623282D02*
X10589979Y-10628044D01*
X10589979Y-10628044D02*
X10585217Y-10632806D01*
X10489979Y-10723282D02*
X10547121Y-10723282D01*
X10518550Y-10723282D02*
X10518550Y-10623282D01*
X10518550Y-10623282D02*
X10528074Y-10637568D01*
X10528074Y-10637568D02*
X10537598Y-10647091D01*
X10537598Y-10647091D02*
X10547121Y-10651853D01*
X12970667Y-12669282D02*
X13004000Y-12621663D01*
X13027809Y-12669282D02*
X13027809Y-12569282D01*
X13027809Y-12569282D02*
X12989714Y-12569282D01*
X12989714Y-12569282D02*
X12980190Y-12574044D01*
X12980190Y-12574044D02*
X12975428Y-12578806D01*
X12975428Y-12578806D02*
X12970667Y-12588329D01*
X12970667Y-12588329D02*
X12970667Y-12602615D01*
X12970667Y-12602615D02*
X12975428Y-12612139D01*
X12975428Y-12612139D02*
X12980190Y-12616901D01*
X12980190Y-12616901D02*
X12989714Y-12621663D01*
X12989714Y-12621663D02*
X13027809Y-12621663D01*
X12932571Y-12578806D02*
X12927809Y-12574044D01*
X12927809Y-12574044D02*
X12918286Y-12569282D01*
X12918286Y-12569282D02*
X12894476Y-12569282D01*
X12894476Y-12569282D02*
X12884952Y-12574044D01*
X12884952Y-12574044D02*
X12880190Y-12578806D01*
X12880190Y-12578806D02*
X12875428Y-12588329D01*
X12875428Y-12588329D02*
X12875428Y-12597853D01*
X12875428Y-12597853D02*
X12880190Y-12612139D01*
X12880190Y-12612139D02*
X12937333Y-12669282D01*
X12937333Y-12669282D02*
X12875428Y-12669282D01*
X12970667Y-12288282D02*
X13004000Y-12240663D01*
X13027809Y-12288282D02*
X13027809Y-12188282D01*
X13027809Y-12188282D02*
X12989714Y-12188282D01*
X12989714Y-12188282D02*
X12980190Y-12193044D01*
X12980190Y-12193044D02*
X12975428Y-12197806D01*
X12975428Y-12197806D02*
X12970667Y-12207329D01*
X12970667Y-12207329D02*
X12970667Y-12221615D01*
X12970667Y-12221615D02*
X12975428Y-12231139D01*
X12975428Y-12231139D02*
X12980190Y-12235901D01*
X12980190Y-12235901D02*
X12989714Y-12240663D01*
X12989714Y-12240663D02*
X13027809Y-12240663D01*
X12875428Y-12288282D02*
X12932571Y-12288282D01*
X12904000Y-12288282D02*
X12904000Y-12188282D01*
X12904000Y-12188282D02*
X12913524Y-12202568D01*
X12913524Y-12202568D02*
X12923047Y-12212091D01*
X12923047Y-12212091D02*
X12932571Y-12216853D01*
X11368990Y-11495282D02*
X11368990Y-11576234D01*
X11368990Y-11576234D02*
X11364228Y-11585758D01*
X11364228Y-11585758D02*
X11359467Y-11590520D01*
X11359467Y-11590520D02*
X11349943Y-11595282D01*
X11349943Y-11595282D02*
X11330895Y-11595282D01*
X11330895Y-11595282D02*
X11321371Y-11590520D01*
X11321371Y-11590520D02*
X11316609Y-11585758D01*
X11316609Y-11585758D02*
X11311848Y-11576234D01*
X11311848Y-11576234D02*
X11311848Y-11495282D01*
X11268990Y-11504806D02*
X11264228Y-11500044D01*
X11264228Y-11500044D02*
X11254705Y-11495282D01*
X11254705Y-11495282D02*
X11230895Y-11495282D01*
X11230895Y-11495282D02*
X11221371Y-11500044D01*
X11221371Y-11500044D02*
X11216609Y-11504806D01*
X11216609Y-11504806D02*
X11211848Y-11514329D01*
X11211848Y-11514329D02*
X11211848Y-11523853D01*
X11211848Y-11523853D02*
X11216609Y-11538139D01*
X11216609Y-11538139D02*
X11273752Y-11595282D01*
X11273752Y-11595282D02*
X11211848Y-11595282D01*
X13123067Y-11551682D02*
X13156400Y-11504063D01*
X13180209Y-11551682D02*
X13180209Y-11451682D01*
X13180209Y-11451682D02*
X13142114Y-11451682D01*
X13142114Y-11451682D02*
X13132590Y-11456444D01*
X13132590Y-11456444D02*
X13127828Y-11461206D01*
X13127828Y-11461206D02*
X13123067Y-11470729D01*
X13123067Y-11470729D02*
X13123067Y-11485015D01*
X13123067Y-11485015D02*
X13127828Y-11494539D01*
X13127828Y-11494539D02*
X13132590Y-11499301D01*
X13132590Y-11499301D02*
X13142114Y-11504063D01*
X13142114Y-11504063D02*
X13180209Y-11504063D01*
X13037352Y-11485015D02*
X13037352Y-11551682D01*
X13061162Y-11446920D02*
X13084971Y-11518348D01*
X13084971Y-11518348D02*
X13023067Y-11518348D01*
X9465559Y-11761032D02*
X9465559Y-11661032D01*
X9408417Y-11761032D02*
X9451274Y-11703889D01*
X9408417Y-11661032D02*
X9465559Y-11718175D01*
X9313179Y-11761032D02*
X9370321Y-11761032D01*
X9341750Y-11761032D02*
X9341750Y-11661032D01*
X9341750Y-11661032D02*
X9351274Y-11675318D01*
X9351274Y-11675318D02*
X9360798Y-11684841D01*
X9360798Y-11684841D02*
X9370321Y-11689603D01*
X13123067Y-11170682D02*
X13156400Y-11123063D01*
X13180209Y-11170682D02*
X13180209Y-11070682D01*
X13180209Y-11070682D02*
X13142114Y-11070682D01*
X13142114Y-11070682D02*
X13132590Y-11075444D01*
X13132590Y-11075444D02*
X13127828Y-11080206D01*
X13127828Y-11080206D02*
X13123067Y-11089730D01*
X13123067Y-11089730D02*
X13123067Y-11104015D01*
X13123067Y-11104015D02*
X13127828Y-11113539D01*
X13127828Y-11113539D02*
X13132590Y-11118301D01*
X13132590Y-11118301D02*
X13142114Y-11123063D01*
X13142114Y-11123063D02*
X13180209Y-11123063D01*
X13032590Y-11070682D02*
X13080209Y-11070682D01*
X13080209Y-11070682D02*
X13084971Y-11118301D01*
X13084971Y-11118301D02*
X13080209Y-11113539D01*
X13080209Y-11113539D02*
X13070686Y-11108777D01*
X13070686Y-11108777D02*
X13046876Y-11108777D01*
X13046876Y-11108777D02*
X13037352Y-11113539D01*
X13037352Y-11113539D02*
X13032590Y-11118301D01*
X13032590Y-11118301D02*
X13027828Y-11127825D01*
X13027828Y-11127825D02*
X13027828Y-11151634D01*
X13027828Y-11151634D02*
X13032590Y-11161158D01*
X13032590Y-11161158D02*
X13037352Y-11165920D01*
X13037352Y-11165920D02*
X13046876Y-11170682D01*
X13046876Y-11170682D02*
X13070686Y-11170682D01*
X13070686Y-11170682D02*
X13080209Y-11165920D01*
X13080209Y-11165920D02*
X13084971Y-11161158D01*
X15476533Y-9140282D02*
X15476533Y-9211710D01*
X15476533Y-9211710D02*
X15481295Y-9225996D01*
X15481295Y-9225996D02*
X15490819Y-9235520D01*
X15490819Y-9235520D02*
X15505105Y-9240282D01*
X15505105Y-9240282D02*
X15514628Y-9240282D01*
X15376533Y-9240282D02*
X15433676Y-9240282D01*
X15405105Y-9240282D02*
X15405105Y-9140282D01*
X15405105Y-9140282D02*
X15414628Y-9154568D01*
X15414628Y-9154568D02*
X15424152Y-9164091D01*
X15424152Y-9164091D02*
X15433676Y-9168853D01*
X9126533Y-10102482D02*
X9126533Y-10173910D01*
X9126533Y-10173910D02*
X9131295Y-10188196D01*
X9131295Y-10188196D02*
X9140819Y-10197720D01*
X9140819Y-10197720D02*
X9155105Y-10202482D01*
X9155105Y-10202482D02*
X9164629Y-10202482D01*
X9083676Y-10112006D02*
X9078914Y-10107244D01*
X9078914Y-10107244D02*
X9069390Y-10102482D01*
X9069390Y-10102482D02*
X9045581Y-10102482D01*
X9045581Y-10102482D02*
X9036057Y-10107244D01*
X9036057Y-10107244D02*
X9031295Y-10112006D01*
X9031295Y-10112006D02*
X9026533Y-10121530D01*
X9026533Y-10121530D02*
X9026533Y-10131053D01*
X9026533Y-10131053D02*
X9031295Y-10145339D01*
X9031295Y-10145339D02*
X9088438Y-10202482D01*
X9088438Y-10202482D02*
X9026533Y-10202482D01*
X10585217Y-11313558D02*
X10589979Y-11318320D01*
X10589979Y-11318320D02*
X10604264Y-11323082D01*
X10604264Y-11323082D02*
X10613788Y-11323082D01*
X10613788Y-11323082D02*
X10628074Y-11318320D01*
X10628074Y-11318320D02*
X10637598Y-11308796D01*
X10637598Y-11308796D02*
X10642359Y-11299272D01*
X10642359Y-11299272D02*
X10647121Y-11280225D01*
X10647121Y-11280225D02*
X10647121Y-11265939D01*
X10647121Y-11265939D02*
X10642359Y-11246891D01*
X10642359Y-11246891D02*
X10637598Y-11237368D01*
X10637598Y-11237368D02*
X10628074Y-11227844D01*
X10628074Y-11227844D02*
X10613788Y-11223082D01*
X10613788Y-11223082D02*
X10604264Y-11223082D01*
X10604264Y-11223082D02*
X10589979Y-11227844D01*
X10589979Y-11227844D02*
X10585217Y-11232606D01*
X10547121Y-11232606D02*
X10542359Y-11227844D01*
X10542359Y-11227844D02*
X10532836Y-11223082D01*
X10532836Y-11223082D02*
X10509026Y-11223082D01*
X10509026Y-11223082D02*
X10499502Y-11227844D01*
X10499502Y-11227844D02*
X10494740Y-11232606D01*
X10494740Y-11232606D02*
X10489979Y-11242129D01*
X10489979Y-11242129D02*
X10489979Y-11251653D01*
X10489979Y-11251653D02*
X10494740Y-11265939D01*
X10494740Y-11265939D02*
X10551883Y-11323082D01*
X10551883Y-11323082D02*
X10489979Y-11323082D01*
X11600732Y-9510267D02*
X11672160Y-9510267D01*
X11672160Y-9510267D02*
X11686446Y-9505505D01*
X11686446Y-9505505D02*
X11695970Y-9495981D01*
X11695970Y-9495981D02*
X11700732Y-9481695D01*
X11700732Y-9481695D02*
X11700732Y-9472171D01*
X11600732Y-9548362D02*
X11600732Y-9610267D01*
X11600732Y-9610267D02*
X11638827Y-9576933D01*
X11638827Y-9576933D02*
X11638827Y-9591219D01*
X11638827Y-9591219D02*
X11643589Y-9600743D01*
X11643589Y-9600743D02*
X11648351Y-9605505D01*
X11648351Y-9605505D02*
X11657875Y-9610267D01*
X11657875Y-9610267D02*
X11681684Y-9610267D01*
X11681684Y-9610267D02*
X11691208Y-9605505D01*
X11691208Y-9605505D02*
X11695970Y-9600743D01*
X11695970Y-9600743D02*
X11700732Y-9591219D01*
X11700732Y-9591219D02*
X11700732Y-9562648D01*
X11700732Y-9562648D02*
X11695970Y-9553124D01*
X11695970Y-9553124D02*
X11691208Y-9548362D01*
X12138574Y-12983606D02*
X12148098Y-12978844D01*
X12148098Y-12978844D02*
X12157621Y-12969320D01*
X12157621Y-12969320D02*
X12171907Y-12955034D01*
X12171907Y-12955034D02*
X12181431Y-12950272D01*
X12181431Y-12950272D02*
X12190955Y-12950272D01*
X12186193Y-12974082D02*
X12195717Y-12969320D01*
X12195717Y-12969320D02*
X12205240Y-12959796D01*
X12205240Y-12959796D02*
X12210002Y-12940748D01*
X12210002Y-12940748D02*
X12210002Y-12907415D01*
X12210002Y-12907415D02*
X12205240Y-12888368D01*
X12205240Y-12888368D02*
X12195717Y-12878844D01*
X12195717Y-12878844D02*
X12186193Y-12874082D01*
X12186193Y-12874082D02*
X12167145Y-12874082D01*
X12167145Y-12874082D02*
X12157621Y-12878844D01*
X12157621Y-12878844D02*
X12148098Y-12888368D01*
X12148098Y-12888368D02*
X12143336Y-12907415D01*
X12143336Y-12907415D02*
X12143336Y-12940748D01*
X12143336Y-12940748D02*
X12148098Y-12959796D01*
X12148098Y-12959796D02*
X12157621Y-12969320D01*
X12157621Y-12969320D02*
X12167145Y-12974082D01*
X12167145Y-12974082D02*
X12186193Y-12974082D01*
X12105240Y-12883606D02*
X12100478Y-12878844D01*
X12100478Y-12878844D02*
X12090955Y-12874082D01*
X12090955Y-12874082D02*
X12067145Y-12874082D01*
X12067145Y-12874082D02*
X12057621Y-12878844D01*
X12057621Y-12878844D02*
X12052859Y-12883606D01*
X12052859Y-12883606D02*
X12048098Y-12893129D01*
X12048098Y-12893129D02*
X12048098Y-12902653D01*
X12048098Y-12902653D02*
X12052859Y-12916939D01*
X12052859Y-12916939D02*
X12110002Y-12974082D01*
X12110002Y-12974082D02*
X12048098Y-12974082D01*
D14*
%TO.C,U1*%
X13258800Y-12077700D02*
X13258800Y-13792200D01*
X13449300Y-11887200D02*
X14846300Y-11887200D01*
X13698300Y-13982700D02*
X13698673Y-14083727D01*
X13748673Y-14133700D02*
X14548200Y-14133700D01*
X14598200Y-14083700D02*
X14598200Y-13982700D01*
D10*
X14846300Y-13982700D02*
X13449300Y-13982700D01*
D14*
X14846300Y-13982700D02*
X13449300Y-13982700D01*
X15036800Y-12077700D02*
X15036800Y-13792200D01*
X13258800Y-12077700D02*
G75*
G02*
X13449300Y-11887200I190500J0D01*
G01*
X13449300Y-13982700D02*
G75*
G02*
X13258800Y-13792200I0J190500D01*
G01*
X13748673Y-14133700D02*
G75*
G02*
X13698673Y-14083727I2J50002D01*
G01*
X14598200Y-14083700D02*
G75*
G02*
X14548200Y-14133700I-50000J0D01*
G01*
X14846300Y-11887200D02*
G75*
G02*
X15036800Y-12077700I0J-190500D01*
G01*
X15036800Y-13792200D02*
G75*
G02*
X14846300Y-13982700I-190500J0D01*
G01*
D15*
X13278000Y-13958600D02*
G75*
G02*
X13227600Y-13958600I-25200J0D01*
G01*
X13227600Y-13958600D02*
G75*
G02*
X13278000Y-13958600I25200J0D01*
G01*
X13392300Y-13870600D02*
G75*
G02*
X13341900Y-13870600I-25200J0D01*
G01*
X13341900Y-13870600D02*
G75*
G02*
X13392300Y-13870600I25200J0D01*
G01*
D16*
%TO.C,D4*%
X11924250Y-11011700D02*
X12330250Y-11011700D01*
X11924250Y-11238700D02*
X11924250Y-11011700D01*
X12330250Y-11238700D02*
X11924250Y-11238700D01*
%TO.C,D2*%
X11924250Y-11392700D02*
X12330250Y-11392700D01*
X11924250Y-11619700D02*
X11924250Y-11392700D01*
X12330250Y-11619700D02*
X11924250Y-11619700D01*
%TO.C,R3*%
X12675494Y-11796200D02*
X12820906Y-11796200D01*
X12675494Y-11978200D02*
X12820906Y-11978200D01*
%TO.C,D3*%
X11924250Y-11773700D02*
X12330250Y-11773700D01*
X11924250Y-12000700D02*
X11924250Y-11773700D01*
X12330250Y-12000700D02*
X11924250Y-12000700D01*
%TO.C,Q1*%
X11798850Y-12213800D02*
X11718850Y-12213800D01*
X11798850Y-12213800D02*
X11878850Y-12213800D01*
X11798850Y-12525800D02*
X11718850Y-12525800D01*
X11798850Y-12525800D02*
X11878850Y-12525800D01*
X11928850Y-12218800D02*
X11904850Y-12185800D01*
X11952850Y-12185800D01*
X11928850Y-12218800D01*
G36*
X11928850Y-12218800D02*
G01*
X11904850Y-12185800D01*
X11952850Y-12185800D01*
X11928850Y-12218800D01*
G37*
%TO.C,C1*%
X10594675Y-10772300D02*
X10542425Y-10772300D01*
X10594675Y-10919300D02*
X10542425Y-10919300D01*
%TO.C,R2*%
X12668506Y-12532800D02*
X12523094Y-12532800D01*
X12668506Y-12714800D02*
X12523094Y-12714800D01*
%TO.C,R1*%
X12667106Y-12158400D02*
X12521694Y-12158400D01*
X12667106Y-12340400D02*
X12521694Y-12340400D01*
%TO.C,U2*%
X11107800Y-10758800D02*
X11483800Y-10758800D01*
X11107800Y-11440800D02*
X11483800Y-11440800D01*
X11483800Y-10758800D02*
X11483800Y-10884800D01*
X11483800Y-11440800D02*
X11483800Y-11314800D01*
X11003800Y-11463800D02*
X10955800Y-11463800D01*
X10979800Y-11430800D01*
X11003800Y-11463800D01*
G36*
X11003800Y-11463800D02*
G01*
X10955800Y-11463800D01*
X10979800Y-11430800D01*
X11003800Y-11463800D01*
G37*
%TO.C,R4*%
X12675494Y-11415200D02*
X12820906Y-11415200D01*
X12675494Y-11597200D02*
X12820906Y-11597200D01*
%TO.C,K1*%
X7941750Y-11855550D02*
X10841750Y-11855550D01*
X7941750Y-13125550D02*
X7941750Y-11855550D01*
X10541750Y-12455550D02*
X10661750Y-12455550D01*
X10541750Y-12525550D02*
X10541750Y-12455550D01*
X10581750Y-12525550D02*
X10621750Y-12455550D01*
X10631750Y-13149550D02*
X10865750Y-13149550D01*
X10661750Y-12455550D02*
X10661750Y-12525550D01*
X10661750Y-12525550D02*
X10541750Y-12525550D01*
X10841750Y-11855550D02*
X10841750Y-13125550D01*
X10841750Y-13125550D02*
X7941750Y-13125550D01*
X10865750Y-13149550D02*
X10865750Y-12930550D01*
%TO.C,R5*%
X12675494Y-11034200D02*
X12820906Y-11034200D01*
X12675494Y-11216200D02*
X12820906Y-11216200D01*
%TO.C,J1*%
X12205400Y-9027600D02*
X12441400Y-9027600D01*
X12205400Y-9089600D02*
X15277400Y-9089600D01*
X12205400Y-9239600D02*
X15277400Y-9239600D01*
X12205400Y-9729600D02*
X15277400Y-9729600D01*
X12205400Y-10031600D02*
X12205400Y-9027600D01*
X12205400Y-10031600D02*
X15277400Y-10031600D01*
X12501400Y-9027600D02*
X15277400Y-9027600D01*
X15277400Y-10031600D02*
X15277400Y-9027600D01*
X12471400Y-9027600D02*
X12427400Y-8966600D01*
X12515400Y-8966600D01*
X12471400Y-9027600D01*
G36*
X12471400Y-9027600D02*
G01*
X12427400Y-8966600D01*
X12515400Y-8966600D01*
X12471400Y-9027600D01*
G37*
%TO.C,J2*%
X8319200Y-9053000D02*
X8555200Y-9053000D01*
X8319200Y-9115000D02*
X9867200Y-9115000D01*
X8319200Y-9265000D02*
X9867200Y-9265000D01*
X8319200Y-9755000D02*
X9867200Y-9755000D01*
X8319200Y-10057000D02*
X8319200Y-9053000D01*
X8319200Y-10057000D02*
X9867200Y-10057000D01*
X8615200Y-9053000D02*
X9867200Y-9053000D01*
X9867200Y-10057000D02*
X9867200Y-9053000D01*
X8585200Y-9053000D02*
X8541200Y-8992000D01*
X8629200Y-8992000D01*
X8585200Y-9053000D01*
G36*
X8585200Y-9053000D02*
G01*
X8541200Y-8992000D01*
X8629200Y-8992000D01*
X8585200Y-9053000D01*
G37*
%TO.C,C2*%
X10594675Y-11026300D02*
X10542425Y-11026300D01*
X10594675Y-11173300D02*
X10542425Y-11173300D01*
%TO.C,J3*%
X10600250Y-10393600D02*
X10600250Y-10498600D01*
X10620250Y-9008600D02*
X10620250Y-10478600D01*
X10620250Y-10478600D02*
X10880250Y-10478600D01*
X10705250Y-10498600D02*
X10600250Y-10498600D01*
X11270250Y-10478600D02*
X11540250Y-10478600D01*
X11540250Y-9008600D02*
X10620250Y-9008600D01*
X11540250Y-9888600D02*
X11540250Y-9008600D01*
X11540250Y-10478600D02*
X11540250Y-10288600D01*
%TO.C,Q2*%
X11797450Y-12703000D02*
X11717450Y-12703000D01*
X11797450Y-12703000D02*
X11877450Y-12703000D01*
X11797450Y-13015000D02*
X11717450Y-13015000D01*
X11797450Y-13015000D02*
X11877450Y-13015000D01*
X11927450Y-12708000D02*
X11903450Y-12675000D01*
X11951450Y-12675000D01*
X11927450Y-12708000D01*
G36*
X11927450Y-12708000D02*
G01*
X11903450Y-12675000D01*
X11951450Y-12675000D01*
X11927450Y-12708000D01*
G37*
%TD*%
M02*
