%TF.GenerationSoftware,KiCad,Pcbnew,9.0.4*%
%TF.CreationDate,2025-09-19T15:57:40+02:00*%
%TF.ProjectId,esp32c6-charger,65737033-3263-4362-9d63-686172676572,rev?*%
%TF.SameCoordinates,Original*%
%TF.FileFunction,Soldermask,Top*%
%TF.FilePolarity,Negative*%
%FSLAX45Y45*%
G04 Gerber Fmt 4.5, Leading zero omitted, Abs format (unit mm)*
G04 Created by KiCad (PCBNEW 9.0.4) date 2025-09-19 15:57:40*
%MOMM*%
%LPD*%
G01*
G04 APERTURE LIST*
G04 Aperture macros list*
%AMRoundRect*
0 Rectangle with rounded corners*
0 $1 Rounding radius*
0 $2 $3 $4 $5 $6 $7 $8 $9 X,Y pos of 4 corners*
0 Add a 4 corners polygon primitive as box body*
4,1,4,$2,$3,$4,$5,$6,$7,$8,$9,$2,$3,0*
0 Add four circle primitives for the rounded corners*
1,1,$1+$1,$2,$3*
1,1,$1+$1,$4,$5*
1,1,$1+$1,$6,$7*
1,1,$1+$1,$8,$9*
0 Add four rect primitives between the rounded corners*
20,1,$1+$1,$2,$3,$4,$5,0*
20,1,$1+$1,$4,$5,$6,$7,0*
20,1,$1+$1,$6,$7,$8,$9,0*
20,1,$1+$1,$8,$9,$2,$3,0*%
G04 Aperture macros list end*
%ADD10O,1.600000X2.000000*%
%ADD11R,1.700000X1.700000*%
%ADD12C,1.700000*%
%ADD13RoundRect,0.090000X-0.660000X-0.360000X0.660000X-0.360000X0.660000X0.360000X-0.660000X0.360000X0*%
%ADD14C,1.524000*%
%ADD15R,1.300000X1.300000*%
%ADD16C,1.300000*%
%ADD17RoundRect,0.250000X-1.050000X-1.050000X1.050000X-1.050000X1.050000X1.050000X-1.050000X1.050000X0*%
%ADD18C,2.600000*%
%ADD19C,2.000000*%
%ADD20R,2.000000X2.000000*%
%ADD21RoundRect,0.250000X0.550000X-0.550000X0.550000X0.550000X-0.550000X0.550000X-0.550000X-0.550000X0*%
%ADD22C,1.600000*%
G04 APERTURE END LIST*
D10*
%TO.C,Display1*%
X12547600Y-9156700D03*
X12801600Y-9156700D03*
X13055600Y-9156700D03*
X13309600Y-9156700D03*
%TD*%
D11*
%TO.C,Rfidreader1*%
X15849600Y-9055100D03*
D12*
X15849600Y-9309100D03*
X15849600Y-9563100D03*
X15849600Y-9817100D03*
X15849600Y-10071100D03*
X15849600Y-10325100D03*
X15849600Y-10579100D03*
X15849600Y-10833100D03*
%TD*%
D13*
%TO.C,D1*%
X14775400Y-9106100D03*
X14775400Y-9436100D03*
X15265400Y-9436100D03*
X15265400Y-9106100D03*
%TD*%
D14*
%TO.C,U2*%
X13157200Y-12128500D03*
X13157200Y-11874500D03*
X13157200Y-11620500D03*
X13157200Y-11366500D03*
X13157200Y-11112500D03*
X13157200Y-10858500D03*
X13157200Y-10604500D03*
X14681200Y-10604500D03*
X14681200Y-10858500D03*
X14681200Y-11112500D03*
X14681200Y-11366500D03*
X14681200Y-11620500D03*
X14681200Y-11874500D03*
X14681200Y-12128500D03*
%TD*%
D15*
%TO.C,Q2*%
X11607800Y-11125200D03*
D16*
X11480800Y-11252200D03*
X11607800Y-11379200D03*
%TD*%
D17*
%TO.C,J1*%
X10642600Y-7962900D03*
D18*
X11150600Y-7962900D03*
%TD*%
D19*
%TO.C,K1*%
X8373150Y-11303450D03*
X8373150Y-10553450D03*
X8873150Y-11303450D03*
X8873150Y-10553450D03*
X7873150Y-11303450D03*
X7873150Y-10553450D03*
D20*
X10373150Y-11303450D03*
D19*
X10373150Y-10553450D03*
%TD*%
D17*
%TO.C,J2*%
X12242800Y-7962900D03*
D18*
X12750800Y-7962900D03*
X13258800Y-7962900D03*
X13766800Y-7962900D03*
X14274800Y-7962900D03*
X14782800Y-7962900D03*
%TD*%
D17*
%TO.C,J3*%
X8356600Y-7962900D03*
D18*
X8864600Y-7962900D03*
X9372600Y-7962900D03*
%TD*%
D21*
%TO.C,D5*%
X10795000Y-11303000D03*
D22*
X10795000Y-10541000D03*
%TD*%
D15*
%TO.C,Q1*%
X11607800Y-11760200D03*
D16*
X11480800Y-11887200D03*
X11607800Y-12014200D03*
%TD*%
M02*
